<svg width="1445" height="192" viewBox="0 0 1445 192" fill="none" xmlns="http://www.w3.org/2000/svg">
<path d="M1423.21 100C1427.21 93.6003 1424.28 89.5403 1419.73 86.8503C1412.17 82.3903 1403.95 78.6703 1396.01 74.6403C1374.85 65.7803 1352.4 59.2203 1327.46 57.3503C1320.68 57.0067 1313.89 57.0869 1307.12 57.5903C1302.38 57.8403 1299.66 60.7803 1298.49 64.8503L1289.32 70.5703C1284.86 78.7303 1276.04 80.1303 1268.56 83.3403C1265.91 84.4703 1262.98 84.8003 1259.17 85.4703C1115.05 42.0603 956.09 18.7003 785.07 18.7003C750.557 18.7003 716.06 19.647 681.58 21.5403C679.76 18.6603 677.943 15.7736 676.13 12.8803C675.343 10.2603 674.56 7.63693 673.78 5.01026C672.33 4.01026 671.17 2.26026 669.38 2.01026C663.06 1.01026 656.68 -0.119741 650.04 0.010259C627.68 0.250259 605.53 -0.509702 582.6 2.3003C581.103 1.99901 579.575 1.88144 578.05 1.95026C568.5 3.39026 558.95 4.95029 549.39 6.54029C543.32 7.54029 537.25 8.54028 531.19 9.91028C530.19 10.1403 529.14 11.9103 528.12 12.9903C526.56 13.9303 524.35 15.3403 521.81 17.2003C515.14 22.0903 513.49 24.8203 506.66 29.6603C504.91 30.9003 502.73 32.0102 500.07 33.8702C496.07 36.6802 490.77 37.7702 486.13 39.8702C484.28 40.7002 482.49 41.7103 480.25 42.9803C472.043 44.2736 463.843 45.607 455.65 46.9803C427.74 48.3303 424.54 45.9103 399.82 48.7903C391.01 49.7903 382.25 49.2203 364.45 48.9703C352.45 48.8103 346.57 43.0803 343.07 35.4603C341.61 32.2903 341.18 27.4603 338.16 26.5303C334.66 25.4403 328.55 27.2102 324.04 28.7502C318.04 30.7502 312.45 33.8103 306.68 36.4203C300.42 35.2303 294.35 33.5203 287.9 32.9903C280.22 32.3603 281.62 28.1003 281.51 24.2303C273.39 25.3103 265.67 25.7003 261.75 19.7203C257.93 11.9403 250.01 9.44027 238.45 9.46027C218.9 9.46027 199.57 13.1103 180.34 17.7903C143.79 26.5903 107.22 36.4403 72 52.2103C51.33 61.4203 30 69.7103 9.21 79.4603C7.11 80.4203 5.04 81.4369 3 82.5103V123.63C6.14 123.4 9.31 123.12 12.41 122.96L31.41 117.96L12.41 122.96C9.08815 123.966 5.92145 125.426 3 127.3L3 191.58H1444.55V136.52C1442.41 134.558 1439.96 132.973 1437.29 131.83C1422.5 125.97 1418.64 115.3 1423.21 100ZM222.21 73.4803C223.412 73.7858 224.641 73.9701 225.88 74.0303C224.638 73.9707 223.405 73.7865 222.2 73.4803H222.21ZM259.32 45.6403C260.188 44.1498 260.917 42.5833 261.5 40.9603C260.914 42.5837 260.181 44.1502 259.31 45.6403H259.32ZM581.8 5.57026L581.85 5.66028C581.824 5.63447 581.804 5.60387 581.79 5.57026H581.8ZM646.32 6.67029C647.973 6.63197 649.625 6.76599 651.25 7.07026C650.83 7.00026 648.82 6.77029 646.31 6.67029H646.32ZM1311.47 68.2103C1312.1 68.1103 1312.75 68.1103 1313.38 68.2103C1312.68 68.2103 1312.06 68.2103 1311.47 68.2103Z" fill="#2E2E66"/>
<path d="M3 175.89V191.58H1444.55V155.98C1255.73 67.8402 1033.09 18.7002 785.07 18.7002C518.94 18.7002 252.61 75.2602 3 175.89Z" fill="#5D5DA0"/>
<path d="M474.469 46.6501C474.059 48.2101 504.969 32.1501 512.159 28.5201C519.349 24.8901 540.909 10.9102 540.909 10.9102L661.999 14.2802L729.349 55.9802L474.469 46.6501Z" fill="#5D5DA0"/>
<path d="M1444.55 136.971L1442.09 134.861C1434.76 134.171 1425.76 132.071 1421.87 125.331C1418.14 118.891 1422.87 114.651 1419.14 107.101C1415.36 99.3805 1389.67 87.1005 1397.49 91.6005L1305.56 75.2705L1244.62 94.8605L1444.55 169.13V136.971Z" fill="#5D5DA0"/>
<path d="M1396 74.6405C1374.84 65.7805 1352.39 59.2205 1327.45 57.3505C1320.67 57.007 1313.88 57.0872 1307.11 57.5905C1302.37 57.8405 1299.65 60.7805 1298.48 64.8505L1307.76 70.0506C1312.25 66.2306 1315.37 69.0505 1318.62 69.8505C1339.78 74.7605 1360.81 79.9205 1381.88 85.0105C1386 80.8305 1393.56 80.8105 1396 74.6405Z" fill="#6A6AB7"/>
<path d="M1307.77 70.0506L1298.49 64.8506L1289.32 70.5706C1284.86 78.7306 1276.04 80.1306 1268.56 83.3406C1265.29 84.7406 1261.63 84.9006 1256.39 85.9906C1268.39 95.1106 1282.39 97.8106 1298.55 95.9906C1306.62 95.0706 1308.1 92.7306 1316.45 91.3006C1323.84 90.0306 1329.29 90.4306 1336.77 91.2006C1346.34 92.2006 1359.38 93.7906 1375.08 96.4706C1348.55 91.0106 1329.72 84.9705 1323.54 81.3705C1321.38 80.1105 1319.27 78.7505 1319.27 78.7505C1315.31 75.9605 1311.59 72.9506 1307.77 70.0506Z" fill="#4D4D8E"/>
<path d="M1376.2 95.9703C1390.83 100.19 1406.63 101.17 1423.2 99.9703C1427.2 93.5703 1424.27 89.5103 1419.72 86.8203C1412.16 82.3603 1403.94 78.6404 1396 74.6104C1394.42 77.1233 1392.19 79.1699 1389.56 80.5403C1383.64 83.4403 1377.65 81.0303 1372.56 79.4403C1363.3 76.6345 1353.7 75.1071 1344.02 74.9003L1376.2 95.9703Z" fill="#4D4D8E"/>
<path d="M1376.2 95.9704C1388.99 98.4504 1404.14 100.91 1405.51 98.6404C1407.35 95.6404 1383.51 85.6404 1381.89 85.0104C1348.13 71.0704 1309.29 65.9104 1307.49 69.0804C1307.39 69.2504 1307.35 69.5504 1307.77 70.0804C1311.59 72.9804 1315.31 75.9904 1319.27 78.7504C1321.99 80.6304 1325.05 82.1604 1327.96 83.8504L1376.2 95.9704Z" fill="#5D5DA0"/>
<path d="M1114.36 188.441C1098.03 194.701 1079.36 186.631 1061.88 185.441C1041.17 184.051 1021.64 176.881 1002.79 168.951C1000.69 168.061 999.79 165.051 998.28 163.041C1000.47 162.581 1002.67 161.491 1004.85 161.781C1013.46 162.941 1022.57 169.921 1030.54 163.661V163.431C1031.2 161.301 1031.18 158.801 1032.62 157.131C1039.98 148.611 1039.57 147.271 1026.86 142.961C1024.55 142.181 1021.74 142.271 1019.75 141.221C1018.09 140.331 1016.1 138.021 1016.42 136.971C1016.74 135.921 1019.56 134.381 1021.26 134.601C1029.09 135.601 1036.94 137.221 1044.8 138.601L1041.74 130.911C1045.07 131.957 1048.41 133.004 1051.74 134.051C1051.74 130.541 1051.68 127.051 1051.65 123.541C1026.22 122.891 1001.38 116.541 976.78 110.901C935.59 101.511 898.27 85.9007 862.38 69.4707L831.62 68.1007C831.32 77.2107 838.82 77.7707 845.74 78.8107C860.23 81.0007 872.22 85.6107 877.84 98.5507C859.84 100.941 844.3 94.9907 828.94 90.9007C821.94 89.0307 815.87 86.3307 809.61 90.3407V90.6907C816.41 93.5407 823.38 96.2407 830.01 99.4307C831.43 100.121 832.44 102.891 831.89 104.151C831.47 105.151 827.75 106.091 826.36 105.551C815.03 101.211 803.91 96.7807 790.53 98.0407C801.53 109.351 802.53 109.931 817.08 113.131C831.21 116.231 845.87 118.491 861.75 129.041C853.1 129.341 848.65 130.371 844.75 129.481C831.59 126.481 818.66 122.891 805.75 119.481C778 112.011 750.79 104.211 726 92.5907L722.39 91.2707L726 92.4107C731.19 91.0207 736.33 89.5307 741.58 88.2907C745.52 87.3707 749.58 86.7707 753.63 86.0207C743.3 77.3007 728.32 77.3307 717.02 78.4007C695.18 80.4807 674.77 76.2707 653.85 74.7107C644.13 73.9907 636.09 71.9507 629.65 67.7107C624.53 64.3607 625.25 62.8107 621.14 59.6007C613.07 53.2707 603.39 53.6607 570.93 52.7407C558.2 52.3807 551.83 52.2007 549.06 52.0107C533.65 51.0216 518.448 47.9227 503.88 42.8007C498.07 43.4607 488.76 44.4607 477.34 45.4207C428.12 49.5307 429.84 45.2107 399.84 48.7007C391.03 49.7007 382.27 49.1307 364.47 48.8807C352.47 48.7207 346.59 42.9907 343.09 35.3707C341.63 32.2007 341.2 27.3707 338.18 26.4407C334.68 25.3507 328.57 27.1207 324.06 28.6607C318.06 30.6607 312.47 33.7207 306.7 36.3307C303.58 43.0307 302.63 51.1007 296.86 56.3307C280.75 70.8907 264.34 86.3307 239.99 94.6607C244.73 82.4807 261.41 74.2007 262.2 59.3107C254.42 62.8207 248.76 65.5507 242.91 67.9607C236.91 70.4407 231.42 75.7807 222.22 73.4807C234.22 62.0807 255.03 58.9207 261.51 40.9607C233.62 54.7907 214.09 72.2207 188.29 86.6707C189.69 76.7507 197.17 72.9507 204.65 68.6707C218.96 60.4607 232.74 51.8107 246.59 43.4407C241.38 43.4407 237.84 45.6207 233.95 46.9607C230.26 48.2407 226.2 48.6307 222.31 49.4207C199.81 58.9907 178.55 70.6907 154.87 79.6407C124.44 91.1407 93.87 101.951 62.14 110.041C45.59 114.211 29 118.641 12.41 122.961C9.08868 123.963 5.922 125.42 3 127.291L3 154.791L7.53 155.381C7.43 156.381 7.32 157.381 7.22 158.381L3 160.031V169.211C20.12 167.141 37.11 162.911 54.09 158.271C61.44 156.271 69.09 156.101 76.39 154.071C83.69 152.041 90.92 146.791 98.48 150.851C79.41 161.741 59.89 171.081 38.19 174.851C26.45 176.917 14.72 178.827 3 180.581V191.581H249.91C271.936 185.11 294.374 180.132 317.07 176.681C343.56 172.611 370.79 170.111 397.07 173.061C425.12 176.191 453.46 179.711 481.07 185.441C489.84 187.261 498.55 189.341 507.24 191.581H1119.69C1117.94 190.541 1116.17 189.401 1114.36 188.441Z" fill="#7171AF"/>
<path d="M238.45 9.39074C218.9 9.39074 199.57 13.0408 180.34 17.7208C143.79 26.5908 107.22 36.4408 72 52.2108C51.33 61.4208 30 69.7108 9.21 79.4608C7.11 80.4208 5.04 81.4374 3 82.5107V102.951C44.48 82.5607 84.62 61.3308 128.65 49.2108C147.88 43.9208 166.78 37.2708 185.96 32.6708C202.38 28.7408 213.96 23.6708 222.71 28.1008C231.71 32.6608 230.31 42.4807 236.89 42.6907C240.98 42.8207 248.24 39.2507 261.75 19.6907C257.93 11.8707 250 9.37074 238.45 9.39074Z" fill="#6A6AB7"/>
<path d="M3 126.91C5.88466 125.048 9.06755 123.695 12.41 122.91C9.65 123.32 6.48 123.67 3 123.85V126.91Z" fill="#7A7AC1"/>
<path d="M7.53 155.38C5.90111 154.856 4.37038 154.065 3 153.04L3 161.93C17 157.39 20.77 155.76 20.73 155.31C20.67 154.71 13.81 157.37 7.53 155.38Z" fill="#7A7AC1"/>
<path d="M76.39 154.08C69.06 156.08 61.39 156.28 54.09 158.28C37.09 162.92 20.09 167.15 3 169.22V180.58C14.72 178.813 26.45 176.91 38.19 174.87C59.89 171.09 79.41 161.75 98.48 150.87C90.92 146.8 83.75 152.03 76.39 154.08Z" fill="#7A7AC1"/>
<path d="M261.749 19.6504L250.889 30.7604C246.642 33.2004 242.339 35.6237 237.979 38.0304C195.448 61.4717 151.046 81.3432 105.229 97.4404C157.999 85.2104 182.289 74.2704 194.639 66.2104C206.805 58.0395 220.022 51.5539 233.928 46.9304C239.308 45.1704 243.759 44.0604 246.569 43.4104C232.719 51.7804 218.939 60.4104 204.629 68.6404C197.149 72.9304 189.629 76.7304 188.269 86.6404C214.069 72.1904 233.598 54.7604 261.488 40.9304C255.008 58.9304 234.189 62.0504 222.199 73.4504C231.409 75.7504 236.879 70.4504 242.889 67.9304C248.739 65.5204 254.398 62.7904 262.178 59.2804C261.388 74.1704 244.709 82.4504 239.969 94.6304C264.319 86.2504 280.729 70.8604 296.839 56.3004C302.609 51.0904 303.558 43.0204 306.678 36.3004C300.418 35.1104 294.348 33.4004 287.898 32.8704C280.218 32.2404 281.619 27.9804 281.509 24.1104C273.389 25.2104 265.669 25.6304 261.749 19.6504Z" fill="#7A7AC1"/>
<path d="M227.51 23.6706C210.245 24.3922 193.126 27.1548 176.51 31.9006C206.43 27.8506 213.1 29.8106 213.42 32.4706C214.58 41.8906 137.42 72.7305 74.51 91.1905C61.51 95.0005 13.51 109.111 12.08 103.681C11.08 99.7805 34.5 87.2405 56.23 76.4405C37.635 82.204 19.7721 90.107 3 99.9906H3V123.611C6.14 123.381 9.31 123.101 12.41 122.941C29 118.641 45.59 114.211 62.12 110.031C93.87 101.941 124.42 91.1305 154.85 79.6305C178.53 70.6805 199.79 58.9806 222.29 49.4106C227.57 45.6206 233.23 42.1006 237.98 38.0306C242.98 33.7106 247.2 28.8806 251.72 24.3006C243.672 23.576 235.585 23.3655 227.51 23.6706V23.6706Z" fill="#4D4D8E"/>
<path d="M0.999344 103.93C1.20934 105.73 4.49934 106.53 10.9993 106.62C72.4493 107.41 226.479 40.6204 222.749 28.0904C221.629 24.3404 206.819 27.1704 182.119 31.9004C162.642 35.7032 143.56 41.3073 125.119 48.6404C48.3393 78.2104 0.149344 96.7704 0.999344 103.93Z" fill="#5D5DA0"/>
<path d="M1396.61 105.561L1405.07 107.561C1405.28 107.161 1405.49 106.761 1405.71 106.361L1397.25 104.311L1396.61 105.561Z" fill="#7A7AC1"/>
<path d="M1053.09 171.521L1053.29 171.431V171.311L1053.09 171.521Z" fill="#7A7AC1"/>
<path d="M1117.65 167.131C1099.37 164.131 1080.17 167.691 1061.52 167.781L1053.29 171.43C1051.23 179.14 1049.97 186.591 1056.4 191.581H1174.63C1160.29 178.091 1140.7 170.901 1117.65 167.131Z" fill="#7A7AC1"/>
<path d="M1045.53 173.49C1039.43 179.41 1033.4 185.077 1027.44 190.49C1027.57 190.84 1027.71 191.2 1027.85 191.56H1057C1055.13 189.343 1053.79 186.731 1053.07 183.92C1050.95 175.66 1054.17 167.35 1056.41 162.73C1052.88 166.297 1049.25 169.884 1045.53 173.49Z" fill="#6D6DB2"/>
<path d="M1142.69 143.39C1125.61 141.25 1108.04 138.18 1088.79 145.69C1080.24 149.03 1071.92 153.27 1063.49 157.1C1055.92 160.16 1053.69 165.49 1053.09 171.52L1061.52 167.78L1062.87 160.78C1070.87 161.64 1079.17 157.78 1087 156.6C1107.44 153.6 1127 155.1 1144 162.36C1147.09 163.68 1150.16 165.27 1153.66 165.73C1171.71 168.07 1178.22 182.07 1189.39 191.29L1189.65 191.54H1208.85C1211.06 183.73 1208.51 176.74 1202.93 170.4C1188.42 154.01 1166.87 146.43 1142.69 143.39Z" fill="#57579E"/>
<path d="M1189.34 191.33C1178.17 182.11 1171.66 168.11 1153.61 165.77C1150.11 165.32 1147.04 163.77 1143.95 162.4C1117.78 151.2 1092.63 156.04 1086.95 156.64C1079.09 157.5 1056.86 159.9 1052.67 168.24C1051.87 169.83 1051.15 172.79 1052.39 173.36C1054.33 174.25 1060.19 168.95 1061.47 167.78C1080.12 167.69 1099.32 164.15 1117.6 167.13C1140.6 170.9 1160.24 178.13 1174.6 191.58H1189.6L1189.34 191.33Z" fill="#4D4D8E"/>
<path d="M683.5 34.2104C686.11 33.4804 689.11 33.1205 686.95 29.8505C683.24 24.2505 679.72 18.5305 676.13 12.8505C675.344 10.2305 674.56 7.60714 673.78 4.98047C667.78 8.30047 661.98 7.06045 656.09 7.90045C655.55 10.5705 653.67 11.1904 651.04 11.4304C636.6 12.7638 622.147 14.1638 607.68 15.6304C605.98 15.8104 604.17 16.8005 602.41 17.4105C610.68 18.2305 619.01 18.8804 627.17 19.9604C630.09 20.3404 630.03 21.4604 628 26.6304C631.65 26.4304 635.17 26.0804 638.61 26.0704C644.31 26.0704 649.19 27.4104 654.23 29.1204C662.08 31.7804 671.18 32.4704 679.76 33.9604C681 34.2104 682.25 34.2104 683.5 34.2104Z" fill="#5D5DA0"/>
<path d="M656.09 7.93024C661.98 7.09024 667.76 8.33026 673.78 5.01026C672.33 4.01026 671.17 2.26026 669.38 2.01026C663.06 1.01026 656.68 -0.119741 650.04 0.010259C627.68 0.250259 605.53 -0.509702 582.6 2.3003C581.68 4.2403 580.77 6.05027 583.49 6.90027C585.783 7.73845 588.024 8.71352 590.2 9.82026C608.91 8.76026 627.64 7.6203 646.31 6.7403C649.69 6.5203 652.84 7.48024 656.09 7.93024Z" fill="#6A6AB7"/>
<path d="M644.869 5.68039C637.059 5.98039 586.869 7.88042 583.489 6.83042C583.134 6.74957 582.799 6.59584 582.507 6.37894C582.214 6.16204 581.97 5.8867 581.789 5.57041C581.429 4.65041 582.019 3.47044 582.599 2.23044C581.102 1.92915 579.574 1.81158 578.049 1.8804C568.499 3.3204 558.949 4.88043 549.389 6.47043C543.319 7.47043 537.249 8.47043 531.189 9.84043C530.189 10.0704 529.139 11.8404 528.119 12.9204C528.889 13.5504 529.469 14.5904 530.439 14.7404C536.439 15.6804 542.439 16.4204 548.439 17.2204C557.439 17.2204 566.439 17.3004 575.439 17.2204C579.189 17.2204 583.039 16.7604 586.839 16.5104L644.869 5.68039Z" fill="#5A5A9E"/>
<path d="M617.38 15.21C585.06 15.55 571.63 16.15 565.83 16.7C565.12 16.77 562.67 17.02 559.41 17.14C554.309 17.3392 549.2 17.1386 544.13 16.54C538.691 15.8791 533.332 14.6799 528.13 12.96C526.57 13.9 524.36 15.31 521.82 17.17C515.15 22.06 513.5 24.7899 506.67 29.6299C504.92 30.8699 502.74 31.98 500.08 33.84C496.08 36.65 490.78 37.74 486.14 39.84C483.23 41.15 480.47 42.8899 475.83 45.4299C483.583 46.2099 491.393 46.9566 499.26 47.67C522.253 49.7633 544.96 51.5199 567.38 52.9399C555.12 50.9399 509.99 43.38 508.7 38.04C508.49 37.3168 508.441 36.5565 508.555 35.8121C508.668 35.0678 508.943 34.3572 509.36 33.73C510.505 32.5146 512.028 31.7218 513.68 31.48C518.774 30.3031 523.924 29.3853 529.11 28.73C534.8 28.14 535.9 28.0399 536.34 27.3699C537 26.3699 535.96 24.31 528.88 19.83C529.583 19.2435 530.39 18.7955 531.26 18.5099C533.096 17.9721 535.061 18.0888 536.82 18.84C537.82 19.24 543.61 19.29 555.1 19.4C563.41 19.4 586.29 18.52 617.38 15.21Z" fill="#7A7AC1"/>
<path d="M540.459 15.2099C540.349 15.6499 540.849 16.2899 543.819 17.0399C547.259 17.3699 552.329 17.7999 558.539 18.0399C580.869 18.8999 583.789 16.0999 607.679 15.6999C621.909 15.4699 636.599 12.8199 651.039 11.4999C653.669 11.2599 655.549 10.6399 656.089 7.9699C654.459 7.7399 652.859 7.38991 651.249 7.10991C650.849 7.04991 648.829 6.80989 646.309 6.70989C639.214 6.40728 632.108 6.46735 625.019 6.88988C584.669 9.82988 541.369 11.5799 540.459 15.2099Z" fill="#4D4D8E"/>
<path d="M1444.55 136.52C1442.41 134.558 1439.96 132.972 1437.29 131.83C1422.5 125.97 1418.64 115.3 1423.21 100C1406.63 101.17 1390.83 100.19 1376.21 96C1375.9 96.7874 1375.48 97.5228 1374.95 98.18C1375.12 98.97 1374.95 100.11 1375.51 100.47C1381.23 104.09 1391.59 102.32 1393.13 111.02C1393.35 112.28 1397.22 112.37 1399.44 112.93C1403.81 114.02 1408.21 115.06 1413.35 116.31C1405.19 121.02 1405.05 121.31 1409.26 124.13C1410.63 125.03 1413.44 125.81 1413.26 126.74C1411.45 135.17 1420.43 134.89 1424.45 138.48C1427.1 140.85 1430.62 142.84 1436.07 138.77C1437.47 137.77 1441.18 138.89 1443.52 139.57C1443.88 139.67 1444.23 139.79 1444.58 139.91L1444.55 136.52ZM1405.07 107.61L1396.61 105.61L1397.25 104.41L1405.71 106.46C1405.49 106.81 1405.28 107.21 1405.07 107.61Z" fill="#7A7AC1"/>
</svg>
