<?xml version="1.0" encoding="utf-8"?>
<!-- Generator: Adobe Illustrator 26.5.0, SVG Export Plug-In . SVG Version: 6.00 Build 0)  -->
<svg version="1.1" id="Layer_1" xmlns="http://www.w3.org/2000/svg" xmlns:xlink="http://www.w3.org/1999/xlink" x="0px" y="0px"
	 viewBox="0 0 162 154" style="enable-background:new 0 0 162 154;" xml:space="preserve">
<style type="text/css">
	.st0{fill:#EDF2F7;}
	.st1{fill:url(#SVGID_1_);}
	.st2{fill:#6782FF;}
	.st3{fill:#1A5CC6;}
	.st4{fill:#DAC7C7;}
	.st5{opacity:0.5;fill:#5E4A4A;enable-background:new    ;}
	.st6{fill:#BCA1A1;}
	.st7{fill:#403958;}
	.st8{fill:#2B8BEC;}
	.st9{opacity:0.22;fill:#A6D0F5;enable-background:new    ;}
	.st10{opacity:0.3;fill:#3E49AC;enable-background:new    ;}
	.st11{opacity:0.5;}
	.st12{fill:url(#SVGID_00000137815462626878990420000011917840465508071555_);}
	.st13{fill:#DB59BE;}
	.st14{opacity:0.25;fill:#341280;enable-background:new    ;}
	.st15{fill:#DDEBF9;}
	.st16{fill:#B3D1E8;}
	.st17{fill:#FFD6E2;}
	.st18{opacity:0.5;fill:#F57FA0;enable-background:new    ;}
	.st19{fill:#C5C5FA;}
	.st20{opacity:0.15;fill:#341280;enable-background:new    ;}
	.st21{fill:url(#SVGID_00000035492079544224786700000006054707331988127894_);}
	.st22{opacity:0.25;}
	.st23{fill:url(#SVGID_00000101798037840252835550000016221146382001554068_);}
	.st24{opacity:0.25;fill:url(#SVGID_00000137835513819186054930000015524835870440941713_);enable-background:new    ;}
	.st25{fill:url(#SVGID_00000032628031922044155650000016819331572090485936_);}
	.st26{opacity:0.3;fill:url(#SVGID_00000021120513368392899020000011201626636178551692_);enable-background:new    ;}
	.st27{fill:#EFBDCC;}
	.st28{fill:#E585A5;}
	.st29{fill:#FCC3D2;}
	.st30{opacity:0.25;fill:url(#SVGID_00000066508970013743494090000016197435723141936020_);enable-background:new    ;}
	.st31{opacity:0.25;fill:url(#SVGID_00000143616644270104725500000016885188532039785383_);enable-background:new    ;}
	.st32{opacity:0.25;fill:url(#SVGID_00000116214933007668621790000009235489738183844757_);enable-background:new    ;}
	.st33{fill:url(#SVGID_00000098900822823891474890000012864521546929044902_);}
	.st34{opacity:0.3;fill:url(#SVGID_00000124154179326700784190000014910059057532706443_);enable-background:new    ;}
	.st35{fill:#F480A1;}
	.st36{fill:none;stroke:#F480A1;stroke-width:0.91;stroke-miterlimit:10;}
	.st37{opacity:0.3;fill:url(#SVGID_00000086652851177296996420000015418089002681947028_);enable-background:new    ;}
	.st38{fill:#F4CEDA;}
	.st39{opacity:0.6;fill:#F480A1;enable-background:new    ;}
	.st40{fill:url(#SVGID_00000039854549181541449600000017435026952510945174_);}
	.st41{fill:url(#SVGID_00000152248180461191809180000001103291713879573178_);}
	.st42{opacity:0.5;fill:#F480A1;enable-background:new    ;}
	.st43{fill:url(#SVGID_00000105409380892093915750000007443199701229760439_);}
</style>
<path class="st0" d="M76.5,0h8C127.3,0,162,34.5,162,77l0,0c0,42.5-34.7,77-77.4,77h-8c-42.8,0-77.4-34.5-77.4-77l0,0
	C-0.9,34.5,33.8,0,76.5,0z"/>
<linearGradient id="SVGID_1_" gradientUnits="userSpaceOnUse" x1="33.2078" y1="-24.498" x2="30.6526" y2="181.0137" gradientTransform="matrix(1 0 0 -1 0 156)">
	<stop  offset="0.49" style="stop-color:#EFEFFF"/>
	<stop  offset="0.52" style="stop-color:#EAECFF"/>
	<stop  offset="0.56" style="stop-color:#DAE2FA"/>
	<stop  offset="0.6" style="stop-color:#BFD2F5"/>
	<stop  offset="0.63" style="stop-color:#A6C3F0"/>
	<stop  offset="0.66" style="stop-color:#A5C0EE"/>
	<stop  offset="0.68" style="stop-color:#A1B5E8"/>
	<stop  offset="0.7" style="stop-color:#9CA4DE"/>
	<stop  offset="0.71" style="stop-color:#948BCF"/>
	<stop  offset="0.73" style="stop-color:#896CBD"/>
	<stop  offset="0.74" style="stop-color:#8255B0"/>
	<stop  offset="0.84" style="stop-color:#6845A5"/>
	<stop  offset="1" style="stop-color:#31228F"/>
</linearGradient>
<path class="st1" d="M31.9,86.2c7.7,0,14-6.3,14-14s-6.3-14-14-14s-14,6.3-14,14S24.1,86.2,31.9,86.2z"/>
<path class="st2" d="M31.9,58.2c7.7,0,14,6.3,14,14s-6.3,14-14,14s-14-6.3-14-14S24.1,58.2,31.9,58.2z M31.9,57.1
	c-8.3,0-15.1,6.8-15.1,15.1c0,8.3,6.8,15.1,15.1,15.1c8.3,0,15.1-6.8,15.1-15.1C46.9,63.9,40.2,57.1,31.9,57.1z"/>
<path class="st3" d="M37.5,64.7H25.2v15.5h12.3V64.7z"/>
<path class="st4" d="M37.8,67.5c-0.4,1-1.3,1.4-2,1.1c-0.3-0.1-0.5-0.3-0.7-0.6c-0.3-0.5-0.3-1.2-0.1-1.8c0.3-1,1.3-1.4,2-1.1
	c0.3,0.1,0.5,0.4,0.7,0.7C38,66.3,38,67,37.8,67.5z"/>
<path class="st5" d="M35.9,66.6c0.2-0.4,0.7-0.7,1.2-0.7c-1,0.5-1,1.1-1,1.1l0.8,0l-1.1,0.4C35.7,67.2,35.8,66.9,35.9,66.6z"/>
<path class="st5" d="M37.8,67.5c-0.4,1-1.3,1.4-2,1.1c-0.3-0.1-0.5-0.3-0.7-0.6c0.1-0.1,0.3-0.1,0.4,0c0.3,0.3,0.5,0.5,1.1,0.3
	c0.6-0.3,1.1-0.8,1.2-1.3c0.1-0.4,0.1-0.8,0-1.3C38,66.3,38,67,37.8,67.5z"/>
<path class="st4" d="M26.8,69.2c0.9-0.1,1.5-1.1,1.3-2.2c-0.2-1.1-1-1.9-1.9-1.7c-0.9,0.1-1.5,1.1-1.3,2.2S25.9,69.3,26.8,69.2z"/>
<path class="st4" d="M34,70.7l0.2,5.7c0.4,0.2,0.8,0.3,1.3,0.4c0.6,0.2,1.2,0.3,1.8,0.5c0,2.3-0.8,4.4-2.4,6.1c-1.1,1.2-2.5,2-4,2.5
	c-3.5-0.9-5.7-4.4-5-8c0.5-0.2,1-0.3,1.6-0.6c0.2-0.1,0.4-0.2,0.6-0.3c0-1.4,0.1-2.8,0.2-4.3c0.1-0.6,0.1-1.2,0.2-1.8L34,70.7z"/>
<path class="st6" d="M30.7,75.1c1.3,0.2,3-1,3.4-3c0-0.2-0.1-0.4-0.1-0.6c0-0.5,0-1,0.1-1.4l-4.9,0.6c-0.2,0.1-0.4,0.2-0.6,0.4
	c-0.5,0.7-0.1,1.6,0,1.9C28.6,73.2,29.2,74.9,30.7,75.1z"/>
<path class="st4" d="M27,61.1c-0.6,0.8-0.9,1.7-1.1,2.6c-0.1,0.8-0.2,1.5-0.1,2.3c0.2,2.4,0.2,3.5,0.8,4.7c0.5,1,1.3,1.9,2.3,2.6
	c0.4,0.3,0.9,0.5,1.4,0.6c1.4,0.2,2.6-0.8,3.2-1.2c0.8-0.8,1.5-1.7,1.9-2.8c0.5-1.2,0.7-2.5,0.7-3.9c0.1-2.6,0.1-4.2-0.9-5.4
	c-1.3-1.4-3.5-1.4-4-1.4C29.6,59.4,28.1,60,27,61.1z"/>
<path class="st7" d="M21.2,81.2c0.6,0.7,4.2,4.8,10.4,5c6.9,0.2,11-4.9,11.5-5.5c-0.5-1-1.2-1.6-1.6-1.9c-0.2-0.1-0.7-0.5-2.9-1.2
	c-0.8-0.3-1.3-0.4-1.8-0.6c-0.6,2-1.6,3.9-2.8,5.5c-0.3,0.3-0.5,0.6-0.7,0.9c-1.1,1.3-3,1.4-4.2,0.3c-0.2-0.1-0.3-0.3-0.4-0.4l0,0
	C28,82.5,27.1,81,26,77.9c-0.3,0.1-0.8,0.3-1.4,0.5c-1.2,0.5-1.7,0.7-2.3,1.2C21.8,80,21.5,80.6,21.2,81.2z"/>
<path class="st8" d="M29.3,57.3c-0.6-0.6-1.6-1.4-2.9-1.2c-1,0.2-1.5,1.3-1.7,1.8c-1.2,2.7,0.2,8.2-1.2,12.8
	c-0.4,1.1-0.4,2.4-0.2,3.5c0.3,1.3,0.9,2.5,1.2,2.5c0.1,0,0.1-0.1,0.3-0.6c0.2-0.5,0.4-0.8,0.6-0.8c0.1,0,0.3,0.2,0.4,1.3
	c-0.1-2.6,0.2-5.1,0.7-7.7c0.2-1,0.5-2.3,0.8-4.3c0.3-1.7,0.4-3.1,0.4-4.1c0.5,0.4,1.1,0.6,1.7,0.6c0.2,0,0.4,0,0.6-0.1
	c0.6,0.2,1.3,0.3,1.9,0.2c0.8-0.2,0.9-0.5,1.4-0.4c0.2,0,0.7,0.2,1.7,2.3c0.3,0.8,0.7,1.5,0.9,2.3l1.4-0.2c0.2-0.8,0.3-1.7,0.3-2.6
	c0-1.3,0-2.6-0.8-3.8c-1.2-1.8-3.3-2.2-3.9-2.3C31.8,56.4,30.5,56.7,29.3,57.3z"/>
<path class="st9" d="M28.3,56.5c-0.5-0.3-1.2-0.5-1.8-0.4c-1,0.2-1.5,1.3-1.7,1.8c0,0.1-0.1,0.2-0.1,0.3c0.2-0.1,0.6-0.7,1.3-1.1
	C26.6,56.7,27.5,56.5,28.3,56.5z"/>
<path class="st9" d="M34.9,58.2c0.9,0.4,1.7,0.9,2.5,1.6c-0.1-0.3-0.3-0.6-0.4-0.9c-1.2-1.8-3.3-2.2-3.9-2.3
	c-1.3-0.2-2.5,0.1-3.7,0.7C31.3,57.1,33.2,57.4,34.9,58.2z"/>
<path class="st10" d="M29.5,61.2c0.2,0,0.4,0,0.6-0.1c0.6,0.2,1.3,0.3,1.9,0.2c0.8-0.2,0.9-0.5,1.4-0.4c0.2,0,0.7,0.2,1.7,2.3
	c0.3,0.8,0.7,1.5,0.9,2.3l0.8-0.1c-1.8-4.3-2.7-5.2-3.3-5.1c-0.3,0.1-0.4,0.4-0.9,0.7c-0.8,0.4-1.6,0.4-2.5,0.2
	c-0.1-1.3-0.2-2.6-0.3-3.9l-0.4,0.1l0.5,3.6c-1.1-1.4-1.8-1.7-2.2-1.6c-0.7,0.1-0.8,1.8-0.9,2.5c-0.4,4.1-1,8.1-1.4,12.2
	c-0.1,1-0.2,1.8-0.3,2.2v0c0.3-0.5,0.4-0.8,0.6-0.8c0.1,0,0.3,0.2,0.4,1.3c-0.1-2.6,0.2-5.1,0.7-7.7c0.2-1,0.5-2.3,0.8-4.3
	c0.3-1.7,0.4-3.1,0.4-4.1C28.2,61,28.8,61.2,29.5,61.2z"/>
<g class="st11">
	<path class="st5" d="M30.5,69.4c-0.3,0-0.6,0-0.9-0.2c-0.1-0.1-0.1-0.2-0.1-0.3c0.1-0.6,0.8-3.3,0.8-3.5c0-0.1,0.1-0.1,0.2-0.1
		c0.1,0,0.1,0.1,0.1,0.2c0,0-0.7,2.8-0.8,3.4c0,0,0,0.1,0,0.1c0.2,0.2,0.8,0.2,1.2,0.1c0.1,0,0.1,0.1,0.1,0.1c0,0.1,0,0.1-0.1,0.1
		C30.9,69.4,30.7,69.4,30.5,69.4z"/>
</g>
<linearGradient id="SVGID_00000067195984859850844370000016137775463735462300_" gradientUnits="userSpaceOnUse" x1="125.8863" y1="-16.4076" x2="123.3313" y2="189.1041" gradientTransform="matrix(1 0 0 -1 0 156)">
	<stop  offset="0.49" style="stop-color:#EFEFFF"/>
	<stop  offset="0.52" style="stop-color:#EAECFF"/>
	<stop  offset="0.56" style="stop-color:#DAE2FA"/>
	<stop  offset="0.6" style="stop-color:#BFD2F5"/>
	<stop  offset="0.63" style="stop-color:#A6C3F0"/>
	<stop  offset="0.66" style="stop-color:#A5C0EE"/>
	<stop  offset="0.68" style="stop-color:#A1B5E8"/>
	<stop  offset="0.7" style="stop-color:#9CA4DE"/>
	<stop  offset="0.71" style="stop-color:#948BCF"/>
	<stop  offset="0.73" style="stop-color:#896CBD"/>
	<stop  offset="0.74" style="stop-color:#8255B0"/>
	<stop  offset="0.84" style="stop-color:#6845A5"/>
	<stop  offset="1" style="stop-color:#31228F"/>
</linearGradient>
<path style="fill:url(#SVGID_00000067195984859850844370000016137775463735462300_);" d="M124.5,78.1c7.7,0,14-6.3,14-14
	c0-7.7-6.3-14-14-14c-7.7,0-14,6.3-14,14C110.5,71.8,116.8,78.1,124.5,78.1z"/>
<path class="st2" d="M124.5,50.1c7.7,0,14,6.3,14,14s-6.3,14-14,14s-14-6.3-14-14S116.8,50.1,124.5,50.1z M124.5,49
	c-8.3,0-15.1,6.8-15.1,15.1c0,8.3,6.8,15.1,15.1,15.1s15.1-6.8,15.1-15.1C139.6,55.8,132.9,49,124.5,49z"/>
<path class="st13" d="M116.6,59.1c0.4,3-0.1,4.9-0.8,6.2c-0.8,1.5-2.2,2.7-1.8,4.3c0.1,0.5,0.4,1,0.8,1.4c0-0.5,0-1,0.1-1.4
	c0.3-1,0.8-1.9,1.6-2.5c0,0-1.8,2.2,0,3.9c1.8,1.7,2.1,1.2,2.1,1.2c-0.7-2.2-0.5-3-0.2-3.2c0.7-0.5,2.4,1.4,3.4,0.9
	c0.7-0.4,0.8-1.8,0.7-3.2c-0.6-2.2-1.2-4.4-1.7-6.6L116.6,59.1z"/>
<path class="st14" d="M122.4,66.7c-0.6-2.2-1.2-4.4-1.7-6.6l-2-0.4c0.4,3-0.2,4.9-0.8,6.1c-0.8,1.5-2.2,2.7-1.8,4.3
	c0.1,0.4,0.2,0.7,0.5,1.1l0.3,0.3c0-0.5,0-0.9,0.1-1.4c0.3-1,0.8-1.9,1.6-2.5c0,0-1.5,1.9-0.4,3.5c-0.3-1.3-0.1-1.9,0.1-2
	c0.4-0.3,1.2,0.2,1.9,0.6c0-0.1,0.1-0.2,0.2-0.2c0.4-0.2,0.9,0.1,1.5,0.4C122.5,69.3,122.5,67.9,122.4,66.7z"/>
<path class="st15" d="M117.8,62.1c1.5,0,2.7-1.6,2.7-3.6c0-2-1.2-3.6-2.7-3.6c-1.5,0-2.7,1.6-2.7,3.6
	C115.1,60.5,116.3,62.1,117.8,62.1z"/>
<path class="st16" d="M118.7,61.7c1.3,0,2.4-1.4,2.4-3.2c0-1.8-1.1-3.2-2.4-3.2s-2.4,1.4-2.4,3.2C116.3,60.2,117.3,61.7,118.7,61.7z
	"/>
<path class="st15" d="M119.5,55.4c-0.3-0.1-0.7-0.1-1,0c-0.9,0.4-1.6,1.7-1.6,3.1s0.6,2.6,1.6,3.1c0.3,0.1,0.7,0.1,1,0
	c0.9-0.4,1.6-1.7,1.6-3.1S120.4,55.8,119.5,55.4z"/>
<path class="st17" d="M122.2,75c1,0.4,2.5,0.2,4.2-0.5c1.4-0.6,2.6-1.4,3.7-2.4l-0.9-4.6l-0.6-3.1l-0.6-3.2c-1.1-3-7-1.4-6.7,1.9
	l0.1,2.3l0.1,2.1l0,1l0.1,3.4C120.7,73.5,121.1,74.5,122.2,75z"/>
<path class="st18" d="M121.3,65.8l0.1,2.1c0.6-0.2,1.1-0.5,1.5-0.9c0.7-0.7,1.2-1.6,1.4-2.6L121.3,65.8z"/>
<path class="st17" d="M117.7,64.2c0.8,2.2,3.6,1.8,5,1c1.4-0.8,5.4-3.6,6.2-8.4c1.1-6.1-10.5-8.3-11.4-2.5c0,0,0,0.3-0.1,0.7
	c0,0.4-0.1,1.1-0.1,1.8C117.3,59.2,117.2,62.9,117.7,64.2z"/>
<g class="st11">
	<path class="st18" d="M119.5,61.4c-0.2,0-0.6,0-0.8-0.2c-0.1-0.1-0.1-0.2-0.1-0.3c0-0.2,0.2-1,0.4-1.8c0.2-0.9,0.5-2,0.5-2.1
		c0-0.1,0-0.1,0.1-0.1c0.1,0,0.1,0,0.1,0.1c0,0.1-0.1,0.5-0.5,2.2c-0.2,0.8-0.4,1.6-0.4,1.8c0,0,0,0.1,0,0.1
		c0.1,0.1,0.6,0.1,0.8,0.1c0.1,0,0.1,0,0.1,0.1c0,0.1,0,0.1-0.1,0.1C119.7,61.4,119.6,61.4,119.5,61.4z"/>
</g>
<path class="st19" d="M123.8,78.1c1.6,0.1,4.4,0,7.2-1.6c3-1.5,4.6-3.8,5.3-4.8c-0.6-1-1.3-1.7-1.8-2c-0.5-0.4-1-0.7-1.3-0.8
	c-0.6-0.3-1.2-0.5-1.9-0.7c-1.2-0.3-2.3-0.5-3.5-0.5c-0.7,0.8-1.4,1.6-2.3,2.2c-0.9,0.7-2.5,1.9-3.3,1.4c-0.3-0.2-0.4-0.5-0.6-1.2
	c-0.1-0.5-0.2-1.1-0.2-1.7c-0.9,0.1-1.7,0.2-2.6,0.4c-1.1,0.2-2.2,0.5-3.2,0.9c-1.1,0.5-2.1,1.2-2.9,2.1c0.5,0.7,1.2,1.7,2.2,2.6
	C118.7,77.7,122.9,78,123.8,78.1z"/>
<path class="st20" d="M136.3,71.7c-0.3-0.5-0.6-1-1.2-1.5c-0.2-0.2-0.4-0.4-0.6-0.5c-0.7,0.3-1.3,0.7-1.9,1
	c-1.3,0.8-2.4,1.5-3.5,2.8c-1,1.3-1.8,2.7-2.3,4.3c1.2-0.2,3.2-0.7,5.3-2C134.3,74.4,135.6,72.7,136.3,71.7z"/>
<linearGradient id="SVGID_00000021829507803212284530000002540335834158001027_" gradientUnits="userSpaceOnUse" x1="115.4811" y1="110.776" x2="135.2701" y2="84.9267" gradientTransform="matrix(1 0 0 -1 0 156)">
	<stop  offset="0" style="stop-color:#FFA1EF"/>
	<stop  offset="8.000000e-02" style="stop-color:#FC99E9"/>
	<stop  offset="0.47" style="stop-color:#EA77D2"/>
	<stop  offset="0.79" style="stop-color:#DF61C3"/>
	<stop  offset="1" style="stop-color:#DB59BE"/>
</linearGradient>
<path style="fill:url(#SVGID_00000021829507803212284530000002540335834158001027_);" d="M117.6,55.6c0.1-0.7,0.3-1.4,0.6-2
	c0.1-0.2,0.5-0.4,0.7-0.3c0.2,0.1,0.5,0.1,0.7,0.2c1.3,0.3,2.6,0.3,3.9,0.1c0.4-0.1,0.7,0.1,0.9,0.5c0.5,1.3,1.4,2.4,2.6,3.2l0.3,5
	c-0.4,1.2-0.5,2.6-0.2,3.9c0.4,1.5,1.1,2.1,1,3.4c-0.1,1.2-0.8,2.1-1.3,2.7c1.7,0,3.2-0.9,4.1-2.3c0.2,0.2,0.3,0.5,0.3,0.9
	c0,0.5-0.3,1.1-0.7,1.4c0.4,0,2.4-0.3,3.4-1.9c0.2-0.3,0.7-1.2,0.5-3.1c-0.4-2.7-1.8-3.5-2.9-5.7c-2-4.1,0.7-5.9-1.4-9.3
	c-1.4-2.3-4-3.7-6.2-3.7c-0.7,0-2.2,0-3.1,0.9c-0.1,0.1-0.4,0.3-0.9,0.7c-0.4,0-0.8,0.1-1.1,0.4c-0.5,0.3-0.9,0.8-1.2,1.3
	c-0.3,0.6-0.6,1.1-0.6,1.9C116.9,54.3,117.1,55,117.6,55.6z"/>
<g class="st22">
	<path class="st14" d="M130.4,70.5c0.2-0.2,0.3-0.4,0.4-0.6c0.6-1.1-0.1-2.3-0.2-2.5c-0.1,0.7-0.7,2.8-2.6,3.7
		c-0.2,0.1-0.5,0.2-0.8,0.3c-0.2,0.3-0.4,0.5-0.6,0.7c0.8,0,1.7-0.2,2.4-0.7C129.6,71.2,130.1,70.9,130.4,70.5z"/>
	<path class="st14" d="M122.9,53.1c-1.3-0.3-3.4,0-3.9-0.1c-0.2-0.1-0.5-0.1-0.7-0.2c-0.3-0.1-0.6,0-0.7,0.3
		c-0.2,0.3-0.3,0.6-0.4,0.9c-0.1,0.1-0.1,0.3-0.1,0.5c0.1,0.4,0.3,0.8,0.6,1.2c0.1-0.7,0.3-1.4,0.7-2c0.1-0.2,0.5-0.4,0.7-0.3
		c0.2,0.1,0.3,0.1,0.5,0.1l0.2,0c2,0.4,3,0.2,3,0.2c0.3-0.1,0.6-0.1,1-0.1c0.2,0,0.4,0,0.6,0.1C123.8,53.4,123.3,53.2,122.9,53.1z"
		/>
	<path class="st14" d="M134.3,67.1c-0.4-2.7-1.8-3.5-2.9-5.7c-2-4.1,0.7-5.9-1.4-9.3c-0.6-1-1.5-1.9-2.5-2.5c0.7,0.6,1.4,1.2,1.8,2
		c2.1,3.4-0.6,5.2,1.4,9.3c1.1,2.2,2.6,3.1,2.9,5.7c0.2,1.9-0.3,2.8-0.5,3.1c-0.5,0.8-1.2,1.3-2.1,1.6c-0.1,0.3-0.3,0.6-0.6,0.8
		c0.4,0,2.4-0.3,3.4-1.9C134,69.9,134.6,69,134.3,67.1z"/>
</g>
<path class="st15" d="M120.4,49.8c2.4-0.7,4.9,0,6.7,1.7c2.2,2.2,2,5.1,1.9,5.5l0.8-0.3c0.1-0.3,0.9-3.6-1.4-6.2
	c-1.8-1.9-4.5-2.6-7-1.7c-0.8,0.3-1.4,0.7-2,1.3L120.4,49.8z"/>
<path class="st15" d="M129.3,62.6c1.5,0,2.7-1.6,2.7-3.6s-1.2-3.6-2.7-3.6c-1.5,0-2.7,1.6-2.7,3.6S127.8,62.6,129.3,62.6z"/>
<path class="st16" d="M130.2,62.2c1.3,0,2.4-1.4,2.4-3.2c0-1.8-1.1-3.2-2.4-3.2s-2.4,1.4-2.4,3.2C127.8,60.8,128.9,62.2,130.2,62.2z
	"/>
<path class="st15" d="M131,55.9c-0.3-0.1-0.7-0.1-1,0c-0.9,0.4-1.6,1.7-1.6,3.1c0,1.4,0.6,2.6,1.6,3.1c0.3,0.1,0.7,0.1,1,0
	c0.9-0.4,1.6-1.7,1.6-3.1C132.5,57.6,131.9,56.4,131,55.9z"/>
<linearGradient id="SVGID_00000039841322420285623540000017076056993363165070_" gradientUnits="userSpaceOnUse" x1="93.2855" y1="0.7256" x2="57.479" y2="72.6626" gradientTransform="matrix(1 0 0 -1 0 156)">
	<stop  offset="0.1452" style="stop-color:#6669FB"/>
	<stop  offset="0.4376" style="stop-color:#999BFC"/>
	<stop  offset="0.7307" style="stop-color:#C6C8FE"/>
	<stop  offset="0.8785" style="stop-color:#D8D9FE"/>
</linearGradient>
<path style="fill:url(#SVGID_00000039841322420285623540000017076056993363165070_);" d="M61.9,92.5c-3.3,0.6-5.9,1.7-7.6,2.6
	c-2.3,1.2-4.7,2.4-6.4,5c-1.2,1.8-1.7,3.5-2,4.8c-1.3,5.7-2.1,11.3-2.7,15.7c1,0.5,2.8,1.2,5.1,1.3c2.3,0.2,4.2-0.3,5.3-0.7
	c0.3,1.3,0.6,2.6,1,4c-0.5,3.2-0.4,5.8-0.3,7.6c0.2,3.1,0.8,5.4,0.6,9.4c0,1.3-0.2,2.4-0.2,3.1c3.3,1.6,9.9,4.3,18.5,4.2
	c7.2-0.1,12.8-2.1,16.1-3.5c-0.1-1.6-0.2-4.1,0-7.1c0.2-2.9,0.6-5,0.7-6c0.5-3.1,0.9-7.6,0.6-14.1c1.2,0.4,2.7,0.7,4.4,0.8
	c3.2,0.1,5.8-0.6,7.4-1.2c-0.2-4.4-0.6-8.1-1-10.9c-0.7-5-1.1-6.5-2.2-8.1c-1.3-1.9-2.9-2.8-5.7-4.5c-2.2-1.2-5.3-2.8-9.4-4.1
	c-1.1,1-5.1,4.4-11.3,4.6C67.2,95.8,63.2,93.4,61.9,92.5z"/>
<linearGradient id="SVGID_00000155110466606959398570000017642586054747444883_" gradientUnits="userSpaceOnUse" x1="71.7938" y1="57.0617" x2="59.8983" y2="59.3642" gradientTransform="matrix(1 0 0 -1 0 156)">
	<stop  offset="0" style="stop-color:#8134BC"/>
	<stop  offset="1" style="stop-color:#21136E"/>
</linearGradient>
<path style="opacity:0.25;fill:url(#SVGID_00000155110466606959398570000017642586054747444883_);enable-background:new    ;" d="
	M61.9,104.3c1.7,1,4.1,0.1,4.8-0.2c3.7-1.5,5.1-5.1,5.2-5.9c0.5-2.6,1.3-5.7-0.1-6.5c-1.5-0.8-10.7,1.2-10.7,1.2
	C58.8,98.1,59.5,102.9,61.9,104.3z"/>
<linearGradient id="SVGID_00000182516374896496863510000009612076356918433966_" gradientUnits="userSpaceOnUse" x1="56.7079" y1="69.6152" x2="73.0991" y2="70.589" gradientTransform="matrix(1 0 0 -1 0 156)">
	<stop  offset="7.000000e-02" style="stop-color:#9962FB"/>
	<stop  offset="0.27" style="stop-color:#A161F3"/>
	<stop  offset="0.499" style="stop-color:#B860DE"/>
	<stop  offset="0.7502" style="stop-color:#DA5DBD"/>
</linearGradient>
<path style="fill:url(#SVGID_00000182516374896496863510000009612076356918433966_);" d="M60.8,77.2c0.4,1.3,0.8,3.4,0.4,5.8
	c-0.7,4.2-3.2,4.4-3.9,8.3c-0.6,3,0.3,5.5,2.1,10.2c0.4,1,0.8,1.9,1.1,1.9c0.3,0,0.4-0.6,0.5-0.9c0.5-1.9,3.1-2.8,4.3-3.5
	c2.4-1.3,3.4-4,4.6-7.2C71.5,87.1,71,83,70.6,81c2.6-6.5,1.6-8.8,1.2-10.2c-0.6-1.8-2.3-2.3-2.3-2.3c-0.9,0.2-2,0.6-3.2,1.3
	C62.6,72,61.2,75.8,60.8,77.2z"/>
<linearGradient id="SVGID_00000124878329571774797740000009365333889424361112_" gradientUnits="userSpaceOnUse" x1="70.9561" y1="68.9369" x2="62.1277" y2="70.6457" gradientTransform="matrix(1 0 0 -1 0 156)">
	<stop  offset="0" style="stop-color:#8134BC"/>
	<stop  offset="1" style="stop-color:#21136E"/>
</linearGradient>
<path style="opacity:0.3;fill:url(#SVGID_00000124878329571774797740000009365333889424361112_);enable-background:new    ;" d="
	M65,72.4c-2.2,3.2,0.8,6-0.8,13.2c-1,4.4-2.4,4.7-3.2,9.3c-0.4,2.4-0.7,5.8-0.3,8.2c0.1-0.2,0.2-0.5,0.2-0.7
	c0.5-1.9,3.1-2.8,4.3-3.5c2.4-1.3,3.4-4,4.6-7.2C71.5,87.1,71,83,70.7,81c2.6-6.5,1.6-8.8,1.2-10.2c-0.3-0.9-0.8-1.5-1.3-1.8
	C68.3,69.5,66.2,70.7,65,72.4z"/>
<path class="st27" d="M79.5,95.3c0.7-2.5,1.5-5.8,2.2-8.3c0.4-1.7,1.3-4.8,1.7-6.5c-0.4-0.4-2.9-2.5-6.6-2.2c-4,0.3-6.2,3.3-6.5,3.7
	c-0.6,1.5-0.8,2.8-1,3.7c-0.3,2-0.2,3.1-0.6,5.8c-0.1,1.2-0.3,2.1-0.4,2.8c1,0.2,2.1,0.5,3.2,0.6C74.5,95.4,77.2,95.4,79.5,95.3z"/>
<path class="st28" d="M69.2,86c-0.1,1.6-0.3,3.2-0.4,4.8c0.3-0.2,0.7-0.4,1-0.6c1.2-0.7,2.1-1.2,2.4-1.3c2.5-1.3,7.7-4.4,7.7-4.5
	c0-0.1-2.5,2-6,2.2C72,86.9,70.4,86.5,69.2,86z"/>
<path class="st29" d="M68.7,85.8c2.5,2.2,6.9,0.8,7.8,0.6c3.3-1,5.1-3.3,7.2-5.9c2.6-3.2,4.1-5.1,4.3-7.7
	c0.3-5.3-5.2-12.1-11.6-11.5c-5.4,0.5-8.2,6-8.4,6.4c0,0.3-0.1,0.7-0.2,1.2c0,0-0.2,1.6-0.4,3.1C66.7,79,66.2,83.6,68.7,85.8z"/>
<linearGradient id="SVGID_00000116925068562087632270000012319759214468423849_" gradientUnits="userSpaceOnUse" x1="102.5652" y1="38.4372" x2="89.7567" y2="40.9167" gradientTransform="matrix(1 0 0 -1 0 156)">
	<stop  offset="0" style="stop-color:#8134BC"/>
	<stop  offset="1" style="stop-color:#21136E"/>
</linearGradient>
<path style="opacity:0.25;fill:url(#SVGID_00000116925068562087632270000012319759214468423849_);enable-background:new    ;" d="
	M92.9,118.8c-2.4-0.6-2.1-1.9-0.7-1.6c1.4,0.3,8.2-0.1,8.9-0.3c0.8-0.2-8.4,0.4-9.2-0.7c-0.8-1.1-1.4-4.7-1.4-4.7l-0.1,7.5
	c0,0,0.1,0.1,0.2,0.2c0,0,0-0.1,0-0.1c1.2,0.4,2.7,0.7,4.4,0.8c3.2,0.1,5.8-0.6,7.4-1.2c0-0.1,0-0.2,0-0.4
	C100.9,118.4,95,119.3,92.9,118.8z"/>
<linearGradient id="SVGID_00000101784805064172950590000008232997495388210107_" gradientUnits="userSpaceOnUse" x1="54.5622" y1="40.6073" x2="44.564" y2="42.5429" gradientTransform="matrix(1 0 0 -1 0 156)">
	<stop  offset="0" style="stop-color:#8134BC"/>
	<stop  offset="1" style="stop-color:#21136E"/>
</linearGradient>
<path style="opacity:0.25;fill:url(#SVGID_00000101784805064172950590000008232997495388210107_);enable-background:new    ;" d="
	M53.4,121.2c-0.4-0.7-0.8-1.8-0.9-3.3c-0.1-1.6,0.3-2.6,1.1-5.2c0.8-2.7,1.6-5.1,1.3-5.2c-0.3-0.1-3.3,3.3-3.9,7.9
	c-0.2,1.7,0,2.7-0.9,3.4c-1.5,1.3-4.9,0-5.2,0.6c0,0.1,0,0.1,0,0.2c0.4,1.1,6.3,0.5,6.7,0.5c0.1,0,0.3,0,0.5,0.1
	c0.2,0.1,0.2,0.4,0.1,0.6c-0.2,0.6-2.4,0.5-3.3,0.4c-1.4-0.1-3.4-0.4-5.8-1c0,0.1,0,0.3,0,0.4c0,0,0,0,0,0c0,0,0,0,0,0
	c0.5,0.2,1.1,0.5,2,0.8c1.3,0.4,2.4,0.5,3.1,0.5c0.7,0,1.7,0.1,2.9-0.1C52.1,121.7,52.9,121.4,53.4,121.2z"/>
<linearGradient id="SVGID_00000176019424525368432560000010121834271608843945_" gradientUnits="userSpaceOnUse" x1="91.559" y1="24.1377" x2="54.6965" y2="31.2731" gradientTransform="matrix(1 0 0 -1 0 156)">
	<stop  offset="0" style="stop-color:#8134BC"/>
	<stop  offset="1" style="stop-color:#21136E"/>
</linearGradient>
<path style="opacity:0.25;fill:url(#SVGID_00000176019424525368432560000010121834271608843945_);enable-background:new    ;" d="
	M80.4,113.3l-10,5.3c-1.8,2.1-7.2,7.5-13.9,7c-0.6-0.1-1.2-0.1-1.9-0.3c0.3,3,0.4,6.1,0.4,9.5c0,2.2,0,4.3-0.2,6.4
	c1.3-0.9,3.2-2.3,5.5-4c7.2-5.2,6.8-4.7,7.7-5.5c4.2-3.5,7.2-8.2,9.1-7.7c0.5,0.1,0.7,0.6,0.9,0.8c4,5.8,8.9,8.2,8.2,10.4
	c-0.9,2.9-10.7,2.3-10.7,2.5c0,0.2,11.2-0.6,11.4,0.7c0.1,0.8-4.4,2.1-4.3,2.4c0.1,0.3,4.2,0.5,7.2-0.9c0.1-2.7,0.2-5.5,0.3-8.2
	c0-1.6,0.1-3.1,0.1-4.6C87.1,122.4,83.7,117.9,80.4,113.3z"/>
<linearGradient id="SVGID_00000139269491425140411550000005366429473153757338_" gradientUnits="userSpaceOnUse" x1="94.3972" y1="70.3104" x2="59.8531" y2="76.9954" gradientTransform="matrix(1 0 0 -1 0 156)">
	<stop  offset="7.000000e-02" style="stop-color:#9962FB"/>
	<stop  offset="0.27" style="stop-color:#A161F3"/>
	<stop  offset="0.499" style="stop-color:#B860DE"/>
	<stop  offset="0.7502" style="stop-color:#DA5DBD"/>
</linearGradient>
<path style="fill:url(#SVGID_00000139269491425140411550000005366429473153757338_);" d="M83.6,58.5c2.1,0.5,3.3,2.1,4.9,4.4
	c0.9,1.2,2.3,3.2,3,6.1c1.1,4.1-0.5,4.8,0,9.3c0.6,5.4,3.1,6.6,2.3,10.7c-0.4,1.8-0.9,1.6-1.9,4.4c-1.7,4.7-0.6,6.6-1.7,9
	c-2.1,4.6-10.4,7.1-13,4.7c-0.7-0.7-1.6-2.2,4.2-20.4c1.2-3.7,2.2-6.7,2.9-8.6c-0.1-0.2-0.2-0.5-0.4-0.9c-1.8-4.5-0.6-7.3-1.8-10.6
	c-0.4-1.1-1.1-2.6-2.8-4.2c-1.2-0.2-2.8-0.3-4.4,0.5c-2.3,1.1-2.3,3-5.9,7.8c-2,2.7-3.1,4.1-4.4,4.8c-1.2,0.6-2.6,1-3.7,2.4
	c-0.6,0.8-0.8,1.7-0.9,2.3c-0.1-1-0.1-2.6,0.5-4.4c0.9-3,2.8-4.7,3.7-5.5c0.4-1.1,1-2.9,2.2-4.8c1.3-2.1,4.5-7.1,9.3-7.2
	c0.9,0,2.2,0.1,3.7,0.9C80.3,58.7,81.9,58.1,83.6,58.5z"/>
<linearGradient id="SVGID_00000001632219614402295110000014535385733915772571_" gradientUnits="userSpaceOnUse" x1="83.2703" y1="72.8465" x2="93.6565" y2="73.4635" gradientTransform="matrix(1 0 0 -1 0 156)">
	<stop  offset="0" style="stop-color:#8134BC"/>
	<stop  offset="1" style="stop-color:#21136E"/>
</linearGradient>
<path style="opacity:0.3;fill:url(#SVGID_00000001632219614402295110000014535385733915772571_);enable-background:new    ;" d="
	M91.4,78.3c-0.5-4.6,1.1-5.2,0-9.3c-0.7-2.9-2.1-4.9-3-6.1c-1.2-1.6-2.1-2.9-3.3-3.7c-0.3,1.2,4,4.4,4.3,9.9
	c0.2,3.5-1.4,3.8-1.3,7.8c0.1,4.6,2.3,4.8,2.4,9.2c0.1,3.3-1.1,3.4-1.8,9.4c-0.4,3.9,0,4.1-0.5,6.1c-0.8,2.6-2.4,4.3-3.6,5.5
	c2.4-1,4.6-2.6,5.5-4.7c1.1-2.4,0-4.2,1.7-9c1-2.8,1.5-2.6,1.9-4.4C94.6,84.9,92.1,83.7,91.4,78.3z"/>
<path class="st29" d="M83.6,82.2c0.1,0,0.2,0,0.2,0.1c1.5,0.3,3.2-0.6,4.2-2.9c0.5-1.2,0.4-2.4-0.1-3.3c-0.4-0.6-1-1.1-1.7-1.3
	c-1.7-0.5-2.8,1-3.4,2.9C82.1,79.6,81.9,81.7,83.6,82.2z"/>
<path class="st35" d="M83.8,82.2c1.5,0.3,3.2-0.6,4.2-2.9c0.5-1.2,0.4-2.4-0.1-3.3c0.1,0.3,0.2,0.6,0.2,1c0,1.4-0.6,3.3-1.7,4.1
	C85.7,81.7,84.8,82.1,83.8,82.2z"/>
<path class="st35" d="M86.6,77.1c-0.9,0.2-1.6,0.7-2,1.4c-0.8,1.3-0.4,1.7-0.4,1.7s-0.1-0.5,0.8-1c0.8-0.5,1.2-0.4,1.2-0.4l-1.3-0.1
	C84.9,78.8,85.6,77.5,86.6,77.1z"/>
<path class="st36" d="M74.2,71.7c0,0.2-2.3,5.9-2.5,6.7c-0.2,0.8,1.6,0.9,1.6,0.9"/>
<linearGradient id="SVGID_00000083800999014093729850000000165158986236256685_" gradientUnits="userSpaceOnUse" x1="69.8581" y1="89.3619" x2="65.0243" y2="90.2975" gradientTransform="matrix(1 0 0 -1 0 156)">
	<stop  offset="0" style="stop-color:#8134BC"/>
	<stop  offset="1" style="stop-color:#21136E"/>
</linearGradient>
<path style="opacity:0.3;fill:url(#SVGID_00000083800999014093729850000000165158986236256685_);enable-background:new    ;" d="
	M70.6,62.7c-0.2-0.1-2.5,2.6-2.8,2.4c-0.3-0.2,1.7-2.5,1.3-3.4c-1.2,1.3-2.1,2.8-2.7,3.7c-1.2,1.9-1.9,3.7-2.2,4.8
	c0,0-0.1,0.1-0.1,0.1c0.9-0.6,1.9-1.6,3-2.8C69.3,65.2,70.8,62.8,70.6,62.7z"/>
<path class="st38" d="M90.6,118.9l-0.1,3c-3.7-5.3-7.4-10.7-11.2-16c0.6-6.1,0.8-10.7,0.8-12.5c0-1.4-0.1-2.7-0.1-2.7
	c-0.1-1.1-0.2-1.6-0.3-2.2c-0.3-1.1-1.3-2.2-3.1-4.5c-0.3-0.4-0.7-0.9-1.1-0.8c-0.5,0.1-0.7,1.1-0.7,1.8c0,1.6,1.1,2.7,1.7,3.2
	c0,0.5,0.1,1,0.2,1.6c0.1,0.8,0.3,1.5,0.5,2.1c-0.7-1-1.4-1.7-1.9-2.2c-1.2-1.2-1.6-1.3-1.8-1.3c-0.3-0.1-0.8-0.1-2.6,0.9
	c-0.6,0.3-1.4,0.8-2.4,1.3c-0.3,0.5-2.2,4.2-1.3,5c0.2,0.1,0.4,0.2,1,0.1c-0.3,0.5-0.2,1.1,0,1.4c0.2,0.2,0.4,0.3,0.5,0.3
	c-0.5,1.1-0.5,2-0.1,2.3c0.2,0.2,0.5,0.1,0.6,0.1c1.3-0.3,1.8-2.3,1.8-2.5c0.1,0.2,0.3,0.5,0.6,0.8c0.2,0.1,0.3,0.2,0.5,0.3
	c-0.3,2.3-0.6,4.1-0.8,5.3c-0.2,0.9-0.3,1.6-0.1,2.5c0.3,1.7,1.3,2.8,1.6,3.1c1,1.1,0.7,1.4,8,15.7c0,0,4.1,8,9.2,12.7
	c0.5,0.5,1.6,1.4,2.9,1.3c1.5-0.1,2.6-1.5,3.4-2.4c1.4-1.8,2-3.6,2.1-4.1c1.6-5.2,2.5-12.1,2.7-13.6c-1.2,0.4-2.9,0.8-4.9,0.9
	C93.9,119.8,91.9,119.3,90.6,118.9z"/>
<path class="st39" d="M90.5,121.9c0.9,1.2,1.8,2.5,2.7,3.9c1,1.5,1.9,3,2.7,4.4c-0.3-1.5-0.6-3.1-0.8-4.7c-0.3-2-0.6-4-0.8-5.9
	c-0.6,0-1.3-0.1-2.1-0.3c-0.6-0.2-1.2-0.4-1.7-0.6C90.5,119.8,90.5,120.9,90.5,121.9z"/>
<path class="st39" d="M95.1,137.9c-0.6,0-1.4,0.1-2.2,0c-2.8-0.4-4.6-3.7-5.6-5.5c-2.4-4.5-8.1-15.8-13.3-23.3
	c-1-1.4-1.9-2.6-2.6-2.7c0.3,1.5,1.3,2.5,1.5,2.8c1,1.1,0.7,1.4,8,15.7c0,0,4.1,8,9.2,12.7c0.5,0.5,1.6,1.4,2.9,1.3
	C93.8,138.9,94.5,138.5,95.1,137.9z"/>
<path class="st39" d="M70.6,92.2c0.5-0.2,0.7-0.3,0.9-0.4c0.5-0.1,0.9,0,1.9,0.4c1.4,0.5,2.1,1,2.2,0.9c0.1-0.1-0.6-0.6-0.7-0.6
	c-0.3-0.2-0.6-0.4-1.1-0.6c-0.9-0.5-1.3-0.7-1.7-0.7c-0.3,0-0.6,0.1-1.1,0.4c-1,0.4-1.5,0.7-2,1.3c-0.3,0.4-0.5,0.8-0.7,1.5
	c-0.2,0.5-0.3,1-0.4,1.4c0.1,0,0.2,0,0.4,0c0.2-0.6,0.3-1.1,0.5-1.6c0.3-0.7,0.3-0.8,0.4-0.9C69.5,92.7,69.9,92.5,70.6,92.2z"/>
<path class="st39" d="M73.9,94.7c-0.4-0.1-1-0.3-1.8-0.5c-1.3-0.3-1.9-0.4-2.5-0.1c-0.4,0.2-0.6,0.7-1,1.6c-0.2,0.4-0.3,0.8-0.4,1.2
	c0,0,0,0,0,0.1c0.1,0.2,0.3,0.3,0.5,0.3c0.3-0.7,0.6-1.4,0.9-2.1c0.2-0.4,0.6-0.6,1-0.6L73.9,94.7z"/>
<path class="st39" d="M76.7,89.7c0.1,0.8,0.3,1.4,0.5,2c0.2,0.2,0.4,0.4,0.6,0.6c-0.2-0.7-0.4-1.4-0.5-2.1c-0.2-0.9-0.3-1.7-0.3-2.4
	c-0.1-0.1-0.3-0.2-0.6-0.4c-1-1-1.1-2.3-1.1-2.6c0-0.6,0.2-1.2,0.3-1.5c0,0-0.1,0-0.1,0c-0.5,0.1-0.7,1.1-0.7,1.8
	c0,1.6,1.1,2.7,1.7,3.2C76.5,88.6,76.6,89.1,76.7,89.7z"/>
<linearGradient id="SVGID_00000067956083998171925480000006053182383007706553_" gradientUnits="userSpaceOnUse" x1="68.2104" y1="45.1953" x2="83.2485" y2="46.089" gradientTransform="matrix(1 0 0 -1 0 156)">
	<stop  offset="0" style="stop-color:#8134BC"/>
	<stop  offset="1" style="stop-color:#21136E"/>
</linearGradient>
<path style="fill:url(#SVGID_00000067956083998171925480000006053182383007706553_);" d="M73.2,103.1c-1.5,4.8-3,9.5-4.6,14.3
	c-0.2,0.8,0.4,1.5,1.2,1.4l7.3-1.4c0.4-0.1,0.7-0.3,0.8-0.7l4.7-13.8c0.2-0.5-0.2-1-0.7-1c-2.6,0.2-5.2,0.3-7.9,0.5
	C73.7,102.4,73.4,102.7,73.2,103.1z"/>
<linearGradient id="SVGID_00000031920786452488743840000011034526679821078708_" gradientUnits="userSpaceOnUse" x1="80.6082" y1="54.5399" x2="71.3914" y2="36.6369" gradientTransform="matrix(1 0 0 -1 0 156)">
	<stop  offset="0" style="stop-color:#8134BC"/>
	<stop  offset="1" style="stop-color:#21136E"/>
</linearGradient>
<path style="fill:url(#SVGID_00000031920786452488743840000011034526679821078708_);" d="M82.8,102.8c0,0,0-0.1,0-0.1
	c-2.6,0.2-5.2,0.3-7.8,0.5c-0.4,0-0.8,0.3-1,0.7c-1.5,4.8-3,9.5-4.6,14.3c-0.1,0.2-0.1,0.3,0,0.5c0.1,0,0.3,0,0.5,0l7.3-1.4
	c0.4-0.1,0.7-0.3,0.8-0.7L82.8,102.8z"/>
<path class="st29" d="M44.6,121.3c0.5,9.2,1.7,20.1,5.1,20.6c0.6,0.1,1-0.1,1.8-0.6c8.7-5.2,15.5-12.5,18.1-14.3
	c0.6-0.4,1.2-0.9,2.3-1.8c0.6-0.5,0.9-0.7,1.1-1.2c0.5-0.8,0.5-1.7,0.5-2.2c0.4-0.4,1.1-1.1,1.9-1.9c2.2-2.1,3.6-3.2,3.3-3.9
	c0-0.1-0.1-0.2-0.3-0.4c0.4-0.3,0.7-0.6,1.1-0.9c0.1-0.1,0.7-1.1,0.4-1.5c-0.3-0.4-1.3-0.2-2.6,0.5c-1.7,0.9-3.4,1.9-5,2.8
	c2.4-2,4.7-4,7.1-6c0.3-0.5,0.4-1.1,0.2-1.4c-0.3-0.3-1.2-0.3-2.1,0.5c0-0.3-0.1-0.6-0.2-0.7c-0.3-0.5-1.2-0.6-2.1-0.3
	c-1.7,0.6-3.3,1.3-5,1.9c-0.3,0.1-0.6,0.2-0.8,0.4c-0.4,0.3-0.8,0.6-1.3,1c-0.2,0.2-0.4,0.4-0.6,0.6c-0.6,0.6-1,1.4-1.1,2.3
	c0,0.5-0.1,1-0.1,1.6c-0.1,1.3-0.2,2.6-0.2,3.8c-1.8,1.2-3.6,2.4-5.5,3.7c-2,1.3-3.9,2.5-5.8,3.7c-0.1-0.8-0.1-1.6-0.2-2.4
	c-0.3-0.9-0.6-1.8-0.8-2.7c-0.1-0.5-0.2-1-0.4-1.4c-1.1,0.3-2.6,0.7-4.6,0.7C47.1,121.9,45.6,121.6,44.6,121.3z"/>
<path class="st39" d="M78.9,110.1c-5.5,4.9-8.2,7.3-8.1,7.4c0.1,0.1,2.9-2.2,8.4-6.7c0.1-0.1,0.4-0.2,0.5-0.6
	c0.2-0.5-0.1-0.9-0.1-0.9C79.4,109.5,79.2,109.8,78.9,110.1z"/>
<path class="st39" d="M73.6,121c0,0.2,0,0.5,0,0.8c-0.3,2-2.7,3.3-3.4,3.7c-6.8,3.7-12.3,9.3-18.8,13.5c-0.5,0.4-1.1,0.7-1.8,0.6
	c-2.8-0.4-4.1-7.8-4.8-15.4c0.6,8.4,1.9,17.2,5,17.7c0.6,0.1,1.1-0.2,1.8-0.6c8.7-5.2,15.5-12.5,18.1-14.3c0.6-0.4,1.2-0.9,2.3-1.8
	c0.3-0.2,0.8-0.6,1.1-1.2c0.1-0.2,0.3-0.6,0.4-1.1c0.1-0.5,0.1-1.1,0.1-1.1s1.3-1.3,1.9-1.9c2-2,3.3-3.1,3.2-3.1
	C78.8,116.8,77.8,117.6,73.6,121z"/>
<path class="st42" d="M54.8,127.8c-1.2,0.8-2.7,1.9-4.5,3c-0.6,0.3-2,1.2-2.1,1.1c-0.1-0.2,1.8-1.1,2.5-3.1c0.3-0.8,0.2-2,0.1-4.3
	c0-1.1-0.1-2-0.2-2.6c0.3,0,0.5-0.1,0.8-0.1c0.7-0.1,1.3-0.3,1.9-0.4c0.4,1.3,0.8,2.7,1.2,4C54.7,126.1,54.7,126.9,54.8,127.8z"/>
<path class="st39" d="M77.4,109.1C77.4,109,77.3,109,77.4,109.1c-1.9,0.9-8.4,5.4-8.4,5.4l-0.3,1.8c0,0,0.3-1.2,1-1.7
	c0.6-0.5,7.9-4.9,7.9-4.9C77.6,109.4,77.5,109.2,77.4,109.1z"/>
<linearGradient id="SVGID_00000054945138062735690090000008842284898250276252_" gradientUnits="userSpaceOnUse" x1="51.2678" y1="4.5207" x2="93.056" y2="7.003" gradientTransform="matrix(1 0 0 -1 0 156)">
	<stop  offset="7.000000e-02" style="stop-color:#9962FB"/>
	<stop  offset="0.27" style="stop-color:#A161F3"/>
	<stop  offset="0.499" style="stop-color:#B860DE"/>
	<stop  offset="0.7502" style="stop-color:#DA5DBD"/>
</linearGradient>
<path style="fill:url(#SVGID_00000054945138062735690090000008842284898250276252_);" d="M54.9,145.7c-0.8,1.2-1.6,2.8-2.3,4.7
	c-0.6,1.5-0.9,2.9-1.2,4.1c14,0,28,0,41.9,0c-0.6-1.2-1.2-2.5-1.9-3.7c-0.8-1.7-1.7-3.3-2.5-5c-4.2,1.5-11,3.3-19.5,2.9
	C63.5,148.4,58.5,147,54.9,145.7z"/>
<path class="st39" d="M78.2,115.1c-1.3,1.2-2.2,1.5-3.7,2.8c-0.8,0.7-1.4,1.2-1.8,1.6c1.9-1.3,3.9-2.6,5.8-3.9
	c0.4-0.3,0.7-0.6,1.1-0.9c0.1-0.1,0.7-1.1,0.4-1.5C79.3,114.1,78.6,114.7,78.2,115.1z"/>
</svg>
