<svg width="162" height="154" viewBox="0 0 162 154" fill="none" xmlns="http://www.w3.org/2000/svg">
<g clip-path="url(#clip0_6952_111871)">
<rect width="162" height="154" rx="77" fill="#EDF2F7"/>
<path d="M106.277 61.6378C114.018 61.6378 120.293 55.3626 120.293 47.6216C120.293 39.8807 114.018 33.6055 106.277 33.6055C98.536 33.6055 92.2607 39.8807 92.2607 47.6216C92.2607 55.3626 98.536 61.6378 106.277 61.6378Z" fill="url(#paint0_linear_6952_111871)"/>
<path d="M106.277 33.6138C114.016 33.6138 120.294 39.8911 120.294 47.63C120.294 55.3689 114.016 61.6462 106.277 61.6462C98.5386 61.6462 92.2613 55.3689 92.2613 47.63C92.2613 39.8911 98.5315 33.6138 106.277 33.6138ZM106.277 32.5547C97.9666 32.5547 91.2021 39.3192 91.2021 47.63C91.2021 55.9409 97.9666 62.7054 106.277 62.7054C114.588 62.7054 121.353 55.9409 121.353 47.63C121.346 39.3121 114.588 32.5547 106.277 32.5547Z" fill="#6782FF"/>
<path d="M103.827 41.9141C103.735 41.9423 99.569 42.4013 99.569 42.4013L98.5027 43.1003L97.5283 44.1665L97.5566 46.8144L98.3192 47.577L99.11 48.3043L99.569 59.948C101.391 60.9789 103.46 61.5579 105.585 61.5579C105.74 58.9736 106.072 53.8684 106.072 53.8684L103.827 41.9141Z" fill="#DFD0D8"/>
<path d="M113.586 38.5391H101.547V52.2163H113.586V38.5391Z" fill="#DFD0D8"/>
<path d="M111.305 51.0547H103.672V54.6135H111.305V51.0547Z" fill="#DFD0D8"/>
<path d="M112.738 49.9336H104.011V53.0616H112.738V49.9336Z" fill="#DFD0D8"/>
<path d="M102.613 38.8984H101.335V49.8431H102.613V38.8984Z" fill="#3F2A46"/>
<path d="M98.8145 59.4796C99.2099 59.755 99.6335 59.9951 100.093 60.2069V48.0195H98.8145V59.4796Z" fill="#3F2A46"/>
<path d="M105.014 61.5141C105.226 61.5141 105.438 61.5423 105.649 61.5423C105.861 61.5423 106.073 61.5423 106.285 61.5141V55.4062H105.007L105.014 61.5141Z" fill="#3F2A46"/>
<path d="M114.468 38.6602H113.19V52.3374H114.468V38.6602Z" fill="#3F2A46"/>
<path d="M109.116 44.3711H107.838V47.7745H109.116V44.3711Z" fill="#B9AAB2"/>
<path d="M103.891 49.2656H102.613V53.4881H103.891V49.2656Z" fill="#3F2A46"/>
<path d="M111.552 54.4297H105.014V55.7077H111.552V54.4297Z" fill="#3F2A46"/>
<path d="M112.463 52.2461H103.827V54.6751H112.463V52.2461Z" fill="#3F2A46"/>
<path d="M116.686 37.5H96.8018V38.9263H116.686V37.5Z" fill="#3F2A46"/>
<path d="M116.686 36.1641H96.8018V37.5904H116.686V36.1641Z" fill="#3F2A46"/>
<path d="M115.287 34.7695H98.1992V36.1959H115.287V34.7695Z" fill="#3F2A46"/>
<path d="M113.643 33.4258H99.874V34.8521H113.643V33.4258Z" fill="#3F2A46"/>
<path d="M112.243 32H101.271V33.4263H112.243V32Z" fill="#3F2A46"/>
<path d="M115.38 37.5H98.0801V38.9263H115.38V37.5Z" fill="#C6577E"/>
<path d="M115.408 36.1641H98.0801V37.5904H115.408V36.1641Z" fill="#A04C6D"/>
<path d="M113.825 34.7695H99.6885V36.1959H113.825V34.7695Z" fill="#C6577E"/>
<path d="M112.187 33.4258H101.306V34.8521H112.187V33.4258Z" fill="#C6577E"/>
<path d="M111.213 49.2383H105.438V50.5163H111.213V49.2383Z" fill="#3F2A46"/>
<path d="M105.105 53.4297H103.799V54.7077H105.105V53.4297Z" fill="#3F2A46"/>
<path d="M98.8698 42.7891H97.5635V44.0671H98.8698V42.7891Z" fill="#3F2A46"/>
<path d="M100.756 37.5352H99.4492V38.9332H100.756V37.5352Z" fill="#A04C6D"/>
<path d="M103.431 37.5352H102.125V38.9332H103.431V37.5352Z" fill="#A04C6D"/>
<path d="M106.108 37.5H104.802V38.8981H106.108V37.5Z" fill="#A04C6D"/>
<path d="M108.784 37.5352H107.478V38.9332H108.784V37.5352Z" fill="#A04C6D"/>
<path d="M111.453 37.5352H110.146V38.9332H111.453V37.5352Z" fill="#A04C6D"/>
<path d="M114.13 37.5H112.823V38.8981H114.13V37.5Z" fill="#A04C6D"/>
<path d="M98.8991 46.8047H97.5928V48.0827H98.8991V46.8047Z" fill="#3F2A46"/>
<path d="M112.611 53.4297H111.305V54.7077H112.611V53.4297Z" fill="#3F2A46"/>
<path d="M113.522 52.2773H112.216V53.5554H113.522V52.2773Z" fill="#3F2A46"/>
<path d="M113.162 51.0273H111.855V52.3054H113.162V51.0273Z" fill="#3F2A46"/>
<path d="M105.162 51H103.855V52.278H105.162V51Z" fill="#3F2A46"/>
<path d="M101.363 38.8984H100.085V42.8526H101.363V38.8984Z" fill="#3F2A46"/>
<path d="M100.121 38.8984H98.8428V42.8526H100.121V38.8984Z" fill="#3F2A46"/>
<path d="M97.7195 43.9766H96.4414V47.0199H97.7195V43.9766Z" fill="#3F2A46"/>
<path d="M106.044 41.1523H103.552V43.6449H106.044V41.1523Z" fill="#B9AAB2"/>
<path d="M106.052 41.1523H104.802V42.4021H106.052V41.1523Z" fill="#3F2A46"/>
<path d="M104.802 42.3633H103.552V43.6131H104.802V42.3633Z" fill="#3F2A46"/>
<path d="M112.336 41.1523H109.844V43.6449H112.336V41.1523Z" fill="#B9AAB2"/>
<path d="M112.343 41.1523H111.093V42.4021H112.343V41.1523Z" fill="#3F2A46"/>
<path d="M111.094 42.3633H109.844V43.6131H111.094V42.3633Z" fill="#3F2A46"/>
<path d="M31.8609 86.1847C39.6018 86.1847 45.8771 79.9094 45.8771 72.1685C45.8771 64.4276 39.6018 58.1523 31.8609 58.1523C24.12 58.1523 17.8447 64.4276 17.8447 72.1685C17.8447 79.9094 24.12 86.1847 31.8609 86.1847Z" fill="url(#paint1_linear_6952_111871)"/>
<path d="M31.8605 58.1529C39.5994 58.1529 45.8767 64.4302 45.8767 72.1691C45.8767 79.908 39.5994 86.1853 31.8605 86.1853C24.1216 86.1853 17.8443 79.908 17.8443 72.1691C17.8443 64.4302 24.1216 58.1529 31.8605 58.1529ZM31.8605 57.0938C23.5496 57.0938 16.7852 63.8582 16.7852 72.1691C16.7852 80.4799 23.5496 87.2444 31.8605 87.2444C40.1713 87.2444 46.9358 80.4799 46.9358 72.1691C46.9358 63.8582 40.1713 57.0938 31.8605 57.0938Z" fill="#6782FF"/>
<path d="M37.5107 64.668H25.168V80.2093H37.5107V64.668Z" fill="#1A5CC6"/>
<path d="M37.7855 67.4915C37.4112 68.4659 36.5004 68.939 35.7448 68.593C35.4624 68.4659 35.2435 68.247 35.0882 67.9999C34.8057 67.4632 34.7775 66.8066 34.9964 66.2417C35.3424 65.2673 36.2815 64.7942 37.037 65.1402C37.3194 65.2673 37.5736 65.5144 37.729 65.7968C37.9761 66.3264 38.0044 66.9548 37.7855 67.4915Z" fill="#DAC7C7"/>
<path opacity="0.5" d="M35.8712 66.61C36.09 66.1722 36.5631 65.918 37.0362 65.918C36.0618 66.3911 36.0336 67.0195 36.0336 67.0195L36.8809 67.0477L35.7511 67.422C35.7158 67.1748 35.7794 66.8924 35.8712 66.61Z" fill="#5E4A4A"/>
<path opacity="0.5" d="M37.7852 67.4924C37.411 68.4669 36.5001 68.9399 35.7446 68.594C35.4621 68.4669 35.2432 68.248 35.0879 68.0008C35.1797 67.909 35.3421 67.909 35.4974 68.0291C35.7516 68.2833 35.9988 68.5657 36.5636 68.3115C37.1285 68.0573 37.6934 67.5277 37.757 67.0264C37.8488 66.6169 37.8205 66.1791 37.7287 65.7695C37.9759 66.3274 38.0041 66.9558 37.7852 67.4924Z" fill="#5E4A4A"/>
<path d="M26.782 69.1959C27.6726 69.061 28.2597 68.0608 28.0932 66.9619C27.9267 65.8631 27.0697 65.0817 26.1791 65.2166C25.2884 65.3515 24.7014 66.3517 24.8679 67.4506C25.0344 68.5495 25.8913 69.3309 26.782 69.1959Z" fill="#DAC7C7"/>
<path d="M34.022 70.6914L34.1774 76.4391C34.5869 76.5944 35.0247 76.7215 35.4625 76.8769C36.0556 77.0675 36.6558 77.2229 37.2489 77.3782C37.2489 79.6378 36.4016 81.8055 34.8976 83.5001C33.8314 84.6652 32.4474 85.5125 30.9434 85.9786C27.3987 85.0959 25.1957 81.5513 25.9795 77.9713C26.4808 77.816 27.0175 77.6254 27.5823 77.3782C27.8012 77.2864 27.9919 77.1876 28.2108 77.0958C28.239 75.7118 28.2743 74.2714 28.4014 72.7956C28.465 72.1672 28.4932 71.574 28.5568 70.9738L34.022 70.6914Z" fill="#DAC7C7"/>
<path d="M30.6617 75.1182C32.0103 75.3371 33.6767 74.1438 34.051 72.1384C34.0227 71.9196 33.9874 71.7289 33.9592 71.51C33.9309 71.0369 33.9309 70.5356 34.0227 70.0625L29.0941 70.6909C28.8752 70.7827 28.6846 70.9098 28.5292 71.1005C28.0279 71.7572 28.4021 72.7316 28.5292 73.0493C28.5857 73.2047 29.2495 74.8993 30.6617 75.1182Z" fill="#BCA1A1"/>
<path d="M26.9894 61.0873C26.4245 61.8711 26.0503 62.782 25.8596 63.7281C25.7325 64.4837 25.7043 65.2321 25.7961 66.023C25.9867 68.3743 26.015 69.5394 26.5799 70.7045C27.1165 71.7424 27.9003 72.6533 28.9029 73.31C29.3125 73.6207 29.8138 73.8466 30.3152 73.9384C31.7627 74.1573 32.956 73.1546 33.4856 72.7451C34.3329 71.9896 34.9896 71.0504 35.3709 69.9842C35.844 68.7627 36.0911 67.4423 36.0911 66.1218C36.1829 63.481 36.2182 61.9488 35.152 60.7554C33.8316 59.3079 31.6991 59.3432 31.1342 59.3715C29.5949 59.4209 28.1192 60.0493 26.9894 61.0873Z" fill="#DAC7C7"/>
<path d="M21.2061 81.1807C21.778 81.8515 25.4497 86.0246 31.5787 86.18C38.4986 86.3565 42.6222 81.2584 43.06 80.7006C42.5234 79.705 41.902 79.1472 41.4642 78.8294C41.2806 78.6953 40.7934 78.3563 38.5409 77.6079C37.7854 77.3537 37.1923 77.1701 36.7545 77.043C36.126 79.0201 35.1869 80.9054 33.9301 82.5718C33.6759 82.8825 33.457 83.2002 33.2098 83.4826C32.1436 84.7395 30.2583 84.8666 29.0015 83.7933C28.8461 83.6662 28.719 83.5391 28.6272 83.3838L28.599 83.3555C27.9705 82.5365 27.1232 80.9689 26.0217 77.8621C25.6757 77.9891 25.2026 78.1445 24.6377 78.3987C23.4727 78.8718 22.9078 79.1189 22.3429 79.6202C21.8345 80.0157 21.4603 80.5806 21.2061 81.1807Z" fill="#403958"/>
<path d="M29.3403 57.3171C28.7471 56.6887 27.7374 55.9049 26.4523 56.0955C25.4779 56.2509 24.9765 57.416 24.7576 57.9455C23.5926 60.6146 24.913 66.1434 23.5926 70.7896C23.2183 71.9193 23.1548 73.1409 23.3737 74.3342C23.6279 75.6193 24.3128 76.8762 24.5952 76.8127C24.687 76.8127 24.687 76.6856 24.9059 76.1842C25.1248 75.6829 25.3155 75.3369 25.4708 75.3369C25.5626 75.3369 25.725 75.4922 25.8804 76.6856C25.8168 74.1083 26.0357 71.5381 26.537 68.9961C26.7277 68.0217 27.0384 66.7365 27.3208 64.7241C27.575 63.0295 27.695 61.6173 27.7303 60.6711C28.2317 61.0453 28.8319 61.236 29.4603 61.236C29.6792 61.236 29.8698 61.2077 30.0887 61.1442C30.7172 61.3631 31.3738 61.4266 32.0376 61.2995C32.8214 61.1442 32.9767 60.7982 33.4216 60.8617C33.6122 60.89 34.1135 61.0524 35.1162 63.1848C35.4622 63.9404 35.7729 64.6888 36.0271 65.5079L37.4393 65.3526C37.6299 64.5052 37.7217 63.6579 37.7217 62.7753C37.7217 61.4549 37.6935 60.1698 36.9026 58.9764C35.7093 57.1547 33.5769 56.7805 33.0403 56.6816C31.7905 56.4415 30.47 56.6887 29.3403 57.3171Z" fill="#2B8BEC"/>
<path opacity="0.22" d="M28.3027 56.4692C27.766 56.1233 27.1094 55.9962 26.4809 56.095C25.5065 56.2504 25.0052 57.4154 24.7863 57.945C24.758 58.0368 24.7227 58.1639 24.6592 58.2557C24.8498 58.1286 25.2241 57.599 25.9443 57.1259C26.6433 56.6881 27.4554 56.4692 28.3027 56.4692Z" fill="#A6D0F5"/>
<path opacity="0.22" d="M34.8978 58.2286C35.7804 58.6381 36.6277 59.1677 37.3762 59.7961C37.2491 59.4855 37.122 59.203 36.9384 58.9135C35.7451 57.0918 33.6127 56.7175 33.076 56.6187C31.8192 56.4633 30.5341 56.6822 29.4043 57.2754C31.2896 57.1341 33.1678 57.4448 34.8978 58.2286Z" fill="#A6D0F5"/>
<path opacity="0.3" d="M29.4671 61.1786C29.686 61.1786 29.8766 61.1504 30.0955 61.0868C30.724 61.3057 31.3806 61.3693 32.0444 61.2422C32.8281 61.0868 32.9835 60.7409 33.4283 60.8044C33.619 60.8327 34.1203 60.9951 35.123 63.1275C35.469 63.883 35.7797 64.6315 36.0339 65.4506L36.8176 65.3588C35.0594 61.0868 34.085 60.1124 33.4919 60.2113C33.2094 60.2748 33.0823 60.5855 32.5528 60.868C31.7972 61.2422 30.9217 61.3057 30.1026 61.0586C30.0108 59.7735 29.8837 58.4813 29.7919 57.168L29.3541 57.2951L29.8272 60.9033C28.761 59.4911 28.069 59.1733 27.5959 59.2722C26.9392 59.3993 26.7486 61.0586 26.685 61.7859C26.2473 65.8389 25.7106 69.8849 25.2375 73.938C25.1104 74.9406 25.0186 75.7597 24.9551 76.1692V76.1269C25.2093 75.5902 25.3646 75.2796 25.52 75.2796C25.6118 75.2796 25.7742 75.4349 25.9295 76.6282C25.866 74.0509 26.0848 71.4807 26.5862 68.9387C26.7768 67.9643 27.0875 66.6792 27.37 64.6668C27.6242 62.9721 27.7442 61.5599 27.7795 60.6138C28.2385 60.988 28.8387 61.1786 29.4671 61.1786Z" fill="#3E49AC"/>
<g opacity="0.5">
<path opacity="0.5" d="M30.5057 69.3771C30.195 69.4054 29.8772 69.3489 29.623 69.1582C29.5595 69.0947 29.5312 69.0029 29.5312 68.904C29.5948 68.3109 30.2868 65.5783 30.315 65.4512C30.3433 65.3876 30.4068 65.3594 30.4704 65.3594C30.5339 65.3876 30.5622 65.4512 30.5622 65.5147C30.5622 65.543 29.8419 68.3391 29.7784 68.9393C29.7784 68.9676 29.7784 69.0029 29.8066 69.0029C29.962 69.1582 30.5904 69.1582 30.9717 69.13C31.0353 69.13 31.0988 69.1935 31.0988 69.2571C31.0988 69.3206 31.0706 69.3489 31.007 69.3842C30.8799 69.3771 30.6893 69.3771 30.5057 69.3771Z" fill="#5E4A4A"/>
</g>
<path d="M130.42 117.86C138.161 117.86 144.437 111.585 144.437 103.844C144.437 96.1034 138.161 89.8281 130.42 89.8281C122.68 89.8281 116.404 96.1034 116.404 103.844C116.404 111.585 122.68 117.86 130.42 117.86Z" fill="url(#paint2_linear_6952_111871)"/>
<path d="M130.42 89.8287C138.159 89.8287 144.436 96.106 144.436 103.845C144.436 111.584 138.159 117.861 130.42 117.861C122.681 117.861 116.404 111.584 116.404 103.845C116.404 96.106 122.674 89.8287 130.42 89.8287ZM130.42 88.7695C122.109 88.7695 115.345 95.534 115.345 103.845C115.345 112.156 122.109 118.92 130.42 118.92C138.731 118.92 145.495 112.156 145.495 103.845C145.488 95.534 138.731 88.7695 130.42 88.7695Z" fill="#6782FF"/>
<path d="M122.477 98.8828C122.921 101.863 122.328 103.804 121.65 105.047C120.824 106.523 119.497 107.787 119.822 109.354C119.942 109.884 120.231 110.385 120.62 110.767C120.591 110.293 120.648 109.792 120.768 109.319C121.036 108.345 121.566 107.462 122.328 106.812C122.328 106.812 120.528 109.051 122.328 110.731C124.129 112.412 124.39 111.939 124.39 111.939C123.712 109.7 123.861 108.931 124.214 108.698C124.948 108.225 126.572 110.11 127.603 109.609C128.337 109.255 128.401 107.808 128.281 106.424C127.688 104.214 127.102 102.004 126.544 99.7866L122.477 98.8828Z" fill="#DB59BE"/>
<path opacity="0.25" d="M128.288 106.434C127.695 104.224 127.109 102.014 126.551 99.7964L124.574 99.3516C124.984 102.303 124.398 104.217 123.748 105.452C122.922 106.928 121.594 108.192 121.919 109.76C122.011 110.141 122.152 110.494 122.421 110.819L122.745 111.087C122.717 110.614 122.774 110.176 122.894 109.731C123.162 108.757 123.692 107.874 124.454 107.225C124.454 107.225 122.922 109.138 124.101 110.762C123.805 109.435 123.953 108.905 124.249 108.729C124.694 108.432 125.4 108.962 126.135 109.35C126.163 109.258 126.255 109.173 126.34 109.117C126.693 108.884 127.222 109.173 127.815 109.527C128.373 109.032 128.401 107.705 128.288 106.434Z" fill="#341280"/>
<path d="M123.656 101.868C125.138 101.868 126.339 100.259 126.339 98.2738C126.339 96.2888 125.138 94.6797 123.656 94.6797C122.174 94.6797 120.973 96.2888 120.973 98.2738C120.973 100.259 122.174 101.868 123.656 101.868Z" fill="#DDEBF9"/>
<path d="M124.539 101.42C125.857 101.42 126.926 99.9941 126.926 98.2353C126.926 96.4765 125.857 95.0508 124.539 95.0508C123.221 95.0508 122.152 96.4765 122.152 98.2353C122.152 99.9941 123.221 101.42 124.539 101.42Z" fill="#B3D1E8"/>
<path d="M125.365 95.1698C125.04 95.0215 124.687 95.0215 124.362 95.1698C123.451 95.6147 122.802 96.8221 122.802 98.2343C122.802 99.6465 123.451 100.861 124.362 101.299C124.687 101.447 125.04 101.447 125.365 101.299C126.276 100.854 126.925 99.6465 126.925 98.2343C126.925 96.8221 126.283 95.6147 125.365 95.1698Z" fill="#DDEBF9"/>
<path d="M128.077 114.725C129.051 115.106 130.584 114.93 132.236 114.224C133.592 113.631 134.834 112.812 135.893 111.809L135.011 107.177L134.418 104.084L133.796 100.871C132.737 97.8633 126.834 99.4238 127.102 102.728L127.159 105.03L127.215 107.092L127.244 108.123L127.335 111.541C126.573 113.249 126.989 114.309 128.077 114.725Z" fill="#FFD6E2"/>
<path opacity="0.5" d="M127.193 105.521L127.25 107.583C127.808 107.406 128.309 107.081 128.754 106.7C129.488 106.022 129.961 105.139 130.11 104.137L127.193 105.521Z" fill="#F57FA0"/>
<path d="M123.6 103.99C124.398 106.144 127.23 105.79 128.642 105.021C130.054 104.251 134.037 101.427 134.891 96.5899C135.986 90.4892 124.391 88.3073 123.509 94.055C123.509 94.055 123.48 94.3233 123.452 94.7329C123.424 95.1424 123.36 95.792 123.332 96.5052C123.212 99.0048 123.099 102.634 123.6 103.99Z" fill="#FFD6E2"/>
<g opacity="0.5">
<path opacity="0.5" d="M125.372 101.154C125.139 101.154 124.779 101.126 124.61 100.949C124.539 100.872 124.504 100.773 124.518 100.667C124.546 100.462 124.722 99.6712 124.913 98.838C125.118 97.9412 125.372 96.8326 125.372 96.7126C125.358 96.6561 125.4 96.5996 125.457 96.5926C125.513 96.5784 125.57 96.6208 125.584 96.6844C125.598 96.7691 125.513 97.1786 125.125 98.8945C124.941 99.6853 124.758 100.511 124.73 100.702C124.722 100.744 124.737 100.78 124.758 100.808C124.885 100.942 125.316 100.956 125.556 100.935C125.619 100.928 125.669 100.977 125.676 101.034C125.683 101.09 125.64 101.147 125.577 101.154C125.563 101.147 125.478 101.154 125.372 101.154Z" fill="#F57FA0"/>
</g>
<path d="M129.679 117.859C131.289 117.943 134.029 117.816 136.917 116.305C139.875 114.759 141.492 112.549 142.17 111.497C141.57 110.459 140.878 109.823 140.419 109.47C139.897 109.068 139.423 108.82 139.134 108.679C138.541 108.383 137.898 108.15 137.249 107.973C136.098 107.648 134.919 107.5 133.739 107.5C133.061 108.326 132.327 109.06 131.466 109.71C130.555 110.416 128.931 111.624 128.133 111.158C127.836 110.981 127.752 110.628 127.54 109.922C127.391 109.392 127.307 108.799 127.335 108.241C126.481 108.298 125.626 108.418 124.772 108.594C123.677 108.771 122.618 109.068 121.616 109.505C120.521 110.007 119.554 110.713 118.728 111.567C119.187 112.28 119.9 113.241 120.945 114.194C124.532 117.491 128.797 117.809 129.679 117.859Z" fill="#C5C5FA"/>
<path opacity="0.15" d="M142.17 111.495C141.909 111.043 141.534 110.514 141.005 109.998C140.814 109.815 140.623 109.645 140.44 109.504C139.762 109.8 139.112 110.154 138.491 110.535C137.22 111.333 136.133 112.011 135.01 113.338C134.007 114.637 133.209 116.078 132.708 117.645C133.887 117.448 135.9 116.96 138.018 115.605C140.207 114.192 141.506 112.505 142.17 111.495Z" fill="#341280"/>
<path d="M123.452 95.3467C123.509 94.6405 123.749 93.9627 124.102 93.3413C124.25 93.1083 124.575 92.9883 124.836 93.073C125.069 93.1295 125.309 93.193 125.542 93.2495C126.842 93.5178 128.169 93.5461 129.461 93.306C129.814 93.2495 130.167 93.4543 130.316 93.8073C130.817 95.1066 131.7 96.2222 132.879 96.9919L133.175 102.005C132.766 103.241 132.674 104.568 132.942 105.868C133.295 107.343 134.037 107.993 133.945 109.257C133.889 110.408 133.175 111.319 132.618 111.912C134.27 111.884 135.83 111.029 136.748 109.638C136.925 109.871 137.017 110.168 137.045 110.493C137.045 111.022 136.777 111.552 136.367 111.877C136.72 111.848 138.725 111.58 139.756 109.963C139.933 109.695 140.462 108.756 140.229 106.899C139.876 104.215 138.401 103.389 137.313 101.151C135.308 97.0837 137.991 95.2266 135.929 91.8656C134.517 89.5637 131.89 88.1797 129.737 88.1797C129.059 88.1797 127.583 88.1797 126.672 89.0906C126.552 89.1471 126.227 89.3871 125.726 89.7684C125.345 89.7967 124.956 89.9167 124.603 90.1215C124.102 90.4463 123.692 90.8911 123.424 91.449C123.099 92.0068 122.775 92.5717 122.775 93.3625C122.746 94.0827 123.008 94.7888 123.452 95.3467Z" fill="url(#paint3_linear_6952_111871)"/>
<g opacity="0.25">
<path opacity="0.25" d="M136.309 110.24C136.486 110.063 136.634 109.886 136.754 109.646C137.312 108.552 136.662 107.316 136.577 107.168C136.429 107.846 135.871 109.971 134.014 110.91C133.781 111.03 133.513 111.143 133.244 111.207C133.068 111.475 132.863 111.708 132.651 111.913C133.478 111.885 134.304 111.68 135.038 111.263C135.511 111.009 135.949 110.656 136.309 110.24Z" fill="#341280"/>
<path opacity="0.25" d="M128.761 92.8381C127.462 92.5415 125.343 92.8663 124.842 92.7816C124.609 92.7251 124.369 92.6615 124.136 92.6051C123.868 92.5133 123.543 92.6333 123.402 92.8734C123.225 93.1417 123.077 93.4312 122.992 93.756C122.936 93.9043 122.9 94.0808 122.844 94.2291C122.964 94.6386 123.169 95.0552 123.465 95.3801C123.522 94.6739 123.762 93.9961 124.115 93.3747C124.263 93.1417 124.588 93.0217 124.849 93.1064C125.026 93.1629 125.174 93.1982 125.35 93.2547L125.555 93.2829C127.589 93.7278 128.507 93.4877 128.507 93.4877C128.832 93.3959 129.156 93.3394 129.481 93.3394C129.686 93.3394 129.862 93.3677 130.074 93.4312C129.672 93.1346 129.227 92.9299 128.761 92.8381Z" fill="#341280"/>
<path opacity="0.25" d="M140.199 106.904C139.846 104.221 138.371 103.394 137.283 101.156C135.278 97.089 137.961 95.2319 135.899 91.8709C135.25 90.8399 134.395 89.9856 133.364 89.3359C134.099 89.8938 134.72 90.5716 135.193 91.3695C137.255 94.7306 134.572 96.5876 136.577 100.655C137.671 102.893 139.175 103.719 139.493 106.402C139.726 108.26 139.197 109.206 139.02 109.467C138.519 110.237 137.784 110.794 136.923 111.091C136.803 111.416 136.598 111.684 136.33 111.917C136.683 111.889 138.688 111.621 139.719 110.004C139.903 109.707 140.461 108.761 140.199 106.904Z" fill="#341280"/>
</g>
<path d="M126.256 89.5707C128.642 88.8928 131.177 89.5425 132.949 91.2512C135.16 93.4331 134.927 96.3493 134.898 96.7377L135.696 96.4411C135.753 96.1728 136.579 92.847 134.249 90.2768C132.476 88.3633 129.737 87.6854 127.258 88.5398C126.489 88.8364 125.811 89.2741 125.253 89.8673L126.256 89.5707Z" fill="#DDEBF9"/>
<path d="M135.187 102.395C136.669 102.395 137.87 100.786 137.87 98.8011C137.87 96.8162 136.669 95.207 135.187 95.207C133.705 95.207 132.504 96.8162 132.504 98.8011C132.504 100.786 133.705 102.395 135.187 102.395Z" fill="#DDEBF9"/>
<path d="M136.069 101.955C137.387 101.955 138.456 100.529 138.456 98.7705C138.456 97.0117 137.387 95.5859 136.069 95.5859C134.751 95.5859 133.683 97.0117 133.683 98.7705C133.683 100.529 134.751 101.955 136.069 101.955Z" fill="#B3D1E8"/>
<path d="M136.867 95.6698C136.542 95.5215 136.189 95.5215 135.864 95.6698C134.953 96.1147 134.304 97.3221 134.304 98.7343C134.304 100.147 134.953 101.361 135.864 101.799C136.189 101.947 136.542 101.947 136.867 101.799C137.778 101.354 138.427 100.147 138.427 98.7343C138.427 97.3221 137.778 96.1429 136.867 95.6698Z" fill="#DDEBF9"/>
<path d="M61.9271 92.5356C58.5802 93.164 56.01 94.2584 54.3012 95.134C51.9993 96.3203 49.6268 97.5348 47.8545 100.112C46.6117 101.913 46.1951 103.614 45.8986 104.928C44.5993 110.591 43.7591 116.261 43.2295 120.631C44.2745 121.126 46.0257 121.804 48.2923 121.966C50.6365 122.128 52.5218 121.669 53.6375 121.302C53.9552 122.623 54.273 123.943 54.5907 125.264C54.1318 128.469 54.16 131.061 54.273 132.861C54.4707 136.01 55.0285 138.242 54.8802 142.288C54.8308 143.601 54.7178 144.674 54.6331 145.387C57.973 147.033 64.5327 149.702 73.1401 149.61C80.3565 149.532 85.9771 147.555 89.2181 146.122C89.1122 144.477 89.0204 142.005 89.2181 139.025C89.4088 136.095 89.783 134.005 89.9524 132.988C90.4538 129.931 90.8986 125.369 90.5597 118.93C91.7248 119.283 93.2288 119.615 94.987 119.699C98.2068 119.848 100.798 119.099 102.394 118.485C102.147 114.072 101.744 110.386 101.377 107.618C100.721 102.654 100.247 101.094 99.1742 99.5401C97.8538 97.6336 96.2933 96.7016 93.4618 95.0563C91.3082 93.8065 88.1731 92.2249 84.0847 90.9609C82.9691 91.9636 78.9372 95.3247 72.7588 95.5859C67.2229 95.8189 63.2476 93.4182 61.9271 92.5356Z" fill="url(#paint4_linear_6952_111871)"/>
<path opacity="0.25" d="M61.8844 104.256C63.5932 105.23 65.9445 104.312 66.7142 104.009C70.4353 102.554 71.7911 98.8755 71.9393 98.127C72.4336 95.5709 73.2809 92.4075 71.8122 91.5884C70.3365 90.7694 61.0653 92.81 61.0653 92.81C58.7775 98.1482 59.519 102.907 61.8844 104.256Z" fill="url(#paint5_linear_6952_111871)"/>
<path d="M60.7833 77.19C61.1858 78.5316 61.6094 80.6005 61.1928 82.9872C60.4655 87.1532 58.0365 87.3509 57.2881 91.3051C56.7232 94.299 57.6341 96.7562 59.3781 101.466C59.7383 102.426 60.169 103.387 60.522 103.337C60.7904 103.302 60.8963 102.709 60.981 102.405C61.5247 100.47 64.0384 99.5877 65.2388 98.9169C67.6466 97.5753 68.6069 94.9486 69.7932 91.7217C71.4878 87.1108 71.0218 83.0083 70.6405 80.9959C73.2672 74.4927 72.2857 72.2049 71.8409 70.7645C71.276 68.9216 69.5672 68.4414 69.5672 68.4414C68.6281 68.6744 67.5337 69.0628 66.4109 69.7265C62.6121 71.9931 61.214 75.8131 60.7833 77.19Z" fill="url(#paint6_linear_6952_111871)"/>
<path opacity="0.3" d="M65.034 72.4091C62.8663 75.6572 65.8743 78.3828 64.2714 85.6557C63.297 90.0688 61.8989 90.3583 61.0728 94.9692C60.6491 97.3205 60.3808 100.773 60.7691 103.125C60.8751 102.913 60.9386 102.609 60.9951 102.412C61.5388 100.477 64.0525 99.5942 65.2529 98.9234C67.6607 97.5818 68.621 94.9551 69.8073 91.7282C71.5019 87.1173 71.0359 83.0148 70.6546 81.0024C73.2813 74.4992 72.2998 72.2114 71.855 70.771C71.5796 69.8742 71.0359 69.3023 70.5416 68.9492C68.275 69.5212 66.1638 70.7074 65.034 72.4091Z" fill="url(#paint7_linear_6952_111871)"/>
<path d="M79.5239 95.2868C80.1947 92.759 81.0703 89.4685 81.7482 86.9407C82.193 85.2672 83.0192 82.1392 83.464 80.4657C83.0333 80.0844 80.5266 77.9308 76.8266 78.2415C72.7948 78.5733 70.6058 81.5602 70.3022 81.9838C69.7515 83.5161 69.469 84.8012 69.3207 85.6838C68.9747 87.6821 69.0877 88.7624 68.7347 91.4951C68.5864 92.6743 68.4169 93.6346 68.2969 94.2489C69.2925 94.496 70.3658 94.722 71.5026 94.8985C74.4965 95.3786 77.222 95.4281 79.5239 95.2868Z" fill="#EFBDCC"/>
<path d="M69.1788 86.0382C69.0447 87.6481 68.9105 89.2651 68.7764 90.875C69.1224 90.6773 69.4684 90.4796 69.8214 90.2819C71.05 89.597 71.968 89.1168 72.1939 89.0039C74.7006 87.6976 79.9399 84.6331 79.8905 84.5483C79.8552 84.4848 77.3697 86.5254 73.8462 86.7726C71.968 86.9067 70.358 86.4901 69.1788 86.0382Z" fill="#E585A5"/>
<path d="M68.6717 85.7771C71.1784 87.9731 75.5704 86.6244 76.4671 86.3491C79.7364 85.3464 81.5723 83.0869 83.6906 80.4884C86.3314 77.2403 87.8142 75.4115 87.9555 72.8272C88.245 67.5384 82.7938 60.6892 76.34 61.3177C70.9454 61.8472 68.128 67.2701 67.9091 67.715C67.8738 67.9974 67.8173 68.4069 67.7538 68.9083C67.7538 68.9083 67.549 70.5111 67.4007 71.9728C66.6805 78.9562 66.2004 83.6094 68.6717 85.7771Z" fill="#FCC3D2"/>
<path opacity="0.25" d="M92.9195 118.774C90.4905 118.209 90.7942 116.825 92.1711 117.136C93.548 117.44 100.327 117.037 101.089 116.797C101.852 116.557 92.6936 117.235 91.9169 116.112C91.1401 114.989 90.4693 111.402 90.4693 111.402L90.3281 118.859C90.3281 118.859 90.4058 118.936 90.5541 119.057C90.5541 119.014 90.5541 118.972 90.5541 118.922C91.7192 119.275 93.2232 119.607 94.9814 119.692C98.2012 119.84 100.793 119.092 102.388 118.478C102.388 118.35 102.388 118.237 102.388 118.11C100.941 118.357 95.0449 119.268 92.9195 118.774Z" fill="url(#paint8_linear_6952_111871)"/>
<path opacity="0.25" d="M53.4327 121.227C53.0585 120.5 52.5995 119.377 52.5077 117.972C52.4089 116.369 52.8537 115.373 53.6516 112.754C54.4848 110.028 55.2121 107.641 54.9579 107.535C54.626 107.394 51.6745 110.854 51.039 115.451C50.806 117.138 50.9896 118.155 50.1634 118.854C48.6171 120.168 45.2419 118.826 45.0018 119.447C44.9736 119.518 45.0089 119.582 45.023 119.617C45.4678 120.718 51.3497 120.154 51.7522 120.111C51.8369 120.104 52.0911 120.076 52.2535 120.224C52.4159 120.372 52.43 120.648 52.3947 120.775C52.2182 121.382 49.9728 121.262 49.069 121.191C47.6356 121.086 45.6444 120.831 43.2648 120.168C43.2577 120.309 43.2436 120.443 43.2366 120.584C43.2366 120.591 43.2366 120.598 43.2295 120.612C43.2295 120.62 43.2295 120.627 43.2295 120.634C43.6885 120.874 44.3663 121.184 45.2207 121.453C46.5482 121.862 47.6215 121.926 48.2923 121.968C48.956 122.004 49.9516 122.06 51.2297 121.841C52.1476 121.672 52.8961 121.432 53.4327 121.227Z" fill="url(#paint9_linear_6952_111871)"/>
<path opacity="0.25" d="M80.4131 113.305L70.4217 118.565C68.5999 120.62 63.2547 126.078 56.5044 125.577C55.8971 125.527 55.2546 125.436 54.5908 125.273C54.8591 128.225 55.0286 131.409 55.0357 134.799C55.0427 137.016 54.9862 139.141 54.8733 141.161C56.1301 140.25 58.0578 138.852 60.4162 137.157C67.6326 131.981 67.1665 132.433 68.0915 131.663C72.2858 128.168 75.2868 123.43 77.2003 123.967C77.7016 124.108 77.9488 124.546 78.1112 124.786C82.0724 130.59 87.0222 132.963 86.309 135.18C85.3629 138.103 75.6257 137.453 75.6327 137.63C75.6398 137.814 86.8528 137.079 87.0787 138.371C87.227 139.212 82.715 140.426 82.8138 140.765C82.9056 141.076 87.0152 141.224 90.0161 139.833C90.1079 137.1 90.1997 134.354 90.2774 131.586C90.3197 130.032 90.355 128.493 90.3903 126.947C87.0716 122.399 83.7459 117.852 80.4131 113.305Z" fill="url(#paint10_linear_6952_111871)"/>
<path d="M83.6123 58.4924C85.7165 58.9584 86.8815 60.6178 88.4632 62.8632C89.3458 64.113 90.7298 66.0689 91.4783 68.9569C92.5516 73.0805 90.9416 73.7231 91.45 78.2775C92.0644 83.7145 94.5993 84.9148 93.7661 88.9467C93.3918 90.7684 92.8764 90.5072 91.8949 93.3316C90.2426 98.0625 91.2947 99.9337 90.2285 102.292C88.1455 106.889 79.8134 109.41 77.2432 107.009C76.5512 106.359 75.6545 104.771 81.4657 86.6377C82.6449 82.9589 83.6617 79.9721 84.3184 78.0586C84.2266 77.8608 84.0924 77.5572 83.9441 77.1759C82.1577 72.6286 83.3087 69.9172 82.1506 66.542C81.7693 65.4405 81.0209 63.9153 79.3756 62.3054C78.2176 62.1147 76.5512 62.0441 74.9413 62.8279C72.6112 63.9647 72.6182 65.8359 69.0665 70.6162C67.0329 73.3488 66.0161 74.7187 64.6957 75.4036C63.4671 76.0391 62.0478 76.378 61.024 77.8185C60.445 78.6305 60.219 79.4708 60.1202 80.071C60.0213 79.0542 60.0072 77.4654 60.5721 75.6437C61.49 72.6851 63.3894 70.9057 64.2579 70.1855C64.6251 69.0487 65.2959 67.3116 66.5034 65.4052C67.8097 63.3433 71.0224 58.2876 75.7675 58.1817C76.6218 58.1605 77.9281 58.2947 79.5098 59.1208C80.3289 58.7183 81.8823 58.1111 83.6123 58.4924Z" fill="url(#paint11_linear_6952_111871)"/>
<path opacity="0.3" d="M91.45 78.2792C90.9416 73.7248 92.5516 73.0823 91.4783 68.9586C90.7298 66.0707 89.3458 64.1077 88.4632 62.865C87.3123 61.2338 86.3731 59.9205 85.1445 59.1367C84.8903 60.3865 89.1269 63.5781 89.48 69.0151C89.6989 72.4892 88.0748 72.7716 88.1949 76.7893C88.3361 81.3508 90.4544 81.5555 90.6098 85.9475C90.7298 89.2733 89.5294 89.3721 88.8445 95.3811C88.3997 99.3282 88.8939 99.5189 88.3008 101.432C87.4958 104.024 85.9354 105.782 84.6855 106.975C87.0722 106.008 89.2893 104.363 90.2285 102.287C91.3017 99.9284 90.2426 98.0572 91.8949 93.3263C92.8764 90.5019 93.3918 90.7632 93.766 88.9485C94.6063 84.9166 92.0643 83.7162 91.45 78.2792Z" fill="url(#paint12_linear_6952_111871)"/>
<path d="M83.5626 82.1555C83.6403 82.1767 83.7179 82.1979 83.8027 82.212C85.349 82.5227 87.0437 81.5906 88.0252 79.3311C88.5548 78.1024 88.463 76.9091 87.891 76.0194C87.5027 75.4122 86.8742 74.9462 86.1469 74.7343C84.424 74.2118 83.3508 75.7017 82.7364 77.6576C82.1292 79.5711 81.9032 81.6824 83.5626 82.1555Z" fill="#FCC3D2"/>
<path d="M83.8027 82.2199C85.3491 82.5306 87.0438 81.5985 88.0252 79.339C88.5548 78.1104 88.463 76.917 87.8911 76.0273C88.0323 76.338 88.11 76.6699 88.1029 77.0018C88.11 78.4069 87.4533 80.2922 86.3871 81.1254C85.681 81.7044 84.7913 82.0857 83.8027 82.2199Z" fill="#F480A1"/>
<path d="M86.6122 77.1484C85.7225 77.3108 84.9741 77.8263 84.5787 78.5606C83.809 79.8316 84.1691 80.2553 84.1691 80.2553C84.1691 80.2553 84.0703 79.7963 84.9811 79.2244C85.779 78.7231 86.1815 78.8572 86.1815 78.8572L84.8823 78.7654C84.8752 78.7584 85.6449 77.4803 86.6122 77.1484Z" fill="#F480A1"/>
<path d="M74.214 71.7383C74.2352 71.9854 71.905 77.6484 71.7144 78.411C71.5237 79.1736 73.3172 79.2724 73.3172 79.2724" stroke="#F480A1" stroke-width="0.91" stroke-miterlimit="10"/>
<path opacity="0.3" d="M70.5986 62.693C70.415 62.5518 68.1201 65.3409 67.8306 65.122C67.5694 64.9243 69.497 62.6718 69.1793 61.7539C67.9577 63.1026 67.0539 64.5289 66.4961 65.4045C65.2886 67.311 64.6178 69.055 64.2507 70.1848C64.2154 70.213 64.173 70.2554 64.1377 70.2837C64.9921 69.7329 66.0301 68.6455 67.1316 67.4945C69.3417 65.1856 70.761 62.8201 70.5986 62.693Z" fill="url(#paint13_linear_6952_111871)"/>
<path d="M90.5677 118.93L90.4618 121.881C86.7406 116.536 83.0194 111.191 79.2983 105.853C79.849 99.759 80.1103 95.1622 80.1103 93.3899C80.1103 91.9494 79.9832 90.6643 79.9832 90.6643C79.8702 89.5911 79.8208 89.0544 79.6654 88.4895C79.3618 87.3951 78.3521 86.3218 76.601 84.0058C76.3185 83.6245 75.909 83.102 75.5347 83.1796C75.0616 83.2855 74.8781 84.3094 74.8781 84.9308C74.8781 86.4842 76.0008 87.6351 76.5303 88.1012C76.5445 88.5743 76.5939 89.1038 76.6857 89.6829C76.8198 90.4878 77.0176 91.1939 77.2223 91.78C76.495 90.7985 75.8031 90.0571 75.2805 89.5487C74.1013 88.3907 73.6706 88.2918 73.4941 88.2565C73.1693 88.2 72.7174 88.2 70.938 89.1109C70.3096 89.4287 69.4975 89.8735 68.5725 90.4596C68.276 91.0033 66.3342 94.6115 67.3157 95.4588C67.471 95.5929 67.7535 95.6989 68.276 95.5929C68.0077 96.0872 68.0288 96.645 68.3254 96.984C68.4949 97.1817 68.7208 97.2664 68.855 97.3017C68.4031 98.3891 68.389 99.2859 68.7914 99.5613C69.0103 99.7166 69.3069 99.646 69.4269 99.6177C70.6909 99.3282 71.1851 97.3511 71.2487 97.097C71.3405 97.3017 71.5241 97.6336 71.8701 97.916C72.0325 98.0502 72.1949 98.142 72.329 98.2055C72.0183 100.507 71.7147 102.308 71.4817 103.551C71.3193 104.433 71.171 105.154 71.3334 106.1C71.6159 107.773 72.6468 108.861 72.9363 109.193C73.9248 110.301 73.6071 110.626 80.9082 124.875C80.9082 124.875 85.0248 132.904 90.0734 137.606C90.603 138.1 91.6763 139.033 93.0038 138.948C94.5078 138.849 95.574 137.493 96.3648 136.505C97.7912 134.704 98.349 132.925 98.5043 132.43C100.079 127.276 101.046 120.377 101.251 118.831C100.072 119.233 98.3843 119.664 96.3225 119.735C93.8582 119.812 91.8669 119.346 90.5677 118.93Z" fill="#F4CEDA"/>
<path opacity="0.6" d="M90.4541 121.883C91.3438 123.069 92.2476 124.354 93.1514 125.738C94.1541 127.277 95.0438 128.767 95.8276 130.186C95.5381 128.661 95.2697 127.087 95.0226 125.47C94.7119 123.457 94.4577 121.508 94.2529 119.616C93.6881 119.602 92.982 119.538 92.1911 119.355C91.5415 119.199 90.9907 118.995 90.5388 118.797C90.5176 119.828 90.4823 120.859 90.4541 121.883Z" fill="#F480A1"/>
<path opacity="0.6" d="M95.0651 137.947C94.5002 137.904 93.6812 138.053 92.8691 137.954C90.0659 137.601 88.2795 134.296 87.298 132.411C84.9325 127.885 79.2343 116.601 73.9879 109.067C72.9782 107.619 72.1167 106.504 71.3965 106.355C71.7354 107.874 72.6675 108.876 72.9429 109.18C73.9314 110.288 73.6137 110.613 80.9148 124.862C80.9148 124.862 85.0314 132.891 90.08 137.594C90.6096 138.088 91.6829 139.02 93.0104 138.935C93.8083 138.893 94.4861 138.476 95.0651 137.947Z" fill="#F480A1"/>
<path opacity="0.6" d="M70.6329 92.1681C71.0919 91.9351 71.3179 91.8221 71.5085 91.7868C72.0098 91.6809 72.4406 91.7868 73.3656 92.1469C74.7778 92.6906 75.5121 93.1002 75.5686 93.0154C75.6251 92.9307 74.9614 92.4364 74.9049 92.387C74.6295 92.1751 74.34 91.9986 73.8528 91.7444C72.9631 91.2855 72.5182 91.0595 72.1087 91.0666C71.8192 91.0736 71.5509 91.1937 71.0142 91.4408C70.061 91.8856 69.5102 92.1398 69.0371 92.7118C68.7265 93.0931 68.5782 93.4814 68.2887 94.2582C68.091 94.7807 67.9639 95.2467 67.8721 95.6209C67.985 95.6209 68.1121 95.6139 68.2604 95.5786C68.4299 94.9925 68.6064 94.47 68.7829 94.011C69.0371 93.3543 69.1289 93.2202 69.1784 93.1496C69.489 92.74 69.8774 92.5423 70.6329 92.1681Z" fill="#F480A1"/>
<path opacity="0.6" d="M73.9315 94.7448C73.5361 94.6036 72.9359 94.4059 72.1804 94.2434C70.8953 93.9681 70.2456 93.8339 69.709 94.1587C69.3136 94.3988 69.1088 94.8436 68.7063 95.7404C68.5086 96.1852 68.3674 96.5807 68.2686 96.9125C68.2827 96.9337 68.2897 96.9619 68.3109 96.9831C68.4592 97.1597 68.6498 97.2373 68.784 97.2797C69.0947 96.5736 69.4054 95.8675 69.709 95.1614C69.8714 94.7801 70.2598 94.5471 70.6693 94.5683L73.9315 94.7448Z" fill="#F480A1"/>
<path opacity="0.6" d="M76.6777 89.6861C76.8048 90.4557 76.9955 91.1336 77.1861 91.6985C77.3768 91.8891 77.5604 92.0797 77.751 92.2704C77.5674 91.6137 77.398 90.9006 77.2497 90.1309C77.0873 89.2765 76.9814 88.4716 76.9108 87.7301C76.7695 87.6454 76.5718 87.5112 76.36 87.3135C75.3503 86.3603 75.3079 85.0187 75.3079 84.7151C75.3008 84.0796 75.4632 83.5571 75.6256 83.1828C75.5903 83.1828 75.5621 83.1758 75.5268 83.1828C75.0537 83.2887 74.8701 84.3126 74.8701 84.934C74.8701 86.4874 75.9928 87.6383 76.5224 88.1044C76.5365 88.5775 76.586 89.107 76.6777 89.6861Z" fill="#F480A1"/>
<path d="M73.232 103.125C71.7139 107.898 70.1957 112.665 68.6776 117.438C68.4305 118.215 69.1083 118.977 69.9062 118.815L77.2427 117.367C77.6169 117.29 77.9276 117.021 78.0476 116.661L82.7715 102.821C82.9409 102.327 82.5526 101.826 82.0371 101.861C79.4175 102.031 76.7978 102.207 74.1782 102.377C73.7474 102.405 73.3661 102.701 73.232 103.125Z" fill="url(#paint14_linear_6952_111871)"/>
<path d="M82.7781 102.821C82.7922 102.785 82.7922 102.75 82.7993 102.715C80.2008 102.884 77.5953 103.061 74.9968 103.23C74.559 103.259 74.1777 103.555 74.0436 103.979C72.5254 108.752 71.0073 113.518 69.4892 118.292C69.4327 118.468 69.4327 118.638 69.4609 118.8C69.6022 118.835 69.7575 118.849 69.9128 118.814L77.2493 117.367C77.6235 117.289 77.9342 117.021 78.0542 116.66L82.7781 102.821Z" fill="url(#paint15_linear_6952_111871)"/>
<path d="M44.5996 121.27C45.0798 130.435 46.2801 141.394 49.733 141.902C50.312 141.987 50.7639 141.754 51.5618 141.281C60.2398 136.07 67.0608 128.762 69.6522 127.025C70.2383 126.636 70.8102 126.149 71.9612 125.182C72.5119 124.716 72.8156 124.44 73.0839 124.002C73.5711 123.197 73.6135 122.35 73.5923 121.828C73.9806 121.425 74.6585 120.726 75.5411 119.886C77.7442 117.775 79.1634 116.722 78.881 115.953C78.8457 115.847 78.7539 115.706 78.5421 115.579C78.8951 115.296 79.2482 115.007 79.6012 114.724C79.7001 114.576 80.3285 113.637 80.0319 113.227C79.7566 112.846 78.6974 112.98 77.4405 113.7C75.76 114.647 74.0795 115.593 72.3919 116.539C74.7503 114.548 77.1157 112.549 79.4741 110.558C79.7636 110.029 79.8625 109.464 79.6295 109.202C79.3329 108.864 78.4079 108.934 77.5676 109.711C77.5818 109.365 77.4688 109.153 77.3982 109.054C77.0592 108.56 76.1907 108.412 75.294 108.779C73.6346 109.414 71.9682 110.05 70.3089 110.685C70.0264 110.791 69.7511 110.932 69.5039 111.109C69.0944 111.406 68.6566 111.744 68.2118 112.14C67.9999 112.331 67.8022 112.514 67.6116 112.698C66.9831 113.312 66.5948 114.131 66.51 115.007C66.4606 115.522 66.4112 116.045 66.3688 116.574C66.2629 117.888 66.1852 119.166 66.1358 120.401C64.3423 121.616 62.4994 122.837 60.6211 124.059C58.6582 125.33 56.7164 126.559 54.8028 127.752C54.7322 126.961 54.6616 126.177 54.591 125.386C54.3086 124.511 54.0402 123.6 53.786 122.647C53.6589 122.167 53.5389 121.693 53.433 121.227C52.3809 121.573 50.7921 121.962 48.8292 121.948C47.0569 121.934 45.6023 121.588 44.5996 121.27Z" fill="#FCC3D2"/>
<path opacity="0.6" d="M78.9305 110.083C73.4582 114.941 70.7609 117.419 70.8385 117.511C70.9162 117.603 73.7124 115.357 79.2271 110.775C79.3118 110.725 79.6013 110.535 79.7284 110.153C79.8908 109.673 79.6719 109.271 79.6295 109.207C79.3965 109.497 79.1635 109.786 78.9305 110.083Z" fill="#F480A1"/>
<path opacity="0.6" d="M73.5857 121.02C73.6139 121.211 73.6351 121.493 73.5927 121.832C73.3315 123.873 70.9378 125.101 70.1611 125.532C63.3966 129.225 57.8325 134.796 51.3928 139.033C50.8562 139.386 50.2771 139.76 49.564 139.654C46.7466 139.238 45.4191 131.859 44.7695 124.212C45.3485 132.6 46.6478 141.455 49.7405 141.907C50.3407 141.991 50.8138 141.737 51.5693 141.285C60.2473 136.074 67.0683 128.766 69.6597 127.029C70.2458 126.634 70.8177 126.153 71.9687 125.186C72.237 124.96 72.7242 124.635 73.0914 124.007C73.1903 123.837 73.4091 123.456 73.508 122.927C73.5927 122.461 73.5998 121.832 73.5998 121.832C73.5998 121.832 74.8778 120.554 75.5486 119.89C77.5752 117.892 78.825 116.84 78.7967 116.798C78.7614 116.769 77.7517 117.553 73.5857 121.02Z" fill="#F480A1"/>
<path opacity="0.5" d="M54.8024 127.763C53.5949 128.603 52.0909 129.613 50.3398 130.714C49.789 131.06 48.3415 131.964 48.2215 131.809C48.0873 131.639 50.0291 130.693 50.7493 128.667C51.0247 127.89 50.9753 126.704 50.8764 124.359C50.834 123.286 50.7705 122.403 50.7211 121.803C50.9894 121.761 51.2577 121.711 51.526 121.662C52.1898 121.535 52.8182 121.394 53.4255 121.238C53.8138 122.58 54.1951 123.921 54.5835 125.263C54.6611 126.096 54.7317 126.929 54.8024 127.763Z" fill="#F480A1"/>
<path opacity="0.6" d="M77.3984 109.058C77.3772 109.03 77.349 109.009 77.3278 108.98C75.5414 109.969 69.024 114.439 69.024 114.439L68.6992 116.282C68.6992 116.282 69.024 115.074 69.6736 114.594C70.3233 114.121 77.575 109.708 77.575 109.708C77.582 109.369 77.469 109.157 77.3984 109.058Z" fill="#F480A1"/>
<path d="M54.9162 145.707C54.1465 146.943 53.3133 148.517 52.6072 150.417C52.0494 151.928 51.6822 153.319 51.4492 154.533C65.4301 154.533 79.4039 154.533 93.3848 154.533C92.7705 153.291 92.1562 152.048 91.5348 150.805C90.7016 149.132 89.8684 147.465 89.0352 145.806C84.8762 147.282 78.0482 149.103 69.5679 148.673C63.4601 148.362 58.4538 146.992 54.9162 145.707Z" fill="url(#paint16_linear_6952_111871)"/>
<path opacity="0.6" d="M78.2107 115.095C76.8762 116.274 76.0571 116.634 74.4684 117.926C73.6634 118.583 73.0562 119.155 72.7031 119.494C74.652 118.187 76.5938 116.888 78.5426 115.582C78.8957 115.299 79.2487 115.01 79.6018 114.727C79.7006 114.579 80.3291 113.64 80.0325 113.23C79.2981 114.092 78.6415 114.713 78.2107 115.095Z" fill="#F480A1"/>
</g>
<defs>
<linearGradient id="paint0_linear_6952_111871" x1="107.621" y1="155.955" x2="105.065" y2="-49.5572" gradientUnits="userSpaceOnUse">
<stop offset="0.49" stop-color="#EFEFFF"/>
<stop offset="0.52" stop-color="#EAECFF"/>
<stop offset="0.56" stop-color="#DAE2FA"/>
<stop offset="0.6" stop-color="#BFD2F5"/>
<stop offset="0.63" stop-color="#A6C3F0"/>
<stop offset="0.66" stop-color="#A5C0EE"/>
<stop offset="0.68" stop-color="#A1B5E8"/>
<stop offset="0.7" stop-color="#9CA4DE"/>
<stop offset="0.71" stop-color="#948BCF"/>
<stop offset="0.73" stop-color="#896CBD"/>
<stop offset="0.74" stop-color="#8255B0"/>
<stop offset="0.84" stop-color="#6845A5"/>
<stop offset="1" stop-color="#31228F"/>
</linearGradient>
<linearGradient id="paint1_linear_6952_111871" x1="33.2055" y1="180.498" x2="30.6503" y2="-25.0137" gradientUnits="userSpaceOnUse">
<stop offset="0.49" stop-color="#EFEFFF"/>
<stop offset="0.52" stop-color="#EAECFF"/>
<stop offset="0.56" stop-color="#DAE2FA"/>
<stop offset="0.6" stop-color="#BFD2F5"/>
<stop offset="0.63" stop-color="#A6C3F0"/>
<stop offset="0.66" stop-color="#A5C0EE"/>
<stop offset="0.68" stop-color="#A1B5E8"/>
<stop offset="0.7" stop-color="#9CA4DE"/>
<stop offset="0.71" stop-color="#948BCF"/>
<stop offset="0.73" stop-color="#896CBD"/>
<stop offset="0.74" stop-color="#8255B0"/>
<stop offset="0.84" stop-color="#6845A5"/>
<stop offset="1" stop-color="#31228F"/>
</linearGradient>
<linearGradient id="paint2_linear_6952_111871" x1="131.764" y1="212.175" x2="129.209" y2="6.66332" gradientUnits="userSpaceOnUse">
<stop offset="0.49" stop-color="#EFEFFF"/>
<stop offset="0.52" stop-color="#EAECFF"/>
<stop offset="0.56" stop-color="#DAE2FA"/>
<stop offset="0.6" stop-color="#BFD2F5"/>
<stop offset="0.63" stop-color="#A6C3F0"/>
<stop offset="0.66" stop-color="#A5C0EE"/>
<stop offset="0.68" stop-color="#A1B5E8"/>
<stop offset="0.7" stop-color="#9CA4DE"/>
<stop offset="0.71" stop-color="#948BCF"/>
<stop offset="0.73" stop-color="#896CBD"/>
<stop offset="0.74" stop-color="#8255B0"/>
<stop offset="0.84" stop-color="#6845A5"/>
<stop offset="1" stop-color="#31228F"/>
</linearGradient>
<linearGradient id="paint3_linear_6952_111871" x1="121.359" y1="84.9937" x2="141.148" y2="110.843" gradientUnits="userSpaceOnUse">
<stop stop-color="#FFA1EF"/>
<stop offset="0.08" stop-color="#FC99E9"/>
<stop offset="0.47" stop-color="#EA77D2"/>
<stop offset="0.79" stop-color="#DF61C3"/>
<stop offset="1" stop-color="#DB59BE"/>
</linearGradient>
<linearGradient id="paint4_linear_6952_111871" x1="93.2843" y1="155.275" x2="57.4778" y2="83.338" gradientUnits="userSpaceOnUse">
<stop offset="0.1452" stop-color="#6669FB"/>
<stop offset="0.4376" stop-color="#999BFC"/>
<stop offset="0.7307" stop-color="#C6C8FE"/>
<stop offset="0.8785" stop-color="#D8D9FE"/>
</linearGradient>
<linearGradient id="paint5_linear_6952_111871" x1="71.7839" y1="98.9382" x2="59.8903" y2="96.6361" gradientUnits="userSpaceOnUse">
<stop stop-color="#8134BC"/>
<stop offset="1" stop-color="#21136E"/>
</linearGradient>
<linearGradient id="paint6_linear_6952_111871" x1="56.7065" y1="86.392" x2="73.1057" y2="85.4178" gradientUnits="userSpaceOnUse">
<stop offset="0.07" stop-color="#9962FB"/>
<stop offset="0.27" stop-color="#A161F3"/>
<stop offset="0.499" stop-color="#B860DE"/>
<stop offset="0.7502" stop-color="#DA5DBD"/>
</linearGradient>
<linearGradient id="paint7_linear_6952_111871" x1="70.9561" y1="87.063" x2="62.132" y2="85.355" gradientUnits="userSpaceOnUse">
<stop stop-color="#8134BC"/>
<stop offset="1" stop-color="#21136E"/>
</linearGradient>
<linearGradient id="paint8_linear_6952_111871" x1="102.568" y1="117.568" x2="89.7565" y2="115.088" gradientUnits="userSpaceOnUse">
<stop stop-color="#8134BC"/>
<stop offset="1" stop-color="#21136E"/>
</linearGradient>
<linearGradient id="paint9_linear_6952_111871" x1="54.5592" y1="115.384" x2="44.5639" y2="113.449" gradientUnits="userSpaceOnUse">
<stop stop-color="#8134BC"/>
<stop offset="1" stop-color="#21136E"/>
</linearGradient>
<linearGradient id="paint10_linear_6952_111871" x1="91.5612" y1="131.856" x2="54.6906" y2="124.719" gradientUnits="userSpaceOnUse">
<stop stop-color="#8134BC"/>
<stop offset="1" stop-color="#21136E"/>
</linearGradient>
<linearGradient id="paint11_linear_6952_111871" x1="94.4004" y1="85.6903" x2="59.85" y2="79.0041" gradientUnits="userSpaceOnUse">
<stop offset="0.07" stop-color="#9962FB"/>
<stop offset="0.27" stop-color="#A161F3"/>
<stop offset="0.499" stop-color="#B860DE"/>
<stop offset="0.7502" stop-color="#DA5DBD"/>
</linearGradient>
<linearGradient id="paint12_linear_6952_111871" x1="83.2655" y1="83.1562" x2="93.6515" y2="82.5392" gradientUnits="userSpaceOnUse">
<stop stop-color="#8134BC"/>
<stop offset="1" stop-color="#21136E"/>
</linearGradient>
<linearGradient id="paint13_linear_6952_111871" x1="69.8543" y1="66.6434" x2="65.0212" y2="65.708" gradientUnits="userSpaceOnUse">
<stop stop-color="#8134BC"/>
<stop offset="1" stop-color="#21136E"/>
</linearGradient>
<linearGradient id="paint14_linear_6952_111871" x1="68.2023" y1="110.802" x2="83.2464" y2="109.908" gradientUnits="userSpaceOnUse">
<stop stop-color="#8134BC"/>
<stop offset="1" stop-color="#21136E"/>
</linearGradient>
<linearGradient id="paint15_linear_6952_111871" x1="80.6041" y1="101.458" x2="71.3873" y2="119.361" gradientUnits="userSpaceOnUse">
<stop stop-color="#8134BC"/>
<stop offset="1" stop-color="#21136E"/>
</linearGradient>
<linearGradient id="paint16_linear_6952_111871" x1="51.262" y1="151.475" x2="93.046" y2="148.993" gradientUnits="userSpaceOnUse">
<stop offset="0.07" stop-color="#9962FB"/>
<stop offset="0.27" stop-color="#A161F3"/>
<stop offset="0.499" stop-color="#B860DE"/>
<stop offset="0.7502" stop-color="#DA5DBD"/>
</linearGradient>
<clipPath id="clip0_6952_111871">
<rect width="162" height="154" rx="77" fill="white"/>
</clipPath>
</defs>
</svg>
