<svg width="162" height="154" viewBox="0 0 162 154" fill="none" xmlns="http://www.w3.org/2000/svg">
<rect width="162" height="154" rx="77" fill="#EDF2F7"/>
<path d="M123.644 108.139L121.451 109.034C121.451 109.034 122.646 111.828 122.939 111.963C123.24 112.097 128.464 113.562 128.71 113.427C128.955 113.292 132.097 110.609 132.097 110.609C132.09 110.514 132.066 110.427 132.042 110.34C131.369 108.1 125.369 108.108 123.644 108.139Z" fill="url(#paint0_linear_6982_112406)"/>
<path d="M34.0097 113.434C33.9147 113.22 33.8039 112.895 33.8356 112.5C33.9147 111.558 34.7696 110.877 35.6799 110.331C35.9807 110.149 43.0175 105.977 44.6243 107.988C44.8855 108.312 45.5346 109.46 43.3499 113.157L36.9464 115.064C35.9728 114.526 34.9912 113.98 34.0097 113.434Z" fill="url(#paint1_linear_6982_112406)"/>
<path d="M55.1681 95.5509C57.1866 93.3425 59.4187 92.2818 61.635 91.0866C65.751 88.8702 74.9488 84.0577 87.9697 83.8835C99.5183 83.7331 107.829 87.303 109.753 88.1658C115.452 90.7224 118.175 92.4638 120.051 94.6327C122.869 97.9097 124.009 101.44 124.515 103.656C124.119 105.326 123.724 106.997 123.328 108.667C122.813 108.88 122.299 109.094 121.776 109.308C122.639 109.894 124.555 111.018 127.246 111.223C129.47 111.39 131.22 110.859 132.169 110.495C131.956 116.669 131.766 122.02 131.528 128.629C131.37 133.102 131.212 137.859 128.52 141.935C127.104 144.088 125.148 145.798 124.871 146.035C122.94 147.706 121.42 149.027 119.679 149.13C116.869 149.305 113.893 146.32 112.112 142.022C111.835 145.853 111.566 149.677 111.288 153.508C95.2518 153.476 79.2073 153.444 63.1706 153.413C62.9886 151.101 62.8065 148.798 62.6244 146.487C61.8408 147.405 60.5902 148.687 58.7934 149.859C57.7485 150.539 55.8093 151.806 54.147 151.956C49.841 152.344 45.9387 145.347 44.4902 142.751C40.9916 136.474 41.1024 132.864 37.9283 123.524C36.3927 119.012 34.865 115.434 33.8281 113.131C34.8888 113.234 37.1051 113.297 39.5668 112.221C42.5272 110.923 44.1023 108.738 44.6723 107.844C46.01 110.369 47.3477 112.886 48.6854 115.411C48.8754 111.516 49.5482 108.382 50.1418 106.205C51.1787 102.509 52.1919 98.8041 55.1681 95.5509Z" fill="url(#paint2_linear_6982_112406)"/>
<path d="M119.694 149.459C121.23 149.364 122.591 148.335 124.214 146.942C120.889 147.504 119.069 146.736 118.063 146.024C114.913 143.808 115.333 139.209 114.771 122.08C114.557 115.581 114.375 110.246 114.098 110.246C113.805 110.238 113.259 116.143 112.135 142.343C113.908 146.649 116.884 149.633 119.694 149.459Z" fill="url(#paint3_linear_6982_112406)"/>
<path d="M121.222 108.785C121.578 108.46 122.045 108.096 122.631 107.78C122.98 107.59 123.32 107.447 123.652 107.329C123.937 106.11 124.23 104.883 124.515 103.664C124.396 103.141 124.238 102.54 124.032 101.891C122.797 102.294 121.301 104.408 120.542 105.825C119.117 108.484 119.022 110.993 118.998 111.745C118.468 125.764 117.866 132.848 118.325 132.864C118.468 132.864 118.531 132.183 119.734 121.632C120.383 116.091 120.898 111.611 121.222 108.785Z" fill="url(#paint4_linear_6982_112406)"/>
<path d="M55.7874 131.646C56.4919 131.519 56.7452 128.859 56.4602 126.667C56.1199 124.11 55.075 122.456 53.5711 119.939C52.4946 118.142 50.9115 115.466 49.0039 112.039C48.8693 113.092 48.7585 114.208 48.7031 115.411C49.4472 117.366 50.5078 120.129 51.8218 123.437C54.5526 130.332 55.2492 131.748 55.7874 131.646Z" fill="url(#paint5_linear_6982_112406)"/>
<path d="M54.1719 151.957C55.8341 151.807 57.7734 150.54 58.8182 149.859C60.3697 148.846 61.5095 147.754 62.301 146.883C60.9871 127.696 59.4277 106.863 58.7549 106.895C58.5887 106.902 58.4779 108.129 58.3512 115.372C57.9317 139.055 58.7708 146.179 55.0584 148.189C53.8394 148.846 51.5281 149.282 46.9609 146.741C48.8369 149.448 51.4173 152.21 54.1719 151.957Z" fill="url(#paint6_linear_6982_112406)"/>
<path d="M74.8867 92.4402C77.8946 96.8728 83.0079 99.3741 88.2717 98.9625C95.7518 98.3768 99.5116 92.1948 99.8361 91.6328" stroke="url(#paint7_linear_6982_112406)" stroke-miterlimit="10" stroke-linecap="round" stroke-linejoin="round" stroke-dasharray="3 3"/>
<path opacity="0.1" d="M66.1313 95.9155C67.1683 95.583 68.5772 96.5091 71.3872 98.3613C75.4003 101.005 76.0256 102.382 78.3607 103.617C80.6086 104.812 82.9041 104.836 87.408 104.844C95.1176 104.844 98.9724 104.852 101.838 102.398C104.956 99.7386 106.761 94.8786 105.384 91.5145C104.212 88.6491 101.125 87.8338 101.347 87.3589C101.711 86.5674 110.751 87.3985 113.703 92.7414C115.864 96.6516 112.959 99.7228 111.257 110.725C109.658 121.055 111.621 122.211 109.793 125.4C103.231 136.822 72.432 132.002 72.3608 129.928C72.2974 128.195 93.6374 125.788 93.5187 125.036C93.4 124.245 70.0178 130.427 64.287 121.736C63.0839 119.915 63.1155 116.527 63.1868 109.752C63.2501 103.989 63.3214 96.8178 66.1313 95.9155Z" fill="white"/>
<path d="M122.535 109.895C122.432 108.257 122.575 105.716 124.245 104.022C124.815 103.444 125.432 103.104 126.627 102.447C128.393 101.481 129.936 100.887 131.013 100.523C130.941 100.009 130.87 99.4943 130.791 98.9798C130.554 97.3571 130.284 95.7661 129.999 94.2226C129.904 93.439 130.261 92.7187 130.823 92.4575C131.583 92.1092 132.762 92.592 133.102 93.7477C133.633 96.0115 134.171 98.2674 134.701 100.531C135.327 100.302 136.078 100.072 136.941 99.898C137.725 99.7476 138.437 99.6763 139.055 99.6447C139.601 96.993 140.147 94.3492 140.693 91.6976C140.701 90.9852 141.224 90.3994 141.857 90.3124C142.593 90.2095 143.337 90.8031 143.4 91.6342C143.646 91.2068 144.049 90.9139 144.437 90.9377C145.015 90.9773 145.601 91.7134 145.435 92.6633C145.53 95.1091 145.632 97.555 145.727 100.009C147.002 98.7819 148.276 97.555 149.543 96.3281C149.962 96.0273 150.461 95.9402 150.77 96.1381C151.205 96.4152 151.339 97.2938 150.738 97.9983C150.057 99.1064 149.028 100.587 147.556 102.13C146.646 103.08 145.846 103.919 144.659 104.718C142.466 106.183 141.548 105.771 136.308 107.742C135.437 108.075 134.258 108.534 132.873 109.412C131.931 110.006 131.21 110.6 130.728 111.019C129.619 111.265 127.728 111.534 125.496 111.019C124.269 110.734 123.279 110.291 122.535 109.895Z" fill="#F8ACC1"/>
<path d="M150.787 96.1373C150.486 95.9473 150.003 96.0185 149.591 96.3035C149.837 96.6914 149.837 97.3721 149.354 97.942C148.673 99.0502 147.644 100.53 146.172 102.074C145.262 103.024 144.462 103.863 143.275 104.662C141.082 106.127 140.164 105.715 134.924 107.686C134.053 108.018 132.874 108.477 131.489 109.356C130.547 109.95 129.827 110.543 129.344 110.963C128.75 111.097 127.919 111.232 126.938 111.248C128.544 111.406 129.882 111.208 130.745 111.018C131.228 110.591 131.948 110.005 132.89 109.411C134.275 108.533 135.455 108.066 136.325 107.741C141.573 105.762 142.491 106.182 144.676 104.718C145.863 103.926 146.671 103.079 147.573 102.129C149.053 100.586 150.074 99.1056 150.755 97.9974C151.357 97.2929 151.214 96.4143 150.787 96.1373Z" fill="#F480A1"/>
<path d="M143.006 103.602C143.497 103.104 143.742 102.684 143.893 102.296C144.13 101.671 144.114 101.125 144.114 100.943C144.114 99.8186 144.494 92.5127 144.431 90.9375C144.304 90.9533 144.122 90.985 143.916 91.0879C143.655 91.2145 143.489 91.3887 143.402 91.4916C143.283 96.6445 143.077 100.444 142.919 101.687C142.872 102.051 142.777 102.613 142.405 103.175C142.167 103.539 141.898 103.768 141.209 104.291C139.777 105.359 139.27 105.597 139.294 105.66C139.357 105.779 141.55 105.074 143.006 103.602Z" fill="#F480A1"/>
<path d="M134.711 100.523C134.901 100.982 135.083 101.655 134.988 102.431C134.933 102.858 134.838 103.009 134.933 103.175C135.297 103.8 137.838 103.626 138.669 102.312L139.064 99.6367C138.756 99.6525 138.423 99.6763 138.067 99.7159C137.925 99.7317 137.481 99.7871 136.951 99.89C136.08 100.056 135.305 100.302 134.711 100.523Z" fill="#F480A1"/>
<path d="M130.974 100.543C130.309 100.773 129.446 101.097 128.48 101.532C128.528 101.588 128.575 101.627 128.631 101.659C129.486 102.118 130.776 102.261 130.863 102.284C130.934 102.308 130.966 100.97 130.974 100.543Z" fill="#F480A1"/>
<path d="M44.0307 109.072C43.7457 108.178 43.2233 106.88 42.2655 105.502C41.9489 105.051 41.4344 104.323 40.6349 103.61C39.3764 102.479 38.2286 102.114 36.2656 101.37C35.0941 100.927 33.329 100.231 31.1364 99.2728C30.8119 98.4733 30.4636 97.6581 30.0837 96.8269C29.1417 94.7452 28.1444 92.8296 27.1391 91.0882C26.9254 90.4471 26.2209 90.0988 25.5956 90.3284C24.9861 90.55 24.6616 91.2545 24.8991 91.8719C25.7935 94.3177 26.688 96.7715 27.5824 99.2174C26.9175 98.9087 26.0785 98.5921 25.097 98.3546C24.3133 98.1646 23.6009 98.0697 22.9835 98.0142C21.4084 95.2676 19.8411 92.5289 18.2659 89.7822C17.8781 89.054 17.1103 88.7611 16.5641 88.9907C16.0734 89.1965 15.9151 89.7505 15.8913 89.8376C15.7172 89.7585 15.076 89.4814 14.609 89.7505C14.0074 90.0988 13.7779 91.302 14.4903 92.5209C14.419 92.4893 13.9204 92.2914 13.5563 92.5209C13.1367 92.7901 12.9943 93.5895 13.4692 94.3019C14.8544 96.1225 16.2396 97.9351 17.6169 99.7556C18.1076 100.69 18.9467 101.861 20.3477 102.431C20.4585 102.479 20.5614 102.51 20.6643 102.55C20.9809 102.938 21.3055 103.325 21.6221 103.713C25.936 105.803 30.2499 107.893 34.5638 109.982C35.2445 111.051 35.9253 112.12 36.606 113.188C37.5004 113.101 38.9806 112.848 40.5954 111.993C42.3684 111.035 43.4607 109.808 44.0307 109.072Z" fill="#F8ACC1"/>
<path opacity="0.6" d="M28.2069 100.984C28.2702 100.834 27.9774 100.675 27.8191 100.295C27.6766 99.9471 27.5262 99.5197 27.3916 99.1239C27.1383 98.9893 26.8613 98.8548 26.5447 98.7202C26.0618 98.5144 25.4365 98.3007 24.6845 98.1582C24.0276 98.0395 23.4418 98.0078 22.959 98.0078C23.0698 98.4036 23.3073 99.0526 23.8772 99.5909C24.0117 99.7175 24.2809 99.9471 25.0645 100.311C25.5869 100.557 26.3468 100.857 27.3046 101.095C27.9695 101.174 28.1594 101.087 28.2069 100.984Z" fill="#F480A1"/>
<path d="M18.4155 96.9703C17.9405 95.7672 16.0646 90.258 15.8983 89.7831C15.8904 89.7989 15.8825 89.8148 15.8825 89.8306C15.7954 89.7831 15.5659 89.6881 15.3047 89.6406L19.302 101.039L19.5078 101.957C19.7611 102.131 20.0381 102.289 20.3468 102.416C20.4576 102.464 20.5605 102.495 20.6634 102.535C20.7426 102.63 20.8138 102.717 20.893 102.812C20.9088 102.701 20.9088 102.582 20.8297 102.456C20.4022 101.712 18.8983 98.2289 18.4155 96.9703Z" fill="#F480A1"/>
<path d="M17.6961 99.8821C16.9204 98.0853 14.522 92.315 14.522 92.315C14.522 92.315 14.4271 92.2358 14.2925 92.125C14.3479 92.2516 14.4033 92.3783 14.4825 92.5049C14.4112 92.4733 13.9126 92.2754 13.5484 92.5049C13.1289 92.7741 12.9865 93.5735 13.4614 94.2859C14.8466 96.1065 16.2318 97.9191 17.6091 99.7396C17.6407 99.7871 17.6724 99.8346 17.6961 99.8821Z" fill="#F480A1"/>
<path d="M34.818 108.234C33.2032 106.991 28.0345 106.152 26.1348 105.883C28.9447 107.244 31.7547 108.606 34.5647 109.967C35.2454 111.036 35.9262 112.104 36.6069 113.173C37.1768 113.118 37.9842 112.999 38.9103 112.69C38.0475 111.534 36.3615 109.421 34.818 108.234Z" fill="#F480A1"/>
<path d="M118.547 70.6023C118.887 70.0482 119.41 69.5971 120.106 69.2488C120.811 68.9005 121.618 68.7501 122.52 68.7976C123.431 68.8451 124.341 69.1459 125.243 69.7C126.09 70.2145 126.731 70.8319 127.19 71.5363C127.642 72.2408 127.887 72.977 127.903 73.721C127.927 74.473 127.744 75.1616 127.357 75.7869C127.056 76.2777 126.684 76.6497 126.256 76.903C125.829 77.1563 125.394 77.3304 124.95 77.4254C124.507 77.5283 123.731 77.6787 122.623 77.8766C122.315 77.932 122.061 77.9953 121.855 78.0587C121.65 78.122 121.483 78.1932 121.357 78.2724C121.23 78.3515 121.111 78.4386 121.016 78.5257C120.913 78.6207 120.747 78.7869 120.502 79.0323C120.019 79.5705 119.489 79.6576 118.903 79.3014C118.602 79.1193 118.404 78.8581 118.325 78.5336C118.238 78.2091 118.317 77.8529 118.555 77.465C118.855 76.9742 119.188 76.6022 119.56 76.3331C119.932 76.0719 120.328 75.874 120.739 75.7632C121.159 75.6445 121.689 75.5336 122.346 75.4228C122.916 75.3278 123.336 75.2487 123.605 75.1774C123.874 75.1141 124.127 75.0191 124.365 74.8846C124.602 74.75 124.792 74.568 124.942 74.3226C125.227 73.8556 125.299 73.3569 125.148 72.8266C124.998 72.2962 124.65 71.8609 124.103 71.5205C123.462 71.1247 122.892 70.9981 122.394 71.1406C121.895 71.2831 121.349 71.5997 120.747 72.0983C120.146 72.6366 119.568 72.7316 119.014 72.3912C118.689 72.1933 118.483 71.9084 118.404 71.5363C118.341 71.1881 118.381 70.8715 118.547 70.6023ZM116.932 82.7763C116.576 82.5546 116.338 82.2538 116.212 81.8581C116.085 81.4623 116.156 81.0665 116.41 80.647C116.631 80.2829 116.948 80.0533 117.359 79.9584C117.771 79.8634 118.159 79.9346 118.531 80.1642C118.895 80.3858 119.125 80.7024 119.227 81.1061C119.322 81.5098 119.259 81.8976 119.038 82.2618C118.784 82.6654 118.46 82.9108 118.056 82.9821C117.652 83.0533 117.272 82.9821 116.932 82.7763Z" fill="url(#paint8_linear_6982_112406)"/>
<path d="M40.5229 67.3694C40.1429 66.8469 39.9213 66.19 39.8659 65.4142C39.8105 64.6306 39.9767 63.8312 40.3566 63.008C40.7445 62.1848 41.3619 61.4565 42.2247 60.8312C43.0241 60.2455 43.8394 59.8814 44.6626 59.7231C45.4858 59.5727 46.2536 59.6281 46.9581 59.8893C47.6626 60.1505 48.2325 60.5779 48.6678 61.1716C49.0082 61.6386 49.214 62.1214 49.2852 62.6122C49.3565 63.1029 49.3486 63.5699 49.2773 64.0211C49.2061 64.4723 49.0478 65.2401 48.8182 66.3483C48.7549 66.657 48.7153 66.9182 48.6995 67.1319C48.6837 67.3456 48.6837 67.5277 48.7074 67.6701C48.7312 67.8205 48.7707 67.9551 48.8182 68.0817C48.8657 68.2084 48.9607 68.43 49.0953 68.7466C49.4119 69.3957 49.2931 69.926 48.7391 70.3218C48.4541 70.5276 48.1454 70.6147 47.813 70.5672C47.4805 70.5197 47.1797 70.3139 46.9106 69.9498C46.5702 69.4907 46.3486 69.0316 46.2457 68.5883C46.1428 68.1451 46.1111 67.7097 46.1586 67.2823C46.2061 66.8549 46.3011 66.3166 46.4515 65.6675C46.5782 65.0976 46.6652 64.6781 46.7048 64.409C46.7444 64.1399 46.7523 63.8628 46.7206 63.5937C46.689 63.3246 46.5861 63.0713 46.4198 62.8496C46.0953 62.4064 45.66 62.161 45.1138 62.0977C44.5676 62.0344 44.0294 62.1927 43.5149 62.5726C42.9133 63.0159 42.5729 63.4987 42.5096 64.0132C42.4463 64.5277 42.5334 65.153 42.7708 65.8971C43.04 66.657 42.9133 67.2269 42.3909 67.6147C42.0822 67.8443 41.7418 67.9234 41.3698 67.8601C40.9899 67.781 40.7128 67.6226 40.5229 67.3694ZM51.1849 73.4722C50.8525 73.7175 50.4725 73.8204 50.0689 73.7888C49.6573 73.7571 49.309 73.5434 49.024 73.1476C48.7707 72.7993 48.6757 72.4194 48.747 72.0078C48.8182 71.5962 49.024 71.2558 49.3802 71.0025C49.7285 70.7492 50.1084 70.6543 50.5121 70.7176C50.9237 70.7809 51.2562 70.9867 51.5095 71.335C51.7944 71.7228 51.8894 72.1107 51.8023 72.5144C51.7153 72.9102 51.5095 73.2347 51.1849 73.4722Z" fill="url(#paint9_linear_6982_112406)"/>
<path d="M104.26 44.3389C104.363 43.7374 104.656 43.1675 105.139 42.6134C105.622 42.0593 106.271 41.6477 107.07 41.3707C107.878 41.0936 108.764 41.0303 109.746 41.1965C110.656 41.3469 111.439 41.6477 112.081 42.1068C112.722 42.558 113.189 43.1041 113.474 43.7532C113.759 44.3943 113.846 45.0592 113.735 45.74C113.648 46.2782 113.458 46.7294 113.173 47.0935C112.888 47.4576 112.571 47.7663 112.223 48.0117C111.875 48.2571 111.257 48.6608 110.371 49.2228C110.125 49.3811 109.928 49.5235 109.769 49.6502C109.619 49.7768 109.5 49.8956 109.413 50.0064C109.334 50.1172 109.263 50.2359 109.207 50.3467C109.152 50.4655 109.065 50.6713 108.946 50.9721C108.717 51.6053 108.289 51.8744 107.656 51.7715C107.331 51.7161 107.07 51.5657 106.88 51.3124C106.69 51.0591 106.635 50.7267 106.706 50.2993C106.793 49.7689 106.951 49.3257 107.181 48.9615C107.41 48.6054 107.68 48.2966 108.004 48.0513C108.321 47.8059 108.748 47.513 109.271 47.1885C109.73 46.9035 110.07 46.6819 110.276 46.5315C110.482 46.3811 110.672 46.207 110.83 46.0091C110.988 45.8112 111.091 45.5817 111.131 45.3204C111.218 44.8139 111.099 44.3627 110.782 43.9511C110.466 43.5395 110.007 43.2862 109.421 43.1912C108.732 43.0725 108.186 43.1675 107.806 43.4603C107.426 43.7532 107.062 44.2281 106.722 44.8693C106.389 45.5421 105.922 45.835 105.329 45.7321C104.973 45.6766 104.703 45.5025 104.498 45.2096C104.284 44.9168 104.213 44.6318 104.26 44.3389ZM107.149 55.4601C106.761 55.3968 106.453 55.2147 106.207 54.9219C105.962 54.629 105.875 54.257 105.954 53.8058C106.017 53.41 106.215 53.1013 106.54 52.8718C106.864 52.6501 107.221 52.571 107.624 52.6343C108.02 52.6976 108.329 52.8876 108.558 53.2042C108.788 53.5208 108.867 53.877 108.796 54.2728C108.724 54.7161 108.527 55.0327 108.202 55.2385C107.87 55.4443 107.521 55.5155 107.149 55.4601Z" fill="url(#paint10_linear_6982_112406)"/>
<path d="M65.3939 36.6311C65.3147 36.0375 65.4255 35.4121 65.7263 34.7473C66.0271 34.0824 66.5179 33.5045 67.1907 33.0059C67.8714 32.5072 68.6946 32.1906 69.6761 32.0639C70.5785 31.9373 71.4017 32.0006 72.1378 32.2381C72.874 32.4834 73.4755 32.8634 73.9346 33.3858C74.3937 33.9082 74.6628 34.5098 74.7578 35.1905C74.8291 35.7208 74.7816 36.2037 74.6233 36.6311C74.465 37.0586 74.2512 37.4385 73.99 37.7709C73.7288 38.1034 73.2618 38.6654 72.589 39.4569C72.399 39.6786 72.2566 39.8764 72.1457 40.0348C72.0349 40.201 71.9637 40.3435 71.9162 40.478C71.8687 40.6047 71.837 40.7392 71.8212 40.8659C71.8054 40.9925 71.7816 41.2142 71.75 41.5308C71.7183 42.1957 71.3859 42.5756 70.7605 42.6548C70.436 42.7023 70.1431 42.631 69.8978 42.449C69.6445 42.2669 69.4941 41.9661 69.4387 41.5466C69.3674 41.0242 69.3912 40.5572 69.502 40.1456C69.6128 39.7419 69.7869 39.3699 70.0165 39.0453C70.246 38.7208 70.5626 38.325 70.9663 37.858C71.3225 37.4543 71.5758 37.1535 71.7262 36.9477C71.8766 36.7419 72.0033 36.5282 72.0982 36.2908C72.1932 36.0533 72.217 35.8079 72.1853 35.5546C72.1141 35.056 71.8766 34.6602 71.4571 34.3594C71.0376 34.0665 70.531 33.9557 69.9452 34.0349C69.2487 34.1378 68.7658 34.3752 68.4809 34.771C68.1959 35.1668 67.998 35.7129 67.8635 36.4174C67.7448 37.1535 67.3886 37.5651 66.7949 37.6443C66.4466 37.6918 66.13 37.6047 65.8609 37.391C65.5838 37.1694 65.4255 36.9161 65.3939 36.6311ZM71.3542 46.3038C70.9743 46.3513 70.626 46.28 70.3014 46.0663C69.9848 45.8605 69.7949 45.5281 69.7315 45.0848C69.6761 44.689 69.7711 44.3407 70.0086 44.032C70.246 43.7233 70.5706 43.5492 70.9663 43.4938C71.3621 43.4384 71.7104 43.5334 72.0191 43.7629C72.3278 43.9925 72.5019 44.3091 72.5573 44.7049C72.6127 45.1402 72.5178 45.5043 72.2724 45.7972C72.0349 46.0821 71.7262 46.2563 71.3542 46.3038Z" fill="url(#paint11_linear_6982_112406)"/>
<path d="M73.7064 78.051C73.6273 78.0906 73.5402 78.1302 73.4531 78.1619C71.7434 78.8426 69.6141 78.241 68.134 76.0959C67.3424 74.9482 67.3028 73.7371 67.849 72.7715C68.2131 72.1224 68.8543 71.5762 69.6379 71.2596C71.4347 70.5076 72.8278 71.7108 73.8172 73.4364C74.8067 75.1619 75.4557 77.212 73.7064 78.051Z" fill="#F8ACC1"/>
<path d="M73.4531 78.1678C71.7434 78.8485 69.6141 78.2469 68.134 76.1018C67.3424 74.9541 67.3028 73.743 67.849 72.7773C67.7224 73.1098 67.6828 73.4422 67.7382 73.7668C67.9202 75.1757 68.9492 76.9725 70.3186 77.5978C71.221 78.049 72.3133 78.2469 73.4531 78.1678Z" fill="#F480A1"/>
<path d="M68.5449 73.5978C69.566 73.5899 70.4842 73.954 71.0462 74.5951C72.1148 75.6954 71.7902 76.194 71.7902 76.194C71.7902 76.194 71.8219 75.7191 70.7058 75.3233C69.7243 74.983 69.289 75.1888 69.289 75.1888L70.7454 74.8405C70.7454 74.8484 69.6847 73.7482 68.5449 73.5978Z" fill="#F480A1"/>
<path d="M96.4239 73.5373C96.5189 73.5294 96.606 73.5215 96.701 73.5056C98.5215 73.2365 100.065 71.6455 100.263 69.0492C100.366 67.664 99.7959 66.5955 98.8382 66.0255C98.197 65.6456 97.3659 65.4952 96.5348 65.6139C94.6034 65.8672 94.0097 67.6007 94.0177 69.5954C94.0256 71.5901 94.4926 73.6877 96.4239 73.5373Z" fill="#F8ACC1"/>
<path d="M96.709 73.5152C98.5295 73.2461 100.073 71.6551 100.271 69.0588C100.374 67.6736 99.8039 66.6051 98.8461 66.0352C99.1232 66.2568 99.3211 66.5338 99.4398 66.8346C99.9939 68.1407 100.002 70.2145 99.139 71.4414C98.577 72.2883 97.7301 73.0086 96.709 73.5152Z" fill="#F480A1"/>
<path d="M98.6473 67.0859C97.7608 67.5925 97.1513 68.3682 96.9851 69.2073C96.621 70.6954 97.1513 70.9645 97.1513 70.9645C97.1513 70.9645 96.8822 70.5687 97.65 69.6664C98.3228 68.8748 98.8136 68.8432 98.8136 68.8432L97.3809 69.2785C97.3809 69.2785 97.745 67.7904 98.6473 67.0859Z" fill="#F480A1"/>
<path d="M95.8301 91.0571C95.9884 91.6112 95.8301 92.2048 95.4106 92.6006C94.2232 93.7246 91.7774 95.6005 88.1917 96.0121C84.0836 96.4792 80.9491 94.7457 79.5085 93.7404C79.0335 93.408 78.7723 92.8539 78.8436 92.2761C78.9306 91.4845 79.0177 90.7009 79.1127 89.9094L78.4715 83.5691L77.8066 76.9518C78.424 75.9149 80.7195 72.3688 84.2656 72.068C88.8645 71.6722 93.4159 76.9201 94.2549 81.3528C94.5953 83.1417 94.3895 85.1443 95.371 89.284C95.5293 89.9568 95.6876 90.5584 95.8301 91.0571Z" fill="#F8ACC1"/>
<path d="M94.254 81.3516L94.6576 85.2301C94.3015 85.7367 91.8952 89.0137 87.51 89.4411C82.1829 89.9635 78.8426 85.7921 78.6289 85.5151C82.46 81.6682 84.9375 81.1933 86.5285 81.5494C87.2409 81.7078 87.7554 82.0323 88.9031 82.1985C91.0799 82.523 92.9796 81.9215 94.254 81.3516Z" fill="#F480A1"/>
<path d="M92.963 83.7709C91.5936 85.4727 90.3113 87.0716 88.095 87.6574C87.0106 87.9423 86.1241 87.879 85.1425 87.8078C85.1425 87.8078 82.5225 87.6099 80.1242 86.383C78.8893 85.7497 76.3168 84.0479 73.0873 76.7261C71.7575 73.7025 70.1191 69.2936 69.0742 63.6578C71.0056 57.2859 76.6018 53.0115 82.57 53.0669C89.2823 53.1303 93.2638 58.6315 93.6754 59.2172C93.8812 60.4441 95.2189 68.4545 95.86 74.7315C95.955 75.6576 96.0975 77.2407 95.5672 79.1562C94.9735 81.2696 93.8495 82.6627 92.963 83.7709Z" fill="#F8ACC1"/>
<path d="M84.328 58.9242C79.1117 61.8292 74.5129 59.5495 72.162 62.5099C70.1673 65.027 71.7187 68.8818 71.1647 68.9689C70.5947 69.056 68.4655 65.1062 69.7478 61.7738C70.1752 60.6498 71.0222 59.5179 76.3493 56.787C82.5312 53.613 85.6182 52.0299 88.3886 52.6473C89.4255 52.8768 92.4176 53.7475 95.0851 57.8319C95.1801 58.8134 95.275 59.8028 95.37 60.7843C93.3279 58.5997 91.2778 56.415 89.2356 54.2304C88.3016 55.671 86.7501 57.5707 84.328 58.9242Z" fill="#F480A1"/>
<path d="M81.7633 68.8242C81.7554 71.0801 81.6921 72.8927 81.6288 74.1355C81.5496 75.774 81.4625 76.7555 82.1037 77.3175C82.8161 77.9349 84.0192 77.6737 84.6129 77.4995" stroke="#F480A1" stroke-miterlimit="10" stroke-linecap="round" stroke-linejoin="round"/>
<path d="M80.3633 69.4043C80.3633 69.4043 82.3896 68.0112 83.9173 68.5494" stroke="#03104F" stroke-miterlimit="10"/>
<path d="M76.524 75.2824C79.2038 75.2824 81.3762 73.1101 81.3762 70.4303C81.3762 67.7505 79.2038 65.5781 76.524 65.5781C73.8443 65.5781 71.6719 67.7505 71.6719 70.4303C71.6719 73.1101 73.8443 75.2824 76.524 75.2824Z" fill="#402048"/>
<path d="M71.1729 68.9821C71.8615 66.4017 74.5053 64.8582 77.0936 65.5468C78.0435 65.8001 78.8983 66.3384 79.5316 67.0824C79.777 67.3595 79.9828 67.6682 80.149 67.9927C81.4075 70.3515 80.5131 73.2802 78.1543 74.5388C77.062 75.1245 75.7797 75.2591 74.5844 74.9266C74.4736 74.895 74.3628 74.8633 74.252 74.8395C73.1676 74.4596 72.2494 73.7076 71.6716 72.7182C71.4974 72.4253 71.3549 72.1087 71.2441 71.7842C71.1254 71.4359 71.0462 71.0718 71.0146 70.6998C70.9671 70.122 71.0225 69.5362 71.1729 68.9821Z" fill="#03104F"/>
<path opacity="0.5" d="M71.6797 72.7092L80.5371 68.9414C80.7745 69.7804 80.7745 70.667 80.545 71.506C80.4737 71.7672 80.3787 72.0284 80.2679 72.2738L74.268 74.8147C73.1757 74.4426 72.2575 73.6986 71.6797 72.7092Z" fill="#9C7AE1"/>
<path opacity="0.5" d="M71.0215 70.6915L79.5306 67.082C79.7759 67.3591 79.9818 67.6678 80.148 67.9923L71.251 71.768C71.1323 71.4197 71.0531 71.0556 71.0215 70.6915Z" fill="#9C7AE1"/>
<path d="M94.1365 69.351C94.8901 66.5749 93.2506 63.7135 90.4745 62.9599C87.6984 62.2062 84.837 63.8458 84.0833 66.6219C83.3297 69.398 84.9692 72.2594 87.7453 73.013C90.5214 73.7667 93.3829 72.1271 94.1365 69.351Z" fill="#402048"/>
<path d="M83.3667 66.4265C84.1028 63.6561 86.9445 62.0097 89.7149 62.7458C90.7359 63.015 91.6462 63.5928 92.3349 64.3923C92.5961 64.693 92.8177 65.0176 92.9998 65.3738C94.3454 67.9067 93.3876 71.0491 90.8547 72.3947C89.6832 73.0201 88.3138 73.1705 87.0315 72.8143C86.9128 72.7826 86.7941 72.7509 86.6753 72.7193C85.5118 72.3156 84.5303 71.5082 83.9049 70.4476C83.715 70.1309 83.5646 69.7906 83.4458 69.4423C83.3192 69.0703 83.24 68.6745 83.2005 68.2787C83.1451 67.6534 83.2005 67.0281 83.3667 66.4265Z" fill="#03104F"/>
<path opacity="0.5" d="M83.9082 70.4275L93.4067 66.3906C93.66 67.293 93.66 68.2428 93.4146 69.1452C93.3355 69.4301 93.2405 69.6993 93.1138 69.9684L86.6786 72.6992C85.515 72.2876 84.5335 71.4882 83.9082 70.4275Z" fill="#9C7AE1"/>
<path opacity="0.5" d="M83.2109 68.2613L92.3295 64.3906C92.5907 64.6914 92.8124 65.0159 92.9944 65.3721L83.4484 69.4248C83.3218 69.0449 83.2426 68.657 83.2109 68.2613Z" fill="#9C7AE1"/>
<path d="M88.2785 54.3704C87.9302 55.5973 87.4236 56.3889 87.1149 56.8242C84.1545 60.8927 79.342 58.5973 71.2366 61.4389C70.5637 61.6764 69.3289 62.1355 68.1416 61.6131C66.5902 60.9323 65.6087 58.7714 65.862 57.0617C66.234 54.5842 69.1548 53.3414 73.8566 51.3388C78.8749 49.2096 82.8247 47.6027 86.355 49.4154C87.5028 50.0011 88.2943 50.7927 88.8088 51.4022C89.9724 50.856 90.7718 50.9193 91.2626 51.0539C94.4209 51.885 95.434 58.2886 96.1068 62.555C96.3364 64.0035 96.4551 65.2067 96.5184 65.9982C96.0514 66.4256 95.5844 66.8531 95.1174 67.2805C94.7137 65.4758 94.2546 64.0114 93.8905 62.9587C93.0119 60.402 92.3787 58.6369 90.9143 56.8321C89.9486 55.6448 88.9592 54.8533 88.2785 54.3704Z" fill="#03104F"/>
<path opacity="0.44" d="M90.5095 51.0709C93.9131 51.9733 95.0054 58.8676 95.7336 63.4665C95.9078 64.5905 96.0265 65.5799 96.0978 66.3635C96.2323 66.2369 96.3669 66.1102 96.5094 65.9915C96.446 65.2 96.3273 63.9968 96.0978 62.5483C95.4249 58.2819 94.4118 51.8862 91.2535 51.0472C90.9686 50.9759 90.5807 50.9205 90.082 50.9997C90.2483 51.0076 90.3907 51.0314 90.5095 51.0709Z" fill="url(#paint12_linear_6982_112406)"/>
<path opacity="0.44" d="M87.3062 54.6562C86.9342 55.9781 86.388 56.833 86.0476 57.3C85.5331 58.0045 84.9632 58.519 84.3379 58.9227C85.4144 58.5269 86.3326 57.9016 87.1241 56.8172C87.3616 56.4926 87.7099 55.9544 88.0106 55.1866C87.7494 54.9808 87.512 54.7987 87.3062 54.6562Z" fill="url(#paint13_linear_6982_112406)"/>
<path opacity="0.44" d="M85.2224 49.3056C86.4572 49.9389 87.3121 50.7858 87.8661 51.4428C88.1273 51.3161 88.3727 51.2291 88.6023 51.1578C88.0957 50.5879 87.3675 49.9151 86.3543 49.4006C85.3728 48.894 84.3517 48.6645 83.291 48.6328C83.948 48.7674 84.5971 48.9811 85.2224 49.3056Z" fill="url(#paint14_linear_6982_112406)"/>
<path d="M71.9966 60.1562C71.8066 60.3304 71.5137 60.6391 71.3 61.0903C70.8093 62.1034 71.0467 63.1404 71.1259 63.5441C71.4188 65.0005 71.6721 67.7155 71.9412 71.602C71.3396 71.4278 70.738 71.2537 70.1285 71.0795C69.7407 70.0584 69.1945 68.5783 68.5534 66.7577C67.8647 64.8105 67.5323 63.8053 67.7381 62.4992C67.8568 61.7393 68.118 61.1457 68.3238 60.7499C69.5428 60.5441 70.7697 60.3462 71.9966 60.1562Z" fill="#03104F"/>
<path d="M88.832 51.328C88.4363 51.2885 87.9139 49.4521 88.6262 48.0115C89.1407 46.9508 90.336 46.0564 90.9059 46.3492C91.3729 46.5946 91.4679 47.6632 91.1671 48.4231C90.8505 49.2384 90.2727 49.2463 89.402 50.5523C89.0378 51.0985 88.9824 51.3439 88.832 51.328Z" fill="#03104F"/>
<path d="M86.68 51.1093C87.9307 51.5684 88.4768 51.9879 88.6193 51.8296C88.738 51.7029 88.5401 51.2438 88.1681 50.7214C87.7011 50.2702 87.1074 49.7953 86.3555 49.4154C82.8173 47.6027 78.8754 49.2096 73.8649 51.3388C73.0576 51.6792 72.3056 52.0037 71.6011 52.3124C71.6724 52.3283 71.7436 52.352 71.8148 52.3757C72.9784 52.9694 69.0524 54.4021 69.3769 55.2965C69.6698 56.096 72.0998 55.0987 72.456 55.6607C72.5272 55.7715 72.4956 55.8902 72.4877 55.9377C72.3768 56.563 71.1104 56.6184 69.9468 57.0933C68.2292 57.7978 66.9943 59.3334 67.2001 59.6975C67.3347 59.935 68.0708 59.745 68.4587 59.65C71.609 58.8743 74.8465 58.4865 78.0047 57.7424C81.725 56.8559 84.1154 56.5709 84.0917 56.2543C84.06 55.8902 80.8305 55.9535 80.8068 55.5498C80.8068 55.4707 80.9176 55.3915 81.1788 55.2886C82.8648 54.6712 85.9914 55.1145 85.7539 54.1567C85.5164 53.199 81.0047 52.0354 83.1972 52.0116C84.9386 51.9879 86.9016 53.6343 87.2737 53.3019C87.4399 53.1515 87.2499 52.6924 87.2024 52.5816C86.5454 50.9985 84.0679 50.7135 84.1075 50.5552C84.1312 50.484 85.2236 50.5789 86.68 51.1093Z" fill="url(#paint15_linear_6982_112406)"/>
<defs>
<linearGradient id="paint0_linear_6982_112406" x1="123.201" y1="101.791" x2="128.404" y2="113.368" gradientUnits="userSpaceOnUse">
<stop offset="0.2184" stop-color="#812CBE"/>
<stop offset="1" stop-color="#210C70"/>
</linearGradient>
<linearGradient id="paint1_linear_6982_112406" x1="36.4548" y1="104.286" x2="40.8691" y2="114.109" gradientUnits="userSpaceOnUse">
<stop offset="0.2184" stop-color="#812CBE"/>
<stop offset="1" stop-color="#210C70"/>
</linearGradient>
<linearGradient id="paint2_linear_6982_112406" x1="33.8462" y1="118.693" x2="132.181" y2="118.693" gradientUnits="userSpaceOnUse">
<stop offset="0.1458" stop-color="#6741C4"/>
<stop offset="0.4416" stop-color="#975BDD"/>
<stop offset="0.5368" stop-color="#A35BD8"/>
<stop offset="0.7066" stop-color="#C15ACA"/>
<stop offset="0.8263" stop-color="#DB59BE"/>
</linearGradient>
<linearGradient id="paint3_linear_6982_112406" x1="103.605" y1="97.4792" x2="123.959" y2="159.072" gradientUnits="userSpaceOnUse">
<stop offset="0.2184" stop-color="#812CBE" stop-opacity="0.5"/>
<stop offset="1" stop-color="#210C70"/>
</linearGradient>
<linearGradient id="paint4_linear_6982_112406" x1="113.509" y1="94.2019" x2="133.863" y2="155.795" gradientUnits="userSpaceOnUse">
<stop offset="0.2184" stop-color="#812CBE" stop-opacity="0.5"/>
<stop offset="1" stop-color="#210C70"/>
</linearGradient>
<linearGradient id="paint5_linear_6982_112406" x1="47.3744" y1="83.6276" x2="57.7637" y2="158.26" gradientUnits="userSpaceOnUse">
<stop offset="0.2184" stop-color="#812CBE" stop-opacity="0.5"/>
<stop offset="1" stop-color="#210C70"/>
</linearGradient>
<linearGradient id="paint6_linear_6982_112406" x1="46.853" y1="99.463" x2="60.7233" y2="162.235" gradientUnits="userSpaceOnUse">
<stop offset="0.2184" stop-color="#812CBE" stop-opacity="0.5"/>
<stop offset="1" stop-color="#210C70"/>
</linearGradient>
<linearGradient id="paint7_linear_6982_112406" x1="74.4935" y1="95.3209" x2="100.236" y2="95.3209" gradientUnits="userSpaceOnUse">
<stop offset="0.2184" stop-color="#812CBE" stop-opacity="0.5"/>
<stop offset="1" stop-color="#210C70"/>
</linearGradient>
<linearGradient id="paint8_linear_6982_112406" x1="116.732" y1="73.5581" x2="125.454" y2="78.9154" gradientUnits="userSpaceOnUse">
<stop offset="0.1458" stop-color="#6741C4"/>
<stop offset="0.4416" stop-color="#975BDD"/>
<stop offset="0.5368" stop-color="#A35BD8"/>
<stop offset="0.7066" stop-color="#C15ACA"/>
<stop offset="0.8263" stop-color="#DB59BE"/>
</linearGradient>
<linearGradient id="paint9_linear_6982_112406" x1="42.5757" y1="70.1733" x2="50.8339" y2="64.1249" gradientUnits="userSpaceOnUse">
<stop offset="0.1458" stop-color="#6741C4"/>
<stop offset="0.4416" stop-color="#975BDD"/>
<stop offset="0.5368" stop-color="#A35BD8"/>
<stop offset="0.7066" stop-color="#C15ACA"/>
<stop offset="0.8263" stop-color="#DB59BE"/>
</linearGradient>
<linearGradient id="paint10_linear_6982_112406" x1="103.725" y1="47.5416" x2="113.171" y2="49.11" gradientUnits="userSpaceOnUse">
<stop offset="0.1458" stop-color="#6741C4"/>
<stop offset="0.4416" stop-color="#975BDD"/>
<stop offset="0.5368" stop-color="#A35BD8"/>
<stop offset="0.7066" stop-color="#C15ACA"/>
<stop offset="0.8263" stop-color="#DB59BE"/>
</linearGradient>
<linearGradient id="paint11_linear_6982_112406" x1="65.818" y1="39.8144" x2="75.2054" y2="38.5528" gradientUnits="userSpaceOnUse">
<stop offset="0.1458" stop-color="#6741C4"/>
<stop offset="0.4416" stop-color="#975BDD"/>
<stop offset="0.5368" stop-color="#A35BD8"/>
<stop offset="0.7066" stop-color="#C15ACA"/>
<stop offset="0.8263" stop-color="#DB59BE"/>
</linearGradient>
<linearGradient id="paint12_linear_6982_112406" x1="90.0849" y1="58.6562" x2="96.511" y2="58.6562" gradientUnits="userSpaceOnUse">
<stop stop-color="#8134BC"/>
<stop offset="1" stop-color="#21136E"/>
</linearGradient>
<linearGradient id="paint13_linear_6982_112406" x1="84.3331" y1="56.7876" x2="88.005" y2="56.7876" gradientUnits="userSpaceOnUse">
<stop stop-color="#8134BC"/>
<stop offset="1" stop-color="#21136E"/>
</linearGradient>
<linearGradient id="paint14_linear_6982_112406" x1="83.2934" y1="50.0395" x2="88.6012" y2="50.0395" gradientUnits="userSpaceOnUse">
<stop stop-color="#8134BC"/>
<stop offset="1" stop-color="#21136E"/>
</linearGradient>
<linearGradient id="paint15_linear_6982_112406" x1="80.1329" y1="58.4578" x2="72.8511" y2="48.8135" gradientUnits="userSpaceOnUse">
<stop stop-color="#8134BC"/>
<stop offset="1" stop-color="#21136E"/>
</linearGradient>
</defs>
</svg>
