<svg width="192" height="160" viewBox="0 0 192 160" fill="none" xmlns="http://www.w3.org/2000/svg">
<g clip-path="url(#clip0_6956_112858)">
<path d="M129.747 81.8637L30.0223 110.818C25.6736 112.084 21.0865 109.552 19.8204 105.203L0.728688 39.4876C-0.537367 35.139 1.99474 30.5518 6.34337 29.2857L106.077 0.322438C110.426 -0.943617 115.013 1.58849 116.279 5.93712L135.362 71.6619C136.628 76.0105 134.096 80.5977 129.747 81.8637Z" fill="#E6EDF4"/>
<path d="M106.078 0.319167L6.344 29.2825C1.99538 30.5485 -0.527558 35.1357 0.729323 39.4843L8.47244 66.1449L124.023 32.5944L116.28 5.93385C115.014 1.58522 110.427 -0.937714 106.078 0.319167Z" fill="url(#paint0_linear_6956_112858)"/>
<path d="M116.39 50.44L24.0136 77.2565C22.2429 77.7702 20.3805 76.7427 19.8668 74.9721C19.353 73.2014 20.3805 71.339 22.1512 70.8253L114.527 43.9996C116.298 43.4858 118.16 44.5133 118.674 46.284C119.188 48.0546 118.16 49.9262 116.39 50.44Z" fill="url(#paint1_linear_6956_112858)"/>
<path d="M103.031 68.5402L27.8202 90.375C26.0496 90.8888 24.1872 89.8613 23.6734 88.0906C23.1597 86.32 24.1872 84.4576 25.9578 83.9438L101.169 62.109C102.939 61.5952 104.802 62.6227 105.316 64.3934C105.829 66.164 104.802 68.0264 103.031 68.5402Z" fill="url(#paint2_linear_6956_112858)"/>
<path opacity="0.15" d="M62.1413 13.0844L57.967 14.2954C55.8294 15.5982 54.2973 17.8551 54.0404 20.5248L47.5083 88.6532C47.0771 93.1578 50.4074 97.2037 54.9211 97.6349L70.3431 99.1119L129.747 81.8642C134.095 80.5982 136.618 76.011 135.361 71.6624L119.949 18.5707L63.022 13.1211C62.7285 13.0936 62.4349 13.0752 62.1413 13.0844Z" fill="url(#paint3_linear_6956_112858)"/>
<path d="M162.895 103.871L59.5187 93.9628C55.0141 93.5316 51.6747 89.4857 52.1058 84.9811L58.638 16.8527C59.0691 12.3481 63.115 9.00863 67.6196 9.43983L170.996 19.3481C175.5 19.7793 178.84 23.8252 178.409 28.3297L171.876 96.4582C171.445 100.963 167.399 104.302 162.895 103.871Z" fill="url(#paint4_linear_6956_112858)"/>
<path d="M170.986 19.3468L67.6102 9.44773C63.1056 9.01654 59.0597 12.3468 58.6285 16.8606L55.9863 44.4936L175.757 55.9707L178.408 28.3376C178.83 23.8239 175.5 19.778 170.986 19.3468Z" fill="#F2F7FC"/>
<path opacity="0.6" d="M162.079 69.7341L66.3264 60.5598C64.4915 60.3855 63.1337 58.7433 63.308 56.9084C63.4824 55.0736 65.1246 53.7158 66.9594 53.8901L162.712 63.0644C164.547 63.2387 165.904 64.8809 165.73 66.7158C165.556 68.5506 163.914 69.9084 162.079 69.7341Z" fill="#F2F7FC"/>
<path opacity="0.6" d="M142.977 81.6332L65.0139 74.1653C63.179 73.991 61.8212 72.3488 61.9955 70.5139C62.1699 68.679 63.8121 67.3212 65.6469 67.4955L143.61 74.9634C145.445 75.1377 146.803 76.7799 146.629 78.6148C146.454 80.4497 144.812 81.8075 142.977 81.6332Z" fill="#F2F7FC"/>
<path opacity="0.15" d="M139.822 56.2093C98.2344 82.3836 74.8491 67.6588 53.4821 70.6037L52.1059 84.9799C51.6747 89.4845 55.005 93.5303 59.5188 93.9615L162.895 103.87C167.4 104.301 171.445 100.971 171.877 96.457L178.088 31.668C168.959 37.5212 157.005 45.4019 139.822 56.2093Z" fill="url(#paint5_linear_6956_112858)"/>
<path d="M73.5644 39.7894C73.0873 37.5326 73.3258 35.0922 74.2891 32.4683C75.2433 29.8445 76.9589 27.4775 79.4176 25.3674C81.8763 23.2573 84.9589 21.8078 88.6653 21.0188C92.1148 20.2848 95.2891 20.2848 98.1974 20.9913C101.106 21.7069 103.509 23.0004 105.408 24.8812C107.307 26.7619 108.537 28.9913 109.078 31.5509C109.509 33.5693 109.473 35.4316 108.977 37.1197C108.482 38.817 107.785 40.3307 106.885 41.6793C105.986 43.028 104.353 45.3124 101.986 48.5509C101.335 49.4592 100.821 50.2482 100.454 50.9087C100.087 51.5693 99.8304 52.1564 99.6928 52.6702C99.5552 53.1839 99.4726 53.6885 99.4359 54.1748C99.4084 54.6702 99.3809 55.5234 99.3625 56.7436C99.4359 59.3124 98.28 60.8445 95.9038 61.3491C94.6653 61.6151 93.546 61.4316 92.5277 60.7986C91.5093 60.1748 90.8396 59.0555 90.5001 57.4683C90.0781 55.4683 90.0139 53.6793 90.3258 52.083C90.6378 50.4867 91.179 49.0371 91.968 47.7069C92.757 46.3858 93.8579 44.7803 95.2708 42.8904C96.5093 41.239 97.3992 40.0004 97.9313 39.1748C98.4635 38.3582 98.8763 37.4775 99.1607 36.5509C99.4451 35.6243 99.491 34.6702 99.28 33.6977C98.8763 31.7986 97.8304 30.3399 96.1423 29.3307C94.4543 28.3215 92.4818 28.0555 90.2524 28.5326C87.6378 29.083 85.8488 30.1564 84.8946 31.7344C83.9405 33.3124 83.3075 35.4775 82.9956 38.2298C82.757 41.0922 81.5093 42.7527 79.2524 43.239C77.9222 43.5234 76.702 43.2848 75.5827 42.5417C74.4635 41.8078 73.7937 40.8904 73.5644 39.7894ZM99.2433 75.1839C97.7937 75.4959 96.4268 75.294 95.1424 74.5784C93.8671 73.8628 93.0414 72.6702 92.6836 70.9821C92.3625 69.4867 92.6194 68.1105 93.4543 66.872C94.28 65.6243 95.4543 64.8445 96.9772 64.5234C98.4726 64.2023 99.8396 64.45 101.078 65.2573C102.317 66.0647 103.096 67.2115 103.408 68.716C103.757 70.3766 103.5 71.7986 102.638 72.9821C101.775 74.1472 100.647 74.8904 99.2433 75.1839Z" fill="url(#paint6_linear_6956_112858)"/>
<path d="M166.758 111.312C171.327 121.863 175.905 132.413 180.473 142.964" stroke="url(#paint7_linear_6956_112858)" stroke-width="8" stroke-miterlimit="10" stroke-linecap="round" stroke-linejoin="round"/>
<path d="M153.803 56.734C168.446 56.734 180.363 68.6514 180.363 83.2936C180.363 97.9358 168.446 109.853 153.803 109.853C139.161 109.853 127.244 97.9358 127.244 83.2936C127.244 68.6514 139.161 56.734 153.803 56.734ZM153.803 49.3945C135.088 49.3945 119.904 64.5688 119.904 83.2936C119.904 102.009 135.079 117.193 153.803 117.193C172.528 117.193 187.702 102.018 187.702 83.2936C187.693 64.5688 172.519 49.3945 153.803 49.3945Z" fill="url(#paint8_linear_6956_112858)"/>
<path d="M172.371 123.625C176.94 133.919 181.518 144.203 186.087 154.497" stroke="url(#paint9_linear_6956_112858)" stroke-width="12" stroke-miterlimit="10" stroke-linecap="round" stroke-linejoin="round"/>
</g>
<defs>
<linearGradient id="paint0_linear_6956_112858" x1="49.1525" y1="-3.70891" x2="85.8776" y2="106.645" gradientUnits="userSpaceOnUse">
<stop stop-color="#D8D9FE"/>
<stop offset="0.9695" stop-color="#6669FB"/>
</linearGradient>
<linearGradient id="paint1_linear_6956_112858" x1="47.989" y1="-3.32023" x2="84.714" y2="107.034" gradientUnits="userSpaceOnUse">
<stop stop-color="#D8D9FE"/>
<stop offset="0.9695" stop-color="#6669FB"/>
</linearGradient>
<linearGradient id="paint2_linear_6956_112858" x1="39.0119" y1="-0.333732" x2="75.737" y2="110.021" gradientUnits="userSpaceOnUse">
<stop stop-color="#D8D9FE"/>
<stop offset="0.9695" stop-color="#6669FB"/>
</linearGradient>
<linearGradient id="paint3_linear_6956_112858" x1="84.5348" y1="27.3972" x2="96.3233" y2="118.212" gradientUnits="userSpaceOnUse">
<stop stop-color="#812CBE" stop-opacity="0.5"/>
<stop offset="0.1722" stop-color="#7929B7" stop-opacity="0.5861"/>
<stop offset="0.4451" stop-color="#6222A5" stop-opacity="0.7225"/>
<stop offset="0.7827" stop-color="#3D1586" stop-opacity="0.8913"/>
<stop offset="1" stop-color="#210C70"/>
</linearGradient>
<linearGradient id="paint4_linear_6956_112858" x1="111.116" y1="24.7882" x2="125.627" y2="136.576" gradientUnits="userSpaceOnUse">
<stop stop-color="#D8D9FE"/>
<stop offset="0.9695" stop-color="#6669FB"/>
</linearGradient>
<linearGradient id="paint5_linear_6956_112858" x1="110.826" y1="40.3115" x2="127.11" y2="112.604" gradientUnits="userSpaceOnUse">
<stop stop-color="#812CBE" stop-opacity="0.5"/>
<stop offset="0.1722" stop-color="#7929B7" stop-opacity="0.5861"/>
<stop offset="0.4451" stop-color="#6222A5" stop-opacity="0.7225"/>
<stop offset="0.7827" stop-color="#3D1586" stop-opacity="0.8913"/>
<stop offset="1" stop-color="#210C70"/>
</linearGradient>
<linearGradient id="paint6_linear_6956_112858" x1="76.1233" y1="51.8809" x2="111.78" y2="44.3254" gradientUnits="userSpaceOnUse">
<stop offset="0.1458" stop-color="#6741C4"/>
<stop offset="0.4416" stop-color="#975BDD"/>
<stop offset="0.5368" stop-color="#A35BD8"/>
<stop offset="0.7066" stop-color="#C15ACA"/>
<stop offset="0.8263" stop-color="#DB59BE"/>
</linearGradient>
<linearGradient id="paint7_linear_6956_112858" x1="166.67" y1="128.608" x2="180.562" y2="125.664" gradientUnits="userSpaceOnUse">
<stop offset="0.1458" stop-color="#6741C4"/>
<stop offset="0.4416" stop-color="#975BDD"/>
<stop offset="0.5368" stop-color="#A35BD8"/>
<stop offset="0.7066" stop-color="#C15ACA"/>
<stop offset="0.8263" stop-color="#DB59BE"/>
</linearGradient>
<linearGradient id="paint8_linear_6956_112858" x1="120.634" y1="90.32" x2="186.966" y2="76.2641" gradientUnits="userSpaceOnUse">
<stop offset="0.1458" stop-color="#6741C4"/>
<stop offset="0.4416" stop-color="#975BDD"/>
<stop offset="0.5368" stop-color="#A35BD8"/>
<stop offset="0.7066" stop-color="#C15ACA"/>
<stop offset="0.8263" stop-color="#DB59BE"/>
</linearGradient>
<linearGradient id="paint9_linear_6956_112858" x1="170.407" y1="140.933" x2="188.047" y2="137.195" gradientUnits="userSpaceOnUse">
<stop offset="0.1458" stop-color="#6741C4"/>
<stop offset="0.4416" stop-color="#975BDD"/>
<stop offset="0.5368" stop-color="#A35BD8"/>
<stop offset="0.7066" stop-color="#C15ACA"/>
<stop offset="0.8263" stop-color="#DB59BE"/>
</linearGradient>
<clipPath id="clip0_6956_112858">
<rect width="191.183" height="160" fill="white" transform="translate(0.408203)"/>
</clipPath>
</defs>
</svg>
