<svg width="70" height="69" viewBox="0 0 70 69" fill="none" xmlns="http://www.w3.org/2000/svg">
<path d="M64.3068 49.6111C56.1679 42.7384 45.8388 39.0039 35.1865 39.0828C24.436 39.002 14.0182 42.8079 5.85156 49.7997C10.9369 59.7883 22.109 66.7075 35.0304 66.7075C47.9518 66.7075 59.267 59.6972 64.3068 49.6111Z" fill="url(#paint0_linear_574_26538)"/>
<path d="M35.0782 68.7427C28.3258 68.7427 21.725 66.7404 16.1106 62.989C10.4962 59.2376 6.12034 53.9055 3.53632 47.6671C0.952292 41.4288 0.276194 34.5642 1.59352 27.9416C2.91084 21.3189 6.16242 15.2357 10.9371 10.461C15.7117 5.68635 21.795 2.43477 28.4176 1.11744C35.0403 -0.19988 41.9048 0.476219 48.1432 3.06024C54.3816 5.64427 59.7136 10.0202 63.4651 15.6346C67.2165 21.249 69.2188 27.8497 69.2188 34.6021C69.2085 43.6536 65.6082 52.3314 59.2078 58.7318C52.8075 65.1321 44.1296 68.7324 35.0782 68.7427ZM35.0782 3.06263C28.8335 3.06263 22.7292 4.91446 17.537 8.38392C12.3449 11.8534 8.29826 16.7846 5.90884 22.554C3.51943 28.3234 2.89458 34.6718 4.11332 40.7964C5.33205 46.9209 8.33964 52.5465 12.7557 56.9616C17.1718 61.3768 22.798 64.3832 28.9228 65.6007C35.0476 66.8182 41.3958 66.192 47.1647 63.8014C52.9336 61.4108 57.8641 57.3631 61.3324 52.1703C64.8008 46.9775 66.6514 40.8727 66.6501 34.6281C66.6467 26.254 63.3199 18.2235 57.4003 12.3002C51.4807 6.377 43.4523 3.04524 35.0782 3.03662V3.06263Z" fill="url(#paint1_linear_574_26538)"/>
<path d="M35.0796 36.1695C42.848 36.1695 49.1456 29.8719 49.1456 22.1035C49.1456 14.3351 42.848 8.0376 35.0796 8.0376C27.3112 8.0376 21.0137 14.3351 21.0137 22.1035C21.0137 29.8719 27.3112 36.1695 35.0796 36.1695Z" fill="url(#paint2_linear_574_26538)"/>
<defs>
<linearGradient id="paint0_linear_574_26538" x1="-1.19116" y1="91.809" x2="61.2374" y2="20.5428" gradientUnits="userSpaceOnUse">
<stop offset="0.15" stop-color="#6741C4"/>
<stop offset="0.44" stop-color="#975BDD"/>
<stop offset="0.54" stop-color="#A35BD8"/>
<stop offset="0.71" stop-color="#C15ACA"/>
<stop offset="0.83" stop-color="#DB59BE"/>
</linearGradient>
<linearGradient id="paint1_linear_574_26538" x1="-31.7074" y1="103.943" x2="61.7534" y2="6.91239" gradientUnits="userSpaceOnUse">
<stop offset="0.18" stop-color="#6669FB"/>
<stop offset="0.78" stop-color="#D8D9FE"/>
</linearGradient>
<linearGradient id="paint2_linear_574_26538" x1="842.746" y1="2597.86" x2="2708.17" y2="467.994" gradientUnits="userSpaceOnUse">
<stop offset="0.15" stop-color="#6741C4"/>
<stop offset="0.44" stop-color="#975BDD"/>
<stop offset="0.54" stop-color="#A35BD8"/>
<stop offset="0.71" stop-color="#C15ACA"/>
<stop offset="0.83" stop-color="#DB59BE"/>
</linearGradient>
</defs>
</svg>
