<svg width="69" height="69" viewBox="0 0 69 69" fill="none" xmlns="http://www.w3.org/2000/svg">
<path d="M19.462 23.6183H12.3932C9.97866 23.6183 7.66298 22.6591 5.95561 20.9517C4.24825 19.2444 3.28906 16.9287 3.28906 14.5141V9.77995C3.28906 7.36538 4.24825 5.04969 5.95561 3.34233C7.66298 1.63497 9.97866 0.675781 12.3932 0.675781H19.462C21.8765 0.675781 24.1922 1.63497 25.8996 3.34233C27.607 5.04969 28.5661 7.36538 28.5661 9.77995V14.5206C28.5644 16.9341 27.6045 19.2481 25.8973 20.954C24.1901 22.66 21.8754 23.6183 19.462 23.6183ZM12.3932 3.28348C10.6685 3.28348 9.01448 3.96861 7.79493 5.18815C6.57539 6.4077 5.89025 8.06176 5.89025 9.78646V14.5271C5.89025 16.2518 6.57539 17.9059 7.79493 19.1254C9.01448 20.345 10.6685 21.0301 12.3932 21.0301H19.462C21.1867 21.0301 22.8407 20.345 24.0603 19.1254C25.2798 17.9059 25.9649 16.2518 25.9649 14.5271V9.77995C25.9649 8.05525 25.2798 6.4012 24.0603 5.18165C22.8407 3.96211 21.1867 3.27697 19.462 3.27697L12.3932 3.28348Z" fill="url(#paint0_linear_574_26539)"/>
<path d="M28.3921 12.3096H3.46622C1.6166 12.3096 0.117188 13.809 0.117188 15.6586V40.5845C0.117188 42.4341 1.6166 43.9336 3.46622 43.9336H28.3921C30.2418 43.9336 31.7412 42.4341 31.7412 40.5845V15.6586C31.7412 13.809 30.2418 12.3096 28.3921 12.3096Z" fill="url(#paint1_linear_574_26539)"/>
<path opacity="0.4" d="M16.4132 21.6797H15.4507C14.8924 21.6814 14.3575 21.9039 13.9628 22.2987C13.568 22.6935 13.3455 23.2284 13.3438 23.7867V26.7585C13.3462 27.2075 13.492 27.6439 13.7599 28.0042C14.0277 28.3645 14.4037 28.6298 14.8329 28.7614V33.4631C14.8213 33.6141 14.841 33.7658 14.8908 33.9089C14.9406 34.0519 15.0194 34.1831 15.1223 34.2942C15.2251 34.4053 15.3499 34.494 15.4887 34.5546C15.6274 34.6153 15.7772 34.6466 15.9287 34.6466C16.0801 34.6466 16.2299 34.6153 16.3687 34.5546C16.5075 34.494 16.6322 34.4053 16.7351 34.2942C16.838 34.1831 16.9168 34.0519 16.9666 33.9089C17.0164 33.7658 17.0361 33.6141 17.0244 33.4631V28.7614C17.4537 28.6298 17.8296 28.3645 18.0975 28.0042C18.3654 27.6439 18.5112 27.2075 18.5136 26.7585V23.7867C18.5119 23.2295 18.2903 22.6956 17.8969 22.301C17.5036 21.9064 16.9703 21.6831 16.4132 21.6797Z" fill="url(#paint2_linear_574_26539)"/>
<path opacity="0.15" d="M31.7414 40.5842V15.6583C31.741 15.148 31.6235 14.6447 31.398 14.187C31.1725 13.7293 30.8451 13.3294 30.4408 13.0181C29.3093 16.2175 27.612 19.417 24.0809 21.0818C15.4059 25.1916 14.7881 24.8535 9.9109 33.0537C7.68727 36.9064 4.82915 40.3559 1.45703 43.2569C2.0383 43.6864 2.74375 43.9147 3.46645 43.9072H28.3924C29.2766 43.909 30.1255 43.5602 30.7532 42.9374C31.3809 42.3146 31.7362 41.4684 31.7414 40.5842Z" fill="url(#paint3_linear_574_26539)"/>
<path d="M56.1221 23.6183H49.0534C46.6388 23.6183 44.3231 22.6591 42.6158 20.9517C40.9084 19.2444 39.9492 16.9287 39.9492 14.5141V9.77995C39.9492 7.36538 40.9084 5.04969 42.6158 3.34233C44.3231 1.63497 46.6388 0.675781 49.0534 0.675781H56.1221C58.5367 0.675781 60.8524 1.63497 62.5597 3.34233C64.2671 5.04969 65.2263 7.36538 65.2263 9.77995V14.5206C65.2246 16.9341 64.2646 19.2481 62.5575 20.954C60.8503 22.66 58.5356 23.6183 56.1221 23.6183ZM49.0534 3.28348C47.3287 3.28348 45.6746 3.96861 44.4551 5.18815C43.2355 6.4077 42.5504 8.06176 42.5504 9.78646V14.5271C42.5504 16.2518 43.2355 17.9059 44.4551 19.1254C45.6746 20.345 47.3287 21.0301 49.0534 21.0301H56.1221C57.8468 21.0301 59.5009 20.345 60.7204 19.1254C61.94 17.9059 62.6251 16.2518 62.6251 14.5271V9.77995C62.6251 8.05525 61.94 6.4012 60.7204 5.18165C59.5009 3.96211 57.8468 3.27697 56.1221 3.27697L49.0534 3.28348Z" fill="url(#paint4_linear_574_26539)"/>
<path d="M65.0484 12.3096H40.1225C38.2729 12.3096 36.7734 13.809 36.7734 15.6586V40.5845C36.7734 42.4341 38.2729 43.9336 40.1225 43.9336H65.0484C66.898 43.9336 68.3974 42.4341 68.3974 40.5845V15.6586C68.3974 13.809 66.898 12.3096 65.0484 12.3096Z" fill="url(#paint5_linear_574_26539)"/>
<path opacity="0.4" d="M53.0668 21.6797H52.1044C51.5467 21.6814 51.0124 21.9042 50.6187 22.2991C50.225 22.694 50.0039 23.229 50.0039 23.7867V26.7585C50.0059 27.2067 50.1508 27.6425 50.4174 28.0027C50.684 28.3629 51.0586 28.6287 51.4866 28.7614V33.4631C51.4866 33.7546 51.6024 34.0341 51.8085 34.2402C52.0146 34.4463 52.2941 34.5621 52.5856 34.5621C52.8771 34.5621 53.1566 34.4463 53.3627 34.2402C53.5688 34.0341 53.6846 33.7546 53.6846 33.4631V28.7614C54.1138 28.6298 54.4898 28.3645 54.7577 28.0042C55.0255 27.6439 55.1713 27.2075 55.1738 26.7585V23.7867C55.1721 23.2284 54.9495 22.6935 54.5548 22.2987C54.16 21.9039 53.6251 21.6814 53.0668 21.6797Z" fill="url(#paint6_linear_574_26539)"/>
<path opacity="0.15" d="M68.4015 40.5842V15.6583C68.4011 15.148 68.2836 14.6447 68.0581 14.187C67.8326 13.7293 67.5052 13.3294 67.1009 13.0181C65.9694 16.2175 64.2656 19.417 60.741 21.0818C52.0595 25.1916 51.4417 24.8535 46.5645 33.0537C44.3329 36.9101 41.4634 40.3601 38.0781 43.2569C38.6707 43.6933 39.3908 43.9219 40.1266 43.9072H65.0525C65.9362 43.9072 66.7841 43.558 67.4115 42.9355C68.0388 42.3131 68.3947 41.4679 68.4015 40.5842Z" fill="url(#paint7_linear_574_26539)"/>
<path d="M40.1507 42.4506H28.4454C25.7341 42.442 23.137 41.358 21.2241 39.4366C19.3111 37.5151 18.2387 34.9132 18.2422 32.2019V23.5529C18.2508 20.8444 19.3319 18.2496 21.2489 16.3362C23.166 14.4228 25.7629 13.3467 28.4714 13.3433H40.1767C42.8802 13.3536 45.4697 14.4329 47.3801 16.3458C49.2905 18.2586 50.3666 20.8495 50.3734 23.5529V32.2019C50.3751 33.5461 50.1121 34.8774 49.5992 36.1199C49.0864 37.3624 48.3339 38.4918 47.3847 39.4434C46.4354 40.3951 45.308 41.1505 44.0668 41.6665C42.8256 42.1824 41.4949 42.4489 40.1507 42.4506ZM28.4454 16.2436C26.5119 16.2522 24.6604 17.0259 23.2956 18.3955C21.9308 19.7652 21.1637 21.6194 21.162 23.5529V32.2019C21.1603 33.1632 21.3481 34.1154 21.7146 35.004C22.081 35.8927 22.6191 36.7005 23.2979 37.3811C23.9767 38.0617 24.783 38.6019 25.6707 38.9708C26.5584 39.3396 27.5101 39.5299 28.4714 39.5308H40.1767C42.1125 39.5204 43.9653 38.7433 45.3292 37.3696C46.6932 35.996 47.457 34.1377 47.4536 32.2019V23.5529C47.4519 21.616 46.6821 19.7589 45.3131 18.3886C43.9441 17.0184 42.0876 16.247 40.1507 16.2436H28.4454Z" fill="url(#paint8_linear_574_26539)"/>
<path d="M50.375 28.0918H18.2438C15.859 28.0918 13.9258 30.025 13.9258 32.4098V64.541C13.9258 66.9258 15.859 68.859 18.2438 68.859H50.375C52.7597 68.859 54.693 66.9258 54.693 64.541V32.4098C54.693 30.025 52.7597 28.0918 50.375 28.0918Z" fill="url(#paint9_linear_574_26539)"/>
<path opacity="0.8" d="M34.9265 40.1749H33.6909C32.9716 40.1767 32.2822 40.4627 31.773 40.9707C31.2638 41.4787 30.9761 42.1674 30.9727 42.8867V46.7169C30.973 47.3031 31.1633 47.8734 31.515 48.3424C31.8667 48.8113 32.3609 49.1537 32.9235 49.3181V55.3789C32.9104 55.5727 32.9372 55.7672 33.0024 55.9502C33.0675 56.1332 33.1695 56.3008 33.3021 56.4428C33.4348 56.5847 33.5952 56.6979 33.7733 56.7752C33.9515 56.8526 34.1437 56.8925 34.3379 56.8925C34.5322 56.8925 34.7244 56.8526 34.9026 56.7752C35.0807 56.6979 35.2411 56.5847 35.3737 56.4428C35.5064 56.3008 35.6084 56.1332 35.6735 55.9502C35.7387 55.7672 35.7655 55.5727 35.7523 55.3789V49.2986C36.315 49.1342 36.8092 48.7918 37.1609 48.3229C37.5126 47.8539 37.7029 47.2836 37.7032 46.6974V42.8867C37.7025 42.5253 37.6296 42.1677 37.489 41.8348C37.3484 41.5019 37.1427 41.2003 36.8842 40.9478C36.6256 40.6953 36.3193 40.4969 35.9832 40.3642C35.647 40.2315 35.2878 40.1672 34.9265 40.1749Z" fill="url(#paint10_linear_574_26539)"/>
<path opacity="0.15" d="M54.6884 64.5412V32.41C54.6877 31.7522 54.5368 31.1033 54.2472 30.5128C53.9576 29.9222 53.5368 29.4056 53.0171 29.0024C51.5604 33.1318 49.3689 37.2482 44.8234 39.4072C33.6382 44.7006 32.8384 44.2649 26.55 54.8323C23.6683 59.7965 19.968 64.2378 15.6055 67.9683C16.3578 68.5552 17.285 68.8735 18.2392 68.8722H50.3704C50.9385 68.8722 51.5011 68.7601 52.0258 68.5423C52.5506 68.3245 53.0271 68.0052 53.4283 67.6029C53.8294 67.2006 54.1472 66.723 54.3634 66.1976C54.5797 65.6723 54.6901 65.1094 54.6884 64.5412Z" fill="url(#paint11_linear_574_26539)"/>
<defs>
<linearGradient id="paint0_linear_574_26539" x1="35.3032" y1="53.5775" x2="7.20386" y2="-6.51001" gradientUnits="userSpaceOnUse">
<stop offset="0.18" stop-color="#6669FB"/>
<stop offset="0.78" stop-color="#D8D9FE"/>
</linearGradient>
<linearGradient id="paint1_linear_574_26539" x1="2826.35" y1="3507.71" x2="389.725" y2="940.474" gradientUnits="userSpaceOnUse">
<stop offset="0.18" stop-color="#6669FB"/>
<stop offset="0.78" stop-color="#D8D9FE"/>
</linearGradient>
<linearGradient id="paint2_linear_574_26539" x1="9.80613" y1="39.1077" x2="21.8041" y2="15.4563" gradientUnits="userSpaceOnUse">
<stop stop-color="#812CBE"/>
<stop offset="1" stop-color="#210C70"/>
</linearGradient>
<linearGradient id="paint3_linear_574_26539" x1="514.777" y1="1812.94" x2="1926.63" y2="1812.94" gradientUnits="userSpaceOnUse">
<stop stop-color="#812CBE"/>
<stop offset="1" stop-color="#210C70"/>
</linearGradient>
<linearGradient id="paint4_linear_574_26539" x1="3210.2" y1="2223.12" x2="2280.81" y2="33.9907" gradientUnits="userSpaceOnUse">
<stop offset="0.18" stop-color="#6669FB"/>
<stop offset="0.78" stop-color="#D8D9FE"/>
</linearGradient>
<linearGradient id="paint5_linear_574_26539" x1="4722.82" y1="3699.67" x2="2203.65" y2="877.858" gradientUnits="userSpaceOnUse">
<stop offset="0.18" stop-color="#6669FB"/>
<stop offset="0.78" stop-color="#D8D9FE"/>
</linearGradient>
<linearGradient id="paint6_linear_574_26539" x1="495.698" y1="982.964" x2="782.344" y2="756.2" gradientUnits="userSpaceOnUse">
<stop stop-color="#812CBE"/>
<stop offset="1" stop-color="#210C70"/>
</linearGradient>
<linearGradient id="paint7_linear_574_26539" x1="2261.09" y1="1812.97" x2="3675.07" y2="1812.97" gradientUnits="userSpaceOnUse">
<stop stop-color="#812CBE"/>
<stop offset="1" stop-color="#210C70"/>
</linearGradient>
<linearGradient id="paint8_linear_574_26539" x1="49.1509" y1="47.601" x2="17.3513" y2="5.37061" gradientUnits="userSpaceOnUse">
<stop offset="0.15" stop-color="#6741C4"/>
<stop offset="0.44" stop-color="#975BDD"/>
<stop offset="0.54" stop-color="#A35BD8"/>
<stop offset="0.71" stop-color="#C15ACA"/>
<stop offset="0.83" stop-color="#DB59BE"/>
</linearGradient>
<linearGradient id="paint9_linear_574_26539" x1="23.3022" y1="31.9647" x2="46.3357" y2="65.8014" gradientUnits="userSpaceOnUse">
<stop stop-color="#995AFF"/>
<stop offset="1" stop-color="#DC59BF"/>
</linearGradient>
<linearGradient id="paint10_linear_574_26539" x1="403.712" y1="1892.55" x2="883.633" y2="1511.57" gradientUnits="userSpaceOnUse">
<stop stop-color="#812CBE"/>
<stop offset="1" stop-color="#210C70"/>
</linearGradient>
<linearGradient id="paint11_linear_574_26539" x1="1530.46" y1="3606.12" x2="3879.34" y2="3606.12" gradientUnits="userSpaceOnUse">
<stop stop-color="#812CBE"/>
<stop offset="1" stop-color="#210C70"/>
</linearGradient>
</defs>
</svg>
