<svg width="69" height="68" viewBox="0 0 69 68" fill="none" xmlns="http://www.w3.org/2000/svg">
<path d="M64.7925 3.08352C65.1375 3.08352 65.4683 3.22055 65.7122 3.46446C65.9561 3.70837 66.0931 4.03918 66.0931 4.38412V21.5975C66.0931 21.9424 65.9561 22.2733 65.7122 22.5172C65.4683 22.7611 65.1375 22.8981 64.7925 22.8981H43.1701C42.8252 22.8981 42.4944 22.7611 42.2505 22.5172C42.0066 22.2733 41.8695 21.9424 41.8695 21.5975V4.37111C41.8695 4.02618 42.0066 3.69536 42.2505 3.45145C42.4944 3.20755 42.8252 3.07052 43.1701 3.07052H64.812L64.7925 3.08352ZM64.812 0.547363H43.1701C42.1594 0.547363 41.1902 0.948852 40.4755 1.6635C39.7609 2.37816 39.3594 3.34744 39.3594 4.35811V21.5975C39.3594 22.6082 39.7609 23.5775 40.4755 24.2921C41.1902 25.0068 42.1594 25.4083 43.1701 25.4083H64.812C65.8227 25.4083 66.792 25.0068 67.5066 24.2921C68.2213 23.5775 68.6228 22.6082 68.6228 21.5975V4.37111C68.6228 3.36044 68.2213 2.39116 67.5066 1.67651C66.792 0.961857 65.8227 0.560368 64.812 0.560368V0.547363Z" fill="url(#paint0_linear_574_26540)"/>
<path d="M27.3531 3.08352C27.698 3.08352 28.0288 3.22055 28.2727 3.46446C28.5166 3.70837 28.6536 4.03918 28.6536 4.38412V21.5975C28.6536 21.9424 28.5166 22.2733 28.2727 22.5172C28.0288 22.7611 27.698 22.8981 27.3531 22.8981H5.71114C5.3662 22.8981 5.03538 22.7611 4.79148 22.5172C4.54757 22.2733 4.41054 21.9424 4.41054 21.5975V4.37111C4.41054 4.02618 4.54757 3.69536 4.79148 3.45145C5.03538 3.20755 5.3662 3.07052 5.71114 3.07052H27.3531V3.08352ZM27.3531 0.547363H5.71114C4.70046 0.547363 3.73118 0.948852 3.01653 1.6635C2.30188 2.37816 1.90039 3.34744 1.90039 4.35811V21.5975C1.90039 22.6082 2.30188 23.5775 3.01653 24.2921C3.73118 25.0068 4.70046 25.4083 5.71114 25.4083H27.3531C28.3637 25.4083 29.333 25.0068 30.0477 24.2921C30.7623 23.5775 31.1638 22.6082 31.1638 21.5975V4.37111C31.1638 3.36044 30.7623 2.39116 30.0477 1.67651C29.333 0.961857 28.3637 0.560368 27.3531 0.560368V0.547363Z" fill="url(#paint1_linear_574_26540)"/>
<path d="M64.7926 36.6716C65.1375 36.6716 65.4683 36.8086 65.7122 37.0525C65.9561 37.2964 66.0932 37.6272 66.0932 37.9722V55.2051C66.0932 55.55 65.9561 55.8808 65.7122 56.1247C65.4683 56.3686 65.1375 56.5057 64.7926 56.5057H43.1702C42.8252 56.5057 42.4944 56.3686 42.2505 56.1247C42.0066 55.8808 41.8696 55.55 41.8696 55.2051V37.9527C41.8696 37.6077 42.0066 37.2769 42.2505 37.033C42.4944 36.7891 42.8252 36.6521 43.1702 36.6521H64.8121L64.7926 36.6716ZM64.8121 34.1289H43.1702C42.67 34.1281 42.1747 34.2258 41.7124 34.4166C41.2501 34.6074 40.8299 34.8875 40.476 35.2408C40.122 35.5942 39.8412 36.0139 39.6496 36.4758C39.458 36.9378 39.3594 37.433 39.3594 37.9332V55.166C39.3569 55.6678 39.4536 56.1651 39.644 56.6294C39.8344 57.0936 40.1148 57.5156 40.469 57.871C40.8232 58.2264 41.2442 58.5082 41.7078 58.7002C42.1714 58.8923 42.6684 58.9907 43.1702 58.9898H64.8121C65.3122 58.9907 65.8076 58.8929 66.2699 58.7021C66.7322 58.5113 67.1524 58.2312 67.5063 57.8779C67.8602 57.5245 68.141 57.1049 68.3326 56.6429C68.5242 56.1809 68.6228 55.6857 68.6228 55.1856V37.9527C68.6228 37.4525 68.5242 36.9573 68.3326 36.4953C68.141 36.0334 67.8602 35.6137 67.5063 35.2604C67.1524 34.907 66.7322 34.6269 66.2699 34.4361C65.8076 34.2453 65.3122 34.1476 64.8121 34.1484V34.1289Z" fill="url(#paint2_linear_574_26540)"/>
<path d="M43.9618 27.229H4.24161C2.07594 27.229 0.320312 28.9846 0.320312 31.1503V63.6912C0.320312 65.8569 2.07594 67.6125 4.24161 67.6125H43.9618C46.1275 67.6125 47.8831 65.8569 47.8831 63.6912V31.1503C47.8831 28.9846 46.1275 27.229 43.9618 27.229Z" fill="url(#paint3_linear_574_26540)"/>
<path opacity="0.61" d="M1.36734 63.3077L2.24524 32.7437C2.29066 31.7178 2.73212 30.7496 3.47677 30.0425C4.22142 29.3355 5.21124 28.9447 6.23807 28.9524L43.7277 29.0045C44.628 28.9998 45.5082 29.27 46.2507 29.779C46.9933 30.288 47.5628 31.0115 47.8831 31.8528V31.4301C47.8831 30.3142 47.4399 29.244 46.6508 28.455C45.8618 27.6659 44.7916 27.2227 43.6757 27.2227H4.52779C3.41191 27.2227 2.34173 27.6659 1.55268 28.455C0.763639 29.244 0.320358 30.3142 0.320358 31.4301V63.3987C0.317785 63.9526 0.424762 64.5015 0.635133 65.0139C0.845504 65.5262 1.15512 65.9919 1.54615 66.3842C1.93719 66.7764 2.40194 67.0874 2.91364 67.2994C3.42535 67.5113 3.97392 67.62 4.52779 67.6192H4.61232C3.658 67.3835 2.81414 66.8259 2.22302 66.0406C1.6319 65.2552 1.32969 64.29 1.36734 63.3077Z" fill="#AA92E4"/>
<path d="M15.8862 41.4838C15.8862 41.0156 16.2178 40.8335 16.686 40.8335C17.1542 40.8335 17.4729 41.0481 17.4729 41.4838V52.9941C17.4912 53.1295 17.4795 53.2673 17.4385 53.3977C17.3975 53.5281 17.3283 53.6478 17.2358 53.7484C17.1433 53.849 17.0298 53.9279 16.9033 53.9797C16.7768 54.0314 16.6404 54.0546 16.504 54.0476C15.7821 54.0476 15.5155 53.7615 15.0928 53.0917L10.6513 45.9059C9.95784 44.7568 9.32616 43.5716 8.7589 42.3552C8.85645 43.4282 8.99301 45.7563 8.99301 48.2079V53.3453C8.99301 53.8005 8.65486 54.0346 8.20615 54.0346C7.75744 54.0346 7.39978 53.8135 7.39978 53.3583V41.8025C7.39246 41.6645 7.41513 41.5266 7.46622 41.3983C7.51732 41.2699 7.59562 41.1542 7.69575 41.059C7.79587 40.9638 7.91544 40.8915 8.04621 40.8469C8.17699 40.8024 8.31586 40.7867 8.45326 40.801C8.73056 40.7871 9.00568 40.8565 9.24324 41.0002C9.48081 41.1439 9.66996 41.3553 9.78637 41.6074L14.0068 48.4615C14.7807 49.7166 15.7171 51.5049 16.1528 52.4479C16.0487 51.4074 15.8862 48.9753 15.8862 46.5952V41.4838Z" fill="#B3B3FD"/>
<path d="M22.0009 53.345C22.0009 53.8132 21.6628 54.0473 21.1946 54.0473C21.0925 54.061 20.9886 54.0519 20.8905 54.0206C20.7924 53.9893 20.7024 53.9365 20.6271 53.8662C20.5519 53.7959 20.4931 53.7098 20.4552 53.614C20.4172 53.5183 20.401 53.4153 20.4077 53.3125V42.6931C20.4077 41.3925 20.928 40.8983 22.118 40.8983H28.764C28.8578 40.8923 28.9518 40.9066 29.0395 40.9404C29.1272 40.9742 29.2065 41.0265 29.272 41.0939C29.3375 41.1613 29.3877 41.242 29.419 41.3306C29.4503 41.4192 29.462 41.5136 29.4534 41.6071C29.4661 41.7027 29.4575 41.8 29.428 41.8918C29.3986 41.9836 29.3491 42.0678 29.2831 42.1381C29.2171 42.2085 29.1363 42.2632 29.0465 42.2985C28.9568 42.3338 28.8603 42.3486 28.764 42.342H22.5147C22.4439 42.3378 22.373 42.3491 22.307 42.3751C22.241 42.4011 22.1814 42.4412 22.1325 42.4926C22.0836 42.544 22.0465 42.6054 22.0238 42.6726C22.001 42.7398 21.9933 42.8112 22.0009 42.8817V46.4974H27.8536C27.9454 46.4968 28.0362 46.5157 28.1202 46.5528C28.2041 46.5898 28.2793 46.6442 28.3407 46.7124C28.4021 46.7806 28.4484 46.861 28.4766 46.9483C28.5047 47.0357 28.514 47.128 28.5039 47.2192C28.5111 47.3089 28.4996 47.3991 28.4702 47.4841C28.4408 47.5691 28.394 47.647 28.3329 47.7131C28.2718 47.7791 28.1976 47.8317 28.1151 47.8676C28.0326 47.9034 27.9436 47.9218 27.8536 47.9215H22.0009V53.345Z" fill="#B3B3FD"/>
<path d="M30.9751 42.3747C30.8833 42.3752 30.7925 42.3564 30.7085 42.3193C30.6246 42.2822 30.5494 42.2278 30.488 42.1596C30.4266 42.0915 30.3803 42.0111 30.3521 41.9237C30.324 41.8364 30.3147 41.744 30.3248 41.6528C30.3096 41.5591 30.3151 41.4633 30.3409 41.3719C30.3667 41.2806 30.4122 41.196 30.4742 41.1241C30.5361 41.0522 30.6131 40.9948 30.6996 40.9558C30.7862 40.9168 30.8802 40.8973 30.9751 40.8985H40.1833C40.2782 40.8973 40.3722 40.9168 40.4588 40.9558C40.5453 40.9948 40.6223 41.0522 40.6842 41.1241C40.7462 41.196 40.7917 41.2806 40.8175 41.3719C40.8433 41.4633 40.8488 41.5591 40.8336 41.6528C40.8437 41.744 40.8344 41.8364 40.8063 41.9237C40.7781 42.0111 40.7318 42.0915 40.6704 42.1596C40.609 42.2278 40.5338 42.2822 40.4499 42.3193C40.3659 42.3564 40.2751 42.3752 40.1833 42.3747H36.3856V53.3582C36.3856 53.8134 36.0344 54.0475 35.5792 54.0475C35.124 54.0475 34.7793 53.8134 34.7793 53.3582V42.3747H30.9751Z" fill="#B3B3FD"/>
<path opacity="0.28" d="M43.6747 67.6192C44.7906 67.6192 45.8608 67.176 46.6498 66.3869C47.4389 65.5979 47.8821 64.5277 47.8821 63.4118V31.4367C47.8816 30.6782 47.6748 29.9341 47.2839 29.2842C45.5996 33.8363 43.7202 39.8125 37.8806 42.1731C27.7684 46.283 27.0466 45.8863 20.9728 54.7173C17.1556 60.2514 12.4409 64.8815 7.45312 67.6192H43.6747Z" fill="url(#paint4_linear_574_26540)"/>
<defs>
<linearGradient id="paint0_linear_574_26540" x1="-2.0581" y1="87.2711" x2="70.1315" y2="-8.44626" gradientUnits="userSpaceOnUse">
<stop offset="0.18" stop-color="#6669FB"/>
<stop offset="0.78" stop-color="#D8D9FE"/>
</linearGradient>
<linearGradient id="paint1_linear_574_26540" x1="-736.708" y1="3047" x2="1870.74" y2="-1022.59" gradientUnits="userSpaceOnUse">
<stop offset="0.18" stop-color="#6669FB"/>
<stop offset="0.78" stop-color="#D8D9FE"/>
</linearGradient>
<linearGradient id="paint2_linear_574_26540" x1="1101.04" y1="4234.13" x2="3708.76" y2="164.484" gradientUnits="userSpaceOnUse">
<stop offset="0.18" stop-color="#6669FB"/>
<stop offset="0.78" stop-color="#D8D9FE"/>
</linearGradient>
<linearGradient id="paint3_linear_574_26540" x1="63.5488" y1="81.4964" x2="-17.9921" y2="11.0691" gradientUnits="userSpaceOnUse">
<stop offset="0.15" stop-color="#6741C4"/>
<stop offset="0.44" stop-color="#975BDD"/>
<stop offset="0.54" stop-color="#A35BD8"/>
<stop offset="0.71" stop-color="#C15ACA"/>
<stop offset="0.83" stop-color="#DB59BE"/>
</linearGradient>
<linearGradient id="paint4_linear_574_26540" x1="7.45312" y1="48.4485" x2="47.8821" y2="48.4485" gradientUnits="userSpaceOnUse">
<stop stop-color="#8134BC"/>
<stop offset="1" stop-color="#21136E"/>
</linearGradient>
</defs>
</svg>
