<svg width="23" height="21" viewBox="0 0 23 21" fill="none"
    xmlns="http://www.w3.org/2000/svg">
    <path fill-rule="evenodd" clip-rule="evenodd" d="M0 3.32857C0 2.57839 0.298009 1.85893 0.828469 1.32847C1.35893 0.798009 2.07839 0.5 2.82857 0.5H14.1429C14.893 0.5 15.6125 0.798009 16.143 1.32847C16.6734 1.85893 16.9714 2.57839 16.9714 3.32857V17.4714C16.9714 18.2216 17.2694 18.9411 17.7999 19.4715C18.3304 20.002 19.0498 20.3 19.8 20.3H2.82857C2.07839 20.3 1.35893 20.002 0.828469 19.4715C0.298009 18.9411 0 18.2216 0 17.4714V3.32857ZM4.24286 4.74286H12.7286V10.4H4.24286V4.74286ZM12.7286 13.2286H4.24286V16.0571H12.7286V13.2286Z" fill="#A0AEC0"/>
    <path d="M18.3857 6.15625H19.8C20.5502 6.15625 21.2697 6.45426 21.8001 6.98472C22.3306 7.51518 22.6286 8.23464 22.6286 8.98482V16.7634C22.6286 17.042 22.5737 17.3178 22.4671 17.5752C22.3605 17.8326 22.2042 18.0665 22.0072 18.2635C21.8103 18.4605 21.5764 18.6167 21.319 18.7233C21.0616 18.8299 20.7858 18.8848 20.5072 18.8848C20.2286 18.8848 19.9527 18.8299 19.6953 18.7233C19.438 18.6167 19.2041 18.4605 19.0071 18.2635C18.8101 18.0665 18.6538 17.8326 18.5472 17.5752C18.4406 17.3178 18.3857 17.042 18.3857 16.7634V6.15625Z" fill="#A0AEC0"/>
</svg>
