<svg xmlns="http://www.w3.org/2000/svg" width="12" height="12" fill="none" viewBox="0 0 12 12">
    <path fill="#A0AEC0" fill-rule="evenodd" d="M4.875 9C7.153 9 9 7.153 9 4.875S7.153.75 4.875.75.75 2.597.75 4.875 2.597 9 4.875 9zM9.75 4.875c0 2.692-2.183 4.875-4.875 4.875S0 7.567 0 4.875 2.183 0 4.875 0 9.75 2.183 9.75 4.875z" clip-rule="evenodd"/>
    <path fill="#A0AEC0" d="M7.758 8.807c.022.03.047.058.074.085l2.888 2.888c.293.293.767.293 1.06 0 .293-.293.293-.767 0-1.06L8.892 7.832c-.027-.027-.055-.052-.085-.074-.295.4-.649.754-1.05 1.049z"/>
</svg>
