<svg xmlns="http://www.w3.org/2000/svg" width="13" height="13" fill="none" viewBox="0 0 13 13">
    <g clip-path="url(#clip0)">
        <path fill="#4C6FFF" d="M9.953 13.003H3.047c-.808 0-1.583-.322-2.155-.894C.322 11.537 0 10.76 0 9.953V5.68c.001-.47.11-.931.318-1.351.208-.42.51-.787.881-1.073L4.652.622C5.183.22 5.832 0 6.5 0c.667 0 1.316.219 1.847.622l1.097.837V.811C9.45.68 9.504.555 9.6.464c.095-.092.222-.143.353-.143.132 0 .258.051.353.143.094.091.15.216.155.347v1.673c0 .095-.027.188-.077.268-.05.08-.121.145-.206.187-.085.042-.18.06-.274.05-.094-.008-.184-.044-.26-.101L7.733 1.43c-.355-.27-.787-.415-1.232-.415-.445 0-.878.146-1.232.415L1.815 4.064c-.248.19-.449.435-.588.715-.138.28-.21.588-.212.9v4.274c0 .539.215 1.055.596 1.436.38.381.897.595 1.436.596h6.906c.539 0 1.055-.215 1.436-.596.38-.38.595-.897.596-1.436V5.68c0-.313-.07-.622-.207-.903-.137-.28-.337-.527-.584-.718-.107-.082-.177-.203-.195-.337-.018-.134.018-.269.1-.376.082-.107.203-.177.336-.195.134-.018.269.018.376.1.37.287.67.655.877 1.076.206.421.313.884.312 1.353v4.273c0 .809-.321 1.584-.892 2.156-.572.572-1.347.893-2.155.894zM5.485 5.864c-.126 0-.248.037-.353.107-.104.07-.186.169-.234.285-.048.116-.06.244-.036.367.025.123.085.236.174.325.089.089.202.15.325.174.123.024.25.012.367-.036.116-.048.215-.13.285-.234.07-.105.107-.227.107-.353 0-.168-.067-.33-.186-.449-.12-.119-.28-.186-.45-.186zM8.15 6.5c0 .168-.067.33-.186.449-.12.12-.28.186-.45.186-.168 0-.33-.067-.448-.186-.12-.119-.186-.28-.186-.449 0-.168.067-.33.186-.449s.28-.186.449-.186c.168 0 .33.067.449.186.119.12.186.28.186.449zM6.119 8.531c0 .168-.067.33-.186.449s-.28.186-.449.186c-.168 0-.33-.067-.449-.186-.119-.12-.186-.28-.186-.45 0-.168.067-.33.186-.448.12-.12.28-.186.45-.186.168 0 .33.067.448.186.12.119.186.28.186.449zm2.032 0c0 .168-.067.33-.186.449-.12.119-.28.186-.45.186-.168 0-.33-.067-.448-.186-.12-.12-.186-.28-.186-.45 0-.168.067-.33.186-.448.119-.12.28-.186.449-.186.168 0 .33.067.449.186s.186.28.186.449z"/>
    </g>
    <defs>
        <clipPath id="clip0">
            <path fill="#fff" d="M0 0H13V13H0z"/>
        </clipPath>
    </defs>
</svg>
