<svg width="16" height="16" viewBox="0 0 16 16" fill="none" xmlns="http://www.w3.org/2000/svg">
<mask id="mask0" mask-type="alpha" maskUnits="userSpaceOnUse" x="0" y="0" width="16" height="16">
<path d="M8 16C9.10457 16 10 15.1046 10 14H6C6 15.1046 6.89543 16 8 16Z" fill="black"/>
<path fill-rule="evenodd" clip-rule="evenodd" d="M8 1.91825L7.20281 2.07925C5.37552 2.44829 4.00002 4.06463 4.00002 6C4.00002 6.62782 3.86566 8.19725 3.54116 9.74216C3.38006 10.5091 3.16454 11.3076 2.87809 12H13.1219C12.8355 11.3076 12.62 10.5091 12.4589 9.74216C12.1344 8.19724 12 6.62782 12 6C12 4.06462 10.6245 2.44827 8.7972 2.07924L8 1.91825ZM14.2193 12C14.4426 12.4474 14.7015 12.801 15 13H1C1.29853 12.801 1.55745 12.4474 1.7807 12C2.67922 10.1994 3.00002 6.87916 3.00002 6C3.00002 3.57934 4.7202 1.56045 7.00484 1.09904C7.00164 1.06646 7 1.03342 7 1C7 0.447715 7.44772 0 8 0C8.55228 0 9 0.447715 9 1C9 1.03342 8.99836 1.06646 8.99516 1.09903C11.2798 1.56042 13 3.57932 13 6C13 6.87916 13.3208 10.1994 14.2193 12Z" fill="black"/>
</mask>
<g mask="url(#mask0)">
<rect width="16" height="16" fill="#A0AEC0"/>
</g>
</svg>
