<svg width="16" height="16" viewBox="0 0 16 16" fill="none"
    xmlns="http://www.w3.org/2000/svg">
    <mask id="mask0" mask-type="alpha" maskUnits="userSpaceOnUse" x="0" y="0" width="16" height="16">
        <path d="M8 16C9.10457 16 10 15.1046 10 14H6C6 15.1046 6.89543 16 8 16Z" fill="black"/>
        <path fill-rule="evenodd" clip-rule="evenodd" d="M8 1.91825L7.20281 2.07925C5.37552 2.44829 4.00002 4.06463 4.00002 6C4.00002 6.62782 3.86566 8.19725 3.54116 9.74216C3.38006 10.5091 3.16454 11.3076 2.87809 12H13.1219C12.8355 11.3076 12.62 10.5091 12.4589 9.74216C12.1344 8.19724 12 6.62782 12 6C12 4.06462 10.6245 2.44827 8.7972 2.07924L8 1.91825ZM14.2193 12C14.4426 12.4474 14.7015 12.801 15 13H1C1.29853 12.801 1.55745 12.4474 1.7807 12C2.67922 10.1994 3.00002 6.87916 3.00002 6C3.00002 3.57934 4.7202 1.56045 7.00484 1.09904C7.00164 1.06646 7 1.03342 7 1C7 0.447715 7.44772 0 8 0C8.55228 0 9 0.447715 9 1C9 1.03342 8.99836 1.06646 8.99516 1.09903C11.2798 1.56042 13 3.57932 13 6C13 6.87916 13.3208 10.1994 14.2193 12Z" fill="black"/>
    </mask>
    <g mask="url(#mask0)">
    </g>
    <g clip-path="url(#clip0)">
        <path d="M13.7493 4C13.5458 4.00009 13.3454 4.04985 13.1655 4.14497C12.9857 4.24009 12.8317 4.37768 12.7171 4.5458C12.6024 4.71393 12.5305 4.9075 12.5077 5.10971C12.4848 5.31192 12.5117 5.51665 12.5859 5.70613L9.95597 8.3362C9.66283 8.22069 9.33678 8.22069 9.04364 8.3362L7.16342 6.45586C7.23803 6.2663 7.26519 6.06138 7.24254 5.85892C7.21989 5.65647 7.1481 5.46262 7.03344 5.29424C6.91877 5.12586 6.7647 4.98805 6.58462 4.89282C6.40455 4.79758 6.20393 4.74779 6.00022 4.74779C5.79651 4.74779 5.59589 4.79758 5.41582 4.89282C5.23574 4.98805 5.08167 5.12586 4.967 5.29424C4.85234 5.46262 4.78055 5.65647 4.7579 5.85892C4.73525 6.06138 4.76241 6.2663 4.83703 6.45586L1.70673 9.58636C1.43938 9.48144 1.14405 9.47178 0.870419 9.55901C0.596785 9.64624 0.36153 9.82504 0.204215 10.0653C0.0468995 10.3056 -0.0228803 10.5928 0.0066092 10.8785C0.0360987 11.1642 0.163059 11.431 0.36614 11.6341C0.569221 11.8372 0.836037 11.9642 1.12172 11.9937C1.4074 12.0231 1.69453 11.9534 1.93481 11.796C2.17509 11.6387 2.35388 11.4034 2.4411 11.1298C2.52833 10.8561 2.51867 10.5608 2.41376 10.2934L5.5445 7.16338C5.83764 7.2789 6.16369 7.2789 6.45683 7.16338L8.33706 9.04372C8.26244 9.23328 8.23528 9.43821 8.25793 9.64066C8.28058 9.84312 8.35237 10.037 8.46703 10.2053C8.5817 10.3737 8.73577 10.5115 8.91585 10.6068C9.09592 10.702 9.29654 10.7518 9.50025 10.7518C9.70396 10.7518 9.90458 10.702 10.0847 10.6068C10.2647 10.5115 10.4188 10.3737 10.5335 10.2053C10.6481 10.037 10.7199 9.84312 10.7426 9.64066C10.7652 9.43821 10.7381 9.23328 10.6634 9.04372L13.2934 6.41364C13.4645 6.48094 13.6485 6.50963 13.832 6.49766C14.0156 6.48568 14.1942 6.43335 14.3552 6.34439C14.5162 6.25543 14.6556 6.13203 14.7634 5.983C14.8713 5.83397 14.9449 5.66298 14.979 5.48222C15.0132 5.30147 15.007 5.1154 14.961 4.9373C14.9149 4.7592 14.8302 4.59346 14.7127 4.45189C14.5953 4.31032 14.448 4.19642 14.2815 4.11831C14.115 4.04019 13.9332 3.9998 13.7493 4Z" fill="#4C6FFF"/>
    </g>
    <defs>
        <clipPath id="clip0">
            <rect width="15" height="8" fill="white" transform="translate(0 4)"/>
        </clipPath>
    </defs>
</svg>
