<svg width="81" height="65" viewBox="0 0 81 65" fill="none" xmlns="http://www.w3.org/2000/svg">
<path d="M67.8808 37.6305C58.4528 37.6305 52.9087 42.241 51.2526 51.462H51.2763C50.947 52.9925 50.393 54.2329 49.6103 55.1793C48.7606 56.2034 47.7058 56.7155 46.444 56.7155C44.0762 56.7155 42.8932 55.5206 42.8932 53.1291C42.8932 52.5601 42.9721 51.9153 43.1298 51.1927L44.3127 44.7596L45.7914 36.7334L47.5067 27.2279L47.4278 27.2582C47.5165 26.5944 47.5619 25.9648 47.5619 25.3655C47.5619 22.936 46.8127 21.0015 45.3123 19.5601C43.2994 17.5858 40.0069 16.5996 35.4309 16.5996C26.0029 16.5996 20.4589 21.2101 18.8028 30.4312H18.8205C18.4873 31.8782 17.9451 33.0579 17.192 33.9663C16.3422 34.9905 15.2875 35.5025 14.0257 35.5025C11.6578 35.5025 10.4749 34.3077 10.4749 31.9162C10.4749 31.3472 10.5538 30.7024 10.7115 29.9798L10.9678 28.9367L0.619069 30.4406L0.236587 32.3713C0.0788623 33.2817 0 34.1351 0 34.9336C0 37.3631 0.749192 39.2975 2.24955 40.7389C4.26251 42.7132 7.55501 43.6994 12.131 43.6994C21.559 43.6994 27.103 39.0889 28.7591 29.8679H28.7414C29.0746 28.4208 29.6168 27.2412 30.3699 26.3327C31.2196 25.3086 32.2744 24.7965 33.5362 24.7965C35.9041 24.7965 37.087 25.9913 37.087 28.3829C37.087 28.9519 37.0081 29.5967 36.8504 30.3193L35.6675 36.7524L34.1888 44.7786L32.4735 54.2841L32.5524 54.2537C32.4637 54.9175 32.4183 55.5472 32.4183 56.1465C32.4183 58.576 33.1675 60.5105 34.6679 61.9519C36.6808 63.9262 39.9734 64.9124 44.5493 64.9124C53.9773 64.9124 59.5213 60.3019 61.1775 51.0808H61.1538C61.4831 49.5503 62.0371 48.31 62.8198 47.3636C63.6695 46.3394 64.7243 45.8274 65.9861 45.8274C68.3539 45.8274 69.5369 47.0222 69.5369 49.4137C69.5369 49.9827 69.458 50.6275 69.3003 51.3501L69.044 52.3932H79.0694L79.7752 48.9586C79.9329 48.0482 80.0118 47.1948 80.0118 46.3963C80.0118 43.9669 79.2626 42.0324 77.7622 40.591C75.7512 38.6167 72.4567 37.6305 67.8808 37.6305Z" fill="white"/>
<path d="M71.033 32.5951C74.3327 32.0799 76.5735 29.0891 76.038 25.915C75.5024 22.7409 72.3934 20.5853 69.0937 21.1005C65.7941 21.6156 63.5533 24.6064 64.0888 27.7805C64.6243 30.9547 67.7333 33.1102 71.033 32.5951Z" fill="white"/>
<path d="M38.0078 11.6448C41.3506 11.6448 44.0604 9.03804 44.0604 5.82241C44.0604 2.60678 41.3506 0 38.0078 0C34.665 0 31.9551 2.60678 31.9551 5.82241C31.9551 9.03804 34.665 11.6448 38.0078 11.6448Z" fill="white"/>
</svg>
