<svg xmlns="http://www.w3.org/2000/svg" width="165.42" height="37.292" viewBox="0 0 165.42 37.292"><defs><style>.a{fill:#fff;}</style></defs><g transform="translate(-11.39 -2.86)"><g transform="translate(0 0)"><path class="a" d="M48.9,102.472q-7.815,0-9.189,7.946h.013a5.013,5.013,0,0,1-.921,2.136,2.156,2.156,0,0,1-1.75.883q-1.963,0-1.962-2.06a5.474,5.474,0,0,1,.131-1.112l.654-3.7.817-4.611.948-5.461-.044.017a8.537,8.537,0,0,0,.074-1.087,4.5,4.5,0,0,0-1.243-3.335q-1.669-1.7-5.461-1.7-7.815,0-9.189,7.946h.01a4.917,4.917,0,0,1-.9,2.031,2.156,2.156,0,0,1-1.75.883q-1.963,0-1.962-2.06a5.474,5.474,0,0,1,.131-1.112l.142-.6-5.719.864-.211,1.109a8.975,8.975,0,0,0-.131,1.472,4.5,4.5,0,0,0,1.243,3.335q1.669,1.7,5.461,1.7,7.815,0,9.189-7.946h-.01a4.917,4.917,0,0,1,.9-2.031,2.156,2.156,0,0,1,1.75-.883q1.963,0,1.962,2.06a5.474,5.474,0,0,1-.131,1.112l-.654,3.7-.817,4.611-.948,5.461.044-.017a8.536,8.536,0,0,0-.074,1.087,4.5,4.5,0,0,0,1.243,3.335q1.669,1.7,5.461,1.7,7.815,0,9.189-7.946h-.013a5.012,5.012,0,0,1,.921-2.136,2.156,2.156,0,0,1,1.75-.883q1.963,0,1.962,2.06a5.474,5.474,0,0,1-.131,1.112l-.142.6h5.54l.39-1.973a8.976,8.976,0,0,0,.131-1.472,4.5,4.5,0,0,0-1.243-3.335Q52.7,102.471,48.9,102.472Z" transform="translate(0 -77.993)"/><circle class="a" cx="3.345" cy="3.345" r="3.345" transform="translate(46.271 15.518) rotate(-9.218)"/><circle class="a" cx="3.345" cy="3.345" r="3.345" transform="translate(29.049 2.86)"/></g><g transform="translate(0 -2.053)"><path class="a" d="M899.222,141.548a8.976,8.976,0,0,0,.131-1.472,4.5,4.5,0,0,0-1.243-3.335q-1.669-1.7-5.461-1.7-7.3,0-8.978,6.925c-.08.329-.45,1.646-.511,2l-.121.648-.028.154a8.976,8.976,0,0,0-.131,1.472,4.5,4.5,0,0,0,1.243,3.335q1.669,1.7,5.461,1.7,7.719,0,9.153-7.753h0Zm-6.842,4.134a2.156,2.156,0,0,1-1.75.883q-1.963,0-1.962-2.06a5.475,5.475,0,0,1,.131-1.112l.142-.6-.014,0a5.038,5.038,0,0,1,.926-2.164,2.156,2.156,0,0,1,1.75-.883q1.963,0,1.962,2.06a5.474,5.474,0,0,1-.131,1.112l-.142.6h.014A5.036,5.036,0,0,1,892.38,145.682Z" transform="translate(-776.537 -117.778)"/><path class="a" d="M568.478,71.668q-1.522-1.649-5.1-1.648h-9.669L549.68,92.846h5.706l1.237-6.943H560.4a9.284,9.284,0,0,0,5.643-1.7,6.708,6.708,0,0,0,2.789-4.328l.634-3.582a8.1,8.1,0,0,0,.127-1.4A4.739,4.739,0,0,0,568.478,71.668Zm-4.945,5.674-.222,1.3a2.67,2.67,0,0,1-3.011,2.314h-2.821l1.046-5.991h2.853a2.187,2.187,0,0,1,1.744.571,1.7,1.7,0,0,1,.475,1.046A3.62,3.62,0,0,1,563.533,77.343Z" transform="translate(-479.641 -59.843)"/><path class="a" d="M743.8,135.49a5.26,5.26,0,0,0-4.376,2.568l.38-2.125h-5.009L732.1,151.183h5.39l1.775-10.018a2.29,2.29,0,0,1,1.871-1.078,1.351,1.351,0,0,1,1,.365,1.266,1.266,0,0,1,.365.935,2.357,2.357,0,0,1-.792,1.806H746.5l.349-.443a6.9,6.9,0,0,0,1.078-3.582,3.552,3.552,0,0,0-1.03-2.694A4.339,4.339,0,0,0,743.8,135.49Z" transform="translate(-642.185 -118.179)"/><path class="a" d="M1207.612,149.9a2.172,2.172,0,0,1,.032-.349l1.775-9.987h-5.39l-1.9,10.716a10.773,10.773,0,0,0-.126,1.76,3.429,3.429,0,0,0,.57,1.886q.856,1.332,3.741,1.333a5.168,5.168,0,0,0,3.392-1.237l.158-3.582a2.631,2.631,0,0,1-1.3.317C1207.929,150.751,1207.612,150.466,1207.612,149.9Z" transform="translate(-1060.888 -121.806)"/><path class="a" d="M1303.5,58.67h-5.39L1294.656,78.2a10.885,10.885,0,0,0-.126,1.775,3.441,3.441,0,0,0,.539,1.871q.856,1.332,3.74,1.333a5.3,5.3,0,0,0,3.425-1.237l.158-3.582a2.871,2.871,0,0,1-1.411.317.735.735,0,0,1-.84-.824,2.34,2.34,0,0,1,.032-.38Z" transform="translate(-1143.336 -49.729)"/><path class="a" d="M1392.6,135.2a10.069,10.069,0,0,0-6.008,1.632,7.01,7.01,0,0,0-2.806,4.676l-.666,3.931a7.943,7.943,0,0,0-.126,1.363q0,4.565,6.594,4.565,7.227,0,8.274-5.928l-5.262-.063a1.814,1.814,0,0,1-.634,1.109,1.9,1.9,0,0,1-1.3.476q-2.061,0-2.06-1.744a4.247,4.247,0,0,1,.063-.7l.128-.729h9.669l.38-2.251a9.994,9.994,0,0,0,.127-1.521Q1398.968,135.2,1392.6,135.2Zm.792,6.657h-4.28a3.178,3.178,0,0,1,1.03-1.808,2.564,2.564,0,0,1,1.649-.6,1.652,1.652,0,0,1,1.315.475,1.449,1.449,0,0,1,.412.936A4.357,4.357,0,0,1,1393.387,141.857Z" transform="translate(-1222.158 -117.921)"/><path class="a" d="M1046.394,69.292a9.085,9.085,0,0,0-6.671,1.395,6.29,6.29,0,0,0-2.656,4.485l-4.4,23.346h5.388l2.787-13.528,7.761-.054.792-4.47H1041.5l.892-4.969a2.133,2.133,0,0,1,1.571-.737,1.351,1.351,0,0,1,1,.365,1.266,1.266,0,0,1,.365.935,2.358,2.358,0,0,1-.792,1.806h4.709l.151,0S1053.685,70.9,1046.394,69.292Z" transform="translate(-910.007 -59.05)"/><circle class="a" cx="3.345" cy="3.345" r="3.345" transform="translate(142.089 10.473) rotate(-22.5)"/></g></g></svg>