<svg xmlns="http://www.w3.org/2000/svg" width="170.653" height="36.267" viewBox="0 0 170.653 36.267"><defs><style>.a{fill:#fff;}</style></defs><path class="a" d="M66.931-5245.379a2.593,2.593,0,0,1-.782-1.656c.538-.429,1.089-.891,1.626-1.411a20.107,20.107,0,0,0,1.472-1.581,2.276,2.276,0,0,1-.92-.6,5.408,5.408,0,0,1-1.057-1.734c-.185-.431-.385-.891-.6-1.427s-.43-1.121-.659-1.811-.46-1.458-.7-2.333-.506-1.872-.767-3.007a3.3,3.3,0,0,1,.95-.629,3.049,3.049,0,0,1,1.3-.26,2.69,2.69,0,0,1,1.471.367,2.279,2.279,0,0,1,.859,1.381l2.007,6.981h.093c.2-.583.4-1.2.6-1.887.2-.675.383-1.38.567-2.1s.353-1.442.521-2.163.307-1.426.414-2.117a4.216,4.216,0,0,1,2.009-.476,2.568,2.568,0,0,1,1.472.383,1.477,1.477,0,0,1,.582,1.32,8.19,8.19,0,0,1-.184,1.6c-.123.6-.276,1.244-.474,1.917s-.431,1.381-.691,2.1-.537,1.426-.827,2.117-.583,1.35-.889,1.964-.6,1.166-.888,1.656a18.757,18.757,0,0,1-1.319,2.026,6.94,6.94,0,0,1-1.166,1.227,3.366,3.366,0,0,1-1.118.614,4.206,4.206,0,0,1-1.166.169A2.451,2.451,0,0,1,66.931-5245.379Zm42.679-3.838a6.417,6.417,0,0,1-2.239-1.258,5.925,5.925,0,0,1-1.5-2.1,7.432,7.432,0,0,1-.551-2.977,6.922,6.922,0,0,1,.551-2.885,5.8,5.8,0,0,1,1.442-1.98,6.03,6.03,0,0,1,2.023-1.15,7.546,7.546,0,0,1,2.33-.369,6.943,6.943,0,0,1,2.453.415,5.939,5.939,0,0,1,1.9,1.12,4.895,4.895,0,0,1,1.242,1.7,5.313,5.313,0,0,1,.444,2.165,1.719,1.719,0,0,1-.474,1.319,2.337,2.337,0,0,1-1.349.583l-6.27.936a2.1,2.1,0,0,0,1.148,1.258,4.567,4.567,0,0,0,1.978.415,7.388,7.388,0,0,0,1.963-.262,6.418,6.418,0,0,0,1.517-.629,2.028,2.028,0,0,1,.69.706,1.854,1.854,0,0,1,.276.967,1.8,1.8,0,0,1-1.073,1.7,5.624,5.624,0,0,1-1.825.583,11.887,11.887,0,0,1-1.9.153A8.922,8.922,0,0,1,109.61-5249.217Zm1.011-9.358a1.985,1.985,0,0,0-.72.521,2.194,2.194,0,0,0-.414.706,2.974,2.974,0,0,0-.169.8l4.339-.706a1.97,1.97,0,0,0-.552-1.012,1.875,1.875,0,0,0-1.425-.507A2.5,2.5,0,0,0,110.621-5258.576Zm-73.769,9.512a5.84,5.84,0,0,1-1.854-.767,3.427,3.427,0,0,1-1.2-1.29,3.856,3.856,0,0,1-.415-1.825,3.422,3.422,0,0,1,1.043-2.684,5.562,5.562,0,0,1,3.219-1.167l3.326-.353v-.184a1.1,1.1,0,0,0-.644-1.059,4.3,4.3,0,0,0-1.87-.322,8.338,8.338,0,0,0-1.87.2,10.494,10.494,0,0,0-1.656.506,1.66,1.66,0,0,1-.552-.706,2.2,2.2,0,0,1-.23-.982,1.61,1.61,0,0,1,.322-1.059,2.467,2.467,0,0,1,.981-.675,7.5,7.5,0,0,1,1.733-.4c.659-.061,1.289-.107,1.87-.107a10.5,10.5,0,0,1,2.5.276,5.849,5.849,0,0,1,1.932.843,3.611,3.611,0,0,1,1.226,1.443,4.7,4.7,0,0,1,.444,2.087v5.691a1.551,1.551,0,0,1-.367,1.074,3.655,3.655,0,0,1-.875.722,9.083,9.083,0,0,1-4.644,1A10.547,10.547,0,0,1,36.853-5249.064Zm2.314-5.094a2.756,2.756,0,0,0-1.164.307.829.829,0,0,0-.46.767.99.99,0,0,0,.4.829,2.245,2.245,0,0,0,1.335.308,5.548,5.548,0,0,0,.95-.093,2.126,2.126,0,0,0,.767-.246v-2.025Zm-15.358,4.94a6.428,6.428,0,0,1-2.239-1.258,5.925,5.925,0,0,1-1.5-2.1,7.432,7.432,0,0,1-.551-2.977,6.922,6.922,0,0,1,.551-2.885,5.815,5.815,0,0,1,1.442-1.98,5.654,5.654,0,0,1,2.023-1.15,7.546,7.546,0,0,1,2.33-.369,6.948,6.948,0,0,1,2.453.415,5.939,5.939,0,0,1,1.9,1.12,4.861,4.861,0,0,1,1.242,1.7,5.292,5.292,0,0,1,.445,2.165,1.775,1.775,0,0,1-.476,1.319,2.337,2.337,0,0,1-1.349.583l-6.27.936a2.1,2.1,0,0,0,1.15,1.258,4.561,4.561,0,0,0,1.977.415,7.388,7.388,0,0,0,1.963-.262,6.418,6.418,0,0,0,1.517-.629,2.028,2.028,0,0,1,.69.706,1.842,1.842,0,0,1,.276.967,1.8,1.8,0,0,1-1.073,1.7,5.627,5.627,0,0,1-1.824.583,11.915,11.915,0,0,1-1.9.153A8.928,8.928,0,0,1,23.808-5249.217Zm1.011-9.358a2.144,2.144,0,0,0-.72.521,2.218,2.218,0,0,0-.414.706,2.971,2.971,0,0,0-.168.8l4.337-.706a1.866,1.866,0,0,0-.551-1.012,1.926,1.926,0,0,0-1.426-.507A2.545,2.545,0,0,0,24.819-5258.576ZM4.17-5249.34a6.428,6.428,0,0,1-2.223-1.319A6.072,6.072,0,0,1,.506-5252.7,6.7,6.7,0,0,1,0-5255.339a7.2,7.2,0,0,1,.551-2.93,5.621,5.621,0,0,1,1.488-2.071,6.185,6.185,0,0,1,2.177-1.212,8.553,8.553,0,0,1,2.606-.415,5.042,5.042,0,0,1,2.82.661,2,2,0,0,1,1,1.7,1.846,1.846,0,0,1-.23.905,2.828,2.828,0,0,1-.537.722,9.034,9.034,0,0,0-1.043-.4,6.064,6.064,0,0,0-1.333-.153,3.5,3.5,0,0,0-1.211.2,2.751,2.751,0,0,0-.981.6,2.89,2.89,0,0,0-.675.982,3.459,3.459,0,0,0-.26,1.365,2.986,2.986,0,0,0,.9,2.363,3.227,3.227,0,0,0,2.193.783,4.2,4.2,0,0,0,1.319-.184,9.323,9.323,0,0,0,1-.383,2.61,2.61,0,0,1,.767.766,1.9,1.9,0,0,1,.26,1,1.765,1.765,0,0,1-1,1.611,5.5,5.5,0,0,1-2.744.567A8.262,8.262,0,0,1,4.17-5249.34Zm45.009.266a1.636,1.636,0,0,1-.751-.307,1.556,1.556,0,0,1-.476-.629,2.713,2.713,0,0,1-.169-1.028v-7.61a2.22,2.22,0,0,1,.215-1,2.4,2.4,0,0,1,.628-.751,5.086,5.086,0,0,1,1-.6,9.958,9.958,0,0,1,1.289-.476,10.72,10.72,0,0,1,1.426-.321,9.38,9.38,0,0,1,1.471-.108,3.4,3.4,0,0,1,1.932.476,1.694,1.694,0,0,1,.7,1.534,2.254,2.254,0,0,1-.107.706,3.905,3.905,0,0,1-.26.629c-.353,0-.72.016-1.088.046s-.736.091-1.089.153-.69.138-1,.214a5.288,5.288,0,0,0-.8.262v8.652a5.459,5.459,0,0,1-.8.153,8.915,8.915,0,0,1-1.134.077A6.365,6.365,0,0,1,49.179-5249.075Zm10.516,0a1.658,1.658,0,0,1-.751-.307,1.555,1.555,0,0,1-.476-.629,2.712,2.712,0,0,1-.169-1.028v-14.728l.829-.139a6.733,6.733,0,0,1,1.1-.093,6.366,6.366,0,0,1,1,.078,1.66,1.66,0,0,1,.752.307,1.569,1.569,0,0,1,.474.628,2.72,2.72,0,0,1,.169,1.029v14.728l-.829.137a6.615,6.615,0,0,1-1.1.093A6.438,6.438,0,0,1,59.695-5249.077Zm-45.284,0a1.652,1.652,0,0,1-.751-.307,1.555,1.555,0,0,1-.476-.629,2.712,2.712,0,0,1-.169-1.028v-14.728l.829-.139a6.733,6.733,0,0,1,1.1-.093,6.366,6.366,0,0,1,1,.078,1.648,1.648,0,0,1,.751.307,1.56,1.56,0,0,1,.476.628,2.723,2.723,0,0,1,.168,1.029v14.728l-.827.137a6.627,6.627,0,0,1-1.1.093A6.438,6.438,0,0,1,14.411-5249.077Zm85.878-.029a1.664,1.664,0,0,1-.751-.307,1.563,1.563,0,0,1-.476-.629,2.721,2.721,0,0,1-.168-1.028v-6.075a1.321,1.321,0,0,0-.43-1.1,1.815,1.815,0,0,0-1.166-.338,2.179,2.179,0,0,0-.767.169,2.461,2.461,0,0,0-.613.337.9.9,0,0,1,.032.185v8.622a7.006,7.006,0,0,1-.829.153,8.9,8.9,0,0,1-1.1.078,6.443,6.443,0,0,1-1-.078,1.658,1.658,0,0,1-.751-.307,1.428,1.428,0,0,1-.476-.629,2.712,2.712,0,0,1-.169-1.028v-6.076a1.261,1.261,0,0,0-.474-1.1,1.844,1.844,0,0,0-1.135-.337,1.988,1.988,0,0,0-.781.138c-.214.092-.4.185-.552.262v8.913a5.4,5.4,0,0,1-.8.153,8.91,8.91,0,0,1-1.134.078,6.366,6.366,0,0,1-1-.078,1.647,1.647,0,0,1-.752-.307,1.556,1.556,0,0,1-.474-.629,2.71,2.71,0,0,1-.169-1.027v-7.672a1.764,1.764,0,0,1,.292-1.089,3.443,3.443,0,0,1,.8-.768,7.75,7.75,0,0,1,2.145-1,14.417,14.417,0,0,1,2.715-.307,7.04,7.04,0,0,1,2.039.291,5.125,5.125,0,0,1,1.731.875,7.8,7.8,0,0,1,1.718-.845,7.159,7.159,0,0,1,2.3-.337,7.106,7.106,0,0,1,1.885.26,4.882,4.882,0,0,1,1.656.8,3.841,3.841,0,0,1,1.15,1.442,4.988,4.988,0,0,1,.43,2.194v7.994a5.639,5.639,0,0,1-.8.153,8.936,8.936,0,0,1-1.135.077A6.391,6.391,0,0,1,100.289-5249.106Z" transform="translate(52.949 5275.374)"/><path class="a" d="M17.86-5231.312a4.228,4.228,0,0,1-1.164-3.115,8.075,8.075,0,0,1,.069-1l-.025.01.889-5.093.708-3.969.55-3.14.009,0,.113-.636a5.467,5.467,0,0,0,.123-1.043c0-1.289-.613-1.917-1.824-1.917a1.989,1.989,0,0,0-1.626.827,4.187,4.187,0,0,0-.875,1.887q-1.266,7.408-8.553,7.408c-2.362,0-4.063-.522-5.089-1.581A4.188,4.188,0,0,1,0-5245.794a9.049,9.049,0,0,1,.123-1.381s.23-1.059.628-1.3c1.365-.8,4.891-.537,4.891-.537l-.123.567a5.481,5.481,0,0,0-.123,1.044c0,1.288.613,1.917,1.825,1.917a1.99,1.99,0,0,0,1.624-.829,4.606,4.606,0,0,0,.843-1.9h0q1.289-7.41,8.571-7.41c2.36,0,4.063.521,5.089,1.58a4.228,4.228,0,0,1,1.164,3.115,8.146,8.146,0,0,1-.068,1l.023-.01-.889,5.095-.637,3.569-.62,3.538-.01,0-.113.635a5.467,5.467,0,0,0-.123,1.043c0,1.289.613,1.919,1.825,1.919a1.989,1.989,0,0,0,1.624-.829,4.867,4.867,0,0,0,.905-2.194h.054c.862-4.8,3.715-7.195,8.5-7.195,2.36,0,4.063.521,5.089,1.579a4.23,4.23,0,0,1,1.166,3.115,9.048,9.048,0,0,1-.123,1.381s-.23,1.059-.629,1.3c-1.364.8-4.89.538-4.89.538l.137-.552a5.463,5.463,0,0,0,.123-1.044c0-1.289-.613-1.917-1.824-1.917a1.99,1.99,0,0,0-1.626.829,4.864,4.864,0,0,0-.9,2.194H31.45c-.863,4.8-3.715,7.194-8.5,7.194C20.589-5229.733,18.888-5230.254,17.86-5231.312ZM31.52-5251.1a3.988,3.988,0,0,1,3.986-3.99,3.989,3.989,0,0,1,3.986,3.99,3.988,3.988,0,0,1-3.986,3.989A3.987,3.987,0,0,1,31.52-5251.1Zm-16.16-10.908A3.989,3.989,0,0,1,19.345-5266a3.988,3.988,0,0,1,3.986,3.989,3.988,3.988,0,0,1-3.986,3.99A3.989,3.989,0,0,1,15.36-5262.012Z" transform="translate(0 5266)"/></svg>