<svg xmlns="http://www.w3.org/2000/svg" width="129" height="28" fill="none" viewBox="0 0 129 28">
    <path fill="#16192C" d="M29.66 16.196c-3.987 0-6.332 1.956-7.032 5.868h.01c-.14.649-.374 1.175-.705 1.577-.36.434-.806.651-1.34.651-1 0-1.501-.507-1.501-1.521 0-.242.033-.515.1-.822l.5-2.729.626-3.405.725-4.033-.033.013c.037-.281.056-.549.056-.803 0-1.03-.316-1.851-.95-2.463-.852-.837-2.245-1.256-4.18-1.256-3.988 0-6.333 1.956-7.033 5.868h.007c-.14.614-.37 1.115-.688 1.5-.36.435-.806.652-1.34.652-1.001 0-1.501-.507-1.501-1.522 0-.241.033-.515.1-.821l.108-.443-4.377.638-.162.82c-.066.386-.1.748-.1 1.087 0 1.03.317 1.85.952 2.462.851.838 2.244 1.256 4.179 1.256 3.988 0 6.332-1.956 7.033-5.868h-.008c.141-.613.37-1.114.69-1.5.359-.434.805-.651 1.338-.651 1.002 0 1.502.507 1.502 1.521 0 .242-.033.515-.1.822l-.5 2.73-.626 3.404-.725 4.033.033-.013c-.037.281-.056.549-.056.803 0 1.03.316 1.851.951 2.463.851.837 2.244 1.256 4.18 1.256 3.987 0 6.332-1.956 7.032-5.868h-.01c.14-.65.374-1.176.705-1.577.36-.435.805-.652 1.34-.652 1 0 1.5.507 1.5 1.522 0 .241-.032.514-.1.821l-.108.443h4.24l.3-1.457c.066-.387.1-.749.1-1.087 0-1.031-.318-1.852-.952-2.463-.85-.838-2.244-1.256-4.18-1.256zM86.128 15.671c.067-.386.1-.748.1-1.087 0-1.03-.316-1.851-.951-2.463-.851-.837-2.244-1.256-4.18-1.256-3.722 0-6.012 1.705-6.87 5.114-.061.243-.345 1.216-.392 1.476l-.092.479-.022.113c-.067.386-.1.748-.1 1.087 0 1.03.317 1.851.952 2.463.85.837 2.244 1.256 4.179 1.256 3.938 0 6.272-1.91 7.005-5.726h.002l.37-1.456zm-5.236 3.053c-.36.434-.806.651-1.34.651-1.001 0-1.501-.506-1.501-1.521 0-.241.033-.515.1-.822l.108-.442-.01.002c.138-.658.374-1.192.708-1.598.36-.434.806-.651 1.34-.651 1 0 1.501.507 1.501 1.521 0 .242-.033.515-.1.822l-.108.442h.01c-.139.658-.374 1.191-.708 1.596zM60.224 6.852c-.777-.812-2.08-1.217-3.906-1.217h-7.4L45.837 22.49h4.367l.946-5.127h2.888c1.698 0 3.138-.417 4.319-1.253 1.18-.834 1.893-1.9 2.134-3.195l.486-2.646c.065-.359.097-.702.097-1.03 0-.967-.284-1.764-.85-2.388zm-3.785 4.19l-.17.96c-.21 1.14-.98 1.71-2.305 1.71h-2.16l.801-4.425h2.184c.648 0 1.093.14 1.335.421.243.281.364.539.364.773 0 .234-.017.421-.05.562zM70.001 10.902c-1.31 0-2.426.633-3.349 1.897l.291-1.57H63.11l-2.062 11.262h4.125l1.358-7.398c.404-.53.882-.796 1.432-.796.324 0 .579.09.765.27.186.179.28.409.28.69 0 .53-.203.975-.607 1.334h3.664l.267-.328c.177-.234.36-.6.546-1.1.185-.5.278-1.014.278-1.545 0-.843-.263-1.506-.788-1.99-.527-.483-1.316-.726-2.367-.726zM104.527 18.86c0-.077.008-.163.024-.256l1.358-7.375h-4.125l-1.456 7.913c-.065.375-.097.808-.097 1.3 0 .49.146.955.437 1.392.437.656 1.39.984 2.863.984.971 0 1.835-.305 2.596-.913l.121-2.646c-.291.156-.623.234-.995.234-.484 0-.726-.21-.726-.632zM114.814 4.72h-4.125l-2.645 14.422c-.065.375-.097.812-.097 1.311 0 .5.138.96.413 1.381.437.656 1.391.985 2.863.985.97 0 1.843-.305 2.621-.914l.12-2.645c-.291.156-.651.234-1.079.234-.429 0-.643-.203-.643-.608 0-.095.008-.188.024-.281l2.548-13.884zM122.676 10.877c-1.909 0-3.442.402-4.598 1.205-1.157.805-1.872 1.955-2.148 3.454l-.509 2.903c-.065.36-.097.694-.097 1.006 0 2.247 1.682 3.371 5.047 3.371 3.687 0 5.799-1.46 6.332-4.377l-4.027-.047c-.049.312-.211.585-.486.819-.275.234-.606.352-.994.352-1.052 0-1.577-.43-1.577-1.289 0-.156.016-.328.048-.515l.098-.538h7.399l.291-1.662c.065-.406.098-.78.098-1.123 0-2.373-1.626-3.559-4.877-3.559zm.606 4.916h-3.276c.146-.593.409-1.038.788-1.335.381-.296.801-.445 1.262-.445.46 0 .796.117 1.007.351.21.235.315.465.315.691 0 .226-.031.473-.096.738zM96.615 5.682c-1.837-.39-3.95.227-5.106 1.03-.67.466-1.783 1.427-2.033 3.312l-3.365 17.24h4.124l2.133-9.99 5.94-.04.606-3.301h-6.042l.683-3.67c.353-.356.752-.544 1.203-.544.323 0 .579.09.764.27.186.179.28.41.28.69 0 .531-.203.975-.607 1.334H98.8l.115-.002s3.28-5.145-2.3-6.329zM30.994 14.059c1.395-.219 2.343-1.487 2.117-2.834-.227-1.347-1.542-2.261-2.938-2.043-1.395.219-2.343 1.488-2.116 2.834.226 1.347 1.541 2.261 2.937 2.043zM17.026 5.17c1.414 0 2.56-1.105 2.56-2.47 0-1.364-1.146-2.47-2.56-2.47-1.414 0-2.56 1.106-2.56 2.47 0 1.365 1.146 2.47 2.56 2.47zM105.304 9.47c1.306-.522 1.927-1.967 1.386-3.227-.542-1.26-2.039-1.859-3.345-1.337-1.307.522-1.927 1.967-1.386 3.228.541 1.26 2.039 1.859 3.345 1.337z"/>
</svg>
