<svg width="16" height="17" viewBox="0 0 16 17" fill="none" xmlns="http://www.w3.org/2000/svg">
<path fill-rule="evenodd" clip-rule="evenodd" d="M3 4.50014C3.0001 4.10231 3.15616 3.7208 3.43387 3.43949C3.71158 3.15818 4.08821 3.0001 4.48096 3H6.59634C6.76198 3.00408 6.91947 3.0736 7.0352 3.19371C7.15092 3.31383 7.2157 3.47501 7.2157 3.64284C7.2157 3.81067 7.15092 3.97185 7.0352 4.09196C6.91947 4.21207 6.76198 4.28159 6.59634 4.28567H4.48096C4.4248 4.28567 4.37095 4.30827 4.33124 4.34849C4.29154 4.38871 4.26923 4.44326 4.26923 4.50014V13.4999C4.26933 13.5567 4.29167 13.6112 4.33135 13.6514C4.37104 13.6916 4.42483 13.7142 4.48096 13.7143H6.59634C6.76198 13.7184 6.91947 13.7879 7.0352 13.908C7.15092 14.0282 7.2157 14.1893 7.2157 14.3572C7.2157 14.525 7.15092 14.6862 7.0352 14.8063C6.91947 14.9264 6.76198 14.9959 6.59634 15H4.48096C4.08818 15 3.7115 14.842 3.43376 14.5606C3.15603 14.2793 3 13.8977 3 13.4999V4.50014ZM11.8338 8.35716H7.02017C6.85454 8.36125 6.69704 8.43077 6.58132 8.55088C6.4656 8.67099 6.40082 8.83217 6.40082 9C6.40082 9.16783 6.4656 9.32901 6.58132 9.44912C6.69704 9.56923 6.85454 9.63875 7.02017 9.64284H11.8338L10.1667 11.3315C10.1036 11.3902 10.0529 11.4612 10.0176 11.5403C9.98229 11.6193 9.96314 11.7048 9.96131 11.7915C9.95947 11.8783 9.97498 11.9645 10.0069 12.045C10.0388 12.1255 10.0865 12.1986 10.1471 12.26C10.2077 12.3213 10.2799 12.3696 10.3593 12.402C10.4388 12.4343 10.5239 12.45 10.6096 12.4482C10.6952 12.4463 10.7796 12.4269 10.8576 12.3912C10.9357 12.3554 11.0057 12.304 11.0637 12.2401L13.8138 9.45427C13.9326 9.33371 13.9994 9.17034 13.9994 9C13.9994 8.82966 13.9326 8.66629 13.8138 8.54573L11.064 5.76182C11.0061 5.69789 10.936 5.6465 10.858 5.61074C10.78 5.57498 10.6956 5.55559 10.6099 5.55373C10.5243 5.55187 10.4392 5.56758 10.3597 5.59992C10.2802 5.63227 10.208 5.68057 10.1475 5.74192C10.0869 5.80327 10.0392 5.8764 10.0073 5.95691C9.97536 6.03742 9.95985 6.12364 9.96168 6.21039C9.96352 6.29713 9.98266 6.3826 10.018 6.46165C10.0533 6.5407 10.104 6.61169 10.1671 6.67036L11.8342 8.35907L11.8338 8.35716Z" fill="#A0AEC0"/>
</svg>
