<svg xmlns="http://www.w3.org/2000/svg" width="19.946" height="19.946" viewBox="0 0 19.946 19.946"><defs><style>.a{fill:#010101;opacity:0;mix-blend-mode:multiply;isolation:isolate;}.b{fill:#fff;}</style></defs><path class="a" d="M9.973,0a9.973,9.973,0,1,0,9.973,9.973A9.973,9.973,0,0,0,9.973,0Z"/><path class="b" d="M6.347,5.331A3.256,3.256,0,1,0,9.6,8.587,3.251,3.251,0,0,0,6.347,5.331Zm0,5.372A2.117,2.117,0,1,1,8.463,8.587,2.12,2.12,0,0,1,6.347,10.7ZM10.495,5.2a.759.759,0,1,1-.759-.759A.758.758,0,0,1,10.495,5.2Zm2.156.771a3.758,3.758,0,0,0-1.026-2.661A3.783,3.783,0,0,0,8.965,2.282c-1.048-.06-4.191-.06-5.239,0A3.777,3.777,0,0,0,1.065,3.305,3.77,3.77,0,0,0,.039,5.966c-.06,1.048-.06,4.191,0,5.239a3.758,3.758,0,0,0,1.026,2.661,3.787,3.787,0,0,0,2.661,1.026c1.048.06,4.191.06,5.239,0a3.758,3.758,0,0,0,2.661-1.026A3.783,3.783,0,0,0,12.651,11.2C12.711,10.157,12.711,7.017,12.651,5.969ZM11.3,12.33a2.143,2.143,0,0,1-1.207,1.207,14,14,0,0,1-3.743.255A14.1,14.1,0,0,1,2.6,13.537,2.143,2.143,0,0,1,1.4,12.33a13.994,13.994,0,0,1-.255-3.743A14.1,14.1,0,0,1,1.4,4.844,2.143,2.143,0,0,1,2.6,3.637a13.994,13.994,0,0,1,3.743-.255,14.1,14.1,0,0,1,3.743.255A2.143,2.143,0,0,1,11.3,4.844a13.994,13.994,0,0,1,.255,3.743A13.986,13.986,0,0,1,11.3,12.33Z" transform="translate(3.686 1.449)"/></svg>