<svg xmlns="http://www.w3.org/2000/svg" width="19.858" height="19.858" viewBox="0 0 19.858 19.858"><defs><style>.a{fill:#010101;opacity:0;}.b{fill:#fff;}</style></defs><circle class="a" cx="9.929" cy="9.929" r="9.929"/><path class="b" d="M13.414,1.291a5.491,5.491,0,0,1-1.581.433A2.76,2.76,0,0,0,13.044.2,5.509,5.509,0,0,1,11.3.869a2.754,2.754,0,0,0-4.69,2.511A7.812,7.812,0,0,1,.934.5a2.755,2.755,0,0,0,.852,3.675A2.733,2.733,0,0,1,.539,3.833c0,.012,0,.023,0,.035a2.754,2.754,0,0,0,2.208,2.7A2.763,2.763,0,0,1,1.5,6.614,2.755,2.755,0,0,0,4.075,8.526,5.522,5.522,0,0,1,.656,9.7,5.542,5.542,0,0,1,0,9.665,7.785,7.785,0,0,0,4.218,10.9a7.777,7.777,0,0,0,7.831-7.831c0-.119,0-.238-.008-.356a5.581,5.581,0,0,0,1.374-1.424Z" transform="translate(4.077 5.25)"/></svg>