<svg width="13" height="14" viewBox="0 0 13 14" fill="none"
    xmlns="http://www.w3.org/2000/svg">
    <g clip-path="url(#clip0)">
        <path d="M0.722927 8.39478H3.61182V13.2994C3.61182 13.4852 3.68791 13.6634 3.82335 13.7948C3.95879 13.9262 4.14249 14 4.33404 14H8.66737C8.85892 14 9.04262 13.9262 9.17806 13.7948C9.3135 13.6634 9.38959 13.4852 9.38959 13.2994V8.39478H12.2785C12.4146 8.39482 12.5479 8.35754 12.6632 8.28725C12.7784 8.21696 12.8708 8.11651 12.9297 7.99748C12.9887 7.87845 13.0117 7.74569 12.9963 7.6145C12.9808 7.4833 12.9274 7.35902 12.8423 7.25598L7.06452 0.24944C6.99437 0.171128 6.90772 0.108334 6.81041 0.0653011C6.7131 0.0222685 6.60741 0 6.50046 0C6.39352 0 6.28783 0.0222685 6.19052 0.0653011C6.09321 0.108334 6.00655 0.171128 5.93641 0.24944L0.158631 7.25598C0.0734904 7.35906 0.0201166 7.48338 0.00466587 7.61461C-0.0107849 7.74584 0.0123167 7.87864 0.0713062 7.99769C0.130296 8.11673 0.22277 8.21718 0.338064 8.28744C0.453358 8.35769 0.586775 8.39491 0.722927 8.39478Z" fill="black"/>
    </g>
    <defs>
        <clipPath id="clip0">
            <rect width="13" height="14" fill="white"/>
        </clipPath>
    </defs>
</svg>
