<svg width="14" height="16" viewBox="0 0 14 16" fill="none" xmlns="http://www.w3.org/2000/svg">
<path d="M9.90463 5.11251L8.88955 4.09731L3.81505 9.17196C3.41902 9.57734 3.19878 10.1225 3.20212 10.6893C3.20545 11.256 3.43208 11.7986 3.83285 12.1993C4.23361 12.6 4.77619 12.8265 5.34287 12.8297C5.90955 12.8328 6.45462 12.6124 6.85984 12.2162L12.9485 6.12681C13.2887 5.79521 13.5597 5.39934 13.7458 4.96218C13.9318 4.52501 14.0291 4.05525 14.0322 3.58015C14.0353 3.10505 13.9439 2.63407 13.7636 2.19454C13.5832 1.75502 13.3173 1.35569 12.9814 1.01974C12.6455 0.683785 12.2462 0.417893 11.8067 0.237491C11.3673 0.0570878 10.8963 -0.0342339 10.4213 -0.0311757C9.94625 -0.0281174 9.47654 0.0692598 9.03942 0.255306C8.60231 0.441352 8.20648 0.712363 7.87492 1.05261L1.4809 7.44559L1.46668 7.45848C0.531983 8.39795 0.00803553 9.66985 0.00976992 10.9952C0.0115043 12.3205 0.538779 13.591 1.47593 14.528C2.41308 15.4651 3.68359 15.9921 5.00876 15.9935C6.33392 15.9949 7.60555 15.4706 8.54468 14.5355L8.55757 14.5213L12.9228 10.1583L11.9077 9.1444L7.54515 13.5079L7.53226 13.5208C6.86129 14.1886 5.95254 14.5625 5.00592 14.5602C4.05931 14.5579 3.15238 14.1796 2.48465 13.5085C1.81691 12.8375 1.44307 11.9286 1.44536 10.9819C1.44765 10.0352 1.82589 9.12815 2.49687 8.46034L8.89089 2.06603C9.29611 1.66984 9.84118 1.44942 10.4079 1.45258C10.9745 1.45575 11.5171 1.68225 11.9179 2.08295C12.3186 2.48364 12.5453 3.02622 12.5486 3.59296C12.5519 4.1597 12.3317 4.7049 11.9357 5.11028L5.84698 11.1997C5.71099 11.3265 5.53111 11.3956 5.34521 11.3924C5.15931 11.3892 4.9819 11.3139 4.85035 11.1825C4.71879 11.0511 4.64335 10.8738 4.63991 10.6879C4.63647 10.502 4.7053 10.322 4.83191 10.1858L9.90552 5.11028L9.90463 5.11251Z" fill="black"/>
</svg>
