<svg width="40" height="36" viewBox="0 0 40 36" fill="none" xmlns="http://www.w3.org/2000/svg">
<path d="M26.8064 29.77L23.2975 28.1143C23.0541 27.9968 22.8524 27.8078 22.7194 27.5726C22.5864 27.3373 22.5284 27.067 22.5532 26.7979L23.0595 21.365C23.091 21.0523 23.0092 20.7387 22.8289 20.4813C22.6486 20.2238 22.3819 20.0397 22.0773 19.9624L16.0013 18.4181C15.7494 18.3546 15.5221 18.2177 15.3481 18.0248C15.1741 17.8319 15.0613 17.5917 15.0241 17.3346C14.7439 15.3802 14.4654 13.4257 14.1886 11.4713C14.1218 10.9823 13.9115 10.5242 13.5844 10.1547C13.2573 9.78517 12.8279 9.52093 12.3507 9.39535C11.8274 9.2666 11.2936 9.18526 10.7557 9.15231C8.69045 9.03931 6.63817 9.54259 4.85949 10.5983C3.08081 11.6539 1.65596 13.2144 0.765862 15.0814C-1.29996 19.7295 1.43928 24.565 1.69751 24.9953C7.17093 34.2966 25.0848 35.2991 28.7304 35.4055C28.7992 35.4077 28.8675 35.3929 28.9291 35.3622C28.9907 35.3316 29.0437 35.2861 29.0834 35.2298C29.123 35.1736 29.1481 35.1084 29.1563 35.04C29.1645 34.9717 29.1556 34.9024 29.1304 34.8384C28.7203 33.765 27.8545 31.4915 27.4697 30.489C27.3491 30.1731 27.1116 29.9156 26.8064 29.77Z" fill="url(#paint0_linear_7058_123040)"/>
<g opacity="0.2">
<path opacity="0.2" d="M24.8725 29.1413L27.4041 30.3312C27.2726 30.0866 27.067 29.8898 26.8168 29.7692L24.2852 28.5742C24.4156 28.8209 24.6214 29.0196 24.8725 29.1413Z" fill="white"/>
<path opacity="0.2" d="M3.27219 26.0232C3.02409 25.5979 0.274723 20.7574 2.34055 16.1143C3.22818 14.2439 4.65186 12.6797 6.43065 11.6203C8.20945 10.561 10.263 10.0544 12.3304 10.165C12.813 10.2027 13.292 10.2772 13.7633 10.3878C13.4341 9.88693 12.9307 9.52608 12.3507 9.37509C11.8268 9.25317 11.293 9.17861 10.7557 9.15231C8.69045 9.03931 6.63817 9.54259 4.85949 10.5983C3.08081 11.6539 1.65596 13.2144 0.765862 15.0814C-1.29996 19.7295 1.43928 24.565 1.69751 24.9953C3.07789 27.1929 4.99451 29.0032 7.26713 30.2561C5.6561 29.1377 4.29558 27.6962 3.27219 26.0232Z" fill="white"/>
</g>
<path d="M31.6662 0.291979C28.1219 -0.634604 24.3245 0.904637 21.9802 3.36033C21.4331 3.9316 20.9555 4.56554 20.5574 5.24894C20.2028 5.8534 20.0355 6.54938 20.0764 7.24894L20.4713 14.292C20.4792 14.4538 20.5303 14.6106 20.6194 14.7459C20.7084 14.8813 20.8321 14.9903 20.9776 15.0616L27.2814 17.9882C27.488 18.0798 27.6525 18.2457 27.7426 18.4529C27.8326 18.6602 27.8415 18.8937 27.7675 19.1072C26.981 21.3013 26.1945 23.4954 25.408 25.6894C25.3445 25.8691 25.3402 26.0644 25.3957 26.2466C25.4513 26.4289 25.5639 26.5885 25.7169 26.7021L28.6029 28.8793C28.7024 28.9547 28.7852 29.0499 28.8462 29.1588C28.9072 29.2677 28.9451 29.388 28.9574 29.5122L29.4637 34.8388C29.468 34.8887 29.4869 34.9361 29.5182 34.9752C29.5494 35.0143 29.5915 35.0432 29.6392 35.0584C29.6868 35.0736 29.7379 35.0743 29.786 35.0604C29.8341 35.0466 29.877 35.0188 29.9093 34.9806C32.3548 32.0844 43.4232 18.0996 38.6384 7.31983C37.9751 5.81603 36.0308 1.43122 31.6662 0.291979Z" fill="url(#paint1_linear_7058_123040)"/>
<path d="M31.6662 0.291979C28.1219 -0.634604 24.3245 0.904637 21.9802 3.36033C21.4331 3.9316 20.9555 4.56554 20.5574 5.24894C20.2028 5.8534 20.0355 6.54938 20.0764 7.24894L20.4713 14.292C20.4792 14.4538 20.5303 14.6106 20.6194 14.7459C20.7084 14.8813 20.8321 14.9903 20.9776 15.0616L27.2814 17.9882C27.488 18.0798 27.6525 18.2457 27.7426 18.4529C27.8326 18.6602 27.8415 18.8937 27.7675 19.1072C26.981 21.3013 26.1945 23.4954 25.408 25.6894C25.3445 25.8691 25.3402 26.0644 25.3957 26.2466C25.4513 26.4289 25.5639 26.5885 25.7169 26.7021L28.6029 28.8793C28.7024 28.9547 28.7852 29.0499 28.8462 29.1588C28.9072 29.2677 28.9451 29.388 28.9574 29.5122L29.4637 34.8388C29.468 34.8887 29.4869 34.9361 29.5182 34.9752C29.5494 35.0143 29.5915 35.0432 29.6392 35.0584C29.6868 35.0736 29.7379 35.0743 29.786 35.0604C29.8341 35.0466 29.877 35.0188 29.9093 34.9806C32.3548 32.0844 43.4232 18.0996 38.6384 7.31983C37.9751 5.81603 36.0308 1.43122 31.6662 0.291979Z" fill="url(#paint2_linear_7058_123040)"/>
<path opacity="0.2" d="M29.7067 29.8413C29.6938 29.7173 29.6558 29.5972 29.5948 29.4883C29.5339 29.3795 29.4513 29.2843 29.3523 29.2084L26.4612 27.0312C26.3103 26.9159 26.1997 26.756 26.1452 26.5741C26.0906 26.3923 26.0949 26.1978 26.1574 26.0186C26.9405 23.8278 27.727 21.6338 28.5169 19.4363C28.5931 19.2247 28.587 18.9922 28.4998 18.7849C28.4125 18.5776 28.2505 18.4107 28.046 18.3173L21.7422 15.3806C21.5971 15.3101 21.4736 15.202 21.3845 15.0675C21.2954 14.933 21.2441 14.7771 21.2358 14.616L20.8308 7.56793C20.7975 6.8658 20.9738 6.16964 21.3371 5.56793C21.7365 4.8882 22.2122 4.25627 22.7548 3.68438C25.0738 1.22869 28.8814 -0.315616 32.4207 0.610966C32.684 0.681852 32.927 0.762865 33.1852 0.854004C32.6984 0.617702 32.1896 0.429468 31.6662 0.291979C28.1219 -0.634604 24.3245 0.904637 21.9802 3.36033C21.4331 3.9316 20.9555 4.56554 20.5574 5.24894C20.2028 5.8534 20.0355 6.54938 20.0764 7.24894L20.4713 14.292C20.4792 14.4538 20.5303 14.6106 20.6194 14.7459C20.7084 14.8813 20.8321 14.9903 20.9776 15.0616L27.2814 17.9882C27.488 18.0798 27.6525 18.2457 27.7426 18.4529C27.8326 18.6602 27.8415 18.8937 27.7675 19.1072C26.981 21.3013 26.1945 23.4954 25.408 25.6894C25.3445 25.8691 25.3402 26.0644 25.3957 26.2466C25.4513 26.4289 25.5639 26.5885 25.7169 26.7021L28.6029 28.8793C28.7024 28.9547 28.7852 29.0499 28.8462 29.1588C28.9072 29.2677 28.9451 29.388 28.9574 29.5122L29.4637 34.8388C29.468 34.8887 29.4869 34.9361 29.5182 34.9752C29.5494 35.0143 29.5915 35.0432 29.6392 35.0584C29.6868 35.0736 29.7379 35.0743 29.786 35.0604C29.8341 35.0466 29.877 35.0188 29.9093 34.9806L30.1675 34.6717C30.0156 33.0667 29.8586 31.4312 29.7067 29.8413Z" fill="white"/>
<path opacity="0.28" d="M12.3008 32.5636C19.0501 34.9434 26.5185 35.3383 28.7312 35.4041C28.7999 35.4064 28.8682 35.3915 28.9298 35.3609C28.9914 35.3302 29.0445 35.2847 29.0841 35.2285C29.1238 35.1722 29.1489 35.107 29.1571 35.0387C29.1653 34.9704 29.1564 34.9011 29.1312 34.837C28.721 33.7636 27.8552 31.4902 27.4704 30.4877C27.3512 30.1709 27.1133 29.913 26.8071 29.7687L23.2982 28.113C23.0549 27.9955 22.8531 27.8065 22.7201 27.5712C22.5871 27.3359 22.5291 27.0657 22.5539 26.7965L23.0603 21.3636C23.0838 21.1288 23.0436 20.8919 22.9438 20.6781C22.844 20.4642 22.6883 20.2812 22.4932 20.1484C22.2198 20.7763 22.0881 22.7408 21.835 25.0902C21.7944 25.4396 21.2982 29.7586 19.5919 31.5712C18.0223 33.2522 15.04 33.151 12.3008 32.5636Z" fill="url(#paint3_linear_7058_123040)"/>
<path opacity="0.28" d="M38.645 7.3237C38.1828 6.23438 37.6147 5.19309 36.9488 4.21484C37.6049 6.21863 37.7784 8.34904 37.4552 10.4326C36.883 14.2655 34.7311 16.5895 32.2602 19.2781C31.1666 20.468 28.2096 23.6731 25.9716 24.1085C25.7843 24.6148 25.5969 25.1617 25.4045 25.6933C25.341 25.873 25.3367 26.0682 25.3923 26.2505C25.4479 26.4327 25.5604 26.5924 25.7134 26.706L28.5995 28.8832C28.6989 28.9586 28.7818 29.0537 28.8428 29.1626C28.9038 29.2716 28.9416 29.3919 28.9539 29.5161L29.4602 34.8427C29.4645 34.8925 29.4835 34.94 29.5147 34.9791C29.5459 35.0181 29.588 35.0471 29.6357 35.0623C29.6834 35.0774 29.7345 35.0781 29.7825 35.0643C29.8306 35.0504 29.8735 35.0227 29.9058 34.9845C32.3615 32.0883 43.4298 18.1034 38.645 7.3237Z" fill="url(#paint4_linear_7058_123040)"/>
<defs>
<linearGradient id="paint0_linear_7058_123040" x1="33.9152" y1="45.684" x2="1.01902" y2="10.7675" gradientUnits="userSpaceOnUse">
<stop offset="0.15" stop-color="#6741C4"/>
<stop offset="0.44" stop-color="#975BDD"/>
<stop offset="0.54" stop-color="#A35BD8"/>
<stop offset="0.71" stop-color="#C15ACA"/>
<stop offset="0.83" stop-color="#DB59BE"/>
</linearGradient>
<linearGradient id="paint1_linear_7058_123040" x1="1842.05" y1="2541.55" x2="-167.885" y2="1338.99" gradientUnits="userSpaceOnUse">
<stop offset="0.15" stop-color="#6741C4"/>
<stop offset="0.44" stop-color="#975BDD"/>
<stop offset="0.54" stop-color="#A35BD8"/>
<stop offset="0.71" stop-color="#C15ACA"/>
<stop offset="0.83" stop-color="#DB59BE"/>
</linearGradient>
<linearGradient id="paint2_linear_7058_123040" x1="46.6151" y1="33.7035" x2="13.7315" y2="-1.2116" gradientUnits="userSpaceOnUse">
<stop offset="0.1458" stop-color="#6741C4"/>
<stop offset="0.4416" stop-color="#975BDD"/>
<stop offset="0.5368" stop-color="#A35BD8"/>
<stop offset="0.7066" stop-color="#C15ACA"/>
<stop offset="0.8263" stop-color="#DB59BE"/>
</linearGradient>
<linearGradient id="paint3_linear_7058_123040" x1="12.3008" y1="27.7788" x2="29.1615" y2="27.7788" gradientUnits="userSpaceOnUse">
<stop stop-color="#8134BC"/>
<stop offset="1" stop-color="#21136E"/>
</linearGradient>
<linearGradient id="paint4_linear_7058_123040" x1="752.592" y1="1384.55" x2="1166.67" y2="1384.55" gradientUnits="userSpaceOnUse">
<stop stop-color="#8134BC"/>
<stop offset="1" stop-color="#21136E"/>
</linearGradient>
</defs>
</svg>
