<svg width="16" height="17" viewBox="0 0 16 17" fill="none" xmlns="http://www.w3.org/2000/svg">
<path fill-rule="evenodd" clip-rule="evenodd" d="M16 8.5C16 12.9183 12.4183 16.5 8 16.5C3.58172 16.5 0 12.9183 0 8.5C0 4.08172 3.58172 0.5 8 0.5C12.4183 0.5 16 4.08172 16 8.5ZM12.0303 5.46967C11.7374 5.17678 11.2626 5.17678 10.9697 5.46967C10.9626 5.47674 10.9559 5.48424 10.9498 5.4921L7.4774 9.91674L5.38388 7.82322C5.09098 7.53033 4.61611 7.53033 4.32322 7.82322C4.03032 8.11612 4.03032 8.59099 4.32322 8.88388L6.96966 11.5303C7.26256 11.8232 7.73743 11.8232 8.03032 11.5303C8.03685 11.5238 8.043 11.5169 8.04876 11.5097L12.041 6.51947C12.3232 6.22582 12.3196 5.75897 12.0303 5.46967Z" fill="#007E84"/>
</svg>
