<svg width="16" height="17" viewBox="0 0 16 17" fill="none" xmlns="http://www.w3.org/2000/svg">
<path fill-rule="evenodd" clip-rule="evenodd" d="M16 8.53906C16 12.9573 12.4183 16.5391 8 16.5391C3.58172 16.5391 0 12.9573 0 8.53906C0 4.12078 3.58172 0.539062 8 0.539062C12.4183 0.539062 16 4.12078 16 8.53906ZM12.0303 5.50873C11.7374 5.21584 11.2626 5.21584 10.9697 5.50873C10.9626 5.51581 10.9559 5.5233 10.9498 5.53117L7.4774 9.9558L5.38388 7.86229C5.09098 7.56939 4.61611 7.56939 4.32322 7.86229C4.03032 8.15518 4.03032 8.63005 4.32322 8.92295L6.96966 11.5694C7.26256 11.8623 7.73743 11.8623 8.03032 11.5694C8.03685 11.5629 8.043 11.556 8.04876 11.5488L12.041 6.55853C12.3232 6.26488 12.3196 5.79803 12.0303 5.50873Z" fill="url(#paint0_linear_7838_47111)"/>
<defs>
<linearGradient id="paint0_linear_7838_47111" x1="15.8095" y1="-0.794285" x2="-0.38582" y2="0.201857" gradientUnits="userSpaceOnUse">
<stop stop-color="#2FD5DD"/>
<stop offset="1" stop-color="#0C90EF"/>
</linearGradient>
</defs>
</svg>
