<svg width="47" height="48" viewBox="0 0 47 48" fill="none" xmlns="http://www.w3.org/2000/svg">
<path d="M7.09783 31.0567C8.22188 31.3544 8.92062 31.8648 9.85631 31.561C10.0204 31.5063 10.0325 31.482 11.0715 31.0567C11.4633 30.8731 11.8698 30.7227 12.2867 30.6071C12.6103 30.5505 12.9425 30.5671 13.2588 30.6557C13.629 30.7419 14.0142 30.7401 14.3836 30.6504C14.7529 30.5607 15.096 30.3856 15.3854 30.1392L32.9753 15.6542C33.0112 15.6234 33.0546 15.6027 33.1011 15.5942C33.1476 15.5857 33.1956 15.5897 33.24 15.6057C33.2845 15.6218 33.3239 15.6494 33.3543 15.6856C33.3846 15.7219 33.4048 15.7655 33.4128 15.8121C33.5353 16.5341 33.5353 17.2715 33.4128 17.9934C33.1138 19.4925 32.3731 20.8679 31.2862 21.9428C29.3783 24.0268 24.7363 28.1828 18.229 33.2684C17.8411 33.5724 17.3716 33.7543 16.8801 33.7909C16.4366 33.8213 15.9019 33.8577 15.3064 33.8759C13.994 33.9306 13.5566 33.8759 13.0097 33.9246C11.6675 34.0983 10.3941 34.6198 9.31555 35.4375C3.5434 39.1499 2.97226 39.7818 2.11555 39.4901C0.651249 39.0284 -0.266219 36.3003 0.444667 34.1433C0.682003 33.4694 1.06305 32.8551 1.5614 32.3431C2.05975 31.8312 2.66348 31.4337 3.33074 31.1782C4.54829 30.7744 5.85679 30.7322 7.09783 31.0567ZM3.01479 33.3413C1.61733 34.4592 1.98188 37.1509 2.72315 37.4425C3.14846 37.6066 3.50694 36.9078 5.32973 35.6987C6.83656 34.7023 7.41378 34.6294 7.40163 34.277C7.3834 33.5053 4.54593 32.1078 3.01479 33.3413Z" fill="url(#paint0_linear_7058_123027)"/>
<path d="M3.01435 33.3416C4.27815 32.333 6.3865 33.0803 7.12777 33.8094C7.1363 33.7735 7.1363 33.736 7.12777 33.7C7.12777 32.9223 4.2903 31.5249 2.74093 32.7583C1.52574 33.7183 1.64119 35.7962 2.13334 36.5922C1.92676 35.6322 2.04828 34.1132 3.01435 33.3416Z" fill="url(#paint1_linear_7058_123027)"/>
<path d="M33.4125 15.7964C33.403 15.7461 33.379 15.6998 33.3433 15.663C33.3077 15.6263 33.262 15.6009 33.212 15.5898C33.2803 16.1968 33.2639 16.8102 33.1634 17.4126C32.8647 18.9101 32.124 20.2836 31.0369 21.3559C29.129 23.446 24.487 27.602 17.9796 32.6876C17.5918 32.9916 17.1223 33.1735 16.6308 33.2101C16.1872 33.2466 15.6526 33.2769 15.0571 33.3012C13.7447 33.3498 13.3072 33.3012 12.7604 33.3498C11.4187 33.5215 10.1452 34.041 9.06622 34.8567C3.29407 38.5691 2.72293 39.201 1.8723 38.9276C1.27015 38.6806 0.786835 38.2103 0.523438 37.6152C0.633953 38.0261 0.833981 38.4075 1.10919 38.7321C1.3844 39.0567 1.72799 39.3164 2.11534 39.4926C2.96597 39.7721 3.53711 39.1402 9.30926 35.4278C10.3878 34.6102 11.6612 34.0887 13.0034 33.9149C13.5503 33.8724 13.9877 33.9149 15.3001 33.8663C15.9077 33.8663 16.4303 33.8116 16.8738 33.7812C17.3653 33.7447 17.8348 33.5628 18.2227 33.2587C24.7361 28.1853 29.3781 24.0293 31.2799 21.9453C32.3669 20.8705 33.1075 19.495 33.4065 17.9959C33.5331 17.2684 33.5351 16.5246 33.4125 15.7964Z" fill="url(#paint2_linear_7058_123027)"/>
<path d="M44.7927 27.3401H21.7891L22.2448 16.452L18.7633 27.3401H2.3218C1.80936 27.3401 1.31791 27.1365 0.955563 26.7742C0.593214 26.4118 0.389648 25.9204 0.389648 25.4079V2.63528C0.389648 2.12284 0.593214 1.63139 0.955563 1.26904C1.31791 0.90669 1.80936 0.703125 2.3218 0.703125H44.7927C45.3041 0.704733 45.794 0.909008 46.155 1.27118C46.516 1.63336 46.7188 2.12389 46.7188 2.63528V25.414C46.7172 25.9243 46.5137 26.4133 46.1528 26.7742C45.792 27.135 45.303 27.3385 44.7927 27.3401Z" fill="url(#paint3_linear_7058_123027)"/>
<path d="M23.5577 15.0491C26.7523 15.0491 29.342 12.4594 29.342 9.26477C29.342 6.07019 26.7523 3.48047 23.5577 3.48047C20.3632 3.48047 17.7734 6.07019 17.7734 9.26477C17.7734 12.4594 20.3632 15.0491 23.5577 15.0491Z" fill="url(#paint4_linear_7058_123027)"/>
<path d="M32.4102 20.8215H22.1661V17.3886L20.8537 20.8215C17.5788 20.8823 15.1788 20.8702 14.6927 20.8215C14.4676 20.8105 14.2531 20.7226 14.0851 20.5724C14.0051 20.4929 13.9419 20.3982 13.8991 20.2938C13.8563 20.1895 13.8348 20.0776 13.836 19.9648V17.8261C13.8439 17.6042 13.9389 17.3944 14.1004 17.242C14.2618 17.0897 14.4768 17.007 14.6988 17.0119H32.4102C32.6341 17.0119 32.849 17.1009 33.0073 17.2593C33.1657 17.4177 33.2547 17.6325 33.2547 17.8565V20.0074C33.2736 20.1225 33.2648 20.2406 33.2291 20.3517C33.1933 20.4628 33.1316 20.5638 33.0491 20.6463C32.9666 20.7288 32.8656 20.7905 32.7545 20.8263C32.6434 20.862 32.5253 20.8708 32.4102 20.8519V20.8215Z" fill="url(#paint5_linear_7058_123027)"/>
<path opacity="0.15" d="M46.7193 2.63573C46.7183 2.29492 46.6266 1.96053 46.4536 1.66688C46.2806 1.37324 46.0326 1.13093 45.735 0.964844C43.8575 4.0575 41.2449 7.36282 35.4849 8.86358C23.1021 12.0717 22.2211 11.7618 14.7841 18.658C10.9408 22.1978 6.55772 25.1021 1.7998 27.2616C1.96891 27.3152 2.14495 27.3438 2.32234 27.3466H18.7639L22.2454 16.4828L21.7897 27.3709H44.7932C45.3046 27.3693 45.7945 27.165 46.1555 26.8029C46.5166 26.4407 46.7193 25.9502 46.7193 25.4388V2.63573Z" fill="url(#paint6_linear_7058_123027)"/>
<path d="M22.0325 38.6906C21.2547 37.8217 20.4831 37.4754 20.319 36.4668C20.2887 36.2967 20.319 36.2784 20.1975 35.1422C20.182 34.7115 20.1312 34.2827 20.0456 33.8602C19.9451 33.5462 19.7772 33.2579 19.5535 33.0156C19.3061 32.7268 19.1299 32.3839 19.0391 32.0145C18.9484 31.6452 18.9456 31.2597 19.0309 30.8891L23.8431 8.63286C23.8538 8.58696 23.8522 8.53903 23.8385 8.49394C23.8247 8.44885 23.7992 8.4082 23.7647 8.37612C23.7301 8.34404 23.6877 8.32167 23.6417 8.31127C23.5958 8.30087 23.5478 8.30282 23.5028 8.31691C22.8033 8.54027 22.1462 8.87913 21.5585 9.31945C20.3668 10.2753 19.4852 11.563 19.0249 13.0197C18.0466 15.6688 16.4912 21.7022 14.954 29.8136C14.8628 30.2987 14.9178 30.7999 15.112 31.2536C15.2821 31.6668 15.5008 32.1529 15.7499 32.6936C16.315 33.9088 16.552 34.2491 16.7646 34.7534C17.2264 36.0246 17.3479 37.3944 17.117 38.727C16.473 45.5686 16.1753 46.3584 16.8132 46.9903C17.9069 48.0718 20.7504 47.6344 22.3423 46.0121C22.831 45.4969 23.2024 44.8821 23.4311 44.2098C23.6597 43.5375 23.7402 42.8237 23.6669 42.1174C23.4648 40.8412 22.8971 39.6509 22.0325 38.6906ZM21.8745 43.363C21.5221 45.1189 18.9641 46.0303 18.3687 45.5078C18.0223 45.2101 18.478 44.566 18.7211 42.3908C18.9155 40.5681 18.7211 40.0516 19.0309 39.8997C19.7358 39.5594 22.2634 41.4248 21.8745 43.363Z" fill="url(#paint7_linear_7058_123027)"/>
<path d="M18.4117 39.9415C18.0897 40.0934 18.2963 40.6341 18.0958 42.4326C17.8588 44.6078 17.4031 45.2458 17.7495 45.5496C17.8972 45.632 18.0605 45.6827 18.2289 45.6984C18.3974 45.7141 18.5673 45.6945 18.7277 45.6407C18.5979 45.6314 18.4735 45.585 18.3692 45.5071C18.0229 45.2093 18.4786 44.5653 18.7216 42.3901C18.8978 40.786 18.7581 40.1845 18.9464 39.9597C18.7772 39.8849 18.5856 39.8783 18.4117 39.9415Z" fill="url(#paint8_linear_7058_123027)"/>
<path d="M22.0329 38.6906C21.2552 37.8217 20.4835 37.4754 20.3195 36.4668C20.2891 36.2967 20.3195 36.2784 20.198 35.1422C20.1824 34.7115 20.1316 34.2827 20.0461 33.8602C19.9456 33.5462 19.7776 33.2579 19.5539 33.0156C19.3065 32.7268 19.1303 32.3839 19.0396 32.0145C18.9488 31.6452 18.946 31.2597 19.0314 30.8891L23.8435 8.63286C23.8543 8.58696 23.8527 8.53903 23.8389 8.49394C23.8251 8.44885 23.7997 8.4082 23.7651 8.37612C23.7306 8.34404 23.6881 8.32167 23.6422 8.31127C23.5962 8.30087 23.5483 8.30282 23.5033 8.31691L23.1569 8.44451C23.1858 8.47483 23.2069 8.51163 23.2185 8.55181C23.2301 8.59199 23.2319 8.63437 23.2238 8.6754L18.4116 30.9316C18.3263 31.3022 18.3291 31.6877 18.4198 32.0571C18.5106 32.4264 18.6867 32.7693 18.9342 33.0582C19.1566 33.3003 19.3226 33.5887 19.4202 33.9027C19.5068 34.3252 19.5596 34.7539 19.5782 35.1848C19.6815 36.321 19.6694 36.3392 19.6937 36.5093C19.8577 37.4936 20.6294 37.8643 21.4071 38.7331C22.2777 39.6901 22.8482 40.8816 23.0476 42.16C23.1196 42.8662 23.0386 43.5796 22.81 44.2517C22.5814 44.9238 22.2107 45.5388 21.723 46.0546C20.8676 46.8927 19.763 47.4301 18.5757 47.5858C19.9868 47.5641 21.3355 47.0006 22.3428 46.0121C22.8315 45.4969 23.2029 44.8821 23.4315 44.2098C23.6601 43.5375 23.7406 42.8237 23.6673 42.1174C23.4652 40.8412 22.8975 39.6509 22.0329 38.6906Z" fill="url(#paint9_linear_7058_123027)"/>
<path d="M18.1378 31.1749C18.1378 30.7655 17.8059 30.4336 17.3965 30.4336C16.9871 30.4336 16.6553 30.7655 16.6553 31.1749C16.6553 31.5842 16.9871 31.9161 17.3965 31.9161C17.8059 31.9161 18.1378 31.5842 18.1378 31.1749Z" fill="url(#paint10_linear_7058_123027)"/>
<defs>
<linearGradient id="paint0_linear_7058_123027" x1="18.1196" y1="39.2228" x2="15.2578" y2="10.0157" gradientUnits="userSpaceOnUse">
<stop offset="0.15" stop-color="#6741C4"/>
<stop offset="0.44" stop-color="#975BDD"/>
<stop offset="0.54" stop-color="#A35BD8"/>
<stop offset="0.71" stop-color="#C15ACA"/>
<stop offset="0.83" stop-color="#DB59BE"/>
</linearGradient>
<linearGradient id="paint1_linear_7058_123027" x1="4.69131" y1="36.58" x2="4.12625" y2="30.8322" gradientUnits="userSpaceOnUse">
<stop stop-color="#8134BC"/>
<stop offset="1" stop-color="#21136E"/>
</linearGradient>
<linearGradient id="paint2_linear_7058_123027" x1="1005.74" y1="1562.26" x2="923.375" y2="406.224" gradientUnits="userSpaceOnUse">
<stop stop-color="#8134BC"/>
<stop offset="1" stop-color="#21136E"/>
</linearGradient>
<linearGradient id="paint3_linear_7058_123027" x1="31.3891" y1="31.7877" x2="12.3714" y2="-11.3273" gradientUnits="userSpaceOnUse">
<stop stop-color="#6669FB"/>
<stop offset="0.25" stop-color="#9698FC"/>
<stop offset="0.48" stop-color="#BABCFD"/>
<stop offset="0.66" stop-color="#D0D1FE"/>
<stop offset="0.78" stop-color="#D8D9FE"/>
</linearGradient>
<linearGradient id="paint4_linear_7058_123027" x1="30.0529" y1="21.4835" x2="14.7172" y2="-7.34687" gradientUnits="userSpaceOnUse">
<stop offset="0.28" stop-color="#6669FB"/>
<stop offset="0.52" stop-color="#A3A5FD"/>
<stop offset="0.69" stop-color="#C9CBFE"/>
<stop offset="0.78" stop-color="#D8D9FE"/>
</linearGradient>
<linearGradient id="paint5_linear_7058_123027" x1="26.0608" y1="23.6043" x2="10.719" y2="-5.22605" gradientUnits="userSpaceOnUse">
<stop offset="0.09" stop-color="#6669FB"/>
<stop offset="0.31" stop-color="#9698FC"/>
<stop offset="0.51" stop-color="#BABCFD"/>
<stop offset="0.68" stop-color="#D0D1FE"/>
<stop offset="0.78" stop-color="#D8D9FE"/>
</linearGradient>
<linearGradient id="paint6_linear_7058_123027" x1="158.12" y1="616.755" x2="3479.02" y2="616.755" gradientUnits="userSpaceOnUse">
<stop stop-color="#8134BC"/>
<stop offset="1" stop-color="#21136E"/>
</linearGradient>
<linearGradient id="paint7_linear_7058_123027" x1="24.9307" y1="44.001" x2="13.8542" y2="5.49767" gradientUnits="userSpaceOnUse">
<stop stop-color="#6741C4"/>
<stop offset="0.76" stop-color="#DB59BE"/>
</linearGradient>
<linearGradient id="paint8_linear_7058_123027" x1="16.5768" y1="36.4721" x2="19.396" y2="46.6372" gradientUnits="userSpaceOnUse">
<stop offset="0.48" stop-color="#8134BC"/>
<stop offset="1" stop-color="#21136E"/>
</linearGradient>
<linearGradient id="paint9_linear_7058_123027" x1="188.438" y1="670.191" x2="1372.08" y2="1748.43" gradientUnits="userSpaceOnUse">
<stop stop-color="#8134BC"/>
<stop offset="1" stop-color="#21136E"/>
</linearGradient>
<linearGradient id="paint10_linear_7058_123027" x1="18.4477" y1="33.2042" x2="16.4973" y2="29.4371" gradientUnits="userSpaceOnUse">
<stop offset="0.18" stop-color="#6669FB"/>
<stop offset="0.78" stop-color="#D8D9FE"/>
</linearGradient>
</defs>
</svg>
