<svg width="20" height="20" viewBox="0 0 20 20" fill="none"
    xmlns="http://www.w3.org/2000/svg">
    <path d="M-4.37114e-07 10C-6.78523e-07 4.4772 4.47715 -1.95702e-07 10 -4.37114e-07C15.5228 -6.78523e-07 20 4.4772 20 10C20 15.5228 15.5228 20 10 20C4.47715 20 -1.95702e-07 15.5229 -4.37114e-07 10ZM1.5 10C1.5 14.6944 5.30558 18.5 10 18.5C14.6944 18.5 18.5 14.6944 18.5 10C18.5 5.3056 14.6944 1.5 10 1.5C5.30558 1.5 1.5 5.3056 1.5 10ZM7.96967 14.5303C7.67678 14.2374 7.67678 13.7626 7.96967 13.4697L11.4393 10L7.96967 6.5303C7.67678 6.2374 7.67678 5.7626 7.96967 5.4697C8.2626 5.1768 8.7374 5.1768 9.0303 5.4697L13.0303 9.4697C13.3232 9.7626 13.3232 10.2374 13.0303 10.5303L9.0303 14.5303C8.7374 14.8232 8.2626 14.8232 7.96967 14.5303Z" fill="#4C6FFF"/>
</svg>
