<svg width="35" height="36" viewBox="0 0 35 36" fill="none"
    xmlns="http://www.w3.org/2000/svg">
    <circle cx="17.5" cy="18" r="17.5" fill="#1877F2"/>
    <path d="M18 8.5C23.5229 8.5 28 12.9771 28 18.5C28 23.4912 24.3432 27.6283 19.5625 28.3785V21.3906H21.8926L22.3359 18.5H19.5625V16.625C19.5625 16.6249 19.5625 16.6251 19.5625 16.625C19.5626 15.883 19.9032 15.1589 20.9692 15.0714C21.0403 15.0655 21.1146 15.0625 21.1922 15.0625H22.4531V12.6016C22.4531 12.6016 22.3672 12.5869 22.2198 12.5656C21.9303 12.5238 21.404 12.4563 20.8274 12.4243C20.6266 12.4131 20.4197 12.4063 20.2146 12.4063C17.9305 12.4063 16.4375 13.7906 16.4375 16.2969V18.5H13.8984V21.3906H16.4375V28.3785C11.6568 27.6283 8 23.4912 8 18.5C8 12.9771 12.4771 8.5 18 8.5Z" fill="white"/>
</svg>
