<svg width="10" height="12" viewBox="0 0 10 12" fill="none" xmlns="http://www.w3.org/2000/svg">
<path d="M7.85538 6.01747V6.56025C7.85751 8.04289 7.50517 9.50403 6.82847 10.8189L6.70658 11.0469L5.76974 10.5182C6.39605 9.38159 6.7422 8.10875 6.77878 6.80776L6.78307 6.56025V6.01747H7.85538ZM4.63845 4.38913H5.71076V6.56025L5.70826 6.76615C5.6677 8.25219 5.16248 9.6869 4.26529 10.8638L4.14126 11.0212L3.31022 10.3337C4.12866 9.32187 4.59442 8.06493 4.63524 6.75782L4.63845 6.56025V4.38913ZM5.17461 2.218C5.88559 2.218 6.56746 2.50393 7.0702 3.01289C7.57294 3.52184 7.85538 4.21214 7.85538 4.93191H6.78307C6.78307 4.50005 6.61361 4.08587 6.31196 3.7805C6.01032 3.47512 5.6012 3.30357 5.17461 3.30357C4.74802 3.30357 4.3389 3.47512 4.03725 3.7805C3.73561 4.08587 3.56614 4.50005 3.56614 4.93191V6.56025C3.56751 7.75634 3.13418 8.91114 2.34872 9.80463L2.23505 9.92947L1.45727 9.18044C2.0846 8.51606 2.45154 7.64318 2.48955 6.7249L2.49383 6.56025V4.93191C2.49383 4.21214 2.77627 3.52184 3.27901 3.01289C3.78176 2.50393 4.46362 2.218 5.17461 2.218ZM5.17461 0.0468801C6.45438 0.0468801 7.68174 0.561551 8.58668 1.47767C9.49161 2.39379 10 3.63632 10 4.93191V6.56025C9.99994 7.47284 9.89194 8.38214 9.67831 9.26873L9.6036 9.56111L8.57025 9.27416C8.78133 8.48872 8.89975 7.68074 8.92304 6.8671L8.92769 6.56025V4.93191C8.92769 4.22676 8.73386 3.53553 8.36788 2.93556C8.0019 2.3356 7.47821 1.85057 6.85544 1.53477C6.23266 1.21897 5.53535 1.08485 4.84156 1.14743C4.14777 1.21 3.48487 1.4668 2.92705 1.88908L2.16321 1.11507C3.01751 0.422133 4.07992 0.0452776 5.17461 0.0468801ZM1.40437 1.88329L2.16892 2.65693C1.70912 3.2774 1.44894 4.02603 1.42367 4.80128L1.42152 4.93191L1.42367 6.01747C1.4245 6.617 1.28446 7.20813 1.01512 7.74207L0.93148 7.89947L0 7.36103C0.204792 6.99873 0.323379 6.5931 0.346356 6.17632L0.35136 6.01747V4.93191C0.34822 3.82379 0.719816 2.74797 1.40437 1.88329Z" fill="#A0AEC0"/>
</svg>
