<svg width="21" height="20" viewBox="0 0 21 20" fill="none"
    xmlns="http://www.w3.org/2000/svg">
    <path d="M21 16.285L17.2463 20L16.3208 19.084L18.4907 16.9364H11.8472V15.6336H18.4907L16.3208 13.486L17.2463 12.57L21 16.285ZM13.8937 14.2697C13.6263 13.6862 13.287 13.1603 12.8756 12.6921C12.4643 12.2239 11.9946 11.8202 11.4667 11.4809C10.9388 11.1416 10.3766 10.8804 9.78012 10.6972C9.18364 10.514 8.55632 10.4224 7.89814 10.4224C7.29481 10.4224 6.71205 10.5004 6.14985 10.6565C5.58766 10.8126 5.06317 11.0297 4.5764 11.3079C4.08962 11.5861 3.6474 11.9254 3.24976 12.3257C2.85211 12.726 2.5093 13.1671 2.22135 13.6489C1.9334 14.1306 1.71058 14.6497 1.55289 15.2061C1.3952 15.7625 1.31636 16.3393 1.31636 16.9364H0C0 16.1425 0.11998 15.3656 0.359941 14.6056C0.599902 13.8456 0.946131 13.1433 1.39863 12.4987C1.85113 11.8541 2.38932 11.2807 3.01322 10.7786C3.63712 10.2765 4.33301 9.89313 5.10088 9.6285C4.71694 9.38422 4.37414 9.10263 4.07248 8.78372C3.77081 8.4648 3.51028 8.11535 3.29089 7.73537C3.0715 7.35539 2.91038 6.95505 2.80754 6.53435C2.7047 6.11366 2.64643 5.6726 2.63271 5.2112C2.63271 4.49194 2.76983 3.81679 3.04407 3.18575C3.31832 2.55471 3.69197 2.0017 4.16503 1.52672C4.6381 1.05174 5.19687 0.678541 5.84133 0.407125C6.4858 0.135708 7.1714 0 7.89814 0C8.62488 0 9.30705 0.135708 9.94466 0.407125C10.5823 0.678541 11.141 1.04835 11.621 1.51654C12.1009 1.98473 12.478 2.53774 12.7522 3.17557C13.0264 3.8134 13.1636 4.49194 13.1636 5.2112C13.1636 6.1408 12.9476 6.98219 12.5157 7.73537C12.0837 8.48855 11.477 9.11959 10.6954 9.6285C11.189 9.8117 11.6552 10.039 12.094 10.3104C12.5328 10.5818 12.9373 10.894 13.3075 11.2468C13.6778 11.5997 14.0137 11.9864 14.3154 12.4071C14.617 12.8278 14.8776 13.2723 15.097 13.7405L13.8937 14.2697ZM3.94907 5.2112C3.94907 5.75403 4.05191 6.25954 4.25759 6.72774C4.46327 7.19593 4.74437 7.60984 5.10088 7.96947C5.45739 8.32909 5.87561 8.61069 6.35553 8.81425C6.83546 9.01781 7.34966 9.11959 7.89814 9.11959C8.43976 9.11959 8.95054 9.01781 9.43046 8.81425C9.91038 8.61069 10.3286 8.33249 10.6851 7.97964C11.0416 7.6268 11.3262 7.21289 11.5387 6.73791C11.7512 6.26293 11.8541 5.75403 11.8472 5.2112C11.8472 4.67515 11.7444 4.16964 11.5387 3.69466C11.333 3.21968 11.0519 2.80577 10.6954 2.45293C10.3389 2.10008 9.91724 1.81849 9.43046 1.60814C8.94368 1.39779 8.43291 1.29601 7.89814 1.3028C7.34966 1.3028 6.83888 1.40458 6.36582 1.60814C5.89275 1.8117 5.47453 2.08991 5.11117 2.44275C4.7478 2.79559 4.46327 3.21289 4.25759 3.69466C4.05191 4.17642 3.94907 4.68193 3.94907 5.2112Z" fill="white"/>
</svg>
