<svg xmlns="http://www.w3.org/2000/svg" width="14" height="14" fill="none" viewBox="0 0 14 14">
    <g clip-path="url(#clip0)">
        <path fill="#000" d="M7.142 6v2.4h4.052c-.165 1.03-1.225 3.02-4.052 3.02-1.181-.022-2.306-.497-3.133-1.323-.828-.826-1.291-1.938-1.291-3.095 0-1.158.463-2.27 1.29-3.096.828-.826 1.953-1.3 3.134-1.323 1.057-.022 2.08.366 2.848 1.078l1.936-1.827C10.634.638 8.92-.02 7.142 0c-1.894 0-3.71.738-5.05 2.05C.752 3.364 0 5.145 0 7c0 1.857.752 3.637 2.092 4.95C3.432 13.263 5.248 14 7.142 14 11.263 14 14 11.163 14 7.16c-.001-.389-.04-.777-.114-1.16H7.142z"/>
    </g>
    <defs>
        <clipPath id="clip0">
            <path fill="#fff" d="M0 0H14V14H0z"/>
        </clipPath>
    </defs>
</svg>
