<svg width="35" height="36" viewBox="0 0 35 36" fill="none"
    xmlns="http://www.w3.org/2000/svg">
    <circle cx="17.5" cy="18" r="17.5" fill="#FF5A5A"/>
    <path d="M18.1416 17.5002V19.9005H22.1937C22.0287 20.9302 20.9685 22.9198 18.1416 22.9198C16.9608 22.8981 15.8358 22.423 15.0086 21.5968C14.1813 20.7706 13.7179 19.6592 13.7179 18.5016C13.7179 17.344 14.1813 16.2326 15.0086 15.4064C15.8358 14.5802 16.9608 14.1052 18.1416 14.0835C19.1987 14.0613 20.2221 14.4486 20.9896 15.1615L22.9261 13.3337C21.6342 12.1376 19.9187 11.4803 18.1416 11.5005C16.2476 11.5005 14.4311 12.2379 13.0917 13.5507C11.7524 14.8635 11 16.6439 11 18.5005C11 20.357 11.7524 22.1374 13.0917 23.4502C14.4311 24.763 16.2476 25.5005 18.1416 25.5005C22.2632 25.5005 25 22.6616 25 18.6603C24.9988 18.2711 24.9607 17.8829 24.8861 17.5006L18.1416 17.5002Z" fill="white"/>
</svg>
