<svg xmlns="http://www.w3.org/2000/svg" width="84" height="74" fill="none" viewBox="0 0 84 74">
    <g fill="#4866DD" clip-path="url(#clip0)">
        <path d="M41.134 34.377c.558.209 1.173.209 1.73 0L74 22.677V49.65c1.614-.423 3.309-.423 4.922 0V20.826l3.49-1.25c.467-.18.867-.496 1.15-.909.283-.412.434-.9.434-1.401 0-.5-.151-.989-.434-1.401-.283-.413-.683-.73-1.15-.91L42.866.156c-.559-.207-1.173-.207-1.73 0l-39.543 14.8c-.467.18-.867.497-1.15.91-.283.412-.434.9-.434 1.401 0 .5.151.99.434 1.402.283.412.683.729 1.15.908l39.542 14.8zM76.455 54.268c-4.208 0-7.383 5.301-7.383 12.333v4.933c0 .324.064.645.187.944.124.3.305.572.534.8.229.23.5.411.799.535.299.124.619.188.942.187h9.845c.323 0 .643-.063.942-.187.298-.124.57-.306.798-.535.229-.229.41-.5.534-.8.123-.3.187-.62.186-.944v-4.933c0-7.03-3.174-12.333-7.384-12.333z"/>
        <path d="M67.456 30.404L44.59 38.997c-1.668.623-3.503.623-5.17 0l-22.88-8.599c-1.24 4.558-1.784 9.277-1.617 13.997 0 .403.099.8.287 1.157.189.356.461.661.794.888.333.227.716.369 1.116.413.4.045.804-.01 1.178-.157 3.65-1.378 7.498-2.152 11.396-2.291 5.194 0 10.717 4.35 10.772 4.396.437.348.978.537 1.536.537s1.099-.189 1.535-.537c1.524-1.223 6.43-4.394 10.769-4.394 3.897.138 7.745.911 11.395 2.289.373.147.777.2 1.175.156.4-.045.781-.186 1.113-.411.332-.226.604-.53.793-.884.19-.355.289-.75.29-1.152.164-4.722-.38-9.441-1.615-14.001z"/>
    </g>
    <defs>
        <clipPath id="clip0">
            <path fill="#fff" d="M0 0H84V74H0z"/>
        </clipPath>
    </defs>
</svg>
