<svg width="14" height="14" viewBox="0 0 14 14" fill="none" xmlns="http://www.w3.org/2000/svg">
<path d="M7.00016 0.333984C10.6822 0.333984 13.6668 3.31932 13.6668 7.00065C13.6668 10.682 10.6822 13.6673 7.00016 13.6673C3.31816 13.6673 0.333496 10.682 0.333496 7.00065C0.333496 3.31932 3.31816 0.333984 7.00016 0.333984ZM7.00016 1.44532C3.93683 1.44532 1.44483 3.93732 1.44483 7.00065C1.44483 10.064 3.93683 12.556 7.00016 12.556C10.0635 12.556 12.5555 10.064 12.5555 7.00065C12.5555 3.93732 10.0635 1.44532 7.00016 1.44532ZM7.00016 9.33398C7.36836 9.33398 7.66683 9.63245 7.66683 10.0007C7.66683 10.3689 7.36836 10.6673 7.00016 10.6673C6.63196 10.6673 6.3335 10.3689 6.3335 10.0007C6.3335 9.63245 6.63196 9.33398 7.00016 9.33398ZM7.00016 3.50065C8.0127 3.50065 8.8335 4.32146 8.8335 5.33398C8.8335 6.00785 8.63516 6.38332 8.13276 6.90638L8.02036 7.02085C7.60576 7.43545 7.50016 7.61152 7.50016 8.00065C7.50016 8.27678 7.2763 8.50065 7.00016 8.50065C6.72403 8.50065 6.50016 8.27678 6.50016 8.00065C6.50016 7.32678 6.6985 6.95132 7.2009 6.42825L7.3133 6.31378C7.7279 5.89918 7.8335 5.72312 7.8335 5.33398C7.8335 4.87374 7.46043 4.50065 7.00016 4.50065C6.5687 4.50065 6.21383 4.82856 6.17116 5.24878L6.16683 5.33398C6.16683 5.61012 5.94296 5.83398 5.66683 5.83398C5.39069 5.83398 5.16683 5.61012 5.16683 5.33398C5.16683 4.32146 5.98763 3.50065 7.00016 3.50065Z" fill="#4C6FFF"/>
</svg>
