<svg width="46" height="44" viewBox="0 0 46 44" fill="none"
    xmlns="http://www.w3.org/2000/svg">
    <rect x="0.760742" width="44.7608" height="43.6149" fill="#1883BB"/>
    <g clip-path="url(#clip0)">
        <path d="M18.2741 30.9992V18.8568H14.2376V30.9992H18.2741ZM16.2564 17.1952C16.5456 17.2198 16.8368 17.1843 17.1117 17.091C17.3866 16.9976 17.6392 16.8484 17.8536 16.6527C18.068 16.457 18.2397 16.2191 18.3577 15.9539C18.4757 15.6887 18.5376 15.4019 18.5394 15.1116C18.5413 14.8213 18.483 14.5338 18.3684 14.2671C18.2538 14.0004 18.0852 13.7603 17.8733 13.5619C17.6613 13.3635 17.4107 13.2111 17.137 13.1142C16.8633 13.0174 16.5726 12.9782 16.2831 12.9992C15.9946 12.974 15.7041 13.0086 15.4297 13.1009C15.1553 13.1931 14.9028 13.341 14.6882 13.5353C14.4735 13.7296 14.3013 13.9661 14.1822 14.23C14.0632 14.4939 13.9999 14.7795 13.9963 15.069C13.9926 15.3585 14.0488 15.6456 14.1613 15.9124C14.2737 16.1792 14.44 16.4199 14.6498 16.6195C14.8595 16.8191 15.1082 16.9732 15.3802 17.0723C15.6522 17.1713 15.9418 17.2132 16.2308 17.1952H16.2569H16.2564ZM20.5084 30.9992H24.5448V24.217C24.5292 23.8834 24.5743 23.5497 24.6777 23.2321C24.8288 22.8027 25.1088 22.4303 25.4795 22.1661C25.8502 21.9018 26.2935 21.7585 26.7488 21.7557C28.2095 21.7557 28.7937 22.8692 28.7937 24.502V30.9992H32.8276V24.0344C32.8276 20.3039 30.836 18.5686 28.1802 18.5686C27.4402 18.5389 26.7063 18.7143 26.0597 19.0753C25.413 19.4363 24.8786 19.969 24.5156 20.6145H24.5428V18.8541H20.5089C20.5612 19.9937 20.5089 30.9987 20.5089 30.9987L20.5084 30.9992Z" fill="white"/>
    </g>
    <defs>
        <clipPath id="clip0">
            <rect width="18.8305" height="18" fill="white" transform="translate(14 13)"/>
        </clipPath>
    </defs>
</svg>
