<svg width="13" height="14" viewBox="0 0 13 14" fill="none"
    xmlns="http://www.w3.org/2000/svg">
    <g clip-path="url(#clip0)">
        <path d="M7.22196 0.5L9.60048 2.87852L4.54492 7.93407L5.56614 8.9553L10.6217 3.89974L12.9997 6.27778V0.5H7.22196Z" fill="#4C6FFF"/>
        <path d="M11.5556 12.0556H1.44444V1.94444H6.5L5.05556 0.5H1.44444C1.06135 0.5 0.693954 0.652182 0.423068 0.923068C0.152182 1.19395 0 1.56135 0 1.94444V12.0556C0 12.4386 0.152182 12.806 0.423068 13.0769C0.693954 13.3478 1.06135 13.5 1.44444 13.5H11.5556C11.9386 13.5 12.306 13.3478 12.5769 13.0769C12.8478 12.806 13 12.4386 13 12.0556V8.44444L11.5556 7V12.0556Z" fill="#4C6FFF"/>
    </g>
    <defs>
        <clipPath id="clip0">
            <rect width="13" height="13" fill="white" transform="translate(0 0.5)"/>
        </clipPath>
    </defs>
</svg>
