<svg xmlns="http://www.w3.org/2000/svg" width="16" height="16" fill="none" viewBox="0 0 16 16">
    <g clip-path="url(#clip0)">
        <path fill="#16192C" d="M14.819 0H1.18C.868 0 .567.124.346.346.124.567 0 .868 0 1.18V14.82c0 .313.124.614.346.835.221.222.522.346.835.346H14.82c.313 0 .614-.124.835-.346.222-.221.346-.522.346-.835V1.18c0-.313-.124-.614-.346-.835C15.433.124 15.132 0 14.82 0zM4.769 13.63H2.363V5.989H4.77v7.641zm-1.205-8.7c-.272-.002-.539-.084-.765-.237-.226-.152-.402-.369-.505-.621-.103-.253-.13-.53-.075-.798.054-.267.186-.512.38-.705.193-.192.44-.323.707-.375.268-.053.545-.025.797.08.252.105.467.282.619.51.15.226.232.493.231.766.003.183-.031.364-.1.533-.07.17-.172.323-.301.452-.13.128-.284.23-.454.298-.17.068-.35.1-.534.097zm10.072 8.707H11.23V9.462c0-1.23-.523-1.61-1.199-1.61-.713 0-1.413.537-1.413 1.641v4.144H6.213V5.994h2.314v1.06h.03c.233-.47 1.046-1.274 2.287-1.274 1.343 0 2.793.797 2.793 3.13l-.001 4.727z"/>
    </g>
    <defs>
        <clipPath id="clip0">
            <path fill="#fff" d="M0 0H16V16H0z"/>
        </clipPath>
    </defs>
</svg>
