<svg xmlns="http://www.w3.org/2000/svg" width="21.307" height="21.307" viewBox="0 0 21.307 21.307"><defs><style>.a{fill:#ffc107;}.b{fill:#ff3d00;}.c{fill:#4caf50;}.d{fill:#1976d2;}</style></defs><g transform="translate(-3 -3)"><path class="a" d="M24.1,11.567h-.858v-.044H13.654v4.261h6.021a6.4,6.4,0,1,1-1.78-6.9l3.014-3.014a10.643,10.643,0,1,0,3.4,7.787A10.744,10.744,0,0,0,24.1,11.567Z"/><path class="b" d="M4.729,8.695l3.5,2.567A6.38,6.38,0,0,1,18.4,8.88l3.014-3.014A10.634,10.634,0,0,0,4.729,8.695Z" transform="translate(-0.501)"/><path class="c" d="M14.13,29.534a10.6,10.6,0,0,0,7.143-2.766l-3.3-2.791A6.375,6.375,0,0,1,8.12,21.04L4.646,23.717A10.645,10.645,0,0,0,14.13,29.534Z" transform="translate(-0.477 -5.227)"/><path class="d" d="M28.446,15.044h-.858V15H18v4.261h6.021a6.413,6.413,0,0,1-2.177,2.967h0l3.3,2.791a10.306,10.306,0,0,0,3.511-7.887A10.744,10.744,0,0,0,28.446,15.044Z" transform="translate(-4.346 -3.477)"/></g></svg>