<svg xmlns="http://www.w3.org/2000/svg" width="22.208" height="21.229" viewBox="0 0 22.208 21.229"><defs><style>.a{fill:#0077b5;}</style></defs><path class="a" d="M5.041,21.229V6.906H.281V21.229ZM2.662,4.949A2.482,2.482,0,1,0,2.693,0a2.481,2.481,0,1,0-.062,4.949h.031Zm5.015,16.28h4.76v-8a3.259,3.259,0,0,1,.157-1.161,2.606,2.606,0,0,1,2.443-1.741c1.723,0,2.412,1.313,2.412,3.239v7.663h4.76V13.016c0-4.4-2.349-6.446-5.481-6.446a4.741,4.741,0,0,0-4.322,2.413h.032V6.905H7.677c.062,1.344,0,14.323,0,14.323Z"/></svg>