<svg xmlns="http://www.w3.org/2000/svg" width="21.936" height="17.827" viewBox="0 0 21.936 17.827"><defs><style>.a{fill:#55acee;}</style></defs><path class="a" d="M21.937,2.226a9.018,9.018,0,0,1-2.585.709A4.513,4.513,0,0,0,21.33.445a9.013,9.013,0,0,1-2.858,1.092A4.505,4.505,0,0,0,10.8,5.642,12.776,12.776,0,0,1,1.527.94,4.505,4.505,0,0,0,2.92,6.948,4.482,4.482,0,0,1,.882,6.385q0,.028,0,.057a4.5,4.5,0,0,0,3.61,4.413,4.507,4.507,0,0,1-2.032.077,4.5,4.5,0,0,0,4.2,3.125,9.03,9.03,0,0,1-5.589,1.927A9.186,9.186,0,0,1,0,15.922a12.737,12.737,0,0,0,6.9,2.022,12.717,12.717,0,0,0,12.8-12.8q0-.292-.013-.583a9.147,9.147,0,0,0,2.245-2.33" transform="translate(-0.001 -0.116)"/></svg>