<svg width="9" height="9" viewBox="0 0 9 9" fill="none"
    xmlns="http://www.w3.org/2000/svg">
    <path fill-rule="evenodd" clip-rule="evenodd" d="M9 4.5C9 5.39002 8.73608 6.26005 8.24162 7.00007C7.74715 7.74009 7.04434 8.31686 6.22208 8.65746C5.39981 8.99805 4.49501 9.08717 3.6221 8.91353C2.74918 8.7399 1.94736 8.31132 1.31802 7.68198C0.688685 7.05264 0.260102 6.25082 0.0864683 5.37791C-0.0871652 4.50499 0.00194979 3.60019 0.342544 2.77792C0.683138 1.95566 1.25991 1.25285 1.99994 0.758387C2.73996 0.26392 3.60999 0 4.5 0C5.69348 0 6.83807 0.474106 7.68198 1.31802C8.5259 2.16193 9 3.30653 9 4.5ZM6.76675 2.79575C6.72657 2.75572 6.67873 2.7242 6.6261 2.70307C6.57346 2.68194 6.51711 2.67164 6.4604 2.67279C6.40369 2.67393 6.3478 2.68649 6.29606 2.70973C6.24431 2.73296 6.19779 2.76638 6.15925 2.808L4.20575 5.297L3.0285 4.11925C2.94835 4.04569 2.84289 4.00593 2.73412 4.00826C2.62535 4.01059 2.52169 4.05484 2.44476 4.13176C2.36784 4.20869 2.32359 4.31235 2.32126 4.42112C2.31893 4.52988 2.35869 4.63535 2.43225 4.7155L3.9205 6.20425C3.96061 6.24427 4.00836 6.2758 4.06091 6.29696C4.11347 6.31813 4.16974 6.3285 4.22639 6.32745C4.28303 6.3264 4.33889 6.31395 4.39062 6.29085C4.44235 6.26775 4.48891 6.23448 4.5275 6.193L6.773 3.386C6.84958 3.3064 6.89189 3.19995 6.89087 3.0895C6.88984 2.97905 6.84555 2.87341 6.7675 2.79525L6.76675 2.79575Z" fill="white" />
</svg>