<svg width="12" height="11" viewBox="0 0 12 11" fill="none" xmlns="http://www.w3.org/2000/svg">
<g clip-path="url(#clip0_8949_111283)">
<path d="M2.58595 7.31497L4.31424 9.04245C4.20149 9.15919 4.06662 9.2523 3.9175 9.31636C3.76837 9.38042 3.60799 9.41413 3.4457 9.41554C3.2834 9.41695 3.12246 9.38603 2.97224 9.32457C2.82203 9.26311 2.68556 9.17236 2.5708 9.0576C2.45604 8.94283 2.36528 8.80637 2.30383 8.65615C2.24237 8.50594 2.21144 8.34499 2.21285 8.1827C2.21426 8.02041 2.24798 7.86002 2.31204 7.7109C2.3761 7.56178 2.46921 7.42691 2.58595 7.31416V7.31497ZM8.00467 10.5687L7.5728 11.0001L0.666992 4.0943L1.09845 3.66243L1.77192 3.75818C1.99356 3.79303 2.21992 3.78342 2.43781 3.72991C2.6557 3.6764 2.86076 3.58006 3.04104 3.4465L5.41509 1.07286C5.75422 0.728542 6.15814 0.454755 6.60358 0.267274C7.04901 0.0797936 7.52715 -0.017672 8.01042 -0.0195049C8.4937 -0.0213378 8.97256 0.0724983 9.4194 0.256595C9.86625 0.440691 10.2722 0.711407 10.614 1.05314C10.9557 1.39487 11.2264 1.80086 11.4105 2.2477C11.5946 2.69454 11.6884 3.1734 11.6866 3.65668C11.6848 4.13996 11.5873 4.61809 11.3998 5.06353C11.2123 5.50896 10.9386 5.91288 10.5942 6.25201L8.2202 8.62687C8.0867 8.80719 7.9904 9.01225 7.93689 9.23013C7.88338 9.44801 7.87374 9.67436 7.90852 9.896L8.00426 10.5682L8.00467 10.5687Z" fill="url(#paint0_linear_8949_111283)"/>
</g>
<defs>
<linearGradient id="paint0_linear_8949_111283" x1="3.20151" y1="1.02733" x2="9.42761" y2="10.1736" gradientUnits="userSpaceOnUse">
<stop stop-color="#995AFF"/>
<stop offset="1" stop-color="#DC59BF"/>
</linearGradient>
<clipPath id="clip0_8949_111283">
<rect width="11" height="11" fill="white" transform="translate(0.666992)"/>
</clipPath>
</defs>
</svg>
