<svg width="24" height="24" viewBox="0 0 24 24" fill="none"
    xmlns="http://www.w3.org/2000/svg">
    <path fill-rule="evenodd" clip-rule="evenodd" d="M7.78107 1.53701C9.34538 1.12314 11.0068 0.75 12.0002 0.75C12.9936 0.75 14.655 1.12314 16.2193 1.53701C17.8187 1.96017 19.4301 2.45804 20.378 2.75993C21.169 3.01186 21.7673 3.69411 21.8822 4.53576C22.7418 10.832 20.7486 15.4972 18.331 18.584C17.1268 20.1217 15.8179 21.2677 14.7044 22.0341C14.1481 22.417 13.6324 22.7108 13.1945 22.9119C12.79 23.0978 12.3571 23.25 12.0002 23.25C11.6433 23.25 11.2104 23.0978 10.8058 22.9119C10.368 22.7108 9.85232 22.4171 9.29597 22.0341C8.18245 21.2677 6.87362 20.1217 5.66937 18.584C3.25178 15.4972 1.25855 10.832 2.11816 4.53576C2.23307 3.69411 2.83138 3.01186 3.62241 2.75993C4.57028 2.45804 6.18166 1.96017 7.78107 1.53701Z" fill="#2FD5DD"/>
    <path fill-rule="evenodd" clip-rule="evenodd" d="M16.0303 9.21967C16.3232 9.51256 16.3232 9.98744 16.0303 10.2803L11.5303 14.7803C11.3897 14.921 11.1989 15 11 15C10.8011 15 10.6103 14.921 10.4697 14.7803L8.21967 12.5303C7.92678 12.2374 7.92678 11.7626 8.21967 11.4697C8.51256 11.1768 8.98744 11.1768 9.28033 11.4697L11 13.1893L14.9697 9.21967C15.2626 8.92678 15.7374 8.92678 16.0303 9.21967Z" fill="#FFFFFF"/>
</svg>
