<svg xmlns="http://www.w3.org/2000/svg" width="13" height="13" fill="none" viewBox="0 0 13 13">
    <path fill="#2FD5DD" fill-rule="evenodd" d="M6.498.406c-.538 0-1.438.202-2.285.427-.867.229-1.74.498-2.253.662-.428.136-.752.506-.815.962-.465 3.41.614 5.937 1.924 7.61.652.832 1.361 1.453 1.964 1.868.302.208.581.367.818.476.22.1.454.183.647.183s.428-.083.647-.183c.237-.11.517-.268.818-.476.603-.415 1.312-1.036 1.964-1.869 1.31-1.672 2.39-4.199 1.924-7.61-.062-.455-.386-.825-.815-.961-.513-.164-1.386-.433-2.252-.662C7.936.608 7.036.406 6.498.406zM8.817 5.57c.158-.16.158-.416 0-.575-.159-.159-.416-.159-.575 0l-2.15 2.15-.932-.931c-.158-.159-.415-.159-.574 0-.159.158-.159.416 0 .574l1.219 1.219c.076.076.18.119.287.119.108 0 .21-.043.287-.119l2.438-2.437z" clip-rule="evenodd"/>
</svg>
