<svg width="16" height="17" viewBox="0 0 16 17" fill="none"
    xmlns="http://www.w3.org/2000/svg">
    <path fill-rule="evenodd" clip-rule="evenodd" d="M9.65456 8.5H2.33333C2.06884 8.5 1.93487 8.56796 1.86161 8.62124C1.77764 8.6823 1.70178 8.77801 1.63823 8.91665C1.57386 9.0571 1.5367 9.21076 1.51718 9.33853C1.5078 9.3999 1.50343 9.44909 1.50144 9.4794C1.50051 9.49366 1.50014 9.50327 1.5 9.50748V14.5C1.5 14.8419 1.57648 15.0313 1.63974 15.1348C1.70438 15.2406 1.79121 15.3152 1.89552 15.3721C2.00535 15.432 2.12567 15.4667 2.22576 15.4849C2.27366 15.4936 2.3111 15.4975 2.33224 15.4991C2.33815 15.4996 2.34259 15.4998 2.34544 15.5H9.66667C9.93116 15.5 10.0651 15.432 10.1384 15.3788C10.2224 15.3177 10.2982 15.222 10.3618 15.0833C10.4261 14.9429 10.4633 14.7892 10.4828 14.6615C10.4922 14.6001 10.4966 14.5509 10.4986 14.5206C10.4995 14.5063 10.4999 14.4967 10.5 14.4925V9.5C10.5 9.1581 10.4235 8.96871 10.3603 8.8652C10.2956 8.75943 10.2088 8.68479 10.1045 8.6279C9.99465 8.56799 9.87433 8.53332 9.77424 8.51512C9.72634 8.50641 9.6889 8.50253 9.66776 8.50088C9.66185 8.50042 9.65741 8.50015 9.65456 8.5ZM9.66667 7.5H2.33333C0.5 7.5 0.5 9.5 0.5 9.5V14.5C0.5 16.5 2.33333 16.5 2.33333 16.5H9.66667C11.5 16.5 11.5 14.5 11.5 14.5V9.5C11.5 7.5 9.66667 7.5 9.66667 7.5Z" fill="url(#paint0_linear_7214_40621)"/>
    <path fill-rule="evenodd" clip-rule="evenodd" d="M8.5 4.5C8.5 2.567 10.067 1 12 1C13.933 1 15.5 2.567 15.5 4.5V7.5H14.5V4.5C14.5 3.11929 13.3807 2 12 2C10.6193 2 9.5 3.11929 9.5 4.5V7.5H8.5V4.5Z" fill="url(#paint1_linear_7214_40621)"/>
    <defs>
        <linearGradient id="paint0_linear_7214_40621" x1="3.03" y1="8.355" x2="7.67688" y2="16.6984" gradientUnits="userSpaceOnUse">
            <stop stop-color="#995AFF"/>
            <stop offset="1" stop-color="#DC59BF"/>
        </linearGradient>
        <linearGradient id="paint1_linear_7214_40621" x1="10.11" y1="1.6175" x2="13.6757" y2="7.25857" gradientUnits="userSpaceOnUse">
            <stop stop-color="#995AFF"/>
            <stop offset="1" stop-color="#DC59BF"/>
        </linearGradient>
    </defs>
</svg>
