<?xml version="1.0" encoding="utf-8"?>
<!-- Generator: Adobe Illustrator 26.5.0, SVG Export Plug-In . SVG Version: 6.00 Build 0)  -->
<svg version="1.1" id="Layer_1" xmlns="http://www.w3.org/2000/svg" xmlns:xlink="http://www.w3.org/1999/xlink" x="0px" y="0px"
	 viewBox="0 0 228 160" style="enable-background:new 0 0 228 160;" xml:space="preserve">
<style type="text/css">
	.st0{fill:#E6EDF4;}
	.st1{fill:url(#SVGID_1_);}
	.st2{fill:url(#SVGID_00000064347601266749360510000010901101637557172363_);}
	.st3{fill:url(#SVGID_00000088843570787997520010000014160853934767624116_);}
	.st4{opacity:0.25;fill:url(#SVGID_00000093153196348372380800000003784176138050963882_);enable-background:new    ;}
	.st5{fill:url(#SVGID_00000054240537473855284310000014632319360677999769_);}
	.st6{fill:#F2F7FC;}
	.st7{opacity:0.6;fill:#F2F7FC;enable-background:new    ;}
	.st8{opacity:0.25;fill:url(#SVGID_00000078012880996263969740000008232527909927588770_);enable-background:new    ;}
	.st9{fill:url(#SVGID_00000026155200621100173260000009579849053704610954_);}
	.st10{fill:url(#SVGID_00000080885556996962296770000016489124959445860261_);}
	.st11{fill:url(#SVGID_00000002351333903720282320000007434960683810189470_);}
	.st12{opacity:0.25;fill:url(#SVGID_00000034807039629776678060000004830988633111222152_);enable-background:new    ;}
</style>
<path class="st0" d="M110.1,136.5l-85.5,23.2c-3.7,1-7.6-1.2-8.6-4.9L0.7,98.5c-1-3.7,1.2-7.6,4.9-8.6l85.5-23.2
	c3.7-1,7.6,1.2,8.6,4.9l15.3,56.4C116.1,131.7,113.9,135.5,110.1,136.5z"/>
<linearGradient id="SVGID_1_" gradientUnits="userSpaceOnUse" x1="0.4414" y1="68.1476" x2="105.974" y2="68.1476" gradientTransform="matrix(1 0 0 -1 0 162)">
	<stop  offset="0" style="stop-color:#D8D9FE"/>
	<stop  offset="0.9695" style="stop-color:#6669FB"/>
</linearGradient>
<path class="st1" d="M91.1,66.6L5.6,89.8c-3.7,1-5.9,4.9-4.9,8.6l6.2,22.9L106,94.4l-6.2-22.9C98.8,67.8,94.9,65.6,91.1,66.6z"/>
<linearGradient id="SVGID_00000183211850877117196470000011142865194455843982_" gradientUnits="userSpaceOnUse" x1="16.3789" y1="44.474" x2="101.3093" y2="44.474" gradientTransform="matrix(1 0 0 -1 0 162)">
	<stop  offset="0" style="stop-color:#D8D9FE"/>
	<stop  offset="0.9695" style="stop-color:#6669FB"/>
</linearGradient>
<path style="fill:url(#SVGID_00000183211850877117196470000011142865194455843982_);" d="M99.2,109.5L20,131c-1.5,0.4-3.1-0.5-3.5-2
	c-0.4-1.5,0.5-3.1,2-3.5L97.7,104c1.5-0.4,3.1,0.5,3.5,2C101.6,107.5,100.7,109.1,99.2,109.5z"/>
<linearGradient id="SVGID_00000147905876609003455870000013667660532200964001_" gradientUnits="userSpaceOnUse" x1="19.4336" y1="31.228" x2="89.6393" y2="31.228" gradientTransform="matrix(1 0 0 -1 0 162)">
	<stop  offset="0" style="stop-color:#D8D9FE"/>
	<stop  offset="0.9695" style="stop-color:#6669FB"/>
</linearGradient>
<path style="fill:url(#SVGID_00000147905876609003455870000013667660532200964001_);" d="M87.5,124.8L23,142.3
	c-1.5,0.4-3.1-0.5-3.5-2c-0.4-1.5,0.5-3.1,2-3.5L86,119.3c1.5-0.4,3.1,0.5,3.5,2C89.9,122.8,89,124.4,87.5,124.8z"/>
<linearGradient id="SVGID_00000096738039908060997190000004987664249473378952_" gradientUnits="userSpaceOnUse" x1="49.4144" y1="60.5184" x2="84.1778" y2="7.7014" gradientTransform="matrix(1 0 0 -1 0 162)">
	<stop  offset="0" style="stop-color:#812CBE;stop-opacity:0.5"/>
	<stop  offset="0.1722" style="stop-color:#7929B7;stop-opacity:0.5861"/>
	<stop  offset="0.4451" style="stop-color:#6222A5;stop-opacity:0.7225"/>
	<stop  offset="0.7827" style="stop-color:#3D1586;stop-opacity:0.8913"/>
	<stop  offset="1" style="stop-color:#210C70"/>
</linearGradient>
<path style="opacity:0.25;fill:url(#SVGID_00000096738039908060997190000004987664249473378952_);enable-background:new    ;" d="
	M77.4,105.4c-25.3,33.4-48.4,28.7-64.6,37.5l3.2,11.9c1,3.7,4.9,5.9,8.6,4.9l85.5-23.2c3.7-1,5.9-4.9,4.9-8.6l-14.6-53.6
	C95,81.7,87.8,91.6,77.4,105.4z"/>
<linearGradient id="SVGID_00000121992081055701711660000014039556274828762509_" gradientUnits="userSpaceOnUse" x1="157.2293" y1="139.381" x2="202.4673" y2="54.4973" gradientTransform="matrix(1 0 0 -1 0 162)">
	<stop  offset="0" style="stop-color:#D8D9FE"/>
	<stop  offset="0.9695" style="stop-color:#6669FB"/>
</linearGradient>
<path style="fill:url(#SVGID_00000121992081055701711660000014039556274828762509_);" d="M222.4,70.2l-85.5,23.2
	c-3.7,1-7.6-1.2-8.6-4.9l-15.3-56.4c-1-3.7,1.2-7.6,4.9-8.6l85.5-23.2c3.7-1,7.6,1.2,8.6,4.9l15.3,56.4
	C228.3,65.3,226.1,69.1,222.4,70.2z"/>
<path class="st6" d="M203.4,0.2l-85.5,23.2c-3.7,1-6,4.9-4.9,8.6l6.2,22.9L218.2,28L212,5.2C211,1.5,207.1-0.8,203.4,0.2z"/>
<path class="st7" d="M211.4,43.1l-79.2,21.5c-1.5,0.4-3.1-0.5-3.5-2c-0.4-1.5,0.5-3.1,2-3.5L210,37.6c1.5-0.4,3.1,0.5,3.5,2
	C213.9,41.2,213,42.7,211.4,43.1z"/>
<path class="st7" d="M199.8,58.4l-64.5,17.5c-1.5,0.4-3.1-0.5-3.5-2c-0.4-1.5,0.5-3.1,2-3.5l64.5-17.5c1.5-0.4,3.1,0.5,3.5,2
	C202.2,56.4,201.3,58,199.8,58.4z"/>
<linearGradient id="SVGID_00000024697375119396712410000012520648805128422807_" gradientUnits="userSpaceOnUse" x1="161.6702" y1="126.8987" x2="196.4332" y2="74.082" gradientTransform="matrix(1 0 0 -1 0 162)">
	<stop  offset="0" style="stop-color:#812CBE;stop-opacity:0.5"/>
	<stop  offset="0.1722" style="stop-color:#7929B7;stop-opacity:0.5861"/>
	<stop  offset="0.4451" style="stop-color:#6222A5;stop-opacity:0.7225"/>
	<stop  offset="0.7827" style="stop-color:#3D1586;stop-opacity:0.8913"/>
	<stop  offset="1" style="stop-color:#210C70"/>
</linearGradient>
<path style="opacity:0.25;fill:url(#SVGID_00000024697375119396712410000012520648805128422807_);enable-background:new    ;" d="
	M189.6,39.1c-25.3,33.4-48.4,28.7-64.6,37.5l3.2,11.9c1,3.7,4.9,5.9,8.6,4.9l85.5-23.2c3.7-1,5.9-4.9,4.9-8.6L212.8,8
	C207.2,15.4,200.1,25.3,189.6,39.1z"/>
<path class="st0" d="M147.7,83l-85.5,23.2c-3.7,1-7.6-1.2-8.6-4.9L38.3,44.9c-1-3.7,1.2-7.6,4.9-8.6L128.7,13c3.7-1,7.6,1.2,8.6,4.9
	l15.3,56.4C153.7,78.1,151.4,81.9,147.7,83z"/>
<linearGradient id="SVGID_00000068654765673495716360000009064303050019289478_" gradientUnits="userSpaceOnUse" x1="38.0344" y1="121.7383" x2="143.567" y2="121.7383" gradientTransform="matrix(1 0 0 -1 0 162)">
	<stop  offset="0" style="stop-color:#D8D9FE"/>
	<stop  offset="0.9695" style="stop-color:#6669FB"/>
</linearGradient>
<path style="fill:url(#SVGID_00000068654765673495716360000009064303050019289478_);" d="M128.7,13L43.2,36.3
	c-3.7,1-5.9,4.9-4.9,8.6l6.2,22.9l99.1-26.9L137.4,18C136.3,14.2,132.5,12,128.7,13z"/>
<linearGradient id="SVGID_00000158749972560904490200000004063707909736094336_" gradientUnits="userSpaceOnUse" x1="53.9719" y1="98.0647" x2="138.9023" y2="98.0647" gradientTransform="matrix(1 0 0 -1 0 162)">
	<stop  offset="0" style="stop-color:#D8D9FE"/>
	<stop  offset="0.9695" style="stop-color:#6669FB"/>
</linearGradient>
<path style="fill:url(#SVGID_00000158749972560904490200000004063707909736094336_);" d="M136.8,55.9L57.6,77.4
	c-1.5,0.4-3.1-0.5-3.5-2c-0.4-1.5,0.5-3.1,2-3.5l79.2-21.5c1.5-0.4,3.1,0.5,3.5,2C139.2,54,138.3,55.5,136.8,55.9z"/>
<linearGradient id="SVGID_00000090291102201971902490000009401695503734359970_" gradientUnits="userSpaceOnUse" x1="57.0266" y1="84.8187" x2="127.2323" y2="84.8187" gradientTransform="matrix(1 0 0 -1 0 162)">
	<stop  offset="0" style="stop-color:#D8D9FE"/>
	<stop  offset="0.9695" style="stop-color:#6669FB"/>
</linearGradient>
<path style="fill:url(#SVGID_00000090291102201971902490000009401695503734359970_);" d="M125.1,71.2L60.6,88.7
	c-1.5,0.4-3.1-0.5-3.5-2c-0.4-1.5,0.5-3.1,2-3.5l64.5-17.5c1.5-0.4,3.1,0.5,3.5,2C127.5,69.2,126.6,70.8,125.1,71.2z"/>
<linearGradient id="SVGID_00000146474524777134921900000000852632929162918836_" gradientUnits="userSpaceOnUse" x1="87.0074" y1="114.1091" x2="121.7708" y2="61.2921" gradientTransform="matrix(1 0 0 -1 0 162)">
	<stop  offset="0" style="stop-color:#812CBE;stop-opacity:0.5"/>
	<stop  offset="0.1722" style="stop-color:#7929B7;stop-opacity:0.5861"/>
	<stop  offset="0.4451" style="stop-color:#6222A5;stop-opacity:0.7225"/>
	<stop  offset="0.7827" style="stop-color:#3D1586;stop-opacity:0.8913"/>
	<stop  offset="1" style="stop-color:#210C70"/>
</linearGradient>
<path style="opacity:0.25;fill:url(#SVGID_00000146474524777134921900000000852632929162918836_);enable-background:new    ;" d="
	M114.9,51.9C89.6,85.3,66.5,80.6,50.3,89.3l3.2,11.9c1,3.7,4.9,5.9,8.6,4.9l85.5-23.2c3.7-1,5.9-4.9,4.9-8.6l-14.6-53.6
	C132.6,28.2,125.4,38,114.9,51.9z"/>
</svg>
