<svg width="16" height="17" viewBox="0 0 16 17" fill="none"
    xmlns="http://www.w3.org/2000/svg">
    <path d="M3.49973 8.49973C3.49973 6.01445 5.51445 3.99973 7.99973 3.99973C10.485 3.99973 12.4997 6.01445 12.4997 8.49973C12.4997 10.985 10.485 12.9997 7.99973 12.9997C5.51445 12.9997 3.49973 10.985 3.49973 8.49973Z" fill="url(#paint0_linear_7214_100068)"/>
    <path fill-rule="evenodd" clip-rule="evenodd" d="M8.20217 0.779084C8.10236 0.641347 7.89711 0.641347 7.7973 0.779084L6.8871 2.03512C6.8104 2.14095 6.66513 2.16985 6.55377 2.10142L5.23219 1.28932C5.08727 1.20026 4.89765 1.2788 4.85814 1.44425L4.49789 2.95299C4.46753 3.08012 4.34438 3.16241 4.21531 3.14181L2.68355 2.89727C2.51558 2.87045 2.37045 3.01558 2.39727 3.18355L2.64181 4.71531C2.66241 4.84438 2.58012 4.96753 2.45299 4.99789L0.944252 5.35814C0.778803 5.39765 0.70026 5.58727 0.789315 5.73219L1.60142 7.05377C1.66985 7.16513 1.64095 7.3104 1.53512 7.3871L0.279084 8.2973C0.141347 8.39711 0.141347 8.60236 0.279084 8.70217L1.53512 9.61237C1.64095 9.68906 1.66985 9.83434 1.60142 9.94569L0.789315 11.2673C0.70026 11.4122 0.778803 11.6018 0.944252 11.6413L2.45299 12.0016C2.58012 12.0319 2.66241 12.1551 2.64181 12.2842L2.39727 13.8159C2.37045 13.9839 2.51558 14.129 2.68355 14.1022L4.21531 13.8577C4.34438 13.8371 4.46753 13.9193 4.49789 14.0465L4.85814 15.5552C4.89765 15.7207 5.08727 15.7992 5.23219 15.7102L6.55377 14.898C6.66513 14.8296 6.8104 14.8585 6.8871 14.9644L7.7973 16.2204C7.89711 16.3581 8.10236 16.3581 8.20217 16.2204L9.11237 14.9644C9.18906 14.8585 9.33434 14.8296 9.44569 14.898L10.7673 15.7102C10.9122 15.7992 11.1018 15.7207 11.1413 15.5552L11.5016 14.0465C11.5319 13.9193 11.6551 13.8371 11.7842 13.8577L13.3159 14.1022C13.4839 14.129 13.629 13.9839 13.6022 13.8159L13.3577 12.2842C13.3371 12.1551 13.4193 12.0319 13.5465 12.0016L15.0552 11.6413C15.2207 11.6018 15.2992 11.4122 15.2102 11.2673L14.398 9.94569C14.3296 9.83434 14.3585 9.68906 14.4644 9.61237L15.7204 8.70217C15.8581 8.60236 15.8581 8.39711 15.7204 8.2973L14.4644 7.3871C14.3585 7.3104 14.3296 7.16513 14.398 7.05377L15.2102 5.73219C15.2992 5.58727 15.2207 5.39765 15.0552 5.35814L13.5465 4.99789C13.4193 4.96753 13.3371 4.84438 13.3577 4.71531L13.6022 3.18355C13.629 3.01558 13.4839 2.87045 13.3159 2.89727L11.7842 3.14181C11.6551 3.16241 11.5319 3.08012 11.5016 2.95299L11.1413 1.44425C11.1018 1.2788 10.9122 1.20026 10.7673 1.28932L9.44569 2.10142C9.33434 2.16985 9.18906 2.14095 9.11237 2.03512L8.20217 0.779084ZM7.99973 2.99973C4.96217 2.99973 2.49973 5.46217 2.49973 8.49973C2.49973 11.5373 4.96217 13.9997 7.99973 13.9997C11.0373 13.9997 13.4997 11.5373 13.4997 8.49973C13.4997 5.46217 11.0373 2.99973 7.99973 2.99973Z" fill="url(#paint1_linear_7214_100068)"/>
    <defs>
        <linearGradient id="paint0_linear_7214_100068" x1="3.7748" y1="2.16233" x2="12.6159" y2="15.1501" gradientUnits="userSpaceOnUse">
            <stop stop-color="#995AFF"/>
            <stop offset="1" stop-color="#DC59BF"/>
        </linearGradient>
        <linearGradient id="paint1_linear_7214_100068" x1="3.7748" y1="2.16233" x2="12.6159" y2="15.1501" gradientUnits="userSpaceOnUse">
            <stop stop-color="#995AFF"/>
            <stop offset="1" stop-color="#DC59BF"/>
        </linearGradient>
    </defs>
</svg>
