<svg width="228" height="160" viewBox="0 0 228 160" fill="none" xmlns="http://www.w3.org/2000/svg">
<g clip-path="url(#clip0_6956_112499)">
<path d="M110.123 136.548L24.6079 159.758C20.8817 160.768 16.9989 158.545 15.9891 154.819L0.685013 98.4636C-0.324821 94.7374 1.89838 90.8546 5.62459 89.8448L91.1395 66.6264C94.8657 65.6166 98.7485 67.8398 99.7583 71.566L115.055 127.921C116.072 131.655 113.857 135.53 110.123 136.548Z" fill="#E6EDF4"/>
<path d="M91.1474 66.6264L5.62459 89.8448C1.89838 90.8546 -0.324821 94.7374 0.685013 98.4636L6.89275 121.322L105.974 94.4243L99.7662 71.566C98.7563 67.8398 94.8736 65.6166 91.1474 66.6264Z" fill="url(#paint0_linear_6956_112499)"/>
<path d="M99.1919 109.533L19.9864 131.037C18.4678 131.452 16.8943 130.544 16.4794 129.026C16.0645 127.507 16.9726 125.933 18.4913 125.519L97.7045 104.015C99.2232 103.6 100.797 104.508 101.212 106.026C101.619 107.545 100.711 109.126 99.1919 109.533Z" fill="url(#paint1_linear_6956_112499)"/>
<path d="M87.5296 124.78L23.0411 142.283C21.5225 142.698 19.949 141.79 19.5341 140.271C19.1192 138.753 20.0273 137.179 21.546 136.764L86.0344 119.261C87.5531 118.846 89.1266 119.754 89.5415 121.273C89.9485 122.791 89.0483 124.372 87.5296 124.78Z" fill="url(#paint2_linear_6956_112499)"/>
<path opacity="0.25" d="M77.352 105.445C52.0279 138.856 28.9191 134.143 12.7539 142.926L15.9791 154.817C16.9889 158.544 20.8717 160.767 24.5979 159.757L110.113 136.539C113.839 135.529 116.062 131.646 115.052 127.92L100.5 74.3281C94.9889 81.7492 87.8183 91.6362 77.352 105.445Z" fill="url(#paint3_linear_6956_112499)"/>
<path d="M222.369 70.1648L136.854 93.3832C133.128 94.393 129.245 92.1698 128.235 88.4436L112.931 32.0808C111.921 28.3546 114.144 24.4718 117.871 23.462L203.393 0.243607C207.12 -0.766228 211.002 1.45697 212.012 5.18318L227.309 61.5382C228.326 65.2722 226.103 69.1472 222.369 70.1648Z" fill="url(#paint4_linear_6956_112499)"/>
<path d="M203.393 0.243572L117.871 23.4619C114.144 24.4718 111.921 28.3545 112.931 32.0807L119.139 54.939L218.22 28.0492L212.012 5.19098C211.002 1.45694 207.12 -0.766262 203.393 0.243572Z" fill="#F2F7FC"/>
<path opacity="0.6" d="M211.45 43.1487L132.236 64.6527C130.718 65.0676 129.144 64.1595 128.729 62.6408C128.315 61.1222 129.223 59.5487 130.741 59.1338L209.955 37.6298C211.473 37.2149 213.047 38.123 213.462 39.6417C213.869 41.1603 212.961 42.7416 211.45 43.1487Z" fill="#F2F7FC"/>
<path opacity="0.6" d="M199.78 58.3987L135.291 75.9025C133.772 76.3174 132.199 75.4093 131.784 73.8906C131.369 72.372 132.277 70.7985 133.796 70.3836L198.284 52.8798C199.803 52.4649 201.377 53.373 201.791 54.8917C202.199 56.4103 201.298 57.9916 199.78 58.3987Z" fill="#F2F7FC"/>
<path opacity="0.25" d="M189.602 39.0545C164.278 72.4651 141.169 67.7525 125.004 76.5357L128.229 88.4267C129.239 92.153 133.122 94.3762 136.848 93.3663L222.371 70.1636C226.097 69.1538 228.32 65.271 227.31 61.5448L212.758 7.95312C207.247 15.3664 200.068 25.2534 189.602 39.0545Z" fill="url(#paint5_linear_6956_112499)"/>
<path d="M127.493 35.0547C127.423 35.2269 128.174 52.3236 128.174 52.3236C128.174 52.3236 114.444 56.4021 114.459 56.2299C114.467 56.0577 107.43 52.762 107.43 52.762C107.43 52.762 107.962 44.1197 107.907 44.0023C107.852 43.8849 112.087 35.6731 112.087 35.6731L127.493 35.0547Z" fill="#D8ADB6"/>
<path d="M159.316 96.303C158.666 74.6033 158.094 68.3094 155.104 64.6302C152.63 61.585 149.53 59.4088 149.53 59.401C148.317 58.5477 147.284 57.9528 145.609 57.0995C143.213 55.8861 139.878 54.25 135.729 52.3791C135.729 52.1051 135.737 51.7685 135.737 51.4945C135.166 50.1168 135.025 48.0032 133.827 45.2711C132.802 42.9462 132.183 41.5371 130.633 40.0967C130.062 39.5566 129.373 39.0556 128.676 38.6172C128.199 39.3765 127.659 40.1359 127.118 40.8326L127.181 49.741C125.388 50.6256 122.742 51.6198 120.809 52.6688C119.11 53.6316 117.466 54.6101 115.932 55.5965C114.828 54.3127 115.173 53.1384 113.764 52.1051C112.182 50.8996 110.413 49.9524 108.573 49.1696C108.589 48.833 108.613 48.2224 108.644 47.5022C108.738 45.2868 108.887 44.5823 108.887 43.2593C108.863 42.4295 108.84 41.5527 108.699 40.7151L108.589 40.5429C108.315 40.0263 108.033 39.5566 107.697 39.0399C106.93 38.8599 106.092 38.7738 105.317 38.8129C104.722 38.7581 104.182 38.8129 103.626 39.0321C103.321 39.1652 102.828 39.447 102.154 40.8091C101.285 42.4373 101.63 42.7974 100.902 43.9482C100.448 44.5744 99.8685 45.185 99.2892 45.7408C98.6395 46.461 98.1228 47.0873 97.7862 47.557C96.7372 48.8095 96.158 50.3908 96.2519 51.9877C93.8017 52.8488 90.1538 53.569 88.4394 54.2187C84.6114 55.6591 83.3824 56.2462 82.0046 57.1621C82.0046 57.1621 80.3685 58.3911 78.9203 59.8002C73.3388 65.2251 73.1901 83.136 73.1901 83.136C72.9474 112.147 72.4621 117.885 77.6287 122.136C79.6875 123.835 81.8481 124.633 83.2884 125.04C83.0379 129.236 82.8344 132.634 82.6074 136.078C82.4587 138.356 82.3021 140.681 83.6094 143.084C84.3061 144.368 85.1907 145.229 85.7778 145.73C85.1594 148.032 84.7836 149.981 84.5488 151.398C83.8834 155.421 84.1495 156.462 84.6975 157.183C85.4803 158.224 86.772 158.49 87.4687 158.607C97.3087 160.322 135.815 158.075 141.397 159.061C143.064 159.351 144.262 158.975 146.728 158.85C147.127 158.827 148.294 158.78 148.943 157.903C149.491 157.175 149.421 156.22 149.335 155.257C149.147 153.042 148.935 151.069 148.74 149.362C149.053 148.767 149.53 147.789 149.953 146.513C150.83 143.851 150.885 141.362 150.947 136.54C150.994 132.704 151.018 130.786 151.018 130.496C151.002 127.725 150.939 124.273 150.752 120.288C151.808 119.874 153.491 119.044 154.885 117.384C156.169 115.85 156.638 114.276 156.873 113.408C159.527 103.568 159.316 96.303 159.316 96.303Z" fill="url(#paint6_linear_6956_112499)"/>
<g opacity="0.41">
<path opacity="0.41" d="M125.207 87.0726C125.168 89.2254 124.33 91.2685 122.812 92.7872C121.481 94.1493 119.657 94.9869 117.708 95.2687C117.207 95.3548 116.706 95.3783 116.142 95.3392C115.704 95.3079 115.328 95.2765 114.89 95.2452C110.764 94.6346 107.484 91.4486 106.819 87.4484C106.662 86.7125 106.693 85.9297 106.725 85.1469C106.928 83.1194 107.876 81.2876 109.355 79.9177C110.13 79.1505 111.132 78.579 112.134 78.1876C113.011 77.8432 113.872 77.6788 114.796 77.6397C115.477 77.577 116.15 77.6318 116.76 77.7414C117.919 77.898 119.015 78.2816 120.041 78.8295C122.459 80.1447 124.244 82.3522 124.87 84.9512C124.988 85.4365 125.035 85.9141 125.09 86.3994C125.215 86.6577 125.207 86.8926 125.207 87.0726ZM120.839 86.7908C120.847 86.4933 120.792 86.188 120.8 85.8906C120.432 83.3621 118.013 81.4442 115.422 81.6555C113.935 81.7729 112.674 82.5088 111.891 83.6987C111.296 84.6694 111.069 85.8514 111.281 87.01C111.43 88.0511 111.962 89.0532 112.745 89.7812C114.686 91.6286 117.739 91.6756 119.586 89.8829C119.774 89.6559 119.97 89.4289 120.158 89.2019C120.549 88.513 120.815 87.691 120.839 86.7908Z" fill="white"/>
<path opacity="0.41" d="M115.907 96.9844C116.596 97.0314 117.285 97.1488 117.966 97.2584C119.587 97.6263 121.137 98.1665 122.554 99.0041C123.603 99.6303 124.589 100.319 125.45 101.188C126.068 101.728 126.554 102.378 127.102 103.036C127.164 103.161 127.282 103.294 127.282 103.419C127.407 103.615 127.274 103.85 127.086 103.967L125.567 104.977L124.745 105.541C124.558 105.713 124.174 105.689 123.994 105.486L123.931 105.415C123.751 105.149 123.563 104.954 123.321 104.687C121.974 103.161 120.236 102.041 118.303 101.47C117.802 101.313 117.238 101.212 116.737 101.11C116.362 101.086 115.986 100.992 115.602 101.032C114.53 100.953 113.52 101.071 112.494 101.368C111.727 101.564 110.96 101.885 110.248 102.268C110.185 102.323 110.122 102.323 109.989 102.378C109.794 102.488 109.481 102.339 109.363 102.143C109.183 101.877 109.003 101.619 108.878 101.423C108.455 100.828 108.095 100.249 107.735 99.6617C107.555 99.4581 107.563 99.1528 107.758 98.9806C107.758 98.9806 107.758 98.9806 107.821 98.9258C107.954 98.8084 108.079 98.7614 108.212 98.644C109.762 97.8299 111.485 97.2741 113.191 97.0862C113.763 97.0079 114.326 96.9844 114.89 96.9609C115.219 96.9923 115.594 97.0236 115.907 96.9844Z" fill="white"/>
</g>
<path opacity="0.41" d="M153.524 104.279C154.056 104.248 154.385 101.868 154.417 100.083C154.456 97.6645 153.939 95.8405 153.72 95.0499C152.326 90.0633 151.622 87.5583 151.223 85.7187C150.041 80.3564 150.354 76.0039 149.97 76.0039C149.555 76.0039 149.821 80.7321 148.24 81.194C146.635 81.6637 144.263 77.4208 143.911 77.6322C143.504 77.8827 147.042 83.4485 149.391 89.6562C151.16 94.314 151.912 98.416 152.279 101.297C152.851 103.731 153.25 104.295 153.524 104.279Z" fill="#412168"/>
<path opacity="0.41" d="M150.744 120.32C148.388 126.184 148.388 130.348 148.858 133.112C149.053 134.247 149.852 138.967 148.959 143.484C148.866 143.961 148.732 144.431 148.545 144.94C147.488 147.891 145.664 149.864 144.364 151.022C141.155 151.093 135.933 151.202 129.436 151.351C122.046 151.523 114.649 151.382 107.259 151.508C107.517 151.5 103.274 151.202 94.7651 150.6C93.583 150.514 91.2111 150.349 88.6043 148.995C87.1717 148.251 86.1228 147.382 85.4417 146.748C85.0894 147.789 84.6198 149.441 84.424 151.516C84.1892 154.083 83.9778 156.432 85.3869 157.747C86.0601 158.381 87.07 158.53 89.0505 158.819C91.1093 159.117 92.8393 159.132 94.0527 159.085C121.6 158.671 138.384 158.663 141.288 159.179C142.94 159.477 144.145 159.093 146.619 158.968C147.018 158.945 148.184 158.898 148.834 158.021C149.382 157.293 149.312 156.33 149.226 155.375C149.038 153.159 148.826 151.187 148.631 149.48C148.944 148.885 149.421 147.907 149.844 146.631C150.721 143.969 150.776 141.496 150.838 136.658C150.885 132.744 150.909 130.779 150.909 130.614C150.924 127.914 150.877 124.422 150.744 120.32Z" fill="#412168"/>
<path opacity="0.41" d="M92.4481 97.1647C92.2054 94.6832 92.3228 91.2074 93.8884 86.8706C93.4109 87.7161 91.9862 90.1115 90.812 89.8532C90.3266 89.7514 90.0996 89.2426 89.4655 88.0292C88.033 85.2972 87.3206 83.9351 87.0623 83.9899C86.4986 84.1151 87.5007 89.8219 87.9312 96.3975C88.1895 100.374 88.1817 103.646 88.1269 105.823C88.6749 105.823 89.5908 105.838 90.7259 105.917C92.6046 106.042 92.8316 106.191 93.1291 106.011C94.4129 105.259 92.8395 101.188 92.4481 97.1647Z" fill="#412168"/>
<path opacity="0.41" d="M112.074 53.3097C112.661 53.6463 113.382 53.8812 114.039 53.9359C113.46 53.3801 114.376 52.8713 113.734 52.3625C112.153 51.1491 110.383 50.2097 108.544 49.4191C108.56 49.0825 108.583 48.4719 108.614 47.7517C108.614 47.6969 108.622 47.5873 108.622 47.5325C108.669 46.4835 108.755 45.7712 108.787 45.1606C108.794 45.051 108.794 44.9414 108.802 44.8318V44.777C108.81 44.6674 108.818 44.503 108.818 44.3934V44.3386C108.826 44.229 108.834 44.0646 108.834 43.955C108.841 43.7906 108.849 43.681 108.849 43.5167C108.826 42.6869 108.802 41.8101 108.661 40.9725L108.552 40.8003C108.278 40.2836 107.996 39.8139 107.659 39.2894C107.19 39.1877 106.712 39.1407 106.297 39.1016C106.235 40.4637 106.039 47.2977 106.375 47.8848C106.712 48.4719 111.432 52.8009 112.074 53.3097Z" fill="#412168"/>
<path opacity="0.41" d="M129.778 50.8047C130.843 50.6246 129.167 49.3487 128.721 47.877C128.33 46.6323 128.956 40.8786 129.16 39.2268L128.933 39.0938L127.383 40.7768L127.085 41.1839L127.148 50.1002C125.598 50.8438 123.249 51.6971 121.621 52.6052C123.782 51.8615 128.776 50.9378 129.778 50.8047Z" fill="#412168"/>
<path opacity="0.41" d="M116.92 60.1441C116.92 60.1441 131.707 57.4433 133.132 57.005C134.376 56.6683 136.866 54.2807 137.868 53.6467L135.59 52.6055C135.59 52.3315 135.598 51.9949 135.598 51.7209C135.425 51.3765 136.091 50.9773 135.864 50.5154C135.292 49.2003 134.603 47.4937 133.687 45.4975C133.406 44.8713 133.179 44.3077 132.952 43.7988C133.977 46.2334 134.83 48.12 135.347 49.3725C135.347 49.6465 135.339 49.8657 135.339 50.1396C135.269 51.1808 134.361 52.2141 134.361 52.3237C134.361 52.4333 133.093 55.1497 131.965 55.6037C130.838 56.0577 118.845 58.1948 116.951 59.2203C115.041 60.2615 116.92 60.1441 116.92 60.1441Z" fill="#412168"/>
<path opacity="0.41" d="M109.652 58.0786C110.607 58.6187 110.349 60.4818 110.349 60.4818C110.49 60.0356 110.623 59.5894 110.701 59.1432C110.85 58.4152 115.899 55.9102 115.899 55.9102L107.68 57.1079C108.337 57.3897 108.995 57.6793 109.652 58.0786Z" fill="#412168"/>
<path opacity="0.41" d="M94.9994 53.7576C94.9994 53.7576 100.33 55.0336 100.565 55.2841C100.8 55.5346 106.515 55.9886 106.515 55.9886C106.515 55.9886 102.726 54.7987 102.608 54.7283C102.491 54.6578 100.088 53.28 99.2579 52.7556C98.2559 51.9884 97.5201 50.9003 97.2226 49.7417C97.2539 49.1233 97.3479 48.5675 97.5671 48.0273C96.6433 49.2329 96.1893 50.6654 96.2911 52.145C95.1012 52.552 92.4005 52.9591 91.3906 53.327L94.9994 53.7576Z" fill="#412168"/>
<path opacity="0.41" d="M132.378 140.664C131.204 140.946 98.1926 139.857 96.5331 139.294C95.2805 138.746 94.1689 137.932 93.2844 136.914C93.0808 138.143 93.6288 139.349 94.6073 140.022C96.3139 141.079 132.104 142.488 134.257 142.12C136.402 141.76 133.552 140.39 132.378 140.664Z" fill="#412168"/>
<path opacity="0.41" d="M122.484 56.7246C122.946 57.3274 123.353 57.9849 123.698 58.6425C127.173 65.0929 125.553 70.9562 125.303 77.6806C125.146 82.6593 125.725 87.8181 127.056 92.8438" stroke="#C2BFC7" stroke-width="2" stroke-linecap="round" stroke-linejoin="round"/>
<path opacity="0.41" d="M107.649 54.9473C106.28 55.6753 105.191 56.8886 104.643 58.2664C103.313 61.883 106.812 64.8499 107.375 70.5018C107.634 73.1791 107.282 75.8798 106.24 78.3613" stroke="#C2BFC7" stroke-width="2" stroke-linecap="round" stroke-linejoin="round"/>
<path opacity="0.41" d="M83.8438 79.0742C84.7831 82.503 85.7303 85.9474 86.6854 89.4231C86.9985 92.9692 87.3195 96.5389 87.6404 100.132" stroke="#BF9AD8" stroke-width="0.5" stroke-linecap="round" stroke-linejoin="round"/>
<path opacity="0.41" d="M127.156 49.9922C119.79 54.3838 116.016 55.9729 114.795 56.4896C113.566 57.0062 112.697 57.7186 111.648 58.3135C111.28 58.5092 110.967 58.7676 110.709 59.1433C110.451 59.5191 110.31 60.0201 110.357 60.4819" stroke="#BF9AD8" stroke-width="0.5" stroke-linecap="round" stroke-linejoin="round"/>
<path d="M108.847 8.76803C107.226 10.7172 106.06 12.9248 105.347 15.328C104.839 17.2225 104.612 19.1873 104.674 21.1679C104.682 27.3365 104.69 30.4208 105.747 33.3955C106.099 34.4053 109.864 44.3314 117.372 44.3314C122.436 44.3158 127.579 39.7128 129.051 33.0354C130.038 29.9432 130.734 26.7807 131.141 23.5476C131.987 16.6667 132.316 12.7839 129.873 9.5665C126.773 5.55848 121.262 5.25318 119.869 5.1749C115.861 5.08096 111.954 6.31781 108.847 8.76803Z" fill="#EDC0C8"/>
<path opacity="0.31" d="M108.86 39.6811C108.758 41.051 108.664 42.4288 108.562 43.7987C108.813 44.198 112.32 49.5603 117.463 49.3724C122.951 49.1767 126.45 42.8124 127.405 38.773C127.577 38.0607 127.655 37.4501 127.695 37.0195L108.86 39.6811Z" fill="#F480A1"/>
<path d="M104.327 19.0608C106.378 11.3188 108.758 9.35389 110.637 9.04859C113.338 8.61804 114.621 11.7102 118.966 12.0624C123.773 12.446 125.777 8.8294 128.086 10.2306C128.086 10.2306 131.021 11.9607 130.826 19.7497C130.794 20.2742 130.826 20.7987 130.857 21.3232C130.935 22.0277 130.951 22.7244 130.92 23.3663C130.818 25.1668 130.685 28.6503 128.532 31.9069C127.389 33.6525 126.818 34.4902 125.698 34.7798C123.694 35.2495 122.473 33.1515 118.371 32.5175C117.565 32.4157 116.751 32.3687 115.937 32.3844C111.968 32.5175 110.535 34.3571 108.813 33.8561C107.78 33.5664 106.566 32.3922 105.776 28.6816L105.173 17.4169L104.03 18.051C104.351 19.6949 104.609 21.3388 104.75 22.9827C105.384 30.2081 104.484 33.0028 106.191 38.1381C106.699 39.6646 107.091 40.8153 108.069 42.1383C109.792 44.4632 113.173 47.07 117.635 46.9761C123.35 46.8508 126.552 42.3809 127.178 41.4416C127.648 40.737 127.882 40.2125 128.305 39.2966C130.427 34.6076 130.779 31.6642 131.186 26.0122C131.429 22.6461 131.476 20.7909 132.736 20.0472C133.448 19.734 134.215 19.6636 134.951 19.9376C135.264 18.4972 135.343 16.9942 135.311 15.5303C135.264 14.3091 135.163 10.7473 133.519 7.86654C130.168 2.03455 122.058 1.36133 119.686 1.17345C116.61 0.946436 113.565 1.36133 110.653 2.42596C107.631 3.42797 106.519 4.53174 106.026 5.07971C105.157 6.01909 104.57 7.20897 103.913 9.62005C103.098 12.7748 102.746 16.0783 102.911 19.3426L104.327 19.0608Z" fill="#6B63B7"/>
<path opacity="0.7" d="M104.327 19.0608C106.378 11.3188 108.758 9.35389 110.637 9.04859C113.338 8.61804 114.621 11.7102 118.966 12.0624C123.773 12.446 125.777 8.8294 128.086 10.2306C128.086 10.2306 131.021 11.9607 130.826 19.7497C130.794 20.2742 130.826 20.7987 130.857 21.3232C130.935 22.0277 130.951 22.7244 130.92 23.3663C130.818 25.1668 130.685 28.6503 128.532 31.9069C127.389 33.6525 126.818 34.4902 125.698 34.7798C123.694 35.2495 122.473 33.1515 118.371 32.5175C117.565 32.4157 116.751 32.3687 115.937 32.3844C111.968 32.5175 110.535 34.3571 108.813 33.8561C107.78 33.5664 106.566 32.3922 105.776 28.6816L105.173 17.4169L104.03 18.051C104.351 19.6949 104.609 21.3388 104.75 22.9827C105.384 30.2081 104.484 33.0028 106.191 38.1381C106.699 39.6646 107.091 40.8153 108.069 42.1383C108.469 42.6706 111.905 47.1483 117.635 46.9761C122.982 46.8195 126.074 42.7489 126.841 41.7469C127.522 40.8466 127.898 40.1108 128.305 39.2966C130.528 34.8268 130.763 31.9069 131.186 26.0122C131.429 22.6461 131.476 20.7909 132.736 20.0472C133.448 19.734 134.215 19.6636 134.951 19.9376C135.264 18.4972 135.343 16.9942 135.311 15.5303C135.264 14.3091 135.163 10.7473 133.519 7.86654C130.168 2.03455 122.058 1.36133 119.686 1.17345C116.61 0.946436 113.565 1.36133 110.653 2.42596C107.631 3.42797 106.519 4.53174 106.026 5.07971C105.157 6.01909 104.57 7.20897 103.913 9.62005C103.098 12.7748 102.746 16.0783 102.911 19.3426L104.327 19.0608Z" fill="url(#paint7_linear_6956_112499)"/>
<path opacity="0.3" d="M126.984 8.13253C124.675 6.78608 122.671 10.3401 117.865 9.96432C113.512 9.66685 112.236 6.51209 109.473 6.94264C107.711 7.25577 105.519 8.99362 103.586 15.5223L104.009 15.311L104.251 19.3973C104.463 20.8063 104.627 22.0354 104.705 22.8573C104.893 24.7283 104.925 26.3017 104.901 27.7578C105.191 28.8772 105.653 29.9496 106.357 30.9203C106.107 30.1532 105.856 29.3782 105.723 28.6189L105.12 17.3541L104.698 17.5655C106.623 11.0368 108.815 9.29109 110.584 8.9858C113.285 8.55525 114.569 11.6474 118.913 11.9996C123.72 12.3832 125.724 8.76661 128.033 10.1678C128.315 10.3557 128.534 10.6062 128.754 10.8489C128.002 8.77444 126.984 8.13253 126.984 8.13253Z" fill="#34197F"/>
<path opacity="0.22" d="M132.753 19.7968C133.465 19.4837 134.232 19.4132 134.968 19.6872C135.218 18.3016 135.359 16.7986 135.265 15.2799C135.242 14.6145 135.195 13.2603 134.905 11.7025C134.655 10.45 134.232 9.08786 133.52 7.84318C133.379 7.6005 133.238 7.37349 133.081 7.1543C133.802 9.11917 134.162 11.1623 134.154 13.2916C134.193 14.7476 134.052 16.2506 133.794 17.6988C133.05 17.4249 132.236 17.4953 131.578 17.8084C131.281 17.965 131.03 18.2468 130.842 18.5208C130.835 18.6774 130.835 18.8339 130.842 18.9905C130.842 19.014 130.842 19.0453 130.842 19.0766C130.85 19.2488 130.85 19.4367 130.842 19.6324C130.811 20.1569 130.842 20.6814 130.874 21.2059C130.952 21.9104 130.968 22.6071 130.936 23.249C130.929 24.1571 130.85 25.0652 130.709 25.9576C130.709 25.981 130.702 26.0045 130.702 26.0202C130.702 26.028 130.702 26.0437 130.694 26.0515C130.49 27.4136 130.099 29.0027 129.3 30.5997C128.995 32.1731 128.4 34.4668 127.155 37.0657C126.952 37.4963 126.694 38.0286 126.404 38.514C125.026 40.8311 121.691 43.9545 117.065 44.1502C111.28 44.3929 107.695 39.8604 106.912 38.8662C106.544 38.4044 106.278 37.9973 106.105 37.7155C106.105 37.7624 106.113 37.8094 106.113 37.8564C106.145 37.9503 106.168 38.0364 106.199 38.1225C106.708 39.649 107.1 40.7998 108.078 42.1227C108.477 42.6551 111.914 47.1328 117.644 46.9605C122.991 46.804 126.083 42.7333 126.85 41.7313C127.531 40.8311 127.907 40.0952 128.314 39.2811C130.537 34.8112 130.772 31.8913 131.195 25.9967C131.437 22.6306 131.484 20.7753 132.745 20.0316C132.753 20.0238 132.768 20.0238 132.776 20.016C132.76 19.9455 132.76 19.8672 132.753 19.7968Z" fill="#34197F"/>
<path d="M105.916 7.10056C106.245 6.36472 106.801 5.80892 107.466 5.37837C115.177 0.618838 125.041 1.2764 132 7.01445C132.72 7.63288 133.26 8.42353 133.44 9.36291C134.317 13.4884 134.207 17.7312 133.049 21.794L131.335 23.3284C131.906 20.3302 132.016 17.2537 131.538 14.2555C131.413 13.3788 131.225 12.549 131.037 11.7818C130.7 10.4823 129.824 9.44902 128.626 8.9715C122.316 6.23947 115.232 5.84806 108.609 7.75813C107.482 9.15155 106.582 10.7328 105.854 12.322C104.515 15.508 103.92 18.9681 104.194 22.4203L102.77 19.7822C102.895 15.4297 103.952 11.0616 105.916 7.10056Z" fill="#FFBBE5"/>
<path d="M134.2 20.9876L135.531 21.1207C137.151 21.2694 138.302 22.6707 138.153 24.2911L137.582 30.4284C137.433 32.0488 136.032 33.1996 134.411 33.0508L133.081 32.9177C131.46 32.769 130.31 31.3678 130.458 29.7473L131.03 23.6101C131.171 21.9818 132.634 20.8389 134.2 20.9876Z" fill="url(#paint8_linear_6956_112499)"/>
<path d="M133.48 19.1401C134.639 19.2653 135.461 20.236 135.335 21.3946L134.255 32.628C134.13 33.7866 133.159 34.6085 132.001 34.4833C130.842 34.358 130.02 33.3873 130.145 32.2288L131.226 20.9953C131.351 19.8994 132.322 19.0774 133.48 19.1401Z" fill="#FDFDFF"/>
<path opacity="0.4" d="M137.887 22.7559L137.347 28.4313C137.033 28.7601 136.564 28.9714 136.039 28.9401C135.515 28.9088 135.014 28.5957 134.74 28.173C134.724 28.4078 134.81 31.1477 133.127 32.1575C132.704 32.4237 132.235 32.5724 131.765 32.5489C131.131 32.455 130.505 32.134 130.192 31.5312L130.152 32.2827C130.027 33.4413 130.912 34.4198 132.008 34.4825C132.994 34.5373 133.902 33.9423 134.184 33.0264L134.419 33.0421C135.984 33.183 137.441 32.0401 137.589 30.4196L138.161 24.2824C138.239 23.7109 138.145 23.2412 137.887 22.7559Z" fill="#34197F"/>
<path d="M101.888 31.7897L100.549 31.774C98.9209 31.7975 97.6527 30.5058 97.6214 28.8776L97.6136 22.709C97.5901 21.0807 98.8818 19.8126 100.51 19.7812L101.849 19.7969C103.477 19.7734 104.745 21.0651 104.776 22.6933L104.784 28.8619C104.808 30.4354 103.516 31.7584 101.888 31.7897Z" fill="url(#paint9_linear_6956_112499)"/>
<path d="M102.778 33.4645C101.611 33.4567 100.735 32.5408 100.68 31.4292L100.656 20.1331C100.664 18.9667 101.58 18.09 102.692 18.0352C103.858 18.043 104.735 18.9589 104.79 20.0705L104.813 31.3665C104.868 32.5329 103.944 33.4723 102.778 33.4645Z" fill="#FDFDFF"/>
<path opacity="0.4" d="M104.854 20.1342C104.831 19.4375 104.518 18.8347 103.954 18.459C103.923 21.1362 103.891 23.8135 103.86 26.4829C103.657 27.0543 103.163 27.4927 102.631 27.6962C101.981 27.8919 101.23 27.7902 100.666 27.4144C100.674 28.4008 99.9303 29.1758 98.9987 29.1836C98.9439 29.1836 98.9439 29.1836 98.8813 29.1758C98.2472 29.027 97.7541 28.4712 97.6758 27.8293V28.9331C97.7071 30.5065 98.9753 31.7982 100.604 31.8295L100.838 31.8452C101.065 32.9646 102.13 33.7239 103.249 33.4891C104.251 33.309 104.932 32.4792 104.932 31.4851L104.854 20.1342Z" fill="#34197F"/>
<path d="M132.058 7.01445C125.099 1.2764 115.181 0.618838 107.525 5.37837C107.282 5.54276 106.977 5.75412 106.797 5.98114L108.73 7.83641L108.793 7.78161C115.416 5.87154 122.438 6.31775 128.81 8.99498C129.326 9.19851 129.773 9.51164 130.156 9.94219L132.833 7.87555C132.552 7.50763 132.278 7.25713 132.058 7.01445Z" fill="#7DD5F4"/>
<path d="M117.177 29.5671C116.449 29.5515 115.877 29.4888 115.564 29.4419C115.564 29.4419 115.188 29.3792 114.985 29.16C114.93 29.0974 114.93 29.0426 114.938 28.98C115.126 27.6492 116.832 20.9326 116.84 20.8778C116.848 20.7604 116.801 20.5882 116.684 20.5177C116.558 20.4551 116.417 20.4708 116.331 20.5412C116.269 20.596 116.253 20.6665 116.253 20.6978C116.183 20.9874 114.484 27.4692 114.288 28.9174C114.272 29.1522 114.319 29.3871 114.429 29.5671C114.664 29.8724 115.118 30.0368 115.572 30.1229C115.807 30.1777 116.049 30.209 116.269 30.2169C116.558 30.2325 116.911 30.1934 117.208 30.0916C117.325 30.0525 117.412 29.935 117.396 29.8098C117.388 29.6924 117.302 29.5906 117.177 29.5671Z" fill="#5E4A4A"/>
<path opacity="0.3" d="M94.0335 107.009C94.558 107.064 96.562 107.299 99.3645 107.495C100.797 107.596 101.862 107.643 102.23 107.698C104.484 107.902 106.402 108.191 110.41 108.669C112.884 108.966 112.367 108.872 115.608 109.264C119.749 109.757 121.839 110.015 122.865 110.336C124.477 110.845 127.131 111.722 129.26 114.18C130.153 115.205 130.701 116.215 131.022 116.92C132.666 117.155 134.309 117.389 135.953 117.624C136.071 116.982 136.196 116.333 136.313 115.691C134.654 115.456 133.002 115.213 131.343 114.978C131.061 114.36 130.575 113.468 129.793 112.567C127.914 110.407 125.581 109.632 124.156 109.186C123.256 108.904 121.416 108.677 117.769 108.238C114.911 107.894 115.365 107.98 113.189 107.714C109.659 107.291 107.968 107.041 105.987 106.861C105.658 106.806 104.727 106.774 103.459 106.681C100.985 106.508 99.2236 106.297 98.7617 106.25C93.2037 105.679 89.775 105.334 87.043 106.414C89.0235 106.493 91.3015 106.727 94.0335 107.009Z" fill="white"/>
<path opacity="0.5" d="M76.8218 121.416C75.1936 119.709 74.4577 117.823 74.1133 116.649C79.3973 120.923 82.646 122.167 84.6657 122.481C84.8848 122.512 86.474 122.778 88.6502 123.107C89.7383 123.271 91.1239 123.514 92.9792 123.913C93.5741 124.038 94.0595 124.156 94.3882 124.226C94.9754 124.414 95.6016 124.641 96.267 124.829C101.817 126.723 102.616 127.459 105.833 128.14C109.591 128.939 112.526 128.759 115.79 128.586C117.99 128.469 121.255 128.328 125.45 128.242C124.386 126.849 124.01 125.557 123.861 124.821C123.478 122.919 123.9 121.369 124.347 119.748C124.636 118.7 124.863 117.862 125.474 116.899C126.578 115.153 128.253 114.065 128.464 114.261C128.644 114.433 127.494 115.404 126.726 117.416C125.834 119.756 126.085 121.901 126.202 122.77C126.437 124.594 127.047 126.027 127.556 126.974L129.842 125.393L133.693 125.494C133.905 123.373 134.249 121.275 134.789 119.201C135.087 118.042 135.353 116.923 135.705 115.881L136.269 115.983C135.932 117.784 135.596 119.6 135.243 121.416C134.844 123.498 134.437 125.557 134.03 127.616L131.157 127.538L130.797 127.796C130.186 127.772 129.576 127.749 128.965 127.718C128.276 128.54 127.588 129.361 126.891 130.183C126.531 130.215 126.178 130.246 125.834 130.277C122.64 130.473 119.673 130.614 116.988 130.708C116.722 130.716 116.495 130.724 116.244 130.731C113.152 130.739 110.968 130.504 107.36 130.317C107.273 130.309 107.172 130.309 107.078 130.301H107.07C106.068 130.089 106.099 130.043 103.328 129.354C99.9619 128.516 97.4021 127.968 95.8051 127.631C88.5328 126.081 85.8477 126.23 81.3387 124.312C79.1233 123.357 77.8786 122.52 76.8218 121.416Z" fill="#412168"/>
<path opacity="0.6" d="M96.0859 113.742C96.1251 114.141 105.777 126.158 104.251 125.845C102.724 125.531 96.0546 118.4 96.7513 119.347C97.448 120.294 101.699 126.236 103.037 127.653C104.376 129.07 107.405 130.338 107.405 130.338" stroke="#BF9AD8" stroke-width="0.5" stroke-linecap="round" stroke-linejoin="round"/>
<path opacity="0.6" d="M128.254 114.73C130.665 115.294 133.076 115.85 135.479 116.414" stroke="#BF9AD8" stroke-width="0.5" stroke-linecap="round" stroke-linejoin="round"/>
<path opacity="0.6" d="M127.328 117.148C129.833 117.595 132.346 118.049 134.851 118.495" stroke="#BF9AD8" stroke-width="0.5" stroke-linecap="round" stroke-linejoin="round"/>
<path opacity="0.6" d="M125.746 119.434C125.879 119.543 134.96 121.038 134.96 121.038" stroke="#BF9AD8" stroke-width="0.5" stroke-linecap="round" stroke-linejoin="round"/>
<path opacity="0.6" d="M125.637 122.762L134.052 123.631" stroke="#BF9AD8" stroke-width="0.5" stroke-linecap="round" stroke-linejoin="round"/>
<path opacity="0.6" d="M126.805 125.375L133.028 125.751" stroke="#BF9AD8" stroke-width="0.5" stroke-linecap="round" stroke-linejoin="round"/>
<path opacity="0.6" d="M127.015 111.424C127.015 111.424 123.234 110.344 121.535 116.286" stroke="#BF9AD8" stroke-width="0.5" stroke-linecap="round" stroke-linejoin="round"/>
<path opacity="0.41" d="M125.747 68.9024C125.966 68.879 127.062 73.1845 128.401 75.94C128.526 76.1983 128.776 76.7071 129.324 76.9889C130.232 77.4665 131.305 76.9733 132.377 76.5506C134.679 75.6582 137.364 74.9928 137.474 75.2276C137.599 75.4859 134.929 77.623 131.258 78.4919C129.364 78.9382 128.878 78.6563 127.994 79.2043C125.794 80.5742 125.708 84.2613 125.747 86.3436C125.935 95.1503 132.377 111.934 132.377 111.934L134.624 116.012L131.563 114.588C127.571 101.656 124.862 91.9016 123.813 87.8779C123.438 86.4375 122.858 84.1047 123.508 81.3492C123.962 79.4157 124.581 79.1652 125.238 77.169C126.647 72.9026 125.536 68.9259 125.747 68.9024Z" fill="#412168"/>
<path opacity="0.3" d="M129.113 67.7849C129.113 67.7849 136.761 65.64 137.881 65.9531C139 66.2584 140.229 71.8634 140.636 72.5836C141.043 73.3038 142.781 73.0924 142.985 74.1101C143.188 75.1277 151.651 94.5024 152.872 98.5809C154.093 102.659 154.297 111.02 153.584 108.061C152.872 105.102 142.773 82.8776 141.552 79.308C140.331 75.7383 139.306 75.1277 138.186 74.5171C137.067 73.9065 136.66 68.7086 136.66 68.7086L129.113 67.7849Z" fill="white"/>
<path d="M136.105 117.125C136.465 117.939 138.266 121.783 141.992 122.644C144.505 123.223 146.79 122.198 148.787 121.313C151.503 120.1 154.368 117.916 154.368 117.916C154.587 118.338 155.112 119.473 154.916 120.945C154.775 122.033 154.305 122.808 154.031 123.2C154.063 123.278 154.11 123.395 154.165 123.544C154.345 124.037 154.619 124.82 154.548 125.556C154.462 126.472 153.851 127.129 153.515 127.435C153.789 128.664 153.53 129.313 153.272 129.681C151.26 132.515 141.397 128.703 140.473 128.351C139.221 127.865 138.219 127.403 137.561 127.075C136.512 126.832 135.455 126.589 134.406 126.347L136.105 117.125Z" fill="#EDC0C8"/>
<path opacity="0.6" d="M154.392 117.969C154.478 118.493 154.525 119.166 154.439 119.949C154.282 121.366 153.758 122.431 153.382 123.049C153.538 123.151 154.251 123.644 154.368 124.497C154.509 125.484 153.797 126.556 152.591 126.971C153.171 127.777 153.171 128.224 153.053 128.49C152.333 130.126 145.319 128.952 139.988 126.901C138.751 126.423 137.749 125.961 137.076 125.625C136.23 125.437 135.377 125.249 134.532 125.061C134.453 125.492 134.375 125.914 134.305 126.345C135.393 126.588 136.481 126.838 137.561 127.081C138.219 127.402 139.221 127.871 140.473 128.357C141.397 128.717 151.261 132.521 153.272 129.688C153.531 129.327 153.789 128.67 153.515 127.441C153.852 127.136 154.462 126.47 154.548 125.562C154.619 124.834 154.337 124.051 154.165 123.55C154.11 123.402 154.063 123.284 154.032 123.206C154.306 122.814 154.775 122.039 154.916 120.951C155.096 119.519 154.619 118.415 154.392 117.969Z" fill="#F480A1"/>
<path opacity="0.6" d="M141.207 122.409C138.013 121.235 136.44 117.884 136.111 117.133L135.438 120.781C135.978 120.976 138.592 121.924 141.207 122.409Z" fill="#F480A1"/>
<path d="M114.708 48.5269C114.505 48.2529 113.886 47.3526 114.199 46.5933C114.411 46.0845 114.951 45.8653 115.248 45.7479C118.278 44.5815 121.628 43.7125 121.73 43.6891C124.125 43.0706 124.258 42.8749 125.057 42.9767C126.443 43.1489 127.476 43.963 128.76 44.9572C129.738 45.7165 130.897 46.836 131.413 47.3291C131.656 47.564 131.86 47.7675 132.001 47.9084C133.543 53.9674 135.085 60.0264 136.627 66.0855C133.879 66.8604 131.132 67.6276 128.376 68.4026C127.93 68.3869 127.241 68.3008 126.536 67.9172C125.683 67.4476 125.143 66.7117 124.626 65.6627C123.35 63.0559 122.951 59.909 122.818 58.5939C122.286 58.2181 121.753 57.8346 121.221 57.4588C121.753 59.8699 121.401 61.8113 120.376 62.2966C119.922 62.5158 119.131 62.5315 118.693 62.1244C118.473 61.9287 118.395 61.6704 118.27 60.6057C118.207 60.0812 118.145 59.3767 118.098 58.5469C117.824 58.5861 117.597 58.5547 117.424 58.5078C116.438 58.2103 115.804 56.8012 115.781 55.0164C115.413 54.3588 115.154 53.7874 114.982 53.3725C114.332 51.8147 113.722 50.2882 114.348 49.0357C114.489 48.8008 114.622 48.6286 114.708 48.5269Z" fill="#EDC0C8"/>
<path opacity="0.5" d="M129.858 67.98C128.496 67.4946 127.713 66.8058 127.259 66.2891C125.857 64.6922 125.309 62.1324 124.558 58.6332C124.441 58.0695 124.276 57.2554 123.603 56.5743C122.804 55.768 121.716 55.5802 120.988 55.5332C121.121 56.2143 121.254 56.8875 121.388 57.5685C121.865 57.913 122.35 58.2496 122.828 58.594C122.961 59.9091 123.36 63.0561 124.636 65.6629C125.145 66.7118 125.693 67.4477 126.546 67.9174C126.773 68.0426 126.992 68.1209 127.204 68.1914L129.678 68.0348C129.74 68.0113 129.795 67.9957 129.858 67.98Z" fill="#F480A1"/>
<path opacity="0.5" d="M120.12 50.624C119.126 50.5692 118.077 50.5144 117.49 51.1798C117.122 51.5947 117.091 52.1192 117.075 52.3618C116.989 53.7083 116.871 55.6497 116.746 58.0373C116.95 58.2564 117.184 58.4208 117.451 58.4991C117.607 58.5461 117.811 58.5696 118.053 58.5461C117.983 57.5832 117.912 56.2994 117.92 54.7416C117.936 52.0174 118.163 51.532 118.531 51.2894C118.891 51.0545 119.165 51.1798 122.187 51.3755C123.009 51.4303 123.165 51.4303 123.173 51.3833C123.197 51.2502 121.748 50.7101 120.12 50.624Z" fill="#F480A1"/>
<path opacity="0.5" d="M116.018 50.1708C116.55 49.2784 118.28 49.0984 121.74 48.7383C122.875 48.6209 123.822 48.5661 124.503 48.5348C121.818 48.1199 119.666 48.2295 118.21 48.4173C116.769 48.5974 115.9 48.8635 115.391 49.5759C115 50.1239 114.992 50.7814 114.992 52.0731C114.992 52.535 115.016 53.0046 115.047 53.4509C115.219 53.8579 115.462 54.3902 115.806 55.0087C116.206 51.8461 115.478 51.0711 116.018 50.1708Z" fill="#F480A1"/>
<path opacity="0.5" d="M124.822 45.7471C124.485 45.5201 124.164 45.3635 123.89 45.2383C121.738 45.6688 120.133 46.1777 119.006 46.4516C116.978 46.9527 114.935 47.4458 114.223 47.5946C114.317 47.8764 114.45 48.1269 114.567 48.3069C115.694 47.9781 123.045 45.8411 124.016 46.0368C125.065 46.2481 125.574 46.3342 125.574 46.3342C125.37 46.1542 125.119 45.9506 124.822 45.7471Z" fill="#F480A1"/>
</g>
<defs>
<linearGradient id="paint0_linear_6956_112499" x1="0.442344" y1="93.8551" x2="105.971" y2="93.8551" gradientUnits="userSpaceOnUse">
<stop stop-color="#D8D9FE"/>
<stop offset="0.9695" stop-color="#6669FB"/>
</linearGradient>
<linearGradient id="paint1_linear_6956_112499" x1="16.3769" y1="117.529" x2="101.304" y2="117.529" gradientUnits="userSpaceOnUse">
<stop stop-color="#D8D9FE"/>
<stop offset="0.9695" stop-color="#6669FB"/>
</linearGradient>
<linearGradient id="paint2_linear_6956_112499" x1="19.4334" y1="130.777" x2="89.6395" y2="130.777" gradientUnits="userSpaceOnUse">
<stop stop-color="#D8D9FE"/>
<stop offset="0.9695" stop-color="#6669FB"/>
</linearGradient>
<linearGradient id="paint3_linear_6956_112499" x1="49.4153" y1="101.481" x2="84.1787" y2="154.298" gradientUnits="userSpaceOnUse">
<stop stop-color="#812CBE" stop-opacity="0.5"/>
<stop offset="0.1722" stop-color="#7929B7" stop-opacity="0.5861"/>
<stop offset="0.4451" stop-color="#6222A5" stop-opacity="0.7225"/>
<stop offset="0.7827" stop-color="#3D1586" stop-opacity="0.8913"/>
<stop offset="1" stop-color="#210C70"/>
</linearGradient>
<linearGradient id="paint4_linear_6956_112499" x1="157.225" y1="22.6213" x2="202.463" y2="107.505" gradientUnits="userSpaceOnUse">
<stop stop-color="#D8D9FE"/>
<stop offset="0.9695" stop-color="#6669FB"/>
</linearGradient>
<linearGradient id="paint5_linear_6956_112499" x1="161.669" y1="35.1021" x2="196.432" y2="87.9188" gradientUnits="userSpaceOnUse">
<stop stop-color="#812CBE" stop-opacity="0.5"/>
<stop offset="0.1722" stop-color="#7929B7" stop-opacity="0.5861"/>
<stop offset="0.4451" stop-color="#6222A5" stop-opacity="0.7225"/>
<stop offset="0.7827" stop-color="#3D1586" stop-opacity="0.8913"/>
<stop offset="1" stop-color="#210C70"/>
</linearGradient>
<linearGradient id="paint6_linear_6956_112499" x1="45.5648" y1="37.0575" x2="193.764" y2="179.439" gradientUnits="userSpaceOnUse">
<stop offset="0.07" stop-color="#9962FB"/>
<stop offset="0.27" stop-color="#A161F3"/>
<stop offset="0.499" stop-color="#B860DE"/>
<stop offset="0.7502" stop-color="#DA5DBD"/>
</linearGradient>
<linearGradient id="paint7_linear_6956_112499" x1="111.998" y1="-2.28944" x2="132.43" y2="62.3944" gradientUnits="userSpaceOnUse">
<stop offset="0.0577" stop-color="#9938E5"/>
<stop offset="0.8889" stop-color="#21136E"/>
</linearGradient>
<linearGradient id="paint8_linear_6956_112499" x1="94.3421" y1="-0.244592" x2="162.594" y2="46.3233" gradientUnits="userSpaceOnUse">
<stop offset="0.07" stop-color="#9962FB"/>
<stop offset="0.27" stop-color="#A161F3"/>
<stop offset="0.58" stop-color="#B860DE"/>
<stop offset="0.95" stop-color="#DA5DBD"/>
</linearGradient>
<linearGradient id="paint9_linear_6956_112499" x1="84.365" y1="14.3042" x2="152.611" y2="60.8716" gradientUnits="userSpaceOnUse">
<stop offset="0.07" stop-color="#9962FB"/>
<stop offset="0.27" stop-color="#A161F3"/>
<stop offset="0.58" stop-color="#B860DE"/>
<stop offset="0.95" stop-color="#DA5DBD"/>
</linearGradient>
<clipPath id="clip0_6956_112499">
<rect width="227.119" height="160" fill="white" transform="translate(0.441406)"/>
</clipPath>
</defs>
</svg>
