<svg width="40" height="40" viewBox="0 0 40 40" fill="none"
    xmlns="http://www.w3.org/2000/svg">
    <path fill-rule="evenodd" clip-rule="evenodd" d="M40 20C40 31.0457 31.0457 40 20 40C8.95431 40 0 31.0457 0 20C0 8.95431 8.95431 0 20 0C31.0457 0 40 8.95431 40 20ZM19.4998 9.75C18.1948 9.75 17.175 10.8768 17.3049 12.1754L18.1598 20.7248C18.2286 21.4132 18.8079 21.9375 19.4998 21.9375C20.1917 21.9375 20.771 21.4132 20.8398 20.7248L21.6948 12.1754C21.8246 10.8768 20.8049 9.75 19.4998 9.75ZM19.5036 24.375C18.1574 24.375 17.0661 25.4663 17.0661 26.8125C17.0661 28.1587 18.1574 29.25 19.5036 29.25C20.8498 29.25 21.9411 28.1587 21.9411 26.8125C21.9411 25.4663 20.8498 24.375 19.5036 24.375Z" fill="#FF5A5A"/>
</svg>
