<svg width="40" height="40" viewBox="0 0 40 40" fill="none"
    xmlns="http://www.w3.org/2000/svg">
    <path fill-rule="evenodd" clip-rule="evenodd" d="M20 37.5C29.665 37.5 37.5 29.665 37.5 20C37.5 10.335 29.665 2.5 20 2.5C10.335 2.5 2.5 10.335 2.5 20C2.5 29.665 10.335 37.5 20 37.5ZM20 40C31.0457 40 40 31.0457 40 20C40 8.95431 31.0457 0 20 0C8.95431 0 0 8.95431 0 20C0 31.0457 8.95431 40 20 40Z" fill="#FF9840"/>
    <path d="M22.3268 16.4697L16.5992 17.1875L16.3941 18.1396L17.5221 18.3447C18.2545 18.5205 18.401 18.7842 18.2398 19.5166L16.3941 28.1885C15.9107 30.4297 16.6578 31.4844 18.4156 31.4844C19.7779 31.4844 21.36 30.8545 22.0777 29.9902L22.2975 28.9502C21.7994 29.3896 21.067 29.5654 20.5836 29.5654C19.8951 29.5654 19.6461 29.082 19.8219 28.2324L22.3268 16.4697Z" fill="#FF9840"/>
    <circle cx="20" cy="11.25" r="2.5" fill="#FF9840"/>
</svg>
