<svg width="39" height="39" viewBox="0 0 39 39" fill="none"
    xmlns="http://www.w3.org/2000/svg">
    <path fill-rule="evenodd" clip-rule="evenodd" d="M19.5 36.5625C28.9234 36.5625 36.5625 28.9234 36.5625 19.5C36.5625 10.0766 28.9234 2.4375 19.5 2.4375C10.0766 2.4375 2.4375 10.0766 2.4375 19.5C2.4375 28.9234 10.0766 36.5625 19.5 36.5625ZM19.5 39C30.2696 39 39 30.2696 39 19.5C39 8.73045 30.2696 0 19.5 0C8.73045 0 0 8.73045 0 19.5C0 30.2696 8.73045 39 19.5 39Z" fill="#2FD5DD"/>
    <path fill-rule="evenodd" clip-rule="evenodd" d="M26.7386 12.1136C27.4525 11.3996 28.61 11.3996 29.324 12.1136C30.0291 12.8187 30.0378 13.9567 29.3499 14.6725L19.6189 26.8362C19.6049 26.8538 19.5899 26.8705 19.574 26.8864C18.86 27.6004 17.7025 27.6004 16.9886 26.8864L10.5379 20.4357C9.82396 19.7218 9.82396 18.5643 10.5379 17.8504C11.2518 17.1364 12.4093 17.1364 13.1232 17.8504L18.2262 22.9533L26.6901 12.1683C26.7052 12.1491 26.7214 12.1308 26.7386 12.1136Z" fill="#2FD5DD"/>
</svg>
