<svg width="102" height="102" viewBox="0 0 102 102" fill="none" xmlns="http://www.w3.org/2000/svg">
<g clip-path="url(#clip0)">
<path d="M95.4407 56.8978L100.016 51.0432L95.4407 45.1886L98.3516 38.3528L92.4244 33.8811L93.4584 26.5228L86.5697 23.7393L85.663 16.3635L78.287 15.4569L75.5034 8.56831L68.1449 9.6022L63.6666 3.66856L56.8262 6.57281L50.9715 1.99805L45.1168 6.57281L38.2676 3.66856L33.7959 9.59563L26.4374 8.56168L23.8185 15.0419L16.2778 16.359L14.9607 23.8995L8.48029 26.5185L9.45279 33.4399L3.5827 38.3528L6.06772 45.1382L1.91211 51.0498L6.06772 56.9615L3.5827 63.7468L9.12789 68.3809L8.48468 75.5768L15.0397 78.6171L16.28 85.7362L23.3992 86.9765L26.4396 93.5313L33.6356 92.8881L38.2698 98.4332L45.0553 95.9483L50.9671 100.104L56.8789 95.9483L63.6644 98.4332L68.2986 92.8881L75.4946 93.5313L78.7151 86.5879L85.652 85.7362L86.5038 78.7993L93.4474 75.579L92.7646 67.9551L98.3472 63.7491L95.4407 56.8978Z" fill="#5C7DFF"/>
<path d="M50.9661 101.998L44.8194 97.6798L37.7748 100.264L32.9607 94.5034L25.4836 95.1619L22.3247 88.3568L14.9223 87.0704L13.6337 79.6748L6.82844 76.5159L7.48701 69.0391L1.72668 64.225L4.30829 57.1762L-0.00976562 51.0296L4.30829 44.883L1.72668 37.8343L7.77678 32.7853L6.75599 25.5148L13.5613 22.7642L14.9157 14.9976L22.6847 13.6432L25.4354 6.83803L33.0924 7.91366L37.7441 1.73858L44.8611 4.75919L50.9529 0L57.0447 4.75919L64.1617 1.73858L68.8135 7.91366L76.4705 6.83803L79.366 14.0075L87.0494 14.9493L87.9911 22.6325L95.1586 25.528L94.083 33.1849L100.258 37.8365L97.2441 44.9468L102.003 51.0384L97.2441 57.1301L100.265 64.2469L94.3903 68.6659L95.0928 76.5203L87.9407 79.8394L87.0472 87.1275L79.759 88.021L76.4397 95.1729L68.9627 94.5144L64.1486 100.275L57.0974 97.693L50.9661 101.998ZM45.2848 94.1807L50.9661 98.176L56.6474 94.1807L63.1673 96.5691L67.6083 91.2413L74.5255 91.8604L77.6493 85.1255L84.2351 84.3155L85.0451 77.7299L91.7802 74.6061L91.1216 67.2127L96.4231 63.2174L93.6373 56.6537L98.0278 51.034L93.6373 45.4143L96.4231 38.8507L90.7286 34.559L91.7209 27.4971L85.111 24.8255L84.2329 17.7482L77.1554 16.8701L74.4838 10.2582L67.4217 11.2504L63.13 5.55607L56.5662 8.34174L50.9463 3.95133L45.3265 8.34174L38.7627 5.55607L34.471 11.2504L27.4111 10.2582L24.9239 16.4047L17.6093 17.6801L16.3339 24.9945L10.1872 27.4795L11.1114 34.0519L5.41469 38.8111L7.80313 45.3309L3.80997 51.0121L7.80313 56.691L5.41469 63.213L10.7513 67.6912L10.1323 74.6083L16.4326 77.5301L17.6247 84.3703L24.4651 85.5623L27.3869 91.8626L34.302 91.2435L38.7561 96.5713L45.2848 94.1807Z" fill="#4063EA"/>
<path d="M49.3914 52.8059C49.7156 52.9269 50.0726 52.9269 50.3968 52.8059L68.4747 46.0271V61.6547C69.4103 61.4109 70.3929 61.4109 71.3285 61.6547V44.9558L73.3547 44.2314C73.6261 44.1283 73.8597 43.9451 74.0246 43.7062C74.1894 43.4672 74.2777 43.1838 74.2777 42.8934C74.2777 42.6031 74.1894 42.3197 74.0246 42.0807C73.8597 41.8418 73.6261 41.6586 73.3547 41.5555L50.3968 32.9788C50.0725 32.8586 49.7158 32.8586 49.3914 32.9788L26.4269 41.5533C26.1555 41.6564 25.9219 41.8396 25.757 42.0785C25.5922 42.3175 25.5039 42.6009 25.5039 42.8913C25.5039 43.1816 25.5922 43.465 25.757 43.704C25.9219 43.9429 26.1555 44.1261 26.4269 44.2292L49.3914 52.8059Z" fill="white"/>
<path d="M69.9026 64.3301C67.4592 64.3301 65.6152 67.4034 65.6152 71.4755V74.3293C65.6152 74.5169 65.6522 74.7027 65.724 74.8761C65.7959 75.0495 65.9011 75.2071 66.0338 75.3398C66.1665 75.4725 66.324 75.5777 66.4974 75.6495C66.6708 75.7214 66.8567 75.7583 67.0443 75.7583H72.752C73.131 75.7583 73.4945 75.6078 73.7625 75.3398C74.0305 75.0718 74.1811 74.7083 74.1811 74.3293V71.4755C74.1899 67.4012 72.3481 64.3301 69.9026 64.3301Z" fill="white"/>
<path d="M64.678 50.5078L51.4011 55.4865C50.4327 55.8478 49.3664 55.8478 48.398 55.4865L35.1168 50.5078C34.3971 53.1481 34.0803 55.882 34.1772 58.6169C34.1794 58.8492 34.2381 59.0775 34.3483 59.282C34.4585 59.4866 34.6168 59.6612 34.8096 59.7909C35.0024 59.9205 35.2238 60.0013 35.4548 60.0263C35.6858 60.0512 35.9193 60.0195 36.1354 59.934C38.2548 59.1391 40.4895 58.6942 42.7518 58.6169C45.0348 58.8624 47.2027 59.7448 49.0083 61.1633C49.2621 61.3647 49.5766 61.4743 49.9007 61.4743C50.2247 61.4743 50.5392 61.3647 50.793 61.1633C52.5891 59.7315 54.7597 58.8475 57.0451 58.6169C59.3074 58.6942 61.5421 59.139 63.6616 59.934C63.8776 60.0195 64.1112 60.0512 64.3421 60.0263C64.5731 60.0013 64.7946 59.9205 64.9873 59.7909C65.1801 59.6612 65.3384 59.4866 65.4486 59.282C65.5588 59.0775 65.6175 58.8492 65.6197 58.6169C65.7129 55.882 65.3954 53.1486 64.678 50.5078Z" fill="white"/>
</g>
<defs>
<clipPath id="clip0">
<rect width="102" height="102" fill="white"/>
</clipPath>
</defs>
</svg>
