<svg xmlns="http://www.w3.org/2000/svg" width="18" height="18" fill="none" viewBox="0 0 18 18">
    <path fill="#16192C" d="M5.66 16.313c6.793 0 10.508-5.627 10.508-10.507 0-.16 0-.32-.01-.478.722-.522 1.346-1.17 1.842-1.911-.674.299-1.389.494-2.121.58.77-.46 1.348-1.187 1.624-2.042-.725.43-1.518.734-2.346.897-.556-.592-1.293-.985-2.095-1.116-.802-.131-1.625.005-2.341.389-.717.383-1.287.992-1.623 1.733-.336.74-.418 1.57-.234 2.362-1.468-.074-2.905-.455-4.216-1.12C3.337 4.435 2.18 3.502 1.253 2.36.78 3.174.636 4.137.848 5.053c.213.915.766 1.716 1.548 2.238-.588-.017-1.163-.176-1.676-.462v.047c0 .852.295 1.679.835 2.338.54.66 1.292 1.113 2.128 1.282-.544.148-1.114.17-1.668.063.236.734.696 1.376 1.314 1.835.619.46 1.366.715 2.137.73-.766.602-1.643 1.047-2.58 1.31-.939.262-1.92.337-2.886.22 1.689 1.084 3.654 1.66 5.66 1.657"/>
</svg>
