<svg width="35" height="36" viewBox="0 0 35 36" fill="none"
    xmlns="http://www.w3.org/2000/svg">
    <circle cx="17.5" cy="18" r="17.5" fill="#1DA1F2"/>
    <path d="M15.0317 25.5C21.0694 25.5 24.3718 20.4981 24.3718 16.1604C24.3718 16.0184 24.3718 15.8769 24.3622 15.7361C25.0047 15.2715 25.5593 14.6961 26 14.0371C25.4009 14.3026 24.7654 14.4767 24.1146 14.5535C24.7999 14.1433 25.3128 13.4981 25.5578 12.7379C24.9134 13.1203 24.2084 13.3898 23.4733 13.5347C22.9783 13.0084 22.3237 12.66 21.6108 12.5432C20.8978 12.4264 20.1663 12.5479 19.5293 12.8888C18.8923 13.2296 18.3855 13.7709 18.0872 14.4289C17.7888 15.0868 17.7157 15.8247 17.879 16.5284C16.5739 16.463 15.2972 16.1238 14.1316 15.533C12.9661 14.9421 11.9378 14.1128 11.1136 13.0989C10.6938 13.8215 10.5652 14.6769 10.7541 15.491C10.9429 16.3051 11.4349 17.0166 12.1299 17.4807C11.6075 17.4654 11.0964 17.3244 10.64 17.0698V17.1114C10.6402 17.8693 10.9026 18.6037 11.3826 19.1902C11.8626 19.7767 12.5307 20.1791 13.2736 20.3291C12.7903 20.4609 12.2832 20.4802 11.7914 20.3854C12.0012 21.0376 12.4096 21.6079 12.9595 22.0166C13.5094 22.4253 14.1732 22.652 14.8582 22.665C14.1776 23.1999 13.3982 23.5954 12.5646 23.8289C11.731 24.0624 10.8595 24.1292 10 24.0255C11.5012 24.9888 13.2479 25.4998 15.0317 25.4974" fill="white"/>
</svg>
