<svg width="12" height="10" viewBox="0 0 12 10" fill="none"
    xmlns="http://www.w3.org/2000/svg">
    <path d="M6.708 2.9608H5.292V0H6.708V2.9608ZM8.82 6.24562V4.92722H12V6.24562H8.82ZM0 4.92722H3.18V6.24562H0V4.92722ZM3.504 4.18981L1.26 2.10049L2.256 1.17315L4.5 3.26247L3.504 4.18981ZM9.744 9.99969L7.5 7.91037L8.496 6.98302L10.74 9.07234L9.744 9.99969ZM9.744 1.17315L10.74 2.10049L8.496 4.18981L7.5 3.26247L9.744 1.17315ZM2.256 9.99969L1.26 9.07234L3.504 6.98302L4.5 7.91037L2.256 9.99969Z" fill="white" />
</svg>