<svg width="303" height="235" viewBox="0 0 303 235" fill="none" xmlns="http://www.w3.org/2000/svg">
<g filter="url(#filter0_d_6357_53010)">
<rect x="48.2305" y="74.1836" width="108" height="108" rx="10" transform="rotate(-15 48.2305 74.1836)" fill="#D0D9E2"/>
</g>
<path d="M63.1582 129.895L167.478 101.942L177.914 140.891C179.344 146.225 176.178 151.709 170.843 153.138L85.8419 175.914C80.5072 177.344 75.0239 174.178 73.5945 168.843L63.1582 129.895Z" fill="#F8FAFC"/>
<path d="M71.0984 138.589C70.6557 136.937 71.6361 135.239 73.2881 134.796L161.156 111.252C162.808 110.809 164.506 111.79 164.949 113.442C165.392 115.094 164.411 116.792 162.759 117.234L74.8911 140.779C73.2391 141.221 71.541 140.241 71.0984 138.589Z" fill="#D0D9E2"/>
<path d="M140.354 147.284C139.524 144.187 141.363 141.003 144.46 140.173L164.651 134.763C167.749 133.933 170.933 135.771 171.763 138.869C172.593 141.966 170.754 145.15 167.657 145.98L147.466 151.39C144.368 152.22 141.184 150.382 140.354 147.284Z" fill="#EDF2F7"/>
<path d="M78.6616 166.82C78.2466 165.271 79.1657 163.679 80.7145 163.264C82.2632 162.849 83.8552 163.768 84.2702 165.317C84.6852 166.866 83.766 168.458 82.2173 168.873C80.6685 169.288 79.0766 168.369 78.6616 166.82Z" fill="#D0D9E2"/>
<path d="M86.1401 164.816C85.7251 163.267 86.6442 161.675 88.193 161.26C89.7417 160.845 91.3337 161.764 91.7487 163.313C92.1637 164.862 91.2446 166.454 89.6958 166.869C88.147 167.284 86.5551 166.365 86.1401 164.816Z" fill="#D0D9E2"/>
<path d="M93.9936 162.711C93.5786 161.162 94.4977 159.57 96.0465 159.155C97.5953 158.74 99.1872 159.659 99.6022 161.208C100.017 162.757 99.0981 164.348 97.5493 164.763C96.0005 165.178 94.4086 164.259 93.9936 162.711Z" fill="#D0D9E2"/>
<path d="M73.7536 148.499C73.5046 147.57 74.0561 146.615 74.9853 146.366L92.5589 141.657C93.4882 141.408 94.4434 141.959 94.6924 142.888C94.9414 143.818 94.3899 144.773 93.4606 145.022L75.887 149.731C74.9577 149.98 74.0026 149.428 73.7536 148.499Z" fill="#D0D9E2"/>
<g filter="url(#filter1_d_6357_53010)">
<rect x="93" y="54" width="108" height="108" rx="10" fill="#DDE6EE"/>
</g>
<path d="M93 111.676H201V151.998C201 157.521 196.523 161.998 191 161.998H103C97.4772 161.998 93 157.521 93 151.998V111.676Z" fill="#F9FBFD"/>
<path d="M98.4199 122.128C98.4199 120.418 99.8064 119.031 101.517 119.031H192.484C194.195 119.031 195.581 120.418 195.581 122.128C195.581 123.838 194.195 125.225 192.484 125.225H101.517C99.8064 125.225 98.4199 123.838 98.4199 122.128Z" fill="#DDE6EE"/>
<path d="M163.064 148.451C163.064 145.244 165.664 142.645 168.871 142.645H189.774C192.981 142.645 195.581 145.244 195.581 148.451C195.581 151.658 192.981 154.257 189.774 154.257H168.871C165.664 154.257 163.064 151.658 163.064 148.451Z" fill="#EDF2F7"/>
<path d="M98.4199 151.356C98.4199 149.753 99.7197 148.453 101.323 148.453C102.927 148.453 104.226 149.753 104.226 151.356C104.226 152.96 102.927 154.26 101.323 154.26C99.7197 154.26 98.4199 152.96 98.4199 151.356Z" fill="#DDE6EE"/>
<path d="M106.162 151.356C106.162 149.753 107.462 148.453 109.065 148.453C110.669 148.453 111.969 149.753 111.969 151.356C111.969 152.96 110.669 154.26 109.065 154.26C107.462 154.26 106.162 152.96 106.162 151.356Z" fill="#DDE6EE"/>
<path d="M114.291 151.356C114.291 149.753 115.591 148.453 117.194 148.453C118.798 148.453 120.097 149.753 120.097 151.356C120.097 152.96 118.798 154.26 117.194 154.26C115.591 154.26 114.291 152.96 114.291 151.356Z" fill="#DDE6EE"/>
<path d="M98.4199 132.386C98.4199 131.424 99.1998 130.645 100.162 130.645H118.355C119.317 130.645 120.097 131.424 120.097 132.386C120.097 133.349 119.317 134.128 118.355 134.128H100.162C99.1998 134.128 98.4199 133.349 98.4199 132.386Z" fill="#DDE6EE"/>
<g filter="url(#filter2_d_6357_53010)">
<rect x="154.643" y="44" width="108" height="108" rx="10" transform="rotate(20.9651 154.643 44)" fill="#EDF2F7"/>
</g>
<path d="M134.006 97.8594L234.856 136.502L220.429 174.155C218.453 179.312 212.67 181.891 207.513 179.915L125.338 148.429C120.181 146.452 117.602 140.67 119.578 135.513L134.006 97.8594Z" fill="white"/>
<path d="M135.328 109.56C135.939 107.963 137.73 107.164 139.327 107.776L224.273 140.324C225.87 140.936 226.669 142.727 226.057 144.324C225.445 145.921 223.654 146.72 222.057 146.108L137.111 113.56C135.514 112.948 134.716 111.157 135.328 109.56Z" fill="#EDF2F7"/>
<path d="M186.274 157.27C187.421 154.275 190.779 152.778 193.774 153.925L213.293 161.404C216.288 162.552 217.785 165.909 216.638 168.904C215.49 171.898 212.132 173.396 209.138 172.248L189.619 164.769C186.624 163.622 185.127 160.264 186.274 157.27Z" fill="#EDF2F7"/>
<path d="M124.869 136.848C125.443 135.35 127.122 134.602 128.619 135.175C130.116 135.749 130.865 137.428 130.291 138.925C129.718 140.423 128.039 141.171 126.542 140.598C125.044 140.024 124.296 138.345 124.869 136.848Z" fill="#EDF2F7"/>
<path d="M132.1 139.617C132.674 138.12 134.352 137.371 135.85 137.945C137.347 138.519 138.096 140.198 137.522 141.695C136.948 143.192 135.269 143.941 133.772 143.367C132.275 142.793 131.526 141.115 132.1 139.617Z" fill="#EDF2F7"/>
<path d="M139.69 142.527C140.263 141.03 141.942 140.281 143.44 140.855C144.937 141.429 145.685 143.108 145.112 144.605C144.538 146.102 142.859 146.851 141.362 146.277C139.865 145.704 139.116 144.025 139.69 142.527Z" fill="#EDF2F7"/>
<path d="M131.656 119.138C132 118.24 133.008 117.791 133.906 118.135L150.895 124.645C151.793 124.989 152.243 125.996 151.898 126.895C151.554 127.793 150.547 128.242 149.648 127.898L132.659 121.388C131.761 121.044 131.312 120.037 131.656 119.138Z" fill="#EDF2F7"/>
<defs>
<filter id="filter0_d_6357_53010" x="0.474609" y="2.47656" width="227.783" height="227.781" filterUnits="userSpaceOnUse" color-interpolation-filters="sRGB">
<feFlood flood-opacity="0" result="BackgroundImageFix"/>
<feColorMatrix in="SourceAlpha" type="matrix" values="0 0 0 0 0 0 0 0 0 0 0 0 0 0 0 0 0 0 127 0" result="hardAlpha"/>
<feOffset dy="4"/>
<feGaussianBlur stdDeviation="25"/>
<feComposite in2="hardAlpha" operator="out"/>
<feColorMatrix type="matrix" values="0 0 0 0 0 0 0 0 0 0 0 0 0 0 0 0 0 0 0.04 0"/>
<feBlend mode="normal" in2="BackgroundImageFix" result="effect1_dropShadow_6357_53010"/>
<feBlend mode="normal" in="SourceGraphic" in2="effect1_dropShadow_6357_53010" result="shape"/>
</filter>
<filter id="filter1_d_6357_53010" x="43" y="8" width="208" height="208" filterUnits="userSpaceOnUse" color-interpolation-filters="sRGB">
<feFlood flood-opacity="0" result="BackgroundImageFix"/>
<feColorMatrix in="SourceAlpha" type="matrix" values="0 0 0 0 0 0 0 0 0 0 0 0 0 0 0 0 0 0 127 0" result="hardAlpha"/>
<feOffset dy="4"/>
<feGaussianBlur stdDeviation="25"/>
<feComposite in2="hardAlpha" operator="out"/>
<feColorMatrix type="matrix" values="0 0 0 0 0 0 0 0 0 0 0 0 0 0 0 0 0 0 0.04 0"/>
<feBlend mode="normal" in2="BackgroundImageFix" result="effect1_dropShadow_6357_53010"/>
<feBlend mode="normal" in="SourceGraphic" in2="effect1_dropShadow_6357_53010" result="shape"/>
</filter>
<filter id="filter2_d_6357_53010" x="68.9141" y="0.914062" width="233.666" height="233.664" filterUnits="userSpaceOnUse" color-interpolation-filters="sRGB">
<feFlood flood-opacity="0" result="BackgroundImageFix"/>
<feColorMatrix in="SourceAlpha" type="matrix" values="0 0 0 0 0 0 0 0 0 0 0 0 0 0 0 0 0 0 127 0" result="hardAlpha"/>
<feOffset dy="4"/>
<feGaussianBlur stdDeviation="25"/>
<feComposite in2="hardAlpha" operator="out"/>
<feColorMatrix type="matrix" values="0 0 0 0 0 0 0 0 0 0 0 0 0 0 0 0 0 0 0.04 0"/>
<feBlend mode="normal" in2="BackgroundImageFix" result="effect1_dropShadow_6357_53010"/>
<feBlend mode="normal" in="SourceGraphic" in2="effect1_dropShadow_6357_53010" result="shape"/>
</filter>
</defs>
</svg>
