<svg width="16" height="16" viewBox="0 0 16 16" fill="none" xmlns="http://www.w3.org/2000/svg">
<g clip-path="url(#clip0_7902_11643)">
<path d="M13.8332 4C13.6433 4.00008 13.4562 4.04653 13.2883 4.1353C13.1204 4.22408 12.9767 4.3525 12.8697 4.50942C12.7627 4.66633 12.6957 4.847 12.6743 5.03573C12.653 5.22446 12.678 5.41554 12.7473 5.59239L10.2927 8.04712C10.0191 7.93931 9.71482 7.93931 9.44122 8.04712L7.68634 6.29214C7.75598 6.11522 7.78134 5.92395 7.76019 5.735C7.73905 5.54604 7.67205 5.36511 7.56503 5.20796C7.45801 5.0508 7.31421 4.92218 7.14614 4.8333C6.97807 4.74441 6.79082 4.69794 6.60069 4.69794C6.41057 4.69794 6.22332 4.74441 6.05525 4.8333C5.88718 4.92218 5.74338 5.0508 5.63636 5.20796C5.52934 5.36511 5.46234 5.54604 5.4412 5.735C5.42005 5.92395 5.4454 6.11522 5.51505 6.29214L2.59344 9.21393C2.34391 9.11601 2.06827 9.10699 1.81288 9.18841C1.55749 9.26982 1.33792 9.4367 1.19109 9.66098C1.04426 9.88526 0.979133 10.1533 1.00666 10.4199C1.03418 10.6866 1.15268 10.9356 1.34222 11.1252C1.53176 11.3147 1.78079 11.4332 2.04743 11.4607C2.31406 11.4883 2.58205 11.4231 2.80631 11.2763C3.03057 11.1295 3.19744 10.9099 3.27885 10.6545C3.36026 10.3991 3.35125 10.1234 3.25333 9.87387L6.17535 6.95249C6.44895 7.06031 6.75327 7.06031 7.02687 6.95249L8.78174 8.70747C8.7121 8.8844 8.68675 9.07566 8.70789 9.26462C8.72903 9.45358 8.79603 9.6345 8.90305 9.79166C9.01007 9.94881 9.15388 10.0774 9.32195 10.1663C9.49002 10.2552 9.67726 10.3017 9.86739 10.3017C10.0575 10.3017 10.2448 10.2552 10.4128 10.1663C10.5809 10.0774 10.7247 9.94881 10.8317 9.79166C10.9387 9.6345 11.0057 9.45358 11.0269 9.26462C11.048 9.07566 11.0227 8.8844 10.953 8.70747L13.4076 6.25273C13.5674 6.31554 13.7391 6.34232 13.9104 6.33115C14.0817 6.31997 14.2484 6.27113 14.3987 6.1881C14.549 6.10507 14.6791 5.9899 14.7797 5.8508C14.8803 5.7117 14.949 5.55211 14.9809 5.38341C15.0128 5.2147 15.007 5.04104 14.9641 4.87482C14.9211 4.70859 14.842 4.55389 14.7324 4.42176C14.6227 4.28963 14.4853 4.18332 14.3299 4.11042C14.1745 4.03751 14.0048 3.99981 13.8332 4Z" fill="#04032B"/>
</g>
<defs>
<clipPath id="clip0_7902_11643">
<rect width="14" height="7.46667" fill="white" transform="translate(1 4)"/>
</clipPath>
</defs>
</svg>
