<svg width="16" height="16" viewBox="0 0 16 16" fill="none" xmlns="http://www.w3.org/2000/svg">
<path d="M12.25 16.0044H3.75001C2.75521 16.0033 1.80151 15.6073 1.0984 14.9034C0.395277 14.1996 0.000222974 13.2454 0 12.2504V6.99077C0.0016038 6.41384 0.135483 5.84498 0.391342 5.32791C0.6472 4.81085 1.01822 4.35936 1.47587 4.00817L5.72544 0.766482C6.37946 0.269532 7.17822 0.000488281 7.99958 0.000488281C8.82094 0.000488281 9.61969 0.269532 10.2737 0.766482L11.6239 1.79613V0.998574C11.6298 0.836798 11.6982 0.683632 11.8148 0.571284C11.9313 0.458936 12.0869 0.396161 12.2487 0.396161C12.4106 0.396161 12.5661 0.458936 12.6827 0.571284C12.7992 0.683632 12.8676 0.836798 12.8736 0.998574V3.05786C12.8735 3.17437 12.8409 3.28853 12.7794 3.38749C12.718 3.48645 12.6301 3.56627 12.5257 3.61795C12.4213 3.66963 12.3045 3.69111 12.1886 3.67998C12.0726 3.66886 11.9621 3.62555 11.8694 3.55496L9.51595 1.76068C9.07989 1.42924 8.54727 1.2498 7.99958 1.2498C7.45188 1.2498 6.91927 1.42924 6.4832 1.76068L2.23364 5.00237C1.92854 5.2365 1.68119 5.53749 1.51062 5.8822C1.34005 6.22691 1.25079 6.60615 1.24972 6.99077V12.2504C1.25039 12.9134 1.51403 13.5491 1.98278 14.0179C2.45153 14.4867 3.0871 14.7504 3.75001 14.7511H12.25C12.9129 14.7504 13.5485 14.4867 14.0172 14.0179C14.486 13.5491 14.7496 12.9134 14.7503 12.2504V6.99077C14.7514 6.60594 14.6643 6.22599 14.4956 5.88011C14.327 5.53423 14.0812 5.23165 13.7773 4.99562C13.6455 4.89489 13.5591 4.74592 13.5371 4.58147C13.5151 4.41702 13.5593 4.25057 13.66 4.11873C13.7607 3.98689 13.9097 3.90047 14.0741 3.87847C14.2385 3.85647 14.405 3.9007 14.5368 4.00142C14.993 4.35464 15.3621 4.80779 15.6157 5.32602C15.8694 5.84425 16.0009 6.41377 16 6.99077V12.2504C15.9998 13.2454 15.6047 14.1996 14.9016 14.9034C14.1985 15.6073 13.2448 16.0033 12.25 16.0044ZM6.7507 7.21779C6.59615 7.21779 6.44508 7.26363 6.31658 7.3495C6.18808 7.43538 6.08793 7.55743 6.02879 7.70024C5.96964 7.84304 5.95417 8.00018 5.98432 8.15178C6.01447 8.30338 6.08889 8.44263 6.19817 8.55193C6.30745 8.66122 6.44668 8.73566 6.59826 8.76581C6.74983 8.79597 6.90694 8.78049 7.04972 8.72134C7.19251 8.66219 7.31454 8.56202 7.4004 8.4335C7.48626 8.30498 7.53209 8.15388 7.53209 7.99931C7.53209 7.79204 7.44977 7.59326 7.30323 7.4467C7.15669 7.30013 6.95794 7.21779 6.7507 7.21779ZM10.0315 7.99931C10.0315 8.20658 9.94921 8.40536 9.80267 8.55193C9.65613 8.69849 9.45738 8.78083 9.25014 8.78083C9.04291 8.78083 8.84416 8.69849 8.69762 8.55193C8.55108 8.40536 8.46875 8.20658 8.46875 7.99931C8.46875 7.79204 8.55108 7.59326 8.69762 7.4467C8.84416 7.30013 9.04291 7.21779 9.25014 7.21779C9.45738 7.21779 9.65613 7.30013 9.80267 7.4467C9.94921 7.59326 10.0315 7.79204 10.0315 7.99931ZM7.53125 10.5C7.53125 10.7073 7.44892 10.906 7.30238 11.0526C7.15584 11.1992 6.95709 11.2815 6.74985 11.2815C6.54262 11.2815 6.34387 11.1992 6.19733 11.0526C6.05079 10.906 5.96846 10.7073 5.96846 10.5C5.96846 10.2927 6.05079 10.0939 6.19733 9.94738C6.34387 9.80082 6.54262 9.71848 6.74985 9.71848C6.95709 9.71848 7.15584 9.80082 7.30238 9.94738C7.44892 10.0939 7.53125 10.2927 7.53125 10.5ZM10.0315 10.5C10.0315 10.7073 9.94921 10.906 9.80267 11.0526C9.65613 11.1992 9.45738 11.2815 9.25014 11.2815C9.04291 11.2815 8.84416 11.1992 8.69762 11.0526C8.55108 10.906 8.46875 10.7073 8.46875 10.5C8.46875 10.2927 8.55108 10.0939 8.69762 9.94738C8.84416 9.80082 9.04291 9.71848 9.25014 9.71848C9.45738 9.71848 9.65613 9.80082 9.80267 9.94738C9.94921 10.0939 10.0315 10.2927 10.0315 10.5Z" fill="#1A202C"/>
</svg>
