<svg width="16" height="16" viewBox="0 0 16 16" fill="none" xmlns="http://www.w3.org/2000/svg">
<path fill-rule="evenodd" clip-rule="evenodd" d="M6.5 12C9.53757 12 12 9.53757 12 6.5C12 3.46243 9.53757 1 6.5 1C3.46243 1 1 3.46243 1 6.5C1 9.53757 3.46243 12 6.5 12ZM13 6.5C13 10.0899 10.0899 13 6.5 13C2.91015 13 0 10.0899 0 6.5C0 2.91015 2.91015 0 6.5 0C10.0899 0 13 2.91015 13 6.5Z" fill="url(#paint0_linear_7902_132)"/>
<path d="M10.3439 11.7422C10.3734 11.7822 10.4062 11.8204 10.4424 11.8566L14.2929 15.7071C14.6834 16.0976 15.3166 16.0976 15.7071 15.7071C16.0976 15.3166 16.0976 14.6834 15.7071 14.2929L11.8566 10.4424C11.8204 10.4062 11.7822 10.3734 11.7422 10.3439C11.3499 10.878 10.878 11.3499 10.3439 11.7422Z" fill="url(#paint1_linear_7902_132)"/>
<defs>
<linearGradient id="paint0_linear_7902_132" x1="0.000601521" y1="8.00102" x2="15.9994" y2="8.00102" gradientUnits="userSpaceOnUse">
<stop stop-color="#995AFF"/>
<stop offset="1" stop-color="#DC59BF"/>
</linearGradient>
<linearGradient id="paint1_linear_7902_132" x1="0.000601521" y1="8.00102" x2="15.9994" y2="8.00102" gradientUnits="userSpaceOnUse">
<stop stop-color="#995AFF"/>
<stop offset="1" stop-color="#DC59BF"/>
</linearGradient>
</defs>
</svg>
