<svg width="16" height="16" viewBox="0 0 16 16" fill="none" xmlns="http://www.w3.org/2000/svg">
<path fill-rule="evenodd" clip-rule="evenodd" d="M8.02018 9.53182C7.52232 9.53182 7.02594 9.36735 6.61068 9.03842L3.27299 6.34743C3.03262 6.15394 2.99541 5.80194 3.18816 5.56231C3.38239 5.32343 3.73365 5.28547 3.97328 5.47822L7.30799 8.16623C7.72697 8.49814 8.31711 8.49814 8.73907 8.16325L12.0403 5.47971C12.2799 5.28399 12.6312 5.3212 12.8262 5.56082C13.0204 5.79971 12.9839 6.15097 12.745 6.34594L9.43786 9.03396C9.01963 9.36586 8.51953 9.53182 8.02018 9.53182Z" fill="black"/>
<mask id="mask0_7902_11623" style="mask-type:alpha" maskUnits="userSpaceOnUse" x="0" y="1" width="16" height="15">
<path fill-rule="evenodd" clip-rule="evenodd" d="M0 1.00049H16V15.5122H0V1.00049Z" fill="white"/>
</mask>
<g mask="url(#mask0_7902_11623)">
<path fill-rule="evenodd" clip-rule="evenodd" d="M4.34543 14.396H11.6534C11.6549 14.3945 11.6608 14.396 11.6653 14.396C12.5144 14.396 13.2675 14.0924 13.845 13.5156C14.5155 12.8481 14.8839 11.8888 14.8839 10.815V5.70388C14.8839 3.62536 13.525 2.11689 11.6534 2.11689H4.34692C2.47529 2.11689 1.1164 3.62536 1.1164 5.70388V10.815C1.1164 11.8888 1.48551 12.8481 2.15529 13.5156C2.73278 14.0924 3.48664 14.396 4.33502 14.396H4.34543ZM4.33267 15.5122C3.18439 15.5122 2.15889 15.0954 1.36708 14.3066C0.485212 13.427 0 12.1871 0 10.8149V5.70377C0 3.02245 1.86866 1.00049 4.34681 1.00049H11.6533C14.1314 1.00049 16.0001 3.02245 16.0001 5.70377V10.8149C16.0001 12.1871 15.5149 13.427 14.633 14.3066C13.8419 15.0947 12.8157 15.5122 11.6652 15.5122H11.6533H4.34681H4.33267Z" fill="black"/>
</g>
</svg>
