<svg width="16" height="16" viewBox="0 0 16 16" fill="none" xmlns="http://www.w3.org/2000/svg">
<path fill-rule="evenodd" clip-rule="evenodd" d="M8.83727 1.6261C8.59121 0.791301 7.40879 0.7913 7.16273 1.6261L7.06888 1.94452C6.73155 3.089 5.42432 3.63046 4.37653 3.05972L4.08501 2.90093C3.32074 2.48463 2.48463 3.32073 2.90093 4.08501L3.05972 4.37653C3.63046 5.42433 3.08899 6.73155 1.94451 7.06888L1.6261 7.16273C0.791301 7.40879 0.7913 8.59121 1.6261 8.83727L1.94452 8.93112C3.089 9.26845 3.63046 10.5757 3.05972 11.6235L2.90093 11.915C2.48463 12.6793 3.32074 13.5154 4.08501 13.0991L4.37653 12.9403C5.42433 12.3695 6.73155 12.911 7.06888 14.0555L7.16273 14.3739C7.40879 15.2087 8.59121 15.2087 8.83727 14.3739L8.93112 14.0555C9.26845 12.911 10.5757 12.3695 11.6235 12.9403L11.915 13.0991C12.6793 13.5154 13.5154 12.6793 13.0991 11.915L12.9403 11.6235C12.3695 10.5757 12.911 9.26845 14.0555 8.93112L14.3739 8.83727C15.2087 8.59121 15.2087 7.40879 14.3739 7.16273L14.0555 7.06888C12.911 6.73155 12.3695 5.42433 12.9403 4.37653L13.0991 4.08501C13.5154 3.32074 12.6793 2.48463 11.915 2.90094L11.6235 3.05972C10.5757 3.63046 9.26845 3.08899 8.93112 1.94451L8.83727 1.6261ZM6.20353 1.34338C6.73147 -0.447791 9.26853 -0.447793 9.79647 1.34338L9.89032 1.66179C10.0475 2.19519 10.6568 2.44755 11.1451 2.18155L11.4366 2.02276C13.0765 1.12953 14.8705 2.92349 13.9772 4.56335L13.8184 4.85487C13.5524 5.34321 13.8048 5.95246 14.3382 6.10968L14.6566 6.20353C16.4478 6.73147 16.4478 9.26853 14.6566 9.79647L14.3382 9.89032C13.8048 10.0475 13.5524 10.6568 13.8184 11.1451L13.9772 11.4366C14.8705 13.0765 13.0765 14.8705 11.4366 13.9772L11.1451 13.8184C10.6568 13.5524 10.0475 13.8048 9.89032 14.3382L9.79647 14.6566C9.26853 16.4478 6.73147 16.4478 6.20353 14.6566L6.10968 14.3382C5.95246 13.8048 5.34321 13.5524 4.85487 13.8184L4.56335 13.9772C2.92349 14.8705 1.12953 13.0765 2.02276 11.4366L2.18155 11.1451C2.44755 10.6568 2.19519 10.0475 1.66179 9.89032L1.34338 9.79647C-0.447791 9.26853 -0.447793 6.73147 1.34338 6.20353L1.66179 6.10968C2.19519 5.95246 2.44755 5.34321 2.18155 4.85487L2.02276 4.56336C1.12953 2.9235 2.9235 1.12953 4.56336 2.02276L4.85487 2.18155C5.34321 2.44755 5.95246 2.19519 6.10968 1.66179L6.20353 1.34338Z" fill="black"/>
<path fill-rule="evenodd" clip-rule="evenodd" d="M8.00016 5.75439C6.75986 5.75439 5.75439 6.75986 5.75439 8.00016C5.75439 9.24046 6.75986 10.2459 8.00016 10.2459C9.24046 10.2459 10.2459 9.24046 10.2459 8.00016C10.2459 6.75986 9.24046 5.75439 8.00016 5.75439ZM4.75439 8.00016C4.75439 6.20757 6.20757 4.75439 8.00016 4.75439C9.79274 4.75439 11.2459 6.20757 11.2459 8.00016C11.2459 9.79274 9.79274 11.2459 8.00016 11.2459C6.20757 11.2459 4.75439 9.79274 4.75439 8.00016Z" fill="black"/>
</svg>
