<svg width="16" height="16" viewBox="0 0 16 16" fill="none" xmlns="http://www.w3.org/2000/svg">
<g clip-path="url(#clip0_7902_9842)">
<path fill-rule="evenodd" clip-rule="evenodd" d="M3 4.00014C3.0001 3.60231 3.15616 3.2208 3.43387 2.93949C3.71158 2.65818 4.08821 2.5001 4.48096 2.5H6.59634C6.76198 2.50408 6.91947 2.5736 7.0352 2.69371C7.15092 2.81383 7.2157 2.97501 7.2157 3.14284C7.2157 3.31067 7.15092 3.47185 7.0352 3.59196C6.91947 3.71207 6.76198 3.78159 6.59634 3.78567H4.48096C4.4248 3.78567 4.37095 3.80827 4.33124 3.84849C4.29154 3.88871 4.26923 3.94326 4.26923 4.00014V12.9999C4.26933 13.0567 4.29167 13.1112 4.33135 13.1514C4.37104 13.1916 4.42483 13.2142 4.48096 13.2143H6.59634C6.76198 13.2184 6.91947 13.2879 7.0352 13.408C7.15092 13.5282 7.2157 13.6893 7.2157 13.8572C7.2157 14.025 7.15092 14.1862 7.0352 14.3063C6.91947 14.4264 6.76198 14.4959 6.59634 14.5H4.48096C4.08818 14.5 3.7115 14.342 3.43376 14.0606C3.15603 13.7793 3 13.3977 3 12.9999V4.00014ZM11.8338 7.85716H7.02017C6.85454 7.86125 6.69704 7.93077 6.58132 8.05088C6.4656 8.17099 6.40082 8.33217 6.40082 8.5C6.40082 8.66783 6.4656 8.82901 6.58132 8.94912C6.69704 9.06923 6.85454 9.13875 7.02017 9.14284H11.8338L10.1667 10.8315C10.1036 10.8902 10.0529 10.9612 10.0176 11.0403C9.98229 11.1193 9.96314 11.2048 9.96131 11.2915C9.95947 11.3783 9.97498 11.4645 10.0069 11.545C10.0388 11.6255 10.0865 11.6986 10.1471 11.76C10.2077 11.8213 10.2799 11.8696 10.3593 11.902C10.4388 11.9343 10.5239 11.95 10.6096 11.9482C10.6952 11.9463 10.7796 11.9269 10.8576 11.8912C10.9357 11.8554 11.0057 11.804 11.0637 11.7401L13.8138 8.95427C13.9326 8.83371 13.9994 8.67034 13.9994 8.5C13.9994 8.32966 13.9326 8.16629 13.8138 8.04573L11.064 5.26182C11.0061 5.19789 10.936 5.1465 10.858 5.11074C10.78 5.07498 10.6956 5.05559 10.6099 5.05373C10.5243 5.05187 10.4392 5.06758 10.3597 5.09992C10.2802 5.13227 10.208 5.18057 10.1475 5.24192C10.0869 5.30327 10.0392 5.3764 10.0073 5.45691C9.97536 5.53742 9.95985 5.62364 9.96168 5.71039C9.96352 5.79713 9.98266 5.8826 10.018 5.96165C10.0533 6.0407 10.104 6.11169 10.1671 6.17036L11.8342 7.85907L11.8338 7.85716Z" fill="#1A202C"/>
</g>
<defs>
<clipPath id="clip0_7902_9842">
<rect width="11" height="12" fill="white" transform="translate(3 2.5)"/>
</clipPath>
</defs>
</svg>
