<svg width="16" height="16" viewBox="0 0 16 16" fill="none" xmlns="http://www.w3.org/2000/svg">
<path fill-rule="evenodd" clip-rule="evenodd" d="M1 3.65C1 2.73873 1.72323 2 2.61538 2H13.3846C14.2768 2 15 2.73873 15 3.65V4.75C15 5.66127 14.2768 6.4 13.3846 6.4H2.61538C1.72323 6.4 1 5.66127 1 4.75V3.65ZM2.61538 3.1C2.318 3.1 2.07692 3.34624 2.07692 3.65V4.75C2.07692 5.05376 2.318 5.3 2.61538 5.3H13.3846C13.682 5.3 13.9231 5.05376 13.9231 4.75V3.65C13.9231 3.34624 13.682 3.1 13.3846 3.1H2.61538ZM1 9.15C1 8.23873 1.72323 7.5 2.61538 7.5C3.50754 7.5 4.23077 8.23873 4.23077 9.15V11.35C4.23077 12.2613 3.50754 13 2.61538 13C1.72323 13 1 12.2613 1 11.35V9.15ZM2.61538 8.6C2.318 8.6 2.07692 8.84624 2.07692 9.15V11.35C2.07692 11.6538 2.318 11.9 2.61538 11.9C2.91277 11.9 3.15385 11.6538 3.15385 11.35V9.15C3.15385 8.84624 2.91277 8.6 2.61538 8.6ZM5.30769 9.15C5.30769 8.23873 6.03092 7.5 6.92308 7.5H13.3846C14.2768 7.5 15 8.23873 15 9.15V11.35C15 12.2613 14.2768 13 13.3846 13H6.92308C6.03092 13 5.30769 12.2613 5.30769 11.35V9.15ZM6.92308 8.6C6.62569 8.6 6.38462 8.84624 6.38462 9.15V11.35C6.38462 11.6538 6.62569 11.9 6.92308 11.9H13.3846C13.682 11.9 13.9231 11.6538 13.9231 11.35V9.15C13.9231 8.84624 13.682 8.6 13.3846 8.6H6.92308Z" fill="black"/>
</svg>
