<svg width="36" height="40" viewBox="0 0 36 40" fill="none" xmlns="http://www.w3.org/2000/svg">
<g clip-path="url(#clip0_6957_112914)">
<path d="M8.0293 28.3352L11.3893 38.6052C11.5693 39.1552 12.1593 39.4552 12.7093 39.2852L15.4993 38.3852C15.5293 38.1552 15.5493 37.8352 15.4293 37.4852C15.2193 36.8652 14.7993 36.8352 14.6693 36.3352C14.4993 35.6952 15.0893 35.3652 14.8793 34.8452C14.6893 34.3752 14.1593 34.5052 13.9793 34.0452C13.7393 33.4652 14.4393 32.9452 14.1493 32.4152C13.9993 32.1352 13.7593 32.1752 13.5893 31.8552C13.4193 31.5252 13.4993 31.1452 13.5893 30.8852C13.9693 30.6952 14.7093 30.2452 15.2893 29.3952C16.0293 28.3052 16.0893 27.2152 16.0893 26.7852L8.0293 28.3352Z" fill="url(#paint0_linear_6957_112914)"/>
<path opacity="0.15" d="M14.6693 36.3244C14.4993 35.6844 15.0893 35.3544 14.8793 34.8344C14.6893 34.3644 14.1593 34.4944 13.9793 34.0344C13.7393 33.4544 14.4393 32.9344 14.1493 32.4044C13.9993 32.1244 13.7593 32.1644 13.5893 31.8444C13.4193 31.5144 13.4993 31.1344 13.5893 30.8744C13.9693 30.6844 14.7093 30.2344 15.2893 29.3844C16.0293 28.2944 16.0893 27.2044 16.0893 26.7744L8.0293 28.3344L8.0593 28.4344L15.4693 26.9944C15.4693 27.4144 15.4093 28.5144 14.6693 29.6044C14.0793 30.4644 13.3493 30.9044 12.9693 31.0944C12.8793 31.3644 12.7993 31.7444 12.9693 32.0644C13.1393 32.3844 13.3793 32.3444 13.5293 32.6244C13.8093 33.1544 13.1193 33.6844 13.3593 34.2544C13.5493 34.7144 14.0693 34.5844 14.2593 35.0544C14.4693 35.5844 13.8793 35.9044 14.0493 36.5444C14.1793 37.0444 14.5993 37.0744 14.8093 37.6944C14.9293 38.0344 14.9093 38.3444 14.8793 38.5644L15.4893 38.3644C15.5193 38.1344 15.5393 37.8144 15.4193 37.4644C15.2193 36.8544 14.7993 36.8244 14.6693 36.3244Z" fill="url(#paint1_linear_6957_112914)"/>
<path d="M2.28914 26.9953C3.34953 26.9953 4.20914 26.1357 4.20914 25.0753C4.20914 24.0149 3.34953 23.1553 2.28914 23.1553C1.22875 23.1553 0.369141 24.0149 0.369141 25.0753C0.369141 26.1357 1.22875 26.9953 2.28914 26.9953Z" fill="url(#paint2_linear_6957_112914)"/>
<path d="M31.0395 16.875C33.1216 16.875 34.8095 15.1871 34.8095 13.105C34.8095 11.0228 33.1216 9.33496 31.0395 9.33496C28.9574 9.33496 27.2695 11.0228 27.2695 13.105C27.2695 15.1871 28.9574 16.875 31.0395 16.875Z" fill="url(#paint3_linear_6957_112914)"/>
<path d="M34.1282 26.5747C30.3482 26.5447 26.2782 26.6547 21.9782 26.9847C16.7082 27.3947 11.8082 28.0647 7.32818 28.8747C5.38818 29.2247 3.46818 28.1747 2.72818 26.3547C2.37818 25.4947 2.02818 24.6247 1.67818 23.7647C0.918175 21.9047 1.59818 19.7547 3.29818 18.6847C6.86818 16.4447 10.7282 13.7147 14.6782 10.4147C18.2682 7.40473 21.3582 4.41473 23.9782 1.59473C25.7382 4.92473 27.4982 8.60473 29.1782 12.6347C31.2482 17.5847 32.8582 22.2747 34.1282 26.5747Z" fill="url(#paint4_linear_6957_112914)"/>
<path d="M15.6099 19.9948C14.4999 16.8948 13.0699 14.4648 11.8399 12.7148C8.88989 15.0148 6.01989 16.9948 3.30989 18.6948C1.60989 19.7648 0.929894 21.9048 1.68989 23.7748C2.03989 24.6348 2.38989 25.5048 2.73989 26.3648C3.47989 28.1948 5.39989 29.2448 7.33989 28.8848C10.4399 28.3248 13.7599 27.8348 17.2599 27.4448C17.0699 25.4248 16.6299 22.8448 15.6099 19.9948Z" fill="url(#paint5_linear_6957_112914)"/>
<path opacity="0.15" d="M30.4191 15.7148C27.4591 16.6848 24.3991 17.7948 21.2291 19.0548C15.8691 21.1948 10.9791 23.4948 6.57906 25.8048C5.28906 26.4848 3.79906 26.4748 2.53906 25.8848C2.59906 26.0448 2.66906 26.1948 2.72906 26.3548C3.46906 28.1848 5.38906 29.2348 7.32906 28.8748C11.8091 28.0648 16.7091 27.3948 21.9791 26.9848C26.2791 26.6548 30.3391 26.5348 34.1291 26.5748C33.1291 23.1748 31.8991 19.5348 30.4191 15.7148Z" fill="url(#paint6_linear_6957_112914)"/>
<path d="M34.249 27.8353C33.559 28.0053 32.869 27.5953 32.679 26.9153C31.469 22.3953 29.949 17.9253 28.139 13.6153C26.589 9.92526 24.809 6.29526 22.849 2.81526C22.499 2.19526 22.709 1.41526 23.319 1.05526L23.669 0.855259C24.289 0.495259 25.099 0.705259 25.459 1.33526C27.489 4.92526 29.319 8.65526 30.909 12.4553C32.769 16.8853 34.339 21.4853 35.579 26.1453C35.769 26.8453 35.339 27.5653 34.639 27.7353L34.249 27.8353Z" fill="url(#paint7_linear_6957_112914)"/>
</g>
<defs>
<linearGradient id="paint0_linear_6957_112914" x1="18.7591" y1="40.8711" x2="9.3786" y2="25.6175" gradientUnits="userSpaceOnUse">
<stop offset="0.1458" stop-color="#6741C4"/>
<stop offset="0.4416" stop-color="#975BDD"/>
<stop offset="0.5368" stop-color="#A35BD8"/>
<stop offset="0.7066" stop-color="#C15ACA"/>
<stop offset="0.8263" stop-color="#DB59BE"/>
</linearGradient>
<linearGradient id="paint1_linear_6957_112914" x1="19.8327" y1="40.2101" x2="10.4522" y2="24.9565" gradientUnits="userSpaceOnUse">
<stop stop-color="#812CBE"/>
<stop offset="1" stop-color="#210C70"/>
</linearGradient>
<linearGradient id="paint2_linear_6957_112914" x1="3.91054" y1="27.7125" x2="1.02344" y2="23.0179" gradientUnits="userSpaceOnUse">
<stop offset="0.1827" stop-color="#6669FB"/>
<stop offset="0.7831" stop-color="#D8D9FE"/>
</linearGradient>
<linearGradient id="paint3_linear_6957_112914" x1="34.2267" y1="18.2926" x2="28.5539" y2="9.06816" gradientUnits="userSpaceOnUse">
<stop offset="0.1827" stop-color="#6669FB"/>
<stop offset="0.7831" stop-color="#D8D9FE"/>
</linearGradient>
<linearGradient id="paint4_linear_6957_112914" x1="25.3512" y1="34.5665" x2="10.6507" y2="9.37843" gradientUnits="userSpaceOnUse">
<stop offset="0.1458" stop-color="#6741C4"/>
<stop offset="0.4416" stop-color="#975BDD"/>
<stop offset="0.5368" stop-color="#A35BD8"/>
<stop offset="0.7066" stop-color="#C15ACA"/>
<stop offset="0.8263" stop-color="#DB59BE"/>
</linearGradient>
<linearGradient id="paint5_linear_6957_112914" x1="16.1026" y1="33.3069" x2="2.92589" y2="12.7799" gradientUnits="userSpaceOnUse">
<stop offset="0.1827" stop-color="#6669FB"/>
<stop offset="0.7831" stop-color="#D8D9FE"/>
</linearGradient>
<linearGradient id="paint6_linear_6957_112914" x1="16.6476" y1="15.853" x2="18.4607" y2="26.9908" gradientUnits="userSpaceOnUse">
<stop stop-color="#812CBE"/>
<stop offset="1" stop-color="#210C70"/>
</linearGradient>
<linearGradient id="paint7_linear_6957_112914" x1="37.724" y1="32.8575" x2="18.8105" y2="-9.27214" gradientUnits="userSpaceOnUse">
<stop offset="0.1458" stop-color="#6741C4"/>
<stop offset="0.4416" stop-color="#975BDD"/>
<stop offset="0.5368" stop-color="#A35BD8"/>
<stop offset="0.7066" stop-color="#C15ACA"/>
<stop offset="0.8263" stop-color="#DB59BE"/>
</linearGradient>
<clipPath id="clip0_6957_112914">
<rect width="35.26" height="38.65" fill="white" transform="translate(0.369141 0.674805)"/>
</clipPath>
</defs>
</svg>
