<svg width="166" height="37" viewBox="0 0 166 37" fill="none" xmlns="http://www.w3.org/2000/svg">
<path d="M38.1676 21.4014C33.0363 21.4014 30.0189 23.986 29.1175 29.1554H29.1304C28.9512 30.0134 28.6497 30.7088 28.2237 31.2393C27.7612 31.8135 27.1871 32.1005 26.5004 32.1005C25.2116 32.1005 24.5678 31.4307 24.5678 30.09C24.5678 29.771 24.6107 29.4095 24.6966 29.0044L25.3404 25.398L26.1452 20.8985L27.0787 15.5696L27.0358 15.5866C27.0841 15.2145 27.1088 14.8615 27.1088 14.5255C27.1088 13.1635 26.701 12.0791 25.8844 11.271C24.7889 10.1642 22.9969 9.61133 20.5063 9.61133C15.375 9.61133 12.3576 12.196 11.4563 17.3654H11.4659C11.2846 18.1766 10.9895 18.8379 10.5796 19.3472C10.1171 19.9214 9.54305 20.2084 8.8563 20.2084C7.56757 20.2084 6.92374 19.5386 6.92374 18.1979C6.92374 17.8789 6.96666 17.5174 7.05251 17.1123L7.192 16.5276L1.55959 17.3707L1.35142 18.4531C1.26558 18.9634 1.22266 19.4418 1.22266 19.8895C1.22266 21.2514 1.63041 22.3359 2.447 23.144C3.54258 24.2508 5.33456 24.8037 7.8251 24.8037C12.9564 24.8037 15.9738 22.219 16.8752 17.0496H16.8655C17.0468 16.2384 17.3419 15.577 17.7518 15.0678C18.2143 14.4936 18.7884 14.2066 19.4751 14.2066C20.7639 14.2066 21.4077 14.8764 21.4077 16.2171C21.4077 16.5361 21.3648 16.8976 21.2789 17.3027L20.6351 20.9091L19.8303 25.4086L18.8968 30.7375L18.9397 30.7205C18.8914 31.0926 18.8667 31.4456 18.8667 31.7816C18.8667 33.1435 19.2745 34.228 20.0911 35.0361C21.1867 36.1429 22.9786 36.6958 25.4692 36.6958C30.6005 36.6958 33.6179 34.1111 34.5192 28.9417H34.5064C34.6856 28.0837 34.9871 27.3883 35.4131 26.8578C35.8756 26.2837 36.4496 25.9966 37.1364 25.9966C38.4251 25.9966 39.0689 26.6664 39.0689 28.0071C39.0689 28.3261 39.026 28.6876 38.9402 29.0927L38.8007 29.6775H44.2571L44.6413 27.752C44.7271 27.2416 44.77 26.7632 44.77 26.3156C44.77 24.9536 44.3623 23.8691 43.5457 23.061C42.4512 21.9542 40.6581 21.4014 38.1676 21.4014Z" fill="#16192C"/>
<path d="M110.832 20.708C110.918 20.1977 110.961 19.7192 110.961 19.2716C110.961 17.9096 110.553 16.8252 109.736 16.0171C108.641 14.9103 106.849 14.3574 104.358 14.3574C99.5681 14.3574 96.6205 16.6104 95.5163 21.1152C95.438 21.4363 95.0732 22.7218 95.0131 23.0652L94.894 23.6978L94.8661 23.8477C94.7802 24.3581 94.7373 24.8365 94.7373 25.2841C94.7373 26.6461 95.1451 27.7306 95.9616 28.5386C97.0572 29.6454 98.8492 30.1983 101.34 30.1983C106.408 30.1983 109.411 27.6753 110.354 22.6325H110.357L110.832 20.708ZM104.093 24.7419C103.631 25.316 103.057 25.6031 102.37 25.6031C101.081 25.6031 100.437 24.9333 100.437 23.5925C100.437 23.2736 100.48 22.9121 100.566 22.507L100.706 21.9222L100.692 21.9254C100.87 21.0557 101.173 20.3497 101.604 19.8139C102.066 19.2397 102.64 18.9527 103.327 18.9527C104.616 18.9527 105.26 19.6225 105.26 20.9632C105.26 21.2822 105.217 21.6437 105.131 22.0487L104.991 22.6335H105.005C104.826 23.5022 104.523 24.2071 104.093 24.7419Z" fill="#16192C"/>
<path d="M77.4966 9.05396C76.4976 7.98118 74.8215 7.44531 72.4705 7.44531H62.9483L58.9834 29.7197H64.6029L65.8208 22.9449H69.5368C71.7215 22.9449 73.5747 22.3931 75.0941 21.2895C76.6124 20.1869 77.5299 18.7792 77.8411 17.0664L78.4656 13.5705C78.5493 13.0963 78.5911 12.6423 78.5911 12.2085C78.5901 10.9316 78.2252 9.87902 77.4966 9.05396ZM72.6261 14.5912L72.4072 15.8596C72.1368 17.3651 71.1474 18.1179 69.4413 18.1179H66.6632L67.6933 12.2713H70.5036C71.3363 12.2713 71.9093 12.4573 72.2215 12.8284C72.5338 13.1995 72.6894 13.5397 72.6894 13.8491C72.6894 14.1585 72.6679 14.4062 72.6261 14.5912Z" fill="#16192C"/>
<path d="M90.0789 14.4062C88.3931 14.4062 86.9563 15.2419 85.7695 16.9123L86.144 14.839H81.2113L78.5576 29.7198H83.866L85.614 19.9435C86.1333 19.2428 86.7482 18.892 87.4564 18.892C87.8727 18.892 88.2011 19.011 88.4404 19.2481C88.6796 19.4852 88.7998 19.7893 88.7998 20.1604C88.7998 20.8621 88.5391 21.449 88.0197 21.9232H92.7347L93.078 21.4905C93.3066 21.1811 93.5416 20.6973 93.7809 20.036C94.0191 19.3768 94.1393 18.6963 94.1393 17.9946C94.1393 16.8814 93.8002 16.0043 93.1253 15.3653C92.446 14.7263 91.4309 14.4062 90.0789 14.4062Z" fill="#16192C"/>
<path d="M134.508 24.9255C134.508 24.8224 134.518 24.7086 134.539 24.5853L136.287 14.8398H130.978L129.105 25.2966C129.021 25.7921 128.98 26.3641 128.98 27.0137C128.98 27.6633 129.167 28.2768 129.542 28.8541C130.104 29.7206 131.331 30.1544 133.226 30.1544C134.476 30.1544 135.588 29.7515 136.567 28.9477L136.722 25.4518C136.348 25.6581 135.921 25.7612 135.442 25.7612C134.82 25.7602 134.508 25.4827 134.508 24.9255Z" fill="#16192C"/>
<path d="M147.746 6.23828H142.437L139.034 25.2954C138.95 25.7909 138.909 26.3682 138.909 27.0274C138.909 27.6877 139.086 28.2958 139.44 28.8529C140.003 29.7195 141.23 30.1533 143.124 30.1533C144.373 30.1533 145.497 29.7503 146.497 28.9465L146.652 25.4506C146.278 25.6569 145.814 25.76 145.263 25.76C144.711 25.76 144.435 25.4921 144.435 24.9562C144.435 24.8318 144.446 24.7085 144.466 24.5852L147.746 6.23828Z" fill="#16192C"/>
<path d="M157.861 14.375C155.405 14.375 153.433 14.9066 151.945 15.9677C150.456 17.0309 149.536 18.5513 149.181 20.531L148.526 24.3671C148.442 24.8424 148.401 25.2847 148.401 25.6972C148.401 28.6668 150.566 30.1521 154.895 30.1521C159.64 30.1521 162.357 28.2234 163.044 24.3671L157.861 24.3055C157.799 24.718 157.591 25.0784 157.237 25.3878C156.883 25.6972 156.457 25.8524 155.957 25.8524C154.604 25.8524 153.928 25.2847 153.928 24.1502C153.928 23.944 153.948 23.7164 153.99 23.4698L154.115 22.7585H163.638L164.012 20.5619C164.096 20.026 164.138 19.5316 164.138 19.0776C164.138 15.9422 162.045 14.375 157.861 14.375ZM158.641 20.8713H154.427C154.613 20.0877 154.952 19.4997 155.441 19.1074C155.93 18.7161 156.471 18.5194 157.064 18.5194C157.656 18.5194 158.089 18.6736 158.359 18.983C158.63 19.2934 158.765 19.5975 158.765 19.8963C158.765 20.1951 158.725 20.5204 158.641 20.8713Z" fill="#16192C"/>
<path d="M124.327 7.50996C121.963 6.99537 119.244 7.80979 117.756 8.87088C116.895 9.48649 115.462 10.756 115.14 13.2471L110.811 36.0287H116.117L118.862 22.8278L126.505 22.7746L127.285 18.4122H119.511L120.39 13.5629C120.844 13.0919 121.357 12.8441 121.937 12.8441C122.353 12.8441 122.682 12.9632 122.921 13.2003C123.16 13.4374 123.28 13.7415 123.28 14.1126C123.28 14.8143 123.02 15.4012 122.5 15.8754H127.138L127.287 15.8722C127.286 15.8732 131.507 9.07396 124.327 7.50996Z" fill="#16192C"/>
<path d="M39.8834 18.5773C41.6793 18.2885 42.8989 16.6119 42.6074 14.8324C42.3159 13.053 40.6238 11.8446 38.8279 12.1333C37.032 12.4221 35.8124 14.0988 36.1039 15.8782C36.3954 17.6577 38.0875 18.8661 39.8834 18.5773Z" fill="#16192C"/>
<path d="M21.9085 6.83285C23.7279 6.83285 25.2028 5.37147 25.2028 3.56877C25.2028 1.76607 23.7279 0.304688 21.9085 0.304688C20.0891 0.304688 18.6143 1.76607 18.6143 3.56877C18.6143 5.37147 20.0891 6.83285 21.9085 6.83285Z" fill="#16192C"/>
<path d="M135.507 12.5166C137.188 11.8267 137.987 9.91725 137.29 8.25173C136.594 6.58622 134.667 5.79531 132.986 6.48521C131.305 7.1751 130.507 9.08454 131.203 10.7501C131.899 12.4156 133.826 13.2065 135.507 12.5166Z" fill="#16192C"/>
</svg>
