<svg width="128" height="28" viewBox="0 0 128 28" fill="none" xmlns="http://www.w3.org/2000/svg">
<path d="M29.6599 16.1956C25.6723 16.1956 23.3275 18.1516 22.6271 22.0636H22.6371C22.4978 22.7129 22.2635 23.2391 21.9324 23.6406C21.573 24.075 21.1269 24.2923 20.5932 24.2923C19.5918 24.2923 19.0914 23.7854 19.0914 22.7708C19.0914 22.5294 19.1248 22.2559 19.1915 21.9493L19.6918 19.2201L20.3172 15.815L21.0427 11.7824L21.0093 11.7953C21.0469 11.5137 21.066 11.2465 21.066 10.9923C21.066 9.9616 20.7492 9.14091 20.1146 8.52941C19.2632 7.69183 17.8706 7.27344 15.9352 7.27344C11.9476 7.27344 9.6028 9.22942 8.90235 13.1414H8.90985C8.76893 13.7553 8.53961 14.2557 8.22107 14.6411C7.86167 15.0756 7.41555 15.2929 6.88187 15.2929C5.88039 15.2929 5.38007 14.786 5.38007 13.7714C5.38007 13.53 5.41343 13.2564 5.48013 12.9499L5.58854 12.5073L1.21154 13.1454L1.04977 13.9645C0.983062 14.3507 0.949707 14.7127 0.949707 15.0515C0.949707 16.0822 1.26658 16.9029 1.90116 17.5144C2.75254 18.3519 4.14511 18.7703 6.08052 18.7703C10.0681 18.7703 12.4129 16.8144 13.1134 12.9024H13.1059C13.2468 12.2885 13.4761 11.788 13.7947 11.4026C14.1541 10.9682 14.6002 10.7509 15.1339 10.7509C16.1354 10.7509 16.6357 11.2578 16.6357 12.2724C16.6357 12.5138 16.6023 12.7873 16.5356 13.0939L16.0353 15.8231L15.4099 19.2282L14.6844 23.2608L14.7178 23.2479C14.6802 23.5295 14.6611 23.7967 14.6611 24.0509C14.6611 25.0816 14.9779 25.9023 15.6125 26.5138C16.4639 27.3514 17.8565 27.7698 19.7919 27.7698C23.7795 27.7698 26.1243 25.8138 26.8248 21.9018H26.8148C26.954 21.2525 27.1883 20.7263 27.5194 20.3248C27.8788 19.8903 28.3249 19.6731 28.8586 19.6731C29.8601 19.6731 30.3604 20.18 30.3604 21.1946C30.3604 21.436 30.327 21.7095 30.2603 22.0161L30.1519 22.4586H34.3922L34.6907 21.0015C34.7574 20.6153 34.7907 20.2532 34.7907 19.9145C34.7907 18.8838 34.4739 18.0631 33.8393 17.4516C32.9887 16.614 31.5953 16.1956 29.6599 16.1956Z" fill="white"/>
<path d="M86.1281 15.6711C86.1948 15.2849 86.2282 14.9228 86.2282 14.5841C86.2282 13.5534 85.9113 12.7327 85.2767 12.1212C84.4253 11.2836 83.0328 10.8652 81.0973 10.8652C77.3749 10.8652 75.0843 12.5702 74.2262 15.9793C74.1654 16.2222 73.8819 17.195 73.8352 17.4549L73.7426 17.9336L73.7209 18.0471C73.6542 18.4333 73.6208 18.7954 73.6208 19.1341C73.6208 20.1648 73.9377 20.9855 74.5723 21.597C75.4237 22.4345 76.8162 22.8529 78.7517 22.8529C82.69 22.8529 85.0241 20.9436 85.757 17.1274H85.7587L86.1281 15.6711ZM80.8914 18.7237C80.532 19.1582 80.0859 19.3755 79.5522 19.3755C78.5507 19.3755 78.0504 18.8686 78.0504 17.854C78.0504 17.6126 78.0837 17.339 78.1504 17.0325L78.2588 16.5899L78.248 16.5924C78.3864 15.9342 78.6224 15.3999 78.9568 14.9944C79.3162 14.5599 79.7623 14.3427 80.296 14.3427C81.2975 14.3427 81.7978 14.8496 81.7978 15.8642C81.7978 16.1056 81.7644 16.3791 81.6977 16.6857L81.5893 17.1282H81.6002C81.4609 17.7856 81.2258 18.319 80.8914 18.7237Z" fill="white"/>
<path d="M60.223 6.85212C59.4467 6.04028 58.1441 5.63477 56.3171 5.63477H48.9173L45.8362 22.4911H50.2032L51.1496 17.3642H54.0373C55.7351 17.3642 57.1752 16.9466 58.3559 16.1114C59.5359 15.2771 60.2488 14.2118 60.4907 12.9156L60.976 10.2701C61.041 9.9112 61.0735 9.56764 61.0735 9.23936C61.0727 8.27304 60.7892 7.47649 60.223 6.85212ZM56.438 11.0425L56.2679 12.0024C56.0578 13.1417 55.289 13.7113 53.9631 13.7113H51.8042L52.6047 9.28683H54.7886C55.4357 9.28683 55.881 9.42764 56.1237 9.70844C56.3663 9.98925 56.4872 10.2467 56.4872 10.4809C56.4872 10.715 56.4706 10.9025 56.438 11.0425Z" fill="white"/>
<path d="M70.0009 10.9023C68.6909 10.9023 67.5743 11.5348 66.6521 12.7988L66.9431 11.2298H63.1098L61.0476 22.491H65.1728L66.5311 15.0927C66.9347 14.5625 67.4125 14.2969 67.9629 14.2969C68.2864 14.2969 68.5416 14.3871 68.7276 14.5665C68.9135 14.7459 69.0069 14.976 69.0069 15.2568C69.0069 15.7879 68.8043 16.232 68.4007 16.5909H72.0647L72.3315 16.2634C72.5092 16.0292 72.6918 15.6632 72.8777 15.1627C73.0628 14.6638 73.1562 14.1489 73.1562 13.6179C73.1562 12.7754 72.8927 12.1117 72.3682 11.6281C71.8404 11.1445 71.0515 10.9023 70.0009 10.9023Z" fill="white"/>
<path d="M104.526 18.8609C104.526 18.7829 104.535 18.6968 104.551 18.6035L105.909 11.2285H101.784L100.328 19.1417C100.263 19.5167 100.231 19.9496 100.231 20.4412C100.231 20.9328 100.376 21.397 100.667 21.8339C101.104 22.4897 102.058 22.8179 103.531 22.8179C104.501 22.8179 105.366 22.513 106.127 21.9047L106.248 19.2592C105.957 19.4153 105.625 19.4933 105.253 19.4933C104.769 19.4925 104.526 19.2825 104.526 18.8609Z" fill="white"/>
<path d="M114.814 4.7207H110.689L108.044 19.1423C107.979 19.5173 107.947 19.9542 107.947 20.453C107.947 20.9527 108.085 21.4129 108.36 21.8345C108.797 22.4902 109.751 22.8185 111.223 22.8185C112.193 22.8185 113.066 22.5136 113.844 21.9053L113.964 19.2598C113.673 19.4159 113.313 19.4939 112.885 19.4939C112.456 19.4939 112.242 19.2912 112.242 18.8856C112.242 18.7915 112.25 18.6982 112.266 18.6048L114.814 4.7207Z" fill="white"/>
<path d="M122.675 10.877C120.766 10.877 119.234 11.2793 118.077 12.0822C116.921 12.8868 116.205 14.0374 115.93 15.5356L115.42 18.4386C115.355 18.7982 115.324 19.1329 115.324 19.4451C115.324 21.6924 117.006 22.8164 120.37 22.8164C124.058 22.8164 126.169 21.3568 126.703 18.4386L122.675 18.3919C122.627 18.7041 122.465 18.9768 122.19 19.211C121.915 19.4451 121.584 19.5626 121.195 19.5626C120.144 19.5626 119.618 19.1329 119.618 18.2744C119.618 18.1183 119.634 17.9461 119.667 17.7595L119.764 17.2212H127.164L127.455 15.5589C127.52 15.1534 127.552 14.7793 127.552 14.4357C127.552 12.0629 125.926 10.877 122.675 10.877ZM123.281 15.793H120.006C120.151 15.2001 120.415 14.7551 120.794 14.4582C121.174 14.1621 121.594 14.0133 122.056 14.0133C122.516 14.0133 122.852 14.1299 123.062 14.3641C123.272 14.599 123.377 14.8291 123.377 15.0552C123.377 15.2813 123.346 15.5275 123.281 15.793Z" fill="white"/>
<path d="M96.6148 5.68237C94.7778 5.29295 92.6647 5.90927 91.509 6.71226C90.8394 7.17812 89.7262 8.13881 89.476 10.024L86.1113 27.2641H90.2348L92.3679 17.2742L98.3075 17.234L98.9138 13.9327H92.8724L93.5553 10.2629C93.908 9.90651 94.3075 9.71904 94.7577 9.71904C95.0813 9.71904 95.3365 9.80915 95.5224 9.98858C95.7084 10.168 95.8018 10.3981 95.8018 10.6789C95.8018 11.21 95.5991 11.6541 95.1955 12.0129H98.7995L98.9154 12.0105C98.9146 12.0113 102.195 6.86594 96.6148 5.68237Z" fill="white"/>
<path d="M30.9929 14.0589C32.3885 13.8404 33.3363 12.5716 33.1098 11.2249C32.8833 9.87834 31.5683 8.96387 30.1727 9.18241C28.7771 9.40096 27.8294 10.6698 28.0559 12.0164C28.2824 13.363 29.5973 14.2775 30.9929 14.0589Z" fill="white"/>
<path d="M17.0251 5.1707C18.4389 5.1707 19.5851 4.06479 19.5851 2.70058C19.5851 1.33638 18.4389 0.230469 17.0251 0.230469C15.6112 0.230469 14.4651 1.33638 14.4651 2.70058C14.4651 4.06479 15.6112 5.1707 17.0251 5.1707Z" fill="white"/>
<path d="M105.303 9.47053C106.61 8.94844 107.23 7.50347 106.689 6.24308C106.148 4.98268 104.65 4.38417 103.344 4.90625C102.038 5.42833 101.417 6.87331 101.958 8.1337C102.5 9.39409 103.997 9.99261 105.303 9.47053Z" fill="white"/>
</svg>
