<?xml version="1.0" encoding="utf-8"?>
<!-- Generator: Adobe Illustrator 26.5.0, SVG Export Plug-In . SVG Version: 6.00 Build 0)  -->
<svg version="1.1" id="Layer_1" xmlns="http://www.w3.org/2000/svg" xmlns:xlink="http://www.w3.org/1999/xlink" x="0px" y="0px"
	 viewBox="0 0 607 443" style="enable-background:new 0 0 607 443;" xml:space="preserve">
<style type="text/css">
	
		.st0{clip-path:url(#SVGID_00000173161530596512431360000007080882474149403039_);fill:url(#SVGID_00000118368466769222578570000012521433381049953667_);}
	.st1{opacity:0.5;clip-path:url(#SVGID_00000173161530596512431360000007080882474149403039_);}
	.st2{fill:#FFFFFF;filter:url(#Adobe_OpacityMaskFilter);}
	
		.st3{mask:url(#path-2-inside-1_592_24691_00000151526757456794743590000017170574067741031844_);fill:url(#SVGID_00000089533697028318551230000018161597869421114024_);stroke:#FFFFFF;stroke-width:6;}
	
		.st4{clip-path:url(#SVGID_00000173161530596512431360000007080882474149403039_);fill:url(#SVGID_00000051348347220338497610000017289139276691342251_);}
	
		.st5{clip-path:url(#SVGID_00000173161530596512431360000007080882474149403039_);fill:url(#SVGID_00000032628042588894608880000010273876168661298573_);fill-opacity:0.5;}
	
		.st6{clip-path:url(#SVGID_00000173161530596512431360000007080882474149403039_);fill:url(#SVGID_00000028314729420481310010000009590359578170310286_);fill-opacity:0.5;}
	.st7{clip-path:url(#SVGID_00000173161530596512431360000007080882474149403039_);fill:#FFFFFF;}
	
		.st8{opacity:0.5;clip-path:url(#SVGID_00000173161530596512431360000007080882474149403039_);fill:url(#SVGID_00000105406379459976626470000014033123496477587125_);enable-background:new    ;}
	
		.st9{clip-path:url(#SVGID_00000173161530596512431360000007080882474149403039_);fill:url(#SVGID_00000041976677297447899940000014188661248393369231_);fill-opacity:0.5;}
	
		.st10{clip-path:url(#SVGID_00000173161530596512431360000007080882474149403039_);fill:url(#SVGID_00000121256007063578209030000005578723968448474302_);fill-opacity:0.5;}
	
		.st11{clip-path:url(#SVGID_00000173161530596512431360000007080882474149403039_);fill:url(#SVGID_00000044139552123080232090000014630494290731845798_);fill-opacity:0.5;}
	
		.st12{clip-path:url(#SVGID_00000173161530596512431360000007080882474149403039_);fill:none;stroke:url(#SVGID_00000137090834911605025580000009217462751200140223_);stroke-width:1.5;stroke-miterlimit:10;}
	
		.st13{clip-path:url(#SVGID_00000173161530596512431360000007080882474149403039_);fill:url(#SVGID_00000035498866533035136500000003344227730685252249_);}
	
		.st14{clip-path:url(#SVGID_00000173161530596512431360000007080882474149403039_);fill:url(#SVGID_00000080201368685696601800000001286710498463897007_);}
	
		.st15{clip-path:url(#SVGID_00000173161530596512431360000007080882474149403039_);fill:url(#SVGID_00000094579327220664175690000008268838801649871005_);}
	
		.st16{clip-path:url(#SVGID_00000173161530596512431360000007080882474149403039_);fill:url(#SVGID_00000138556311983899153480000014622916811237021317_);}
	
		.st17{opacity:0.3;clip-path:url(#SVGID_00000173161530596512431360000007080882474149403039_);fill:#3D17A4;enable-background:new    ;}
	
		.st18{opacity:0.2;clip-path:url(#SVGID_00000173161530596512431360000007080882474149403039_);fill:#3D17A4;enable-background:new    ;}
	.st19{clip-path:url(#SVGID_00000173161530596512431360000007080882474149403039_);fill:#FF8FF7;}
	
		.st20{clip-path:url(#SVGID_00000173161530596512431360000007080882474149403039_);fill:url(#SVGID_00000083060342808097673030000001748236449832974486_);}
	
		.st21{opacity:0.5;clip-path:url(#SVGID_00000173161530596512431360000007080882474149403039_);fill:#FFFFFF;enable-background:new    ;}
	
		.st22{opacity:0.5;clip-path:url(#SVGID_00000173161530596512431360000007080882474149403039_);fill:url(#SVGID_00000168117220563824914570000001845043726526793640_);enable-background:new    ;}
	
		.st23{clip-path:url(#SVGID_00000173161530596512431360000007080882474149403039_);fill:none;stroke:url(#SVGID_00000075865673940304287960000000245598232288935578_);stroke-linecap:round;stroke-linejoin:round;}
	
		.st24{clip-path:url(#SVGID_00000173161530596512431360000007080882474149403039_);fill:none;stroke:url(#SVGID_00000011026552569996017950000004175261361482108859_);stroke-linecap:round;stroke-linejoin:round;}
	
		.st25{clip-path:url(#SVGID_00000173161530596512431360000007080882474149403039_);fill:url(#SVGID_00000124151288525074316340000016423261904256975283_);}
	
		.st26{opacity:0.4;clip-path:url(#SVGID_00000173161530596512431360000007080882474149403039_);fill:#04042A;enable-background:new    ;}
	.st27{clip-path:url(#SVGID_00000173161530596512431360000007080882474149403039_);fill:#FCC3D2;}
	.st28{clip-path:url(#SVGID_00000173161530596512431360000007080882474149403039_);fill:#F480A1;}
	
		.st29{clip-path:url(#SVGID_00000173161530596512431360000007080882474149403039_);fill:url(#SVGID_00000112631776520672069590000006245907828977790619_);}
	
		.st30{opacity:0.4;clip-path:url(#SVGID_00000173161530596512431360000007080882474149403039_);fill:url(#SVGID_00000131342873643229629700000004141808823370856853_);enable-background:new    ;}
	.st31{clip-path:url(#SVGID_00000173161530596512431360000007080882474149403039_);fill:#03104F;}
	.st32{clip-path:url(#SVGID_00000173161530596512431360000007080882474149403039_);fill:#A161F3;}
	
		.st33{opacity:0.7;clip-path:url(#SVGID_00000173161530596512431360000007080882474149403039_);fill:#FFFFFF;enable-background:new    ;}
	.st34{clip-path:url(#SVGID_00000173161530596512431360000007080882474149403039_);fill:#40208E;}
	
		.st35{clip-path:url(#SVGID_00000173161530596512431360000007080882474149403039_);fill:none;stroke:#F480A1;stroke-width:0.91;stroke-miterlimit:10;}
	
		.st36{clip-path:url(#SVGID_00000173161530596512431360000007080882474149403039_);fill:url(#SVGID_00000023991623414849522470000015564412674139541917_);}
	
		.st37{clip-path:url(#SVGID_00000173161530596512431360000007080882474149403039_);fill:url(#SVGID_00000111183316255872571460000012060247531336580013_);}
	
		.st38{clip-path:url(#SVGID_00000173161530596512431360000007080882474149403039_);fill:url(#SVGID_00000160912841927699282680000011771167334820688288_);}
	
		.st39{opacity:0.3;clip-path:url(#SVGID_00000173161530596512431360000007080882474149403039_);fill:#141045;enable-background:new    ;}
	
		.st40{opacity:0.5;clip-path:url(#SVGID_00000173161530596512431360000007080882474149403039_);fill:#141045;enable-background:new    ;}
	
		.st41{opacity:0.35;clip-path:url(#SVGID_00000173161530596512431360000007080882474149403039_);fill:#141045;enable-background:new    ;}
	
		.st42{opacity:0.5;clip-path:url(#SVGID_00000173161530596512431360000007080882474149403039_);fill:#B897FF;enable-background:new    ;}
	.st43{clip-path:url(#SVGID_00000173161530596512431360000007080882474149403039_);fill:#5C3EAD;}
	
		.st44{clip-path:url(#SVGID_00000173161530596512431360000007080882474149403039_);fill:url(#SVGID_00000123434844814773411950000001910185192967027374_);}
	
		.st45{opacity:0.3;clip-path:url(#SVGID_00000173161530596512431360000007080882474149403039_);fill:#04042A;enable-background:new    ;}
	
		.st46{opacity:0.5;clip-path:url(#SVGID_00000173161530596512431360000007080882474149403039_);fill:#E4E1F9;enable-background:new    ;}
	
		.st47{opacity:0.5;clip-path:url(#SVGID_00000173161530596512431360000007080882474149403039_);fill:#04042A;enable-background:new    ;}
	.st48{clip-path:url(#SVGID_00000173161530596512431360000007080882474149403039_);fill:#403A57;}
	.st49{opacity:0.5;fill:#04042A;enable-background:new    ;}
	.st50{clip-path:url(#SVGID_00000173161530596512431360000007080882474149403039_);fill:#04042A;}
	.st51{clip-path:url(#SVGID_00000173161530596512431360000007080882474149403039_);fill:#596FEF;}
	
		.st52{opacity:0.4;clip-path:url(#SVGID_00000173161530596512431360000007080882474149403039_);fill:url(#SVGID_00000075880814246491246740000007931254738136261292_);enable-background:new    ;}
	.st53{opacity:0.5;fill:#2738CA;enable-background:new    ;}
	
		.st54{opacity:0.4;clip-path:url(#SVGID_00000173161530596512431360000007080882474149403039_);fill:url(#SVGID_00000124847857915965376220000017511996577901038497_);enable-background:new    ;}
	.st55{clip-path:url(#SVGID_00000173161530596512431360000007080882474149403039_);fill:#B5D2E8;}
	
		.st56{opacity:0.5;clip-path:url(#SVGID_00000173161530596512431360000007080882474149403039_);fill:#DCF2FF;enable-background:new    ;}
	
		.st57{opacity:0.3;clip-path:url(#SVGID_00000173161530596512431360000007080882474149403039_);fill:url(#SVGID_00000163764754828506233680000005561880574768780428_);enable-background:new    ;}
	.st58{clip-path:url(#SVGID_00000173161530596512431360000007080882474149403039_);fill:#CEE6F4;}
	.st59{clip-path:url(#SVGID_00000173161530596512431360000007080882474149403039_);fill:#EBF8FF;}
	
		.st60{opacity:0.3;clip-path:url(#SVGID_00000173161530596512431360000007080882474149403039_);fill:url(#SVGID_00000025411084974740690090000018362305415967912602_);enable-background:new    ;}
	.st61{clip-path:url(#SVGID_00000173161530596512431360000007080882474149403039_);fill:#F8ACC1;}
	
		.st62{opacity:0.4;clip-path:url(#SVGID_00000173161530596512431360000007080882474149403039_);fill:#90304A;enable-background:new    ;}
	
		.st63{clip-path:url(#SVGID_00000173161530596512431360000007080882474149403039_);fill:url(#SVGID_00000074425049628032880640000011682475099583114148_);}
	
		.st64{opacity:0.7;clip-path:url(#SVGID_00000173161530596512431360000007080882474149403039_);fill:url(#SVGID_00000172441235854810008340000005997244871064925083_);enable-background:new    ;}
	.st65{clip-path:url(#SVGID_00000173161530596512431360000007080882474149403039_);fill:none;stroke:#B56985;stroke-miterlimit:10;}
	
		.st66{clip-path:url(#SVGID_00000173161530596512431360000007080882474149403039_);fill:url(#SVGID_00000037683993241182612750000017221712439548061861_);}
	.st67{clip-path:url(#SVGID_00000173161530596512431360000007080882474149403039_);fill:#7DD5F4;}
	.st68{clip-path:url(#SVGID_00000173161530596512431360000007080882474149403039_);fill:#D4E4FC;}
	.st69{clip-path:url(#SVGID_00000173161530596512431360000007080882474149403039_);fill:#FDFDFF;}
	
		.st70{opacity:0.5;clip-path:url(#SVGID_00000173161530596512431360000007080882474149403039_);fill:#34197F;enable-background:new    ;}
	
		.st71{clip-path:url(#SVGID_00000173161530596512431360000007080882474149403039_);fill:url(#SVGID_00000054945251644476285580000012951374965996759688_);}
	.st72{clip-path:url(#SVGID_00000173161530596512431360000007080882474149403039_);fill:none;}
	.st73{clip-path:url(#SVGID_00000173161530596512431360000007080882474149403039_);fill:#90304A;}
	
		.st74{clip-path:url(#SVGID_00000173161530596512431360000007080882474149403039_);fill:url(#SVGID_00000153677779662083525800000014765821017159586741_);}
	.st75{clip-path:url(#SVGID_00000173161530596512431360000007080882474149403039_);fill:#E4E1F9;}
	
		.st76{clip-path:url(#SVGID_00000173161530596512431360000007080882474149403039_);fill:none;stroke:#9861FB;stroke-width:2;stroke-linecap:round;stroke-linejoin:round;}
	
		.st77{clip-path:url(#SVGID_00000173161530596512431360000007080882474149403039_);fill:none;stroke:url(#SVGID_00000066485733335649109540000009322076449301298836_);stroke-width:2;stroke-linecap:round;stroke-linejoin:round;}
	
		.st78{opacity:0.15;clip-path:url(#SVGID_00000173161530596512431360000007080882474149403039_);fill:#3D17A4;enable-background:new    ;}
	
		.st79{clip-path:url(#SVGID_00000173161530596512431360000007080882474149403039_);fill:url(#SVGID_00000030475628440033160070000011443232320817932422_);}
</style>
<g>
	<defs>
		<rect id="SVGID_1_" width="607" height="443"/>
	</defs>
	<clipPath id="SVGID_00000158009313489260044580000016198105246906821025_">
		<use xlink:href="#SVGID_1_"  style="overflow:visible;"/>
	</clipPath>
	
		<radialGradient id="SVGID_00000016785874973429038730000006711996162921609609_" cx="-2152.2681" cy="2729.2439" r="1" gradientTransform="matrix(3.189599e-15 52.0901 303.155 -1.856289e-14 -827080.25 112478.3672)" gradientUnits="userSpaceOnUse">
		<stop  offset="0" style="stop-color:#6669FB"/>
		<stop  offset="1" style="stop-color:#C4C4C4;stop-opacity:0"/>
	</radialGradient>
	
		<ellipse style="clip-path:url(#SVGID_00000158009313489260044580000016198105246906821025_);fill:url(#SVGID_00000016785874973429038730000006711996162921609609_);" cx="303.6" cy="366.5" rx="303.2" ry="52.1"/>
	<g style="opacity:0.5;clip-path:url(#SVGID_00000158009313489260044580000016198105246906821025_);">
		<defs>
			<filter id="Adobe_OpacityMaskFilter" filterUnits="userSpaceOnUse" x="101.6" y="-3" width="405.3" height="251.5">
				<feColorMatrix  type="matrix" values="1 0 0 0 0  0 1 0 0 0  0 0 1 0 0  0 0 0 1 0"/>
			</filter>
		</defs>
		
			<mask maskUnits="userSpaceOnUse" x="101.6" y="-3" width="405.3" height="251.5" id="path-2-inside-1_592_24691_00000151526757456794743590000017170574067741031844_">
			<path class="st2" d="M500.1,120.8C480.6,108.7,460,98.4,438.6,90c-0.7-0.3-1.4-0.7-2-1.3c-0.6-0.6-1-1.2-1.3-2
				c-0.3-0.7-0.5-1.5-0.5-2.3c0-0.8,0.2-1.6,0.5-2.3L448.4,51c0.3-0.7,0.8-1.4,1.4-2c0.6-0.6,1.3-1,2-1.3c0.8-0.3,1.6-0.4,2.4-0.4
				c0.8,0,1.6,0.2,2.3,0.6c12.6,5.9,24.8,12.4,36.7,19.7c0.8,0.5,1.8,0.9,2.8,1c1,0.1,2,0.1,2.9-0.2c1-0.3,1.8-0.8,2.6-1.4
				c0.8-0.6,1.4-1.4,1.8-2.3c0.7-1.6,0.8-3.4,0.3-5.1c-0.5-1.7-1.6-3.1-3.2-4C442.1,19.7,375.1,0.5,306.7,0h-2.5
				C235,0,167.1,19.2,108.1,55.5c-1.5,0.9-2.7,2.3-3.2,4c-0.5,1.7-0.5,3.5,0.2,5.1c0.4,0.9,1,1.7,1.8,2.4c0.8,0.7,1.6,1.1,2.6,1.4
				c1,0.3,2,0.4,2.9,0.2c1-0.1,1.9-0.5,2.8-1c22.7-13.9,46.8-25.4,72-34c0.8-0.3,1.6-0.4,2.4-0.3c0.8,0.1,1.6,0.3,2.3,0.7
				c0.7,0.4,1.4,0.9,1.9,1.5c0.5,0.6,0.9,1.4,1.1,2.1l9.8,34.5c0.4,1.5,0.2,3.2-0.5,4.5c-0.8,1.4-2.1,2.4-3.6,2.9
				c-32.5,9.5-63.6,23.4-92.3,41.3c-1.5,0.9-2.6,2.3-3,4c-0.5,1.7-0.2,3.5,0.6,5c0.4,0.8,1,1.4,1.7,1.9c0.7,0.5,1.5,0.9,2.4,1.1
				c0.9,0.2,1.7,0.2,2.6,0.1c0.9-0.1,1.7-0.4,2.4-0.9c10.1-6.3,20.4-12,31.1-17.3c0.4-0.2,0.9-0.3,1.3-0.3c0.5,0,0.9,0.1,1.4,0.2
				c0.4,0.2,0.8,0.4,1.2,0.7c0.3,0.3,0.6,0.7,0.8,1.1l16.9,40.2c0.3,0.8,0.4,1.6,0.1,2.4c-0.3,0.8-0.8,1.5-1.5,1.9h-0.1
				c-0.8,0.4-1.5,1.1-2,1.8s-0.9,1.6-1.1,2.5c-0.2,0.9-0.2,1.8,0.1,2.7c0.2,0.9,0.6,1.7,1.2,2.4c0.6,0.7,1.3,1.2,2.1,1.6
				c0.8,0.4,1.7,0.6,2.6,0.6c1.1,0,2.2-0.3,3.1-0.9c32.7-19.1,69.1-30.9,106.8-34.7c0.5-0.1,1.1,0,1.6,0.1c0.5,0.2,1,0.4,1.4,0.7
				c0.4,0.3,0.7,0.7,1,1.2c0.2,0.5,0.4,1,0.4,1.5l2.6,28.7c0.1,1-0.2,2.1-0.9,2.9c-0.7,0.8-1.6,1.3-2.6,1.4
				C254.7,177,228,185.9,204,200c-1.3,0.7-2.3,2-2.7,3.4c-0.4,1.4-0.3,3,0.4,4.3c0.4,0.7,0.9,1.2,1.4,1.7c0.6,0.5,1.3,0.8,2,1
				c0.7,0.2,1.5,0.2,2.2,0.1c0.7-0.1,1.5-0.3,2.1-0.7c15.3-9,31.7-15.8,48.9-20.2c0.5-0.1,0.9-0.1,1.4-0.1c0.5,0.1,0.9,0.2,1.3,0.5
				c0.4,0.2,0.7,0.6,1,0.9c0.3,0.4,0.5,0.8,0.6,1.3l5.9,26.3c0.2,0.9,0,1.8-0.4,2.6c-0.5,0.8-1.2,1.3-2.1,1.5
				c-11.8,2.9-23.2,7.1-34,12.6c-1.1,0.5-1.9,1.4-2.5,2.5c-0.5,1.1-0.6,2.3-0.4,3.5c0.2,0.8,0.5,1.4,1,2c0.5,0.6,1.1,1.1,1.8,1.4
				c0.7,0.3,1.5,0.5,2.2,0.5c0.8,0,1.5-0.2,2.2-0.6c21-10.7,44.2-16.3,67.7-16.4h0.9c22.5,0.2,44.6,5.4,64.8,15.3
				c0.2,0.3,0.5,0.5,0.8,0.8c1.2,0.9,2.7,1.3,4.1,1.2c1.5-0.2,2.8-0.9,3.8-2.1l27.5-35c0.1-0.2,0.3-0.3,0.4-0.5v-0.1l0.1-0.2
				c0.1-0.1,0.1-0.2,0.1-0.3l0.1-0.2c0-0.1,0.1-0.2,0.1-0.3l0.1-0.3l0.1-0.3l0.1-0.3c0-0.1,0-0.2,0-0.3c0-0.1,0-0.2,0-0.3v-0.3
				c0-0.1,0-0.2,0-0.3c0-0.1,0-0.2,0-0.3c0-0.1,0-0.2,0-0.3v-0.3c0-0.1,0-0.2,0-0.3c0-0.1,0-0.2-0.1-0.3l-0.1-0.2l-0.1-0.3l-0.1-0.2
				c0-0.1-0.1-0.2-0.1-0.3l-0.1-0.2c0-0.1-0.1-0.2-0.1-0.3l-0.1-0.2l-0.2-0.2l-0.2-0.2l-0.2-0.2l-0.2-0.2l-0.2-0.2l-0.2-0.2
				l-0.1-0.1l-0.1-0.1l-0.2-0.2l-0.1-0.3l-0.1,0c-4.4-2.6-9.5-5.3-15-8c-1-0.5-1.8-1.3-2.2-2.4c-0.4-1.1-0.3-2.2,0.1-3.2l12.9-27.8
				c0.5-1,1.3-1.8,2.4-2.2c1-0.4,2.2-0.4,3.2,0.1c10.4,4.4,20.5,9.5,30.2,15.3c0.7,0.4,1.6,0.7,2.4,0.8c0.9,0.1,1.7,0,2.6-0.3
				c0.8-0.3,1.6-0.7,2.2-1.3c0.6-0.6,1.2-1.3,1.5-2.1c0.6-1.4,0.6-3,0.1-4.4c-0.5-1.4-1.5-2.7-2.8-3.4
				c-33.3-19.6-70.4-31.9-108.9-36c-0.9-0.1-1.8-0.5-2.4-1.3c-0.6-0.7-0.9-1.6-0.8-2.6l3-37.4c0-0.6,0.2-1.2,0.5-1.8
				c0.3-0.6,0.7-1,1.2-1.4c0.5-0.4,1-0.7,1.6-0.9c0.6-0.2,1.2-0.2,1.8-0.2c55.1,5.3,108.2,23.3,155.1,52.6c0.8,0.5,1.8,0.8,2.7,0.9
				c1,0.1,2,0,2.9-0.3c0.9-0.3,1.8-0.8,2.5-1.5c0.7-0.7,1.2-1.5,1.6-2.4c0.5-1.5,0.5-3-0.1-4.5C502.5,122.8,501.5,121.6,500.1,120.8
				z M208.3,33.4c-0.2-0.8-0.3-1.6-0.2-2.4c0.1-0.8,0.3-1.6,0.7-2.3c0.4-0.7,0.9-1.3,1.6-1.8c0.6-0.5,1.4-0.8,2.1-1
				c72.6-19.1,149.3-15,219.5,11.7c0.8,0.3,1.4,0.7,2,1.3c0.6,0.6,1,1.2,1.4,2c0.3,0.7,0.5,1.5,0.5,2.3s-0.2,1.6-0.5,2.3l-13.9,32.6
				c-0.6,1.4-1.6,2.5-3,3.1c-1.3,0.6-2.9,0.7-4.3,0.3c-61.1-19-126.2-21.9-188.8-8.3c-1.5,0.3-3,0.1-4.4-0.7c-1.3-0.8-2.3-2-2.7-3.5
				L208.3,33.4z M279.7,216.6l-5.9-26.6c-0.1-0.5-0.1-0.9,0-1.4c0.1-0.5,0.3-0.9,0.5-1.3c0.3-0.4,0.6-0.7,1-1
				c0.4-0.3,0.9-0.4,1.3-0.5c8.8-1.4,17.7-2.1,26.7-2.1c30-0.1,59.5,7.1,86.1,20.9c0.5,0.2,0.8,0.6,1.2,1c0.3,0.4,0.5,0.9,0.6,1.4
				c0.1,0.5,0.1,1,0,1.5c-0.1,0.5-0.3,1-0.7,1.4L373.9,231c-0.5,0.6-1.2,1-1.9,1.2c-0.8,0.2-1.6,0.1-2.3-0.2
				c-20.3-9.1-42.3-14-64.6-14.1c-7.2,0-14.4,0.4-21.6,1.4c-0.9,0.1-1.7-0.1-2.4-0.6C280.4,218.2,279.9,217.4,279.7,216.6z
				 M376.1,182c-0.5,1-1.3,1.7-2.2,2.2c-1,0.4-2.1,0.4-3.1,0.1c-21.3-7.7-43.9-11.7-66.5-11.7h-1.7c-1.1,0-2.1-0.4-2.9-1.1
				c-0.8-0.7-1.3-1.7-1.4-2.8l-2.6-28.1c-0.1-0.6,0-1.2,0.2-1.7c0.2-0.6,0.5-1.1,0.9-1.5c0.4-0.4,0.9-0.8,1.4-1
				c0.5-0.2,1.1-0.4,1.7-0.4c4.3-0.1,8.7-0.1,13.1,0.1c2.7,0.1,5.3,0.2,7.9,0.4c0.4,0.1,0.9,0.2,1.4,0.3h0.5c0.3,0,0.7,0,1-0.1
				c21.2,1.6,42.1,5.8,62.3,12.5c0.6,0.2,1.1,0.5,1.5,0.9c0.4,0.4,0.8,0.9,1,1.5c0.2,0.6,0.4,1.2,0.3,1.8c0,0.6-0.1,1.2-0.4,1.7
				L376.1,182z M317,120.6c-0.1,0.9-0.5,1.7-1.1,2.3c-0.6,0.6-1.5,0.9-2.4,0.9h0c-56.1-1.2-92.4,9.6-129.5,28
				c-0.4,0.2-0.9,0.3-1.3,0.3c-0.5,0-0.9,0-1.4-0.2c-0.4-0.2-0.8-0.4-1.2-0.7c-0.3-0.3-0.6-0.7-0.8-1.1l-16.5-39
				c-0.4-0.8-0.4-1.8,0-2.6c0.3-0.8,1-1.5,1.8-1.9c44.2-18.8,91.7-28.5,139.7-28.5h1.6c3.7,0,7.4,0.1,11,0.2c0.5,0,0.9,0.1,1.4,0.3
				c0.4,0.2,0.8,0.5,1.1,0.8c0.3,0.4,0.5,0.8,0.7,1.2c0.1,0.4,0.2,0.9,0.1,1.4L317,120.6z"/>
		</mask>
		
			<linearGradient id="SVGID_00000160894569300808238860000015296961580256716203_" gradientUnits="userSpaceOnUse" x1="304.1982" y1="444" x2="304.1982" y2="198.4977" gradientTransform="matrix(1 0 0 -1 0 444)">
			<stop  offset="0" style="stop-color:#6669FB;stop-opacity:0"/>
			<stop  offset="1" style="stop-color:#6669FB"/>
		</linearGradient>
		
			<path style="mask:url(#path-2-inside-1_592_24691_00000151526757456794743590000017170574067741031844_);fill:url(#SVGID_00000160894569300808238860000015296961580256716203_);stroke:#FFFFFF;stroke-width:6;" d="
			M500.1,120.8C480.6,108.7,460,98.4,438.6,90c-0.7-0.3-1.4-0.7-2-1.3c-0.6-0.6-1-1.2-1.3-2c-0.3-0.7-0.5-1.5-0.5-2.3
			c0-0.8,0.2-1.6,0.5-2.3L448.4,51c0.3-0.7,0.8-1.4,1.4-2c0.6-0.6,1.3-1,2-1.3c0.8-0.3,1.6-0.4,2.4-0.4c0.8,0,1.6,0.2,2.3,0.6
			c12.6,5.9,24.8,12.4,36.7,19.7c0.8,0.5,1.8,0.9,2.8,1c1,0.1,2,0.1,2.9-0.2c1-0.3,1.8-0.8,2.6-1.4c0.8-0.6,1.4-1.4,1.8-2.3
			c0.7-1.6,0.8-3.4,0.3-5.1c-0.5-1.7-1.6-3.1-3.2-4C442.1,19.7,375.1,0.5,306.7,0h-2.5C235,0,167.1,19.2,108.1,55.5
			c-1.5,0.9-2.7,2.3-3.2,4c-0.5,1.7-0.5,3.5,0.2,5.1c0.4,0.9,1,1.7,1.8,2.4c0.8,0.7,1.6,1.1,2.6,1.4c1,0.3,2,0.4,2.9,0.2
			c1-0.1,1.9-0.5,2.8-1c22.7-13.9,46.8-25.4,72-34c0.8-0.3,1.6-0.4,2.4-0.3c0.8,0.1,1.6,0.3,2.3,0.7c0.7,0.4,1.4,0.9,1.9,1.5
			c0.5,0.6,0.9,1.4,1.1,2.1l9.8,34.5c0.4,1.5,0.2,3.2-0.5,4.5c-0.8,1.4-2.1,2.4-3.6,2.9c-32.5,9.5-63.6,23.4-92.3,41.3
			c-1.5,0.9-2.6,2.3-3,4c-0.5,1.7-0.2,3.5,0.6,5c0.4,0.8,1,1.4,1.7,1.9c0.7,0.5,1.5,0.9,2.4,1.1c0.9,0.2,1.7,0.2,2.6,0.1
			c0.9-0.1,1.7-0.4,2.4-0.9c10.1-6.3,20.4-12,31.1-17.3c0.4-0.2,0.9-0.3,1.3-0.3c0.5,0,0.9,0.1,1.4,0.2c0.4,0.2,0.8,0.4,1.2,0.7
			c0.3,0.3,0.6,0.7,0.8,1.1l16.9,40.2c0.3,0.8,0.4,1.6,0.1,2.4c-0.3,0.8-0.8,1.5-1.5,1.9h-0.1c-0.8,0.4-1.5,1.1-2,1.8
			s-0.9,1.6-1.1,2.5c-0.2,0.9-0.2,1.8,0.1,2.7c0.2,0.9,0.6,1.7,1.2,2.4c0.6,0.7,1.3,1.2,2.1,1.6c0.8,0.4,1.7,0.6,2.6,0.6
			c1.1,0,2.2-0.3,3.1-0.9c32.7-19.1,69.1-30.9,106.8-34.7c0.5-0.1,1.1,0,1.6,0.1c0.5,0.2,1,0.4,1.4,0.7c0.4,0.3,0.7,0.7,1,1.2
			c0.2,0.5,0.4,1,0.4,1.5l2.6,28.7c0.1,1-0.2,2.1-0.9,2.9c-0.7,0.8-1.6,1.3-2.6,1.4C254.7,177,228,185.9,204,200
			c-1.3,0.7-2.3,2-2.7,3.4c-0.4,1.4-0.3,3,0.4,4.3c0.4,0.7,0.9,1.2,1.4,1.7c0.6,0.5,1.3,0.8,2,1c0.7,0.2,1.5,0.2,2.2,0.1
			c0.7-0.1,1.5-0.3,2.1-0.7c15.3-9,31.7-15.8,48.9-20.2c0.5-0.1,0.9-0.1,1.4-0.1c0.5,0.1,0.9,0.2,1.3,0.5c0.4,0.2,0.7,0.6,1,0.9
			c0.3,0.4,0.5,0.8,0.6,1.3l5.9,26.3c0.2,0.9,0,1.8-0.4,2.6c-0.5,0.8-1.2,1.3-2.1,1.5c-11.8,2.9-23.2,7.1-34,12.6
			c-1.1,0.5-1.9,1.4-2.5,2.5c-0.5,1.1-0.6,2.3-0.4,3.5c0.2,0.8,0.5,1.4,1,2c0.5,0.6,1.1,1.1,1.8,1.4c0.7,0.3,1.5,0.5,2.2,0.5
			c0.8,0,1.5-0.2,2.2-0.6c21-10.7,44.2-16.3,67.7-16.4h0.9c22.5,0.2,44.6,5.4,64.8,15.3c0.2,0.3,0.5,0.5,0.8,0.8
			c1.2,0.9,2.7,1.3,4.1,1.2c1.5-0.2,2.8-0.9,3.8-2.1l27.5-35c0.1-0.2,0.3-0.3,0.4-0.5v-0.1l0.1-0.2c0.1-0.1,0.1-0.2,0.1-0.3l0.1-0.2
			c0-0.1,0.1-0.2,0.1-0.3l0.1-0.3l0.1-0.3l0.1-0.3c0-0.1,0-0.2,0-0.3c0-0.1,0-0.2,0-0.3v-0.3c0-0.1,0-0.2,0-0.3c0-0.1,0-0.2,0-0.3
			c0-0.1,0-0.2,0-0.3v-0.3c0-0.1,0-0.2,0-0.3c0-0.1,0-0.2-0.1-0.3l-0.1-0.2l-0.1-0.3l-0.1-0.2c0-0.1-0.1-0.2-0.1-0.3l-0.1-0.2
			c0-0.1-0.1-0.2-0.1-0.3l-0.1-0.2l-0.2-0.2l-0.2-0.2l-0.2-0.2l-0.2-0.2l-0.2-0.2l-0.2-0.2l-0.1-0.1l-0.1-0.1l-0.2-0.2l-0.1-0.3
			l-0.1,0c-4.4-2.6-9.5-5.3-15-8c-1-0.5-1.8-1.3-2.2-2.4c-0.4-1.1-0.3-2.2,0.1-3.2l12.9-27.8c0.5-1,1.3-1.8,2.4-2.2
			c1-0.4,2.2-0.4,3.2,0.1c10.4,4.4,20.5,9.5,30.2,15.3c0.7,0.4,1.6,0.7,2.4,0.8c0.9,0.1,1.7,0,2.6-0.3c0.8-0.3,1.6-0.7,2.2-1.3
			c0.6-0.6,1.2-1.3,1.5-2.1c0.6-1.4,0.6-3,0.1-4.4c-0.5-1.4-1.5-2.7-2.8-3.4c-33.3-19.6-70.4-31.9-108.9-36
			c-0.9-0.1-1.8-0.5-2.4-1.3c-0.6-0.7-0.9-1.6-0.8-2.6l3-37.4c0-0.6,0.2-1.2,0.5-1.8c0.3-0.6,0.7-1,1.2-1.4c0.5-0.4,1-0.7,1.6-0.9
			c0.6-0.2,1.2-0.2,1.8-0.2c55.1,5.3,108.2,23.3,155.1,52.6c0.8,0.5,1.8,0.8,2.7,0.9c1,0.1,2,0,2.9-0.3c0.9-0.3,1.8-0.8,2.5-1.5
			c0.7-0.7,1.2-1.5,1.6-2.4c0.5-1.5,0.5-3-0.1-4.5C502.5,122.8,501.5,121.6,500.1,120.8z M208.3,33.4c-0.2-0.8-0.3-1.6-0.2-2.4
			c0.1-0.8,0.3-1.6,0.7-2.3c0.4-0.7,0.9-1.3,1.6-1.8c0.6-0.5,1.4-0.8,2.1-1c72.6-19.1,149.3-15,219.5,11.7c0.8,0.3,1.4,0.7,2,1.3
			c0.6,0.6,1,1.2,1.4,2c0.3,0.7,0.5,1.5,0.5,2.3s-0.2,1.6-0.5,2.3l-13.9,32.6c-0.6,1.4-1.6,2.5-3,3.1c-1.3,0.6-2.9,0.7-4.3,0.3
			c-61.1-19-126.2-21.9-188.8-8.3c-1.5,0.3-3,0.1-4.4-0.7c-1.3-0.8-2.3-2-2.7-3.5L208.3,33.4z M279.7,216.6l-5.9-26.6
			c-0.1-0.5-0.1-0.9,0-1.4c0.1-0.5,0.3-0.9,0.5-1.3c0.3-0.4,0.6-0.7,1-1c0.4-0.3,0.9-0.4,1.3-0.5c8.8-1.4,17.7-2.1,26.7-2.1
			c30-0.1,59.5,7.1,86.1,20.9c0.5,0.2,0.8,0.6,1.2,1c0.3,0.4,0.5,0.9,0.6,1.4c0.1,0.5,0.1,1,0,1.5c-0.1,0.5-0.3,1-0.7,1.4L373.9,231
			c-0.5,0.6-1.2,1-1.9,1.2c-0.8,0.2-1.6,0.1-2.3-0.2c-20.3-9.1-42.3-14-64.6-14.1c-7.2,0-14.4,0.4-21.6,1.4
			c-0.9,0.1-1.7-0.1-2.4-0.6C280.4,218.2,279.9,217.4,279.7,216.6z M376.1,182c-0.5,1-1.3,1.7-2.2,2.2c-1,0.4-2.1,0.4-3.1,0.1
			c-21.3-7.7-43.9-11.7-66.5-11.7h-1.7c-1.1,0-2.1-0.4-2.9-1.1c-0.8-0.7-1.3-1.7-1.4-2.8l-2.6-28.1c-0.1-0.6,0-1.2,0.2-1.7
			c0.2-0.6,0.5-1.1,0.9-1.5c0.4-0.4,0.9-0.8,1.4-1c0.5-0.2,1.1-0.4,1.7-0.4c4.3-0.1,8.7-0.1,13.1,0.1c2.7,0.1,5.3,0.2,7.9,0.4
			c0.4,0.1,0.9,0.2,1.4,0.3h0.5c0.3,0,0.7,0,1-0.1c21.2,1.6,42.1,5.8,62.3,12.5c0.6,0.2,1.1,0.5,1.5,0.9c0.4,0.4,0.8,0.9,1,1.5
			c0.2,0.6,0.4,1.2,0.3,1.8c0,0.6-0.1,1.2-0.4,1.7L376.1,182z M317,120.6c-0.1,0.9-0.5,1.7-1.1,2.3c-0.6,0.6-1.5,0.9-2.4,0.9h0
			c-56.1-1.2-92.4,9.6-129.5,28c-0.4,0.2-0.9,0.3-1.3,0.3c-0.5,0-0.9,0-1.4-0.2c-0.4-0.2-0.8-0.4-1.2-0.7c-0.3-0.3-0.6-0.7-0.8-1.1
			l-16.5-39c-0.4-0.8-0.4-1.8,0-2.6c0.3-0.8,1-1.5,1.8-1.9c44.2-18.8,91.7-28.5,139.7-28.5h1.6c3.7,0,7.4,0.1,11,0.2
			c0.5,0,0.9,0.1,1.4,0.3c0.4,0.2,0.8,0.5,1.1,0.8c0.3,0.4,0.5,0.8,0.7,1.2c0.1,0.4,0.2,0.9,0.1,1.4L317,120.6z"/>
	</g>
	
		<linearGradient id="SVGID_00000165229980305022023860000010037505902792588196_" gradientUnits="userSpaceOnUse" x1="315.0458" y1="264.4169" x2="350.5288" y2="292.3539" gradientTransform="matrix(1 0 0 -1 0 444)">
		<stop  offset="0.18" style="stop-color:#6669FB"/>
		<stop  offset="0.78" style="stop-color:#D8D9FE"/>
	</linearGradient>
	
		<path style="clip-path:url(#SVGID_00000158009313489260044580000016198105246906821025_);fill:url(#SVGID_00000165229980305022023860000010037505902792588196_);" d="
		M349.4,165.6c-3.3-3.9-7.8-6.6-12.8-7.5c-5-0.9-10.2,0-14.6,2.5c0.9,2.7,2.6,5.1,4.7,6.9c2.2,1.8,4.8,3.1,7.5,3.6
		c2.8,0.5,5.7,0.3,8.3-0.7C345.3,169.4,347.6,167.8,349.4,165.6L349.4,165.6z"/>
	
		<linearGradient id="SVGID_00000134958186334701435470000015826024967250975366_" gradientUnits="userSpaceOnUse" x1="325.776" y1="276.2765" x2="348.3535" y2="299.7226" gradientTransform="matrix(1 0 0 -1 0 444)">
		<stop  offset="0.18" style="stop-color:#6669FB"/>
		<stop  offset="0.78" style="stop-color:#D8D9FE"/>
	</linearGradient>
	
		<path style="clip-path:url(#SVGID_00000158009313489260044580000016198105246906821025_);fill:url(#SVGID_00000134958186334701435470000015826024967250975366_);fill-opacity:0.5;" d="
		M334.1,172c-3.2-0.6-6.1-2.1-8.4-4.4c-2.3-2.2-3.9-5.1-4.5-8.3c-0.7-3.2-0.4-6.4,0.8-9.4c1.2-3,3.3-5.6,5.9-7.4
		c2.7-1.8,5.8-2.8,9-2.8c3.2,0,6.4,0.9,9.1,2.6c2.7,1.8,4.8,4.3,6.1,7.2c1.3,3,1.6,6.2,1,9.4c-0.8,4.2-3.2,8-6.8,10.4
		C342.7,171.9,338.3,172.8,334.1,172z M339.9,141.2c-2.9-0.5-5.9-0.2-8.7,1c-2.7,1.2-5.1,3.1-6.7,5.6c-1.6,2.5-2.5,5.4-2.4,8.4
		c0,3,0.9,5.9,2.6,8.3c1.7,2.5,4,4.4,6.8,5.5c2.8,1.1,5.8,1.4,8.7,0.8c2.9-0.6,5.6-2.1,7.6-4.2c2.1-2.1,3.5-4.8,4-7.7
		c0.4-1.9,0.3-3.9-0.1-5.9c-0.4-1.9-1.2-3.8-2.3-5.4c-1.1-1.6-2.5-3-4.2-4.1C343.7,142.3,341.8,141.6,339.9,141.2z"/>
	
		<linearGradient id="SVGID_00000054248720284825430950000008307603028608991665_" gradientUnits="userSpaceOnUse" x1="333.7337" y1="288.8091" x2="342.5674" y2="298.8889" gradientTransform="matrix(1 0 0 -1 0 444)">
		<stop  offset="0.18" style="stop-color:#6669FB"/>
		<stop  offset="0.78" style="stop-color:#D8D9FE"/>
	</linearGradient>
	
		<path style="clip-path:url(#SVGID_00000158009313489260044580000016198105246906821025_);fill:url(#SVGID_00000054248720284825430950000008307603028608991665_);fill-opacity:0.5;" d="
		M338.2,156.9c3.7,0,6.7-3,6.7-6.7s-3-6.7-6.7-6.7c-3.7,0-6.7,3-6.7,6.7S334.4,156.9,338.2,156.9z"/>
	<path style="clip-path:url(#SVGID_00000158009313489260044580000016198105246906821025_);fill:#FFFFFF;" d="M355.6,160.2l-10.7-2
		c-1.5-0.3-2.9,0.7-3.1,2.1l-2,10.7c-0.3,1.5,0.7,2.9,2.1,3.1l10.7,2c1.5,0.3,2.9-0.7,3.1-2.1l2-10.7
		C358,161.8,357,160.4,355.6,160.2z"/>
	
		<linearGradient id="SVGID_00000075883281966327942560000017329648536593655724_" gradientUnits="userSpaceOnUse" x1="1246.811" y1="555.0751" x2="2690.4812" y2="1002.3148" gradientTransform="matrix(1 0 0 -1 0 444)">
		<stop  offset="0.18" style="stop-color:#6669FB"/>
		<stop  offset="0.78" style="stop-color:#D8D9FE"/>
	</linearGradient>
	
		<path style="opacity:0.5;clip-path:url(#SVGID_00000158009313489260044580000016198105246906821025_);fill:url(#SVGID_00000075883281966327942560000017329648536593655724_);enable-background:new    ;" d="
		M355.6,160.2l-10.7-2c-1.5-0.3-2.9,0.7-3.1,2.1l-2,10.7c-0.3,1.5,0.7,2.9,2.1,3.1l10.7,2c1.5,0.3,2.9-0.7,3.1-2.1l2-10.7
		C358,161.8,357,160.4,355.6,160.2z"/>
	<path style="clip-path:url(#SVGID_00000158009313489260044580000016198105246906821025_);fill:#FFFFFF;" d="M347.5,171
		c-0.1,0-0.2,0-0.4-0.1c-0.1-0.1-0.2-0.1-0.3-0.2l-3.5-3.8c-0.1-0.2-0.2-0.4-0.2-0.7c0-0.2,0.1-0.5,0.3-0.6c0.2-0.2,0.4-0.3,0.6-0.3
		c0.2,0,0.5,0.1,0.6,0.3l2.8,3l5.9-5.7c0.1-0.1,0.2-0.2,0.3-0.2c0.1,0,0.2-0.1,0.4-0.1c0.1,0,0.2,0,0.4,0.1c0.1,0,0.2,0.1,0.3,0.2
		c0.2,0.2,0.3,0.4,0.3,0.7c0,0.2-0.1,0.5-0.3,0.7l-6.6,6.3c-0.1,0.1-0.2,0.2-0.3,0.2C347.7,171,347.6,171,347.5,171z"/>
	
		<linearGradient id="SVGID_00000139974969799501810340000009567882746983737216_" gradientUnits="userSpaceOnUse" x1="378.2497" y1="342.2543" x2="381.7784" y2="348.5097" gradientTransform="matrix(1 0 0 -1 0 444)">
		<stop  offset="0.18" style="stop-color:#6669FB"/>
		<stop  offset="0.78" style="stop-color:#D8D9FE"/>
	</linearGradient>
	
		<path style="clip-path:url(#SVGID_00000158009313489260044580000016198105246906821025_);fill:url(#SVGID_00000139974969799501810340000009567882746983737216_);fill-opacity:0.5;" d="
		M383.4,96.5l-5.2-1.5c-1-0.3-2,0.3-2.3,1.3l-0.6,2.2c-0.3,1,0.3,2,1.3,2.3l5.2,1.5c1,0.3,2-0.3,2.3-1.3l0.6-2.2
		C385,97.8,384.4,96.8,383.4,96.5z"/>
	
		<linearGradient id="SVGID_00000003811439641235825990000002018591409286295170_" gradientUnits="userSpaceOnUse" x1="371.8913" y1="314.3486" x2="399.0279" y2="345.0127" gradientTransform="matrix(1 0 0 -1 0 444)">
		<stop  offset="0.18" style="stop-color:#6669FB"/>
		<stop  offset="0.78" style="stop-color:#D8D9FE"/>
	</linearGradient>
	
		<path style="clip-path:url(#SVGID_00000158009313489260044580000016198105246906821025_);fill:url(#SVGID_00000003811439641235825990000002018591409286295170_);fill-opacity:0.5;" d="
		M405.8,105.4l-32.7-9.5c-1.7-0.5-3.5,0.5-4,2.2l-6.2,21.2c-0.5,1.7,0.5,3.5,2.2,4l32.7,9.5c1.7,0.5,3.5-0.5,4-2.2l6.2-21.2
		C408.5,107.7,407.5,105.9,405.8,105.4z"/>
	
		<linearGradient id="SVGID_00000159468874645200908900000007041035486795622589_" gradientUnits="userSpaceOnUse" x1="375.8337" y1="332.5027" x2="395.1271" y2="326.9011" gradientTransform="matrix(1 0 0 -1 0 444)">
		<stop  offset="0.18" style="stop-color:#6669FB"/>
		<stop  offset="0.78" style="stop-color:#D8D9FE"/>
	</linearGradient>
	
		<path style="clip-path:url(#SVGID_00000158009313489260044580000016198105246906821025_);fill:url(#SVGID_00000159468874645200908900000007041035486795622589_);fill-opacity:0.5;" d="
		M385.5,124.3c5.5,0,10-4.5,10-10c0-5.5-4.5-10-10-10c-5.5,0-10,4.5-10,10C375.4,119.8,379.9,124.3,385.5,124.3z"/>
	<path style="clip-path:url(#SVGID_00000158009313489260044580000016198105246906821025_);fill:#FFFFFF;" d="M385.5,121.7
		c4.1,0,7.4-3.3,7.4-7.4c0-4.1-3.3-7.4-7.4-7.4c-4.1,0-7.4,3.3-7.4,7.4C378.1,118.4,381.4,121.7,385.5,121.7z"/>
	
		<linearGradient id="SVGID_00000121989476305877263310000002787835304769746306_" gradientUnits="userSpaceOnUse" x1="-842.5001" y1="-2089.707" x2="-447.2902" y2="-1219.6471" gradientTransform="matrix(1 0 0 -1 0 444)">
		<stop  offset="0.18" style="stop-color:#6669FB"/>
		<stop  offset="0.78" style="stop-color:#D8D9FE"/>
	</linearGradient>
	
		<path style="clip-path:url(#SVGID_00000158009313489260044580000016198105246906821025_);fill:none;stroke:url(#SVGID_00000121989476305877263310000002787835304769746306_);stroke-width:1.5;stroke-miterlimit:10;" d="
		M239.4,150.3l-19.3,5.6c-1.4,0.4-2.2,1.9-1.8,3.3l5.6,19.3c0.4,1.4,1.9,2.2,3.3,1.8l19.3-5.6c1.4-0.4,2.2-1.9,1.8-3.3l-5.6-19.3
		C242.3,150.7,240.8,149.8,239.4,150.3z"/>
	
		<linearGradient id="SVGID_00000028313520999130487510000008821549816112913053_" gradientUnits="userSpaceOnUse" x1="-433.5991" y1="-1728.3619" x2="-299.1291" y2="-1322.3318" gradientTransform="matrix(1 0 0 -1 0 444)">
		<stop  offset="0.18" style="stop-color:#6669FB"/>
		<stop  offset="0.78" style="stop-color:#D8D9FE"/>
	</linearGradient>
	
		<path style="clip-path:url(#SVGID_00000158009313489260044580000016198105246906821025_);fill:url(#SVGID_00000028313520999130487510000008821549816112913053_);" d="
		M234.1,171.8c-0.2,0.1-0.4,0.1-0.6,0.1c-0.2,0-0.4,0-0.6-0.1l-7.5-2.8c-0.2-0.1-0.4-0.2-0.5-0.3c-0.2-0.1-0.3-0.3-0.4-0.5
		c-0.1-0.2-0.1-0.4-0.1-0.6c0-0.2,0-0.4,0.1-0.6c0.1-0.2,0.2-0.4,0.3-0.5c0.1-0.1,0.3-0.3,0.5-0.3c0.2-0.1,0.4-0.1,0.6-0.1
		c0.2,0,0.4,0,0.6,0.1l6.1,2.3l4.3-12.2c0.1-0.2,0.2-0.4,0.3-0.5c0.1-0.1,0.3-0.3,0.5-0.4c0.2-0.1,0.4-0.1,0.6-0.2
		c0.2,0,0.4,0,0.6,0.1s0.4,0.2,0.5,0.3c0.1,0.1,0.3,0.3,0.4,0.5c0.1,0.2,0.1,0.4,0.2,0.6c0,0.2,0,0.4-0.1,0.6l-4.9,13.7
		c-0.1,0.2-0.1,0.4-0.3,0.5C234.4,171.6,234.3,171.7,234.1,171.8z"/>
	
		<linearGradient id="SVGID_00000142897619448143447490000005926524542384562577_" gradientUnits="userSpaceOnUse" x1="210.5079" y1="59.1151" x2="119.9769" y2="267.2911" gradientTransform="matrix(1 0 0 -1 0 444)">
		<stop  offset="1.000000e-02" style="stop-color:#855199"/>
		<stop  offset="0.5" style="stop-color:#DDB1B9"/>
		<stop  offset="0.95" style="stop-color:#FFE1E1"/>
	</linearGradient>
	
		<path style="clip-path:url(#SVGID_00000158009313489260044580000016198105246906821025_);fill:url(#SVGID_00000142897619448143447490000005926524542384562577_);" d="
		M123.5,214.8c-17.1,3.1-32.5,6.7-33.5,14.1c-0.2,1.4,0.1,2.7,0.7,4C72.4,254,68.5,261,69.8,262.3c0.9,0.9,4.3-1,5,0
		c0.9,1.4-4.6,5.4-8.3,10.8c-7.9,11.5-6.7,27.4-3.6,28.4c1.4,0.4,2.6-2.3,4-1.8c4,1.3-2.1,25.3,2.5,27c1.9,0.7,3.9-3,6.1-2.2
		c3,1.1,1.5,8.9,2.9,14.1c3.2,12.3,24.2,16.9,31,18.4c25,5.5,87.4,1.7,168.3-11.5c7.5-22.1,5.6-37.3,1.8-47.5
		c-3.1-8.5-10.2-20.7-8.3-22c1.1-0.8,4,3.3,5.4,2.5c2.7-1.5-1.9-19.7-13.7-33.5c-3.2-3.9-6.9-7.4-11.2-10.1
		c-9.3-5.8-18.9-6.7-18.8-8.3c0.1-1.3,6.5-0.7,6.8-2.2c0.6-2.4-14.1-9.6-28.8-13.7C185.7,203.7,165,207.4,123.5,214.8z"/>
	
		<linearGradient id="SVGID_00000172410414535688758910000014577095383399100296_" gradientUnits="userSpaceOnUse" x1="208.9522" y1="135.0465" x2="102.1242" y2="312.4655" gradientTransform="matrix(1 0 0 -1 0 444)">
		<stop  offset="2.000000e-02" style="stop-color:#8F4F8E"/>
		<stop  offset="0.4" style="stop-color:#DDB1B9"/>
		<stop  offset="0.95" style="stop-color:#FFE1E1"/>
	</linearGradient>
	
		<path style="clip-path:url(#SVGID_00000158009313489260044580000016198105246906821025_);fill:url(#SVGID_00000172410414535688758910000014577095383399100296_);" d="
		M120.2,226.5l-0.5,0.1c-3.4,1-23.7,7.2-23.7,12.5c0,5.9,10.3,10.7,10.3,10.7l2.4,10.5c0,0,9.8-2.8,13.8,9.3c4,12.1,0-0.3,0-0.3
		s18.2,7,22.3,25c4,17.9,12.1,3,16.5,11.6c4.4,8.5,6.6,18.3,13.9,18.1c7.4-0.2,23.5-17.8,23.5-17.8s8.1-15.4,18.8-19.3
		s28.3-14.6,28.3-14.6l2.2-17.8L120.2,226.5z"/>
	
		<linearGradient id="SVGID_00000119114385880548461130000007782699567167873920_" gradientUnits="userSpaceOnUse" x1="142.2261" y1="264.3525" x2="187.0521" y2="174.0395" gradientTransform="matrix(1 0 0 -1 0 444)">
		<stop  offset="0" style="stop-color:#995AFF"/>
		<stop  offset="1" style="stop-color:#DC59BF"/>
	</linearGradient>
	
		<path style="clip-path:url(#SVGID_00000158009313489260044580000016198105246906821025_);fill:url(#SVGID_00000119114385880548461130000007782699567167873920_);" d="
		M148.9,174.2c-2.7,0.9-5.2,2.2-7.5,3.9c-4.9,3.4-3.7,4.7-8.1,8c-0.8,0.6-2.5,1.8-2.8,3.8c-0.1,0.6-0.1,1.2,0,1.7
		c-2.3,1.7-4.4,3.7-6.3,5.8c-1.9,2.1-6.3,7.6-12.6,32.3c-1.9,7.5-2.8,12-1.9,17.6c0.9,5.9,3,9,3.8,10c2,2.6,4.7,4.7,7.8,6
		c2.9,1.3,6.1,2,9.3,2c11.6,0.4,24.6-6.4,27.2-7.9l78.8-23.8c-1.2-3.5-3-6.7-5.3-9.6c-7.6-9.6-18.3-12.2-22-12.9
		c-0.4-4.8-2.2-9.3-5.1-13.1c-1.9-2.4-4.2-4.4-6.8-6c0-2.2-0.5-4.3-1.6-6.2c-1.6-2.8-4-4-6.6-5.6s-6.8-4.1-11.7-7.6L148.9,174.2z"/>
	
		<path style="opacity:0.3;clip-path:url(#SVGID_00000158009313489260044580000016198105246906821025_);fill:#3D17A4;enable-background:new    ;" d="
		M162.7,208.2c4.4-10.4,11.8-19.4,21.1-25.7c-1.8-1.8-3.9-3.3-6.2-4.4c-1.6-0.8-3.4-1.4-5.1-1.7l-20.1,0.6c-1.7,0.4-3.3,1.4-4.4,2.7
		c-0.8,1.1-1.6,2.3-2.2,3.5l-0.8,0.3c3.3,1.3,6.8,2.8,10.3,4.5c4.2,2,8.1,4,11.6,6.1c-2.1,2.3-3.5,5.1-4.1,8.2
		C162.4,204.2,162.4,206.2,162.7,208.2z"/>
	
		<path style="opacity:0.2;clip-path:url(#SVGID_00000158009313489260044580000016198105246906821025_);fill:#3D17A4;enable-background:new    ;" d="
		M131.5,240.8c2.8,0.1,5.5,0.4,8.2,0.9c-0.6-10.5-1.3-21-1.9-31.5c-9.8,9.1-17.7,20.1-23.1,32.4
		C120.2,241.2,125.8,240.6,131.5,240.8z"/>
	
		<path style="opacity:0.3;clip-path:url(#SVGID_00000158009313489260044580000016198105246906821025_);fill:#3D17A4;enable-background:new    ;" d="
		M209.1,211.1c-0.4-4.8-2.2-9.3-5.1-13.1c-1.8-2.3-4-4.3-6.5-5.8c-0.6,2.1-1.5,4.6-1.5,4.6c-7.1,4.9-15.2,8.1-23.7,9.5l24.5,28.8
		l22.7,3.6l17.8-3.4c-1.3-4.1-3.4-8-6.1-11.4C223.5,214.4,212.8,211.8,209.1,211.1z"/>
	
		<path style="opacity:0.2;clip-path:url(#SVGID_00000158009313489260044580000016198105246906821025_);fill:#3D17A4;enable-background:new    ;" d="
		M160.7,201.1c0,0-8-3.4-15.5-5.9c-9.7-3.2-14.2-3.6-14.4-5.6c-0.1-1.4,2.2-2.8,4-3.4c4.6-1.4,9.5,2,9.6,1.8
		c0.1-0.2-5.3-1.8-6.2-5.2c-0.2-0.7-0.2-1.3,0-2c-1.5,1.7-1.9,3-4.9,5.3c-0.8,0.6-2.5,1.8-2.8,3.8c-0.1,0.6-0.1,1.2,0,1.7
		c-0.8,0.6-1.7,1.4-2.8,2.3L160.7,201.1z"/>
	<path style="clip-path:url(#SVGID_00000158009313489260044580000016198105246906821025_);fill:#FF8FF7;" d="M199.8,339.6l2.5,17.6
		l-14.6-1.1l-4.5-15.3L199.8,339.6z"/>
	
		<linearGradient id="SVGID_00000006687832159010266160000002795863487443513236_" gradientUnits="userSpaceOnUse" x1="189.1306" y1="47.7493" x2="204.3816" y2="85.3483" gradientTransform="matrix(1 0 0 -1 0 444)">
		<stop  offset="1.000000e-02" style="stop-color:#A76897"/>
		<stop  offset="0.4" style="stop-color:#DDB1B9"/>
		<stop  offset="0.95" style="stop-color:#FFE1E1"/>
	</linearGradient>
	
		<path style="clip-path:url(#SVGID_00000158009313489260044580000016198105246906821025_);fill:url(#SVGID_00000006687832159010266160000002795863487443513236_);" d="
		M187.1,350.9c-0.4,0.3-0.1,0.9-0.2,2.4c-0.1,1-0.2,1.9-0.5,2.8c-0.7,0.2-1.3,0.5-1.9,1c-1.9,1.6-1.7,4.3-1.6,5
		c0.2,1.7,0.9,3.4,2,4.8c1.6,2.3,2.7,2.5,4.6,4.7c1.2,1.4,2.1,2.9,2.8,4.6c1.9,2.7,4.5,4.8,7.6,6c3.3,1.2,5.8,0.9,10.6,0.4
		c3.9-0.4,5-1.1,5.6-1.9c1.7-1.8,1.6-4.4,1.6-5.2c-0.1-2-0.9-3.9-2.2-5.5c-0.2-0.3-0.5-0.8-0.9-1.4c-4-5.9-6.7-7.6-9-11.2
		c-1.5-2.4-2.5-5.1-2.9-7.8c-0.4-1.5-1.3-2.7-2.6-3.5c-1.3-0.8-2.9-1-4.3-0.6c-1.5,0.4-2.7,1.3-3.5,2.6c-0.8,1.3-1,2.9-0.6,4.3
		C188.6,350.5,187.5,350.5,187.1,350.9z"/>
	
		<path style="opacity:0.5;clip-path:url(#SVGID_00000158009313489260044580000016198105246906821025_);fill:#FFFFFF;enable-background:new    ;" d="
		M208.8,361.6c-1.2-1.3-2.3-2.7-3.3-4.1c-1.5-2.4-2.5-5.1-2.9-7.8c-0.5-1.3-1.4-2.4-2.7-3c-1.2-0.6-2.7-0.8-4-0.5
		c-1.3,0.3-2.5,1.1-3.3,2.3c-0.8,1.1-1.1,2.5-1,3.9l6.8,11.4C201.8,362.7,205.3,362,208.8,361.6z"/>
	
		<linearGradient id="SVGID_00000157295661043807070290000006268850059298047415_" gradientUnits="userSpaceOnUse" x1="182.798" y1="74.4308" x2="217.581" y2="74.4308" gradientTransform="matrix(1 0 0 -1 0 444)">
		<stop  offset="0" style="stop-color:#8134BC"/>
		<stop  offset="1" style="stop-color:#21136E"/>
	</linearGradient>
	
		<path style="opacity:0.5;clip-path:url(#SVGID_00000158009313489260044580000016198105246906821025_);fill:url(#SVGID_00000157295661043807070290000006268850059298047415_);enable-background:new    ;" d="
		M215.7,370.4c0.2,0.8,0.9,3.9-0.7,5.7c-0.3,0.3-1.1,1-5.1,1.6c-3.3,0.4-4.9,0.7-7,0.3c-3.1-0.6-5.9-2-8.2-4.2
		c-1.5-1.4-1-1.5-3.3-4.3c-3.5-4.2-5-4.4-5.8-6.7c-0.5-1.3-0.7-3.4,0.7-6.7c-0.7,0.2-1.3,0.5-1.9,1c-1.9,1.6-1.7,4.3-1.6,5
		c0.2,1.7,0.9,3.4,2,4.8c1.6,2.3,2.7,2.5,4.6,4.7c1.2,1.4,2.1,2.9,2.8,4.6c1.9,2.7,4.5,4.8,7.6,6c3.3,1.2,5.8,0.9,10.6,0.4
		c3.9-0.4,5-1.1,5.6-1.9c1.7-1.8,1.6-4.4,1.6-5.2C217.5,373.6,216.8,371.9,215.7,370.4z"/>
	
		<linearGradient id="SVGID_00000036947879793827772690000013919452259697458077_" gradientUnits="userSpaceOnUse" x1="194.792" y1="87.6323" x2="205.576" y2="87.6323" gradientTransform="matrix(1 0 0 -1 0 444)">
		<stop  offset="6.000000e-02" style="stop-color:#FFFFFF"/>
		<stop  offset="0.17" style="stop-color:#FFFFFF"/>
		<stop  offset="0.57" style="stop-color:#35D1F3"/>
		<stop  offset="0.96" style="stop-color:#35D1F3"/>
	</linearGradient>
	
		<path style="clip-path:url(#SVGID_00000158009313489260044580000016198105246906821025_);fill:none;stroke:url(#SVGID_00000036947879793827772690000013919452259697458077_);stroke-linecap:round;stroke-linejoin:round;" d="
		M195.3,358c0,0,7.6-6.2,9.8-1.8"/>
	
		<linearGradient id="SVGID_00000060025930454472710520000015920385454970504592_" gradientUnits="userSpaceOnUse" x1="1694.75" y1="83.6469" x2="1814.99" y2="83.6469" gradientTransform="matrix(1 0 0 -1 0 444)">
		<stop  offset="6.000000e-02" style="stop-color:#FFFFFF"/>
		<stop  offset="0.17" style="stop-color:#FFFFFF"/>
		<stop  offset="0.57" style="stop-color:#35D1F3"/>
		<stop  offset="0.96" style="stop-color:#35D1F3"/>
	</linearGradient>
	
		<path style="clip-path:url(#SVGID_00000158009313489260044580000016198105246906821025_);fill:none;stroke:url(#SVGID_00000060025930454472710520000015920385454970504592_);stroke-linecap:round;stroke-linejoin:round;" d="
		M197.9,361.9c0,0,6.6-5.9,10.2-1.3"/>
	
		<linearGradient id="SVGID_00000069362852741705156040000002354335219862881172_" gradientUnits="userSpaceOnUse" x1="-17394.4785" y1="-23712.3145" x2="3709.5723" y2="4963.0864" gradientTransform="matrix(1 0 0 -1 0 444)">
		<stop  offset="0.18" style="stop-color:#6669FB"/>
		<stop  offset="0.78" style="stop-color:#D8D9FE"/>
	</linearGradient>
	
		<path style="clip-path:url(#SVGID_00000158009313489260044580000016198105246906821025_);fill:url(#SVGID_00000069362852741705156040000002354335219862881172_);" d="
		M121.2,261.2l1.4,8.6c0,0,9.7,1.6,22.2,24.8c7,0.2,14.1-0.7,20.9-2.5l12.1,52.8c8.7,0.7,17.5-0.8,25.5-4.3l-5.1-39.9
		c10.9-7.6,20.2-13.8,27.4-18.4c21.1-13.5,29.7-17.4,31.3-26.6c0.5-3.1,0.2-6.2-0.7-9.2c-1-3-2.7-5.6-4.9-7.8
		c-1.8-1.7-3.9-2.9-6.2-3.8c-3.7-1.3-7.7-1.4-11.5-0.4c-2.4,0.6-5.3,1.4-8.7,2.2c-14.4,3.4-25.3,5.1-27.7,5.6L121.2,261.2z"/>
	
		<path style="opacity:0.4;clip-path:url(#SVGID_00000158009313489260044580000016198105246906821025_);fill:#04042A;enable-background:new    ;" d="
		M233.3,242.3c-15,8.5-28.1,20-38.5,33.7c-0.4-2.6-1.6-8.1-6.2-12c-2.8-2.4-5.9-3.4-11.9-4.3c-8.2-1.2-16.5-1.4-24.8-0.6
		L233.3,242.3z"/>
	
		<path style="opacity:0.4;clip-path:url(#SVGID_00000158009313489260044580000016198105246906821025_);fill:#04042A;enable-background:new    ;" d="
		M163.7,275.1c-14,1-28-1-41.2-5.6v0.3c0,0,9.8,1.6,22.3,24.8c7,0.2,14.1-0.7,20.9-2.5c-1.1-3.9-1.8-7.8-2-11.8
		C163.6,278.4,163.6,276.7,163.7,275.1z"/>
	
		<path style="opacity:0.4;clip-path:url(#SVGID_00000158009313489260044580000016198105246906821025_);fill:#04042A;enable-background:new    ;" d="
		M250,260.5c-5.5,6.5-35.6,34.6-49.5,25.6c-1.8-1.2-4.2-3.5-5.5-8.8l3.2,23.2c10.9-7.6,20.2-13.8,27.4-18.4
		c21.1-13.5,29.7-17.4,31.3-26.6c0.4-2.2,0.3-4.4-0.1-6.5c-0.3,0.8-0.6,1.6-1,2.4C254.2,254.7,252.3,257.7,250,260.5z"/>
	<path style="clip-path:url(#SVGID_00000158009313489260044580000016198105246906821025_);fill:#FCC3D2;" d="M148.7,185.2v-5.3
		l0.6-13.9c2-1.2,4.1-1.9,6.4-2.2c2.3-0.3,4.6,0,6.7,0.6c2.2,0.7,4.2,1.8,5.9,3.4c1.7,1.5,3.1,3.4,4,5.5l0.5,7l0.4,6.3l0.2,3.1
		l0.1,1.7c-0.5,0.7-1.1,1.4-1.6,2.1c-0.6,0.9-1.3,1.7-1.9,2.5c-1.5-0.9-3.1-1.9-4.7-2.8C160.1,190.1,154.5,187.5,148.7,185.2z"/>
	<path style="clip-path:url(#SVGID_00000158009313489260044580000016198105246906821025_);fill:#F480A1;" d="M173.4,181.8l0.4,6.3
		c-1.8,0.2-3.8-0.7-6.8-2c-6.6-2.8-9.2-6.5-9.2-6.5c2.3,0.8,4.7,1.4,7.1,1.9C167.6,181.9,170.5,182.1,173.4,181.8z"/>
	<path style="clip-path:url(#SVGID_00000158009313489260044580000016198105246906821025_);fill:#FCC3D2;" d="M176.9,179.7
		c-3.5,6.4-12.5,3.8-16.7,0.7c-4.3-3.1-15.6-14.1-16.2-29.7c-0.7-19.7,37.5-20.8,37.7-2.2c0,0,0,0.8-0.1,2.2
		c-0.1,1.4-0.2,3.4-0.4,5.6C180.4,164.2,179.1,175.7,176.9,179.7z"/>
	
		<linearGradient id="SVGID_00000168824888849602951300000010498938164101098888_" gradientUnits="userSpaceOnUse" x1="4036.53" y1="297.6187" x2="6234.77" y2="297.6187" gradientTransform="matrix(1 0 0 -1 0 444)">
		<stop  offset="7.000000e-02" style="stop-color:#9962FB"/>
		<stop  offset="0.27" style="stop-color:#A161F3"/>
		<stop  offset="0.5" style="stop-color:#B860DE"/>
		<stop  offset="0.75" style="stop-color:#DA5DBD"/>
	</linearGradient>
	
		<path style="clip-path:url(#SVGID_00000158009313489260044580000016198105246906821025_);fill:url(#SVGID_00000168824888849602951300000010498938164101098888_);" d="
		M153.3,128.7c-2.2,0.8-4.2,1.9-6,3.4c-3.6,3.1-6.1,7.3-7,12c-1,4.4-0.8,8.9,0.8,13.1c1.5,3.8,3.9,7.2,7.2,9.8l0.5-11.7
		c0.1,0.2,0.3,0.3,0.6,0.4c1.5,0.3,4-3.9,7.5-12.7c1.6,0.8,3.2,1.4,4.9,1.9c9.7,2.8,17.1-0.4,19.4,3c0.3,0.5,0.5,1,0.5,1.5
		c0.1,0.5,0,1.1-0.1,1.6c1.8-1.7,3.1-4.1,3.5-6.6c0.7-4.7-2.1-9.7-6.9-12.6c-1.6-2.1-3.8-3.7-6.4-4.4c-0.8-0.2-1.5-0.3-2.3-0.4
		c-1.5-0.6-3-1-4.6-1.2C160.8,125.5,156.8,126.5,153.3,128.7z"/>
	
		<linearGradient id="SVGID_00000043426820890085328080000007812020287282210698_" gradientUnits="userSpaceOnUse" x1="2287.02" y1="297.6601" x2="2953.1699" y2="297.6601" gradientTransform="matrix(1 0 0 -1 0 444)">
		<stop  offset="0" style="stop-color:#8134BC"/>
		<stop  offset="1" style="stop-color:#21136E"/>
	</linearGradient>
	
		<path style="opacity:0.4;clip-path:url(#SVGID_00000158009313489260044580000016198105246906821025_);fill:url(#SVGID_00000043426820890085328080000007812020287282210698_);enable-background:new    ;" d="
		M164.9,126c-2.2-0.1-4.4,0.1-6.5,0.6c-1.8,0.5-3.4,1.2-5,2c-2.1,0.9-4.1,2-6,3.4c-3.6,3.1-6.1,7.3-7,12c-1.1,5.1-0.2,9.1,0.8,13.1
		c0.2,1.5,0.6,3,1.3,4.4c1.8,3.2,5.6,5.9,7,5c2.1-1.2-2.9-8.5-1.7-18.8c0.5-3.8,1.7-7.5,3.6-10.8c1.1-2.8,3-5.3,5.4-7.1
		C159.2,128.2,162,126.9,164.9,126z"/>
	<path style="clip-path:url(#SVGID_00000158009313489260044580000016198105246906821025_);fill:#FCC3D2;" d="M148.6,169
		c-0.2,0-0.3,0-0.5,0c-2.9,0-5.6-2.2-6.6-6.6c-0.3-1-0.3-2.1-0.1-3.1c0.2-1,0.7-2,1.4-2.8c0.9-1,2.2-1.6,3.6-1.7
		c3.3-0.3,4.7,2.7,5.1,6.4C152,164.9,151.7,168.7,148.6,169z"/>
	<path style="clip-path:url(#SVGID_00000158009313489260044580000016198105246906821025_);fill:#F480A1;" d="M148.2,169
		c-2.9,0-5.6-2.2-6.6-6.6c-0.3-1-0.3-2.1-0.1-3.1c0.2-1,0.7-2,1.4-2.8c-0.4,0.5-0.6,1.1-0.7,1.7c-0.5,2.5,0,6.1,1.6,8
		C145,167.5,146.5,168.5,148.2,169z"/>
	<path style="clip-path:url(#SVGID_00000158009313489260044580000016198105246906821025_);fill:#F480A1;" d="M144.9,159
		c0.7,0.3,1.4,0.7,1.9,1.3c0.5,0.6,1,1.2,1.2,2c0.9,2.5,0.2,3.2,0.2,3.2s0.3-0.8-1.1-2.1c-1.3-1.2-2-1.1-2-1.1l2.4,0.3
		C147.4,162.4,146.5,159.9,144.9,159z"/>
	<path style="clip-path:url(#SVGID_00000158009313489260044580000016198105246906821025_);fill:#03104F;" d="M169.3,159l-1.5-1.3
		c-1.2-1-2.6-1.7-4.1-2l-15.5-2.7c-0.6-0.1-0.9,0.9-0.4,1.4l6.5,6.1c1.1,1.1,2.4,1.9,3.8,2.4c1.5,0.5,3,0.5,4.5,0.2l6.4-1.5
		C170,161.5,170.2,159.7,169.3,159z"/>
	<path style="clip-path:url(#SVGID_00000158009313489260044580000016198105246906821025_);fill:#A161F3;" d="M169.3,159l-1.5-1.3
		c-1.2-1-2.6-1.7-4.1-2l-15.5-2.7c-0.6-0.1-0.9,0.9-0.4,1.4l6.5,6.1c1.1,1.1,2.4,1.9,3.8,2.4c1.5,0.5,3,0.5,4.5,0.2l6.4-1.5
		C170,161.5,170.2,159.7,169.3,159z"/>
	<path style="clip-path:url(#SVGID_00000158009313489260044580000016198105246906821025_);fill:#03104F;" d="M192.3,151.9l-14.4,3.6
		c-1.4,0.4-2.7,1.1-3.8,2.2l-1.2,1.1l0.3,2.7l6.1,0.9c1.4,0.2,2.9,0,4.2-0.5c1.3-0.5,2.5-1.4,3.5-2.5l5.7-6.2
		C193.2,152.7,192.9,151.8,192.3,151.9z"/>
	<path style="clip-path:url(#SVGID_00000158009313489260044580000016198105246906821025_);fill:#A161F3;" d="M192.3,151.9l-14.4,3.6
		c-1.4,0.4-2.7,1.1-3.8,2.2l-1.2,1.1l0.3,2.7l6.1,0.9c1.4,0.2,2.9,0,4.2-0.5c1.3-0.5,2.5-1.4,3.5-2.5l5.7-6.2
		C193.2,152.7,192.9,151.8,192.3,151.9z"/>
	
		<path style="opacity:0.7;clip-path:url(#SVGID_00000158009313489260044580000016198105246906821025_);fill:#FFFFFF;enable-background:new    ;" d="
		M159.1,154.9L154,159c-0.1,0.3-0.2,0.7-0.2,1.1l0.5,0.5l6.6-5.3L159.1,154.9z"/>
	
		<path style="opacity:0.7;clip-path:url(#SVGID_00000158009313489260044580000016198105246906821025_);fill:#FFFFFF;enable-background:new    ;" d="
		M166.6,156.9c-0.9-0.6-1.9-1-3-1.2l-0.5-0.1l-7.5,6c1,0.7,2.1,1.2,3.2,1.5L166.6,156.9z"/>
	
		<path style="opacity:0.7;clip-path:url(#SVGID_00000158009313489260044580000016198105246906821025_);fill:#FFFFFF;enable-background:new    ;" d="
		M178.2,155.4l-3.3,3.5c-0.3,0.6-0.5,1.3-0.6,1.9l-0.1,0.5l6.3-6.5L178.2,155.4z"/>
	
		<path style="opacity:0.7;clip-path:url(#SVGID_00000158009313489260044580000016198105246906821025_);fill:#FFFFFF;enable-background:new    ;" d="
		M183.7,154.1l-8,7.8l3.6,0.6h0.3l11.1-10.2L183.7,154.1z"/>
	<path style="clip-path:url(#SVGID_00000158009313489260044580000016198105246906821025_);fill:#40208E;" d="M192.9,152.5l-5.7,6.2
		c-0.9,1.1-2.1,2-3.5,2.5c-1.3,0.5-2.8,0.7-4.2,0.5l-6.1-0.9l-0.2-2.1l-0.1,0.1l0.3,2.7l6.1,0.9c1.4,0.2,2.9,0,4.2-0.5
		c1.3-0.5,2.5-1.4,3.5-2.5l5.7-6.2c0.1-0.1,0.2-0.3,0.2-0.4c0-0.2,0-0.3,0-0.5C192.9,152.4,192.9,152.5,192.9,152.5z"/>
	<path style="clip-path:url(#SVGID_00000158009313489260044580000016198105246906821025_);fill:#40208E;" d="M169.5,160.9l-6.4,1.5
		c-1.5,0.3-3,0.2-4.5-0.3s-2.8-1.3-3.8-2.4l-6.4-6.1c-0.1-0.1-0.2-0.2-0.2-0.3c0-0.1-0.1-0.2-0.1-0.3c-0.5,0-0.7,0.9-0.2,1.4
		l6.5,6.1c1.1,1.1,2.4,1.9,3.8,2.4c1.5,0.5,3,0.5,4.5,0.2l6.4-1.5c0.2-0.1,0.4-0.2,0.5-0.4c0.1-0.2,0.2-0.4,0.3-0.6
		C169.8,160.8,169.7,160.9,169.5,160.9z"/>
	
		<path style="clip-path:url(#SVGID_00000158009313489260044580000016198105246906821025_);fill:none;stroke:#F480A1;stroke-width:0.91;stroke-miterlimit:10;" d="
		M172.7,156.5c-0.2,0.4,0.9,11.6,0.9,13c-0.1,1.4-3.2,0.7-3.2,0.7"/>
	<path style="clip-path:url(#SVGID_00000158009313489260044580000016198105246906821025_);fill:#A161F3;" d="M169.1,160.6l-0.3-0.9
		c0.6-0.2,3.7-1.3,4.9-0.5c0.1,0.1,0.3,0.2,0.3,0.3c0.1,0.1,0.1,0.3,0.2,0.5l-0.9,0.1c0,0,0,0,0-0.1c0,0,0,0,0,0
		C172.6,159.6,170.4,160.1,169.1,160.6z"/>
	
		<linearGradient id="SVGID_00000120520866218995349200000013727131412683349657_" gradientUnits="userSpaceOnUse" x1="-10169.8438" y1="-15703.5303" x2="12717.8584" y2="18411.4688" gradientTransform="matrix(1 0 0 -1 0 444)">
		<stop  offset="1.000000e-02" style="stop-color:#A76897"/>
		<stop  offset="0.4" style="stop-color:#DDB1B9"/>
		<stop  offset="0.95" style="stop-color:#FFE1E1"/>
	</linearGradient>
	
		<path style="clip-path:url(#SVGID_00000158009313489260044580000016198105246906821025_);fill:url(#SVGID_00000120520866218995349200000013727131412683349657_);" d="
		M348.9,292.4c1.8-9.1,4.8-17.9,8.9-26.3c11.7-23.7,29.6-37.1,39.5-43.4c30-14.4,82.5-38.1,105.9-38.6c3.8-0.1,16,0.3,16,0.9
		c0,0.4-5.1,0.1-5.9,2.1c-1,2.5,5.4,6.5,10.9,11.5c4.6,4.1,9.7,12.4,20.1,28.9c11.5,18.5,11.8,21,11.1,21.5c-1.5,1.3-9.3-6.1-10-5.3
		c-0.7,0.8,8,8.7,13.6,16.8c11.7,17.1,10.4,37,9.7,46.9c-0.8,11.5-2.4,37.1-19.8,51.6c-11.8,9.8-24.9,9.7-61.9,7.7
		c-101.5-5.6-111.8-10.8-120.7-20.1C359.3,339.5,348.5,324,348.9,292.4z"/>
	
		<linearGradient id="SVGID_00000176756639865643516380000011373486359729559229_" gradientUnits="userSpaceOnUse" x1="-6437.2119" y1="-38218.957" x2="-1660.415" y2="-11540.1562" gradientTransform="matrix(1 0 0 -1 0 444)">
		<stop  offset="1.000000e-02" style="stop-color:#A76897"/>
		<stop  offset="0.4" style="stop-color:#DDB1B9"/>
		<stop  offset="0.95" style="stop-color:#FFE1E1"/>
	</linearGradient>
	
		<path style="clip-path:url(#SVGID_00000158009313489260044580000016198105246906821025_);fill:url(#SVGID_00000176756639865643516380000011373486359729559229_);" d="
		M524.1,231.4c-46.4-75.8-151.6,48.4-174.3,77c2.7,21.1,10.9,32.5,16.5,38.4c5.8,6.1,12.3,10.5,45.3,14.3l25.2-4.6
		c0,0-1.8-12.1-3-18.6c-1.2-6.5,4.7-20.4,13.6-28.6c8.9-8.3,49.3-14.2,49.3-14.2l18.2-11.5c-3.3-7.4-5.5-15.3-6.5-23.3
		C507,247.6,524.1,231.4,524.1,231.4z"/>
	
		<linearGradient id="SVGID_00000030451114364880542860000014500297471271309446_" gradientUnits="userSpaceOnUse" x1="373.5967" y1="267.0729" x2="433.1637" y2="139.4079" gradientTransform="matrix(1 0 0 -1 0 444)">
		<stop  offset="0" style="stop-color:#995AFF"/>
		<stop  offset="1" style="stop-color:#DC59BF"/>
	</linearGradient>
	
		<path style="clip-path:url(#SVGID_00000158009313489260044580000016198105246906821025_);fill:url(#SVGID_00000030451114364880542860000014500297471271309446_);" d="
		M319,283.5c0,0-2.6-6.4,0.8-9c3.3-2.6,13.8-15.8,17.8-19.6c3.9-3.8,15.2-13.4,15.2-13.4s28.1-27.2,32-30.8
		c3.9-3.6,13.4-12.3,18.2-13.7c4.9-1.4,51.8-26.3,51.8-26.3c1.2-0.2,2.3-0.2,3.5-0.2c3.5,0.3,5.8,1.8,7.7,2.9c7,4,7.5,1.9,10.9,4.7
		c4.2,3.4,5.5,8.1,6.8,12.7c0.7,2.1,0.8,4.2,0.5,6.4c-0.1,0.6-0.3,1.1-0.5,1.7c2.1,4.6,3.9,9.2,5.5,14c4.8,14.6,5.8,25.9,6.7,33.7
		c1.8,14.5,4.8,28.9,8.9,42.9l-8,5.4l-67.2,3.6l-9.7-9.1c-10.5,2.7-18.5,4.2-21.7,4.4c-1.8,0.1-3.7,0-5.5-0.3c-1-0.2-2.1-0.5-3-0.9
		l-2.4,1.9c-3.5-1.3-6.4-3.7-8.3-6.8c-1.5-2.4-2.3-5.2-2.4-8l1.5-1.2c0.9-2.6,2.3-5.1,4.2-7.1c2.3-2.4,4.6-3.5,7.4-5
		c3.1-1.6,7.6-4,13.1-7.2c-0.4-1.4-0.8-2.8-1.2-4.3c-0.7-2.6-1.2-5.2-1.7-7.6c-6.7,6-15.6,10.4-19.9,12.6c-5.6,2.8-8.1,3.1-13.4,6.4
		c-5.7,3.6-7.9,6.5-12.3,10.5c-6,5.4-12.7,9.8-20,13.2L319,283.5z"/>
	
		<path style="opacity:0.3;clip-path:url(#SVGID_00000158009313489260044580000016198105246906821025_);fill:#141045;enable-background:new    ;" d="
		M383.4,286.4c-2.1-2.6-3.9-5.4-5.3-8.4c-0.1,0.2-0.1,0.4-0.2,0.5l-1.5,1.2c0.1,2.8,0.9,5.6,2.4,8c2,3.1,4.9,5.5,8.3,6.8l2.4-1.9
		C387.3,290.8,385.2,288.7,383.4,286.4z"/>
	
		<path style="opacity:0.5;clip-path:url(#SVGID_00000158009313489260044580000016198105246906821025_);fill:#141045;enable-background:new    ;" d="
		M417.8,201c-0.4,0.2,15.2,11.7,15.2,11.7s-5.6-12.5-8.5-15.7C421.5,193.7,417.8,201,417.8,201z"/>
	
		<path style="opacity:0.5;clip-path:url(#SVGID_00000158009313489260044580000016198105246906821025_);fill:#141045;enable-background:new    ;" d="
		M414,201.4c0,0,0.7,7.1,2.4,8.4c1.7,1.3,11.3,9,11.3,9s-2.9,5.7-3.3,7c-0.5,1.3-10-12-10.7-15.3C412.9,207.5,414,201.4,414,201.4z"
		/>
	
		<path style="opacity:0.35;clip-path:url(#SVGID_00000158009313489260044580000016198105246906821025_);fill:#141045;enable-background:new    ;" d="
		M399,232.8c2.5-9.5-22.2,26.1-24.8,25.8c-2.6-0.2-0.9-3.9-3.2-2.6s-17.6,16.8-17.6,16.8L329.8,288l4.4,1.9c7.3-3.4,14-7.8,20-13.2
		c4.4-4,6.6-6.9,12.3-10.5c5.2-3.3,7.8-3.6,13.4-6.4c4.1-2,12.7-6.3,19-11.7l1-1.2C398,242.7,399,232.8,399,232.8z"/>
	
		<path style="opacity:0.5;clip-path:url(#SVGID_00000158009313489260044580000016198105246906821025_);fill:#141045;enable-background:new    ;" d="
		M458.2,193.2c0.8,0.7,15.2-10.7,16.4-12.7c0.4-0.7,1.1-1.6,1.7-2.6c-3-2.1-3.8-0.5-10.3-4.3c-1.2-0.8-2.5-1.4-3.9-2
		c1.1,2.5,3.2,6.6,6.3,7.3c4.4,1.1,7-0.4,5.7,1.4C472.8,182.1,457.3,192.5,458.2,193.2z"/>
	
		<path style="opacity:0.5;clip-path:url(#SVGID_00000158009313489260044580000016198105246906821025_);fill:#141045;enable-background:new    ;" d="
		M449,177.5c0,0,5.8-1.4,7.5,0.5c1.7,1.9-0.7,7-1.3,7.3c-0.6,0.3-10.5,0.4-10.5,0.4L449,177.5z"/>
	
		<path style="opacity:0.5;clip-path:url(#SVGID_00000158009313489260044580000016198105246906821025_);fill:#141045;enable-background:new    ;" d="
		M483.8,198.8c0,0-0.9-3.8-4.4-4c-3.5-0.3-27,6.8-28,8c-0.9,1.2-23.2,23.3-26.3,29.9c-3.1,6.6,25.3-23.2,25.3-23.2s4.6-6.9,8-8.2
		s20.2-10.3,25-2.4"/>
	
		<path style="opacity:0.35;clip-path:url(#SVGID_00000158009313489260044580000016198105246906821025_);fill:#141045;enable-background:new    ;" d="
		M475.3,233.7c-0.3,0.5-8.8,21.3-21,27c0,0,21.2,13.2,26.1,16.5c4.9,3.3,9.5,9.1,10,8.9s-6.7-11.3-10-18c-3.3-6.7-1.4-17.4-1.4-17.4
		S482.7,222.6,475.3,233.7z"/>
	
		<path style="opacity:0.5;clip-path:url(#SVGID_00000158009313489260044580000016198105246906821025_);fill:#B897FF;enable-background:new    ;" d="
		M460.9,200c0,0-3,0.6-10,8.4c-7,7.8-19.7,34.5-23.9,36.9c-4.3,2.4-38.2,20.2-42.4,22.9c-4.2,2.6-6.3,9.2-6.3,9.2s0.6,4.2,3.5,2.7
		c2.9-1.4-10.8,0.1,8.8-8.4c19.7-8.6,42.2-16.8,46.4-22.5C441.2,243.4,453.5,202.5,460.9,200z"/>
	<path style="clip-path:url(#SVGID_00000158009313489260044580000016198105246906821025_);fill:#5C3EAD;" d="M319.6,281.3l-3.8,3.7
		l16.1,6.1l3.8-5.3c-1.8-2.8-4.6-4.9-7.9-5.6C325.1,279.6,322.1,280,319.6,281.3z"/>
	
		<linearGradient id="SVGID_00000103979644665325453220000016279228593544321170_" gradientUnits="userSpaceOnUse" x1="403.0169" y1="116.9893" x2="461.5359" y2="32.5943" gradientTransform="matrix(1 0 0 -1 0 444)">
		<stop  offset="0.3" style="stop-color:#46AFF8"/>
		<stop  offset="0.31" style="stop-color:#5EBBFA"/>
		<stop  offset="0.32" style="stop-color:#76C7FC"/>
		<stop  offset="0.33" style="stop-color:#87CFFE"/>
		<stop  offset="0.34" style="stop-color:#91D4FF"/>
		<stop  offset="0.35" style="stop-color:#94D6FF"/>
		<stop  offset="0.38" style="stop-color:#94D1FD"/>
		<stop  offset="0.42" style="stop-color:#93C4F8"/>
		<stop  offset="0.45" style="stop-color:#92AEF0"/>
		<stop  offset="0.49" style="stop-color:#908FE4"/>
		<stop  offset="0.51" style="stop-color:#8F7DDD"/>
		<stop  offset="0.53" style="stop-color:#8379DB"/>
		<stop  offset="0.61" style="stop-color:#676ED6"/>
		<stop  offset="0.65" style="stop-color:#5C6AD4"/>
	</linearGradient>
	
		<path style="clip-path:url(#SVGID_00000158009313489260044580000016198105246906821025_);fill:url(#SVGID_00000103979644665325453220000016279228593544321170_);" d="
		M432.6,343.4c0.6,0.5,1.5,1.3,2.7,2.2c5.9,4.7,8.3,4.6,9.8,7c2.1,3.3,1,8.1-0.7,11c-2,3.4-4,2.8-11.6,7.3
		c-8.1,4.8-10.5,8.2-15.1,7.6c-1.7-0.2-3.3-0.9-4.6-1.9c-1.4-4.5-2.8-9.1-4.2-13.6c0.1-1.3,1.4-11.3,10.3-16.7
		C423.2,344,428,342.9,432.6,343.4z"/>
	
		<path style="opacity:0.3;clip-path:url(#SVGID_00000158009313489260044580000016198105246906821025_);fill:#04042A;enable-background:new    ;" d="
		M432.6,343.4c0.6,0.5,1.5,1.3,2.7,2.2c5.9,4.7,8.3,4.6,9.8,7c2.1,3.3,1,8.1-0.7,11c-2,3.4-4,2.8-11.6,7.3
		c-8.1,4.8-10.5,8.2-15.1,7.6c-1.7-0.2-3.3-0.9-4.6-1.9c-1.4-4.5-2.8-9.1-4.2-13.6c0.1-1.3,1.4-11.3,10.3-16.7
		C423.2,344,428,342.9,432.6,343.4z"/>
	
		<path style="opacity:0.5;clip-path:url(#SVGID_00000158009313489260044580000016198105246906821025_);fill:#E4E1F9;enable-background:new    ;" d="
		M432.6,343.4c-4.7-0.5-9.4,0.6-13.4,3c-4.8,3.1-8.3,7.9-9.6,13.4c2.6-3.5,5.2-4.8,7.1-5.3c5.6-1.6,8.9,2.4,13.7,0
		c2.5-1.3,3.1-3.1,6.4-4c1.6-0.4,3.3-0.5,4.9-0.3l-0.2-0.3c-2.2-1.2-4.3-2.6-6.2-4.1C434.1,344.7,433.2,343.9,432.6,343.4z"/>
	
		<path style="opacity:0.5;clip-path:url(#SVGID_00000158009313489260044580000016198105246906821025_);fill:#04042A;enable-background:new    ;" d="
		M441.5,349.8c-1.5-0.8-2.9-1.7-4.3-2.7c-0.6,0.1-1.3,0.2-1.9,0.4c-3.4,0.9-3.9,2.8-6.4,4c-4.8,2.4-8.1-1.6-13.7,0
		c-0.8,0.2-1.5,0.5-2.3,0.9c-1.5,2.3-2.7,4.8-3.4,7.4c2.6-3.5,5.2-4.8,7.1-5.3c5.6-1.6,8.9,2.4,13.7,0c2.5-1.3,3.1-3.1,6.4-4
		c1.6-0.4,3.3-0.5,4.9-0.3L441.5,349.8z"/>
	<path style="clip-path:url(#SVGID_00000158009313489260044580000016198105246906821025_);fill:#403A57;" d="M497.8,294.9
		c-2.5-3.2-5.1-6.3-8-9.2c-6.7-6.9-14.3-12.9-22.7-17.7c-11.3-6.5-17.9-10.3-26.6-9c-4.6,0.8-8.9,2.6-12.6,5.5
		c-12,8.7-14.4,22.9-14.9,26.7c-1.3,0.2-3.4,0.6-6,1.1c-5.1,1-6.6,1.6-9,1.8c-3,0.2-5.9-0.3-8.7-1.3l-2.4,1.7
		c-2.9-1.3-5.5-3.4-7.3-6s-3-5.7-3.3-8.9l1.7-1.3c0.1-0.7,0.3-1.5,0.4-2.2c-1-0.5-2.1-0.9-3.2-1.3c-5.2-1.8-10.6-2.8-16-2.8
		c-5.9,6.1-12.8,11.3-20.3,15.2c-1.6,0.8-3.2,1.6-4.7,2.3c-2.1,0.5-4,1.9-5.1,3.8c-2,3.7-0.1,9.6,5.3,13.4l56.7,44.9l-0.8,2.9
		c2.9,4,6.7,7.2,11.3,9.3c4.5,2,9.5,2.8,14.4,2.3l11.6-20.5l5.7-1.4l-2.8-3.8l8.8-16.3c10.3-10.3,19.7-14.9,26.6-17.3
		c4.3-1.5,10.9-3.2,21.7-7.3C491.7,297.5,495.4,295.9,497.8,294.9z"/>
	
		<path style="opacity:0.5;clip-path:url(#SVGID_00000158009313489260044580000016198105246906821025_);fill:#04042A;enable-background:new    ;" d="
		M465.6,306.6c2.6-0.9,5.9-1.8,10.5-3.3c-7.5-4.8-22-14.5-23.8-19.9l-12.7,40C449.8,313.4,458.9,308.9,465.6,306.6z"/>
	<g style="opacity:0.5;clip-path:url(#SVGID_00000158009313489260044580000016198105246906821025_);">
		<path class="st49" d="M414,287.1h-0.1c-0.1,0.5-0.2,1-0.3,1.5L414,287.1z"/>
		<path class="st49" d="M412.7,291.2c-1.4,0.2-3.3,0.5-5.6,1c-5.1,1-6.6,1.6-9,1.8c-3,0.2-5.9-0.3-8.7-1.3l-2.4,1.7
			c-2-0.9-3.8-2.2-5.4-3.8l-2.3,5.6c0,0,19.7,16.7,24.1,25.2L412.7,291.2z"/>
	</g>
	<path style="clip-path:url(#SVGID_00000158009313489260044580000016198105246906821025_);fill:#04042A;" d="M430.7,339.1l-3.2,6.2
		l5.6-1.4l-2.8-3.8l0.5-0.9L430.7,339.1z"/>
	
		<path style="opacity:0.5;clip-path:url(#SVGID_00000158009313489260044580000016198105246906821025_);fill:#04042A;enable-background:new    ;" d="
		M401.8,323.6L391,351.4L358.9,326C358.9,326,385.3,354.6,401.8,323.6z"/>
	<path style="clip-path:url(#SVGID_00000158009313489260044580000016198105246906821025_);fill:#596FEF;" d="M373.3,385.6L248.6,388
		l-28.1-23.7l-1.1-55.9l113.2,0.6c14.2,8.9,26.6,13.1,40.8,22C373.4,349.1,373.4,367.4,373.3,385.6z"/>
	
		<linearGradient id="SVGID_00000021822764811722395360000001195828607647536783_" gradientUnits="userSpaceOnUse" x1="25816.9766" y1="-24813.5898" x2="46472.0781" y2="-44974.9883" gradientTransform="matrix(1 0 0 -1 0 444)">
		<stop  offset="6.000000e-02" style="stop-color:#FFFFFF"/>
		<stop  offset="0.17" style="stop-color:#FFFFFF"/>
		<stop  offset="0.57" style="stop-color:#35D1F3"/>
		<stop  offset="0.96" style="stop-color:#35D1F3"/>
	</linearGradient>
	
		<path style="opacity:0.4;clip-path:url(#SVGID_00000158009313489260044580000016198105246906821025_);fill:url(#SVGID_00000021822764811722395360000001195828607647536783_);enable-background:new    ;" d="
		M373.3,385.6L248.6,388l-28.1-23.7l-1.1-55.9l113.2,0.6c14.2,8.9,26.6,13.1,40.8,22C373.4,349.1,373.4,367.4,373.3,385.6z"/>
	<g style="opacity:0.5;clip-path:url(#SVGID_00000158009313489260044580000016198105246906821025_);">
		<path class="st53" d="M248.9,331.2l-0.4-0.3v57l0.1,0.1l124.7-2.4c0.1-18.2,0.1-36.5,0.2-54.7L248.9,331.2z"/>
		<path class="st53" d="M373.5,330.9c-5.9-3.6-11.9-6.9-18.1-9.9L373.5,330.9z"/>
	</g>
	
		<linearGradient id="SVGID_00000045609552635297726640000006045792317304364679_" gradientUnits="userSpaceOnUse" x1="4113.666" y1="-13806.3936" x2="5786.3652" y2="-19910.5234" gradientTransform="matrix(1 0 0 -1 0 444)">
		<stop  offset="6.000000e-02" style="stop-color:#FFFFFF"/>
		<stop  offset="0.17" style="stop-color:#FFFFFF"/>
		<stop  offset="0.57" style="stop-color:#35D1F3"/>
		<stop  offset="0.96" style="stop-color:#35D1F3"/>
	</linearGradient>
	
		<path style="opacity:0.4;clip-path:url(#SVGID_00000158009313489260044580000016198105246906821025_);fill:url(#SVGID_00000045609552635297726640000006045792317304364679_);enable-background:new    ;" d="
		M373.5,330.9l-124.6,0.3L219,308.4l114,0.5L373.5,330.9z"/>
	<path style="clip-path:url(#SVGID_00000158009313489260044580000016198105246906821025_);fill:#B5D2E8;" d="M286.4,324.3h51.7
		c0.2,0,0.3,0,0.4-0.1c0.1-0.1,0.2-0.2,0.3-0.4c0-0.1,0-0.3,0-0.5c-0.1-0.1-0.2-0.3-0.3-0.4l-20.6-13.3c-0.3-0.2-0.6-0.3-0.9-0.3
		l-54.4,0.3c-0.4,0-0.7,0.1-1,0.3c-0.3,0.2-0.5,0.5-0.6,0.9c-0.1,0.4,0,0.7,0.1,1.1c0.2,0.3,0.4,0.6,0.8,0.7l23.9,11.4
		C285.9,324.2,286.2,324.3,286.4,324.3z"/>
	
		<path style="opacity:0.5;clip-path:url(#SVGID_00000158009313489260044580000016198105246906821025_);fill:#DCF2FF;enable-background:new    ;" d="
		M338.2,322.8l-20.4-13.1c-0.3-0.2-0.6-0.3-0.9-0.3l-54.4,0.3c-0.2,0-0.5,0-0.7,0.1c-0.2,0.1-0.4,0.2-0.6,0.4
		c-0.2,0.2-0.3,0.4-0.3,0.6c-0.1,0.2-0.1,0.4-0.1,0.7l23.5,11.2c0.2,0.1,0.4,0.1,0.6,0.1h53c0,0,0.1,0,0.1,0
		C338.1,322.8,338.2,322.8,338.2,322.8z"/>
	
		<linearGradient id="SVGID_00000024704323533020350040000002593718249340723389_" gradientUnits="userSpaceOnUse" x1="5665.7598" y1="128.2576" x2="6214.6899" y2="128.2576" gradientTransform="matrix(1 0 0 -1 0 444)">
		<stop  offset="0" style="stop-color:#8134BC"/>
		<stop  offset="1" style="stop-color:#21136E"/>
	</linearGradient>
	
		<path style="opacity:0.3;clip-path:url(#SVGID_00000158009313489260044580000016198105246906821025_);fill:url(#SVGID_00000024704323533020350040000002593718249340723389_);enable-background:new    ;" d="
		M283.2,310.8h11.2c0.3,0,0.7,0.1,0.9,0.4l9,8.3c0.1,0.1,0.2,0.2,0.2,0.4c0,0.1,0,0.3,0,0.4c0,0.1-0.1,0.2-0.3,0.3
		c-0.1,0.1-0.2,0.1-0.4,0.1h-19.1c-0.3,0-0.6-0.1-0.8-0.3c-0.2-0.2-0.4-0.5-0.5-0.8l-1.6-7.2c0-0.2,0-0.4,0-0.6
		c0-0.2,0.1-0.4,0.3-0.5c0.1-0.2,0.3-0.3,0.5-0.4C282.8,310.9,283,310.8,283.2,310.8z"/>
	<path style="clip-path:url(#SVGID_00000158009313489260044580000016198105246906821025_);fill:#CEE6F4;" d="M240.6,261.1l14.3,47.4
		c0.1,0.2,0.2,0.4,0.3,0.6c0.1,0.2,0.3,0.3,0.5,0.4l29.3,14.7c0.2,0.1,0.3,0.1,0.5,0.1c0.2,0,0.3-0.1,0.5-0.2
		c0.1-0.1,0.2-0.2,0.3-0.4c0.1-0.2,0.1-0.3,0-0.5L271.9,273c-0.1-0.2-0.2-0.5-0.3-0.6c-0.2-0.2-0.4-0.3-0.6-0.4l-28.9-12.1
		c-0.2-0.1-0.4-0.1-0.6-0.1c-0.2,0-0.4,0.1-0.6,0.3c-0.2,0.1-0.3,0.3-0.3,0.5C240.6,260.7,240.6,260.9,240.6,261.1z"/>
	<path style="clip-path:url(#SVGID_00000158009313489260044580000016198105246906821025_);fill:#EBF8FF;" d="M286.4,323.2L271.9,273
		c-0.1-0.2-0.2-0.5-0.4-0.6c-0.2-0.2-0.4-0.3-0.6-0.4l-28.8-12.1c-0.1-0.1-0.3-0.1-0.5-0.1c-0.2,0-0.3,0-0.5,0.1
		c-0.1,0.1-0.3,0.2-0.4,0.3c-0.1,0.1-0.2,0.3-0.2,0.4c0.1,0,0.3,0,0.4,0.1l28.8,12.1c0.2,0.1,0.4,0.2,0.6,0.4
		c0.2,0.2,0.3,0.4,0.3,0.6l14.5,50.2c0,0.1,0,0.2,0,0.3c0.2,0,0.3,0,0.5,0c0.1,0,0.3-0.1,0.4-0.2c0.1-0.1,0.2-0.2,0.2-0.4
		C286.4,323.5,286.4,323.4,286.4,323.2z"/>
	
		<linearGradient id="SVGID_00000000220122547697458180000017804188319833187263_" gradientUnits="userSpaceOnUse" x1="5955.3999" y1="128.3849" x2="6454.6499" y2="128.3849" gradientTransform="matrix(1 0 0 -1 0 444)">
		<stop  offset="0" style="stop-color:#8134BC"/>
		<stop  offset="1" style="stop-color:#21136E"/>
	</linearGradient>
	
		<path style="opacity:0.3;clip-path:url(#SVGID_00000158009313489260044580000016198105246906821025_);fill:url(#SVGID_00000000220122547697458180000017804188319833187263_);enable-background:new    ;" d="
		M312.1,319.1l13.4,0.1c0.1,0,0.2,0,0.3-0.1c0.1-0.1,0.1-0.1,0.2-0.2c0-0.1,0-0.2,0-0.3c0-0.1-0.1-0.2-0.2-0.2l-9.3-6.3
		c-0.1,0-0.2-0.1-0.2-0.1l-11.5-0.1c-0.1,0-0.2,0-0.2,0.1c-0.1,0.1-0.1,0.1-0.2,0.2c0,0.1,0,0.2,0,0.3c0,0.1,0.1,0.2,0.1,0.2
		l7.4,6.2C311.9,319.1,312,319.1,312.1,319.1z"/>
	<path style="clip-path:url(#SVGID_00000158009313489260044580000016198105246906821025_);fill:#F8ACC1;" d="M440.4,152
		c0.9,1.8,1.7,3.7,2.3,5.6c0.4,1.3,0.7,2.6,0.9,3.9c1.3,8.3,3.1,8.4-4.2,18.8c-6.6,9.4-12.2,12.5-19.9,14c-4.6,0.9-11.3-1-13.3-9.5
		c-1-4.5-1.2-14.9-1.2-23.7c0-7.7,0.2-14.2,0.2-14.2c2.1-2.1,4.4-3.9,6.8-5.5c1.2-0.6,2.4-1.2,3.5-1.8c10.5-5,17.1,4.8,24.1,11.9
		C440.1,151.7,440.3,151.9,440.4,152z"/>
	<path style="clip-path:url(#SVGID_00000158009313489260044580000016198105246906821025_);fill:#F8ACC1;" d="M455.2,185.2
		c-4.5,4.5-8.7,9.2-12.6,14.2c-3.7,4.6-6.8,9.1-9.6,13.3l-1.5-3.6l-4.5-8l-5.2-9.3l-7.6-13.5l29.2-13.5c2.1,5.8,5,11.3,8.7,16.3
		C453.1,182.7,454.1,184,455.2,185.2z"/>
	
		<path style="opacity:0.4;clip-path:url(#SVGID_00000158009313489260044580000016198105246906821025_);fill:#90304A;enable-background:new    ;" d="
		M440.4,152c0.9,1.8,1.7,3.7,2.3,5.6c-0.9,1.1-3.1,1.4-4.1,2.3c-2.1,1.7-3.9,2.7-6.6,0.9c-3.4-2.3-5.5-4.3-5.7-4.1
		c-0.2,0.2,0.4,0.9,2.8,4.2c-2.3-0.2-4.5-0.9-6.4-2.2c-1.3-0.9-2.4-2-3.3-3.2c-1.3,0-2.6-0.1-3.8-0.3c-1.7-0.3-3.3-0.9-4.9-1.6
		c-0.9,0.2-1.8,0.2-2.6-0.1c-0.8-0.3-1.6-0.8-2.1-1.5c-0.5-0.7-0.9-1.5-1-2.4c-0.1-0.9,0.1-1.8,0.6-2.6c2.1-2.1,4.4-3.9,6.8-5.5
		c1.2-0.6,2.3-1.2,3.5-1.8c2-0.7,4-1.2,6.1-1.4C426.1,138.1,434.1,142.7,440.4,152z"/>
	
		<linearGradient id="SVGID_00000105407354601166890030000009462917911762217642_" gradientUnits="userSpaceOnUse" x1="410.4086" y1="342.4459" x2="436.9986" y2="286.4979" gradientTransform="matrix(1 0 0 -1 0 444)">
		<stop  offset="0" style="stop-color:#8134BC"/>
		<stop  offset="1" style="stop-color:#1A084B"/>
	</linearGradient>
	
		<path style="clip-path:url(#SVGID_00000158009313489260044580000016198105246906821025_);fill:url(#SVGID_00000105407354601166890030000009462917911762217642_);" d="
		M458.8,146.2c1,0.5,1.9,1.3,2.5,2.2c0.6,1,0.9,2.1,0.9,3.2c-0.1,1-0.3,1.9-0.8,2.8c-0.5,0.9-1.2,1.6-2,2.1c0.9,0.6,1.5,1.4,2,2.3
		c0.4,0.9,0.5,2,0.3,3c-0.2,1-0.7,2-1.4,2.7c-0.7,0.7-1.6,1.3-2.6,1.5c0.1,0.2,2.1,4,0,7.6c-1.1,1.8-2.8,3-4.8,3.5
		c0.8,3.8,0.4,4.8-0.1,5c-1.5,0.7-6.4-4.2-8.7-10.2c-1.3-3.8-2.2-7.8-2.4-11.9l-10.4,6.2c-1.2,0-2.3-0.3-3.3-0.8
		c-1-0.6-1.8-1.5-2.4-2.5c-0.4-0.8-0.6-1.7-0.6-2.6c0-0.9,0.2-1.8,0.6-2.6c-0.4,0-4.3-0.1-6.3-3.3c-0.8-1.3-1.2-2.8-1.1-4.3
		c-0.9,0.6-1.9,1-3,1.1c-1.6,0.1-3.1-0.3-4.4-1.2c-3,2.1-6.1,1.9-7.1,0.5c-0.2-0.4-0.4-0.9-0.4-1.4c0-0.5,0-1,0.2-1.5
		c-1.1-0.4-2-1.2-2.6-2.2c-0.6-1-0.9-2.1-0.8-3.3c0.1-1.2,0.6-2.2,1.4-3.1c0.8-0.9,1.8-1.4,3-1.6c-0.3-0.6-0.5-1.3-0.5-2
		c0-0.7,0.1-1.4,0.4-2c0.5-1,1.4-1.7,2.4-2.2c1-0.4,2.2-0.5,3.2-0.2c0.3-0.7,0.7-1.3,1.2-1.8c0.5-0.5,1.1-0.9,1.8-1.2
		c1.2-0.4,2.5-0.4,3.7,0c0.6-0.8,1.4-1.4,2.4-1.7c0.7-0.2,1.5-0.3,2.2-0.3s1.5,0.3,2.2,0.6c0.2-0.2,4.3-3.2,8.9-1.5
		c1.2,0.5,2.2,1.2,3.2,2c0.9,0.9,1.6,1.9,2.1,3.1l8.4,0.9c1-0.6,2.1-0.9,3.3-0.9c1.2,0,2.3,0.4,3.3,1c1,0.6,1.8,1.5,2.3,2.5
		c0.5,1,0.7,2.2,0.6,3.4c3.1,0.8,5.1,3.1,5,5.5C460.2,144.2,459.7,145.3,458.8,146.2z"/>
	
		<path style="opacity:0.4;clip-path:url(#SVGID_00000158009313489260044580000016198105246906821025_);fill:#90304A;enable-background:new    ;" d="
		M438.1,176.7c0.8,7.2-0.6,14.4-4,20.8c-1.4,2.6-3.2,4.9-5.3,7.1l-5.4-9.9C425.9,187,431.2,180.6,438.1,176.7z"/>
	
		<linearGradient id="SVGID_00000131329696475478417130000008554135079654021527_" gradientUnits="userSpaceOnUse" x1="18759.8008" y1="306.416" x2="21485.3008" y2="306.416" gradientTransform="matrix(1 0 0 -1 0 444)">
		<stop  offset="0" style="stop-color:#8134BC"/>
		<stop  offset="1" style="stop-color:#21136E"/>
	</linearGradient>
	
		<path style="opacity:0.7;clip-path:url(#SVGID_00000158009313489260044580000016198105246906821025_);fill:url(#SVGID_00000131329696475478417130000008554135079654021527_);enable-background:new    ;" d="
		M450.5,130.8c-1.6-0.4-3.2-0.1-4.7,0.6l-8.4-0.9c-0.5-1.2-1.2-2.2-2.1-3.1c-0.9-0.9-2-1.6-3.2-2c-4.7-1.7-8.7,1.3-8.9,1.5
		c-0.7-0.3-1.4-0.5-2.2-0.6s-1.5,0-2.2,0.3c-0.9,0.3-1.8,0.9-2.4,1.7c-1.2-0.4-2.5-0.4-3.7,0c-0.7,0.3-1.3,0.7-1.8,1.2
		c-0.5,0.5-0.9,1.1-1.2,1.8c-1.1-0.3-2.2-0.2-3.2,0.2c-1,0.4-1.9,1.2-2.4,2.2c-0.3,0.6-0.4,1.3-0.4,2c0,0.7,0.2,1.4,0.5,2
		c-1.1,0.2-2.2,0.8-3,1.6c-0.8,0.9-1.3,1.9-1.4,3.1c-0.1,1.2,0.2,2.3,0.8,3.3c0.6,1,1.5,1.7,2.6,2.2c-0.2,0.7-0.3,1.4-0.1,2.1
		c0.7,0.3,1.4,0.4,2.2,0.3c0.7,0,1.5-0.2,2.1-0.6c5.2-2.9,8.1-10.8,8.3-10.3c0.2,0.4,0,4,7.4,3.2c4.5-0.5,8.8-2.5,12.1-5.6
		c-0.2,0.3-4.7,8.3,5.1,5C445.4,140.3,450.2,135.8,450.5,130.8z"/>
	<path style="clip-path:url(#SVGID_00000158009313489260044580000016198105246906821025_);fill:#F8ACC1;" d="M406.8,164.7
		c0,0-2.4,10.9-2.7,13.9c-0.3,2.5,4.8,0.5,4.8,0.5"/>
	
		<path style="clip-path:url(#SVGID_00000158009313489260044580000016198105246906821025_);fill:none;stroke:#B56985;stroke-miterlimit:10;" d="
		M406.8,164.7c0,0-2.4,10.9-2.7,13.9c-0.3,2.5,4.8,0.5,4.8,0.5"/>
	
		<linearGradient id="SVGID_00000149356833475576617940000015997512073218179006_" gradientUnits="userSpaceOnUse" x1="5835.1196" y1="-8553.709" x2="7222.2202" y2="-10812.3291" gradientTransform="matrix(1 0 0 -1 0 444)">
		<stop  offset="0" style="stop-color:#8134BC"/>
		<stop  offset="1" style="stop-color:#1A084B"/>
	</linearGradient>
	
		<path style="clip-path:url(#SVGID_00000158009313489260044580000016198105246906821025_);fill:url(#SVGID_00000149356833475576617940000015997512073218179006_);" d="
		M415.1,180c-5.2-1.3-9.8,1.3-10.6,4.8c-0.8,3.4,2,6.4,2.3,6.7c-0.1,0.3-1.9,3.6-0.2,6.9c0.8,1.4,2,2.5,3.4,3.1
		c0.4,0.9,1,1.7,1.8,2.3c0.8,0.6,1.7,0.9,2.7,1c1,0.1,2-0.1,2.8-0.6c0.9-0.5,1.6-1.2,2.1-2c2.3-0.2,4.6-1.1,6.3-2.7
		c1.7-1.6,2.8-3.7,3.2-6.1c4.8-1.8,6.2-3.9,6.7-5.5c0.8-2.8-0.9-6,1.1-9.5c0.2-0.4,0.5-0.7,0.8-1.1c-1.3-5-2.5-10.1-3.8-15.1
		c-1.6,0.6-3,1.4-4.3,2.6c-4.1,3.8-4.1,9.3-4.1,10.4c-2-0.2-3.9,0.1-5.7,0.9C417.6,176.9,416.2,178.3,415.1,180L415.1,180z"/>
	<path style="clip-path:url(#SVGID_00000158009313489260044580000016198105246906821025_);fill:#7DD5F4;" d="M437.5,130.5
		c1.1-1,2.5-1.5,4-1.4c0.9,0,1.7,0.3,2.5,0.7c0.8,0.4,1.4,1,2,1.6c2.3,9.8,1.5,20-2.1,29.3l-5.3-0.5
		C440,150.4,439.7,140.3,437.5,130.5z"/>
	<path style="clip-path:url(#SVGID_00000158009313489260044580000016198105246906821025_);fill:#D4E4FC;" d="M439.6,160.4
		c1.4-10.2,1.1-20.6-0.9-30.7c-0.5,0.2-0.9,0.5-1.3,0.9c2.2,9.8,2.6,19.8,1,29.7L439.6,160.4z"/>
	<path style="clip-path:url(#SVGID_00000158009313489260044580000016198105246906821025_);fill:#FDFDFF;" d="M442.5,181.3
		c7.5,0,13.5-6,13.5-13.5c0-7.5-6-13.5-13.5-13.5c-7.5,0-13.5,6-13.5,13.5C429,175.3,435,181.3,442.5,181.3z"/>
	
		<path style="opacity:0.5;clip-path:url(#SVGID_00000158009313489260044580000016198105246906821025_);fill:#34197F;enable-background:new    ;" d="
		M452,162c0.5,1.7,0.6,3.4,0.3,5.1c-0.3,1.7-0.9,3.3-1.8,4.8c-0.9,1.4-2.2,2.7-3.6,3.6c-1.5,0.9-3.1,1.5-4.8,1.8
		c-2.5,0.4-5-0.1-7.2-1.2c-0.3-0.1-0.5-0.1-0.8-0.1c-0.3,0.1-0.5,0.2-0.7,0.5c-0.2,0.2-0.2,0.5-0.2,0.8c0,0.3,0.2,0.5,0.4,0.7
		c1.4,1.2,3,2.1,4.7,2.7c1.7,0.6,3.5,0.8,5.4,0.6c3.2-0.3,6.2-1.7,8.5-4c2.3-2.3,3.6-5.3,3.9-8.5c0.2-2.7-0.4-5.4-1.8-7.8
		c-0.1-0.3-0.4-0.5-0.7-0.5c-0.3-0.1-0.6-0.1-0.8,0c-0.3,0.1-0.5,0.3-0.6,0.6C452,161.4,451.9,161.7,452,162z"/>
	
		<linearGradient id="SVGID_00000000918482665983804120000011709518093160885934_" gradientUnits="userSpaceOnUse" x1="453.258" y1="263.299" x2="435.509" y2="284.482" gradientTransform="matrix(1 0 0 -1 0 444)">
		<stop  offset="7.000000e-02" style="stop-color:#9962FB"/>
		<stop  offset="0.27" style="stop-color:#A161F3"/>
		<stop  offset="0.58" style="stop-color:#B860DE"/>
		<stop  offset="0.95" style="stop-color:#DA5DBD"/>
	</linearGradient>
	
		<path style="clip-path:url(#SVGID_00000158009313489260044580000016198105246906821025_);fill:url(#SVGID_00000000918482665983804120000011709518093160885934_);" d="
		M442.5,177.7c5.4,0,9.8-4.4,9.8-9.8c0-5.4-4.4-9.8-9.8-9.8c-5.4,0-9.8,4.4-9.8,9.8C432.7,173.3,437.1,177.7,442.5,177.7z"/>
	
		<path style="opacity:0.5;clip-path:url(#SVGID_00000158009313489260044580000016198105246906821025_);fill:#34197F;enable-background:new    ;" d="
		M449.6,163c0.4,1.3,0.5,2.7,0.3,4.1c-0.2,1.3-0.6,2.6-1.3,3.7c-0.7,1.1-1.6,2.1-2.6,2.9c-1.1,0.8-2.3,1.3-3.5,1.7
		c-1.3,0.3-2.6,0.4-3.9,0.2c-0.2,0-0.3,0-0.4,0.1c-0.1,0.1-0.2,0.2-0.3,0.4c0,0.1,0,0.3,0,0.4c0.1,0.1,0.2,0.3,0.3,0.3
		c2,1,4.3,1.3,6.5,0.8c1.6-0.3,3-1.1,4.2-2.1c1.2-1,2.2-2.3,2.8-3.8c0.6-1.5,0.8-3.1,0.7-4.7c-0.2-1.6-0.7-3.1-1.6-4.4
		c-0.1-0.1-0.2-0.2-0.4-0.3c-0.2,0-0.3,0-0.5,0c-0.1,0.1-0.3,0.2-0.3,0.3S449.5,162.8,449.6,163z"/>
	
		<rect x="144.2" y="245.6" style="clip-path:url(#SVGID_00000158009313489260044580000016198105246906821025_);fill:none;" width="356.5" height="598.4"/>
	<path style="clip-path:url(#SVGID_00000158009313489260044580000016198105246906821025_);fill:#F8ACC1;" d="M376.3,280.1
		c-6,4.4-11.4,8.4-16.3,12.1c-2.1,1.5-4.1,3.2-5.8,5c-1.8,1.9-1.5,1.9-6,7.8c-2.4,3.1-3.8,4.8-4.9,7.8c-0.4,1-1.2,3.5-0.5,4
		c0.7,0.5,3.3-1.7,5.6-4c-0.2,0.9-1.1,5.6,0.5,6.3c0.6,0.3,1.5-0.2,1.8-0.4c3.9-2.4,1.7-9.2,6.2-13.8c0.6-0.7,1.4-1.2,2.1-1.7
		c-0.6,4.3-0.9,9.3,0.6,9.8c0.7,0.2,1.5-0.5,1.9-0.9c3.4-3.1,1.6-8.7,4.3-10c0.5-0.2,0.5,0,1.7-0.4c1.3-0.4,2.6-1.1,3.7-1.9
		c-0.5,1.4-3.4,10.5-0.6,14c0.1,0.2,0.3,0.4,0.5,0.5c0.2,0.1,0.4,0.2,0.6,0.3c1.7,0.1,2.1-4.6,6.1-9.2c1.9-2.2,2.4-1.9,4.1-4
		c1.8-2.3,3.1-4.9,3.8-7.8c-3.1-1.7-5.6-4.3-7.3-7.4C377.3,284.3,376.6,282.2,376.3,280.1z"/>
	
		<path style="opacity:0.4;clip-path:url(#SVGID_00000158009313489260044580000016198105246906821025_);fill:#90304A;enable-background:new    ;" d="
		M380.4,292.9c0,0-4,6-9.2,6.9c0,0-2.2,7.1-2,8.8c0,0,0,0.1,0.1,0.1c0.4,0.1,1.4-3.5,4.1-6.6c1-1.1,1.2-1,2.3-2.1
		C377.8,298,379.4,295.6,380.4,292.9z"/>
	
		<path style="opacity:0.4;clip-path:url(#SVGID_00000158009313489260044580000016198105246906821025_);fill:#90304A;enable-background:new    ;" d="
		M351.5,312.7c-1.2,2.1-2.4,4.4-3.4,5.7c0.1,0.3,0.3,0.6,0.6,0.7c0.6,0.3,1.5-0.2,1.8-0.4c3.9-2.4,1.7-9.2,6.2-13.8
		c0.6-0.6,1.3-1.1,2-1.6c0.1-0.7,0.3-1.8,0.5-2.6c0.3-1.2,5.7-6.1,5.7-6.1s-7.5,6.6-9,7.7S353.2,309.4,351.5,312.7z"/>
	
		<path style="opacity:0.4;clip-path:url(#SVGID_00000158009313489260044580000016198105246906821025_);fill:#90304A;enable-background:new    ;" d="
		M358.6,293.1l-0.1,0.1c-1.6,1.9-3.4,3.7-5.3,5.4c-1.1,0.6-5.3,10-5.3,10s-3.3,3.9-5.4,6.6c-0.1,0.7-0.1,1.3,0.2,1.6
		c0.8,0.6,3.3-1.7,5.6-4c0,0,2.7-10.7,4.4-12.7C353.7,298.8,356.6,295.5,358.6,293.1z"/>
	<path style="clip-path:url(#SVGID_00000158009313489260044580000016198105246906821025_);fill:#F8ACC1;" d="M322.6,283.2
		c-0.9-0.4-2-0.5-3-0.3c-0.6,0.1-1.1,0.3-1.6,0.6c-1.5-0.4-3.1-0.2-4.4,0.6c-0.6,0.4-1.2,1-1.5,1.6c-2.2,3.4-5.3,9.5-5.7,10.3
		c-0.7,2.7-1.7,6.4-2.7,10.3c-0.3,1.2-0.8,3.4,0,3.9c0.2,0.1,0.3,0.1,0.5,0.1s0.3,0,0.5-0.1c2.4-0.8,4.7-6.5,5.1-7.6l-1.5,9.4
		c0,0.2,0,1.4,0.7,1.8c0.8,0.4,1.5-0.1,1.9-0.3c2.2-1.2,2.8-4.1,4.6-9.7c0.6-1.8,1.1-3.3,1.5-4.2c0.5,2.7,0.8,5.5,1,8.2
		c0.1,2.4,0.1,4.3,1.1,4.8c0.8,0.4,2-0.2,2.6-0.8c0.9-0.8,1.2-2,1.6-5.3c0.2-1.5,0.4-3.5,0.5-5.8c0.9-1.8,1.9-3.7,2.9-5.6
		c0.5-0.9,1.1-1.8,1.6-2.7c0.6,0,1.2,0.2,1.7,0.4c3.6,1.8,1.9,8.2,5.7,10.8c1,0.6,2.5,1.1,3.2,0.6c0.9-0.7-0.2-2.4-0.6-6.7
		c0,0-0.7-7.5-1.3-9.6c-0.1-0.3-0.2-0.5-0.4-0.7c-0.3-0.4-0.8-0.7-1.3-0.8c-1.5-0.5-3-1.1-4.5-1.8c-0.5-0.5-1-0.9-1.5-1.3
		c-1.1-0.8-2.4-1.2-3.8-1.2C324.6,282.3,323.5,282.6,322.6,283.2z"/>
	
		<path style="opacity:0.4;clip-path:url(#SVGID_00000158009313489260044580000016198105246906821025_);fill:#90304A;enable-background:new    ;" d="
		M332.8,296.2c-0.1-3.9-1.5-12.2-2.7-9.8c0,0-6.6,11.9-6.6,13.3c0,1.4-0.7,12.9-4.6,12.8c0.1,0.1,0.2,0.2,0.3,0.2
		c0.8,0.4,2-0.2,2.6-0.8c0.9-0.8,1.2-2,1.6-5.3c0.2-1.5,0.4-3.5,0.5-5.8c0.9-1.8,1.9-3.7,2.9-5.6c0.5-0.9,1.1-1.8,1.6-2.7
		c0.6,0,1.2,0.2,1.7,0.4c3.6,1.8,1.9,8.2,5.7,10.8c0.4,0.2,0.8,0.4,1.2,0.6C335.4,302.4,332.9,298.8,332.8,296.2z"/>
	
		<path style="opacity:0.4;clip-path:url(#SVGID_00000158009313489260044580000016198105246906821025_);fill:#90304A;enable-background:new    ;" d="
		M322.4,285.5c0,0-5.5,12.1-6.3,13.1c-0.8,1-1.3,4.4-3.2,9.4c-0.8,2.3-2.2,4.3-4.1,5.8c0.1,0.1,0.2,0.2,0.3,0.2
		c0.7,0.4,1.5-0.1,1.9-0.3c2.2-1.2,2.8-4.1,4.6-9.7c0.6-1.8,1.1-3.3,1.5-4.2c0.1,0.3,0.1,0.5,0.1,0.8
		C317.9,298.1,322.4,285.5,322.4,285.5z"/>
	
		<path style="opacity:0.4;clip-path:url(#SVGID_00000158009313489260044580000016198105246906821025_);fill:#90304A;enable-background:new    ;" d="
		M309.5,298.5c-0.3,1.5-3,9.3-3,9.3c-1.1,0.7-2,1.5-2.9,2.5l0,0c0.2,0.1,0.3,0.1,0.5,0.1c0.2,0,0.3,0,0.5-0.1
		c2.1-0.7,4.2-5.4,4.9-7.1c0.1-1.5,0.3-3.4,0.4-4.3c0.1-1.7,6.6-12.9,6.6-12.9S309.9,297.1,309.5,298.5z"/>
	<path style="clip-path:url(#SVGID_00000158009313489260044580000016198105246906821025_);fill:#90304A;" d="M309.4,305.2l-0.1,0.4
		v-0.1L309.4,305.2z"/>
	
		<linearGradient id="SVGID_00000041987410812173744360000009260210075316767147_" gradientUnits="userSpaceOnUse" x1="15271.1533" y1="-14493.0225" x2="23351.5527" y2="-22395.9219" gradientTransform="matrix(1 0 0 -1 0 444)">
		<stop  offset="0.3" style="stop-color:#46AFF8"/>
		<stop  offset="0.31" style="stop-color:#5EBBFA"/>
		<stop  offset="0.32" style="stop-color:#76C7FC"/>
		<stop  offset="0.33" style="stop-color:#87CFFE"/>
		<stop  offset="0.34" style="stop-color:#91D4FF"/>
		<stop  offset="0.35" style="stop-color:#94D6FF"/>
		<stop  offset="0.38" style="stop-color:#94D1FD"/>
		<stop  offset="0.42" style="stop-color:#93C4F8"/>
		<stop  offset="0.45" style="stop-color:#92AEF0"/>
		<stop  offset="0.49" style="stop-color:#908FE4"/>
		<stop  offset="0.51" style="stop-color:#8F7DDD"/>
		<stop  offset="0.53" style="stop-color:#8379DB"/>
		<stop  offset="0.61" style="stop-color:#676ED6"/>
		<stop  offset="0.65" style="stop-color:#5C6AD4"/>
	</linearGradient>
	
		<path style="clip-path:url(#SVGID_00000158009313489260044580000016198105246906821025_);fill:url(#SVGID_00000041987410812173744360000009260210075316767147_);" d="
		M413.7,365.6c0.4,1.5,0.7,3.1,1,4.8c0.5,2.5,0.8,4.8,1.1,7c3.4,1.9,3.7,3.6,3.8,4.2c0.2,3.4-6.3,6.2-9.1,7.5
		c-3.3,1.4-4.8,1.5-7.8,2.4c-6.9,2.1-9.2,5.1-13.1,7.2c-10.5,5.4-27,1.1-28.7-5.1c-0.4-1.5-0.5-5.2,8.1-11.9
		c7.7-5.1,13.8-12.2,17.8-20.4c2.6-1.3,5.5-1.7,8.3-1.1c2.8,0.6,5.4,2.1,7.2,4.3L413.7,365.6z"/>
	
		<path style="opacity:0.5;clip-path:url(#SVGID_00000158009313489260044580000016198105246906821025_);fill:#04042A;enable-background:new    ;" d="
		M410.4,389.1c2.8-1.2,9.3-4,9.1-7.5c0-0.5-0.3-2.1-3.2-3.9c-1.3,4.3-7.9,7.9-12,9.2c-4.1,1.3-7.9,3.9-11.9,6.1
		c-4,2.2-10.3,1-14.9,0.1c-2.1-0.5-4.1-1.4-5.8-2.7c-1.7-1.3-3.1-3-4.1-4.8c-0.6-1.1-1.7-1-2.9-0.4c-4.3,4.4-4.2,7-3.8,8.2
		c1.6,6.2,18.2,10.4,28.7,5.1c3.9-2,6.3-5,13.1-7.2C405.6,390.5,407.1,390.5,410.4,389.1z"/>
	<path style="clip-path:url(#SVGID_00000158009313489260044580000016198105246906821025_);fill:#E4E1F9;" d="M394.7,359.9
		c-2.7-0.5-5.6-0.1-8.1,1.2c-1.6,3.3-3.5,6.5-5.8,9.4c-1.7,2.2-3.5,4.2-5.5,6c2.1-0.2,4.2,0.1,6.1,0.9c1.9,0.8,3.6,2.1,4.9,3.8
		c0,0,14-13,15.8-17C400.3,362,397.6,360.5,394.7,359.9z"/>
	
		<path style="clip-path:url(#SVGID_00000158009313489260044580000016198105246906821025_);fill:none;stroke:#9861FB;stroke-width:2;stroke-linecap:round;stroke-linejoin:round;" d="
		M378,373.1c0,0,7-5.1,12.5,4.6"/>
	
		<path style="clip-path:url(#SVGID_00000158009313489260044580000016198105246906821025_);fill:none;stroke:#9861FB;stroke-width:2;stroke-linecap:round;stroke-linejoin:round;" d="
		M383.5,366.7c0,0,5.5-3.9,12.1,5.4"/>
	
		<linearGradient id="SVGID_00000166677002551372692660000015641169254280342171_" gradientUnits="userSpaceOnUse" x1="30373.8496" y1="-74541.5859" x2="16681.6523" y2="-40658.8828" gradientTransform="matrix(1 0 0 -1 0 444)">
		<stop  offset="7.000000e-02" style="stop-color:#9962FB"/>
		<stop  offset="0.27" style="stop-color:#A161F3"/>
		<stop  offset="0.5" style="stop-color:#B860DE"/>
		<stop  offset="0.75" style="stop-color:#DA5DBD"/>
	</linearGradient>
	
		<path style="clip-path:url(#SVGID_00000158009313489260044580000016198105246906821025_);fill:none;stroke:url(#SVGID_00000166677002551372692660000015641169254280342171_);stroke-width:2;stroke-linecap:round;stroke-linejoin:round;" d="
		M137.1,253.5c-0.8,0-14.6-1.3-16,6.3c-1,6-0.4,75.4-0.1,103.4c0,3.1,1.3,6.1,3.5,8.2c2.2,2.2,5.2,3.4,8.3,3.4h48
		c7-1,12.5,4.2,12.5,8.9c0.1,4.7-5.4,10.1-12.5,9.2H145c-2.3,0-4.5,0.9-6.1,2.5c-1.6,1.6-2.5,3.8-2.5,6.1l0,0c0,2.3,0.9,4.5,2.5,6.1
		c1.6,1.6,3.8,2.5,6.1,2.5h145.1c3.5,0,6.9-1.4,9.3-3.9c2.5-2.5,3.9-5.8,3.9-9.3v-67l-8.9-6.3"/>
	<path style="clip-path:url(#SVGID_00000158009313489260044580000016198105246906821025_);fill:#CEE6F4;" d="M218.2,203.6H138
		c-2.8,0-5.1,2.3-5.1,5.1V254c0,2.8,2.3,5.1,5.1,5.1h80.2c2.8,0,5.1-2.3,5.1-5.1v-45.3C223.2,205.9,220.9,203.6,218.2,203.6z"/>
	<path style="clip-path:url(#SVGID_00000158009313489260044580000016198105246906821025_);fill:#EBF8FF;" d="M134.2,254.8v-45.3
		c0-1.3,0.5-2.6,1.5-3.6c0.9-0.9,2.2-1.5,3.6-1.5h80.2c0.7,0,1.3,0.1,2,0.4c-0.9-0.8-2.1-1.2-3.3-1.2H138c-1.3,0-2.6,0.5-3.6,1.5
		c-0.9,0.9-1.5,2.2-1.5,3.6V254c0,1,0.3,2,0.8,2.8c0.6,0.8,1.3,1.5,2.3,1.9c-0.6-0.5-1-1.1-1.3-1.7
		C134.4,256.3,134.2,255.5,134.2,254.8z"/>
	
		<path style="opacity:0.15;clip-path:url(#SVGID_00000158009313489260044580000016198105246906821025_);fill:#3D17A4;enable-background:new    ;" d="
		M132.9,247.6v6.4c0,1.3,0.5,2.6,1.5,3.6c0.9,0.9,2.2,1.5,3.6,1.5h80.2c1.3,0,2.6-0.5,3.6-1.5c0.9-0.9,1.5-2.2,1.5-3.6v-45.3
		c0-0.2,0-0.5-0.1-0.7c-6.6,4.4-14.8,11.8-32.6,25.9C165.4,253.8,147.2,244,132.9,247.6z"/>
	<path style="clip-path:url(#SVGID_00000158009313489260044580000016198105246906821025_);fill:#EBF8FF;" d="M185.3,230
		c0-4.1-3.3-7.4-7.4-7.4c-4.1,0-7.4,3.3-7.4,7.4c0,4.1,3.3,7.4,7.4,7.4C182,237.4,185.3,234.1,185.3,230z"/>
	
		<linearGradient id="SVGID_00000136406111986348617920000005775420110348809391_" gradientUnits="userSpaceOnUse" x1="1115.17" y1="120.393" x2="1126.77" y2="120.393" gradientTransform="matrix(1 0 0 -1 0 444)">
		<stop  offset="6.000000e-02" style="stop-color:#FFFFFF"/>
		<stop  offset="0.96" style="stop-color:#35D1F3"/>
	</linearGradient>
	
		<path style="clip-path:url(#SVGID_00000158009313489260044580000016198105246906821025_);fill:url(#SVGID_00000136406111986348617920000005775420110348809391_);" d="
		M295.1,322.5h-1.1c-0.6,0-1.1,0.5-1.1,1.1c0,0.6,0.5,1.1,1.1,1.1h1.1c0.6,0,1.1-0.5,1.1-1.1C296.1,323,295.7,322.5,295.1,322.5z"/>
</g>
</svg>
