<?xml version="1.0" encoding="utf-8"?>
<!-- Generator: Adobe Illustrator 26.5.0, SVG Export Plug-In . SVG Version: 6.00 Build 0)  -->
<svg version="1.1" id="Layer_1" xmlns="http://www.w3.org/2000/svg" xmlns:xlink="http://www.w3.org/1999/xlink" x="0px" y="0px"
	 viewBox="0 0 551 388" style="enable-background:new 0 0 551 388;" xml:space="preserve">
<style type="text/css">
	
		.st0{clip-path:url(#SVGID_00000098217185170884132210000010688499206151105934_);fill:url(#SVGID_00000021803994356025565310000001436122383780348861_);}
	
		.st1{clip-path:url(#SVGID_00000098217185170884132210000010688499206151105934_);fill:url(#SVGID_00000006704824882138876410000013898168387193800868_);}
	.st2{clip-path:url(#SVGID_00000098217185170884132210000010688499206151105934_);fill:#FFFFFF;}
	
		.st3{opacity:0.5;clip-path:url(#SVGID_00000098217185170884132210000010688499206151105934_);fill:url(#SVGID_00000140011899791535446980000014191648413224427187_);enable-background:new    ;}
	
		.st4{opacity:0.2;clip-path:url(#SVGID_00000098217185170884132210000010688499206151105934_);fill:url(#SVGID_00000174602295978760356800000006089677271451379354_);enable-background:new    ;}
	
		.st5{opacity:0.3;clip-path:url(#SVGID_00000098217185170884132210000010688499206151105934_);fill:url(#SVGID_00000005266915655265123410000000344054607362133932_);enable-background:new    ;}
	
		.st6{clip-path:url(#SVGID_00000098217185170884132210000010688499206151105934_);fill:#FFFFFF;filter:url(#Adobe_OpacityMaskFilter);}
	
		.st7{clip-path:url(#SVGID_00000098217185170884132210000010688499206151105934_);mask:url(#path-19-inside-1_592_24689_00000115509490760387282750000014987913326168180114_);fill:url(#SVGID_00000076588173464994792380000001840145930449891764_);stroke:#FFFFFF;stroke-width:2;}
	
		.st8{clip-path:url(#SVGID_00000098217185170884132210000010688499206151105934_);fill:url(#SVGID_00000072242193230381168220000000939022932824713092_);}
	
		.st9{clip-path:url(#SVGID_00000098217185170884132210000010688499206151105934_);fill:url(#SVGID_00000075151377178851890350000016967767928217721226_);}
	.st10{clip-path:url(#SVGID_00000098217185170884132210000010688499206151105934_);fill:#554225;}
	.st11{clip-path:url(#SVGID_00000098217185170884132210000010688499206151105934_);fill:#1A5CC6;}
	.st12{clip-path:url(#SVGID_00000098217185170884132210000010688499206151105934_);fill:#DAC7C7;}
	
		.st13{opacity:0.5;clip-path:url(#SVGID_00000098217185170884132210000010688499206151105934_);fill:#5E4A4A;enable-background:new    ;}
	.st14{clip-path:url(#SVGID_00000098217185170884132210000010688499206151105934_);fill:#BCA1A1;}
	.st15{clip-path:url(#SVGID_00000098217185170884132210000010688499206151105934_);fill:#30206B;}
	.st16{clip-path:url(#SVGID_00000098217185170884132210000010688499206151105934_);fill:#2B8BEC;}
	
		.st17{opacity:0.22;clip-path:url(#SVGID_00000098217185170884132210000010688499206151105934_);fill:#A6D0F5;enable-background:new    ;}
	
		.st18{opacity:0.3;clip-path:url(#SVGID_00000098217185170884132210000010688499206151105934_);fill:#3E49AC;enable-background:new    ;}
	.st19{opacity:0.5;clip-path:url(#SVGID_00000098217185170884132210000010688499206151105934_);}
	.st20{opacity:0.5;fill:#5E4A4A;enable-background:new    ;}
	.st21{clip-path:url(#SVGID_00000098217185170884132210000010688499206151105934_);fill:#DB59BE;}
	
		.st22{opacity:0.25;clip-path:url(#SVGID_00000098217185170884132210000010688499206151105934_);fill:#341280;enable-background:new    ;}
	.st23{clip-path:url(#SVGID_00000098217185170884132210000010688499206151105934_);fill:#DDEBF9;}
	.st24{clip-path:url(#SVGID_00000098217185170884132210000010688499206151105934_);fill:#B3D1E8;}
	.st25{clip-path:url(#SVGID_00000098217185170884132210000010688499206151105934_);fill:#FFD6E2;}
	
		.st26{opacity:0.5;clip-path:url(#SVGID_00000098217185170884132210000010688499206151105934_);fill:#F57FA0;enable-background:new    ;}
	
		.st27{opacity:0.5;clip-path:url(#SVGID_00000098217185170884132210000010688499206151105934_);fill:none;stroke:#F57FA0;stroke-width:0.75;stroke-linecap:round;stroke-linejoin:round;enable-background:new    ;}
	
		.st28{clip-path:url(#SVGID_00000098217185170884132210000010688499206151105934_);fill:url(#SVGID_00000026879622020507275470000001236483335874242957_);}
	
		.st29{opacity:0.15;clip-path:url(#SVGID_00000098217185170884132210000010688499206151105934_);fill:#341280;enable-background:new    ;}
	
		.st30{clip-path:url(#SVGID_00000098217185170884132210000010688499206151105934_);fill:url(#SVGID_00000080172669955151909170000002458129877764704650_);}
	.st31{opacity:0.25;clip-path:url(#SVGID_00000098217185170884132210000010688499206151105934_);}
	.st32{opacity:0.25;fill:#341280;enable-background:new    ;}
	.st33{clip-path:url(#SVGID_00000098217185170884132210000010688499206151105934_);fill:#EDC0C8;}
	
		.st34{clip-path:url(#SVGID_00000098217185170884132210000010688499206151105934_);fill:url(#SVGID_00000173132841721191032340000001745560585365202098_);}
	
		.st35{opacity:0.5;clip-path:url(#SVGID_00000098217185170884132210000010688499206151105934_);fill:#412168;enable-background:new    ;}
	
		.st36{clip-path:url(#SVGID_00000098217185170884132210000010688499206151105934_);fill:none;stroke:#C2BFC7;stroke-width:2;stroke-linecap:round;stroke-linejoin:round;}
	
		.st37{clip-path:url(#SVGID_00000098217185170884132210000010688499206151105934_);fill:none;stroke:#BF9AD8;stroke-linecap:round;stroke-linejoin:round;}
	
		.st38{clip-path:url(#SVGID_00000098217185170884132210000010688499206151105934_);fill:none;stroke:#BF9AD8;stroke-width:0.5;stroke-linecap:round;stroke-linejoin:round;}
	.st39{clip-path:url(#SVGID_00000098217185170884132210000010688499206151105934_);fill:#AF8C94;}
	.st40{opacity:0.5;fill:#412168;enable-background:new    ;}
	
		.st41{opacity:0.4;clip-path:url(#SVGID_00000098217185170884132210000010688499206151105934_);fill:#412168;enable-background:new    ;}
	
		.st42{clip-path:url(#SVGID_00000098217185170884132210000010688499206151105934_);fill:url(#SVGID_00000136412897086167506680000007325177777592252598_);}
	
		.st43{opacity:0.9;clip-path:url(#SVGID_00000098217185170884132210000010688499206151105934_);fill:#EBDCFD;enable-background:new    ;}
	.st44{clip-path:url(#SVGID_00000098217185170884132210000010688499206151105934_);fill:#AF8E95;}
	
		.st45{clip-path:url(#SVGID_00000098217185170884132210000010688499206151105934_);fill:url(#SVGID_00000083780446328978198420000006879941822740376470_);}
	
		.st46{opacity:0.8;clip-path:url(#SVGID_00000098217185170884132210000010688499206151105934_);fill:url(#SVGID_00000065032450813509568930000013191824951107371912_);enable-background:new    ;}
	
		.st47{opacity:0.5;clip-path:url(#SVGID_00000098217185170884132210000010688499206151105934_);fill:#AF8C94;enable-background:new    ;}
	.st48{clip-path:url(#SVGID_00000098217185170884132210000010688499206151105934_);fill:#CCA8AE;}
	
		.st49{clip-path:url(#SVGID_00000098217185170884132210000010688499206151105934_);fill:url(#SVGID_00000042009572133974294240000016114610196796581800_);}
	.st50{clip-path:url(#SVGID_00000098217185170884132210000010688499206151105934_);fill:#412168;}
	
		.st51{clip-path:url(#SVGID_00000098217185170884132210000010688499206151105934_);fill:url(#SVGID_00000057148376523075120970000013814233793217751486_);}
	.st52{clip-path:url(#SVGID_00000098217185170884132210000010688499206151105934_);fill:#A161F3;}
	
		.st53{clip-path:url(#SVGID_00000098217185170884132210000010688499206151105934_);fill:url(#SVGID_00000035521403908491304520000017483510231595163815_);}
	.st54{clip-path:url(#SVGID_00000098217185170884132210000010688499206151105934_);fill:#6B63B7;}
	
		.st55{opacity:0.45;clip-path:url(#SVGID_00000098217185170884132210000010688499206151105934_);fill:url(#SVGID_00000176749670395771120330000009396651507949674425_);enable-background:new    ;}
	.st56{opacity:0.4;clip-path:url(#SVGID_00000098217185170884132210000010688499206151105934_);}
	.st57{opacity:0.4;fill:#34197F;enable-background:new    ;}
	.st58{clip-path:url(#SVGID_00000098217185170884132210000010688499206151105934_);fill:#514DA0;}
	.st59{clip-path:url(#SVGID_00000098217185170884132210000010688499206151105934_);fill:#FFBBE5;}
	
		.st60{clip-path:url(#SVGID_00000098217185170884132210000010688499206151105934_);fill:url(#SVGID_00000074430507822686834910000006264801480663852970_);}
	.st61{clip-path:url(#SVGID_00000098217185170884132210000010688499206151105934_);fill:#FDFDFF;}
	
		.st62{opacity:0.3;clip-path:url(#SVGID_00000098217185170884132210000010688499206151105934_);fill:#34197F;enable-background:new    ;}
	
		.st63{clip-path:url(#SVGID_00000098217185170884132210000010688499206151105934_);fill:url(#SVGID_00000106843437359845504670000010631790188641400974_);}
	.st64{clip-path:url(#SVGID_00000098217185170884132210000010688499206151105934_);fill:#7DD5F4;}
	
		.st65{clip-path:url(#SVGID_00000098217185170884132210000010688499206151105934_);fill:none;stroke:#3F2B45;stroke-linecap:round;stroke-linejoin:round;}
</style>
<g>
	<defs>
		<rect id="SVGID_1_" width="551" height="388"/>
	</defs>
	<clipPath id="SVGID_00000029019948638880352260000012284106866476820385_">
		<use xlink:href="#SVGID_1_"  style="overflow:visible;"/>
	</clipPath>
	
		<radialGradient id="SVGID_00000035517186771617979870000006128216147745326220_" cx="-2149.9072" cy="2703.0784" r="1" gradientTransform="matrix(1.904914e-15 31.1096 275.299 -1.685720e-14 -743879.5625 67230.4922)" gradientUnits="userSpaceOnUse">
		<stop  offset="0" style="stop-color:#6669FB"/>
		<stop  offset="1" style="stop-color:#C4C4C4;stop-opacity:0"/>
	</radialGradient>
	
		<ellipse style="clip-path:url(#SVGID_00000029019948638880352260000012284106866476820385_);fill:url(#SVGID_00000035517186771617979870000006128216147745326220_);" cx="275.3" cy="347.7" rx="275.3" ry="31.1"/>
	
		<linearGradient id="SVGID_00000026154639885373829000000012539752610838074254_" gradientUnits="userSpaceOnUse" x1="-813.0971" y1="-2907.4451" x2="1110.6023" y2="3679.2153" gradientTransform="matrix(1 0 0 -1 0 390)">
		<stop  offset="1.000000e-02" style="stop-color:#A76897"/>
		<stop  offset="0.4" style="stop-color:#DDB1B9"/>
		<stop  offset="0.95" style="stop-color:#FFE1E1"/>
	</linearGradient>
	
		<path style="clip-path:url(#SVGID_00000029019948638880352260000012284106866476820385_);fill:url(#SVGID_00000026154639885373829000000012539752610838074254_);" d="
		M107.7,240.4v-15.5c0-0.9-0.4-1.8-1-2.4c-0.6-0.6-1.5-1-2.4-1H47.9c-0.5,0-0.9,0.1-1.3,0.2c-0.4,0.2-0.8,0.4-1.1,0.7
		c-0.3,0.3-0.6,0.7-0.8,1.1c-0.2,0.4-0.3,0.9-0.3,1.3v19.7c0,0.5,0.1,0.9,0.3,1.3c0.2,0.4,0.4,0.8,0.8,1.1c0.3,0.3,0.7,0.6,1.1,0.7
		c0.4,0.2,0.9,0.3,1.3,0.2h69.6L107.7,240.4z"/>
	<path style="clip-path:url(#SVGID_00000029019948638880352260000012284106866476820385_);fill:#FFFFFF;" d="M62.6,238.2
		c1.9,0,3.4-1.5,3.4-3.4c0-1.9-1.5-3.4-3.4-3.4c-1.9,0-3.4,1.5-3.4,3.4C59.2,236.7,60.7,238.2,62.6,238.2z"/>
	<path style="clip-path:url(#SVGID_00000029019948638880352260000012284106866476820385_);fill:#FFFFFF;" d="M75.7,238.2
		c1.9,0,3.4-1.5,3.4-3.4c0-1.9-1.5-3.4-3.4-3.4c-1.9,0-3.4,1.5-3.4,3.4C72.3,236.7,73.8,238.2,75.7,238.2z"/>
	<path style="clip-path:url(#SVGID_00000029019948638880352260000012284106866476820385_);fill:#FFFFFF;" d="M88.8,238.2
		c1.9,0,3.4-1.5,3.4-3.4c0-1.9-1.5-3.4-3.4-3.4c-1.9,0-3.4,1.5-3.4,3.4C85.3,236.7,86.9,238.2,88.8,238.2z"/>
	
		<linearGradient id="SVGID_00000134238677954561791380000010536651424268434577_" gradientUnits="userSpaceOnUse" x1="-755.6633" y1="-2734.3625" x2="1167.9362" y2="3849.668" gradientTransform="matrix(1 0 0 -1 0 390)">
		<stop  offset="1.000000e-02" style="stop-color:#A76897"/>
		<stop  offset="0.4" style="stop-color:#DDB1B9"/>
		<stop  offset="0.95" style="stop-color:#FFE1E1"/>
	</linearGradient>
	
		<path style="opacity:0.5;clip-path:url(#SVGID_00000029019948638880352260000012284106866476820385_);fill:url(#SVGID_00000134238677954561791380000010536651424268434577_);enable-background:new    ;" d="
		M165.1,68.5V53c0-0.9-0.4-1.8-1-2.4c-0.6-0.6-1.5-1-2.4-1h-56.4c-0.9,0-1.8,0.4-2.4,1c-0.6,0.6-1,1.5-1,2.4v19.7
		c0,0.9,0.4,1.8,1,2.4c0.6,0.6,1.5,1,2.4,1h69.6L165.1,68.5z"/>
	<path style="clip-path:url(#SVGID_00000029019948638880352260000012284106866476820385_);fill:#FFFFFF;" d="M120,66.3
		c1.9,0,3.4-1.5,3.4-3.4s-1.5-3.4-3.4-3.4c-1.9,0-3.4,1.5-3.4,3.4S118.1,66.3,120,66.3z"/>
	<path style="clip-path:url(#SVGID_00000029019948638880352260000012284106866476820385_);fill:#FFFFFF;" d="M133.1,66.3
		c1.9,0,3.4-1.5,3.4-3.4s-1.5-3.4-3.4-3.4c-1.9,0-3.4,1.5-3.4,3.4S131.2,66.3,133.1,66.3z"/>
	<path style="clip-path:url(#SVGID_00000029019948638880352260000012284106866476820385_);fill:#FFFFFF;" d="M146.1,66.3
		c1.9,0,3.4-1.5,3.4-3.4s-1.5-3.4-3.4-3.4c-1.9,0-3.4,1.5-3.4,3.4S144.2,66.3,146.1,66.3z"/>
	
		<linearGradient id="SVGID_00000024705152976141841980000006677583910128917152_" gradientUnits="userSpaceOnUse" x1="-473.3757" y1="-2748.2871" x2="1451.2239" y2="3835.2227" gradientTransform="matrix(1 0 0 -1 0 390)">
		<stop  offset="1.000000e-02" style="stop-color:#A76897"/>
		<stop  offset="0.4" style="stop-color:#DDB1B9"/>
		<stop  offset="0.95" style="stop-color:#FFE1E1"/>
	</linearGradient>
	
		<path style="opacity:0.2;clip-path:url(#SVGID_00000029019948638880352260000012284106866476820385_);fill:url(#SVGID_00000024705152976141841980000006677583910128917152_);enable-background:new    ;" d="
		M391.6,81.9V66.4c0-0.9,0.4-1.8,1-2.4c0.6-0.6,1.5-1,2.4-1h56.4c0.9,0,1.8,0.4,2.4,1c0.6,0.6,1,1.5,1,2.4v19.7c0,0.9-0.4,1.8-1,2.4
		c-0.6,0.6-1.5,1-2.4,1h-69.6L391.6,81.9z"/>
	<path style="clip-path:url(#SVGID_00000029019948638880352260000012284106866476820385_);fill:#FFFFFF;" d="M436.7,79.7
		c1.9,0,3.4-1.5,3.4-3.4c0-1.9-1.5-3.4-3.4-3.4s-3.4,1.5-3.4,3.4C433.2,78.2,434.8,79.7,436.7,79.7z"/>
	<path style="clip-path:url(#SVGID_00000029019948638880352260000012284106866476820385_);fill:#FFFFFF;" d="M423.6,79.7
		c1.9,0,3.4-1.5,3.4-3.4c0-1.9-1.5-3.4-3.4-3.4c-1.9,0-3.4,1.5-3.4,3.4C420.1,78.2,421.7,79.7,423.6,79.7z"/>
	<path style="clip-path:url(#SVGID_00000029019948638880352260000012284106866476820385_);fill:#FFFFFF;" d="M410.5,79.7
		c1.9,0,3.4-1.5,3.4-3.4c0-1.9-1.5-3.4-3.4-3.4s-3.4,1.5-3.4,3.4C407.1,78.2,408.7,79.7,410.5,79.7z"/>
	
		<linearGradient id="SVGID_00000085248470681661295110000014489444534826712998_" gradientUnits="userSpaceOnUse" x1="-433.3233" y1="-2890.2041" x2="1498.0771" y2="3703.9958" gradientTransform="matrix(1 0 0 -1 0 390)">
		<stop  offset="1.000000e-02" style="stop-color:#A76897"/>
		<stop  offset="0.4" style="stop-color:#DDB1B9"/>
		<stop  offset="0.95" style="stop-color:#FFE1E1"/>
	</linearGradient>
	
		<path style="opacity:0.3;clip-path:url(#SVGID_00000029019948638880352260000012284106866476820385_);fill:url(#SVGID_00000085248470681661295110000014489444534826712998_);enable-background:new    ;" d="
		M434.9,218.7v-15.5c0-0.9,0.4-1.8,1-2.4c0.6-0.6,1.5-1,2.4-1h56.4c0.9,0,1.8,0.4,2.4,1c0.6,0.6,1,1.5,1,2.4v19.7
		c0,0.9-0.4,1.8-1,2.4c-0.6,0.6-1.5,1-2.4,1h-69.6L434.9,218.7z"/>
	<path style="clip-path:url(#SVGID_00000029019948638880352260000012284106866476820385_);fill:#FFFFFF;" d="M479.9,216.5
		c1.9,0,3.4-1.5,3.4-3.4c0-1.9-1.5-3.4-3.4-3.4c-1.9,0-3.4,1.5-3.4,3.4C476.5,215,478,216.5,479.9,216.5z"/>
	<path style="clip-path:url(#SVGID_00000029019948638880352260000012284106866476820385_);fill:#FFFFFF;" d="M466.8,216.5
		c1.9,0,3.4-1.5,3.4-3.4c0-1.9-1.5-3.4-3.4-3.4s-3.4,1.5-3.4,3.4C463.4,215,464.9,216.5,466.8,216.5z"/>
	<path style="clip-path:url(#SVGID_00000029019948638880352260000012284106866476820385_);fill:#FFFFFF;" d="M453.8,216.5
		c1.9,0,3.4-1.5,3.4-3.4c0-1.9-1.5-3.4-3.4-3.4c-1.9,0-3.4,1.5-3.4,3.4C450.4,215,451.9,216.5,453.8,216.5z"/>
	<defs>
		<filter id="Adobe_OpacityMaskFilter" filterUnits="userSpaceOnUse" x="132.3" y="55.6" width="311.7" height="185.3">
			<feColorMatrix  type="matrix" values="1 0 0 0 0  0 1 0 0 0  0 0 1 0 0  0 0 0 1 0"/>
		</filter>
	</defs>
	
		<mask maskUnits="userSpaceOnUse" x="132.3" y="55.6" width="311.7" height="185.3" id="path-19-inside-1_592_24689_00000115509490760387282750000014987913326168180114_">
		
			<path style="clip-path:url(#SVGID_00000029019948638880352260000012284106866476820385_);fill:#FFFFFF;filter:url(#Adobe_OpacityMaskFilter);" d="
			M443,209.3v-0.2c0-0.2,0-0.3-0.1-0.5c0,0,0-0.1,0-0.1c0-0.2-0.1-0.4-0.2-0.5l-0.1-0.1c-0.1-0.1-0.1-0.3-0.2-0.4l-0.1-0.1
			L363.9,94.9c-0.1-0.1-0.2-0.2-0.3-0.3c0,0-0.1-0.1-0.1-0.1c-0.1-0.1-0.3-0.2-0.4-0.3c0,0-0.1-0.1-0.1-0.1
			c-0.2-0.1-0.4-0.2-0.6-0.3c-0.1-0.1-0.3-0.1-0.4-0.1l-0.2-0.1L177.6,56.6c-0.1,0-0.2,0-0.2,0H177h-0.3h-0.3c-0.1,0-0.2,0-0.4,0.1
			l-0.3,0.1c-0.1,0-0.2,0.1-0.3,0.2l-0.2,0.1c-0.1,0.1-0.2,0.2-0.3,0.3l-0.2,0.1c-0.1,0.1-0.2,0.2-0.3,0.3c0,0.1-0.1,0.1-0.1,0.2
			c-0.1,0.1-0.1,0.2-0.2,0.3c0,0.1-0.1,0.2-0.1,0.2c0,0.1-0.1,0.2-0.1,0.2c0,0.1-0.1,0.3-0.1,0.4l-40.2,176.6c0,0.2-0.1,0.4-0.1,0.5
			c0,0,0,0.1,0,0.1c0,0.2,0,0.4,0,0.6c0,0,0,0.1,0,0.1c0,0.2,0.1,0.4,0.1,0.5c0,0,0,0,0,0.1c0.1,0.2,0.2,0.4,0.3,0.5c0,0,0,0,0,0.1
			v0.1l0.2,0.2l0.1,0.2l0.1,0c0.1,0.2,0.3,0.3,0.5,0.4c0.2,0.1,0.4,0.2,0.6,0.3l0.1,0.1c0.2,0.1,0.4,0.2,0.6,0.2h0.1
			c0.2,0,0.4,0.1,0.7,0.1h0.5l302.9-27.3c0.1,0,0.1,0,0.2,0h0.2c0.1,0,0.3-0.1,0.4-0.1h0.1c0.2-0.1,0.3-0.1,0.5-0.2l0.1-0.1
			c0.1-0.1,0.2-0.1,0.3-0.2l0.1-0.1l0.3-0.3l0.1-0.1c0.1-0.1,0.2-0.3,0.3-0.4c0,0,0.1-0.1,0.1-0.1l0.1-0.2l0-0.1l0.1-0.2
			c0-0.1,0.1-0.3,0.1-0.4v-0.1C443,209.7,443,209.5,443,209.3z M183.1,71.9l74.2,81.8c0.3,0.4,0.6,0.8,0.7,1.3
			c0.1,0.5,0.2,1,0.1,1.4c-0.1,0.5-0.2,0.9-0.5,1.4c-0.3,0.4-0.6,0.8-1,1c-35,21.7-73.9,45.7-107.9,66.6c-0.6,0.3-1.2,0.5-1.9,0.5
			c-0.7,0-1.3-0.2-1.8-0.6c-0.5-0.4-0.9-0.9-1.2-1.5c-0.2-0.6-0.3-1.3-0.1-1.9l33.7-148.4c0.1-0.6,0.4-1.1,0.9-1.6
			c0.4-0.4,1-0.8,1.6-0.9c0.6-0.2,1.2-0.1,1.8,0C182.1,71.1,182.6,71.4,183.1,71.9z M196.2,67.3L344.5,97c0.7,0.1,1.3,0.4,1.7,0.9
			c0.5,0.5,0.8,1.1,0.9,1.7c0.1,0.7,0,1.3-0.2,1.9c-0.3,0.6-0.7,1.1-1.3,1.5c-15.8,10.1-44.4,27.9-77.6,48.4
			c-0.7,0.4-1.4,0.6-2.2,0.5c-0.8-0.1-1.5-0.5-2-1.1l-70.7-78.1c-0.5-0.5-0.8-1.2-0.8-1.9c-0.1-0.7,0.1-1.4,0.4-2
			c0.3-0.6,0.9-1.1,1.5-1.4C194.8,67.3,195.5,67.2,196.2,67.3L196.2,67.3z M250.6,170.4l11.5-7.1c0.7-0.4,1.4-0.6,2.2-0.5
			c0.8,0.1,1.5,0.5,2,1.1l16,17.6c0.5,0.5,1.2,0.9,1.9,1.1l108.2,21c0.8,0.2,1.5,0.6,2,1.2c0.5,0.6,0.7,1.4,0.7,2.2
			c0,0.8-0.4,1.6-0.9,2.1c-0.6,0.6-1.3,0.9-2.1,1l-227.1,20.5c-0.7,0.1-1.5-0.1-2.1-0.5c-0.6-0.4-1.1-1-1.3-1.7
			c-0.2-0.7-0.2-1.5,0-2.2c0.3-0.7,0.7-1.3,1.4-1.7C184.5,211.2,217.7,190.7,250.6,170.4L250.6,170.4z M285.9,175.2l-12.8-14.1
			c-0.3-0.4-0.6-0.8-0.7-1.3c-0.1-0.5-0.2-1-0.1-1.4c0.1-0.5,0.2-0.9,0.5-1.4c0.3-0.4,0.6-0.8,1-1c21.9-13.6,40.1-24.9,54-33.6
			c11.1-6.9,19.6-12.3,25.5-16.1l4.4-2.8c0.7-0.5,1.6-0.6,2.4-0.5c0.8,0.2,1.6,0.6,2.1,1.3l65,93.2c0.4,0.5,0.6,1.2,0.6,1.8
			c0,0.7-0.2,1.3-0.5,1.9c-0.4,0.6-0.9,1-1.5,1.2s-1.3,0.3-1.9,0.2l-136.2-26.5C287,176.1,286.4,175.7,285.9,175.2L285.9,175.2z"/>
	</mask>
	
		<linearGradient id="SVGID_00000179615894747844180400000012614306795585075133_" gradientUnits="userSpaceOnUse" x1="157.3683" y1="149.705" x2="366.2113" y2="295.9539" gradientTransform="matrix(1 0 0 -1 0 390)">
		<stop  offset="0.18" style="stop-color:#6669FB"/>
		<stop  offset="0.98" style="stop-color:#D8D9FE;stop-opacity:0.3"/>
	</linearGradient>
	
		<path style="clip-path:url(#SVGID_00000029019948638880352260000012284106866476820385_);mask:url(#path-19-inside-1_592_24689_00000115509490760387282750000014987913326168180114_);fill:url(#SVGID_00000179615894747844180400000012614306795585075133_);stroke:#FFFFFF;stroke-width:2;" d="
		M443,209.3v-0.2c0-0.2,0-0.3-0.1-0.5c0,0,0-0.1,0-0.1c0-0.2-0.1-0.4-0.2-0.5l-0.1-0.1c-0.1-0.1-0.1-0.3-0.2-0.4l-0.1-0.1
		L363.9,94.9c-0.1-0.1-0.2-0.2-0.3-0.3c0,0-0.1-0.1-0.1-0.1c-0.1-0.1-0.3-0.2-0.4-0.3c0,0-0.1-0.1-0.1-0.1c-0.2-0.1-0.4-0.2-0.6-0.3
		c-0.1-0.1-0.3-0.1-0.4-0.1l-0.2-0.1L177.6,56.6c-0.1,0-0.2,0-0.2,0H177h-0.3h-0.3c-0.1,0-0.2,0-0.4,0.1l-0.3,0.1
		c-0.1,0-0.2,0.1-0.3,0.2l-0.2,0.1c-0.1,0.1-0.2,0.2-0.3,0.3l-0.2,0.1c-0.1,0.1-0.2,0.2-0.3,0.3c0,0.1-0.1,0.1-0.1,0.2
		c-0.1,0.1-0.1,0.2-0.2,0.3c0,0.1-0.1,0.2-0.1,0.2c0,0.1-0.1,0.2-0.1,0.2c0,0.1-0.1,0.3-0.1,0.4l-40.2,176.6c0,0.2-0.1,0.4-0.1,0.5
		c0,0,0,0.1,0,0.1c0,0.2,0,0.4,0,0.6c0,0,0,0.1,0,0.1c0,0.2,0.1,0.4,0.1,0.5c0,0,0,0,0,0.1c0.1,0.2,0.2,0.4,0.3,0.5c0,0,0,0,0,0.1
		v0.1l0.2,0.2l0.1,0.2l0.1,0c0.1,0.2,0.3,0.3,0.5,0.4c0.2,0.1,0.4,0.2,0.6,0.3l0.1,0.1c0.2,0.1,0.4,0.2,0.6,0.2h0.1
		c0.2,0,0.4,0.1,0.7,0.1h0.5l302.9-27.3c0.1,0,0.1,0,0.2,0h0.2c0.1,0,0.3-0.1,0.4-0.1h0.1c0.2-0.1,0.3-0.1,0.5-0.2l0.1-0.1
		c0.1-0.1,0.2-0.1,0.3-0.2l0.1-0.1l0.3-0.3l0.1-0.1c0.1-0.1,0.2-0.3,0.3-0.4c0,0,0.1-0.1,0.1-0.1l0.1-0.2l0-0.1l0.1-0.2
		c0-0.1,0.1-0.3,0.1-0.4v-0.1C443,209.7,443,209.5,443,209.3z M183.1,71.9l74.2,81.8c0.3,0.4,0.6,0.8,0.7,1.3c0.1,0.5,0.2,1,0.1,1.4
		c-0.1,0.5-0.2,0.9-0.5,1.4c-0.3,0.4-0.6,0.8-1,1c-35,21.7-73.9,45.7-107.9,66.6c-0.6,0.3-1.2,0.5-1.9,0.5c-0.7,0-1.3-0.2-1.8-0.6
		c-0.5-0.4-0.9-0.9-1.2-1.5c-0.2-0.6-0.3-1.3-0.1-1.9l33.7-148.4c0.1-0.6,0.4-1.1,0.9-1.6c0.4-0.4,1-0.8,1.6-0.9
		c0.6-0.2,1.2-0.1,1.8,0C182.1,71.1,182.6,71.4,183.1,71.9z M196.2,67.3L344.5,97c0.7,0.1,1.3,0.4,1.7,0.9c0.5,0.5,0.8,1.1,0.9,1.7
		c0.1,0.7,0,1.3-0.2,1.9c-0.3,0.6-0.7,1.1-1.3,1.5c-15.8,10.1-44.4,27.9-77.6,48.4c-0.7,0.4-1.4,0.6-2.2,0.5c-0.8-0.1-1.5-0.5-2-1.1
		l-70.7-78.1c-0.5-0.5-0.8-1.2-0.8-1.9c-0.1-0.7,0.1-1.4,0.4-2c0.3-0.6,0.9-1.1,1.5-1.4C194.8,67.3,195.5,67.2,196.2,67.3
		L196.2,67.3z M250.6,170.4l11.5-7.1c0.7-0.4,1.4-0.6,2.2-0.5c0.8,0.1,1.5,0.5,2,1.1l16,17.6c0.5,0.5,1.2,0.9,1.9,1.1l108.2,21
		c0.8,0.2,1.5,0.6,2,1.2c0.5,0.6,0.7,1.4,0.7,2.2c0,0.8-0.4,1.6-0.9,2.1c-0.6,0.6-1.3,0.9-2.1,1l-227.1,20.5
		c-0.7,0.1-1.5-0.1-2.1-0.5c-0.6-0.4-1.1-1-1.3-1.7c-0.2-0.7-0.2-1.5,0-2.2c0.3-0.7,0.7-1.3,1.4-1.7
		C184.5,211.2,217.7,190.7,250.6,170.4L250.6,170.4z M285.9,175.2l-12.8-14.1c-0.3-0.4-0.6-0.8-0.7-1.3c-0.1-0.5-0.2-1-0.1-1.4
		c0.1-0.5,0.2-0.9,0.5-1.4c0.3-0.4,0.6-0.8,1-1c21.9-13.6,40.1-24.9,54-33.6c11.1-6.9,19.6-12.3,25.5-16.1l4.4-2.8
		c0.7-0.5,1.6-0.6,2.4-0.5c0.8,0.2,1.6,0.6,2.1,1.3l65,93.2c0.4,0.5,0.6,1.2,0.6,1.8c0,0.7-0.2,1.3-0.5,1.9c-0.4,0.6-0.9,1-1.5,1.2
		s-1.3,0.3-1.9,0.2l-136.2-26.5C287,176.1,286.4,175.7,285.9,175.2L285.9,175.2z"/>
	<path style="clip-path:url(#SVGID_00000029019948638880352260000012284106866476820385_);fill:#FFFFFF;" d="M422.3,226.4
		c17.4,0,31.5-14.1,31.5-31.5c0-17.4-14.1-31.5-31.5-31.5c-17.4,0-31.5,14.1-31.5,31.5C390.8,212.3,404.9,226.4,422.3,226.4z"/>
	<path style="clip-path:url(#SVGID_00000029019948638880352260000012284106866476820385_);fill:#FFFFFF;" d="M185.8,75.2
		c15,0,27.2-12.2,27.2-27.2c0-15-12.2-27.2-27.2-27.2c-15,0-27.2,12.2-27.2,27.2C158.6,63,170.8,75.2,185.8,75.2z"/>
	
		<linearGradient id="SVGID_00000076568319653410296280000018081147825804599221_" gradientUnits="userSpaceOnUse" x1="359.4151" y1="130.5146" x2="446.9311" y2="221.3716" gradientTransform="matrix(1 0 0 -1 0 390)">
		<stop  offset="0.18" style="stop-color:#6669FB"/>
		<stop  offset="0.78" style="stop-color:#D8D9FE"/>
	</linearGradient>
	
		<path style="clip-path:url(#SVGID_00000029019948638880352260000012284106866476820385_);fill:url(#SVGID_00000076568319653410296280000018081147825804599221_);" d="
		M422,226.5c-6.3,0-12.5-1.9-17.8-5.4c-5.3-3.5-9.4-8.5-11.8-14.3c-2.4-5.8-3.1-12.3-1.8-18.5c1.2-6.2,4.3-11.9,8.7-16.4
		c4.5-4.5,10.2-7.5,16.4-8.8c6.2-1.2,12.6-0.6,18.5,1.8c5.8,2.4,10.8,6.5,14.3,11.8c3.5,5.3,5.4,11.4,5.4,17.8
		c0,8.5-3.4,16.6-9.4,22.6C438.6,223.2,430.4,226.5,422,226.5z M422,165c-5.8,0-11.6,1.7-16.4,5c-4.9,3.2-8.7,7.9-10.9,13.3
		c-2.2,5.4-2.8,11.3-1.7,17.1c1.1,5.7,4,11,8.1,15.1c4.1,4.1,9.4,6.9,15.1,8.1c5.7,1.1,11.7,0.6,17.1-1.7c5.4-2.2,10-6,13.3-10.9
		c3.2-4.9,5-10.6,5-16.4c0-7.8-3.1-15.4-8.7-20.9C437.3,168.1,429.8,165,422,165z"/>
	
		<linearGradient id="SVGID_00000115503015317130557430000011518196283600208768_" gradientUnits="userSpaceOnUse" x1="335.2039" y1="496.8351" x2="5300.2139" y2="5650.8862" gradientTransform="matrix(1 0 0 -1 0 390)">
		<stop  offset="0.18" style="stop-color:#6669FB"/>
		<stop  offset="0.78" style="stop-color:#D8D9FE"/>
	</linearGradient>
	
		<path style="clip-path:url(#SVGID_00000029019948638880352260000012284106866476820385_);fill:url(#SVGID_00000115503015317130557430000011518196283600208768_);" d="
		M185.7,76.2c-5.5,0-10.9-1.6-15.4-4.7c-4.6-3.1-8.1-7.4-10.2-12.5c-2.1-5.1-2.7-10.7-1.6-16.1c1.1-5.4,3.7-10.3,7.6-14.2
		s8.8-6.5,14.2-7.6c5.4-1.1,11-0.5,16.1,1.6c5.1,2.1,9.4,5.7,12.5,10.2c3.1,4.6,4.7,9.9,4.7,15.4c0,7.4-2.9,14.4-8.1,19.6
		C200.1,73.3,193,76.2,185.7,76.2z M185.7,22.7c-5.1,0-10.1,1.5-14.3,4.3c-4.2,2.8-7.5,6.8-9.5,11.5c-1.9,4.7-2.5,9.9-1.5,14.9
		c1,5,3.4,9.6,7,13.2c3.6,3.6,8.2,6,13.2,7c5,1,10.2,0.5,14.9-1.5c4.7-1.9,8.7-5.2,11.5-9.5c2.8-4.2,4.3-9.2,4.3-14.3
		c0-6.8-2.7-13.3-7.5-18.2C199,25.4,192.5,22.7,185.7,22.7z"/>
	<path style="clip-path:url(#SVGID_00000029019948638880352260000012284106866476820385_);fill:#554225;" d="M134.7,221.4
		L134.7,221.4C134.7,221.3,134.7,221.4,134.7,221.4z"/>
	<path style="clip-path:url(#SVGID_00000029019948638880352260000012284106866476820385_);fill:#1A5CC6;" d="M433.3,180.4H408v31.9
		h25.3V180.4z"/>
	<path style="clip-path:url(#SVGID_00000029019948638880352260000012284106866476820385_);fill:#DAC7C7;" d="M433.9,186.2
		c-0.8,2-2.6,3-4.2,2.3c-0.6-0.3-1-0.7-1.4-1.2c-0.3-0.6-0.4-1.2-0.5-1.8c0-0.6,0.1-1.2,0.3-1.8c0.7-2,2.6-3,4.2-2.2
		c0.6,0.3,1.1,0.8,1.4,1.3c0.3,0.5,0.4,1.1,0.4,1.7C434.2,185.1,434.1,185.7,433.9,186.2z"/>
	
		<path style="opacity:0.5;clip-path:url(#SVGID_00000029019948638880352260000012284106866476820385_);fill:#5E4A4A;enable-background:new    ;" d="
		M430,184.4c0.2-0.4,0.6-0.8,1-1c0.4-0.2,0.9-0.4,1.4-0.4c-2,1-2.1,2.3-2.1,2.3l1.7,0.1l-2.3,0.8C429.6,185.5,429.7,184.9,430,184.4
		z"/>
	
		<path style="opacity:0.5;clip-path:url(#SVGID_00000029019948638880352260000012284106866476820385_);fill:#5E4A4A;enable-background:new    ;" d="
		M433.9,186.2c-0.8,2-2.6,3-4.2,2.3c-0.6-0.3-1-0.7-1.4-1.2c0.1-0.1,0.3-0.2,0.4-0.1c0.2,0,0.3,0.1,0.4,0.2c0.2,0.3,0.6,0.6,1,0.7
		c0.4,0.1,0.8,0.1,1.2-0.1c1.2-0.5,2.3-1.6,2.4-2.6c0.2-0.8,0.1-1.7-0.1-2.6c0.3,0.6,0.4,1.1,0.4,1.7
		C434.2,185.1,434.1,185.7,433.9,186.2z"/>
	<path style="clip-path:url(#SVGID_00000029019948638880352260000012284106866476820385_);fill:#DAC7C7;" d="M411.3,189.7
		c1.8-0.3,3-2.3,2.7-4.6c-0.3-2.3-2.1-3.9-3.9-3.6c-1.8,0.3-3,2.3-2.7,4.6C407.7,188.3,409.5,189.9,411.3,189.7z"/>
	<path style="clip-path:url(#SVGID_00000029019948638880352260000012284106866476820385_);fill:#DAC7C7;" d="M426.2,192.8l0.3,11.8
		c0.9,0.3,1.7,0.6,2.6,0.9c1.2,0.4,2.4,0.7,3.7,1c0,4.6-1.7,9.1-4.8,12.6c-2.2,2.4-5,4.2-8.1,5.1c-3.5-0.9-6.5-3.1-8.4-6.1
		c-1.9-3.1-2.5-6.8-1.7-10.3c1.1-0.3,2.2-0.8,3.3-1.2l1.3-0.6c0.1-2.8,0.1-5.8,0.4-8.8c0.1-1.3,0.2-2.6,0.3-3.7L426.2,192.8z"/>
	<path style="clip-path:url(#SVGID_00000029019948638880352260000012284106866476820385_);fill:#BCA1A1;" d="M419.3,201.9
		c2.8,0.5,6.2-2,7-6.1l-0.2-1.3c-0.1-1,0-2,0.1-3l-10.1,1.3c-0.4,0.2-0.8,0.5-1.2,0.9c-1,1.4-0.3,3.3,0,4
		C415,197.9,416.4,201.4,419.3,201.9z"/>
	<path style="clip-path:url(#SVGID_00000029019948638880352260000012284106866476820385_);fill:#DAC7C7;" d="M411.7,173.1
		c-1.2,1.6-1.9,3.5-2.3,5.4c-0.3,1.6-0.3,3.1-0.1,4.7c0.4,4.8,0.5,7.2,1.6,9.6c1.1,2.2,2.7,4,4.8,5.3c0.9,0.6,1.8,1.1,2.9,1.3
		c3,0.5,5.4-1.6,6.5-2.4c1.7-1.5,3.1-3.5,3.9-5.7c1-2.5,1.5-5.2,1.5-7.9c0.2-5.4,0.3-8.6-1.9-11c-2.7-3-7.1-2.9-8.2-2.8
		C417.1,169.7,414.1,170.9,411.7,173.1z"/>
	<path style="clip-path:url(#SVGID_00000029019948638880352260000012284106866476820385_);fill:#30206B;" d="M399.9,214.3
		c1.2,1.4,8.7,9.9,21.3,10.2c14.2,0.4,22.6-10.1,23.5-11.2c-0.8-1.5-1.9-2.8-3.3-3.8c-0.4-0.3-1.4-1-6-2.5c-1.5-0.5-2.8-0.9-3.7-1.2
		c-1.3,4.1-3.2,7.9-5.8,11.3c-0.5,0.6-1,1.3-1.5,1.9c-0.5,0.6-1.2,1.1-1.9,1.5c-0.7,0.4-1.5,0.6-2.3,0.6c-0.8,0.1-1.6,0-2.4-0.3
		c-0.8-0.3-1.5-0.7-2.1-1.2c-0.3-0.2-0.6-0.5-0.8-0.9l-0.1-0.1c-1.3-1.7-3-4.9-5.3-11.3c-0.7,0.3-1.7,0.6-2.8,1.1
		c-2.4,1-3.5,1.5-4.7,2.5C401.2,211.9,400.4,213,399.9,214.3z"/>
	<path style="clip-path:url(#SVGID_00000029019948638880352260000012284106866476820385_);fill:#2B8BEC;" d="M416.6,165.3
		c-1.2-1.3-3.3-2.9-5.9-2.5c-2,0.3-3,2.7-3.5,3.8c-2.4,5.5,0.3,16.8-2.4,26.3c-0.8,2.3-0.9,4.8-0.5,7.3c0.5,2.6,1.9,5.2,2.5,5.1
		c0.2,0,0.2-0.3,0.6-1.3c0.4-1,0.9-1.7,1.2-1.7c0.3,0,0.5,0.3,0.9,2.8c-0.1-5.3,0.3-10.6,1.3-15.8c0.4-2,1-4.6,1.6-8.8
		c0.4-2.8,0.7-5.5,0.9-8.3c1,0.8,2.3,1.2,3.5,1.2c0.4,0,0.9-0.1,1.3-0.2c1.3,0.5,2.7,0.6,4,0.3c1.6-0.3,1.9-1,2.8-0.9
		c0.4,0.1,1.4,0.4,3.5,4.8c0.7,1.5,1.3,3.1,1.9,4.8l2.9-0.3c0.4-1.7,0.6-3.5,0.6-5.3c0-2.7-0.1-5.3-1.7-7.8
		c-2.4-3.7-6.8-4.5-7.9-4.7C421.5,163.6,418.9,164,416.6,165.3z"/>
	
		<path style="opacity:0.22;clip-path:url(#SVGID_00000029019948638880352260000012284106866476820385_);fill:#A6D0F5;enable-background:new    ;" d="
		M414.4,163.6c-1.1-0.7-2.4-1-3.7-0.8c-2,0.3-3,2.7-3.5,3.8c-0.1,0.2-0.1,0.4-0.3,0.6c0.8-0.8,1.7-1.6,2.6-2.3
		C411.1,164.1,412.7,163.6,414.4,163.6z"/>
	
		<path style="opacity:0.22;clip-path:url(#SVGID_00000029019948638880352260000012284106866476820385_);fill:#A6D0F5;enable-background:new    ;" d="
		M428,167.2c1.8,0.8,3.6,1.9,5.1,3.2c-0.2-0.6-0.5-1.2-0.9-1.8c-2.4-3.7-6.8-4.5-7.9-4.7c-2.6-0.3-5.2,0.1-7.5,1.4
		C420.6,165,424.4,165.6,428,167.2z"/>
	
		<path style="opacity:0.3;clip-path:url(#SVGID_00000029019948638880352260000012284106866476820385_);fill:#3E49AC;enable-background:new    ;" d="
		M416.8,173.3c0.4,0,0.9-0.1,1.3-0.2c1.3,0.5,2.7,0.6,4,0.3c1.6-0.3,1.9-1,2.8-0.9c0.4,0.1,1.4,0.4,3.5,4.8c0.7,1.5,1.3,3.1,1.9,4.8
		l1.6-0.2c-3.6-8.8-5.6-10.8-6.8-10.6c-0.6,0.1-0.9,0.8-1.9,1.3c-1.6,0.8-3.4,0.9-5,0.4c-0.2-2.6-0.5-5.3-0.6-8l-0.9,0.3l1,7.4
		c-2.2-2.9-3.6-3.5-4.6-3.4c-1.4,0.3-1.7,3.7-1.9,5.1c-0.9,8.3-2,16.6-3,24.9c-0.3,2.1-0.5,3.7-0.6,4.6v-0.1
		c0.5-1.1,0.9-1.7,1.2-1.7c0.3,0,0.5,0.3,0.9,2.8c-0.1-5.3,0.3-10.6,1.4-15.8c0.4-2,1-4.6,1.6-8.8c0.4-2.8,0.7-5.5,0.9-8.3
		C414.3,172.9,415.5,173.3,416.8,173.3z"/>
	<g style="opacity:0.5;clip-path:url(#SVGID_00000029019948638880352260000012284106866476820385_);">
		<path class="st20" d="M418.9,190.1c-0.6,0.1-1.3-0.1-1.8-0.5c-0.1-0.1-0.2-0.3-0.2-0.5c0.1-1.2,1.5-6.8,1.6-7.1
			c0-0.1,0.1-0.1,0.1-0.1c0.1,0,0.1,0,0.2,0c0.1,0,0.1,0.1,0.1,0.1c0,0.1,0.1,0.1,0,0.2c0,0.1-1.5,5.8-1.6,7c0,0.1,0,0.1,0.1,0.1
			c0.3,0.3,1.6,0.3,2.4,0.3c0.1,0,0.1,0,0.2,0.1c0,0,0.1,0.1,0.1,0.2c0,0.1-0.1,0.2-0.2,0.3H418.9z"/>
	</g>
	<path style="clip-path:url(#SVGID_00000029019948638880352260000012284106866476820385_);fill:#DB59BE;" d="M200.2,39.9
		c-0.8,5.4,0.3,9,1.5,11.2c1.5,2.7,3.9,5,3.3,7.8c-0.2,1-0.7,1.9-1.4,2.6c0-0.9,0-1.8-0.3-2.6c-0.5-1.8-1.5-3.4-2.8-4.6
		c0,0,3.3,4.1,0,7.1c-3.3,3.1-3.8,2.2-3.8,2.2c1.2-4.1,1-5.5,0.3-5.9c-1.3-0.9-4.3,2.6-6.2,1.7c-1.3-0.6-1.4-3.3-1.2-5.8
		c1.1-4,2.1-8,3.2-12.1L200.2,39.9z"/>
	
		<path style="opacity:0.25;clip-path:url(#SVGID_00000029019948638880352260000012284106866476820385_);fill:#341280;enable-background:new    ;" d="
		M189.6,53.6c1.1-4,2.1-8,3.2-12.1l3.6-0.8c-0.8,5.4,0.3,8.8,1.5,11.1c1.5,2.7,3.9,5,3.3,7.8c-0.2,0.7-0.5,1.4-0.9,2l-0.6,0.5
		c0.1-0.8,0-1.7-0.3-2.5c-0.5-1.8-1.5-3.4-2.8-4.6c0,0,2.8,3.5,0.6,6.4c0.5-2.4,0.3-3.4-0.3-3.7c-0.8-0.5-2.1,0.4-3.4,1.1
		c-0.1-0.2-0.2-0.3-0.4-0.4c-0.6-0.4-1.6,0.1-2.7,0.8C189.5,58.4,189.4,55.9,189.6,53.6z"/>
	<path style="clip-path:url(#SVGID_00000029019948638880352260000012284106866476820385_);fill:#DDEBF9;" d="M198.1,45.3
		c2.7,0,4.9-2.9,4.9-6.5c0-3.6-2.2-6.5-4.9-6.5c-2.7,0-4.9,2.9-4.9,6.5C193.2,42.4,195.4,45.3,198.1,45.3z"/>
	<path style="clip-path:url(#SVGID_00000029019948638880352260000012284106866476820385_);fill:#B3D1E8;" d="M196.5,44.5
		c2.4,0,4.3-2.6,4.3-5.8c0-3.2-1.9-5.8-4.3-5.8s-4.3,2.6-4.3,5.8C192.1,41.9,194.1,44.5,196.5,44.5z"/>
	<path style="clip-path:url(#SVGID_00000029019948638880352260000012284106866476820385_);fill:#DDEBF9;" d="M195,33.2
		c0.3-0.1,0.6-0.2,0.9-0.2c0.3,0,0.6,0.1,0.9,0.2c1.7,0.8,2.8,3,2.8,5.6c0,2.6-1.2,4.8-2.8,5.6c-0.3,0.1-0.6,0.2-0.9,0.2
		c-0.3,0-0.6-0.1-0.9-0.2c-1.7-0.8-2.8-3-2.8-5.6C192.1,36.2,193.3,34,195,33.2z"/>
	<path style="clip-path:url(#SVGID_00000029019948638880352260000012284106866476820385_);fill:#FFD6E2;" d="M190.1,68.7
		c-1.8,0.7-4.6,0.4-7.6-0.9c-2.5-1.1-4.7-2.6-6.6-4.4l1.6-8.4l1.1-5.6l1.1-5.8c1.9-5.5,12.7-2.6,12.2,3.4l-0.1,4.2l-0.1,3.8
		l-0.1,1.9l-0.2,6.2C192.8,66.1,192,68,190.1,68.7z"/>
	
		<path style="opacity:0.5;clip-path:url(#SVGID_00000029019948638880352260000012284106866476820385_);fill:#F57FA0;enable-background:new    ;" d="
		M191.6,52l-0.1,3.8c-1.4-0.5-2.6-1.3-3.5-2.4c-0.9-1.1-1.5-2.5-1.7-3.9L191.6,52z"/>
	<path style="clip-path:url(#SVGID_00000029019948638880352260000012284106866476820385_);fill:#FFD6E2;" d="M198.2,49.2
		c-1.4,3.9-6.6,3.3-9.2,1.9c-2.6-1.4-9.8-6.5-11.4-15.3c-2-11.1,19.1-15.1,20.7-4.6c0,0,0.1,0.5,0.1,1.2c0.1,0.8,0.2,1.9,0.2,3.2
		C198.9,40.1,199.1,46.7,198.2,49.2z"/>
	
		<path style="opacity:0.5;clip-path:url(#SVGID_00000029019948638880352260000012284106866476820385_);fill:none;stroke:#F57FA0;stroke-width:0.75;stroke-linecap:round;stroke-linejoin:round;enable-background:new    ;" d="
		M194.7,35.9c-0.1,0.3,1.4,6.4,1.6,7.2c0.1,0.8-1.7,0.6-1.7,0.6"/>
	
		<linearGradient id="SVGID_00000057855894649249658840000000767656152973219719_" gradientUnits="userSpaceOnUse" x1="206.0946" y1="357.7386" x2="162.0636" y2="291.5732" gradientTransform="matrix(1 0 0 -1 0 390)">
		<stop  offset="0.27" style="stop-color:#8134BC"/>
		<stop  offset="1" style="stop-color:#1A084B"/>
	</linearGradient>
	
		<path style="clip-path:url(#SVGID_00000029019948638880352260000012284106866476820385_);fill:url(#SVGID_00000057855894649249658840000000767656152973219719_);" d="
		M187.1,74.4c-4.5,0.3-8.9-0.7-12.9-2.7c-4-2-7.4-5.1-9.8-8.9c0.8-1.4,1.9-2.7,3.2-3.7c0.7-0.6,1.5-1,2.3-1.4c1.1-0.5,2.2-1,3.4-1.3
		c2.1-0.6,4.2-0.9,6.4-0.9c1.2,1.5,2.6,2.8,4.1,4c1.7,1.3,4.6,3.5,6.1,2.6c0.5-0.3,0.7-1,1.1-2.3c0.3-1,0.4-2,0.4-3.1
		c1.6,0.1,3.1,0.3,4.7,0.6c2,0.3,3.9,0.9,5.7,1.7c2,0.9,3.8,2.2,5.3,3.8c-1.1,1.8-2.5,3.4-4,4.8C198.6,71.7,193,74,187.1,74.4z"/>
	
		<path style="opacity:0.15;clip-path:url(#SVGID_00000029019948638880352260000012284106866476820385_);fill:#341280;enable-background:new    ;" d="
		M164.4,62.8c0.6-1,1.3-1.9,2.1-2.7c0.3-0.3,0.7-0.6,1-0.9c1.2,0.5,2.4,1.2,3.5,1.9c2.4,1.3,4.5,3.1,6.3,5.1c1.8,2.3,3.3,5,4.2,7.8
		c-3.5-0.6-6.8-1.9-9.8-3.8C168.9,68.4,166.3,65.8,164.4,62.8L164.4,62.8z"/>
	
		<linearGradient id="SVGID_00000163759649145832256380000016875481784436324486_" gradientUnits="userSpaceOnUse" x1="202.2752" y1="375.3429" x2="166.2822" y2="328.329" gradientTransform="matrix(1 0 0 -1 0 390)">
		<stop  offset="0" style="stop-color:#FFA1EF"/>
		<stop  offset="8.000000e-02" style="stop-color:#FC99E9"/>
		<stop  offset="0.47" style="stop-color:#EA77D2"/>
		<stop  offset="0.79" style="stop-color:#DF61C3"/>
		<stop  offset="1" style="stop-color:#DB59BE"/>
	</linearGradient>
	
		<path style="clip-path:url(#SVGID_00000029019948638880352260000012284106866476820385_);fill:url(#SVGID_00000163759649145832256380000016875481784436324486_);" d="
		M198.4,33.5c-0.1-1.3-0.5-2.5-1.2-3.6c-0.1-0.2-0.3-0.4-0.6-0.5c-0.2-0.1-0.5-0.1-0.7,0l-1.3,0.3c-2.3,0.5-4.8,0.5-7.1,0.1
		c-0.3,0-0.7,0-0.9,0.2s-0.5,0.4-0.6,0.7c-0.9,2.4-2.5,4.4-4.7,5.8l-0.5,9.1c0.8,2.3,0.9,4.7,0.4,7c-0.6,2.7-2,3.9-1.8,6.2
		c0.2,1.8,1.1,3.6,2.4,4.8c-1.5,0-3-0.4-4.3-1.1c-1.3-0.7-2.4-1.7-3.2-3c-0.3,0.5-0.5,1-0.5,1.6c0,0.5,0.1,1,0.3,1.4
		c0.2,0.4,0.5,0.8,0.9,1.1c-0.6-0.1-4.3-0.5-6.2-3.5c-0.3-0.5-1.3-2.2-0.9-5.6c0.6-4.9,3.3-6.4,5.3-10.5c3.6-7.4-1.2-10.8,2.6-16.9
		c2.6-4.2,7.3-6.7,11.3-6.7c1.2,0,3.9,0,5.6,1.7c0.6,0.4,1.2,0.8,1.7,1.2c0.7,0.1,1.4,0.3,2,0.6c0.9,0.6,1.7,1.4,2.1,2.4
		c0.7,1,1.1,2.2,1.2,3.5C199.7,31.2,199.3,32.5,198.4,33.5z"/>
	<g style="opacity:0.25;clip-path:url(#SVGID_00000029019948638880352260000012284106866476820385_);">
		<path class="st32" d="M175.1,60.6c-0.3-0.3-0.6-0.7-0.8-1.1c-1-2,0.2-4.3,0.3-4.5c0.3,1.2,1.3,5.1,4.7,6.8
			c0.4,0.2,0.9,0.4,1.4,0.5c0.3,0.5,0.7,0.9,1.1,1.3c-1.5,0-3-0.4-4.3-1.2C176.5,61.9,175.7,61.3,175.1,60.6z"/>
		<path class="st32" d="M188.8,28.9c2.4-0.5,6.2,0.1,7.1-0.1l1.3-0.3c0.2-0.1,0.5-0.1,0.8,0s0.4,0.3,0.6,0.5c0.3,0.5,0.6,1,0.8,1.6
			c0.1,0.3,0.2,0.6,0.3,0.9c-0.2,0.8-0.6,1.5-1.1,2.1c-0.1-1.3-0.5-2.5-1.2-3.6c-0.1-0.2-0.3-0.4-0.6-0.5c-0.2-0.1-0.5-0.1-0.8,0
			c-0.3,0.1-0.6,0.2-0.9,0.3l-0.4,0.1c-3.7,0.8-5.4,0.4-5.4,0.4c-0.6-0.2-1.2-0.3-1.8-0.3c-0.4,0-0.7,0.1-1.1,0.2
			C187.1,29.4,187.9,29.1,188.8,28.9z"/>
		<path class="st32" d="M168,54.5c0.6-4.9,3.3-6.4,5.3-10.5c3.6-7.4-1.2-10.8,2.6-16.9c1.2-1.9,2.7-3.4,4.6-4.6
			c-1.3,1-2.5,2.3-3.3,3.7c-3.8,6.1,1.1,9.5-2.6,16.9c-2,4.1-4.7,5.6-5.3,10.5c-0.4,3.4,0.5,5.1,0.9,5.6c0.9,1.4,2.2,2.4,3.8,2.9
			c0.2,0.6,0.6,1.1,1.1,1.5c-0.6-0.1-4.3-0.5-6.2-3.5C168.5,59.6,167.5,57.9,168,54.5z"/>
	</g>
	<path style="clip-path:url(#SVGID_00000029019948638880352260000012284106866476820385_);fill:#DDEBF9;" d="M193.4,23
		c-2.1-0.6-4.4-0.6-6.5-0.1c-2.1,0.5-4.1,1.6-5.7,3.1c-1.3,1.3-2.2,2.9-2.8,4.6s-0.8,3.5-0.7,5.4l-1.4-0.5
		c-0.1-0.5-1.6-6.5,2.6-11.2c1.6-1.7,3.6-2.9,5.9-3.5c2.3-0.6,4.6-0.5,6.8,0.3c1.4,0.5,2.6,1.4,3.6,2.4L193.4,23z"/>
	<path style="clip-path:url(#SVGID_00000029019948638880352260000012284106866476820385_);fill:#DDEBF9;" d="M177.1,46.3
		c2.7,0,4.9-2.9,4.9-6.5c0-3.6-2.2-6.5-4.9-6.5c-2.7,0-4.9,2.9-4.9,6.5C172.2,43.4,174.4,46.3,177.1,46.3z"/>
	<path style="clip-path:url(#SVGID_00000029019948638880352260000012284106866476820385_);fill:#B3D1E8;" d="M175.5,45.5
		c2.4,0,4.3-2.6,4.3-5.8s-1.9-5.8-4.3-5.8c-2.4,0-4.3,2.6-4.3,5.8S173.1,45.5,175.5,45.5z"/>
	<path style="clip-path:url(#SVGID_00000029019948638880352260000012284106866476820385_);fill:#DDEBF9;" d="M174,34.1
		c0.3-0.1,0.6-0.2,0.9-0.2c0.3,0,0.6,0.1,0.9,0.2c1.7,0.8,2.8,3,2.8,5.6c0,2.6-1.2,4.8-2.8,5.6c-0.3,0.1-0.6,0.2-0.9,0.2
		c-0.3,0-0.6-0.1-0.9-0.2c-1.7-0.8-2.8-3-2.8-5.6C171.2,37.1,172.4,34.9,174,34.1z"/>
	<path style="clip-path:url(#SVGID_00000029019948638880352260000012284106866476820385_);fill:#EDC0C8;" d="M321.2,178
		c-0.1,0.3,3,31.2,3,31.2s-24.8,8.7-24.8,8.4s-13.3-5.6-13.3-5.6c-0.2-8.9-0.4-17.7-0.6-26.6l7.4-4.8L321.2,178z"/>
	
		<linearGradient id="SVGID_00000093174643423081848670000004554806690762994866_" gradientUnits="userSpaceOnUse" x1="166.4812" y1="215.2132" x2="421.2562" y2="-13.4378" gradientTransform="matrix(1 0 0 -1 0 390)">
		<stop  offset="7.000000e-02" style="stop-color:#9962FB"/>
		<stop  offset="0.27" style="stop-color:#A161F3"/>
		<stop  offset="0.5" style="stop-color:#B860DE"/>
		<stop  offset="0.75" style="stop-color:#DA5DBD"/>
	</linearGradient>
	
		<path style="clip-path:url(#SVGID_00000029019948638880352260000012284106866476820385_);fill:url(#SVGID_00000093174643423081848670000004554806690762994866_);" d="
		M410.4,294.8c0-2-1-3.8-2.7-6.6c-1-1.8-3.3-4.4-7.8-9.6c-1.9-2-3.5-4.3-4.5-6.9c-0.3-0.8-0.6-1.7-0.8-2.6c-1.8-7-7.7-9.3-10.6-16.6
		c-0.5-1.4,0-0.4-1.3-6c-3-12.5-5.8-17.8-8.7-21.3c-0.1-0.1-0.5-0.6-1-1.2c-2.7-2.9-5.8-5.5-9.1-7.7c-2.3-1.4-4.7-2.7-7.2-3.7
		c-3.4-1.6-8.2-4-14.1-7.3c-0.3-0.2-0.5-0.5-0.6-0.8l-1.6-5.3c-0.1-0.3-0.3-0.6-0.6-0.8c-5.1-3.2-9.7-7.1-13.7-11.6l-4.8,1.9
		l0.3,12.5c0,0.2-0.1,0.5-0.2,0.7c-0.1,0.2-0.3,0.4-0.5,0.5c-3,1.9-6.1,4-9.3,6.1c-2.6,1.9-5.2,3.7-7.6,5.6
		c-0.3,0.2-0.6,0.3-0.9,0.3c-0.3,0-0.6-0.2-0.9-0.4c-1.8-1.9-3.8-3.6-6-5c-2.6-1.8-5.5-3.2-8.5-4.3c-0.3-0.1-0.5-0.3-0.6-0.5
		c-0.2-0.2-0.2-0.5-0.2-0.8v-2.2c0-4.2,0.2-5.6,0.1-8.1c-0.1-1.6-0.3-3.2-0.5-4.8l-0.2-0.3c-0.4-0.7-0.8-1.4-1.3-2.1
		c-0.1-0.2-0.3-0.4-0.6-0.5s-0.5-0.1-0.7-0.1c-0.8,0.1-1.7,0.3-2.5,0.5c-3.3,0.9-8.4,3.2-8.9,6c-0.1,0.9-0.3,1.9-0.6,2.8
		c-0.2,0.4-0.3,0.9-0.5,1.3c-0.8,1.3-1.7,2.5-2.7,3.7c-1.6,1.9-3.1,1.2-4.2,2.8c-0.2,0.4-0.4,0.8-0.6,1.2c-0.1,0.2-0.1,0.4-0.3,0.5
		c-0.1,0.1-0.3,0.3-0.5,0.3c-6.2,2.6-11.2,4.4-14.7,5.5c-4.3,1.4-6.3,1.8-8.9,3.7c-3.5,2.5-4.4,4.9-7.5,9.3
		c-3.3,4.7-4.6,5.1-9.4,10.6c-12.6,14.4-10.9,19.2-19.6,24.8c-3.9,2.6-4.4,1.6-11.8,5.8c-4.7,2.6-9.1,5.6-13.3,8.8
		c-0.1,0.1-0.1,0.1-0.2,0.1c-3.8,2-7.8,3.7-11.8,5.2c-2.9,1-5.5,1.8-7.1,4.3c-0.8,1.3-1.2,2.7-1.3,4.2c0,0.2-0.1,0.4-0.2,0.6
		c-0.1,0.2-0.3,0.4-0.5,0.5l-0.3,0.2c-0.2,0.1-0.3,0.2-0.4,0.4c-0.1,0.2-0.2,0.4-0.2,0.6c0,0.2,0,0.4,0.1,0.6
		c0.1,0.2,0.2,0.4,0.3,0.5c2.7,2.8,5.1,5.8,7.3,8.9c3.1,4.4,3.6,6.4,3.8,8.1c0.1,1.2,0.1,2.4-0.1,3.5c-0.1,0.4,0,0.9,0.1,1.3
		c0.1,0.4,0.4,0.8,0.7,1.1c0.3,0.3,0.7,0.5,1.1,0.6c0.4,0.1,0.9,0.1,1.3,0l6.3-1.8c0.3-0.1,0.6-0.1,0.9,0.1c0.4,0.2,0.9,0.4,1.6,0.5
		c5.3,1.5,9.8-0.2,14.7-1.8c14.7-4.9,18.1-4.2,22-8.9c0.8-1.1,1.6-2.2,2.2-3.4c0.1-0.2,0.3-0.4,0.5-0.6c0.2-0.1,0.5-0.2,0.7-0.2
		c6.2,0.1,12.3-1.8,17.3-5.5c0.2-0.1,0.4-0.2,0.6-0.2c0.2,0,0.4,0,0.6,0.1c0.2,0.1,0.4,0.2,0.5,0.4c0.1,0.2,0.2,0.4,0.3,0.6
		c0.8,3.3,1.3,6.6,1.5,9.9c0.6,9.3-1.3,13.5-0.4,22.1c0.5,4.4,1.6,8.6,3.2,12.7l4.7,4.7c21.4,9.1,44.8,12.3,67.9,9.4h0.2l42.2-10.4
		c0.2-0.1,0.5-0.2,0.6-0.4c0.2-0.2,0.3-0.4,0.4-0.6c0.6-2.7-0.1-5.5,0.4-8.2c0.6-2.8,0.7-5.7,0.5-8.5c-0.2-2-0.7-4-1.4-5.9
		c-1.8-5.8-2.2-10.7-2.9-17c-0.3-3-0.4-6-0.4-9c0-2,0.1-3.8,0.2-5.5c0-0.3,0.1-0.6,0.3-0.8c0.2-0.2,0.5-0.4,0.7-0.4
		c0.3-0.1,0.6,0,0.9,0.1c0.3,0.1,0.5,0.3,0.6,0.6c1.9,3.9,3.3,5,4.3,4.9c0.4-0.1,0.9-0.3,1.4-0.1c1.1,0.5,0.3,2.6,1.4,4.5
		c0.7,1.1,1.5,1.3,2.9,2.2c2.6,1.7,2.8,3.1,6.1,7.1c1.4,1.8,3,3.6,4.7,5.1C386.6,315.3,410.4,304.6,410.4,294.8z"/>
	
		<path style="opacity:0.5;clip-path:url(#SVGID_00000029019948638880352260000012284106866476820385_);fill:#412168;enable-background:new    ;" d="
		M397,297.4c0,0-16.8,4.2-14,13.3l12.2-5l2-8"/>
	
		<path style="opacity:0.5;clip-path:url(#SVGID_00000029019948638880352260000012284106866476820385_);fill:#412168;enable-background:new    ;" d="
		M358.6,317.6c-1.8-5.8-2.2-10.7-2.9-17c-0.3-3-0.4-6-0.4-9c0-3.6,0.2-7.3,0.6-10.9c0.9,1.6,2.5,4.7,4.6,8.7c0.7,0.8,1.3,1,1.8,1
		c0.5-0.1,0.9-0.3,1.4-0.1c1.1,0.5,0.3,2.6,1.4,4.5c0.7,1.1,1.5,1.3,2.9,2.2c2.6,1.7,2.8,3.1,6.1,7.1c1.4,1.8,3,3.6,4.7,5.1
		c1,0.8,2.3,1.3,3.5,1.5c-1.3-1.3-6.4-3.4-8.2-8.3c-0.3-1.4-0.9-2.7-1.6-3.9c-1.6-2.6-3-2.4-3.8-4c-1.7-3.5,2.6-8.5,1.5-9.2
		c-1-0.6-3.2,2.3-4.2,1.7c-1.6-1,1.5-7.7,0.3-8.4c-1.3-0.7-5.2,5.2-6.6,4.5c-0.6-0.3-0.5-1.8-0.3-2.9c0,0-1.2-16.8-1.8-19.7
		c-0.6-2.8-2.4-7.8-2.4-7.8l-1.4-8.8c-0.4,3.4-0.6,6.7-0.6,10.1c0.2,3.3,0.7,3.4,1.1,7.7c0.2,2.2,0.2,5,0.3,10.6c0,3.2,0,4.7,0,5.7
		c-0.2,4.6-0.9,6.1-1.1,9.5c-0.2,2.5,0,4.7,0.4,8.9c0.6,6.3,1.1,11.3,2.9,17c0.7,1.9,1.1,3.9,1.4,5.9c0.2,2.9,0.1,5.7-0.5,8.5
		c-0.5,3.1-1.3,6.1-2.4,9L314,347.7c-20,1.4-41.4-0.1-61.4-3.5c1.9,0.7,3.8,1.4,6,2.1l0.2,0.1c1,0.3,2.1,0.7,3.2,1l0.1,0
		c1,0.3,2.1,0.6,3.1,0.9l0.4,0.1c1.1,0.3,2.2,0.6,3.3,0.9l0.6,0.1c1,0.2,2.1,0.5,3.2,0.7l0.4,0.1c1.1,0.2,2.3,0.5,3.5,0.7l0.8,0.1
		c1.2,0.2,2.5,0.4,3.7,0.6c1.3,0.2,2.4,0.3,3.6,0.5c8.9,0.6,17.8,0.6,26.7,0.2l2.2-0.2h0.2l2.1-0.2l43-10.7c1.1-2.9,0.1-6,0.6-9.1
		c0.6-2.8,0.7-5.7,0.5-8.5C359.8,321.5,359.3,319.5,358.6,317.6z"/>
	
		<path style="opacity:0.5;clip-path:url(#SVGID_00000029019948638880352260000012284106866476820385_);fill:#412168;enable-background:new    ;" d="
		M303.4,214.4c-2-2.2-4.3-4.2-6.8-5.9c-2.7-1.8-5.6-3.3-8.7-4.3l-0.6,0.1v-0.3h-0.1v-3.2c0-4.2,0.2-5.6,0.1-8.1
		c-0.1-1.6-0.2-3.1-0.5-4.6l-0.1-0.2c-0.5-0.9-1.1-1.8-1.7-2.7l-3.4,0.6c0,1.4,0,3.3,0.1,5.7c0.4,6.3,0.4,11.6,2.4,14.8
		C289.3,214.9,302.7,214.4,303.4,214.4z"/>
	
		<path style="opacity:0.5;clip-path:url(#SVGID_00000029019948638880352260000012284106866476820385_);fill:#412168;enable-background:new    ;" d="
		M321.8,201.9c-3.2,2-6.5,4.2-9.9,6.5l-0.9,0.6c9.4-3.3,15.9-5.5,17.1-5.9c0.1,0,0.4-0.1,0.5-0.3c0.3-0.8-3.1-2.6-3.9-5
		c-0.5-1.7-0.2-8.1,0.2-12.8c-0.6-0.7-1.2-1.5-1.7-2.2l-1.2,1.5l-0.5,0.9c0,0.4,0,0.8-0.1,1.1L321.8,201.9z"/>
	
		<path style="opacity:0.5;clip-path:url(#SVGID_00000029019948638880352260000012284106866476820385_);fill:#412168;enable-background:new    ;" d="
		M334.3,214.4c3.1-2.1,5.9-4.5,8.5-7.2l0.3-1.8c-0.3-0.1-0.5-0.3-0.8-0.5c-0.6-2.1-1.3-4.2-1.9-6.3l-0.8-0.5c0,1-0.2,2-0.6,3
		c-0.6,1.6-1.4,2.5-2.6,4.1c-1.6,2.1-3,4.3-4.3,6.6c-1.4,2.1-6.2,6.3-27.4,13.2C315.4,224,325.5,220.3,334.3,214.4z"/>
	
		<path style="opacity:0.5;clip-path:url(#SVGID_00000029019948638880352260000012284106866476820385_);fill:#412168;enable-background:new    ;" d="
		M292.6,220.2c1.7,0.9,1.4,4.3,1.4,4.3c0.2-0.8,0.4-1.7,0.5-2.6c0.2-1.4,9-6.8,9-6.8l-14.4,3.6C290.3,219.2,291.4,219.7,292.6,220.2
		z"/>
	
		<path style="opacity:0.5;clip-path:url(#SVGID_00000029019948638880352260000012284106866476820385_);fill:#412168;enable-background:new    ;" d="
		M263.2,213.8c3.8,2.5,7.9,4.5,12.2,5.8c3.5,1.1,7.1,1.9,10.8,2.4c1.8,0.3,3.3,0.5,4.4,0.6c-1.1-0.5-2.7-1.2-4.7-2.1
		c-4.5-1.8-5.7-1.9-9.3-3.4c-4.2-1.7-6.3-2.6-8.4-4.6c-1.9-1.8-3.3-3.9-4.3-6.3c0-1.1,0.1-2.2,0.4-3.3c-1.5,2.3-2.1,5.1-1.8,7.9
		c-2,0.9-4,1.9-5.7,2.7L263.2,213.8z"/>
	
		<path style="opacity:0.5;clip-path:url(#SVGID_00000029019948638880352260000012284106866476820385_);fill:#412168;enable-background:new    ;" d="
		M329.5,309c3.6,3.6,5,7.4,8.1,11.3c0.7,1.1,1.1,2.4,1.3,3.8c0,0,0.7-5.8,0.6-6.7c-0.1-0.9-6.3-8.4-6.3-8.4s-9.5-9.8-9.3-12.7
		C323.9,295.5,323,302.4,329.5,309z"/>
	
		<path style="clip-path:url(#SVGID_00000029019948638880352260000012284106866476820385_);fill:none;stroke:#C2BFC7;stroke-width:2;stroke-linecap:round;stroke-linejoin:round;" d="
		M315.2,215.6c0.8,1.1,1.6,2.2,2.2,3.4c6.4,11.4,1.2,22.3,1,34.4c-0.1,8.9,1.1,17.8,3.5,26.3"/>
	
		<path style="clip-path:url(#SVGID_00000029019948638880352260000012284106866476820385_);fill:none;stroke:#C2BFC7;stroke-width:2;stroke-linecap:round;stroke-linejoin:round;" d="
		M288.8,214.8c-2.4,1.6-4.1,3.9-5,6.6c-2,6.8,1.7,11.7,3.1,21.8c0.7,4.7,0.2,9.6-1.4,14.1"/>
	
		<path style="clip-path:url(#SVGID_00000029019948638880352260000012284106866476820385_);fill:none;stroke:#BF9AD8;stroke-linecap:round;stroke-linejoin:round;" d="
		M272.4,296.2c0.7-0.1,51.1,0,51.1,0s-0.7,6.8,4.6,11.4c5.3,4.6,9.6,12.7,9.9,14.3c0.2,1.5,0.3,2.9,0.2,4.4"/>
	
		<path style="clip-path:url(#SVGID_00000029019948638880352260000012284106866476820385_);fill:none;stroke:#BF9AD8;stroke-linecap:round;stroke-linejoin:round;" d="
		M268.6,300.3c0,0-2.2,8.2-3.7,10c-1.5,1.8-8.6,9.1-9.8,10.8c-1.3,1.8-2.6,1.6-2.7,2.8"/>
	
		<path style="clip-path:url(#SVGID_00000029019948638880352260000012284106866476820385_);fill:none;stroke:#BF9AD8;stroke-width:0.5;stroke-linecap:round;stroke-linejoin:round;" d="
		M354.3,236c-0.1,0.6-1,9.9-1.3,17.2c-0.2,5.7,0.8,7.3,1.5,11.5c0.2,1.4,0.4,2.9,0.5,4.3c0.5,6.7,0.4,19.6,0.4,20.8"/>
	
		<path style="clip-path:url(#SVGID_00000029019948638880352260000012284106866476820385_);fill:none;stroke:#BF9AD8;stroke-width:0.5;stroke-linecap:round;stroke-linejoin:round;" d="
		M358,261.2c0.3,1.2,0.2,2.5-0.1,3.8c-0.4,1.2-0.9,2.3-1.4,3.4c-0.5,1.3-0.9,2.7-1.1,4.2"/>
	
		<path style="clip-path:url(#SVGID_00000029019948638880352260000012284106866476820385_);fill:none;stroke:#BF9AD8;stroke-width:0.5;stroke-linecap:round;stroke-linejoin:round;" d="
		M321.9,202.2c-1.4,0.8-11,6.4-17,10.9c-3.1,2.4-7.8,6.5-8.9,7.2c-0.4,0.2-0.7,0.5-1,0.9c-0.2,0.3-0.5,0.5-0.6,0.9
		c-0.4,0.8-0.6,1.7-0.5,2.6"/>
	<path style="clip-path:url(#SVGID_00000029019948638880352260000012284106866476820385_);fill:#AF8C94;" d="M287.3,189.1
		c-0.2,0.6,0,7.7,0,7.7s20.8,20.6,34.3-1.9L287.3,189.1z"/>
	<g style="opacity:0.5;clip-path:url(#SVGID_00000029019948638880352260000012284106866476820385_);">
		<path class="st40" d="M386,256.1c-0.7-1.1-1.3-2.3-1.8-3.6c-0.5-1.4,0-0.4-1.3-6c-0.8-3.3-1.6-6.1-2.3-8.5
			c0.1,7.5,0.4,20.3,1.9,19.4C384.4,256.2,383.2,252.4,386,256.1z"/>
		<path class="st40" d="M393.2,273.2l3,0.2c-0.3-0.6-0.5-1.1-0.8-1.7c-0.3-0.8-0.6-1.7-0.8-2.6c0-0.2-0.1-0.3-0.2-0.5
			c-0.2,0.4-0.5,1-1,1.7C391.4,273.8,393.2,273.2,393.2,273.2z"/>
	</g>
	
		<path style="opacity:0.4;clip-path:url(#SVGID_00000029019948638880352260000012284106866476820385_);fill:#412168;enable-background:new    ;" d="
		M237.5,255.9c-0.5-3.8-3.5-8-3.5-8l-0.3,8c-0.3,1.4-0.6,2.8-0.8,4.2c-0.5,3.1-0.5,6.3-0.1,9.4c0.5,2.7,1,3.2,0.6,4.3
		c-0.5,1.1-1.6,1.6-5.5,3c-4.3,1.5-6.4,2.2-7.2,2.2c-3.8-0.3-6.4-3.5-7.5-5c4.6,7.1,4.6,11.1,3.6,13.4c-1,2.2-1.8,4.4-2.4,6.7
		c-0.6,2.2-0.5,2.9-0.7,3.8c-1.7,6.3-15.2,8.9-30.3,11.7c-1.8,0.3-3.3,0.6-4.3,0.8c0.5-1.3,4.4-12.2-1.8-21.5
		c-2.1-3.1-4.9-5.6-8.3-7.3l-11.3,5.8c-0.2,0.1-0.4,0.3-0.5,0.5c-0.1,0.2-0.2,0.4-0.2,0.7c0,0.2,0.1,0.5,0.2,0.7
		c0.1,0.2,0.3,0.4,0.5,0.5c2.1,1.3,6.4,6.1,9.5,10.7c0.4,0.6,4.3,6.5,2.1,11.4c-0.2,0.5-0.5,0.9-0.8,1.3c0.2,0.2,0.4,0.3,0.6,0.4
		c0.4,0.2,0.8,0.2,1.2,0.2l7.2-2.1c0.6,0.3,1.3,0.5,2,0.7c5.3,1.5,9.8-0.2,14.7-1.8c14.6-4.8,18-4.1,21.9-8.8c1-1.3,1.9-2.7,2.6-4.2
		c7.1,0.3,14-2,19.5-6.5c-0.1-0.8-0.3-1.7-0.4-2.8c-0.7-7.1,0.5-9.9,0.9-17.3C238.9,265.9,238.2,261.6,237.5,255.9z"/>
	
		<path style="opacity:0.5;clip-path:url(#SVGID_00000029019948638880352260000012284106866476820385_);fill:#412168;enable-background:new    ;" d="
		M213.7,248.6c-0.5-0.3-1-0.5-1.5-0.7c-2.6,4.3-4.3,7.2-9,10.2c-3.9,2.6-4.4,1.6-11.8,5.8c-0.6,0.4-1.3,0.7-1.9,1.1
		c0.6,0,1.3-0.1,1.9-0.2c3.4-0.6,4.1-1.9,5.9-2.2c3.7-0.7,5.4,4,11.8,4.6c1.1,0.1,2,0.1,2.3-0.4c0.6-1-1.6-2.6-2.6-5.5
		c-0.9-2.3-1.3-6.2,0.5-7.7c2.6-2,9.5,1.2,10.7,1.9C224.9,258.5,217.3,250.6,213.7,248.6z"/>
	
		<path style="clip-path:url(#SVGID_00000029019948638880352260000012284106866476820385_);fill:none;stroke:#BF9AD8;stroke-linecap:round;stroke-linejoin:round;" d="
		M233.4,247c1.1,0.7,2.1,1.6,2.8,2.7s1.1,2.4,1.1,3.7c0.3,4.4,2.3,13.8,1.6,18.3c-0.8,4.5-2.6,12.2-0.7,19.3"/>
	
		<path style="clip-path:url(#SVGID_00000029019948638880352260000012284106866476820385_);fill:none;stroke:#BF9AD8;stroke-linecap:round;stroke-linejoin:round;" d="
		M232.5,262c0.5,1.4,3.4,13.6,3.5,17.4c0.1,2.3,0.3,4.7,0.6,7"/>
	
		<path style="clip-path:url(#SVGID_00000029019948638880352260000012284106866476820385_);fill:none;stroke:#BF9AD8;stroke-linecap:round;stroke-linejoin:round;" d="
		M213.3,274c0.5,0.1,4.5,4.8,5.2,8.9c0.6,4.1-2.9,6.8-3.4,9.2c-0.5,2.5-0.1,5.8-1.3,7.2c-1.2,1.4-7.5,5.7-7.5,5.7"/>
	
		<path style="clip-path:url(#SVGID_00000029019948638880352260000012284106866476820385_);fill:none;stroke:#BF9AD8;stroke-linecap:round;stroke-linejoin:round;" d="
		M157,289.9l13.4-5.7"/>
	
		<path style="clip-path:url(#SVGID_00000029019948638880352260000012284106866476820385_);fill:none;stroke:#BF9AD8;stroke-linecap:round;stroke-linejoin:round;" d="
		M161.1,292.7l12.8-5.2"/>
	
		<path style="clip-path:url(#SVGID_00000029019948638880352260000012284106866476820385_);fill:none;stroke:#BF9AD8;stroke-linecap:round;stroke-linejoin:round;" d="
		M163.7,296.2l12.7-4.6"/>
	
		<path style="clip-path:url(#SVGID_00000029019948638880352260000012284106866476820385_);fill:none;stroke:#BF9AD8;stroke-linecap:round;stroke-linejoin:round;" d="
		M166.5,300.1l12.7-4.2"/>
	
		<path style="clip-path:url(#SVGID_00000029019948638880352260000012284106866476820385_);fill:none;stroke:#BF9AD8;stroke-linecap:round;stroke-linejoin:round;" d="
		M168.1,304.5c0.7-0.2,11.4-3.5,11.4-3.5"/>
	
		<path style="clip-path:url(#SVGID_00000029019948638880352260000012284106866476820385_);fill:none;stroke:#BF9AD8;stroke-linecap:round;stroke-linejoin:round;" d="
		M168.6,310.1l10.4-2.9"/>
	
		<linearGradient id="SVGID_00000098908851275025648410000000748149280363369886_" gradientUnits="userSpaceOnUse" x1="133.7225" y1="17.1966" x2="46.4625" y2="165.3466" gradientTransform="matrix(1 0 0 -1 0 390)">
		<stop  offset="0.31" style="stop-color:#9962FB"/>
		<stop  offset="0.47" style="stop-color:#D8D9FE"/>
	</linearGradient>
	
		<path style="clip-path:url(#SVGID_00000029019948638880352260000012284106866476820385_);fill:url(#SVGID_00000098908851275025648410000000748149280363369886_);" d="
		M123.9,353.3H42.1c-0.4,0-0.9-0.2-1.2-0.5c-0.3-0.3-0.6-0.7-0.7-1.1c-0.1-0.4-0.1-0.9,0.1-1.3c0.2-0.4,0.5-0.8,0.8-1l56.1-33.9
		c2.5-1.5,5.3-2.3,8.2-2.3h73.4c0.4,0,0.8,0.2,1.2,0.4c0.3,0.3,0.6,0.6,0.7,1s0.1,0.8,0,1.3c-0.1,0.4-0.4,0.8-0.7,1L138,348.5
		C133.9,351.6,129,353.3,123.9,353.3z"/>
	
		<path style="opacity:0.9;clip-path:url(#SVGID_00000029019948638880352260000012284106866476820385_);fill:#EBDCFD;enable-background:new    ;" d="
		M178.8,313.4h-72.9c-2.9,0-5.7,0.8-8.2,2.3l-55.8,33.7c-0.3,0.2-0.6,0.5-0.8,0.9c0.3,0.2,0.6,0.3,1,0.3h81.4c5.1,0,10-1.7,14-4.7
		l41.7-31.4c0.3-0.2,0.5-0.5,0.6-0.8C179.4,313.5,179.1,313.4,178.8,313.4z"/>
	<path style="clip-path:url(#SVGID_00000029019948638880352260000012284106866476820385_);fill:#AF8E95;" d="M114.4,307.8
		c0,0,20.9-4.2,25-1c4,3.2,8.3,6.3,8.3,6.3l4.1-6.6l-6-7.8l-12.3-3.1l-10.2,1L114.4,307.8z"/>
	
		<linearGradient id="SVGID_00000011747106694674755110000000814690315717402507_" gradientUnits="userSpaceOnUse" x1="95.3092" y1="88.0296" x2="150.3974" y2="61.2286" gradientTransform="matrix(1 0 0 -1 0 390)">
		<stop  offset="0.28" style="stop-color:#FFFFFF"/>
		<stop  offset="0.87" style="stop-color:#E2E8F0"/>
	</linearGradient>
	
		<path style="clip-path:url(#SVGID_00000029019948638880352260000012284106866476820385_);fill:url(#SVGID_00000011747106694674755110000000814690315717402507_);" d="
		M106,325c0.6,0.8,1.4,1.4,2.4,1.7c2.9,1.1,6,1.7,9.2,1.7c7.6-0.1,11.3-0.2,14.4-2.2c2.3-1.4,1.6-1.9,6.7-7.1c5.5-5.6,7.4-6.1,7.4-8
		c-0.1-3.9-7.8-6.7-11.3-7.7c-5.2-1.5-10.7-1.2-15.7,0.9c-10.4,4.4-13.3,14.8-13.6,17C105.2,322.5,105.4,323.9,106,325z"/>
	
		<linearGradient id="SVGID_00000005970364557423670580000007790187546531446401_" gradientUnits="userSpaceOnUse" x1="138.2704" y1="58.9771" x2="105.0504" y2="95.9011" gradientTransform="matrix(1 0 0 -1 0 390)">
		<stop  offset="7.000000e-02" style="stop-color:#9962FB"/>
		<stop  offset="0.27" style="stop-color:#A161F3;stop-opacity:0.7"/>
		<stop  offset="0.5" style="stop-color:#B860DE"/>
		<stop  offset="0.75" style="stop-color:#DA5DBD"/>
	</linearGradient>
	
		<path style="opacity:0.8;clip-path:url(#SVGID_00000029019948638880352260000012284106866476820385_);fill:url(#SVGID_00000005970364557423670580000007790187546531446401_);enable-background:new    ;" d="
		M144.8,308.4c-1,1.1-3,2.6-6.6,6.2c-5.1,5.2-4.4,5.6-6.7,7.1c-3.1,1.9-6.9,2-14.4,2.1c-0.8,0-1.6-0.1-2.4-0.1
		c-0.7-6.6,9.2-16.9,9.2-16.9c-3,1.7-5.6,4.1-7.6,7c-2,2.9-3.3,6.2-3.8,9.6c-1.6-0.3-3.1-0.7-4.6-1.3c-0.9-0.3-1.7-0.8-2.3-1.6
		c-0.1,0.3-0.1,0.5-0.1,0.7c-0.3,1.3-0.1,2.6,0.6,3.7c0.6,0.8,1.4,1.4,2.4,1.7c2.9,1.1,6,1.7,9.2,1.7c7.6-0.1,11.3-0.2,14.4-2.2
		c2.3-1.4,1.6-1.9,6.7-7.1c5.5-5.6,7.4-6.1,7.4-8C146,310.1,145.6,309.1,144.8,308.4z"/>
	<path style="clip-path:url(#SVGID_00000029019948638880352260000012284106866476820385_);fill:#EDC0C8;" d="M167.8,305.1l-11.2,4.7
		c-0.4,1.5-1.1,2.9-2,4.2c-0.6,0.8-1.4,1.6-2.2,2.2c-1.6,1.2-2.8,1.5-7,2.5c-5.2,1.3-6,1.6-6.7,1c-1-1-0.5-3.1,0-4.2
		c0.6-1.4,1.6-2.2,2.9-3.1c1.2-0.9,2.4-1.5,3.8-2c-1.8-3.2-4.1-6.1-6.6-8.7l-3,1.7c-0.3,1.3-2.4,9.5-7.2,10.5
		c-0.3,0.1-3,0.6-3.8-0.7c-0.6-0.8-0.1-2.1,0.2-2.6c1.3-3.5,2.4-7.1,3.3-10.7l-4.8,0.1c-1.6,2.2-3.6,5-6,8.3
		c-3.2,4.2-4.8,6.2-7.3,6.5c-1,0.1-2.1-0.1-3-0.6c-0.8,0.1-2.3,0.1-3-0.8c-0.4-0.6-0.4-1.3,0.9-4.5c2.3-5.7,4.2-8.2,4.8-8.9
		c0.5-0.7,1.1-1.3,1.7-1.9c1.4-1.4,3.1-2.4,4.9-3.1c0.3-0.8,0.9-1.4,1.6-1.9c0.4-0.3,0.9-0.5,1.3-0.6c6.2-1.6,12.7-2.2,18.9-3.8
		c0.8-0.2,1.6-0.2,2.4,0c0.6,0.2,1.2,0.6,1.7,1.2c1.9,1.9,3.9,3.5,6,5l10.6-5c4.4,3.6,8.6,8.7,8.8,14.8
		C167.8,304.7,167.8,304.9,167.8,305.1z"/>
	
		<path style="opacity:0.5;clip-path:url(#SVGID_00000029019948638880352260000012284106866476820385_);fill:#AF8C94;enable-background:new    ;" d="
		M167.5,302c-2.7,0.9-4.7,1.6-5.9,2c-1.8,0.6-2.4,0.8-3,1.4c-1.5,1.5-2,4.3-2,4.3l11-4.5c0.1-0.4,0.1-0.8,0.1-1.2
		C167.8,303.4,167.7,302.7,167.5,302z"/>
	
		<path style="opacity:0.5;clip-path:url(#SVGID_00000029019948638880352260000012284106866476820385_);fill:#AF8C94;enable-background:new    ;" d="
		M141.6,300c-1,0.5-1.9,1.1-2.7,1.7c1.4,1.4,2.7,2.9,3.9,4.5c0.9,1.3,1.8,2.6,2.6,3.9l3.5-1.3c0,0-0.1-4.9-1.2-6.2
		C146.4,301.3,141.9,300,141.6,300z"/>
	
		<path style="opacity:0.5;clip-path:url(#SVGID_00000029019948638880352260000012284106866476820385_);fill:#AF8C94;enable-background:new    ;" d="
		M127,296.8c-1.1,1.2-4.9,2.2-4.9,2.2s-1.2,2.3-2.7,4.9c-2.6,4.5-3,5.4-4,6.3c-1.7,1.8-3.6,3.8-5.7,3.6c-0.7-0.1-2.5-0.4-2.9,0.3
		c1,0.5,2.1,0.7,3.2,0.6c2.5-0.3,4.1-2.2,7.3-6.5c2.4-3.2,4.5-6,6-8.3l4.6-0.1c0.2-0.8,1.2-4,1.6-4.6c0.5-0.6,8.9-4.7,8.9-4.7
		C136.2,290.6,128.2,295.5,127,296.8z"/>
	<path style="clip-path:url(#SVGID_00000029019948638880352260000012284106866476820385_);fill:#CCA8AE;" d="M109.9,299.9
		c-0.6,0.7-2.5,3.3-4.8,8.9c-1.3,3.1-1.3,3.9-0.9,4.5c0.6,0.8,1.9,0.9,2.8,0.8c0-0.1,0-0.1-0.1-0.2c0-0.1-0.1-0.1-0.1-0.1
		c-0.8-0.5,1-4.2,1.8-5.2c0.8-1,8.2-13.4,7.9-13.8c-1.8,0.7-3.5,1.8-4.9,3.1C111,298.6,110.4,299.2,109.9,299.9z"/>
	
		<linearGradient id="SVGID_00000147216228527014297390000008942431004386224289_" gradientUnits="userSpaceOnUse" x1="118.9034" y1="83.0928" x2="122.3664" y2="77.4428" gradientTransform="matrix(1 0 0 -1 0 390)">
		<stop  offset="0" style="stop-color:#995AFF"/>
		<stop  offset="1" style="stop-color:#DC59BF"/>
	</linearGradient>
	
		<path style="clip-path:url(#SVGID_00000029019948638880352260000012284106866476820385_);fill:url(#SVGID_00000147216228527014297390000008942431004386224289_);" d="
		M119,312.9c0.8-1,1.6-2.1,2.6-3.1c0.9-1.1,1.7-1.9,2.6-2.8c-0.8-0.4-1.8-0.6-2.7-0.5c-0.9,0.1-1.8,0.5-2.5,1
		c-0.7,0.6-1.3,1.3-1.6,2.2c-0.3,0.9-0.4,1.8-0.2,2.7L119,312.9z"/>
	<path style="clip-path:url(#SVGID_00000029019948638880352260000012284106866476820385_);fill:#412168;" d="M121.5,309.7
		c0.9-1,1.7-1.9,2.5-2.7c-1.3,0-2.5,0.4-3.4,1.2c-0.6,0.6-1.1,1.3-1.4,2.1c-0.3,0.8-0.3,1.6-0.2,2.5
		C119.8,311.8,120.6,310.8,121.5,309.7z"/>
	
		<linearGradient id="SVGID_00000179611876559356699280000017974784632179531160_" gradientUnits="userSpaceOnUse" x1="324.5669" y1="-3170.2998" x2="324.3716" y2="-2881.2598" gradientTransform="matrix(1 0 0 -1 0 390)">
		<stop  offset="0.18" style="stop-color:#6669FB"/>
		<stop  offset="0.78" style="stop-color:#D8D9FE"/>
	</linearGradient>
	
		<path style="clip-path:url(#SVGID_00000029019948638880352260000012284106866476820385_);fill:url(#SVGID_00000179611876559356699280000017974784632179531160_);" d="
		M188.4,345.6h268.1c0,2.1-0.8,4-2.3,5.5c-1.5,1.5-3.4,2.3-5.5,2.3H196.2c-1,0-2-0.2-3-0.6c-0.9-0.4-1.8-1-2.5-1.7
		c-0.7-0.7-1.3-1.6-1.7-2.5C188.6,347.6,188.4,346.6,188.4,345.6z"/>
	<path style="clip-path:url(#SVGID_00000029019948638880352260000012284106866476820385_);fill:#A161F3;" d="M454.5,348.1H190.4
		c-0.4,0-0.8-0.1-1.1-0.4c-0.3-0.2-0.6-0.6-0.7-0.9c-0.1-0.4-0.2-0.8-0.1-1.2c0.1-0.4,0.3-0.7,0.6-1l22.2-19.2
		c2.4-2.1,5.5-3.2,8.7-3.2h204.9c3.2,0,6.3,1.2,8.7,3.2l22.2,19.2c0.3,0.3,0.5,0.6,0.6,1c0.1,0.4,0.1,0.8-0.1,1.2
		c-0.1,0.4-0.4,0.7-0.7,0.9C455.3,348,454.9,348.1,454.5,348.1z"/>
	
		<linearGradient id="SVGID_00000162346856900311880010000010637798316688619958_" gradientUnits="userSpaceOnUse" x1="198.2127" y1="32.1726" x2="568.5878" y2="93.8386" gradientTransform="matrix(1 0 0 -1 0 390)">
		<stop  offset="9.000000e-02" style="stop-color:#FFFFFF"/>
		<stop  offset="0.27" style="stop-color:#FFFFFF;stop-opacity:0.81"/>
		<stop  offset="0.57" style="stop-color:#A161F3"/>
		<stop  offset="0.96" style="stop-color:#9962FB"/>
	</linearGradient>
	
		<path style="clip-path:url(#SVGID_00000029019948638880352260000012284106866476820385_);fill:url(#SVGID_00000162346856900311880010000010637798316688619958_);" d="
		M454.4,347.7H190.3c-0.4,0-0.8-0.1-1.1-0.3c-0.3-0.2-0.6-0.6-0.7-0.9c-0.1-0.4-0.2-0.8-0.1-1.2c0.1-0.4,0.3-0.7,0.6-1l22.2-19.2
		c2.4-2.1,5.5-3.2,8.7-3.2h204.9c3.2,0,6.3,1.2,8.7,3.2l22.2,19.2c0.3,0.3,0.5,0.6,0.6,1c0.1,0.4,0.1,0.8-0.1,1.2
		c-0.1,0.4-0.4,0.7-0.7,0.9C455.2,347.6,454.8,347.7,454.4,347.7z"/>
	<path style="clip-path:url(#SVGID_00000029019948638880352260000012284106866476820385_);fill:#AF8C94;" d="M422.8,303.3
		c1.4,4.3-4.9,10.7-10.9,13.3c-6.2,2.6-12.2,1.2-14.8,0.4c-0.2,0.3-0.5,0.5-0.8,0.7c-2.1,1.3-5.1,0-7.4-1.1c-2-0.9-3.9-2-5.6-3.4
		c1.1-2.4,2.3-4.8,3.4-7.3l8.6-3.2l25.2-2.2C421.6,301.2,422.4,302.2,422.8,303.3z"/>
	<path style="clip-path:url(#SVGID_00000029019948638880352260000012284106866476820385_);fill:#EDC0C8;" d="M382.8,304
		c0.9-0.9,2.2-2.3,3.9-4.1c3.9-4.1,5-5.4,7.1-5.9c1.5-0.3,3.1-0.1,4.5,0.6c0.7-0.2,12.6-4.1,15.1-0.1c0.2,0.4,0.4,0.8,0.4,1.2
		c0.9-0.4,1.9-0.5,2.9-0.4c1,0.1,1.9,0.4,2.8,0.9c1.3,0.9,2.2,2.3,2.6,3.8c0.8-0.6,1.7-0.9,2.7-0.8c1.4,0.2,2.3,1.3,3.6,2.9
		c0.8,0.9,1.4,1.8,1.8,2.9c0.6,1.7,0.4,3.6,0,7.3c-0.3,2.8-0.6,3.5-1.3,4c-0.4,0.3-0.9,0.5-1.4,0.5c-0.5,0.1-1,0-1.5-0.1
		c-2.1-0.7-3.4-4-3-8.3l-0.6-0.6c-0.4,1.8-1,4.1-1.7,6.9c-1.5,5.9-2.2,7.3-3.4,7.7c-0.5,0.2-1.8,0.3-3.9-1.4
		c-0.9,0.5-3.7,1.9-5.7,0.7c-1.6-1-1.9-3.1-2.2-6c-0.4-3.8-0.9-8.3-1.3-13.6l-2.2,0.8c-0.5,5.5-1,11.1-1.5,16.6
		c0.2,2.7-2.1,4.8-4.3,4.6c-1-0.1-1.9-0.6-2.5-1.3c-0.7-0.7-1-1.7-1.1-2.7c-0.1-5.4-0.3-10.8-0.4-16.2l-2.2,2.2
		c0.8,1.6,0.9,3.3,0.4,5c-0.7,2.2-2.9,4.5-5.6,4.4c-3.1-0.1-5.7-3.1-5.6-6.2c0.1-1.1,0.4-2.2,1-3.2
		C380.9,305.3,381.8,304.5,382.8,304z"/>
	
		<path style="opacity:0.5;clip-path:url(#SVGID_00000029019948638880352260000012284106866476820385_);fill:#AF8C94;enable-background:new    ;" d="
		M391.6,301.2c-3.1,0.4-6,1.6-8.4,3.4c1.2-0.3,2.5-0.3,3.7,0c1.2,0.3,2.3,0.9,3.3,1.7l2.2-2.2L391.6,301.2z"/>
	
		<path style="opacity:0.5;clip-path:url(#SVGID_00000029019948638880352260000012284106866476820385_);fill:#AF8C94;enable-background:new    ;" d="
		M401.4,298.7c0.4,1.4,0.6,2.9,0.7,4.4l2.1-0.7c-0.1-0.9-0.2-2.5-0.6-3c-0.5-0.7-1-4.2-4.7-4.9l-0.6,0.2l2,1.5
		C400.9,296.9,401.2,297.8,401.4,298.7z"/>
	
		<path style="opacity:0.5;clip-path:url(#SVGID_00000029019948638880352260000012284106866476820385_);fill:#AF8C94;enable-background:new    ;" d="
		M416.6,295.3c-0.9,0-1.8,0.1-2.6,0.4c0-0.3-0.1-0.5-0.2-0.7l0.5,8.9l-0.9,17.2l0.2-0.1c0.3,0.2,0.6,0.5,0.9,0.7
		c0.1-1.7,0.2-4.5,0.4-8.1c0.4-6.4,0.6-5.4,0.6-8.4c0-5.7-1-8,0.6-9.5C416.2,295.5,416.4,295.4,416.6,295.3z"/>
	
		<path style="opacity:0.5;clip-path:url(#SVGID_00000029019948638880352260000012284106866476820385_);fill:#AF8C94;enable-background:new    ;" d="
		M425.7,310.3c0.1-2.7-0.1-6.6-0.1-6.6l-2.7-4c-0.1,0.1-0.3,0.2-0.5,0.3c0.1,0.3,0.2,0.6,0.3,0.9c0.4,1.1,0.1,5-0.1,7.1l0.6,0.6
		c-0.4,4.2,0.9,7.6,3,8.3c0.6,0.2,1.2,0.2,1.8,0.1C427.1,315.1,425.6,312.1,425.7,310.3z"/>
	<path style="clip-path:url(#SVGID_00000029019948638880352260000012284106866476820385_);fill:#EDC0C8;" d="M288,134.5
		c-2.7,3.7-4.6,7.7-5.7,12.1c-0.7,3.5-0.9,7-0.6,10.6c0.6,11.1,0.9,16.6,3.1,21.9c0.7,1.8,8.5,19.3,22,18.5
		c9.1-0.5,17.9-9.3,19.9-21.5c1.5-5.7,2.4-11.4,2.8-17.3c0.8-12.5,1-19.5-3.7-25c-6-6.9-15.9-6.9-18.4-6.9
		C300.3,127.2,293.4,129.8,288,134.5z"/>
	<path style="clip-path:url(#SVGID_00000029019948638880352260000012284106866476820385_);fill:#6B63B7;" d="M280.9,153.5
		c2.9-14.1,7-17.9,10.4-18.6c4.8-1,7.4,4.4,15.3,4.6c8.7,0.2,11.9-6.5,16.2-4.2c0,0,5.4,2.8,5.9,16.9c0,0.9,0.1,1.9,0.2,2.8
		c0.2,1.3,0.3,2.5,0.3,3.7c0,3.2,0.1,9.5-3.5,15.6c-1.9,3.2-2.8,4.8-4.8,5.4c-3.6,1-6-2.6-13.4-3.4c-1.5-0.1-2.9-0.1-4.4,0
		c-7.1,0.6-9.5,4.1-12.7,3.4c-1.9-0.4-4.2-2.4-6-9l-2.2-20.2l-2,1.3c0.7,2.9,1.4,5.9,1.8,8.8c2,13.3-0.2,19.1,4.1,27.1
		c1,1.9,2.2,3.6,3.7,5.1c2.2,2.5,9,10.3,17.8,9.6c8.8-0.6,14.9-9.4,17.1-12.7c0.3-0.5,0.8-1.2,1.4-2.2c2.3-4.2,3.7-9.1,3.9-24.2
		c0.1-6.1,0-9.4,2.2-10.9c1.3-0.6,2.6-0.8,4-0.4c0.4-2.6,0.4-5.3,0.2-8c-0.2-2.2-0.7-8.6-4-13.6c-6.6-10.2-21.3-10.6-25.5-10.7
		c-5.5-0.1-11,0.9-16.1,3.1c-5.3,2.1-7.2,4.2-8.1,5.2c-1.5,1.8-2.4,4-3.4,8.4c-1.2,5.8-1.5,11.7-0.8,17.6L280.9,153.5z"/>
	
		<linearGradient id="SVGID_00000014602175328256456620000015106335202364676752_" gradientUnits="userSpaceOnUse" x1="262.5426" y1="302.1707" x2="351.5586" y2="166.2433" gradientTransform="matrix(1 0 0 -1 0 390)">
		<stop  offset="0.24" style="stop-color:#8134BC"/>
		<stop  offset="0.36" style="stop-color:#732FB0"/>
		<stop  offset="0.59" style="stop-color:#4D2292"/>
		<stop  offset="0.83" style="stop-color:#21136E"/>
	</linearGradient>
	
		<path style="opacity:0.45;clip-path:url(#SVGID_00000029019948638880352260000012284106866476820385_);fill:url(#SVGID_00000014602175328256456620000015106335202364676752_);enable-background:new    ;" d="
		M280.9,153.5c2.9-14.1,7-17.9,10.4-18.6c4.8-1,7.4,4.4,15.3,4.6c8.7,0.2,11.9-6.5,16.2-4.2c0,0,5.4,2.8,5.9,16.9
		c0,0.9,0.1,1.9,0.2,2.8c0.2,1.3,0.3,2.5,0.3,3.7c0,3.2,0.1,9.5-3.5,15.6c-1.9,3.2-2.8,4.8-4.8,5.4c-3.6,1-6-2.6-13.4-3.4
		c-1.5-0.1-2.9-0.1-4.4,0c-7.1,0.6-9.5,4.1-12.7,3.4c-1.9-0.4-4.2-2.4-6-9l-2.2-20.2l-2,1.3c0.7,2.9,1.4,5.9,1.8,8.8
		c2,13.3-0.2,19.1,4.1,27.1c1,1.9,2.2,3.6,3.7,5.1c2.2,2.5,9,10.3,17.8,9.6c8.8-0.6,14.9-9.4,17.1-12.7c0.3-0.5,0.8-1.2,1.4-2.2
		c2.3-4.2,3.7-9.1,3.9-24.2c0.1-6.1,0-9.4,2.2-10.9c1.3-0.6,2.6-0.8,4-0.4c0.4-2.6,0.4-5.3,0.2-8c-0.2-2.2-0.7-8.6-4-13.6
		c-6.6-10.2-21.3-10.6-25.5-10.7c-5.5-0.1-11,0.9-16.1,3.1c-5.3,2.1-7.2,4.2-8.1,5.2c-1.5,1.8-2.4,4-3.4,8.4
		c-1.2,5.8-1.5,11.7-0.8,17.6L280.9,153.5z"/>
	<g style="opacity:0.4;clip-path:url(#SVGID_00000029019948638880352260000012284106866476820385_);">
		<path class="st57" d="M278.5,150h-0.4c0,1.2,0.1,2.3,0.2,3.6h1C279,152.4,278.8,151.3,278.5,150z"/>
		<path class="st57" d="M320.6,131.6c-4.3-2.2-7.5,4.4-16.2,4.2c-7.9-0.1-10.5-5.7-15.4-4.6c-3.1,0.7-6.9,4.1-9.7,16l0.7-0.4
			l0.8,7.3c0.5,2.5,0.9,4.7,1.2,6.2c0.5,3.3,0.7,6.2,0.8,8.8c0.6,2,1.6,3.9,2.9,5.5c-0.5-1.4-1-2.7-1.4-4.1l-2.2-20.2l-0.7,0.4
			c2.8-11.9,6.6-15.3,9.7-16c4.8-1,7.4,4.4,15.3,4.6c8.7,0.2,11.9-6.5,16.2-4.2c0.5,0.3,0.9,0.7,1.4,1.2
			C322.5,132.6,320.6,131.6,320.6,131.6z"/>
		<path class="st57" d="M336.2,143.6c-0.2-2.2-0.7-8.6-4-13.6c-0.3-0.5-0.6-0.9-1-1.5c1.7,3.7,2.6,7.5,2.8,11.6
			c0.2,2.6,0.1,5.3-0.2,8c-1.4-0.4-2.8-0.2-4,0.4c-0.5,0.3-0.9,0.8-1.3,1.4c0,0.6,0.1,1.3,0.1,2c0,0.9,0.1,1.9,0.2,2.8
			c0.2,1.3,0.3,2.5,0.3,3.7c0.2,4.5-0.5,9-2.2,13.2c-0.6,6.2-1.7,9.3-3.2,12c-0.5,1-1,1.8-1.4,2.2c-2.3,3.3-8.2,12.1-17.1,12.7
			c-8.9,0.5-15.5-7.1-17.8-9.6c-0.6-0.7-1.2-1.4-1.6-2c0,0.1,0.1,0.2,0.2,0.3c1,1.9,2.2,3.6,3.7,5.1c2.2,2.5,9,10.3,17.8,9.6
			c8.8-0.6,14.9-9.4,17.1-12.7c0.3-0.5,0.8-1.2,1.4-2.2c2.3-4.2,3.7-9.1,3.9-24.2c0.1-6.1,0-9.4,2.2-10.9c1.3-0.6,2.6-0.8,4-0.4
			C336.4,149.1,336.5,146.3,336.2,143.6z"/>
	</g>
	<path style="clip-path:url(#SVGID_00000029019948638880352260000012284106866476820385_);fill:#514DA0;" d="M312,151
		c-0.1,0.4-0.1,0.8,0.1,1.2c0.7,1.2,2.7,0.3,6.3,0.6c2.7,0.2,4.6,0.9,4.9,0.3c0.2-0.3-0.1-0.8-0.2-0.9c-0.3-0.4-0.8-0.8-1.4-0.9
		c-2.4-0.7-4.8-1-7.3-0.9C313.1,150.2,312.3,150.4,312,151z"/>
	<path style="clip-path:url(#SVGID_00000029019948638880352260000012284106866476820385_);fill:#514DA0;" d="M300.1,151.1
		c0.1,0.4,0.1,0.8-0.1,1.2c-0.7,1.2-2.9,0.3-6.8,0.6c-2.9,0.2-4.9,1-5.3,0.3c-0.2-0.3,0.2-0.8,0.2-1c0.3-0.5,0.8-0.8,1.5-1
		c2.5-0.7,5.2-1.2,7.9-1C298.9,150.3,299.7,150.4,300.1,151.1z"/>
	<path style="clip-path:url(#SVGID_00000029019948638880352260000012284106866476820385_);fill:#FFBBE5;" d="M282.6,131.8
		c0.5-1.4,1.5-2.4,2.6-3.2c13.4-9.3,31.2-9.1,44.3,0.5c1.4,1,2.4,2.4,2.8,4.1c2,7.3,2.2,15,0.5,22.4l-2.9,2.9
		c0.7-5.4,0.6-11-0.5-16.3c-0.3-1.6-0.7-3-1.2-4.4c-0.7-2.3-2.4-4.1-4.6-4.8c-11.6-4.3-24.4-4.3-36.1-0.2c-1.9,2.6-3.3,5.5-4.5,8.5
		c-2.1,5.9-2.8,12.1-2,18.3l-2.8-4.6C278,147.1,279.4,139.1,282.6,131.8z"/>
	
		<linearGradient id="SVGID_00000147924670765282382910000018101839767917995679_" gradientUnits="userSpaceOnUse" x1="261.0783" y1="270.2463" x2="388.4213" y2="193.2163" gradientTransform="matrix(1 0 0 -1 0 390)">
		<stop  offset="7.000000e-02" style="stop-color:#9962FB"/>
		<stop  offset="0.27" style="stop-color:#A161F3"/>
		<stop  offset="0.58" style="stop-color:#B860DE"/>
		<stop  offset="0.95" style="stop-color:#DA5DBD"/>
	</linearGradient>
	
		<path style="clip-path:url(#SVGID_00000029019948638880352260000012284106866476820385_);fill:url(#SVGID_00000147924670765282382910000018101839767917995679_);" d="
		M334.8,154l2.4,0.1c2.9,0.1,5.1,2.5,5,5.4l-0.4,11.1c-0.1,2.9-2.5,5.1-5.4,5l-2.4-0.1c-2.9-0.1-5.1-2.5-5-5.4l0.4-11.1
		C329.5,156.1,332,153.9,334.8,154z"/>
	<path style="clip-path:url(#SVGID_00000029019948638880352260000012284106866476820385_);fill:#FDFDFF;" d="M333.3,150.7
		c2.1,0.1,3.7,1.8,3.6,3.9l-0.8,20.3c-0.1,2.1-1.8,3.7-3.9,3.6c-2.1-0.1-3.7-1.8-3.6-3.9l0.8-20.3
		C329.6,152.3,331.2,150.7,333.3,150.7z"/>
	
		<path style="opacity:0.3;clip-path:url(#SVGID_00000029019948638880352260000012284106866476820385_);fill:#34197F;enable-background:new    ;" d="
		M341.6,156.8l-0.4,10.3c-0.5,0.6-1.4,1-2.3,1c-0.9,0-1.9-0.5-2.4-1.3c0,0.4,0.4,5.3-2.5,7.3c-0.7,0.5-1.6,0.8-2.4,0.8
		c-1.2-0.1-2.3-0.6-2.9-1.7v1.4c-0.1,2.1,1.6,3.8,3.6,3.8c1.8,0,3.4-1.2,3.8-2.8h0.4c2.8,0.1,5.3-2.1,5.4-5l0.4-11.1
		C342.3,158.5,342.1,157.7,341.6,156.8z"/>
	
		<linearGradient id="SVGID_00000071517380030150135220000010702868705772247438_" gradientUnits="userSpaceOnUse" x1="244.5653" y1="243.0943" x2="371.8983" y2="166.0653" gradientTransform="matrix(1 0 0 -1 0 390)">
		<stop  offset="7.000000e-02" style="stop-color:#9962FB"/>
		<stop  offset="0.27" style="stop-color:#A161F3"/>
		<stop  offset="0.58" style="stop-color:#B860DE"/>
		<stop  offset="0.95" style="stop-color:#DA5DBD"/>
	</linearGradient>
	
		<path style="clip-path:url(#SVGID_00000029019948638880352260000012284106866476820385_);fill:url(#SVGID_00000071517380030150135220000010702868705772247438_);" d="
		M277.8,176.6l-2.4,0.1c-2.9,0.2-5.3-2-5.5-4.9l-0.6-11.1c-0.2-2.9,2-5.3,4.9-5.5l2.4-0.1c2.9-0.2,5.3,2,5.5,4.9l0.6,11.1
		C282.9,173.9,280.7,176.4,277.8,176.6z"/>
	<path style="clip-path:url(#SVGID_00000029019948638880352260000012284106866476820385_);fill:#FDFDFF;" d="M279.5,179.5
		c-2.1,0.1-3.8-1.5-4-3.5l-1.2-20.3c-0.1-2.1,1.5-3.8,3.5-4c2.1-0.1,3.8,1.5,4,3.5l1.2,20.3C283.2,177.6,281.6,179.4,279.5,179.5z"
		/>
	
		<path style="opacity:0.3;clip-path:url(#SVGID_00000029019948638880352260000012284106866476820385_);fill:#34197F;enable-background:new    ;" d="
		M281.9,155.4c-0.1-1.3-0.7-2.3-1.8-2.9c0.2,4.8,0.4,9.6,0.6,14.4c-0.3,1-1.2,1.9-2.1,2.3c-1.2,0.4-2.5,0.3-3.6-0.3
		c0.1,1.8-1.2,3.2-2.8,3.3c-0.1,0-0.1,0-0.2,0c-1.2-0.2-2.1-1.2-2.3-2.3l0.1,2c0.2,2.8,2.6,5,5.5,4.9h0.4c0.5,2,2.5,3.2,4.5,2.7
		c1.8-0.4,2.9-2,2.8-3.8L281.9,155.4z"/>
	<path style="clip-path:url(#SVGID_00000029019948638880352260000012284106866476820385_);fill:#7DD5F4;" d="M329.6,129.1
		c-13.1-9.6-31-9.8-44.3-0.5c-0.4,0.3-0.9,0.7-1.3,1.2l3.7,3.1l0.1-0.1c11.7-4.1,24.4-4,36.1,0.2c0.9,0.3,1.8,0.8,2.5,1.6l4.6-4
		C330.5,129.9,330,129.5,329.6,129.1z"/>
	
		<path style="clip-path:url(#SVGID_00000029019948638880352260000012284106866476820385_);fill:none;stroke:#3F2B45;stroke-linecap:round;stroke-linejoin:round;" d="
		M304.3,185.8c3.5,0.7,6.9-1,8.5-4.2"/>
	<g style="opacity:0.5;clip-path:url(#SVGID_00000029019948638880352260000012284106866476820385_);">
		<path class="st20" d="M304,172.3c-1,0-2.4-0.2-3-0.9c-0.2-0.3-0.3-0.7-0.3-1.2c0.2-2.6,2.6-14.4,2.7-15c0-0.2,0.2-0.4,0.4-0.4
			c0.2,0.1,0.3,0.4,0.3,0.6c0,0.1-2.4,12.4-2.6,14.8c0,0.1,0,0.2,0.1,0.3c0.5,0.6,2.6,0.6,4,0.5c0.2,0,0.4,0.2,0.4,0.4
			c0,0.2-0.1,0.5-0.3,0.5C305.2,172.2,304.5,172.3,304,172.3z"/>
	</g>
</g>
</svg>
