<svg width="103" height="39" viewBox="0 0 103 39" fill="none" xmlns="http://www.w3.org/2000/svg">
<path d="M19.436 17.6762C19.455 19.0146 19.2175 20.3436 18.737 21.5862C18.2566 22.8288 17.5429 23.9604 16.6372 24.9152C15.7315 25.8701 14.6518 26.6294 13.4608 27.149C12.2697 27.6687 10.9909 27.9383 9.69849 27.9425C7.90009 27.9819 6.1572 27.2964 4.83754 26.0304V32.6662C4.84832 32.7546 4.83941 32.8445 4.81151 32.9289C4.78361 33.0132 4.73745 33.0899 4.67656 33.1529C4.61567 33.216 4.54167 33.2638 4.46021 33.2927C4.37875 33.3216 4.29199 33.3308 4.20656 33.3196H0.634853C0.549578 33.33 0.463147 33.3202 0.382044 33.291C0.30094 33.2618 0.22727 33.214 0.166559 33.1511C0.105848 33.0883 0.0596722 33.012 0.0314953 32.928C0.00331844 32.844 -0.00612798 32.7545 0.00386464 32.6662V8.43863C-0.00612798 8.35031 0.00331844 8.2608 0.0314953 8.17681C0.0596722 8.09281 0.105848 8.01651 0.166559 7.95364C0.22727 7.89076 0.30094 7.84294 0.382044 7.81376C0.463147 7.78457 0.549578 7.77479 0.634853 7.78514H3.33408C3.49259 7.77351 3.65012 7.81895 3.78001 7.91377C3.9099 8.0086 4.00416 8.14698 4.04686 8.30551L4.43636 9.72947C5.11225 8.98543 5.93282 8.3983 6.84391 8.00682C7.755 7.61534 8.73589 7.42842 9.72186 7.4584C11.0095 7.46148 12.2838 7.72903 13.471 8.24557C14.6581 8.76211 15.7345 9.51737 16.638 10.4676C17.5414 11.4179 18.2539 12.5443 18.7341 13.7817C19.2144 15.019 19.453 16.3428 19.436 17.6762ZM14.5906 17.7408C14.5906 14.6024 12.4912 12.2466 9.60111 12.2466C6.71103 12.2466 4.53763 14.6024 4.53763 17.7408C4.53763 20.8791 6.74609 23.1341 9.63227 23.1341C12.5185 23.1341 14.5906 20.8953 14.5906 17.7408ZM35.2068 8.58385C35.2841 8.62172 35.3526 8.67639 35.4077 8.74413C35.4628 8.81187 35.5032 8.89111 35.5261 8.97644C35.549 9.06178 35.5539 9.15123 35.5405 9.23871C35.527 9.32618 35.4956 9.40964 35.4482 9.48341L33.8669 12.5572C33.8364 12.6407 33.7873 12.7157 33.7237 12.7759C33.66 12.8361 33.5836 12.88 33.5005 12.904C33.4175 12.9279 33.3302 12.9313 33.2456 12.9138C33.1611 12.8963 33.0817 12.8585 33.0139 12.8033C32.3233 12.3861 31.5423 12.1558 30.7431 12.1337C28.7216 12.1337 26.6378 13.9812 26.6378 17.5108V26.8614C26.6486 26.9499 26.6397 27.0397 26.6118 27.1241C26.5838 27.2085 26.5377 27.2851 26.4768 27.3482C26.4159 27.4112 26.3419 27.459 26.2605 27.4879C26.179 27.5168 26.0922 27.526 26.0068 27.5149H22.4234C22.338 27.526 22.2512 27.5168 22.1698 27.4879C22.0883 27.459 22.0143 27.4112 21.9534 27.3482C21.8925 27.2851 21.8464 27.2085 21.8185 27.1241C21.7906 27.0397 21.7817 26.9499 21.7924 26.8614V8.43863C21.7824 8.35031 21.7919 8.2608 21.8201 8.17681C21.8482 8.09281 21.8944 8.01651 21.9551 7.95364C22.0158 7.89076 22.0895 7.84294 22.1706 7.81376C22.2517 7.78457 22.3381 7.77479 22.4234 7.78514H25.185C25.3436 7.77273 25.5015 7.81787 25.6315 7.91281C25.7616 8.00775 25.8557 8.14658 25.8977 8.30551L26.5131 10.1732C27.6466 8.53544 29.1812 7.4584 31.4208 7.4584C32.7565 7.48185 34.0624 7.87008 35.2068 8.58385ZM34.233 17.773C34.2848 15.0467 35.3669 12.4501 37.247 10.541C39.127 8.63191 41.6549 7.56251 44.2879 7.56251C46.9209 7.56251 49.4488 8.63191 51.3289 10.541C53.2089 12.4501 54.291 15.0467 54.3428 17.773C54.3428 23.4447 49.813 28.007 44.2392 28.007C42.9322 28.0198 41.6357 27.7647 40.4243 27.2566C39.2128 26.7484 38.1104 25.9971 37.1804 25.0459C36.2504 24.0948 35.5112 22.9625 35.0054 21.7143C34.4996 20.4662 34.2371 19.1267 34.233 17.773ZM49.4975 17.7408C49.5165 17.0198 49.3958 16.3023 49.1426 15.6304C48.8893 14.9586 48.5087 14.3462 48.023 13.8293C47.5374 13.3124 46.9567 12.9015 46.3151 12.621C45.6736 12.3404 44.9843 12.1959 44.2879 12.1959C43.5915 12.1959 42.9022 12.3404 42.2607 12.621C41.6192 12.9015 41.0384 13.3124 40.5528 13.8293C40.0672 14.3462 39.6865 14.9586 39.4333 15.6304C39.18 16.3023 39.0593 17.0198 39.0784 17.7408C39.0593 18.4617 39.18 19.1793 39.4333 19.8511C39.6865 20.5229 40.0672 21.1354 40.5528 21.6523C41.0384 22.1692 41.6192 22.58 42.2607 22.8606C42.9022 23.1411 43.5915 23.2857 44.2879 23.2857C44.9843 23.2857 45.6736 23.1411 46.3151 22.8606C46.9567 22.58 47.5374 22.1692 48.023 21.6523C48.5087 21.1354 48.8893 20.5229 49.1426 19.8511C49.3958 19.1793 49.5165 18.4617 49.4975 17.7408ZM62.2535 26.8614C62.2643 26.9499 62.2554 27.0397 62.2275 27.1241C62.1996 27.2085 62.1534 27.2851 62.0926 27.3482C62.0317 27.4112 61.9577 27.459 61.8762 27.4879C61.7948 27.5168 61.708 27.526 61.6226 27.5149H58.0392C57.9537 27.526 57.867 27.5168 57.7855 27.4879C57.7041 27.459 57.63 27.4112 57.5692 27.3482C57.5083 27.2851 57.4621 27.2085 57.4342 27.1241C57.4063 27.0397 57.3974 26.9499 57.4082 26.8614V12.4281H55.7957C55.7104 12.4385 55.624 12.4287 55.5429 12.3995C55.4617 12.3703 55.3881 12.3225 55.3274 12.2596C55.2667 12.1968 55.2205 12.1205 55.1923 12.0365C55.1641 11.9525 55.1547 11.863 55.1647 11.7747V8.43863C55.1547 8.35031 55.1641 8.2608 55.1923 8.17681C55.2205 8.09281 55.2667 8.01651 55.3274 7.95364C55.3881 7.89076 55.4617 7.84294 55.5429 7.81376C55.624 7.78457 55.7104 7.77479 55.7957 7.78514H57.4082V6.4943C57.4082 2.46041 59.5855 0.818617 64.3685 0.818617H65.0501C65.1358 0.808148 65.2226 0.817987 65.304 0.847391C65.3855 0.876795 65.4594 0.924993 65.5201 0.988339C65.5809 1.05168 65.627 1.12852 65.6549 1.21303C65.6828 1.29754 65.6918 1.38751 65.6811 1.47614V4.33617C65.6811 4.73956 65.4903 4.97352 65.128 4.97352H64.6217C62.9001 4.97352 62.2535 5.72382 62.2535 7.14779V7.80128H65.0774C65.1627 7.79093 65.2491 7.80071 65.3302 7.82989C65.4113 7.85907 65.485 7.9069 65.5457 7.96977C65.6064 8.03265 65.6526 8.10895 65.6808 8.19294C65.7089 8.27694 65.7184 8.36645 65.7084 8.45477V11.7908C65.7184 11.8791 65.7089 11.9686 65.6808 12.0526C65.6526 12.1366 65.6064 12.2129 65.5457 12.2758C65.485 12.3387 65.4113 12.3865 65.3302 12.4157C65.2491 12.4448 65.1627 12.4546 65.0774 12.4443H62.2535V26.8614ZM81.9544 26.8614C81.9645 26.9501 81.955 27.04 81.9266 27.1243C81.8982 27.2087 81.8517 27.2852 81.7905 27.3482C81.7293 27.4111 81.6552 27.4588 81.5736 27.4877C81.492 27.5166 81.4051 27.5259 81.3195 27.5149H77.7868C77.7013 27.526 77.6146 27.5168 77.5331 27.4879C77.4516 27.459 77.3776 27.4112 77.3167 27.3482C77.2559 27.2851 77.2097 27.2085 77.1818 27.1241C77.1539 27.0397 77.145 26.9499 77.1558 26.8614V2.61773C77.145 2.52925 77.1539 2.4394 77.1818 2.35503C77.2097 2.27066 77.2559 2.19402 77.3167 2.13096C77.3776 2.06791 77.4516 2.0201 77.5331 1.9912C77.6146 1.96231 77.7013 1.95309 77.7868 1.96424H81.3195C81.4051 1.95323 81.492 1.96251 81.5736 1.9914C81.6552 2.02028 81.7293 2.06801 81.7905 2.13096C81.8517 2.19392 81.8982 2.27046 81.9266 2.35479C81.955 2.43912 81.9645 2.52904 81.9544 2.61773V26.8614ZM84.0226 17.7569C84.0226 12.1337 87.8904 7.4584 93.3706 7.4584C99.291 7.4584 102.796 11.8231 102.796 17.7246C102.796 18.0837 102.796 18.4588 102.75 18.8703C102.745 18.9539 102.723 19.0355 102.686 19.1101C102.649 19.1847 102.598 19.2506 102.536 19.3039C102.473 19.3572 102.401 19.3967 102.323 19.4199C102.245 19.4432 102.164 19.4497 102.084 19.439H88.9809C89.2533 20.6137 89.9025 21.6579 90.8223 22.401C91.742 23.144 92.878 23.5418 94.0444 23.5294C95.4033 23.5379 96.7261 23.0766 97.8031 22.2184C97.8625 22.1539 97.9359 22.1052 98.0173 22.0762C98.0987 22.0473 98.1856 22.0389 98.2707 22.052C98.3558 22.065 98.4366 22.099 98.5064 22.1512C98.5762 22.2033 98.6329 22.272 98.6717 22.3515L100.358 24.8364C100.414 24.8994 100.457 24.9741 100.483 25.0554C100.509 25.1368 100.517 25.2229 100.509 25.3081C100.5 25.3933 100.473 25.4756 100.431 25.5493C100.389 25.6231 100.332 25.6867 100.265 25.7359C98.4358 27.228 96.17 28.0291 93.8419 28.007C88.1279 28.007 84.0226 23.3479 84.0226 17.7569ZM97.9939 15.6795C97.4409 13.2269 95.7972 11.7908 93.5264 11.7908C91.2556 11.7908 89.5457 13.2591 88.9459 15.6795H97.9939ZM38.6266 36.2281C38.2604 36.4701 37.9527 36.4499 37.7268 36.1353L35.8377 33.4124C35.6157 33.0978 35.7598 32.7186 36.2779 32.3797C39.4823 30.2716 43.3211 29.451 47.0696 30.0731C50.8181 30.6951 54.2172 32.7166 56.6253 35.7561C57.0148 36.2482 57.0148 36.6557 56.7305 36.8816L54.1013 38.8501C53.7936 39.08 53.4937 38.9953 53.2211 38.6484C51.4946 36.4671 49.0564 35.0163 46.3672 34.5704C43.6781 34.1244 40.9244 34.7141 38.6266 36.2281ZM68.7075 5.41321C68.6223 5.42356 68.5358 5.41378 68.4547 5.3846C68.3736 5.35542 68.3 5.30759 68.2392 5.24472C68.1785 5.18184 68.1324 5.10554 68.1042 5.02155C68.076 4.93755 68.0666 4.84804 68.0766 4.75972V1.35916C68.0666 1.27084 68.076 1.18133 68.1042 1.09733C68.1324 1.01334 68.1785 0.937041 68.2392 0.874165C68.3 0.811289 68.3736 0.763466 68.4547 0.734284C68.5358 0.705103 68.6223 0.695319 68.7075 0.705668H72.3532C72.4388 0.694653 72.5257 0.703939 72.6073 0.732824C72.6889 0.761708 72.7631 0.809434 72.8242 0.872391C72.8854 0.935348 72.932 1.01189 72.9603 1.09622C72.9887 1.18055 72.9982 1.27046 72.9881 1.35916V4.75972C72.9982 4.84842 72.9887 4.93833 72.9603 5.02266C72.932 5.107 72.8854 5.18353 72.8242 5.24649C72.7631 5.30945 72.6889 5.35717 72.6073 5.38606C72.5257 5.41494 72.4388 5.42423 72.3532 5.41321H68.7075ZM72.9531 26.8614C72.9638 26.9499 72.9549 27.0397 72.927 27.1241C72.8991 27.2085 72.853 27.2851 72.7921 27.3482C72.7312 27.4112 72.6572 27.459 72.5757 27.4879C72.4943 27.5168 72.4075 27.526 72.3221 27.5149H68.7387C68.6533 27.526 68.5665 27.5168 68.485 27.4879C68.4036 27.459 68.3296 27.4112 68.2687 27.3482C68.2078 27.2851 68.1616 27.2085 68.1337 27.1241C68.1058 27.0397 68.0969 26.9499 68.1077 26.8614V8.43863C68.0977 8.35031 68.1072 8.2608 68.1353 8.17681C68.1635 8.09281 68.2097 8.01651 68.2704 7.95364C68.3311 7.89076 68.4048 7.84294 68.4859 7.81376C68.567 7.78457 68.6534 7.77479 68.7387 7.78514H72.3221C72.4075 7.77398 72.4943 7.78321 72.5757 7.8121C72.6572 7.841 72.7312 7.8888 72.7921 7.95186C72.853 8.01492 72.8991 8.09156 72.927 8.17593C72.9549 8.2603 72.9638 8.35015 72.9531 8.43863V26.8614Z" fill="url(#paint0_linear_8301_175493)"/>
<defs>
<linearGradient id="paint0_linear_8301_175493" x1="0.00386464" y1="19.8424" x2="102.793" y2="19.8424" gradientUnits="userSpaceOnUse">
<stop stop-color="#995AFF"/>
<stop offset="1" stop-color="#DC59BF"/>
</linearGradient>
</defs>
</svg>
