<?xml version="1.0" encoding="utf-8"?>
<!-- Generator: Adobe Illustrator 26.5.0, SVG Export Plug-In . SVG Version: 6.00 Build 0)  -->
<svg version="1.1" id="Layer_1" xmlns="http://www.w3.org/2000/svg" xmlns:xlink="http://www.w3.org/1999/xlink" x="0px" y="0px"
	 viewBox="0 0 103 39" style="enable-background:new 0 0 103 39;" xml:space="preserve">
<g>
	<path d="M72.5,24.1c-1.1-1.1-2.9-1.7-5.3-1.7c-5.1,0-8.1,2.6-9,7.8h0c-0.2,0.9-0.5,1.6-0.9,2.1c-0.5,0.6-1,0.9-1.7,0.9
		c-1.3,0-1.9-0.7-1.9-2c0-0.3,0-0.7,0.1-1.1l0.6-3.6l0.8-4.5l0.9-5.3l0,0c0-0.4,0.1-0.7,0.1-1.1c0-1.4-0.4-2.4-1.2-3.3
		c-1.1-1.1-2.9-1.7-5.3-1.7c-5.1,0-8.1,2.6-9,7.8h0c-0.2,0.8-0.5,1.5-0.9,2c-0.5,0.6-1,0.9-1.7,0.9c-1.3,0-1.9-0.7-1.9-2
		c0-0.3,0-0.7,0.1-1.1l0.1-0.6l-5.6,0.8l-0.2,1.1c-0.1,0.5-0.1,1-0.1,1.4c0,1.4,0.4,2.4,1.2,3.3c1.1,1.1,2.9,1.7,5.3,1.7
		c5.1,0,8.1-2.6,9-7.8h0c0.2-0.8,0.5-1.5,0.9-2c0.5-0.6,1-0.9,1.7-0.9c1.3,0,1.9,0.7,1.9,2c0,0.3,0,0.7-0.1,1.1l-0.6,3.6L49,26.4
		l-0.9,5.3l0,0c0,0.4-0.1,0.7-0.1,1.1c0,1.4,0.4,2.4,1.2,3.3c1.1,1.1,2.9,1.7,5.3,1.7c5.1,0,8.1-2.6,9-7.8h0
		c0.2-0.9,0.5-1.6,0.9-2.1c0.5-0.6,1-0.9,1.7-0.9c1.3,0,1.9,0.7,1.9,2c0,0.3,0,0.7-0.1,1.1l-0.1,0.6h5.4l0.4-1.9
		c0.1-0.5,0.1-1,0.1-1.4C73.7,26,73.3,24.9,72.5,24.1z"/>
	<circle cx="68.3" cy="16.4" r="3.3"/>
	<circle cx="51.1" cy="4.6" r="3.3"/>
</g>
</svg>
