<svg width="267" height="96" viewBox="0 0 267 96" fill="none" xmlns="http://www.w3.org/2000/svg">
<path d="M50.4823 42.5733C50.5318 45.93 49.9148 49.2631 48.667 52.3795C47.4191 55.496 45.5653 58.3338 43.2129 60.7287C40.8604 63.1235 38.0562 65.0277 34.9625 66.331C31.8689 67.6342 28.5474 68.3106 25.1905 68.321C20.5194 68.4199 15.9925 66.7005 12.5649 63.5255V80.1679C12.5928 80.3898 12.5697 80.6152 12.4972 80.8268C12.4248 81.0384 12.3049 81.2306 12.1467 81.3887C11.9886 81.5469 11.7964 81.6668 11.5848 81.7393C11.3732 81.8117 11.1479 81.8348 10.926 81.8069H1.64894C1.42745 81.8328 1.20296 81.8083 0.992307 81.7351C0.781652 81.6619 0.590304 81.542 0.432615 81.3843C0.274926 81.2266 0.154991 81.0352 0.0818049 80.8246C0.00861921 80.6139 -0.0159166 80.3894 0.0100379 80.1679V19.4055C-0.0159166 19.184 0.00861921 18.9595 0.0818049 18.7488C0.154991 18.5382 0.274926 18.3468 0.432615 18.1891C0.590304 18.0314 0.781652 17.9115 0.992307 17.8383C1.20296 17.7651 1.42745 17.7406 1.64894 17.7665H8.65982C9.07154 17.7374 9.4807 17.8513 9.81807 18.0891C10.1554 18.327 10.4003 18.674 10.5112 19.0716L11.5228 22.6429C13.2784 20.7769 15.4097 19.3043 17.7761 18.3225C20.1426 17.3407 22.6903 16.8719 25.2512 16.9471C28.5957 16.9548 31.9055 17.6258 34.989 18.9213C38.0725 20.2168 40.8684 22.111 43.2149 24.4942C45.5614 26.8775 47.412 29.7026 48.6594 32.8058C49.9069 35.9091 50.5264 39.229 50.4823 42.5733ZM37.8971 42.7352C37.8971 34.8642 32.4442 28.9559 24.9376 28.9559C17.431 28.9559 11.7859 34.8642 11.7859 42.7352C11.7859 50.6062 17.5221 56.2616 25.0185 56.2616C32.515 56.2616 37.8971 50.6466 37.8971 42.7352ZM91.4448 19.7697C91.6456 19.8647 91.8236 20.0018 91.9668 20.1717C92.1099 20.3416 92.2148 20.5403 92.2743 20.7543C92.3338 20.9683 92.3465 21.1927 92.3116 21.4121C92.2767 21.6315 92.195 21.8408 92.0721 22.0258L87.9647 29.7349C87.8855 29.9444 87.7581 30.1322 87.5928 30.2833C87.4274 30.4344 87.2289 30.5445 87.0132 30.6045C86.7974 30.6646 86.5706 30.6731 86.351 30.6292C86.1314 30.5853 85.9252 30.4904 85.7491 30.352C83.9554 29.3057 81.9269 28.7282 79.8511 28.6726C74.6005 28.6726 69.1881 33.3062 69.1881 42.1585V65.6096C69.216 65.8315 69.1929 66.0569 69.1204 66.2685C69.048 66.4801 68.9281 66.6723 68.7699 66.8304C68.6118 66.9886 68.4196 67.1085 68.208 67.1809C67.9964 67.2534 67.7711 67.2765 67.5492 67.2486H58.2418C58.0199 67.2765 57.7945 67.2534 57.583 67.1809C57.3714 67.1085 57.1792 66.9886 57.021 66.8304C56.8629 66.6723 56.743 66.4801 56.6705 66.2685C56.598 66.0569 56.5749 65.8315 56.6029 65.6096V19.4055C56.5769 19.184 56.6015 18.9595 56.6746 18.7488C56.7478 18.5382 56.8678 18.3468 57.0255 18.1891C57.1831 18.0314 57.3745 17.9115 57.5852 17.8383C57.7958 17.7651 58.0203 17.7406 58.2418 17.7665H65.4145C65.8266 17.7354 66.2367 17.8486 66.5745 18.0867C66.9123 18.3248 67.1567 18.673 67.2659 19.0716L68.8643 23.7558C71.8083 19.6483 75.7943 16.9471 81.6114 16.9471C85.0805 17.0059 88.4726 17.9796 91.4448 19.7697ZM88.9156 42.8161C89.0502 35.9785 91.8609 29.4663 96.744 24.6783C101.627 19.8902 108.193 17.2082 115.032 17.2082C121.871 17.2082 128.437 19.8902 133.32 24.6783C138.203 29.4663 141.014 35.9785 141.148 42.8161C141.148 57.0406 129.382 68.4828 114.905 68.4828C111.511 68.5149 108.143 67.8752 104.997 66.6007C101.85 65.3261 98.9866 63.4419 96.5711 61.0564C94.1556 58.6709 92.2356 55.8312 90.9218 52.7008C89.6079 49.5704 88.9262 46.2111 88.9156 42.8161ZM128.563 42.7352C128.612 40.9271 128.299 39.1274 127.641 37.4425C126.984 35.7575 125.995 34.2215 124.733 32.9251C123.472 31.6288 121.964 30.5984 120.297 29.8948C118.631 29.1912 116.841 28.8287 115.032 28.8287C113.223 28.8287 111.433 29.1912 109.766 29.8948C108.1 30.5984 106.592 31.6288 105.33 32.9251C104.069 34.2215 103.08 35.7575 102.423 37.4425C101.765 39.1274 101.451 40.9271 101.501 42.7352C101.451 44.5433 101.765 46.343 102.423 48.0279C103.08 49.7128 104.069 51.2489 105.33 52.5452C106.592 53.8416 108.1 54.872 109.766 55.5756C111.433 56.2792 113.223 56.6417 115.032 56.6417C116.841 56.6417 118.631 56.2792 120.297 55.5756C121.964 54.872 123.472 53.8416 124.733 52.5452C125.995 51.2489 126.984 49.7128 127.641 48.0279C128.299 46.343 128.612 44.5433 128.563 42.7352ZM161.695 65.6096C161.723 65.8315 161.7 66.0569 161.628 66.2685C161.555 66.4801 161.435 66.6723 161.277 66.8304C161.119 66.9886 160.927 67.1085 160.715 67.1809C160.504 67.2534 160.278 67.2765 160.056 67.2486H150.749C150.527 67.2765 150.302 67.2534 150.09 67.1809C149.879 67.1085 149.686 66.9886 149.528 66.8304C149.37 66.6723 149.25 66.4801 149.178 66.2685C149.105 66.0569 149.082 65.8315 149.11 65.6096V29.4112H144.922C144.7 29.4371 144.476 29.4126 144.265 29.3394C144.054 29.2662 143.863 29.1463 143.705 28.9886C143.548 28.8309 143.428 28.6395 143.355 28.4289C143.281 28.2182 143.257 27.9937 143.283 27.7722V19.4055C143.257 19.184 143.281 18.9595 143.355 18.7488C143.428 18.5382 143.548 18.3468 143.705 18.1891C143.863 18.0314 144.054 17.9115 144.265 17.8383C144.476 17.7651 144.7 17.7406 144.922 17.7665H149.11V14.5291C149.11 4.41215 154.765 0.294552 167.189 0.294552H168.959C169.181 0.268295 169.407 0.292972 169.618 0.366717C169.83 0.440461 170.022 0.561342 170.18 0.720212C170.338 0.879083 170.457 1.07178 170.53 1.28373C170.602 1.49569 170.626 1.72134 170.598 1.94362V9.11654C170.598 10.1282 170.102 10.715 169.161 10.715H167.846C163.375 10.715 161.695 12.5968 161.695 16.1681V17.807H169.03C169.251 17.781 169.476 17.8056 169.686 17.8788C169.897 17.952 170.088 18.0719 170.246 18.2296C170.404 18.3873 170.524 18.5786 170.597 18.7893C170.67 19 170.695 19.2245 170.669 19.4459V27.8127C170.695 28.0342 170.67 28.2587 170.597 28.4693C170.524 28.68 170.404 28.8713 170.246 29.029C170.088 29.1867 169.897 29.3067 169.686 29.3799C169.476 29.453 169.251 29.4776 169.03 29.4516H161.695V65.6096ZM212.865 65.6096C212.892 65.8321 212.867 66.0576 212.793 66.2691C212.72 66.4806 212.599 66.6725 212.44 66.8304C212.281 66.9883 212.088 67.108 211.876 67.1805C211.664 67.2529 211.439 67.2762 211.216 67.2486H202.041C201.819 67.2765 201.593 67.2534 201.382 67.1809C201.17 67.1085 200.978 66.9886 200.82 66.8304C200.662 66.6723 200.542 66.4801 200.469 66.2685C200.397 66.0569 200.374 65.8315 200.402 65.6096V4.80671C200.374 4.58481 200.397 4.35945 200.469 4.14786C200.542 3.93627 200.662 3.74406 200.82 3.58591C200.978 3.42776 201.17 3.30786 201.382 3.23539C201.593 3.16292 201.819 3.13979 202.041 3.16777H211.216C211.439 3.14014 211.664 3.16343 211.876 3.23587C212.088 3.30831 212.281 3.42801 212.44 3.58591C212.599 3.7438 212.72 3.93576 212.793 4.14726C212.867 4.35877 212.892 4.58427 212.865 4.80671V65.6096ZM218.237 42.7757C218.237 28.6726 228.283 16.9471 242.518 16.9471C257.895 16.9471 267 27.8936 267 42.6947C267 43.5951 267 44.536 266.879 45.5679C266.865 45.7776 266.809 45.9823 266.713 46.1694C266.617 46.3564 266.484 46.5219 266.322 46.6556C266.16 46.7892 265.972 46.8883 265.771 46.9465C265.569 47.0048 265.357 47.0211 265.149 46.9944H231.116C231.824 49.9405 233.51 52.5594 235.899 54.4229C238.288 56.2863 241.238 57.2841 244.268 57.253C247.797 57.2744 251.233 56.1173 254.03 53.965C254.185 53.8033 254.375 53.681 254.587 53.6084C254.798 53.5358 255.024 53.515 255.245 53.5477C255.466 53.5804 255.676 53.6657 255.857 53.7964C256.038 53.9271 256.186 54.0994 256.286 54.2989L260.667 60.5309C260.813 60.6889 260.923 60.8762 260.99 61.0802C261.057 61.2843 261.08 61.5004 261.057 61.714C261.034 61.9277 260.966 62.134 260.857 62.319C260.748 62.5041 260.6 62.6636 260.424 62.787C255.674 66.529 249.789 68.5383 243.742 68.4828C228.9 68.4828 218.237 56.7977 218.237 42.7757ZM254.526 37.5654C253.09 31.4143 248.82 27.8127 242.922 27.8127C237.024 27.8127 232.583 31.4952 231.025 37.5654H254.526ZM100.327 89.1012C99.3763 89.7082 98.5771 89.6576 97.9903 88.8685L93.0837 82.0396C92.5071 81.2504 92.8814 80.2994 94.2269 79.4496C102.55 74.1623 112.521 72.1044 122.257 73.6645C131.993 75.2245 140.822 80.2944 147.077 87.9175C148.088 89.1518 148.088 90.1736 147.35 90.7401L140.521 95.6772C139.722 96.2539 138.943 96.0414 138.235 95.1714C133.75 89.7006 127.417 86.0622 120.433 84.9437C113.448 83.8252 106.296 85.3042 100.327 89.1012ZM178.459 11.8178C178.237 11.8437 178.013 11.8192 177.802 11.746C177.591 11.6728 177.4 11.5529 177.242 11.3952C177.085 11.2375 176.965 11.0461 176.891 10.8355C176.818 10.6248 176.794 10.4003 176.82 10.1788V1.65022C176.794 1.42873 176.818 1.20423 176.891 0.993571C176.965 0.782911 177.085 0.591557 177.242 0.433865C177.4 0.276172 177.591 0.156233 177.802 0.0830459C178.013 0.00985842 178.237 -0.014678 178.459 0.0112771H187.928C188.15 -0.0163481 188.376 0.00694106 188.588 0.0793826C188.8 0.151824 188.992 0.271521 189.151 0.429417C189.31 0.587313 189.431 0.779273 189.505 0.990775C189.578 1.20228 189.603 1.42778 189.577 1.65022V10.1788C189.603 10.4013 189.578 10.6268 189.505 10.8383C189.431 11.0498 189.31 11.2417 189.151 11.3996C188.992 11.5575 188.8 11.6772 188.588 11.7497C188.376 11.8221 188.15 11.8454 187.928 11.8178H178.459ZM189.486 65.6096C189.514 65.8315 189.491 66.0569 189.418 66.2685C189.346 66.4801 189.226 66.6723 189.068 66.8304C188.91 66.9886 188.717 67.1085 188.506 67.1809C188.294 67.2534 188.069 67.2765 187.847 67.2486H178.54C178.318 67.2765 178.092 67.2534 177.881 67.1809C177.669 67.1085 177.477 66.9886 177.319 66.8304C177.161 66.6723 177.041 66.4801 176.968 66.2685C176.896 66.0569 176.873 65.8315 176.901 65.6096V19.4055C176.875 19.184 176.899 18.9595 176.972 18.7488C177.046 18.5382 177.165 18.3468 177.323 18.1891C177.481 18.0314 177.672 17.9115 177.883 17.8383C178.094 17.7651 178.318 17.7406 178.54 17.7665H187.847C188.069 17.7386 188.294 17.7617 188.506 17.8342C188.717 17.9066 188.91 18.0265 189.068 18.1847C189.226 18.3428 189.346 18.535 189.418 18.7466C189.491 18.9582 189.514 19.1836 189.486 19.4055V65.6096Z" fill="url(#paint0_linear_6942_45454)"/>
<defs>
<linearGradient id="paint0_linear_6942_45454" x1="0.0100379" y1="48.0061" x2="266.99" y2="48.0061" gradientUnits="userSpaceOnUse">
<stop stop-color="#995AFF"/>
<stop offset="1" stop-color="#DC59BF"/>
</linearGradient>
</defs>
</svg>
