<?xml version="1.0" encoding="utf-8"?>
<!-- Generator: Adobe Illustrator 26.5.0, SVG Export Plug-In . SVG Version: 6.00 Build 0)  -->
<svg version="1.1" id="Layer_1" xmlns="http://www.w3.org/2000/svg" xmlns:xlink="http://www.w3.org/1999/xlink" x="0px" y="0px"
	 viewBox="0 0 46 62" style="enable-background:new 0 0 46 62;" xml:space="preserve">
<g>
	<path d="M44.3,35.6c-1.1-1.2-3-1.7-5.6-1.7c-5.3,0-8.5,2.7-9.4,8.1h0c-0.2,0.9-0.5,1.6-0.9,2.2c-0.5,0.6-1.1,0.9-1.8,0.9
		c-1.3,0-2-0.7-2-2.1c0-0.3,0-0.7,0.1-1.1l0.7-3.8l0.8-4.7l1-5.6l0,0c0.1-0.4,0.1-0.8,0.1-1.1c0-1.4-0.4-2.6-1.3-3.4
		c-1.1-1.2-3-1.7-5.6-1.7c-5.3,0-8.5,2.7-9.4,8.1h0c-0.2,0.9-0.5,1.5-0.9,2.1c-0.5,0.6-1.1,0.9-1.8,0.9c-1.3,0-2-0.7-2-2.1
		c0-0.3,0-0.7,0.1-1.1l0.1-0.6l-5.8,0.9l-0.2,1.1c-0.1,0.5-0.1,1-0.1,1.5c0,1.4,0.4,2.6,1.3,3.4c1.1,1.2,3,1.7,5.6,1.7
		c5.3,0,8.5-2.7,9.4-8.1h0c0.2-0.9,0.5-1.5,0.9-2.1c0.5-0.6,1.1-0.9,1.8-0.9c1.3,0,2,0.7,2,2.1c0,0.3,0,0.7-0.1,1.1l-0.7,3.8
		l-0.8,4.7l-1,5.6l0,0c-0.1,0.4-0.1,0.8-0.1,1.1c0,1.4,0.4,2.6,1.3,3.4c1.1,1.2,3,1.7,5.6,1.7c5.3,0,8.5-2.7,9.4-8.1h0
		c0.2-0.9,0.5-1.6,0.9-2.2c0.5-0.6,1.1-0.9,1.8-0.9c1.3,0,2,0.7,2,2.1c0,0.3,0,0.7-0.1,1.1l-0.1,0.6h5.7l0.4-2
		c0.1-0.5,0.1-1,0.1-1.5C45.6,37.6,45.2,36.5,44.3,35.6z"/>
	<circle cx="40" cy="27.5" r="3.4"/>
	<circle cx="21.9" cy="15.2" r="3.4"/>
</g>
</svg>
