
<svg width="46" height="62" viewBox="0 0 46 62" fill="none" xmlns="http://www.w3.org/2000/svg">
<path d="M1.1485e-08 20.1943C-8.98948e-05 17.5285 0.527673 14.889 1.55284 12.4281C2.57801 9.96727 4.08029 7.73376 5.97303 5.85645C7.86576 3.97913 10.1115 2.49517 12.5806 1.49016C15.0498 0.485151 17.6935 -0.0210055 20.3593 0.00088841C23.0285 -0.0241301 25.6763 0.479489 28.1499 1.48271C30.6236 2.48592 32.8742 3.96889 34.772 5.8461C36.6697 7.72331 38.1771 9.95763 39.2072 12.4202C40.2373 14.8828 40.7697 17.525 40.7738 20.1943C40.7738 31.3058 31.5892 40.2298 20.2961 40.2298C17.6454 40.2558 15.0158 39.7573 12.5586 38.7628C10.1014 37.7684 7.86524 36.2977 5.97879 34.4355C4.09233 32.5733 2.59289 30.3563 1.56679 27.9121C0.540687 25.468 0.0082045 22.8451 1.1485e-08 20.1943H1.1485e-08ZM30.9495 20.1311C30.9881 18.7197 30.7435 17.3149 30.23 15.9996C29.7165 14.6844 28.9447 13.4853 27.96 12.4734C26.9754 11.4614 25.7979 10.6571 24.4972 10.1079C23.1964 9.55865 21.7988 9.27568 20.3869 9.27568C18.975 9.27568 17.5773 9.55865 16.2766 10.1079C14.9759 10.6571 13.7984 11.4614 12.8137 12.4734C11.8291 13.4853 11.0572 14.6844 10.5438 15.9996C10.0303 17.3149 9.78565 18.7197 9.82425 20.1311C9.78565 21.5425 10.0303 22.9474 10.5438 24.2626C11.0572 25.5779 11.8291 26.7769 12.8137 27.7888C13.7984 28.8008 14.9759 29.6051 16.2766 30.1544C17.5773 30.7036 18.975 30.9866 20.3869 30.9866C21.7988 30.9866 23.1964 30.7036 24.4972 30.1544C25.7979 29.6051 26.9754 28.8008 27.96 27.7888C28.9447 26.7769 29.7165 25.5779 30.23 24.2626C30.7435 22.9474 30.9881 21.5425 30.9495 20.1311ZM8.90816 56.3245C8.16581 56.7983 7.54193 56.7588 7.08388 56.1428L3.23 50.8121C2.77985 50.2041 3.07995 49.4538 4.12239 48.7904C10.62 44.6623 18.4043 43.0563 26.0052 44.2756C33.6061 45.4948 40.4975 49.4551 45.3779 55.4084C46.1676 56.364 46.1676 57.1695 45.5911 57.6038L40.2763 61.4656C39.6524 61.9079 39.0443 61.7499 38.4915 61.0708C34.9924 56.8011 30.0507 53.9607 24.6001 53.0862C19.1495 52.2117 13.5673 53.3637 8.90816 56.3245Z" fill="url(#paint0_linear_6652_85008)"/>
<defs>
<linearGradient id="paint0_linear_6652_85008" x1="10.58" y1="5.86284" x2="47.9055" y2="46.7332" gradientUnits="userSpaceOnUse">
<stop stop-color="#995AFF"/>
<stop offset="1" stop-color="#DC59BF"/>
</linearGradient>
</defs>
</svg>
