<svg width="476" height="394" viewBox="0 0 476 394" fill="none" xmlns="http://www.w3.org/2000/svg">
<path d="M466.21 221.251H96.3906V389.235H466.21V221.251Z" fill="url(#paint0_linear_562_37346)" fill-opacity="0.5"/>
<path d="M316.023 221.251H96.3906V389.235H316.023V221.251Z" fill="url(#paint1_linear_562_37346)" fill-opacity="0.5"/>
<path d="M84.9707 241.525L316.553 283.541L475.002 220.968V205.728L194.778 176.909L105.183 204.082L84.9707 241.525Z" fill="url(#paint2_linear_562_37346)"/>
<path d="M83.2031 226.851L314.768 268.875L474.977 205.701L192.984 162.208L103.406 189.408L83.2031 226.851Z" fill="url(#paint3_linear_562_37346)"/>
<path d="M9.82852 161.809C26.8029 142.093 60.0441 147.197 64.4757 147.878C66.059 148.116 90.0213 151.885 107.173 169.036C107.173 169.036 124.182 188.443 116.832 291.191C98.0146 291.191 79.2004 291.253 60.3891 291.377C42.2028 291.501 24.0107 291.687 5.81269 291.934C1.28219 261.345 -0.605913 230.422 0.169293 199.508C0.638102 182.216 1.82339 171.115 9.82852 161.809Z" fill="url(#paint4_linear_562_37346)"/>
<path opacity="0.35" d="M9.18318 201.419C9.65199 184.153 10.8373 173.043 18.8424 163.746C34.7642 145.233 65.0333 148.594 72.3573 149.638C69.7662 148.898 67.1348 148.307 64.476 147.869C60.0533 147.188 26.8033 142.084 9.8289 161.8C1.82377 171.115 0.638481 182.216 0.169673 199.509C-0.606551 230.428 1.28156 261.357 5.81307 291.952L14.5435 291.846C10.2143 261.908 8.42116 231.659 9.18318 201.419Z" fill="#141045"/>
<path d="M115.1 347.688C96.5861 340.611 82.9199 335.746 72.4557 332.146C65.9012 329.891 63.1503 327.432 57.5423 320.541C52.6596 314.535 51.2886 308.113 49.8998 301.576C49.1031 297.835 48.6326 294.032 48.4934 290.21C34.1797 290.922 19.925 292.535 5.81414 295.04C4.09812 303.655 3.29319 315.552 8.78621 326.768C25.4776 360.885 85.9273 359.107 106.431 358.506C108.996 358.426 111.614 358.302 114.25 358.134C114.445 354.463 114.737 350.978 115.1 347.688Z" fill="url(#paint5_linear_562_37346)"/>
<path opacity="0.35" d="M115.1 347.688C96.5861 340.611 82.9199 335.746 72.4557 332.146C65.9012 329.891 63.1503 327.432 57.5423 320.541C52.6596 314.535 51.2886 308.113 49.8998 301.576C49.1031 297.835 48.6326 294.032 48.4934 290.21C34.1797 290.922 19.925 292.535 5.81414 295.04C4.09812 303.655 3.29319 315.552 8.78621 326.768C25.4776 360.885 85.9273 359.107 106.431 358.506C108.996 358.426 111.614 358.302 114.25 358.134C114.445 354.463 114.737 350.978 115.1 347.688Z" fill="#141045"/>
<path d="M72.4557 332.189C65.9012 329.934 63.1503 327.475 57.5423 320.584C52.6596 314.578 51.2886 308.156 49.8998 301.62C48.4917 294.962 48.1069 288.128 48.7588 281.355C60.5763 280.222 71.9073 279.081 83.0791 277.94C57.2285 276.548 31.3036 278.13 5.81414 282.655C4.09812 291.27 3.29319 303.168 8.78621 314.384C25.4776 348.5 85.9273 346.722 106.431 346.121L110.544 345.962C94.3216 339.823 82.0442 335.436 72.4557 332.189Z" fill="url(#paint6_linear_562_37346)"/>
<path d="M140.75 57.9821C177.264 34.7186 214.433 33.2148 227.312 33.2148C240.19 33.2148 277.35 34.7097 313.864 57.9821" stroke="url(#paint7_angular_562_37346)" stroke-width="6.5" stroke-linecap="round" stroke-linejoin="round"/>
<path d="M348.654 184.038C357.115 184.038 363.975 182.692 363.975 181.031C363.975 179.37 357.115 178.023 348.654 178.023C340.193 178.023 333.334 179.37 333.334 181.031C333.334 182.692 340.193 184.038 348.654 184.038Z" fill="url(#paint8_linear_562_37346)"/>
<path d="M343.542 184.25C344.258 181.827 344.992 177.74 342.958 174.37C342.069 173.146 341.029 172.041 339.862 171.079C336.731 168.143 335.165 166.657 332.874 166.082C330.044 165.356 328.779 166.542 327.399 165.356C326.019 164.171 325.585 161.438 326.673 160.12C328.213 158.262 331.521 160.659 333.75 158.89C336.324 156.874 335.519 150.929 333.927 147.329C332.913 145.293 331.73 143.346 330.389 141.509C328.204 138.272 327.195 137.352 327.487 135.989C327.823 134.406 329.699 133.168 331.406 133.079C334.245 132.929 336.218 135.928 336.642 136.573C339.022 140.173 338.73 144.959 338.411 150.523C338.217 153.751 338.19 155.211 339.146 157.068C340.357 159.439 343.029 161.694 344.824 161.093C346.195 160.633 346.593 158.28 347.425 153.574C348.141 149.523 348.477 147.462 347.717 145.808C346.567 143.305 344.718 143.632 343.648 140.934C342.976 139.245 342.648 136.511 344.232 134.822C345.072 133.937 346.646 133.132 348.009 133.663C348.562 133.942 349.038 134.354 349.393 134.861C349.748 135.369 349.972 135.958 350.043 136.573C350.291 138.165 349.389 139.121 350.043 140.058C350.18 140.282 350.373 140.466 350.602 140.593C350.832 140.72 351.09 140.786 351.352 140.784C352.953 140.483 353.334 134.68 353.121 130.903C352.977 128.838 352.636 126.792 352.104 124.791C351.264 121.589 350.751 121.536 350.22 119.413C349.335 116.016 350.043 113.221 351.379 107.489C351.856 105.464 352.263 103.474 353.856 101.97C354.236 101.607 355.359 100.563 356.332 100.873C357.562 101.253 357.818 103.527 357.924 104.411C358.499 109.462 355.704 111.709 355.934 117.423C355.97 118.293 356.07 119.159 356.235 120.015C356.934 123.553 358.491 125.322 359.331 127.206C360.534 129.957 359.977 132.513 359.03 136.794C357.632 143.181 354.979 144.968 355.333 150.275C355.386 151.044 355.572 153.733 356.615 153.99C357.659 154.246 359.393 151.92 360.251 149.771C361.471 146.71 360.631 144.773 361.843 144.101C362.834 143.561 364.497 144.225 365.381 145.41C366.381 146.861 363.86 148.948 364.656 150.063C364.919 150.322 365.244 150.511 365.599 150.612C365.954 150.714 366.329 150.726 366.69 150.646C369.211 150.275 369.238 146.666 371.927 145.56C373.82 144.773 376.518 145.472 377.446 147.011C378.755 149.169 376.562 152.946 373.811 154.565C373.475 154.745 373.126 154.898 372.767 155.025C367.814 156.9 365.284 155.839 361.569 157.572C360.286 158.078 359.153 158.903 358.278 159.969C356.412 162.367 356.102 166.108 357.394 166.931C358.358 167.541 359.428 165.984 362.63 165.33C363.382 165.171 368.15 164.189 369.609 166.489C370.565 168.01 369.928 170.726 368.574 171.354C367.221 171.982 366.071 170.062 363.267 170.053C360.932 170.053 358.774 171.389 358.844 172.052C359.004 173.105 364.85 172.388 367.433 175.246C367.661 175.444 367.842 175.69 367.963 175.967C368.084 176.244 368.142 176.545 368.132 176.847C368.017 178.156 366.098 178.881 365.938 178.943C363.975 179.659 363.072 178.439 360.56 178.412C358.208 178.439 355.96 179.392 354.307 181.066C353.15 182.36 352.437 183.99 352.272 185.719L343.542 184.25Z" fill="url(#paint9_linear_562_37346)"/>
<g opacity="0.2">
<path opacity="0.2" d="M368.582 149.479C370.554 149.196 371.005 146.94 372.376 145.437C372.207 145.473 372.042 145.523 371.881 145.587C370.068 146.33 369.466 148.241 368.484 149.488L368.582 149.479Z" fill="#3D17A4"/>
<path opacity="0.2" d="M360.947 170.486C361.692 170.224 362.475 170.087 363.265 170.08C366.06 170.08 367.192 172.017 368.572 171.38C369.021 171.13 369.377 170.742 369.589 170.274C368.537 170.044 367.369 168.894 365.167 168.894C363.607 168.858 362.094 169.429 360.947 170.486Z" fill="#3D17A4"/>
<path opacity="0.2" d="M352.103 124.791C352.636 126.792 352.976 128.838 353.12 130.903C353.288 133.557 353.12 137.299 352.466 139.324C352.585 139.43 352.726 139.51 352.879 139.557C353.031 139.604 353.192 139.618 353.35 139.599C354.943 139.298 355.332 133.486 355.119 129.709C354.976 127.647 354.635 125.603 354.102 123.606C353.218 120.395 352.74 120.351 352.209 118.228C351.325 114.831 352.032 111.983 353.377 106.304C353.846 104.296 354.217 102.342 355.783 100.847C355.071 101.047 354.427 101.435 353.917 101.97C352.289 103.474 351.917 105.508 351.44 107.49C350.104 113.177 349.432 116.017 350.281 119.413C350.759 121.536 351.272 121.589 352.103 124.791Z" fill="#3D17A4"/>
<path opacity="0.2" d="M360.257 149.797C359.814 150.882 359.219 151.898 358.488 152.814C359.55 153.07 361.275 150.744 362.124 148.603C362.63 147.107 362.945 145.553 363.061 143.977C362.633 143.877 362.183 143.927 361.788 144.119C360.638 144.8 361.478 146.737 360.257 149.797Z" fill="#3D17A4"/>
<path opacity="0.2" d="M347.751 145.808C348.511 147.462 348.175 149.523 347.459 153.574C346.91 156.723 346.574 158.811 345.955 159.987C346.235 160.017 346.519 159.987 346.786 159.899C348.157 159.439 348.556 157.086 349.396 152.389C350.104 148.338 350.448 146.277 349.688 144.623C348.529 142.119 346.689 142.438 345.61 139.74C344.947 138.051 344.619 135.317 346.185 133.646C345.457 133.871 344.797 134.275 344.266 134.822C342.682 136.485 343.009 139.245 343.682 140.934C344.752 143.632 346.601 143.305 347.751 145.808Z" fill="#3D17A4"/>
<path opacity="0.2" d="M362.477 177.245C360.452 177.276 358.494 177.972 356.904 179.227C358.056 178.73 359.294 178.462 360.549 178.439C363.061 178.439 363.963 179.686 365.927 178.97C366.594 178.726 367.199 178.337 367.696 177.829C365.838 178.404 364.901 177.272 362.477 177.245Z" fill="#3D17A4"/>
<path opacity="0.2" d="M374.657 153.857C369.704 155.733 367.174 154.671 363.468 156.405C362.651 156.754 361.883 157.209 361.186 157.758L361.531 157.599C365.246 155.83 367.775 156.927 372.729 155.052C373.088 154.925 373.437 154.771 373.773 154.592C374.191 154.333 374.585 154.037 374.949 153.707L374.657 153.857Z" fill="#3D17A4"/>
<path opacity="0.2" d="M345.469 183.065C346.194 180.633 346.928 176.546 344.885 173.176C343.998 171.954 342.961 170.848 341.798 169.886C338.658 166.949 337.092 165.463 334.801 164.897C331.97 164.171 330.706 165.357 329.334 164.163C328.716 163.551 328.291 162.772 328.113 161.92C327.936 161.069 328.013 160.185 328.335 159.377C328.02 159.373 327.709 159.437 327.422 159.565C327.134 159.694 326.879 159.883 326.672 160.12C325.584 161.438 326.009 164.145 327.397 165.357C328.786 166.568 330.051 165.357 332.873 166.082C335.164 166.675 336.729 168.143 339.861 171.08C341.028 172.041 342.068 173.147 342.956 174.37C344.991 177.74 344.257 181.827 343.54 184.251L352.262 185.71C352.318 185.214 352.413 184.723 352.545 184.242L345.469 183.065Z" fill="#3D17A4"/>
<path opacity="0.2" d="M333.94 147.321C335.409 150.656 336.196 155.91 334.321 158.307C334.824 158.222 335.299 158.012 335.701 157.697C338.266 155.68 337.47 149.736 335.869 146.127C334.87 144.096 333.705 142.152 332.384 140.315C330.19 137.069 329.182 136.158 329.474 134.787C329.623 134.218 329.93 133.703 330.358 133.301C329.71 133.476 329.117 133.81 328.631 134.274C328.146 134.738 327.785 135.315 327.581 135.954C327.289 137.317 328.297 138.237 330.482 141.474C331.797 143.322 332.954 145.278 333.94 147.321Z" fill="#3D17A4"/>
</g>
<path d="M363.93 207.832C363.931 207.953 363.894 208.071 363.824 208.17C363.755 208.268 363.655 208.342 363.541 208.381C353.878 211.714 343.377 211.714 333.714 208.381C333.602 208.34 333.505 208.266 333.437 208.168C333.368 208.069 333.332 207.952 333.334 207.832V180.818C333.333 180.724 333.356 180.631 333.399 180.548C333.443 180.464 333.506 180.392 333.584 180.339C333.662 180.286 333.751 180.252 333.845 180.242C333.939 180.231 334.034 180.244 334.121 180.279C343.455 183.907 353.809 183.907 363.143 180.279C363.231 180.244 363.326 180.231 363.419 180.242C363.513 180.252 363.603 180.286 363.681 180.339C363.758 180.392 363.822 180.464 363.865 180.548C363.909 180.631 363.931 180.724 363.93 180.818V207.832Z" fill="url(#paint10_linear_562_37346)"/>
<path d="M255.4 196.316C255.341 200.078 255.276 203.841 255.205 207.603C255.196 208.003 255.305 208.397 255.517 208.737C255.729 209.076 256.036 209.346 256.4 209.514L276.47 218.854C276.599 218.916 276.704 219.019 276.767 219.147C276.831 219.275 276.849 219.421 276.819 219.561C276.79 219.701 276.714 219.827 276.604 219.919C276.494 220.01 276.356 220.062 276.213 220.066L234.242 220.951C233.675 220.964 233.112 220.852 232.594 220.623C232.076 220.393 231.614 220.052 231.243 219.624C229.279 217.395 227.322 215.16 225.37 212.919C224.993 212.617 224.69 212.233 224.485 211.796C224.192 211.166 224.111 210.458 224.255 209.779C224.344 205.256 224.429 200.733 224.512 196.21L255.4 196.316Z" fill="url(#paint11_linear_562_37346)"/>
<path opacity="0.2" d="M224.245 209.761C224.101 210.441 224.182 211.148 224.475 211.778C224.68 212.215 224.983 212.6 225.36 212.901C227.312 215.142 229.27 217.377 231.233 219.606C231.605 220.034 232.066 220.376 232.584 220.605C233.103 220.834 233.665 220.946 234.232 220.933L276.204 220.048C276.347 220.045 276.484 219.993 276.594 219.901C276.704 219.81 276.78 219.684 276.81 219.544C276.839 219.404 276.821 219.258 276.758 219.129C276.694 219.001 276.589 218.898 276.46 218.837L256.399 209.513C256.174 209.409 255.971 209.265 255.797 209.089H224.263L224.245 209.761Z" fill="#141045"/>
<path d="M276.47 218.854L275.771 218.527L235.25 219.367C234.684 219.377 234.123 219.263 233.605 219.034C233.087 218.805 232.625 218.466 232.252 218.041L226.378 211.336C226.001 211.034 225.698 210.65 225.494 210.212C225.2 209.583 225.12 208.875 225.264 208.196C225.346 204.198 225.423 200.196 225.494 196.192H224.512L224.255 209.761C224.111 210.441 224.192 211.149 224.485 211.778C224.69 212.215 224.993 212.6 225.37 212.901C227.322 215.142 229.279 217.377 231.243 219.606C231.614 220.035 232.076 220.376 232.594 220.605C233.112 220.834 233.675 220.946 234.242 220.933L276.213 220.049C276.35 220.038 276.48 219.984 276.584 219.893C276.687 219.803 276.759 219.682 276.788 219.547C276.816 219.413 276.801 219.273 276.744 219.148C276.687 219.023 276.59 218.92 276.47 218.854Z" fill="url(#paint12_linear_562_37346)"/>
<path d="M146.645 201.809H329.543C330.406 201.813 331.26 201.636 332.051 201.29C332.841 200.944 333.551 200.437 334.134 199.8C334.717 199.164 335.16 198.413 335.436 197.595C335.712 196.777 335.813 195.911 335.734 195.051L326.509 85.4827C326.388 83.9247 325.683 82.4699 324.535 81.4101C323.386 80.3503 321.88 79.7639 320.317 79.7686H137.402C136.54 79.7716 135.688 79.9532 134.9 80.3019C134.112 80.6507 133.405 81.159 132.823 81.7948C132.241 82.4307 131.797 83.1802 131.52 83.9961C131.242 84.812 131.137 85.6766 131.21 86.5353L140.454 196.095C140.584 197.649 141.292 199.098 142.439 200.156C143.585 201.214 145.086 201.804 146.645 201.809Z" fill="url(#paint13_linear_562_37346)"/>
<path d="M327.87 198.625H157.621C156.237 198.651 154.892 198.166 153.842 197.264C152.791 196.363 152.109 195.106 151.925 193.734L143.177 87.5974C142.947 84.8907 145.123 82.7501 148.068 82.7501H318.308C319.692 82.7228 321.039 83.2065 322.089 84.1088C323.14 85.0111 323.822 86.2687 324.004 87.6416L332.752 193.734C332.982 196.396 330.789 198.625 327.87 198.625Z" fill="url(#paint14_linear_562_37346)"/>
<path d="M160.744 85.5622H160.329C160.329 85.5622 160.329 85.5003 160.329 85.4649C160.326 85.4121 160.341 85.36 160.372 85.3168C160.402 85.2736 160.446 85.2417 160.497 85.2261C160.57 85.2168 160.644 85.2168 160.718 85.2261C160.797 85.2261 160.824 85.2261 160.824 85.1288C160.824 85.0315 160.824 84.8988 160.824 84.7838C160.824 84.6688 160.824 84.6865 160.718 84.6865H160.337L160.046 84.7484C159.945 84.7749 159.855 84.83 159.786 84.907C159.717 84.984 159.672 85.0795 159.656 85.1819C159.647 85.2731 159.647 85.3649 159.656 85.4561C159.652 85.4913 159.652 85.527 159.656 85.5622H159.444C159.356 85.5622 159.338 85.5622 159.338 85.6595C159.338 85.7568 159.338 85.9249 159.338 86.0576V86.1549H159.639V86.7121C159.643 86.7976 159.643 86.8832 159.639 86.9686L159.692 87.9505C159.692 88.0655 159.692 88.0832 159.842 88.0832H160.293C160.39 88.0832 160.408 88.0832 160.399 87.977C160.399 87.4994 160.355 87.0217 160.329 86.5441V86.4556V86.1549H160.735C160.806 86.1549 160.833 86.1549 160.833 86.0753C160.833 85.9957 160.833 85.7834 160.833 85.633C160.833 85.4826 160.806 85.5711 160.744 85.5622Z" fill="#C25CCD"/>
<path d="M163.187 84.9343C163.187 84.837 163.187 84.8193 163.054 84.8193H162.603C162.506 84.8193 162.488 84.8193 162.488 84.9343C162.488 85.3412 162.533 85.7481 162.55 86.1462V86.2346C162.555 86.2639 162.555 86.2937 162.55 86.3231C162.55 86.8715 162.612 87.4287 162.639 87.986C162.639 88.0745 162.639 88.0922 162.762 88.0922H163.214C163.329 88.0922 163.346 88.0922 163.337 87.9772C163.337 87.6587 163.337 87.3491 163.337 87.0307C163.337 86.9069 163.337 86.7742 163.337 86.6503C163.333 86.621 163.333 86.5912 163.337 86.5619C163.249 86.0223 163.222 85.4739 163.187 84.9343Z" fill="#C25CCD"/>
<path d="M161.929 85.6598C161.929 85.589 161.929 85.5625 161.823 85.5625H161.257C161.213 85.5625 161.213 85.6244 161.213 85.6686V86.1198V86.6328C161.213 86.6328 161.213 86.6947 161.213 86.7301C161.213 87.1458 161.213 87.6146 161.275 87.9861C161.275 88.0658 161.275 88.0923 161.372 88.0923H161.903C161.914 88.0938 161.925 88.0927 161.935 88.0892C161.945 88.0857 161.955 88.0799 161.962 88.0722C161.97 88.0645 161.976 88.0551 161.979 88.0448C161.983 88.0345 161.984 88.0235 161.982 88.0127V87.9508L161.929 86.4736V86.394C161.929 86.3144 161.929 86.2436 161.929 86.164V85.6598Z" fill="#C25CCD"/>
<path d="M156.749 87.7476C156.896 87.8847 157.071 87.9874 157.262 88.0484C157.378 88.0983 157.5 88.1311 157.625 88.1457C157.821 88.1855 158.022 88.1855 158.218 88.1457C158.527 88.082 158.803 87.9094 158.996 87.6592C159.177 87.435 159.266 87.1503 159.244 86.8631C159.214 86.5858 159.097 86.3253 158.908 86.1201C158.712 85.8897 158.449 85.7258 158.156 85.6513C157.851 85.5537 157.523 85.5537 157.218 85.6513C156.978 85.7215 156.763 85.8598 156.599 86.0493C156.462 86.1985 156.367 86.3818 156.325 86.58C156.316 86.6417 156.316 86.7042 156.325 86.7658C156.316 86.8304 156.316 86.8958 156.325 86.9604C156.371 87.1893 156.465 87.4061 156.599 87.5973L156.749 87.7476ZM157.192 86.3412C157.214 86.3229 157.235 86.3021 157.254 86.2793C157.421 86.1694 157.62 86.1195 157.82 86.1378C157.93 86.1506 158.037 86.1804 158.138 86.2262C158.23 86.2761 158.312 86.3441 158.377 86.4262C158.442 86.5083 158.491 86.6027 158.519 86.7039C158.555 86.8487 158.542 87.0018 158.481 87.1383C158.42 87.2747 158.315 87.3866 158.182 87.4557C158.084 87.4867 157.983 87.5103 157.882 87.5265C157.679 87.5433 157.477 87.4834 157.316 87.3584C157.206 87.2673 157.128 87.1433 157.094 87.0046C157.047 86.8959 157.031 86.7763 157.049 86.6591C157.066 86.5419 157.115 86.4318 157.192 86.3412Z" fill="#C25CCD"/>
<path d="M159.681 89.1352C159.507 88.9527 159.304 88.8002 159.08 88.6841C158.871 88.5733 158.648 88.4929 158.416 88.4453H158.08C157.878 88.4141 157.672 88.4141 157.47 88.4453C157.315 88.4677 157.163 88.5093 157.019 88.5691C156.9 88.6181 156.785 88.6742 156.674 88.7372C156.603 88.7372 156.594 88.8257 156.674 88.8787L156.939 89.1972C156.939 89.2502 157.019 89.2591 157.072 89.1972C157.219 89.1156 157.377 89.0532 157.54 89.0114H157.912C158.088 89.0096 158.263 89.0304 158.434 89.0733C158.628 89.1292 158.811 89.219 158.973 89.3387L159.186 89.5245C159.248 89.5775 159.274 89.5864 159.327 89.5245L159.69 89.2856C159.697 89.2798 159.703 89.2724 159.707 89.264C159.711 89.2556 159.714 89.2463 159.714 89.237C159.714 89.2276 159.711 89.2184 159.707 89.2099C159.703 89.2015 159.697 89.1941 159.69 89.1883C159.69 89.1703 159.687 89.1523 159.681 89.1352Z" fill="#C25CCD"/>
<path d="M156.357 85.6596C156.167 85.5587 155.953 85.5128 155.738 85.5269C155.566 85.5305 155.401 85.593 155.269 85.7038L155.11 85.8542L155.03 85.6684C155.022 85.6475 155.007 85.6296 154.988 85.617C154.969 85.6044 154.947 85.5977 154.924 85.5977H154.508C154.486 85.5976 154.465 85.6057 154.449 85.6204C154.432 85.6351 154.422 85.6554 154.42 85.6773C154.42 85.6773 154.42 85.6773 154.42 85.7304C154.42 86.4115 154.491 87.0926 154.517 87.7737C154.522 87.8 154.522 87.8269 154.517 87.8533V88.0213C154.517 88.1009 154.517 88.1275 154.641 88.1275H155.119C155.207 88.1275 155.234 88.1275 155.225 88.0213C155.216 87.9152 155.225 87.8267 155.225 87.7294C155.225 87.4198 155.225 87.1102 155.225 86.8449C155.216 86.7578 155.227 86.67 155.256 86.5875C155.285 86.505 155.332 86.4298 155.393 86.3672C155.466 86.302 155.556 86.2578 155.653 86.2391C155.749 86.2204 155.849 86.228 155.941 86.2611C155.99 86.2734 156.038 86.2912 156.083 86.3142C156.154 86.3142 156.189 86.3142 156.224 86.3142L156.428 85.9338C156.446 85.7215 156.437 85.695 156.357 85.6596Z" fill="#C25CCD"/>
<path d="M161.755 84.6601H161.251C161.171 84.6601 161.145 84.6601 161.145 84.7574V85.1732C161.145 85.2439 161.145 85.2616 161.242 85.2616H161.755C161.843 85.2616 161.87 85.2616 161.861 85.1643C161.852 85.067 161.861 84.8901 161.861 84.7486C161.861 84.6071 161.834 84.6601 161.755 84.6601Z" fill="#C25CCD"/>
<path d="M165.158 106.217H152.881C152.613 106.221 152.354 106.127 152.152 105.952C151.949 105.778 151.818 105.535 151.784 105.27L150.846 93.939C150.837 93.8124 150.855 93.6852 150.899 93.5662C150.944 93.4472 151.013 93.3391 151.103 93.2493C151.193 93.1595 151.301 93.0901 151.42 93.0458C151.539 93.0015 151.666 92.9833 151.793 92.9926H164.07C164.337 92.9901 164.595 93.0847 164.797 93.2589C164.999 93.4331 165.13 93.6749 165.167 93.939L166.104 105.27C166.114 105.397 166.096 105.524 166.051 105.643C166.007 105.762 165.938 105.87 165.848 105.96C165.758 106.05 165.65 106.119 165.531 106.163C165.412 106.208 165.285 106.226 165.158 106.217Z" fill="url(#paint15_linear_562_37346)"/>
<path d="M171.422 110.718H153.253C152.987 110.725 152.727 110.633 152.525 110.459C152.322 110.286 152.191 110.044 152.156 109.78L152.103 109.135C152.095 109.009 152.114 108.884 152.159 108.767C152.203 108.65 152.272 108.543 152.361 108.454C152.449 108.366 152.556 108.297 152.673 108.253C152.79 108.208 152.916 108.189 153.041 108.197H171.218C171.485 108.19 171.744 108.282 171.946 108.456C172.149 108.629 172.28 108.871 172.315 109.135L172.368 109.78C172.376 109.906 172.357 110.032 172.312 110.15C172.267 110.268 172.198 110.375 172.108 110.464C172.018 110.553 171.911 110.622 171.792 110.665C171.674 110.709 171.548 110.727 171.422 110.718Z" fill="url(#paint16_linear_562_37346)"/>
<path d="M220.965 124.173H154.359C154.094 124.176 153.836 124.083 153.635 123.91C153.433 123.738 153.301 123.498 153.262 123.236L152.475 113.647C152.466 113.522 152.484 113.395 152.528 113.277C152.571 113.159 152.64 113.051 152.729 112.961C152.818 112.872 152.925 112.802 153.043 112.757C153.16 112.712 153.287 112.693 153.413 112.701H220.019C220.287 112.696 220.547 112.79 220.751 112.964C220.955 113.139 221.088 113.382 221.124 113.647L221.912 123.236C221.92 123.362 221.9 123.488 221.856 123.606C221.811 123.724 221.741 123.831 221.651 123.92C221.562 124.008 221.454 124.077 221.336 124.121C221.217 124.165 221.091 124.183 220.965 124.173Z" fill="url(#paint17_linear_562_37346)"/>
<path d="M168.855 137.035H155.419C155.153 137.037 154.894 136.942 154.692 136.768C154.49 136.594 154.359 136.352 154.322 136.088L154.057 132.921C154.048 132.795 154.066 132.668 154.11 132.549C154.155 132.43 154.224 132.322 154.314 132.232C154.404 132.142 154.512 132.073 154.631 132.028C154.75 131.984 154.877 131.966 155.003 131.975H168.44C168.707 131.971 168.966 132.065 169.169 132.239C169.371 132.414 169.502 132.657 169.537 132.921L169.802 136.088C169.811 136.215 169.793 136.342 169.749 136.461C169.704 136.58 169.635 136.688 169.545 136.778C169.455 136.868 169.347 136.937 169.228 136.981C169.109 137.026 168.982 137.044 168.855 137.035Z" fill="url(#paint18_linear_562_37346)"/>
<path d="M161.648 130.001H154.855C154.587 130.006 154.326 129.912 154.123 129.738C153.919 129.564 153.786 129.321 153.749 129.055L153.59 127.1C153.581 126.974 153.599 126.846 153.643 126.727C153.688 126.608 153.757 126.5 153.847 126.41C153.937 126.321 154.045 126.251 154.164 126.207C154.283 126.163 154.41 126.144 154.537 126.154H161.339C161.606 126.149 161.865 126.243 162.068 126.418C162.27 126.592 162.401 126.835 162.436 127.1L162.595 129.055C162.604 129.182 162.586 129.309 162.542 129.428C162.497 129.547 162.428 129.655 162.338 129.745C162.248 129.835 162.14 129.904 162.021 129.948C161.902 129.993 161.775 130.011 161.648 130.001Z" fill="url(#paint19_linear_562_37346)"/>
<path d="M172.817 130.001H166.015C165.747 130.006 165.487 129.912 165.283 129.738C165.079 129.564 164.946 129.321 164.91 129.055L164.75 127.1C164.741 126.974 164.759 126.846 164.804 126.727C164.848 126.608 164.917 126.5 165.007 126.41C165.097 126.321 165.205 126.251 165.324 126.207C165.443 126.163 165.57 126.144 165.697 126.154H172.543C172.81 126.149 173.07 126.243 173.272 126.418C173.474 126.592 173.605 126.835 173.64 127.1L173.799 129.055C173.809 129.185 173.79 129.315 173.744 129.437C173.698 129.559 173.625 129.669 173.531 129.759C173.437 129.85 173.325 129.918 173.201 129.96C173.078 130.002 172.947 130.016 172.817 130.001Z" fill="url(#paint20_linear_562_37346)"/>
<path d="M183.991 130.001H177.189C176.921 130.006 176.66 129.912 176.457 129.738C176.253 129.564 176.12 129.321 176.083 129.055L175.924 127.1C175.915 126.974 175.933 126.846 175.977 126.727C176.022 126.608 176.091 126.5 176.181 126.41C176.271 126.321 176.379 126.251 176.498 126.207C176.617 126.163 176.744 126.144 176.871 126.154H183.673C183.94 126.149 184.199 126.243 184.402 126.418C184.604 126.592 184.735 126.835 184.77 127.1L184.929 129.055C184.938 129.181 184.92 129.307 184.876 129.426C184.832 129.544 184.764 129.652 184.675 129.741C184.586 129.831 184.479 129.9 184.361 129.945C184.243 129.99 184.117 130.009 183.991 130.001Z" fill="url(#paint21_linear_562_37346)"/>
<path d="M195.163 130.001H188.361C188.093 130.006 187.832 129.912 187.629 129.738C187.425 129.564 187.292 129.321 187.255 129.055L187.096 127.1C187.087 126.974 187.105 126.846 187.149 126.727C187.194 126.608 187.263 126.5 187.353 126.41C187.443 126.321 187.551 126.251 187.67 126.207C187.789 126.163 187.916 126.144 188.043 126.154H194.845C195.112 126.149 195.371 126.243 195.574 126.418C195.776 126.592 195.907 126.835 195.942 127.1L196.101 129.055C196.11 129.181 196.092 129.307 196.048 129.426C196.004 129.544 195.936 129.652 195.847 129.741C195.758 129.831 195.651 129.9 195.533 129.945C195.415 129.99 195.289 130.009 195.163 130.001Z" fill="url(#paint22_linear_562_37346)"/>
<path d="M206.333 130.001H199.531C199.263 130.006 199.002 129.912 198.798 129.738C198.595 129.564 198.462 129.321 198.425 129.055L198.266 127.1C198.257 126.974 198.275 126.846 198.319 126.727C198.364 126.608 198.433 126.5 198.523 126.41C198.613 126.321 198.721 126.251 198.84 126.207C198.959 126.163 199.086 126.144 199.212 126.154H206.015C206.282 126.149 206.541 126.243 206.743 126.418C206.946 126.592 207.077 126.835 207.111 127.1L207.271 129.055C207.28 129.181 207.262 129.307 207.218 129.426C207.174 129.544 207.106 129.652 207.017 129.741C206.928 129.831 206.821 129.9 206.703 129.945C206.585 129.99 206.459 130.009 206.333 130.001Z" fill="url(#paint23_linear_562_37346)"/>
<path d="M326.562 145.384H229.731C229.089 145.39 228.466 145.164 227.978 144.745C227.49 144.327 227.17 143.746 227.078 143.11L223.133 95.2565C223.115 94.9544 223.161 94.652 223.268 94.3691C223.376 94.0862 223.542 93.8292 223.756 93.6152C223.97 93.4013 224.227 93.2351 224.51 93.1277C224.793 93.0203 225.095 92.974 225.397 92.9921H322.237C322.878 92.9852 323.5 93.2107 323.988 93.627C324.476 94.0433 324.797 94.6221 324.891 95.2565L328.836 143.11C328.854 143.414 328.807 143.717 328.7 144.001C328.592 144.285 328.425 144.543 328.21 144.758C327.995 144.973 327.737 145.14 327.453 145.247C327.169 145.355 326.866 145.402 326.562 145.384Z" fill="url(#paint24_linear_562_37346)"/>
<path d="M194.031 187.63H160.542C160.027 187.64 159.526 187.46 159.136 187.124C158.745 186.787 158.493 186.318 158.428 185.807L155.872 154.848C155.866 154.608 155.909 154.368 155.998 154.145C156.088 153.922 156.222 153.719 156.392 153.549C156.563 153.38 156.766 153.246 156.99 153.158C157.214 153.07 157.453 153.028 157.694 153.035H191.183C191.697 153.026 192.197 153.205 192.588 153.539C192.979 153.873 193.234 154.339 193.306 154.848L195.853 185.807C195.86 186.049 195.818 186.289 195.729 186.513C195.64 186.738 195.506 186.941 195.336 187.112C195.165 187.283 194.961 187.417 194.737 187.506C194.512 187.595 194.272 187.637 194.031 187.63Z" fill="url(#paint25_linear_562_37346)"/>
<path d="M236.958 187.63H203.505C202.989 187.639 202.488 187.458 202.097 187.122C201.706 186.786 201.451 186.318 201.382 185.807L198.835 154.848C198.828 154.608 198.871 154.368 198.961 154.145C199.05 153.922 199.185 153.719 199.355 153.549C199.526 153.38 199.729 153.246 199.953 153.158C200.177 153.07 200.416 153.028 200.657 153.035H234.11C234.624 153.026 235.124 153.205 235.515 153.539C235.907 153.873 236.162 154.339 236.233 154.848L238.781 185.807C238.788 186.049 238.746 186.289 238.657 186.513C238.568 186.738 238.434 186.941 238.263 187.112C238.093 187.283 237.889 187.417 237.664 187.506C237.44 187.595 237.2 187.637 236.958 187.63Z" fill="url(#paint26_linear_562_37346)"/>
<path d="M279.883 187.631H246.394C245.878 187.64 245.377 187.459 244.986 187.123C244.595 186.787 244.34 186.32 244.271 185.808L241.724 154.849C241.709 154.608 241.747 154.366 241.833 154.139C241.919 153.913 242.052 153.707 242.223 153.536C242.395 153.365 242.6 153.231 242.827 153.145C243.053 153.059 243.295 153.022 243.537 153.036H277.035C277.548 153.025 278.048 153.204 278.438 153.539C278.828 153.873 279.081 154.34 279.149 154.849L281.705 185.808C281.712 186.05 281.67 186.29 281.581 186.514C281.492 186.739 281.358 186.943 281.188 187.113C281.017 187.284 280.813 187.418 280.589 187.507C280.364 187.596 280.124 187.638 279.883 187.631Z" fill="url(#paint27_linear_562_37346)"/>
<path d="M322.81 187.631H289.303C288.789 187.639 288.289 187.459 287.899 187.123C287.509 186.786 287.256 186.319 287.189 185.808L284.642 154.849C284.627 154.608 284.665 154.366 284.751 154.139C284.837 153.913 284.97 153.707 285.141 153.536C285.313 153.365 285.518 153.231 285.745 153.145C285.971 153.059 286.213 153.022 286.455 153.036H319.953C320.466 153.027 320.965 153.207 321.354 153.541C321.744 153.875 321.997 154.341 322.067 154.849L324.614 185.808C324.629 186.05 324.593 186.293 324.508 186.519C324.423 186.746 324.291 186.952 324.121 187.125C323.95 187.297 323.745 187.431 323.519 187.518C323.293 187.605 323.052 187.644 322.81 187.631Z" fill="url(#paint28_linear_562_37346)"/>
<path d="M315.761 88.6051H306.173C305.956 88.6067 305.745 88.5282 305.582 88.3846C305.419 88.2411 305.314 88.0425 305.288 87.8267L305.005 84.4566C304.999 84.3515 305.015 84.2463 305.052 84.1479C305.089 84.0494 305.147 83.96 305.222 83.8856C305.296 83.8112 305.385 83.7534 305.484 83.7161C305.582 83.6788 305.688 83.6629 305.793 83.6694H315.381C315.6 83.668 315.811 83.7478 315.974 83.8931C316.138 84.0385 316.242 84.2393 316.266 84.4566L316.549 87.8267C316.554 87.9311 316.537 88.0353 316.499 88.1327C316.461 88.2301 316.403 88.3184 316.329 88.3918C316.255 88.4653 316.166 88.5223 316.068 88.559C315.97 88.5958 315.866 88.6115 315.761 88.6051Z" fill="url(#paint29_linear_562_37346)"/>
<path d="M302.929 88.6051H290.191C289.974 88.6067 289.764 88.5282 289.601 88.3846C289.438 88.2411 289.333 88.0425 289.307 87.8267L289.033 84.4566C289.026 84.3515 289.042 84.2463 289.079 84.1479C289.117 84.0494 289.174 83.96 289.249 83.8856C289.323 83.8112 289.413 83.7534 289.511 83.7161C289.61 83.6788 289.715 83.6629 289.82 83.6694H302.531C302.749 83.668 302.961 83.7478 303.124 83.8931C303.288 84.0385 303.391 84.2393 303.415 84.4566L303.698 87.8267C303.703 87.9295 303.687 88.0322 303.65 88.1283C303.613 88.2244 303.557 88.3118 303.485 88.385C303.412 88.4582 303.326 88.5155 303.23 88.5534C303.134 88.5913 303.032 88.6089 302.929 88.6051Z" fill="url(#paint30_linear_562_37346)"/>
<g opacity="0.3">
<path opacity="0.3" d="M253.47 129.436C253.47 129.436 253.232 129.224 252.86 128.932L252.736 128.994C253.152 129.285 253.444 129.471 253.47 129.436Z" fill="white"/>
<path opacity="0.3" d="M226.111 131.249C226.448 131.389 226.776 131.548 227.093 131.727C226.686 131.002 226.315 130.267 225.961 129.516L226.111 131.249Z" fill="white"/>
<path opacity="0.3" d="M246.917 114.275C247.634 114.381 248.342 114.496 249.049 114.62C247.899 114.187 246.696 113.736 245.467 113.399L246.351 113.921L246.917 114.275Z" fill="white"/>
</g>
<path opacity="0.5" d="M140.426 196.095C140.557 197.649 141.265 199.098 142.411 200.156C143.557 201.214 145.058 201.804 146.618 201.809H329.542C330.405 201.813 331.259 201.636 332.05 201.29C332.84 200.944 333.55 200.437 334.133 199.8C334.716 199.164 335.159 198.413 335.435 197.595C335.711 196.777 335.812 195.911 335.733 195.051L335.017 186.56H139.621L140.426 196.095Z" fill="url(#paint31_linear_562_37346)"/>
<path opacity="0.4" d="M243.177 196.202C245.36 196.202 247.13 194.432 247.13 192.248C247.13 190.064 245.36 188.294 243.177 188.294C240.993 188.294 239.223 190.064 239.223 192.248C239.223 194.432 240.993 196.202 243.177 196.202Z" fill="white"/>
<path d="M182.976 90.6214H182.321C182.321 90.5595 182.321 90.4975 182.321 90.4445C182.321 90.2587 182.365 90.0907 182.56 90.0287C182.674 90.0108 182.79 90.0108 182.905 90.0287C183.037 90.0287 183.082 90.0287 183.064 89.8518C183.046 89.6749 183.064 89.4449 183.064 89.2503C183.064 89.0557 183.002 89.0823 182.887 89.0823C182.772 89.0823 182.48 89.0823 182.286 89.0823C182.131 89.1017 181.979 89.1403 181.834 89.1973C181.674 89.2525 181.533 89.3528 181.428 89.4861C181.323 89.6194 181.258 89.7801 181.242 89.9491C181.233 90.1112 181.233 90.2736 181.242 90.4356C181.238 90.5004 181.238 90.5654 181.242 90.6302H180.897C180.764 90.6302 180.729 90.6302 180.738 90.7983C180.746 90.9663 180.782 91.2671 180.8 91.5059C180.811 91.5627 180.826 91.6188 180.844 91.674H181.321L181.41 92.6558C181.41 92.8062 181.41 92.9566 181.454 93.1069C181.507 93.6907 181.551 94.2657 181.604 94.876C181.604 95.0706 181.649 95.0972 181.843 95.0972H182.569C182.71 95.0972 182.746 95.0972 182.728 94.9203L182.516 92.3816C182.511 92.3316 182.511 92.2813 182.516 92.2312L182.471 91.6917H183.108C183.214 91.6917 183.267 91.6917 183.259 91.5501C183.259 91.2936 183.259 91.0371 183.197 90.7806C183.161 90.7098 183.082 90.6302 182.976 90.6214Z" fill="#C25CCD"/>
<path d="M186.813 89.5072C186.813 89.3302 186.813 89.3126 186.591 89.3037H186.238C186.123 89.3037 185.999 89.3037 185.875 89.3037C185.751 89.3037 185.689 89.3568 185.698 89.5072C185.769 90.2236 185.822 90.9401 185.884 91.6566C185.888 91.7066 185.888 91.7569 185.884 91.807C185.888 91.857 185.888 91.9073 185.884 91.9573C185.972 92.9392 186.052 93.9122 186.132 94.894C186.132 95.0532 186.185 95.0798 186.344 95.0798H187.051C187.228 95.0798 187.255 95.0798 187.246 94.8763C187.193 94.3279 187.149 93.7707 187.105 93.2134L187.051 92.5411C187.048 92.4911 187.048 92.4408 187.051 92.3908C186.972 91.4266 186.892 90.4713 186.813 89.5072Z" fill="#C25CCD"/>
<path d="M184.831 90.7901C184.831 90.6751 184.778 90.6221 184.663 90.6221H183.778C183.752 90.6421 183.731 90.6696 183.72 90.7011C183.709 90.7326 183.708 90.7667 183.716 90.799C183.716 91.0643 183.716 91.3297 183.787 91.5951C183.858 91.8604 183.831 92.2054 183.858 92.4796C183.862 92.5326 183.862 92.5858 183.858 92.6388C183.929 93.3818 183.991 94.1249 184.052 94.8679C184.052 95.0006 184.106 95.0448 184.212 95.0448H185.043C185.14 95.0448 185.176 95.0448 185.176 94.9033C185.18 94.871 185.18 94.8383 185.176 94.806C185.105 93.9214 185.034 93.0369 184.955 92.1523C184.959 92.1052 184.959 92.0579 184.955 92.0108C184.955 91.8781 184.955 91.7454 184.955 91.6128L184.831 90.7901Z" fill="#C25CCD"/>
<path d="M191.889 92.4797C191.819 92.1666 191.696 91.8676 191.527 91.5952C191.412 91.4625 191.306 91.321 191.182 91.1883C190.868 90.889 190.475 90.6863 190.049 90.6045H189.457C189.195 90.6038 188.936 90.6614 188.699 90.7731C188.462 90.8848 188.252 91.0477 188.086 91.2502C187.849 91.5224 187.687 91.8517 187.617 92.2055C187.613 92.2319 187.613 92.2588 187.617 92.2851C187.621 92.3115 187.621 92.3384 187.617 92.3647C187.573 92.6372 187.573 92.9149 187.617 93.1874C187.679 93.5352 187.814 93.8657 188.014 94.157C188.214 94.4484 188.474 94.6938 188.776 94.8768C189.014 95.0385 189.287 95.1443 189.572 95.1864H189.634C189.927 95.2334 190.225 95.2334 190.518 95.1864C190.882 95.1198 191.223 94.9615 191.509 94.7265C191.527 94.7144 191.542 94.6979 191.553 94.6787C191.563 94.6594 191.568 94.6378 191.568 94.6159C191.568 94.594 191.563 94.5725 191.553 94.5532C191.542 94.5339 191.527 94.5174 191.509 94.5053L191.076 93.9481C191.005 93.8596 190.943 93.8508 190.863 93.9481C190.672 94.1012 190.442 94.1993 190.199 94.232C189.956 94.2647 189.709 94.2308 189.483 94.1338C189.316 94.0519 189.167 93.9379 189.044 93.7983C188.921 93.6586 188.827 93.4961 188.767 93.32H191.819C191.919 93.32 191.963 93.2758 191.951 93.1874C191.934 92.9132 191.916 92.7097 191.889 92.4797ZM189.589 92.3913H188.705C188.725 92.1982 188.799 92.0145 188.917 91.8606C189.075 91.6627 189.303 91.5329 189.554 91.4979C189.684 91.4888 189.814 91.4888 189.943 91.4979C190.161 91.5421 190.362 91.6496 190.519 91.8069C190.676 91.9642 190.784 92.1644 190.828 92.3824L189.589 92.3913Z" fill="#C25CCD"/>
<path d="M170.848 90.7099C170.538 90.5932 170.204 90.5538 169.875 90.5949C169.611 90.6198 169.361 90.7247 169.158 90.8957L168.937 91.0814L168.831 90.7984C168.82 90.7539 168.794 90.7148 168.756 90.6887C168.719 90.6626 168.673 90.6512 168.628 90.6568H168.123C168.086 90.6519 168.049 90.6557 168.013 90.668C167.978 90.6803 167.946 90.7007 167.92 90.7276V90.8603L168.265 94.8938C168.269 94.9438 168.269 94.9941 168.265 95.0442V95.2742C168.265 95.5926 168.327 95.911 168.353 96.2295C168.353 96.3887 168.406 96.4329 168.574 96.4329H169.3C169.459 96.4329 169.494 96.4329 169.477 96.2383L169.371 94.9292V94.7965L169.583 94.9292H169.636C169.885 95.0758 170.166 95.1618 170.455 95.1802C170.744 95.1987 171.033 95.149 171.299 95.0353L171.458 94.9734C171.727 94.837 171.967 94.6509 172.166 94.425C172.228 94.3188 172.307 94.2215 172.36 94.1065C172.565 93.7059 172.646 93.253 172.59 92.8063C172.535 92.3254 172.34 91.8712 172.031 91.499C171.721 91.1268 171.31 90.8526 170.848 90.7099ZM171.184 93.797V93.8589C171.003 94.0142 170.776 94.1072 170.538 94.1242C170.371 94.1364 170.202 94.1154 170.043 94.0622C169.883 94.0091 169.736 93.925 169.609 93.8147H169.547C169.36 93.6218 169.231 93.3794 169.176 93.1159C169.102 92.7917 169.159 92.4514 169.335 92.1694V92.1163C169.468 91.9513 169.647 91.8284 169.848 91.7625C170.032 91.7072 170.225 91.6952 170.414 91.7275C170.603 91.7597 170.782 91.8353 170.936 91.9483C171.085 92.0661 171.208 92.2133 171.298 92.3807C171.388 92.548 171.442 92.732 171.458 92.9213C171.472 93.0726 171.455 93.2253 171.408 93.3698C171.361 93.5143 171.284 93.6476 171.184 93.7616V93.797Z" fill="#C25CCD"/>
<path d="M176.791 94.4782C177.032 94.7131 177.318 94.8966 177.631 95.0178C177.816 95.101 178.013 95.1518 178.215 95.1682C178.526 95.2148 178.842 95.1936 179.144 95.1062C179.645 94.9804 180.077 94.6628 180.347 94.2217C180.622 93.8073 180.741 93.3091 180.683 92.8153C180.621 92.3274 180.422 91.8672 180.108 91.4885C179.789 91.0948 179.357 90.8078 178.87 90.6658C178.393 90.489 177.869 90.489 177.393 90.6658C177.006 90.7919 176.671 91.0402 176.437 91.3735C176.221 91.6438 176.084 91.968 176.039 92.3111C176.03 92.42 176.03 92.5294 176.039 92.6384C176.026 92.753 176.026 92.8687 176.039 92.9833C176.127 93.3859 176.292 93.7675 176.526 94.1067C176.596 94.2482 176.685 94.3721 176.791 94.4782ZM177.41 91.9926L177.49 91.8777C177.742 91.6856 178.059 91.597 178.374 91.63C178.555 91.6495 178.73 91.7068 178.887 91.7981C179.05 91.892 179.191 92.0194 179.301 92.1719C179.411 92.3244 179.487 92.4985 179.524 92.6826C179.602 92.9255 179.597 93.1872 179.511 93.427C179.424 93.6669 179.261 93.8716 179.047 94.0094C178.894 94.0602 178.737 94.0987 178.578 94.1244C178.255 94.1444 177.937 94.0364 177.693 93.8237C177.677 93.8041 177.655 93.789 177.631 93.7794C177.454 93.6069 177.326 93.3901 177.26 93.1514C177.183 92.9617 177.156 92.7553 177.182 92.5522C177.209 92.3491 177.287 92.1563 177.41 91.9926Z" fill="#C25CCD"/>
<path d="M181.54 96.9021C181.258 96.5876 180.926 96.3216 180.558 96.1149C180.228 95.9213 179.87 95.781 179.497 95.6991C179.32 95.6991 179.134 95.6284 178.948 95.6107C178.629 95.5749 178.306 95.5928 177.993 95.6638C177.747 95.6998 177.508 95.7744 177.285 95.8849C177.097 95.9696 176.917 96.0702 176.746 96.1856C176.639 96.2476 176.639 96.3272 176.746 96.4333L177.197 96.9906C177.268 97.079 177.321 97.0967 177.4 97.0437C177.629 96.897 177.876 96.781 178.134 96.6987L178.718 96.6279C178.999 96.6234 179.279 96.6591 179.55 96.7341H179.62C179.943 96.8355 180.243 96.9976 180.505 97.2117C180.629 97.3137 180.747 97.423 180.859 97.539C180.947 97.6274 180.991 97.6451 181.071 97.539L181.637 97.1056C181.658 97.0827 181.67 97.0527 181.67 97.0215C181.67 96.9904 181.658 96.9604 181.637 96.9375C181.605 96.924 181.573 96.9122 181.54 96.9021Z" fill="#C25CCD"/>
<path d="M176.03 90.7893C175.734 90.6114 175.392 90.528 175.048 90.5505C174.912 90.5533 174.778 90.5829 174.653 90.6375C174.529 90.6922 174.416 90.7708 174.322 90.8689L174.075 91.1343C174.073 91.1137 174.073 91.0929 174.075 91.0723L173.933 90.7451C173.922 90.7093 173.9 90.678 173.869 90.6557C173.839 90.6334 173.803 90.6214 173.765 90.6212H173.102C173.084 90.6197 173.067 90.6221 173.05 90.6283C173.034 90.6346 173.019 90.6445 173.007 90.6573C172.995 90.6701 172.987 90.6854 172.981 90.7022C172.976 90.7189 172.975 90.7366 172.978 90.7539C172.974 90.7891 172.974 90.8248 172.978 90.86C173.075 92.0542 173.181 93.2572 173.279 94.4513C173.283 94.5013 173.283 94.5516 173.279 94.6017C173.279 94.699 173.279 94.7963 173.279 94.8936C173.279 94.9909 173.332 95.0793 173.473 95.0793H174.234C174.375 95.0793 174.411 95.0793 174.402 94.9024C174.393 94.7255 174.402 94.5574 174.402 94.3805C174.349 93.8321 174.296 93.2837 174.26 92.7441C174.238 92.5882 174.247 92.4292 174.288 92.277C174.329 92.1249 174.401 91.9828 174.499 91.8596C174.609 91.74 174.752 91.6572 174.911 91.6223C175.069 91.5875 175.234 91.6024 175.384 91.665C175.464 91.6882 175.541 91.7208 175.614 91.7623C175.729 91.7623 175.782 91.7623 175.826 91.6915L176.127 91.0281C176.18 90.9043 176.162 90.8512 176.03 90.7893Z" fill="#C25CCD"/>
<path d="M184.52 89.0215H183.706C183.591 89.0215 183.547 89.0215 183.556 89.1896C183.565 89.3576 183.6 89.6849 183.618 89.9326C183.635 90.1803 183.671 90.0918 183.795 90.0918H184.608C184.732 90.0918 184.776 90.0918 184.768 89.9149C184.759 89.738 184.768 89.4284 184.706 89.1896C184.644 88.9508 184.644 89.0215 184.52 89.0215Z" fill="#C25CCD"/>
<path d="M320.264 82.838C321.056 82.8434 321.819 83.1434 322.402 83.6797C322.986 84.2159 323.349 84.95 323.422 85.7393L332.665 195.308C332.706 195.746 332.653 196.187 332.512 196.603C332.37 197.019 332.142 197.401 331.842 197.723C331.546 198.045 331.184 198.303 330.782 198.478C330.38 198.653 329.946 198.742 329.507 198.74H146.645C145.853 198.734 145.091 198.434 144.507 197.898C143.923 197.362 143.56 196.628 143.488 195.839L134.235 86.2877C134.201 85.8506 134.258 85.4113 134.401 84.9971C134.545 84.5829 134.772 84.2028 135.07 83.8806C135.367 83.5584 135.728 83.3011 136.129 83.1247C136.53 82.9484 136.964 82.8568 137.402 82.8556H320.264V82.838ZM320.264 79.7863H137.402C136.54 79.7893 135.688 79.9709 134.9 80.3196C134.112 80.6684 133.405 81.1767 132.823 81.8125C132.241 82.4483 131.797 83.1979 131.52 84.0138C131.242 84.8297 131.137 85.6943 131.21 86.553L140.454 196.113C140.584 197.667 141.292 199.116 142.439 200.174C143.585 201.231 145.086 201.821 146.645 201.827H329.543C330.406 201.83 331.26 201.654 332.051 201.308C332.841 200.962 333.551 200.454 334.134 199.818C334.717 199.182 335.16 198.43 335.436 197.613C335.712 196.795 335.813 195.928 335.734 195.069L326.509 85.4827C326.388 83.9247 325.683 82.4699 324.535 81.4101C323.386 80.3503 321.88 79.7639 320.317 79.7686L320.264 79.7863Z" fill="url(#paint32_linear_562_37346)"/>
<path d="M299.359 219.756C299.978 218.934 304.569 215.537 312.229 216.298C324.1 217.483 329.92 227.328 330.681 228.805C331.293 229.928 331.529 231.218 331.353 232.485C331.26 233.21 330.952 233.891 330.469 234.44C330.038 234.907 329.487 235.247 328.876 235.422C328.456 235.584 328.02 235.705 327.576 235.784C326.581 235.938 325.567 235.92 324.578 235.731C320.473 234.909 297.864 225.7 298.165 222.799C298.207 222.443 298.278 222.091 298.377 221.747C298.646 221.056 298.975 220.39 299.359 219.756Z" fill="url(#paint33_linear_562_37346)"/>
<path opacity="0.2" d="M330.433 234.44C330.679 234.18 330.879 233.881 331.026 233.556C330.984 232.546 330.718 231.558 330.248 230.663C329.46 229.098 323.269 218.651 310.673 217.395C307.199 216.992 303.68 217.492 300.456 218.846C300.054 219.092 299.685 219.389 299.359 219.73C298.963 220.362 298.622 221.028 298.342 221.72C298.243 222.065 298.172 222.417 298.13 222.773C297.829 225.674 320.438 234.882 324.542 235.705C325.532 235.894 326.546 235.912 327.541 235.758C327.985 235.679 328.42 235.558 328.841 235.395C329.449 235.228 330 234.898 330.433 234.44Z" fill="#141045"/>
<path d="M300.998 219.429C302.392 219.308 303.794 219.562 305.058 220.163C310.418 222.525 320.228 229.53 322.404 231.069C324.757 232.741 327.711 234.775 330.011 233.891C330.011 233.891 330.09 233.891 331.116 233.36C331.226 233.074 331.307 232.778 331.355 232.476C331.531 231.209 331.295 229.919 330.683 228.796C329.949 227.319 324.102 217.474 312.231 216.288C304.571 215.528 299.981 218.942 299.361 219.747C299.362 219.765 299.362 219.782 299.361 219.8C299.889 219.61 300.439 219.485 300.998 219.429Z" fill="url(#paint34_linear_562_37346)"/>
<path d="M148.015 271.351L195.647 301.735C197.363 302.823 201.839 305.273 204.829 310.359C206.236 312.757 207.181 315.397 207.615 318.143C209.65 342.158 211.693 368.819 213.727 392.834L115.543 393.276C114.502 384.416 113.997 375.501 114.03 366.581C114.063 360.268 114.429 353.961 115.127 347.687C96.6137 340.61 82.9475 335.745 72.4833 332.145C65.9288 329.89 63.1779 327.431 57.5699 320.54C52.6872 314.534 51.3162 308.112 49.9274 301.575C48.5193 294.918 48.1345 288.084 48.7864 281.311C83.2482 277.994 113.526 274.694 148.015 271.351Z" fill="url(#paint35_linear_562_37346)"/>
<path opacity="0.4" d="M131.792 392.833C131.907 383.316 132.022 353.454 132.137 343.927C132.181 342.296 131.723 340.69 130.824 339.328C129.926 337.966 128.63 336.913 127.113 336.311C111.191 330.287 103.23 325.962 93.7656 322.707C87.2111 320.451 80.2586 317.992 74.6506 311.093C69.7679 305.096 68.3968 298.709 67.0081 292.137C66.1342 288.044 65.6543 283.876 65.5751 279.691L48.7688 281.31C48.1169 288.084 48.5017 294.917 49.9098 301.575C51.2986 308.112 52.6696 314.534 57.5523 320.54C63.1603 327.43 65.9113 329.889 72.4657 332.145C82.9299 335.745 96.5961 340.628 115.11 347.686C114.597 353.967 114.296 360.786 114.331 368.075C114.331 376.204 114.835 386.403 115.525 393.276L131.792 392.833Z" fill="url(#paint36_linear_562_37346)"/>
<path opacity="0.4" d="M174.311 333.543C174.106 330.698 173.424 327.909 172.294 325.29C170.075 320.445 166.515 316.338 162.034 313.455C155.656 307.856 148.934 301.814 141.689 295.154C139.858 293.464 137.718 291.447 137.266 288.334C136.205 281.567 143.847 275.428 145.961 273.818L118.762 286.777C135.382 301.018 147.952 312.075 154.365 317.833C156.752 319.913 158.794 322.358 160.415 325.078C164.13 331.376 164.581 337.506 164.793 341.106C165.36 350.977 165.749 371.03 165.156 393.294L173.188 392.851C173.25 391.118 175.505 348.191 174.311 333.543Z" fill="url(#paint37_linear_562_37346)"/>
<path d="M139.592 179.632C135.32 180.605 129.19 178.986 122.865 174.988C117.674 171.631 113.106 167.396 109.367 162.472L115.931 143.392L120.265 130.681L124.811 117.413C131.074 105.392 154.258 115.644 151.109 129.328L149.34 138.996L147.774 147.7L147.005 152.026C146.651 154.325 146.3 156.625 145.952 158.925C148.384 166.674 147.553 173.962 143.298 177.633C142.227 178.567 140.961 179.25 139.592 179.632Z" fill="#F8ACC1"/>
<path d="M149.852 141.19L147.269 149.637C145.385 149.08 143.837 147.09 141.484 144.171C136.301 137.714 135.363 131.787 135.363 131.787C137.239 133.767 139.278 135.587 141.458 137.227C144.008 139.019 146.848 140.359 149.852 141.19Z" fill="#F480A1"/>
<path d="M162.953 134.769C159.22 143.853 147.146 141.845 141.158 138.307C135.17 134.769 118.761 121.961 115.895 101.156C112.269 74.9296 162.192 67.6321 164.961 92.364C164.961 92.364 165.014 93.4697 165.094 95.3183C165.173 97.167 165.226 99.8207 165.297 102.881C165.465 113.487 165.297 128.993 162.953 134.769Z" fill="#F8ACC1"/>
<path d="M147.235 94.0172C135.603 93.1326 127.492 89.5945 124.918 92.9911C122.91 95.6448 125.944 100.324 124.493 101.12C123.042 101.916 118.381 98.4664 118.416 94.9283C118.469 90.134 127.509 86.8966 130.446 85.8352C135.612 83.9688 147.252 81.0498 164.598 87.7369L165.111 93.1238C159.211 94.1491 153.208 94.4491 147.235 94.0172Z" fill="#F480A1"/>
<path d="M168.022 90.0988C163.83 93.2035 157.735 92.6728 145.705 91.4787C141.247 91.079 136.77 90.9255 132.296 91.0187C127.873 91.0187 125.564 91.1868 124.405 92.7878C123.609 93.8669 123.883 95.123 124.954 100.289C126.528 107.869 126.723 108.648 126.882 110.151C127.166 113.537 126.751 116.946 125.661 120.164C124.432 122.19 123.22 124.339 122.035 126.63C121.593 127.515 121.15 128.338 120.752 129.178C114.958 111.018 111.022 99.4042 109.253 95.8306C108.164 93.9092 107.715 91.691 107.971 89.4973C108.142 88.4107 108.517 87.3662 109.076 86.4191C106.653 83.9247 104.008 80.9614 104.547 80.2273C104.813 79.8823 105.75 80.298 106.856 80.5634C109.695 81.2622 112.022 80.643 115.153 79.7938C119.094 78.6204 122.864 76.9373 126.369 74.7873C133.675 70.6653 145.891 67.3395 155.453 71.541C159.281 73.2839 162.562 76.0359 164.944 79.5019C165.704 79.1436 166.531 78.9504 167.371 78.9351C168.212 78.9199 169.045 79.0829 169.818 79.4135C170.995 79.9017 171.944 80.8184 172.472 81.9787C173.48 84.6323 170.481 88.2766 168.022 90.0988Z" fill="#03104F"/>
<path opacity="0.6" d="M104.475 79.9883C104.74 79.6522 105.678 80.0591 106.784 80.3333C107.212 80.4384 107.646 80.5152 108.084 80.5633C107.908 80.7785 107.798 81.0393 107.766 81.3151C107.58 82.9427 110.145 83.6503 110.897 86.0563C111.209 87.2763 111.116 88.5648 110.631 89.7272C108.942 95.2821 119.477 114.857 122.52 125.392C122.352 125.71 122.175 126.029 122.007 126.356C121.564 127.241 121.122 128.072 120.724 128.912C114.93 110.753 110.994 99.1299 109.225 95.5563C108.136 93.6383 107.686 91.4228 107.942 89.2318C108.114 88.1452 108.489 87.1008 109.048 86.1536C106.58 83.6327 103.935 80.6871 104.475 79.9883Z" fill="url(#paint38_linear_562_37346)"/>
<path opacity="0.6" d="M133.965 78.5115C135.071 76.7867 129.065 77.167 129.083 75.4245C129.1 73.6819 136.716 73.7615 135.115 72.0101C134.853 71.7719 134.555 71.5777 134.231 71.4352C140.9 69.3388 148.826 68.6223 155.46 71.5413C158.343 72.8328 160.916 74.7269 163.005 77.0963C163.341 77.8318 163.568 78.6126 163.677 79.4138C163.676 79.6797 163.662 79.9454 163.633 80.2099C163.536 80.9794 163.483 81.7136 163.217 81.802C162.952 81.8905 162.333 80.6344 161.289 79.4315C159.591 77.4147 157.379 76.6717 157.264 76.8397C157.149 77.0078 161.13 79.1661 161.236 82.2885C161.236 82.5008 161.236 83.4031 160.891 83.5534C160.051 83.8807 157.76 79.803 154.77 78.7238C151.019 77.3616 157.954 82.262 157.742 84.0311C157.53 85.8002 152.479 83.0492 149.215 83.0139C145.951 82.9785 153.549 86.1009 153.549 86.552C153.549 87.0032 148.083 86.9324 142.625 86.8793C137.167 86.8262 125.73 83.6684 123.563 82.3416C121.396 81.0148 132.851 80.2452 133.965 78.5115Z" fill="url(#paint39_linear_562_37346)"/>
<path d="M128.386 122.703C128.205 122.773 128.019 122.83 127.829 122.871C124.149 123.844 119.788 121.341 117.046 115.158C115.578 111.858 115.675 108.727 116.976 106.471C117.842 104.96 119.269 103.851 120.947 103.384C124.821 102.261 127.537 105.976 129.341 110.868C131.146 115.759 132.172 121.323 128.386 122.703Z" fill="#F8ACC1"/>
<path d="M127.829 122.889C124.149 123.862 119.788 121.367 117.046 115.184C115.578 111.876 115.675 108.745 116.976 106.489C116.659 107.281 116.523 108.133 116.577 108.984C116.737 112.69 118.603 117.767 121.354 120.005C123.182 121.582 125.434 122.585 127.829 122.889Z" fill="#F480A1"/>
<path d="M120.201 109.436C121.26 109.656 122.26 110.1 123.134 110.737C124.008 111.375 124.736 112.192 125.27 113.133C127.313 116.45 126.561 117.556 126.561 117.556C126.561 117.556 126.711 116.335 124.438 114.831C122.448 113.504 121.493 113.858 121.493 113.858L124.589 113.628C124.589 113.628 122.545 110.338 120.201 109.436Z" fill="#F480A1"/>
<path d="M157.396 103.367C157.228 103.986 160.368 119.59 160.483 121.633C160.598 123.676 156.061 123.11 156.061 123.11" stroke="#F480A1" stroke-linecap="round" stroke-linejoin="round"/>
<path d="M155.502 112.088C156.992 106.6 153.751 100.944 148.264 99.454C142.776 97.964 137.119 101.205 135.629 106.693C134.139 112.18 137.38 117.837 142.868 119.327C148.356 120.817 154.012 117.576 155.502 112.088Z" fill="#402048"/>
<path d="M156.912 112.46C156.431 114.272 155.464 115.917 154.114 117.218C152.765 118.519 151.085 119.426 149.257 119.841C147.43 120.256 145.523 120.162 143.744 119.57C141.966 118.979 140.383 117.912 139.168 116.485C138.652 115.897 138.212 115.246 137.859 114.548C136.916 112.775 136.513 110.764 136.701 108.765C136.889 106.766 137.659 104.865 138.916 103.299C140.172 101.733 141.86 100.569 143.771 99.9525C145.682 99.3357 147.732 99.2927 149.667 99.8288L150.366 100.023C151.855 100.545 153.205 101.4 154.312 102.524C155.419 103.648 156.254 105.01 156.753 106.507C157.003 107.252 157.163 108.024 157.23 108.807C157.346 110.034 157.238 111.272 156.912 112.46Z" fill="#03104F"/>
<path opacity="0.5" d="M155.842 104.543L137.045 112.504C136.55 110.722 136.55 108.838 137.045 107.056C137.196 106.498 137.392 105.954 137.629 105.428L150.367 100.032C152.67 100.838 154.611 102.437 155.842 104.543Z" fill="#9C7AE1"/>
<path opacity="0.5" d="M157.22 108.833L139.167 116.484C138.651 115.896 138.211 115.245 137.857 114.547L156.742 106.533C156.999 107.276 157.159 108.049 157.22 108.833Z" fill="#9C7AE1"/>
<path d="M176.047 111.185C177.346 106.4 174.52 101.467 169.735 100.168C164.949 98.8689 160.017 101.695 158.718 106.48C157.418 111.265 160.244 116.198 165.03 117.497C169.815 118.796 174.747 115.97 176.047 111.185Z" fill="#402048"/>
<path d="M177.272 111.513C176.754 113.535 175.545 115.313 173.855 116.538C172.165 117.763 170.099 118.359 168.016 118.223C165.933 118.086 163.963 117.226 162.447 115.791C160.931 114.356 159.964 112.436 159.714 110.363C159.574 109.369 159.607 108.357 159.811 107.374L159.953 106.852C160.139 106.154 160.412 105.482 160.767 104.853C160.767 104.853 160.767 104.853 160.767 104.782C161.744 103.064 163.259 101.716 165.078 100.946C166.897 100.175 168.92 100.025 170.833 100.518H170.939C171.801 100.754 172.623 101.114 173.38 101.589C174.233 102.132 174.985 102.821 175.601 103.623C176.465 104.724 177.061 106.011 177.342 107.382C177.623 108.753 177.581 110.17 177.219 111.522L177.272 111.513Z" fill="#03104F"/>
<path opacity="0.5" d="M173.426 101.607L159.812 107.383L159.954 106.87C160.138 106.169 160.412 105.494 160.768 104.862L170.922 100.555H170.967C171.834 100.774 172.663 101.123 173.426 101.59V101.607Z" fill="#9C7AE1"/>
<path opacity="0.5" d="M177.582 108.754L162.093 115.326C160.811 113.97 159.982 112.248 159.723 110.399L175.644 103.65C176.807 105.108 177.485 106.892 177.582 108.754Z" fill="#9C7AE1"/>
<path d="M147.774 147.701C149.95 148.585 152.533 149.647 155.434 150.894C168.756 156.599 171.949 158.775 174.319 162.004C175.587 163.773 176.566 165.731 177.221 167.806C182.183 182.039 189.604 210.433 191.161 216.527C188.576 216.594 186.01 216.996 183.528 217.721C179.299 218.96 173.249 220.738 171.825 225.426C170.507 229.716 173.789 234.076 174.62 235.156C172.258 232.9 170.427 230.874 169.118 229.353C167.819 227.951 166.635 226.445 165.58 224.851C165.48 224.697 165.374 224.52 165.262 224.32C164.144 222.354 163.228 220.279 162.528 218.128C162.531 218.075 162.531 218.022 162.528 217.969C161.9 215.988 160.406 212.087 156.982 204.259C155.301 211.296 153.198 218.225 150.684 225.01C149.65 227.597 148.813 230.258 148.181 232.971C147.129 237.61 146.733 242.374 147.005 247.124C146.732 251.591 146.694 256.07 146.89 260.542C147.058 264.567 147.412 268.326 147.872 271.776C142.555 275.751 136.916 279.275 131.012 282.311C127.067 284.345 123.246 286.035 120.955 286.919C108.279 291.784 97.3641 289.113 78.143 287.459C71.2524 286.866 61.0624 286.212 48.4311 286.256C52.9777 259.304 54.8617 232.299 59.4083 205.391C52.4823 210.397 47.3254 215.404 40.4083 220.428C39.9923 220.39 39.5887 220.267 39.223 220.065C38.4618 219.566 37.906 218.809 37.6574 217.934C37.0205 216.041 32.2439 207.469 26.1141 204.161C21.196 201.508 18.5158 200.092 14.73 199.164C14.5896 199.127 14.4614 199.054 14.3584 198.951C14.2554 198.849 14.1812 198.722 14.1435 198.581C14.1058 198.441 14.1058 198.294 14.1436 198.154C14.1813 198.013 14.2555 197.886 14.3585 197.784C28.0866 184.515 38.4888 173.379 48.3957 164.613C57.6304 156.44 59.2402 155.308 60.7793 154.282C74.5959 145.357 90.1108 142.57 110.42 139.112C113.525 138.581 116.055 138.227 117.611 137.962C117.028 139.448 116.249 141.589 115.488 144.242C115.152 145.401 114.905 146.383 114.869 146.569C113.472 152.805 139.778 172.822 145.563 167.621C146.819 166.488 147.27 164.021 145.766 159.014C146.474 155.246 147.143 151.475 147.774 147.701Z" fill="url(#paint40_linear_562_37346)"/>
<path opacity="0.35" d="M164.579 199.153C163.991 202.613 164.295 206.167 165.464 209.476C166.153 211.319 167.13 213.041 168.356 214.58C173.911 211.625 178.086 211.661 180.413 211.979C182.084 212.209 184.207 212.784 184.172 213.041C184.137 213.297 181.651 212.882 178.582 213.235C172.823 213.899 168.48 216.95 168.746 217.959C168.834 218.321 169.524 218.357 170.09 219.312C170.426 219.861 170.364 220.126 170.577 220.276C171.408 220.851 174.23 218.145 174.433 217.959C176.317 216.19 180.625 214.713 191.133 216.145L191.231 216.526C188.645 216.593 186.079 216.994 183.597 217.72C179.369 218.958 173.319 220.736 171.894 225.424C170.577 229.714 173.858 234.075 174.69 235.154C172.328 232.899 170.497 230.873 169.188 229.352C167.888 227.949 166.705 226.444 165.65 224.849C165.549 224.696 165.443 224.519 165.331 224.319C164.212 222.353 163.296 220.278 162.598 218.127C162.598 218.056 162.598 218.012 162.598 217.976C161.97 215.986 160.502 212.041 157.193 204.036C158.273 199.728 159.272 195.04 160.112 189.998C160.917 185.169 161.475 180.587 161.881 176.314C165.022 187.858 165.145 194.837 164.579 199.153Z" fill="#141045"/>
<path opacity="0.3" d="M146.969 245.548L147.181 238.268C144.979 238.339 141.874 238.419 138.097 238.436C128.597 238.436 118.213 237.976 105.042 236.977C84.2018 235.394 68.4835 234.199 66.1217 226.769C65.7944 225.726 65.7856 224.753 67.8908 218.667C73.773 201.728 80.2744 190.609 79.1245 189.84C78.9388 189.716 78.4965 189.84 77.2935 190.936C77.2935 190.936 66.679 199.331 57.9574 206.451L59.3815 205.425C54.8349 232.377 52.9509 259.338 48.4043 286.29C58.3241 286.018 68.2508 286.42 78.1161 287.493C96.3554 289.484 104.697 292.756 116.974 288.714C121.806 286.965 126.491 284.835 130.985 282.345C136.859 279.257 142.494 275.736 147.845 271.81C147.394 268.316 147.049 264.566 146.863 260.577C146.631 255.569 146.666 250.552 146.969 245.548Z" fill="#141045"/>
<path opacity="0.35" d="M14.376 197.802L16.7731 195.493C22.5708 198.488 27.9039 202.308 32.6064 206.833C33.1637 207.425 34.9593 209.389 36.4011 208.929C36.6831 208.868 36.9304 208.7 37.0911 208.46C37.5333 207.523 35.5962 205.161 24.0794 196.528C21.6911 194.759 20.8508 193.954 20.9481 193.786C21.2135 193.37 25.8839 195.449 29.8909 197.846C35.3963 201.092 40.2375 205.351 44.1586 210.397C45.7419 212.476 45.1316 214.343 45.9277 215.749L40.4258 220.446C40.3265 220.509 40.2145 220.551 40.0977 220.567C39.9809 220.582 39.8621 220.573 39.7494 220.538C39.6366 220.504 39.5327 220.445 39.4449 220.367C39.357 220.288 39.2873 220.191 39.2405 220.083C36.4813 213.633 31.9323 208.108 26.1316 204.161C22.6591 201.841 18.8057 200.15 14.7475 199.164C14.6105 199.125 14.4858 199.052 14.3855 198.951C14.2853 198.85 14.2129 198.725 14.1755 198.588C14.138 198.451 14.1368 198.306 14.172 198.168C14.2071 198.03 14.2774 197.904 14.376 197.802Z" fill="#141045"/>
<path d="M190.938 216.606L204.206 236.95C207.787 237.855 211.192 239.349 214.281 241.373C214.756 241.431 215.226 241.522 215.687 241.647C217.721 242.208 219.558 243.323 220.995 244.867C221.561 245 224.896 245.813 226.169 248.697C226.93 250.404 226.55 251.934 225.833 254.889C225.285 257.1 224.727 259.373 223.418 259.586C222.33 259.754 221.251 258.427 220.844 257.817C219.252 260.957 217.235 262.858 215.767 262.505C215.461 262.426 215.182 262.263 214.962 262.036C214.799 262.55 214.475 262.999 214.04 263.317C213.604 263.635 213.078 263.806 212.538 263.805C212.08 263.75 211.655 263.537 211.335 263.203C211.058 263.545 210.691 263.801 210.275 263.944C209.859 264.086 209.411 264.108 208.983 264.008C208.434 263.836 207.964 263.475 207.657 262.989C207.349 262.503 207.223 261.924 207.302 261.355C207.396 257.775 207.488 254.196 207.576 250.616C206.17 250.369 204.71 250.077 203.215 249.732C201.986 249.458 200.801 249.166 199.677 248.847C199.677 250.263 199.721 251.669 199.748 253.075C201.361 254.882 202.224 257.235 202.163 259.656C202.163 259.886 201.933 263.265 200.624 263.548C199.509 263.787 198.855 261.523 195.184 257.304C193.37 255.234 192.53 254.65 191.761 252.943C191.112 251.496 190.774 249.929 190.77 248.343L174.423 234.889C171.124 231.077 171.301 228.105 171.407 227.238C172.062 221.621 179.881 216.261 190.938 216.606Z" fill="#F8ACC1"/>
<path d="M171.407 227.212C171.595 225.866 172.118 224.588 172.929 223.497C175.892 228.557 186.798 245.743 195.706 241.188C195.706 241.188 191.539 244.797 190.752 248.424L174.423 234.89C171.124 231.051 171.301 228.079 171.407 227.212Z" fill="#F480A1"/>
<path d="M207.646 248.158C208.283 249.114 207.708 261.179 208.407 262.205C208.947 262.876 209.575 263.471 210.274 263.974C209.862 264.122 209.415 264.144 208.991 264.036C208.442 263.863 207.973 263.502 207.665 263.017C207.357 262.531 207.232 261.952 207.31 261.382L207.585 250.644C206.178 250.396 204.719 250.104 203.224 249.759C201.994 249.485 200.809 249.193 199.686 248.875L199.818 246.628C199.818 246.628 207.036 247.221 207.646 248.158Z" fill="#F480A1"/>
<path d="M210.894 263.664C211.965 261.39 213.008 251.492 213.008 251.492C213.008 251.492 213.583 246.185 213.008 245.044C212.433 243.903 205.861 239.816 205.861 239.816C208.994 241.492 212 243.393 214.857 245.504C215.742 246.389 212.548 263.867 212.548 263.867C212.09 263.812 211.665 263.6 211.345 263.266C211.21 263.414 211.059 263.548 210.894 263.664Z" fill="#F480A1"/>
<path d="M214.541 241.471C220.866 244.345 220.352 245.239 220.671 246.327C220.989 247.415 216.779 259.347 216.779 259.542C216.779 259.737 216.337 261.046 215.894 262.532H215.797C215.491 262.453 215.212 262.29 214.992 262.063C214.992 262.063 219.733 246.911 219.671 245.761C219.609 244.611 214.541 241.471 214.541 241.471Z" fill="#F480A1"/>
<path d="M221.006 244.867C221.643 245.017 222.263 245.234 222.855 245.513C224.164 246.353 223.872 247.6 224.119 247.981C224.367 248.361 222.97 256.216 222.713 257.755C222.687 258.073 222.724 258.394 222.823 258.697C222.921 259.001 223.08 259.282 223.288 259.524C222.403 259.524 221.519 258.64 221.015 258.012C221.227 257.304 222.784 251.979 223.412 249.538C224.058 246.964 221.006 244.867 221.006 244.867Z" fill="#F480A1"/>
<path d="M111.287 147.179C120.557 163.384 130.915 168.576 135.647 170.398C138.982 171.689 144.838 173.936 147.881 171.123C150.269 168.921 149.703 164.719 149.438 163.251" stroke="#AA92E4" stroke-width="1.5" stroke-miterlimit="10"/>
<path d="M105.164 146.347C95.6556 148.47 87.3851 150.416 80.5918 152.052C75.5166 153.184 70.852 155.693 67.1113 159.305" stroke="#AA92E4" stroke-width="1.5" stroke-miterlimit="10"/>
<path d="M105.689 150.698C92.6421 153.768 83.0802 156.182 80.3912 157.023C79.5139 157.294 78.6754 157.677 77.8968 158.164C76.5034 159.067 75.3354 160.277 74.4824 161.702" stroke="#AA92E4" stroke-width="1.5" stroke-miterlimit="10"/>
<path d="M105.996 155.476L83.5996 160.588" stroke="#AA92E4" stroke-width="1.5" stroke-miterlimit="10"/>
<path d="M149.852 152.149L167.472 159.703" stroke="#AA92E4" stroke-width="1.5" stroke-miterlimit="10"/>
<path d="M147.916 156.581L164.298 163.003" stroke="#AA92E4" stroke-width="1.5" stroke-miterlimit="10"/>
<path d="M82.2287 163.49C83.3474 163.49 84.2543 162.583 84.2543 161.464C84.2543 160.345 83.3474 159.438 82.2287 159.438C81.11 159.438 80.2031 160.345 80.2031 161.464C80.2031 162.583 81.11 163.49 82.2287 163.49Z" stroke="#AA92E4" stroke-width="1.5" stroke-miterlimit="10"/>
<path d="M73.8791 165.241C74.9978 165.241 75.9047 164.334 75.9047 163.215C75.9047 162.096 74.9978 161.189 73.8791 161.189C72.7604 161.189 71.8535 162.096 71.8535 163.215C71.8535 164.334 72.7604 165.241 73.8791 165.241Z" stroke="#AA92E4" stroke-width="1.5" stroke-miterlimit="10"/>
<path d="M66.1311 161.976C67.2498 161.976 68.1567 161.069 68.1567 159.95C68.1567 158.832 67.2498 157.925 66.1311 157.925C65.0124 157.925 64.1055 158.832 64.1055 159.95C64.1055 161.069 65.0124 161.976 66.1311 161.976Z" stroke="#AA92E4" stroke-width="1.5" stroke-miterlimit="10"/>
<path d="M165.232 165.435C166.146 165.435 166.886 164.695 166.886 163.781C166.886 162.868 166.146 162.127 165.232 162.127C164.319 162.127 163.578 162.868 163.578 163.781C163.578 164.695 164.319 165.435 165.232 165.435Z" stroke="#AA92E4" stroke-width="1.5" stroke-miterlimit="10"/>
<path d="M168.818 162.039C169.785 162.039 170.569 161.255 170.569 160.288C170.569 159.32 169.785 158.536 168.818 158.536C167.851 158.536 167.066 159.32 167.066 160.288C167.066 161.255 167.851 162.039 168.818 162.039Z" stroke="#AA92E4" stroke-width="1.5" stroke-miterlimit="10"/>
<path d="M14.6582 198.951C13.4376 200.322 11.925 202.109 10.2886 204.258C10.2886 204.258 9.61633 205.143 8.68756 206.505C6.03393 210.309 5.72434 210.875 5.52974 211.432C5.01992 213.238 5.11624 215.161 5.80395 216.907C10.6955 232.988 14.0921 238.269 14.0921 238.269C20.0805 247.583 28.0591 264.381 41.0442 286.318C42.4612 289.278 44.5882 291.843 47.236 293.783C57.249 301.019 70.9064 296.437 79.2388 294.013C80.7691 293.562 82.0163 293.129 82.8478 292.846C85.2537 294.615 87.3324 295.968 88.8892 296.95C92.2062 299.029 93.4092 299.533 94.8864 299.665C96.3636 299.798 99.3091 299.71 99.8222 298.171C100.273 296.808 98.513 295.137 98.3184 294.951C100.417 296.764 103.044 297.853 105.811 298.056C106.315 298.056 110.684 298.268 111.189 296.508C111.595 295.083 109.269 293.306 109.021 293.12C111.622 293.164 113.515 292.492 113.683 291.572C113.78 291.032 113.311 290.325 112.966 289.803C112.63 289.301 112.218 288.853 111.746 288.476C112.262 288.165 112.639 287.668 112.798 287.087C113.126 285.318 110.074 283.867 104.537 279.931C98.9995 275.995 97.6373 274.288 93.9223 273.624C92.6759 273.433 91.4132 273.371 90.1541 273.439C79.3361 273.58 83.3343 273.218 77.2221 273.439C72.2509 273.624 65.9618 274.031 58.6466 274.942C52.2425 262.435 47.8198 248.371 42.4418 232.785C40.9439 228.433 39.5729 224.155 38.3286 219.95L39.0274 219.411C37.8915 216.768 36.4295 214.278 34.6755 211.998C28.0149 203.339 18.9217 200.136 14.6582 198.951Z" fill="#F8ACC1"/>
<path d="M16.6074 199.508C23.7424 201.756 30.0379 206.095 34.6787 211.962C36.4327 214.242 37.8947 216.732 39.0306 219.375L38.3318 219.914C38.3318 219.914 29.9729 205.337 16.6074 199.508Z" fill="#F480A1"/>
<path d="M86.1731 284.424C87.0636 284.325 87.9649 284.4 88.8268 284.645C89.8916 284.971 90.8644 285.544 91.6661 286.317C97.2388 291.483 104.333 296.215 107.588 296.657C108.712 296.839 109.866 296.666 110.887 296.162C111.002 296.1 111.091 296.038 111.188 295.976C111.228 296.172 111.228 296.373 111.188 296.569C110.684 298.338 106.314 298.143 105.81 298.117C103.556 297.976 101.385 297.214 99.5386 295.914L99.1671 295.49C93.9306 291.111 90.074 287.927 88.9771 286.972C88.5303 286.557 88.0027 286.239 87.4273 286.038C86.8519 285.838 86.2412 285.758 85.6335 285.804C84.2979 285.892 82.1484 285.804 76.4785 285.662C81.7416 284.999 84.0856 284.592 86.1731 284.424Z" fill="#F480A1"/>
<path d="M92.5883 280.886C94.2575 281.171 95.8915 281.634 97.4621 282.266C102.663 284.805 104.432 289.537 108.855 291.501C110.06 292.107 111.432 292.297 112.756 292.04C113.048 291.961 113.313 291.872 113.561 291.784C113.234 292.669 111.42 293.244 108.952 293.199L109.333 293.5H109.147C109.147 293.5 99.417 284.77 96.843 283.531C94.2689 282.293 79.8066 279.604 79.8066 279.604C84.102 279.546 88.3901 279.976 92.5883 280.886Z" fill="#F480A1"/>
<path d="M91.8522 276.543C93.3481 276.574 94.8341 276.794 96.2749 277.198C97.9732 277.764 98.9285 278.516 100.866 279.966C107.553 284.955 109.366 285.406 110.472 286.008C111.179 286.36 111.948 286.57 112.736 286.627C112.763 286.791 112.763 286.958 112.736 287.122C112.605 287.628 112.289 288.067 111.852 288.352C110.728 287.591 109.198 286.53 107.305 285.283C98.9108 279.657 97.5752 278.985 96.6022 278.587C93.0394 277.083 89.1882 276.385 85.3242 276.543C87.498 276.406 89.6783 276.406 91.8522 276.543Z" fill="#F480A1"/>
<path d="M41.7958 287.246C44.1575 291.448 54.4713 292.677 59.5574 293.288C67.8965 294.303 76.3545 293.635 84.4308 291.324C92.0114 297.153 94.9834 298.241 94.9834 298.241C96.2194 298.689 97.4963 299.015 98.7958 299.214C97.54 299.695 96.1865 299.865 94.8508 299.709C93.3736 299.577 92.1971 299.073 88.8535 296.994C87.2967 296.012 85.2181 294.641 82.8121 292.89C81.9806 293.182 80.7334 293.606 79.2032 294.057C70.8708 296.507 57.2134 301.063 47.2004 293.827C44.5526 291.887 42.4256 289.323 41.0085 286.362L40.4336 285.389C40.942 285.966 41.3979 286.588 41.7958 287.246Z" fill="#F480A1"/>
<path d="M14.2077 275.163C18.3916 276.047 63.238 285.857 87.6249 293.101C90.0663 293.836 94.5951 295.242 97.4345 299.293C102.255 306.219 99.0532 316.241 95.0462 328.253C92.1762 336.813 88.3827 345.034 83.7329 352.773C81.1943 359.442 73.8791 362.29 68.5984 359.849C64.4499 357.947 61.8847 352.932 62.7162 347.669C63.4946 346.05 74.6398 322.76 75.8782 315.357C76.205 313.908 76.0369 312.391 75.4005 311.049C74.0118 308.395 70.6682 307.564 69.2087 307.219C63.6361 305.936 41.9559 301.354 12.2794 295.445C10.8362 295.471 9.40389 295.192 8.07615 294.625C6.7484 294.059 5.55519 293.219 4.5746 292.16C3.594 291.101 2.84813 289.846 2.3858 288.479C1.92348 287.111 1.75511 285.662 1.89172 284.225C2.02834 282.788 2.46685 281.396 3.17857 280.14C3.89029 278.885 4.85916 277.793 6.02179 276.938C7.18441 276.082 8.51458 275.482 9.92523 275.176C11.3359 274.87 12.7952 274.866 14.2077 275.163Z" fill="url(#paint41_linear_562_37346)"/>
<path d="M97.417 299.329C94.5777 295.242 90.0488 293.836 87.6075 293.137C63.2029 285.892 18.3565 276.109 14.1903 275.198C12.7895 274.943 11.3513 274.977 9.96427 275.299C8.5772 275.62 7.27053 276.222 6.12466 277.067C4.97878 277.912 4.01793 278.983 3.30121 280.213C2.58448 281.443 2.12704 282.807 1.95703 284.221C1.87714 285.049 1.90389 285.884 2.03664 286.706C40.1163 293.659 67.3602 298.895 75.0027 300.487C77.3114 300.965 82.4771 302.106 84.6177 305.857C85.601 307.71 85.8656 309.861 85.3607 311.898C83.4589 322.106 66.7145 353.932 65.0693 357.045C66.0115 358.247 67.2236 359.211 68.6074 359.858C73.9147 362.29 81.2033 359.442 83.742 352.782C88.3834 345.054 92.1708 336.844 95.0376 328.297C99.0358 316.268 102.238 306.255 97.417 299.329Z" fill="url(#paint42_linear_562_37346)"/>
<path d="M172.236 38.8369L166.47 41.2556C164.5 42.0819 162.283 42.0919 160.306 41.2834C158.33 40.475 156.755 38.9144 155.929 36.9449L154.309 33.0833C153.482 31.1138 153.472 28.8967 154.281 26.9198C155.089 24.9429 156.65 23.3682 158.619 22.5419L164.385 20.1232C166.355 19.2969 168.572 19.2869 170.549 20.0954C172.526 20.9038 174.1 22.4644 174.927 24.434L176.549 28.3008C177.373 30.27 177.382 32.486 176.573 34.4616C175.764 36.4373 174.204 38.011 172.236 38.8369ZM159.512 24.669C158.105 25.2591 156.99 26.384 156.413 27.796C155.835 29.2081 155.842 30.7917 156.433 32.1985L158.055 36.0654C158.645 37.4722 159.77 38.5869 161.182 39.1644C162.594 39.7418 164.178 39.7347 165.584 39.1445L171.35 36.7257C172.757 36.1356 173.872 35.0107 174.449 33.5987C175.027 32.1866 175.019 30.603 174.429 29.1962L172.805 25.324C172.215 23.9172 171.09 22.8025 169.678 22.225C168.266 21.6476 166.682 21.6547 165.275 22.2449L159.512 24.669Z" fill="url(#paint43_linear_562_37346)"/>
<path d="M175.649 26.5573L155.318 35.0864C153.809 35.7194 153.099 37.4555 153.732 38.9642L162.261 59.2957C162.894 60.8044 164.63 61.5143 166.139 60.8814L186.47 52.3522C187.979 51.7193 188.689 49.9832 188.056 48.4745L179.527 28.143C178.894 26.6343 177.158 25.9244 175.649 26.5573Z" fill="url(#paint44_linear_562_37346)"/>
<path opacity="0.4" d="M169.084 38.2983L168.299 38.6277C167.844 38.8201 167.484 39.1847 167.297 39.6417C167.11 40.0988 167.111 40.6113 167.301 41.0672L168.318 43.4913C168.474 43.8567 168.742 44.1628 169.084 44.365C169.425 44.5672 169.823 44.655 170.218 44.6155L171.827 48.4505C171.869 48.5777 171.937 48.6947 172.027 48.7943C172.116 48.894 172.225 48.974 172.347 49.0295C172.469 49.0849 172.601 49.1145 172.735 49.1165C172.869 49.1185 173.002 49.0927 173.126 49.0409C173.249 48.9891 173.361 48.9123 173.453 48.8154C173.545 48.7184 173.617 48.6034 173.663 48.4776C173.709 48.3517 173.728 48.2177 173.72 48.084C173.711 47.9503 173.676 47.8198 173.614 47.7006L172.006 43.8656C172.311 43.6113 172.527 43.2663 172.622 42.8808C172.717 42.4952 172.687 42.0893 172.535 41.7223L171.518 39.2982C171.326 38.8443 170.962 38.4846 170.507 38.2974C170.051 38.1101 169.539 38.1105 169.084 38.2983Z" fill="url(#paint45_linear_562_37346)"/>
<path opacity="0.15" d="M188.059 48.4729L179.53 28.1414C179.355 27.7254 179.087 27.355 178.746 27.0588C178.405 26.7626 178.002 26.5485 177.565 26.4329C177.737 29.4298 177.447 32.6203 175.137 35.1865C169.467 41.5073 168.848 41.4428 167.675 49.8005C167.18 53.7039 166.029 57.4956 164.271 61.0158C164.892 61.1672 165.546 61.112 166.133 60.8586L186.464 52.3294C187.186 52.0283 187.759 51.4533 188.058 50.7305C188.357 50.0077 188.357 49.1959 188.059 48.4729Z" fill="url(#paint46_linear_562_37346)"/>
<path d="M289.784 41.1896L283.998 38.8191C282.022 38.0093 280.448 36.4476 279.623 34.4776C278.798 32.5075 278.79 30.2904 279.599 28.3141L281.187 24.4391C281.997 22.4628 283.558 20.8891 285.529 20.0641C287.499 19.2392 289.716 19.2307 291.692 20.0405L297.478 22.4111C299.454 23.2208 301.028 24.7825 301.853 26.7526C302.678 28.7226 302.686 30.9397 301.876 32.9161L300.287 36.7963C299.476 38.7712 297.914 40.3433 295.945 41.1671C293.975 41.9909 291.759 41.999 289.784 41.1896ZM290.818 22.1749C289.406 21.5965 287.822 21.6026 286.415 22.1918C285.008 22.781 283.892 23.9051 283.314 25.3168L281.724 29.1971C281.146 30.6087 281.152 32.1923 281.741 33.5995C282.33 35.0067 283.454 36.1222 284.866 36.7006L290.652 39.0712C292.063 39.6496 293.647 39.6435 295.054 39.0543C296.462 38.4651 297.577 37.341 298.155 35.9293L299.747 32.0437C300.326 30.632 300.32 29.0484 299.731 27.6412C299.141 26.234 298.017 25.1185 296.606 24.5401L290.818 22.1749Z" fill="url(#paint47_linear_562_37346)"/>
<path d="M300.883 34.9276L280.481 26.5684C278.968 25.9482 277.237 26.6726 276.617 28.1865L268.258 48.5885C267.638 50.1025 268.362 51.8326 269.876 52.4529L290.278 60.812C291.792 61.4323 293.522 60.7079 294.142 59.194L302.502 38.7919C303.122 37.278 302.397 35.5479 300.883 34.9276Z" fill="url(#paint48_linear_562_37346)"/>
<path opacity="0.4" d="M287.937 38.578L287.149 38.2552C286.692 38.0696 286.18 38.0727 285.725 38.264C285.27 38.4552 284.91 38.8189 284.723 39.2753L283.726 41.7078C283.578 42.0753 283.55 42.4806 283.648 42.8648C283.745 43.2491 283.963 43.5922 284.268 43.8445L282.692 47.6928C282.594 47.9314 282.595 48.199 282.694 48.4368C282.794 48.6746 282.984 48.8631 283.223 48.9609C283.461 49.0586 283.729 49.0576 283.967 48.958C284.204 48.8585 284.393 48.6685 284.491 48.4299L286.067 44.5816C286.463 44.6178 286.86 44.5267 287.2 44.3217C287.54 44.1166 287.805 43.8083 287.958 43.4416L288.955 41.0091C289.14 40.5516 289.138 40.0391 288.947 39.5836C288.756 39.1281 288.393 38.7666 287.937 38.578Z" fill="url(#paint49_linear_562_37346)"/>
<path opacity="0.15" d="M294.146 59.1942L302.505 38.7922C302.676 38.3744 302.748 37.923 302.717 37.4728C302.686 37.0225 302.552 36.5854 302.326 36.195C300.327 38.4343 297.859 40.4817 294.416 40.6623C285.932 41.1149 285.539 40.6309 278.797 45.7072C275.677 48.1153 272.172 49.9768 268.429 51.2126C268.768 51.7685 269.281 52.1971 269.888 52.4318L290.29 60.791C291.013 61.0874 291.824 61.0859 292.547 60.7868C293.269 60.4877 293.844 59.9152 294.146 59.1942Z" fill="url(#paint50_linear_562_37346)"/>
<path d="M233.717 25.7467H223.363C220.965 25.7391 218.668 24.7803 216.975 23.0807C215.283 21.3811 214.335 19.0796 214.338 16.6813V9.03091C214.346 6.63512 215.302 4.33987 216.997 2.6474C218.693 0.954924 220.99 0.00303023 223.386 0H233.74C236.131 0.00910783 238.422 0.963867 240.112 2.65585C241.801 4.34783 242.753 6.63962 242.759 9.03091V16.6813C242.761 17.8703 242.528 19.0479 242.075 20.147C241.621 21.246 240.955 22.245 240.116 23.0868C239.276 23.9286 238.279 24.5967 237.181 25.0531C236.083 25.5095 234.906 25.7452 233.717 25.7467ZM223.363 2.56547C221.653 2.57307 220.015 3.25742 218.808 4.46894C217.601 5.68046 216.922 7.32061 216.921 9.03091V16.6813C216.919 17.5316 217.085 18.3738 217.409 19.1599C217.734 19.946 218.209 20.6605 218.81 21.2625C219.41 21.8646 220.124 22.3424 220.909 22.6687C221.694 22.9949 222.536 23.1632 223.386 23.164H233.74C235.452 23.1549 237.091 22.4675 238.298 21.2524C239.504 20.0373 240.18 18.3936 240.177 16.6813V9.03091C240.175 7.31763 239.494 5.67488 238.283 4.46286C237.072 3.25085 235.43 2.56851 233.717 2.56547H223.363Z" fill="url(#paint51_linear_562_37346)"/>
<path d="M242.76 13.0449H214.339C212.23 13.0449 210.52 14.7549 210.52 16.8644V45.2859C210.52 47.3953 212.23 49.1053 214.339 49.1053H242.76C244.87 49.1053 246.58 47.3953 246.58 45.2859V16.8644C246.58 14.7549 244.87 13.0449 242.76 13.0449Z" fill="url(#paint52_linear_562_37346)"/>
<path opacity="0.8" d="M229.095 23.733H228.002C227.366 23.7345 226.756 23.9875 226.306 24.4369C225.855 24.8862 225.601 25.4954 225.598 26.1316V29.5197C225.598 30.0382 225.766 30.5426 226.077 30.9574C226.388 31.3722 226.826 31.6751 227.323 31.8205V37.1816C227.312 37.353 227.335 37.525 227.393 37.6869C227.451 37.8487 227.541 37.9971 227.658 38.1226C227.776 38.2481 227.917 38.3482 228.075 38.4167C228.233 38.4851 228.403 38.5204 228.574 38.5204C228.746 38.5204 228.916 38.4851 229.074 38.4167C229.231 38.3482 229.373 38.2481 229.491 38.1226C229.608 37.9971 229.698 37.8487 229.756 37.6869C229.813 37.525 229.837 37.353 229.826 37.1816V31.8033C230.323 31.6578 230.76 31.355 231.071 30.9402C231.383 30.5254 231.551 30.0209 231.551 29.5024V26.1316C231.55 25.812 231.486 25.4956 231.362 25.2012C231.237 24.9067 231.055 24.64 230.827 24.4166C230.598 24.1933 230.327 24.0178 230.03 23.9004C229.732 23.783 229.415 23.7261 229.095 23.733Z" fill="url(#paint53_linear_562_37346)"/>
<path opacity="0.15" d="M246.576 45.2862V16.8647C246.576 16.2829 246.442 15.7089 246.186 15.1865C245.93 14.6642 245.558 14.2072 245.098 13.8506C243.81 17.5032 241.871 21.1443 237.85 23.0541C227.957 27.7363 227.249 27.3509 221.687 36.6982C219.138 41.0893 215.865 45.0178 212.006 48.3176C212.671 48.8368 213.491 49.1183 214.335 49.1172H242.757C243.26 49.1172 243.757 49.018 244.221 48.8253C244.685 48.6327 245.107 48.3503 245.462 47.9944C245.817 47.6385 246.098 47.2161 246.289 46.7514C246.48 46.2867 246.578 45.7888 246.576 45.2862Z" fill="url(#paint54_linear_562_37346)"/>
<defs>
<linearGradient id="paint0_linear_562_37346" x1="279.606" y1="149.647" x2="282.455" y2="411.499" gradientUnits="userSpaceOnUse">
<stop offset="0.07" stop-color="#855199"/>
<stop offset="0.21" stop-color="#AA79A6"/>
<stop offset="0.34" stop-color="#C698B1"/>
<stop offset="0.46" stop-color="#D7AAB7"/>
<stop offset="0.54" stop-color="#DDB1B9"/>
<stop offset="0.57" stop-color="#DEB3BA" stop-opacity="0.97"/>
<stop offset="0.62" stop-color="#E1B7BE" stop-opacity="0.88"/>
<stop offset="0.67" stop-color="#E6BEC4" stop-opacity="0.73"/>
<stop offset="0.73" stop-color="#EDC8CC" stop-opacity="0.53"/>
<stop offset="0.8" stop-color="#F6D4D6" stop-opacity="0.27"/>
<stop offset="0.86" stop-color="#FFE1E1" stop-opacity="0"/>
<stop offset="0.92" stop-color="white" stop-opacity="0"/>
</linearGradient>
<linearGradient id="paint1_linear_562_37346" x1="227.533" y1="198.2" x2="185.491" y2="409.208" gradientUnits="userSpaceOnUse">
<stop offset="0.14" stop-color="#855199"/>
<stop offset="0.25" stop-color="#AA79A6"/>
<stop offset="0.35" stop-color="#C698B1"/>
<stop offset="0.44" stop-color="#D7AAB7"/>
<stop offset="0.5" stop-color="#DDB1B9"/>
<stop offset="0.54" stop-color="#E5BCC2" stop-opacity="0.76"/>
<stop offset="0.6" stop-color="#EDC7CC" stop-opacity="0.53"/>
<stop offset="0.65" stop-color="#F3D1D3" stop-opacity="0.34"/>
<stop offset="0.7" stop-color="#F8D8D9" stop-opacity="0.19"/>
<stop offset="0.75" stop-color="#FCDDDE" stop-opacity="0.09"/>
<stop offset="0.79" stop-color="#FEE0E0" stop-opacity="0.02"/>
<stop offset="0.83" stop-color="#FFE1E1" stop-opacity="0"/>
</linearGradient>
<linearGradient id="paint2_linear_562_37346" x1="277.996" y1="309.087" x2="281.932" y2="155.804" gradientUnits="userSpaceOnUse">
<stop offset="0.01" stop-color="#855199"/>
<stop offset="0.5" stop-color="#DDB1B9"/>
<stop offset="0.95" stop-color="#FFE1E1"/>
</linearGradient>
<linearGradient id="paint3_linear_562_37346" x1="139453" y1="44033.4" x2="145452" y2="16626.9" gradientUnits="userSpaceOnUse">
<stop offset="0.01" stop-color="#A76897"/>
<stop offset="0.4" stop-color="#DDB1B9"/>
<stop offset="0.95" stop-color="#FFE1E1"/>
</linearGradient>
<linearGradient id="paint4_linear_562_37346" x1="91.7992" y1="304.813" x2="-1.20174" y2="107.985" gradientUnits="userSpaceOnUse">
<stop stop-color="#6669FB"/>
<stop offset="0.82" stop-color="#D8D9FE"/>
</linearGradient>
<linearGradient id="paint5_linear_562_37346" x1="4.53155" y1="324.468" x2="115.1" y2="324.468" gradientUnits="userSpaceOnUse">
<stop stop-color="#6669FB"/>
<stop offset="0.89" stop-color="#D8D9FE"/>
</linearGradient>
<linearGradient id="paint6_linear_562_37346" x1="964.993" y1="24049.7" x2="13670.4" y2="24049.7" gradientUnits="userSpaceOnUse">
<stop stop-color="#6669FB"/>
<stop offset="0.89" stop-color="#D8D9FE"/>
</linearGradient>
<radialGradient id="paint7_angular_562_37346" cx="0" cy="0" r="1" gradientUnits="userSpaceOnUse" gradientTransform="translate(227.307 45.5985) rotate(90) scale(12.3836 86.5571)">
<stop stop-color="#6669FB"/>
<stop offset="1" stop-color="#6669FB" stop-opacity="0"/>
</radialGradient>
<linearGradient id="paint8_linear_562_37346" x1="349.512" y1="202.065" x2="347.77" y2="159.298" gradientUnits="userSpaceOnUse">
<stop offset="0.22" stop-color="#8134BC" stop-opacity="0"/>
<stop offset="0.55" stop-color="#6729A0"/>
<stop offset="1" stop-color="#1A084B"/>
</linearGradient>
<linearGradient id="paint9_linear_562_37346" x1="381.807" y1="93.9736" x2="329.539" y2="190.097" gradientUnits="userSpaceOnUse">
<stop offset="0.06" stop-color="white"/>
<stop offset="0.96" stop-color="#35D1F3"/>
</linearGradient>
<linearGradient id="paint10_linear_562_37346" x1="340.371" y1="183.149" x2="357.694" y2="208.558" gradientUnits="userSpaceOnUse">
<stop stop-color="#995AFF"/>
<stop offset="1" stop-color="#DC59BF"/>
</linearGradient>
<linearGradient id="paint11_linear_562_37346" x1="237.249" y1="171.708" x2="261.742" y2="251.91" gradientUnits="userSpaceOnUse">
<stop offset="0.35" stop-color="#6669FB"/>
<stop offset="0.78" stop-color="#D8D9FE"/>
</linearGradient>
<linearGradient id="paint12_linear_562_37346" x1="17597" y1="4577.47" x2="16235.7" y2="7984.69" gradientUnits="userSpaceOnUse">
<stop offset="0.35" stop-color="#6669FB"/>
<stop offset="0.78" stop-color="#D8D9FE"/>
</linearGradient>
<linearGradient id="paint13_linear_562_37346" x1="86.5141" y1="220.438" x2="353.788" y2="75.5759" gradientUnits="userSpaceOnUse">
<stop offset="0.11" stop-color="#A9AEF7"/>
<stop offset="0.7" stop-color="#EBECFF"/>
</linearGradient>
<linearGradient id="paint14_linear_562_37346" x1="147.062" y1="77.0696" x2="321.652" y2="199.467" gradientUnits="userSpaceOnUse">
<stop offset="0.11" stop-color="#A9AEF7"/>
<stop offset="0.63" stop-color="#EBECFF"/>
</linearGradient>
<linearGradient id="paint15_linear_562_37346" x1="6575.52" y1="3790.39" x2="3034.5" y2="793.73" gradientUnits="userSpaceOnUse">
<stop stop-color="#6669FB"/>
<stop offset="0.89" stop-color="#D8D9FE"/>
</linearGradient>
<linearGradient id="paint16_linear_562_37346" x1="8606.03" y1="827.098" x2="8379.76" y2="-505.098" gradientUnits="userSpaceOnUse">
<stop stop-color="#6669FB"/>
<stop offset="0.89" stop-color="#D8D9FE"/>
</linearGradient>
<linearGradient id="paint17_linear_562_37346" x1="29465.5" y1="3301.58" x2="28129.6" y2="-2627.26" gradientUnits="userSpaceOnUse">
<stop stop-color="#6669FB"/>
<stop offset="0.89" stop-color="#D8D9FE"/>
</linearGradient>
<linearGradient id="paint18_linear_562_37346" x1="6508.68" y1="1667.91" x2="5497.79" y2="-637.968" gradientUnits="userSpaceOnUse">
<stop stop-color="#6669FB"/>
<stop offset="0.89" stop-color="#D8D9FE"/>
</linearGradient>
<linearGradient id="paint19_linear_562_37346" x1="1847.14" y1="631.993" x2="1936.71" y2="624.605" gradientUnits="userSpaceOnUse">
<stop stop-color="#6669FB"/>
<stop offset="0.89" stop-color="#D8D9FE"/>
</linearGradient>
<linearGradient id="paint20_linear_562_37346" x1="2622.95" y1="800.099" x2="2371.52" y2="509.255" gradientUnits="userSpaceOnUse">
<stop stop-color="#6669FB"/>
<stop offset="0.89" stop-color="#D8D9FE"/>
</linearGradient>
<linearGradient id="paint21_linear_562_37346" x1="2644.29" y1="780.115" x2="2392.9" y2="490.568" gradientUnits="userSpaceOnUse">
<stop stop-color="#6669FB"/>
<stop offset="0.89" stop-color="#D8D9FE"/>
</linearGradient>
<linearGradient id="paint22_linear_562_37346" x1="2677.62" y1="760.818" x2="2426.24" y2="471.27" gradientUnits="userSpaceOnUse">
<stop stop-color="#6669FB"/>
<stop offset="0.89" stop-color="#D8D9FE"/>
</linearGradient>
<linearGradient id="paint23_linear_562_37346" x1="2711.04" y1="741.559" x2="2459.73" y2="451.983" gradientUnits="userSpaceOnUse">
<stop stop-color="#6669FB"/>
<stop offset="0.89" stop-color="#D8D9FE"/>
</linearGradient>
<linearGradient id="paint24_linear_562_37346" x1="337.575" y1="155.114" x2="221.249" y2="87.2602" gradientUnits="userSpaceOnUse">
<stop stop-color="#6669FB"/>
<stop offset="0.02" stop-color="#6E70FB"/>
<stop offset="0.12" stop-color="#8E91FC"/>
<stop offset="0.23" stop-color="#A9ABFD"/>
<stop offset="0.35" stop-color="#BEBFFD"/>
<stop offset="0.48" stop-color="#CDCEFE"/>
<stop offset="0.64" stop-color="#D5D6FE"/>
<stop offset="0.89" stop-color="#D8D9FE"/>
</linearGradient>
<linearGradient id="paint25_linear_562_37346" x1="8320.76" y1="11502" x2="8268.07" y2="5514.25" gradientUnits="userSpaceOnUse">
<stop stop-color="#6669FB"/>
<stop offset="0.89" stop-color="#D8D9FE"/>
</linearGradient>
<linearGradient id="paint26_linear_562_37346" x1="10294.7" y1="11484.7" x2="10242" y2="5496.95" gradientUnits="userSpaceOnUse">
<stop stop-color="#6669FB"/>
<stop offset="0.89" stop-color="#D8D9FE"/>
</linearGradient>
<linearGradient id="paint27_linear_562_37346" x1="12287.3" y1="11468.4" x2="12234.6" y2="5480.32" gradientUnits="userSpaceOnUse">
<stop stop-color="#6669FB"/>
<stop offset="0.89" stop-color="#D8D9FE"/>
</linearGradient>
<linearGradient id="paint28_linear_562_37346" x1="14268.5" y1="11451.6" x2="14215.5" y2="5463.27" gradientUnits="userSpaceOnUse">
<stop stop-color="#6669FB"/>
<stop offset="0.89" stop-color="#D8D9FE"/>
</linearGradient>
<linearGradient id="paint29_linear_562_37346" x1="5943.99" y1="1009.64" x2="4777.37" y2="-990.813" gradientUnits="userSpaceOnUse">
<stop stop-color="#6669FB"/>
<stop offset="0.89" stop-color="#D8D9FE"/>
</linearGradient>
<linearGradient id="paint30_linear_562_37346" x1="7369.57" y1="1047.8" x2="6353.45" y2="-1166.18" gradientUnits="userSpaceOnUse">
<stop stop-color="#6669FB"/>
<stop offset="0.89" stop-color="#D8D9FE"/>
</linearGradient>
<linearGradient id="paint31_linear_562_37346" x1="41104.9" y1="4330.48" x2="41545.6" y2="1345.76" gradientUnits="userSpaceOnUse">
<stop offset="0.18" stop-color="#6669FB"/>
<stop offset="0.78" stop-color="#D8D9FE"/>
</linearGradient>
<linearGradient id="paint32_linear_562_37346" x1="80137.6" y1="8301.62" x2="48058.9" y2="45069.1" gradientUnits="userSpaceOnUse">
<stop stop-color="#6669FB"/>
<stop offset="0.89" stop-color="#D8D9FE"/>
</linearGradient>
<linearGradient id="paint33_linear_562_37346" x1="12366.1" y1="6659" x2="12289.6" y2="3494.86" gradientUnits="userSpaceOnUse">
<stop stop-color="#6669FB"/>
<stop offset="0.89" stop-color="#D8D9FE"/>
</linearGradient>
<linearGradient id="paint34_linear_562_37346" x1="11947.2" y1="5944.56" x2="11886.9" y2="3302.77" gradientUnits="userSpaceOnUse">
<stop stop-color="#6669FB"/>
<stop offset="0.89" stop-color="#D8D9FE"/>
</linearGradient>
<linearGradient id="paint35_linear_562_37346" x1="133.57" y1="429.649" x2="128.563" y2="250.183" gradientUnits="userSpaceOnUse">
<stop offset="0.26" stop-color="#9861FB" stop-opacity="0"/>
<stop offset="0.65" stop-color="#43269C"/>
<stop offset="0.78" stop-color="#41259A"/>
<stop offset="0.86" stop-color="#3A2092"/>
<stop offset="0.91" stop-color="#2E1784"/>
<stop offset="0.96" stop-color="#1D0C71"/>
<stop offset="1" stop-color="#0D0160"/>
</linearGradient>
<linearGradient id="paint36_linear_562_37346" x1="96.7465" y1="402.493" x2="88.2637" y2="289.97" gradientUnits="userSpaceOnUse">
<stop offset="0.1" stop-color="white" stop-opacity="0"/>
<stop offset="0.12" stop-color="#C8ABFD" stop-opacity="0"/>
<stop offset="0.25" stop-color="#9861FB" stop-opacity="0"/>
<stop offset="0.28" stop-color="#8756E0" stop-opacity="0.11"/>
<stop offset="0.58" stop-color="#211542" stop-opacity="0.79"/>
<stop offset="0.95" stop-color="#01000F"/>
</linearGradient>
<linearGradient id="paint37_linear_562_37346" x1="10939.4" y1="52147.6" x2="5437.59" y2="42287.3" gradientUnits="userSpaceOnUse">
<stop offset="0.1" stop-color="white" stop-opacity="0"/>
<stop offset="0.12" stop-color="#C8ABFD" stop-opacity="0"/>
<stop offset="0.25" stop-color="#9861FB" stop-opacity="0"/>
<stop offset="0.28" stop-color="#8756E0" stop-opacity="0.11"/>
<stop offset="0.58" stop-color="#211542" stop-opacity="0.79"/>
<stop offset="0.95" stop-color="#01000F"/>
</linearGradient>
<linearGradient id="paint38_linear_562_37346" x1="101.087" y1="116.202" x2="132.674" y2="83.9599" gradientUnits="userSpaceOnUse">
<stop stop-color="#8134BC"/>
<stop offset="1" stop-color="#21136E"/>
</linearGradient>
<linearGradient id="paint39_linear_562_37346" x1="25954.7" y1="1705.62" x2="25724.3" y2="994.089" gradientUnits="userSpaceOnUse">
<stop stop-color="#8134BC"/>
<stop offset="1" stop-color="#21136E"/>
</linearGradient>
<linearGradient id="paint40_linear_562_37346" x1="54.8358" y1="152.377" x2="135.052" y2="289.875" gradientUnits="userSpaceOnUse">
<stop stop-color="#995AFF"/>
<stop offset="1" stop-color="#DC59BF"/>
</linearGradient>
<linearGradient id="paint41_linear_562_37346" x1="28.3251" y1="363.759" x2="95.975" y2="169.389" gradientUnits="userSpaceOnUse">
<stop offset="0.14" stop-color="#6669FB"/>
<stop offset="0.89" stop-color="#D8D9FE"/>
</linearGradient>
<linearGradient id="paint42_linear_562_37346" x1="10922" y1="39124.2" x2="4495.36" y2="20505.3" gradientUnits="userSpaceOnUse">
<stop offset="0.14" stop-color="#6669FB"/>
<stop offset="0.89" stop-color="#D8D9FE"/>
</linearGradient>
<linearGradient id="paint43_linear_562_37346" x1="195.409" y1="57.8533" x2="151.928" y2="18.4564" gradientUnits="userSpaceOnUse">
<stop offset="0.18" stop-color="#6669FB"/>
<stop offset="0.78" stop-color="#D8D9FE"/>
</linearGradient>
<linearGradient id="paint44_linear_562_37346" x1="3653.94" y1="1920.27" x2="787.981" y2="659.999" gradientUnits="userSpaceOnUse">
<stop offset="0.18" stop-color="#6669FB"/>
<stop offset="0.78" stop-color="#D8D9FE"/>
</linearGradient>
<linearGradient id="paint45_linear_562_37346" x1="169.658" y1="54.7748" x2="171.352" y2="31.3774" gradientUnits="userSpaceOnUse">
<stop stop-color="#812CBE"/>
<stop offset="1" stop-color="#210C70"/>
</linearGradient>
<linearGradient id="paint46_linear_562_37346" x1="1188.53" y1="1328.86" x2="2340.15" y2="845.747" gradientUnits="userSpaceOnUse">
<stop stop-color="#812CBE"/>
<stop offset="1" stop-color="#210C70"/>
</linearGradient>
<linearGradient id="paint47_linear_562_37346" x1="2133.79" y1="2899.24" x2="2107.23" y2="795.752" gradientUnits="userSpaceOnUse">
<stop offset="0.18" stop-color="#6669FB"/>
<stop offset="0.78" stop-color="#D8D9FE"/>
</linearGradient>
<linearGradient id="paint48_linear_562_37346" x1="2876.7" y1="4615.08" x2="1761.07" y2="1460.59" gradientUnits="userSpaceOnUse">
<stop offset="0.18" stop-color="#6669FB"/>
<stop offset="0.78" stop-color="#D8D9FE"/>
</linearGradient>
<linearGradient id="paint49_linear_562_37346" x1="327.856" y1="973.836" x2="638.526" y2="884.358" gradientUnits="userSpaceOnUse">
<stop stop-color="#812CBE"/>
<stop offset="1" stop-color="#210C70"/>
</linearGradient>
<linearGradient id="paint50_linear_562_37346" x1="1494.48" y1="2245.24" x2="2651.84" y2="2719.43" gradientUnits="userSpaceOnUse">
<stop stop-color="#812CBE"/>
<stop offset="1" stop-color="#210C70"/>
</linearGradient>
<linearGradient id="paint51_linear_562_37346" x1="241.678" y1="30.3024" x2="213.55" y2="-7.05217" gradientUnits="userSpaceOnUse">
<stop offset="0.15" stop-color="#6741C4"/>
<stop offset="0.44" stop-color="#975BDD"/>
<stop offset="0.54" stop-color="#A35BD8"/>
<stop offset="0.71" stop-color="#C15ACA"/>
<stop offset="0.83" stop-color="#DB59BE"/>
</linearGradient>
<linearGradient id="paint52_linear_562_37346" x1="218.813" y1="16.4707" x2="239.188" y2="46.4008" gradientUnits="userSpaceOnUse">
<stop stop-color="#995AFF"/>
<stop offset="1" stop-color="#DC59BF"/>
</linearGradient>
<linearGradient id="paint53_linear_562_37346" x1="555.302" y1="1662.24" x2="979.813" y2="1325.25" gradientUnits="userSpaceOnUse">
<stop stop-color="#812CBE"/>
<stop offset="1" stop-color="#210C70"/>
</linearGradient>
<linearGradient id="paint54_linear_562_37346" x1="1551.96" y1="3177.97" x2="3629.65" y2="3177.97" gradientUnits="userSpaceOnUse">
<stop stop-color="#812CBE"/>
<stop offset="1" stop-color="#210C70"/>
</linearGradient>
</defs>
</svg>
