<svg width="162" height="154" viewBox="0 0 162 154" fill="none" xmlns="http://www.w3.org/2000/svg">
<rect width="162" height="154" rx="77" fill="#EDF2F7"/>
<g clip-path="url(#clip0_8724_129041)">
<path d="M56.5708 135.767C55.9244 137.852 55.3116 140.148 54.8163 142.646C53.9684 146.876 53.6158 150.742 53.5234 154.085C72.5466 154.085 91.5783 154.085 110.601 154.085C109.166 150.472 108.57 147.458 108.293 145.339C107.789 141.49 107.949 137.632 105.371 135.826C105.061 135.606 104.775 135.463 104.591 135.387C88.5812 135.513 72.5718 135.64 56.5708 135.767Z" fill="url(#paint0_linear_8724_129041)"/>
<path d="M71.2725 135.648C66.3698 135.682 61.4671 135.724 56.5728 135.767C55.9515 137.767 55.3639 139.979 54.877 142.368L69.434 143.676C69.434 143.668 69.5179 138.046 71.2725 135.648Z" fill="url(#paint1_linear_8724_129041)"/>
<path d="M92.7385 143.478C92.7385 143.478 92.0417 137.721 90.4298 135.492C85.3256 135.534 80.2298 135.568 75.1256 135.61C74.4288 137.358 73.136 141.047 73.6817 143.199C73.6817 143.199 83.4871 145.715 92.7385 143.478Z" fill="url(#paint2_linear_8724_129041)"/>
<path d="M95.7926 143.575C95.7926 143.575 103.054 143.93 107.965 142.368C107.68 139.616 107.269 137.159 105.363 135.826C105.052 135.606 104.767 135.463 104.582 135.387C100.863 135.412 97.1442 135.446 93.4336 135.471C94.2731 136.872 95.6079 139.667 95.7926 143.575Z" fill="url(#paint3_linear_8724_129041)"/>
<path d="M67.056 69C76.811 70.0974 86.5745 71.2032 96.3296 72.3006C100.796 73.1955 104.322 74.3351 106.823 75.2721C108.872 76.0403 110.19 76.6565 111.415 77.889C113.33 79.8136 113.909 82.1182 114.278 83.7305C115.865 90.7455 116.52 98.689 116.73 101.593C116.36 113.352 114.119 122.081 111.852 123.372C110.316 124.25 108.209 125.111 108.209 125.111C107.109 125.567 106.194 125.879 105.615 126.065C105.992 127.086 108.108 133.012 105.354 135.832C104.893 136.305 104.263 136.727 100.065 137.402C94.1888 138.347 91.1666 138.803 87.2377 137.925C85.2649 137.486 83.7034 136.853 82.6456 136.355C81.3696 137.123 79.3044 138.145 76.6683 138.356C72.6723 138.685 71.6565 136.819 66.6194 136.094C60.8688 135.266 57.6367 137.039 56.3943 135.224C55.6555 134.144 56.0836 132.472 56.8308 130.868C52.6668 129.965 50.9039 128.327 50.0728 126.951C49.6278 126.217 49.2752 125.263 48.1671 123.381C47.3864 122.055 46.6644 121.008 46.1775 120.333C45.7829 118.729 45.296 116.391 45.0525 113.538C44.6664 109.097 45.0693 105.805 45.657 101.323C46.5049 94.8734 47.2856 89.4201 47.9068 85.1994C49.0486 82.4981 50.2994 80.4045 51.2901 78.9273C52.3394 77.3656 53.2209 76.0656 54.7572 74.6558C56.537 73.0182 58.1992 72.1571 59.4333 71.5156C61.1123 70.6714 63.6812 69.5825 67.056 69Z" fill="url(#paint4_linear_8724_129041)"/>
<g opacity="0.3">
<path opacity="0.3" d="M69.2391 98.3279C69.7847 98.3026 74.8721 97.9565 76.7862 94.2253C77.0633 93.6851 77.3403 92.9507 77.441 91.9968C81.2356 90.7643 82.1674 90.2831 82.1255 90.0974C82.0247 89.6922 77.5754 91.6676 73.4954 89.8526C70.2968 88.426 70.7754 86.2059 67.4173 84.7286C63.8242 83.15 59.0307 83.8169 58.4514 85.4799C58.3423 85.7838 58.3926 86.0961 58.4682 86.324C58.4682 86.324 58.5186 86.4169 58.6025 86.5942C59.5176 88.5189 64.9324 99.9656 63.3961 99.5013C61.7255 98.9948 55.043 93.7104 57.6371 95.9727C58.6361 96.8507 59.3245 97.8046 59.7946 98.6403C59.7694 98.6487 59.7526 98.6487 59.7275 98.6572C58.6865 99.0708 49.1749 107.453 48.3438 108.179C49.2672 107.495 60.7181 101.342 60.7181 101.012C60.7181 101.012 62.6405 99.4169 63.9754 99.5857C65.3102 99.7546 65.0583 100.008 65.0583 100.008L69.2391 98.3279Z" fill="url(#paint5_linear_8724_129041)"/>
<path opacity="0.3" d="M48.3455 108.18C48.3114 108.205 48.2859 108.231 48.2773 108.239C48.2859 108.239 48.3114 108.214 48.3455 108.18Z" fill="url(#paint6_linear_8724_129041)"/>
</g>
<path opacity="0.4" d="M102.727 129.982C104.918 130.48 106.11 131.08 106.748 131.35C106.673 128.978 105.85 126.673 105.632 126.066C105.632 126.066 102.064 126.454 100.981 126.623C99.8977 126.791 94.8019 123.263 91.9644 120.832C89.1269 118.401 86.7846 118.401 85.5338 118.401C84.2829 118.401 84.4508 116.636 82.9481 113.53C81.4454 110.423 81.5293 106.641 81.5293 106.641L81.1096 106.473L76.7693 108.819C76.7693 108.819 77.0212 109.241 77.6005 109.495C78.1881 109.748 77.6844 111.512 77.6844 112.854C77.6844 114.197 76.7693 116.636 75.2666 119.321C73.7639 122.005 69.0039 125.534 65.5787 127.804C62.1535 130.075 56.8479 130.869 56.8479 130.869C56.1679 132.346 55.7565 133.874 56.2686 134.954C59.1481 134.389 65.159 131.333 65.159 131.333C65.159 131.333 73.68 127.551 76.6854 124.951C79.6908 122.351 81.1935 121.009 85.9535 121.845C90.7135 122.68 88.7071 123.356 94.1387 126.716C99.5535 130.067 98.2943 128.978 102.727 129.982Z" fill="url(#paint7_linear_8724_129041)"/>
<path opacity="0.4" d="M97.4642 137.371C93.5437 137.118 88.6158 136.864 88.6158 136.864C88.6158 136.864 83.6879 137.202 85.1067 135.269C86.5254 133.336 87.4405 131.825 84.8548 132.998C82.2691 134.172 80.4306 134.087 74.9151 135.852C69.643 137.54 67.2588 131.749 64.7402 135.894C65.3363 135.927 65.9575 135.987 66.6207 136.079C71.6578 136.805 72.682 138.671 76.6696 138.342C79.3057 138.122 81.3792 137.109 82.6469 136.341C83.7047 136.831 85.2662 137.464 87.239 137.911C90.9244 138.739 93.8123 138.384 99.0257 137.557C98.5556 137.481 98.0351 137.413 97.4642 137.371Z" fill="url(#paint8_linear_8724_129041)"/>
<path opacity="0.4" d="M83.7542 94.8321C83.6031 94.984 85.173 93.4054 87.1206 93.76C89.0683 94.1145 90.5458 97.0269 92.4347 97.3814C94.3236 97.736 102.114 99.6353 103.701 99.6944C105.296 99.7535 108.184 100.885 108.36 100.344C108.536 99.8126 105.825 98.9178 103.164 98.3269C100.511 97.736 97.2031 99.458 100.57 97.4405C103.936 95.423 106.765 90.3834 104.641 92.5191C102.517 94.6548 98.7982 98.5126 99.092 97.6178C99.3858 96.7314 102.341 92.5782 103.575 90.6197C104.817 88.6613 106.228 85.0989 104.163 88.1886C102.097 91.2697 100.62 94.3593 98.9661 95.845C97.3122 97.3308 96.7246 97.7444 95.4821 97.2717C94.2396 96.7989 89.6979 94.2496 89.6979 94.2496C89.6979 94.2496 87.2382 91.2697 83.7542 94.8321Z" fill="url(#paint9_linear_8724_129041)"/>
<path opacity="0.2" d="M68.9453 99.6364C69.3986 100.32 72.5384 105.039 74.612 107.116C74.9814 107.487 75.4935 107.951 76.207 108.002C76.9038 108.053 77.1641 107.664 78.6248 106.997C80.01 106.356 80.7656 106.255 80.7488 105.993C80.732 105.765 80.1527 105.638 79.33 105.461C76.2322 104.786 74.6875 104.44 74.4357 103.857C74.2258 103.368 74.654 103.19 74.7295 102.135C74.8051 101.097 74.5364 99.3663 73.3611 98.6234C72.2026 97.889 70.3221 98.2436 68.9453 99.6364Z" fill="url(#paint10_linear_8724_129041)"/>
<path opacity="0.4" d="M83.6964 95.7196C84.3848 97.0956 84.049 108.652 83.2851 106.575C82.5211 104.499 81.5725 103.072 81.8663 104.912C82.1601 106.753 81.3962 107.403 81.3374 105.267C81.2786 103.131 80.6322 100.877 81.8075 102.304C82.9912 103.731 83.8727 106.339 83.1675 103.309C82.4623 100.286 83.1675 94.6475 83.6964 95.7196Z" fill="url(#paint11_linear_8724_129041)"/>
<path opacity="0.4" d="M93.9041 98.0899C95.8853 101.18 97.0942 98.0308 99.1594 101.77C101.225 105.51 101.577 109.309 103.877 112.626C106.178 115.952 107.655 116.839 105.472 113.513C103.29 110.187 104.944 114.044 102.467 107.401C99.9905 100.757 99.9905 100.757 99.9905 100.757C99.9905 100.757 92.7288 96.2497 93.9041 98.0899Z" fill="url(#paint12_linear_8724_129041)"/>
<path opacity="0.4" d="M107.889 101.121C110.365 102.43 113.203 104.447 111.431 103.73C109.66 103.021 107.242 98.5719 108.779 102.244C110.315 105.916 109.425 111.741 108.779 107.647C108.132 103.552 107.889 101.121 107.889 101.121Z" fill="url(#paint13_linear_8724_129041)"/>
<path d="M73.3281 74.309C73.3281 74.309 79.7923 78.7914 91.5538 73.2031" stroke="url(#paint14_linear_8724_129041)" stroke-miterlimit="10" stroke-linecap="round" stroke-linejoin="round" stroke-dasharray="3 3"/>
<path d="M89.1183 39.6493L85.0215 70.1487C85.0215 70.1487 88.6062 69.8279 89.9494 73.3649V76.0662L96.7998 75.813L97.8911 69.313L95.0788 38.7461L89.1183 39.6493Z" fill="url(#paint15_linear_8724_129041)"/>
<path opacity="0.3" d="M89.1183 39.6493L85.0215 70.1487C85.0215 70.1487 88.6062 69.8279 89.9494 73.3649V76.0662L96.7998 75.813L97.8911 69.313L95.0788 38.7461L89.1183 39.6493Z" fill="url(#paint16_linear_8724_129041)"/>
<path d="M72.4121 70.319C72.5296 67.1956 72.6472 64.0722 72.7731 60.932C72.8906 57.9774 73.0166 55.0398 73.1425 52.1021C73.7133 51.7645 77.0294 49.8651 81.1514 51.03C85.6427 52.2963 87.4729 56.1794 87.7163 56.7365C87.3889 58.2898 87.0615 59.8346 86.7341 61.3878C86.8096 64.6885 86.8852 67.9891 86.9692 71.2813C85.5 71.7203 83.502 72.1424 81.1346 72.1593C77.2561 72.193 74.2087 71.1209 72.4121 70.319Z" fill="#FCC3D2"/>
<path d="M86.8194 62.106C86.8446 63.482 86.8614 64.8495 86.8866 66.2255C85.9883 66.1833 84.7878 66.0144 83.495 65.4573C80.1285 63.9969 78.6594 60.9917 78.248 60.0547C78.6258 60.4008 79.2051 60.8735 80.011 61.2534C80.4979 61.4898 81.2031 61.7514 82.8737 61.954C83.856 62.0722 85.1992 62.1735 86.8194 62.106Z" fill="#F480A1"/>
<path d="M90.5368 60.83C88.3121 64.8988 82.6538 63.278 79.9674 61.2943C74.3511 57.1579 67.2321 50.6663 69.7254 42.4105C72.0928 34.5767 81.5121 29.3176 87.7076 32.3144C91.9639 34.3657 93.2568 39.6079 93.559 41.0092C93.5422 41.3384 93.5086 41.8196 93.475 42.4105C93.4163 43.2884 93.3239 44.5378 93.2064 45.9813C92.7783 50.9533 91.9388 58.2468 90.5368 60.83Z" fill="#FCC3D2"/>
<path d="M71.8751 30.501C68.5171 33.7003 67.7196 37.8704 67.3586 39.6601C65.7383 47.688 62.7245 58.662 58.082 73.6964C59.1818 74.6165 60.9028 75.8153 63.2618 76.5243C64.1685 76.7945 65.008 76.9549 65.7551 77.0393C67.0312 73.7386 68.3156 70.4295 69.5917 67.1289C69.3986 70.649 69.2055 74.1607 69.0124 77.6808C70.7586 77.5542 72.5131 77.4276 74.2593 77.2925C74.2593 73.6204 74.2677 68.699 74.3265 62.8828C74.4608 48.6588 74.7294 41.2302 78.482 38.8159C82.8055 36.0386 83.7289 35.7938 83.7289 35.7938C84.5684 35.5743 86.2978 35.2367 87.3136 33.8016C87.5403 33.4724 87.683 33.1685 87.7586 32.9659C88.8751 33.7172 92.2499 36.2075 93.2322 40.6308C93.526 41.9646 93.5428 43.1802 93.4504 44.1678C94.0549 51.7652 95.1882 59.962 97.0939 68.623C97.6144 70.9782 98.1684 73.2743 98.7561 75.5114C99.6964 75.3425 100.637 75.1652 101.568 74.9964C99.5536 66.6224 98.9996 59.7425 98.882 54.9224C98.7477 49.638 99.0751 44.0328 96.7077 36.773C95.1714 31.9529 93.2573 28.9815 90.3359 28.0698C88.9926 27.6477 87.7418 27.7659 86.8771 27.9432C86.0208 27.4873 84.6692 26.8964 82.9398 26.6516C76.9457 25.7906 72.4292 29.9691 71.8751 30.501Z" fill="url(#paint17_linear_8724_129041)"/>
<path d="M68.9631 36.2383C67.6534 39.235 66.6964 41.7 66.0836 43.3123C63.9512 48.9766 63.4811 51.2727 61.3487 54.1259C59.8628 56.1181 58.2762 57.4266 57.252 58.1779" stroke="url(#paint18_linear_8724_129041)" stroke-miterlimit="10" stroke-linecap="round" stroke-linejoin="round"/>
<path opacity="0.3" d="M82.9482 26.6516C76.9457 25.7906 72.4292 29.9691 71.8751 30.501C68.5171 33.7003 67.7196 37.8704 67.3586 39.6601C65.7383 47.688 62.7245 58.662 58.082 73.6964C59.1818 74.6165 60.9028 75.8153 63.2618 76.5243C64.1685 76.7945 65.008 76.9549 65.7551 77.0393C67.0312 73.7386 68.3156 70.4295 69.5917 67.1289C69.5665 67.6438 69.5329 68.1588 69.5077 68.6737C69.6001 68.2601 69.6924 67.838 69.7847 67.3906C72.0262 56.1295 69.5665 50.8873 72.1018 40.5211C72.8489 37.4652 73.764 35.0678 74.3685 33.6159C74.7966 32.6367 75.7788 30.7626 77.7685 29.125C79.8252 27.4451 81.8988 26.8626 82.9482 26.6516Z" fill="url(#paint19_linear_8724_129041)"/>
<path d="M85.7607 47.6435L84.8037 46.8331C84.0062 46.1578 83.1079 45.7188 82.1928 45.5584L72.4126 43.8448C72.018 43.7773 71.8501 44.4188 72.1775 44.7396L76.2743 48.6227C77.8358 50.1 79.7499 50.7078 81.5548 50.2941L85.576 49.3571C86.2141 49.2136 86.3316 48.1247 85.7607 47.6435Z" fill="#03104F"/>
<path d="M85.7607 47.6435L84.8037 46.8331C84.0062 46.1578 83.1079 45.7188 82.1928 45.5584L72.4126 43.8448C72.018 43.7773 71.8501 44.4188 72.1775 44.7396L76.2743 48.6227C77.8358 50.1 79.7499 50.7078 81.5548 50.2941L85.576 49.3571C86.2141 49.2136 86.3316 48.1247 85.7607 47.6435Z" fill="#A161F3"/>
<path d="M100.335 43.1425L91.2181 45.4217C90.3618 45.6327 89.5475 46.1055 88.8423 46.7977L88.1035 47.5152L88.2798 49.2288L92.1331 49.8366C93.8625 50.1068 95.6255 49.4061 97.0023 47.9035L100.604 43.9529C100.906 43.649 100.704 43.0496 100.335 43.1425Z" fill="#03104F"/>
<path d="M100.335 43.1425L91.2181 45.4217C90.3618 45.6327 89.5475 46.1055 88.8423 46.7977L88.1035 47.5152L88.2798 49.2288L92.1331 49.8366C93.8625 50.1068 95.6255 49.4061 97.0023 47.9035L100.604 43.9529C100.906 43.649 100.704 43.0496 100.335 43.1425Z" fill="#A161F3"/>
<path opacity="0.5" d="M79.3143 45.0586L76.0906 47.6333C76.015 47.8612 75.973 48.0807 75.9395 48.3002L76.2501 48.5956L80.4224 45.2527L79.3143 45.0586Z" fill="white"/>
<path opacity="0.5" d="M84.073 46.3019C83.4769 45.9305 82.8473 45.6688 82.2009 45.5591L81.8819 45.5L77.1387 49.3071C77.7935 49.763 78.4819 50.0838 79.1871 50.2526L84.073 46.3019Z" fill="white"/>
<path opacity="0.5" d="M91.3605 45.3936L89.2617 47.6053C89.077 48.0358 88.9427 48.4495 88.8588 48.8378C88.8336 48.9306 88.8168 49.0319 88.7916 49.1248C88.7916 49.1332 88.7832 49.1417 88.7832 49.1501L92.7877 45.0391L91.3605 45.3936Z" fill="white"/>
<path opacity="0.5" d="M94.8685 44.5121L89.8398 49.4926L92.1401 49.8556C92.1989 49.864 92.2492 49.864 92.308 49.8725L99.3095 43.4062L94.8685 44.5121Z" fill="white"/>
<path d="M100.654 43.5238L97.0521 47.4745C95.6753 48.977 93.9123 49.6777 92.1829 49.4076L88.3296 48.7998L88.1869 47.4576L88.1113 47.5335L88.2876 49.2472L92.141 49.855C93.8703 50.1251 95.6333 49.4245 97.0101 47.9219L100.612 43.9712C100.754 43.8108 100.779 43.5913 100.721 43.4141C100.704 43.4563 100.679 43.49 100.654 43.5238Z" fill="#40208E"/>
<path d="M85.9134 48.8698L81.8922 49.8068C80.0956 50.2288 78.1732 49.6211 76.6117 48.1353L72.5149 44.2522C72.3974 44.1425 72.347 43.999 72.3386 43.8555C72.0028 43.8808 71.8769 44.4548 72.1875 44.7418L76.2843 48.625C77.8458 50.1022 79.7598 50.71 81.5648 50.2964L85.586 49.3594C85.8546 49.3003 86.0225 49.0639 86.0897 48.7853C86.0393 48.8275 85.9806 48.8529 85.9134 48.8698Z" fill="#40208E"/>
<path d="M87.9095 46.0508C87.8088 46.3209 88.4972 53.3949 88.4552 54.3066C88.4133 55.2183 86.3984 54.7287 86.3984 54.7287" stroke="#F480A1" stroke-width="0.91" stroke-miterlimit="10"/>
<path d="M85.6351 48.6666L85.4336 48.101C85.8198 47.9659 87.759 47.299 88.5062 47.7549C88.6909 47.8731 88.8 48.0419 88.8252 48.2614L88.2375 48.3289C88.2375 48.3036 88.2291 48.2867 88.1956 48.2614C87.8262 48.0419 86.4746 48.3627 85.6351 48.6666Z" fill="#A161F3"/>
<path d="M78.332 91.8182C80.1706 91.0332 82.2022 90.0371 84.3429 88.7708C86.2989 87.6144 88.0199 86.4325 89.4975 85.3014C94.1147 79.6877 98.732 74.0657 103.349 68.452C103.853 67.6247 104.55 67.2196 105.003 67.3968C105.095 67.4306 105.238 67.515 105.364 67.7345C105.717 66.9579 106.523 66.7468 106.909 67.0001C107.253 67.228 107.404 67.9286 107.026 68.5533C107.127 68.5533 107.698 68.5702 108.034 69.0007C108.42 69.4903 108.361 70.3176 107.79 70.917C106.816 72.2507 105.851 73.576 104.877 74.9098C105.423 74.589 106.036 74.4962 106.355 74.7494C106.783 75.0955 106.816 76.1592 105.985 77.054C101.502 83.1572 98.5054 87.4624 97.2209 89.8682C96.7676 90.7293 95.6175 92.0631 93.8545 93.439C92.8471 94.2241 91.932 94.7475 91.2856 95.0767C90.8827 94.8488 90.4881 94.6208 90.0851 94.3929C88.7167 93.228 86.9538 92.865 85.5434 93.4981C84.6367 93.9033 84.1162 94.6208 83.8728 95.0176C82.9325 94.4773 81.9923 93.9371 81.052 93.3884C80.137 92.8734 79.2303 92.3501 78.332 91.8182Z" fill="#FCC3D2"/>
<path d="M82.1934 94.1302C84.0655 92.5601 85.6185 92.214 86.6847 92.1886C88.666 92.138 89.8497 93.1763 92.0072 92.6614C92.9978 92.425 93.6526 91.986 94.2403 91.6146C97.5731 89.5295 97.4976 86.9211 101.51 81.6282C102.971 79.7036 103.702 78.7412 103.827 78.6062C104.91 77.475 106.019 76.6224 106.43 75.0269C106.447 74.9679 106.447 74.9256 106.463 74.875C106.774 75.3055 106.732 76.251 105.977 77.0529C101.494 83.1562 98.4966 87.4614 97.2121 89.8672C96.7588 90.7282 95.6087 92.062 93.8457 93.438C92.8383 94.223 91.9232 94.7464 91.2768 95.0756C90.9074 94.8984 90.3618 94.6198 89.7069 94.2315C88.5148 93.514 88.2966 93.2101 87.6669 93.1341C86.8778 93.0328 86.223 93.3789 85.6857 93.6575C84.8294 94.1049 84.2921 94.7127 84.0151 95.0756C83.4106 94.7633 82.8062 94.4425 82.1934 94.1302Z" fill="#F480A1"/>
<path d="M107.026 68.5511C107.101 68.5511 107.395 68.5679 107.681 68.7199L98.8574 79.2634L107.244 67.6562C107.269 67.9348 107.211 68.2472 107.026 68.5511Z" fill="#F480A1"/>
<path d="M97.6914 77.7447L105.029 67.4122C105.121 67.4545 105.247 67.5389 105.364 67.733C105.549 67.3194 105.868 67.0746 106.179 66.9648L97.6914 77.7447Z" fill="#F480A1"/>
<path d="M105.481 74.0664C105.279 74.345 105.078 74.6235 104.868 74.9021C105.145 74.7333 105.447 74.632 105.707 74.6067C104.733 75.7716 97.2031 84.0021 97.2031 84.0021L105.481 74.0664Z" fill="#F480A1"/>
<path d="M77.3321 92.8631C76.3834 92.5254 75.3592 92.1034 74.2931 91.5631C72.2866 90.5586 70.6496 89.4274 69.3652 88.3891C65.4111 82.2774 61.4654 76.1657 57.5113 70.0625C57.1084 69.1761 56.462 68.7034 55.9918 68.8215C55.8995 68.8469 55.7484 68.9144 55.5973 69.117C55.337 68.3066 54.5563 68.0027 54.1449 68.2053C53.7755 68.391 53.5489 69.0664 53.8511 69.7332C53.7503 69.7248 53.1879 69.6741 52.8017 70.0625C52.3652 70.5014 52.3316 71.3287 52.8269 71.9871C53.6412 73.4222 54.4555 74.8573 55.2699 76.2923C54.7661 75.9125 54.1701 75.7436 53.8175 75.9631C53.3474 76.2586 53.1963 77.3138 53.9266 78.293C57.6876 84.8689 60.1726 89.4865 61.1716 92.0274C61.457 92.7449 62.1874 94.7456 64.1099 95.9612C64.7563 96.3748 65.3607 96.5774 65.7385 96.6871C67.3587 97.5313 69.0797 98.3754 70.9183 99.2027C72.2783 99.8105 73.6131 100.368 74.9059 100.883C75.4348 99.6501 75.9637 98.2319 76.4254 96.6534C76.8284 95.3112 77.1222 94.028 77.3321 92.8631Z" fill="#FCC3D2"/>
<path d="M75.7364 98.8015C72.8149 98.2866 69.4568 97.2989 66.0317 95.4249C65.0243 94.8762 64.5205 94.5976 63.9329 94.1249C60.8519 91.6684 61.2297 89.0938 57.8465 83.3704C56.6124 81.2938 55.9996 80.247 55.8904 80.1035C54.9418 78.8541 53.9428 77.8834 53.7161 76.2457C53.7077 76.1866 53.7077 76.1444 53.7077 76.0938C53.3467 76.4821 53.288 77.4275 53.9428 78.3139C57.7038 84.8899 60.1887 89.5074 61.1877 92.0483C61.4731 92.7658 62.2035 94.7665 64.126 95.9821C64.7724 96.3957 65.3768 96.5983 65.7546 96.708C67.3749 97.5522 69.0959 98.3964 70.9344 99.2236C72.2944 99.8314 73.6292 100.389 74.922 100.903C75.1907 100.245 75.4677 99.5444 75.7364 98.8015Z" fill="#F480A1"/>
<path d="M53.8513 69.7359C53.7841 69.7275 53.4819 69.7106 53.1797 69.8288L60.752 81.3177L53.7422 68.8242C53.6834 69.1028 53.7086 69.4236 53.8513 69.7359Z" fill="#F480A1"/>
<path d="M62.0785 79.9527L55.9585 68.8436C55.8662 68.8773 55.7319 68.9449 55.5892 69.1221C55.4548 68.6916 55.1694 68.413 54.8672 68.2695L62.0785 79.9527Z" fill="#F480A1"/>
<path d="M54.7587 75.4023C54.9266 75.7062 55.1029 76.0017 55.2708 76.3056C55.0105 76.1114 54.7251 75.9764 54.4648 75.9173C55.3127 77.1835 61.8609 86.2244 61.8609 86.2244L54.7587 75.4023Z" fill="#F480A1"/>
</g>
<defs>
<linearGradient id="paint0_linear_8724_129041" x1="53.5171" y1="144.741" x2="110.594" y2="144.741" gradientUnits="userSpaceOnUse">
<stop stop-color="#8134BC"/>
<stop offset="1" stop-color="#21136E"/>
</linearGradient>
<linearGradient id="paint1_linear_8724_129041" x1="54.875" y1="139.661" x2="71.2754" y2="139.661" gradientUnits="userSpaceOnUse">
<stop offset="0.07" stop-color="#9962FB"/>
<stop offset="0.27" stop-color="#A161F3"/>
<stop offset="0.499" stop-color="#B860DE"/>
<stop offset="0.7502" stop-color="#DA5DBD"/>
</linearGradient>
<linearGradient id="paint2_linear_8724_129041" x1="73.5524" y1="139.952" x2="92.742" y2="139.952" gradientUnits="userSpaceOnUse">
<stop offset="0.07" stop-color="#9962FB"/>
<stop offset="0.27" stop-color="#A161F3"/>
<stop offset="0.499" stop-color="#B860DE"/>
<stop offset="0.7502" stop-color="#DA5DBD"/>
</linearGradient>
<linearGradient id="paint3_linear_8724_129041" x1="93.4299" y1="139.503" x2="107.962" y2="139.503" gradientUnits="userSpaceOnUse">
<stop offset="0.07" stop-color="#9962FB"/>
<stop offset="0.27" stop-color="#A161F3"/>
<stop offset="0.499" stop-color="#B860DE"/>
<stop offset="0.7502" stop-color="#DA5DBD"/>
</linearGradient>
<linearGradient id="paint4_linear_8724_129041" x1="85.7491" y1="135.232" x2="71.4615" y2="50.1888" gradientUnits="userSpaceOnUse">
<stop offset="0.0928" stop-color="#6669FB"/>
<stop offset="0.7831" stop-color="#D8D9FE"/>
</linearGradient>
<linearGradient id="paint5_linear_8724_129041" x1="48.3457" y1="96.0059" x2="82.1284" y2="96.0059" gradientUnits="userSpaceOnUse">
<stop stop-color="#8134BC"/>
<stop offset="1" stop-color="#21136E"/>
</linearGradient>
<linearGradient id="paint6_linear_8724_129041" x1="48.2824" y1="108.21" x2="48.3475" y2="108.21" gradientUnits="userSpaceOnUse">
<stop stop-color="#8134BC"/>
<stop offset="1" stop-color="#21136E"/>
</linearGradient>
<linearGradient id="paint7_linear_8724_129041" x1="83.3533" y1="68.8702" x2="81.1302" y2="140.041" gradientUnits="userSpaceOnUse">
<stop stop-color="#8134BC"/>
<stop offset="1" stop-color="#21136E"/>
</linearGradient>
<linearGradient id="paint8_linear_8724_129041" x1="83.9889" y1="68.8922" x2="81.7657" y2="140.063" gradientUnits="userSpaceOnUse">
<stop stop-color="#8134BC"/>
<stop offset="1" stop-color="#21136E"/>
</linearGradient>
<linearGradient id="paint9_linear_8724_129041" x1="96.9313" y1="69.2947" x2="94.7082" y2="140.465" gradientUnits="userSpaceOnUse">
<stop stop-color="#8134BC"/>
<stop offset="1" stop-color="#21136E"/>
</linearGradient>
<linearGradient id="paint10_linear_8724_129041" x1="75.9019" y1="68.6389" x2="73.6787" y2="139.809" gradientUnits="userSpaceOnUse">
<stop stop-color="#8134BC"/>
<stop offset="1" stop-color="#21136E"/>
</linearGradient>
<linearGradient id="paint11_linear_8724_129041" x1="83.6061" y1="68.8796" x2="81.3829" y2="140.05" gradientUnits="userSpaceOnUse">
<stop stop-color="#8134BC"/>
<stop offset="1" stop-color="#21136E"/>
</linearGradient>
<linearGradient id="paint12_linear_8724_129041" x1="101.308" y1="69.4308" x2="99.0845" y2="140.601" gradientUnits="userSpaceOnUse">
<stop stop-color="#8134BC"/>
<stop offset="1" stop-color="#21136E"/>
</linearGradient>
<linearGradient id="paint13_linear_8724_129041" x1="110.946" y1="69.7326" x2="108.723" y2="140.903" gradientUnits="userSpaceOnUse">
<stop stop-color="#8134BC"/>
<stop offset="1" stop-color="#21136E"/>
</linearGradient>
<linearGradient id="paint14_linear_8724_129041" x1="72.9082" y1="74.6093" x2="91.9744" y2="74.6093" gradientUnits="userSpaceOnUse">
<stop offset="0.2184" stop-color="#812CBE" stop-opacity="0.5"/>
<stop offset="1" stop-color="#210C70"/>
</linearGradient>
<linearGradient id="paint15_linear_8724_129041" x1="85.0237" y1="57.4094" x2="97.8858" y2="57.4094" gradientUnits="userSpaceOnUse">
<stop offset="0.07" stop-color="#9962FB"/>
<stop offset="0.27" stop-color="#A161F3"/>
<stop offset="0.499" stop-color="#B860DE"/>
<stop offset="0.7502" stop-color="#DA5DBD"/>
</linearGradient>
<linearGradient id="paint16_linear_8724_129041" x1="85.0237" y1="57.4094" x2="97.8858" y2="57.4094" gradientUnits="userSpaceOnUse">
<stop stop-color="#8134BC"/>
<stop offset="1" stop-color="#21136E"/>
</linearGradient>
<linearGradient id="paint17_linear_8724_129041" x1="58.0836" y1="52.107" x2="101.598" y2="52.107" gradientUnits="userSpaceOnUse">
<stop offset="0.07" stop-color="#9962FB"/>
<stop offset="0.27" stop-color="#A161F3"/>
<stop offset="0.499" stop-color="#B860DE"/>
<stop offset="0.7502" stop-color="#DA5DBD"/>
</linearGradient>
<linearGradient id="paint18_linear_8724_129041" x1="56.833" y1="47.2099" x2="69.3829" y2="47.2099" gradientUnits="userSpaceOnUse">
<stop stop-color="#DA5DBD"/>
<stop offset="0.3928" stop-color="#B860DE"/>
<stop offset="0.9282" stop-color="#9962FB"/>
</linearGradient>
<linearGradient id="paint19_linear_8724_129041" x1="58.0836" y1="51.7853" x2="82.9463" y2="51.7853" gradientUnits="userSpaceOnUse">
<stop stop-color="#8134BC"/>
<stop offset="1" stop-color="#21136E"/>
</linearGradient>
<clipPath id="clip0_8724_129041">
<rect width="136" height="130" fill="white" transform="translate(13 24)"/>
</clipPath>
</defs>
</svg>
