<svg width="162" height="154" viewBox="0 0 162 154" fill="none" xmlns="http://www.w3.org/2000/svg">
<rect width="162" height="154" rx="77" fill="#EDF2F7"/>
<g clip-path="url(#clip0_8724_128944)">
<path d="M63.0846 138.427C62.5905 140.385 62.0794 142.352 61.5512 144.336C60.6738 147.645 59.7794 150.903 58.8594 154.103C75.9305 154.027 92.9931 153.942 110.064 153.866C109.383 151.292 108.727 149.072 108.165 147.265C107.611 145.509 106.844 143.053 105.626 139.879C105.345 139.144 105.098 138.537 104.928 138.098C90.9827 138.216 77.0379 138.317 63.0846 138.427Z" fill="url(#paint0_linear_8724_128944)"/>
<path d="M75.9054 138.324C71.6376 138.358 67.3613 138.392 63.0935 138.426C62.5484 140.148 62.0373 142.039 61.6113 144.098L74.2954 145.221C74.2954 145.213 74.3721 140.384 75.9054 138.324Z" fill="url(#paint1_linear_8724_128944)"/>
<path d="M94.6118 145.054C94.6118 145.054 94.007 140.107 92.5929 138.199C88.1462 138.233 83.6996 138.267 79.2529 138.301C78.6481 139.803 77.5151 142.969 78.0007 144.817C78.0007 144.817 86.5447 146.978 94.6118 145.054Z" fill="url(#paint2_linear_8724_128944)"/>
<path d="M97.2705 145.137C98.4205 145.188 99.6557 145.188 100.968 145.12C103.208 145.011 105.218 144.724 106.973 144.369C106.649 143.204 106.275 141.997 105.866 140.756C105.559 139.844 105.244 138.958 104.929 138.105C101.692 138.131 98.446 138.156 95.209 138.181C95.9501 139.38 97.1086 141.778 97.2705 145.137Z" fill="url(#paint3_linear_8724_128944)"/>
<path d="M96.1629 46.9375C93.1303 56.5524 90.0892 66.1674 87.0566 75.7823C88.394 76.3057 92.0996 77.555 96.5548 76.3817C99.3829 75.6304 101.351 74.2122 102.424 73.3005C102.637 64.5888 102.858 55.8687 103.071 47.157L96.1629 46.9375Z" fill="url(#paint4_linear_8724_128944)"/>
<path d="M93.2666 56.1218C91.1966 62.6724 89.1266 69.2231 87.0566 75.7737C88.394 76.2971 92.0996 77.5465 96.5548 76.3731C97.0829 76.238 97.5685 76.0692 98.0285 75.8919C99.5703 69.5608 100.925 49.1406 100.925 49.1406L95.2855 52.914L93.2666 56.1218Z" fill="url(#paint5_linear_8724_128944)"/>
<path d="M50.0937 88.0231C51.5248 84.4692 54.2592 82.4854 57.0874 80.4932C59.0381 79.1172 62.0877 77.2685 66.2448 75.8757C68.3148 75.1328 70.3933 74.39 72.4633 73.6471C72.6592 71.638 72.9318 69.5107 73.3151 67.2906C73.92 63.7283 74.7037 60.4698 75.5555 57.5406C76.2711 57.2789 80.4026 55.8439 84.8237 57.988C89.6366 60.3263 90.9059 65.0198 91.0677 65.6867C90.7185 67.2484 90.3863 68.8776 90.0796 70.5659C89.7814 72.212 89.5259 73.8075 89.3044 75.3607C96.1703 76.2556 101.503 77.4627 105.191 78.4419C107.338 79.0075 109.459 79.6406 111.061 81.5231C112.049 82.6796 112.611 84.0302 113.395 88.7153C113.787 91.0705 114.23 94.2107 114.519 97.9588C113.488 100.88 111.981 102.737 110.805 103.868C105.515 108.95 96.3577 109.642 87.4048 106.004C85.8118 108.038 67.514 131.32 61.3211 134.933C60.7163 135.287 59.1574 136.199 57.3514 135.878C56.1503 135.667 54.3274 134.815 52.3425 130.999C50.1448 126.787 49.8637 123.022 49.4888 118.159C49.0885 112.892 48.2196 101.513 49.2333 91.712C49.31 90.9016 49.4633 89.5932 50.0937 88.0231Z" fill="#BC8E9A"/>
<path d="M61.0163 96.75C61.1526 96.75 61.1952 99.5695 61.4593 102.971C61.6637 105.571 61.7915 105.867 61.6211 106.795C61.1185 109.598 59.0485 111.776 58.5374 111.548C58.1455 111.371 58.9122 109.91 59.1422 106.196C59.253 104.381 59.3211 103.368 59.1422 101.942C58.9633 100.49 58.6141 99.1981 58.8696 99.1052C59.1507 98.9955 59.7385 100.506 60.2496 100.414C60.9992 100.27 60.863 96.75 61.0163 96.75Z" fill="#A06D7D"/>
<path d="M90.1991 70.8254C89.9435 72.3618 89.6795 73.8897 89.4239 75.426C88.4187 75.1981 87.0983 74.7592 85.7524 73.8728C82.2513 71.5514 81.212 67.9046 80.9395 66.7734C81.2887 67.2377 81.8595 67.8793 82.6858 68.4702C83.1883 68.8332 83.9295 69.2637 85.778 69.8377C86.8513 70.1669 88.3506 70.5637 90.1991 70.8254Z" fill="#A06D7D"/>
<path d="M93.411 70.8166C90.0633 74.8854 83.9981 71.9224 81.3744 69.1621C75.8799 63.4049 69.1673 54.7101 73.6907 46.0237C77.984 37.7848 89.7055 33.8679 96.0944 38.477C100.481 41.6341 100.856 47.7374 100.916 49.3582C100.831 49.7211 100.694 50.253 100.533 50.8945C100.285 51.8569 99.9192 53.2328 99.4933 54.8114C97.977 60.2731 95.5236 68.225 93.411 70.8166Z" fill="#BC8E9A"/>
<path d="M100.695 47.0781C100.848 48.0827 100.89 48.9015 100.907 49.3573C100.822 49.7203 100.686 50.2522 100.524 50.8937C100.277 51.856 99.9108 53.232 99.4849 54.8106C97.9771 60.2723 95.5238 68.2158 93.4112 70.8073C93.1727 71.1028 92.619 71.7612 91.6734 72.2255C90.8301 72.6392 90.0208 72.7236 89.4586 72.7236C89.3138 73.8801 89.169 75.045 89.0156 76.2015C91.1453 76.4294 93.6838 76.556 96.546 76.3788C99.1101 76.2184 101.376 75.8554 103.301 75.4333C103.08 73.458 102.901 71.4236 102.765 69.347C102.236 61.3444 102.441 53.9073 103.063 47.1625C102.279 47.1288 101.487 47.1034 100.695 47.0781Z" fill="url(#paint6_linear_8724_128944)"/>
<path d="M100.899 49.1641C100.899 49.2316 100.908 49.3076 100.908 49.3582C100.823 49.7212 100.687 50.253 100.525 50.8946C100.278 51.8569 99.9113 53.2329 99.4854 54.8115C97.9776 60.2732 95.5243 68.2167 93.4117 70.8082C93.1732 71.1037 92.611 71.7452 91.6739 72.2264C90.7028 72.7245 89.7573 72.8173 89.1184 72.8173C88.9565 73.8978 88.7947 74.9783 88.6328 76.0589C90.9754 76.4725 93.6928 76.6667 96.6828 76.3459C97.1854 76.2952 97.671 76.2277 98.148 76.1517C98.8891 71.0446 99.545 65.7011 100.065 60.1381C100.414 56.39 100.687 52.7348 100.899 49.1641Z" fill="url(#paint7_linear_8724_128944)"/>
<path d="M77.9066 33.0745C75.8877 34.3408 73.1959 36.6622 70.6488 42.1492C66.1 51.9245 68.7237 57.2849 64.4303 68.681C63.3229 71.6271 62.1559 73.9063 61.4062 75.2739C62.6585 75.983 64.1833 76.7089 65.9807 77.3252C68.9622 78.3466 71.637 78.6843 73.6644 78.7771C73.9285 76.7089 74.3033 73.5856 74.6696 69.77C75.8281 57.5635 75.2574 54.9719 76.6033 51.5615C78.1281 47.6784 82.0892 42.8498 93.0951 39.3213C93.7596 39.6421 100.063 42.8414 100.626 48.8602C100.77 50.3713 100.515 51.7304 100.148 52.8447C100.481 53.157 100.898 53.4356 101.298 53.3596C102.883 53.0304 103.684 47.2395 102.423 42.4024C102.159 41.4063 100.106 33.7161 93.7851 31.9602C91.9877 31.4622 90.3351 31.6395 89.2107 31.8758C88.6144 31.555 87.737 31.1583 86.6211 30.9304C82.6003 30.12 79.2014 32.2557 77.9066 33.0745Z" fill="url(#paint8_linear_8724_128944)"/>
<path d="M91.6294 63.9548C90.8883 63.9548 90.0365 63.6003 89.832 63.5074L90.1472 62.8068C90.6754 63.0347 91.6039 63.2964 91.9361 63.136C91.9787 63.1191 92.0043 63.0938 92.0213 63.0262C92.132 62.562 92.362 60.2996 92.558 58.299C92.9668 54.2301 93.035 53.7827 93.1457 53.6055L93.8017 54.0107L93.4694 53.8081L93.8272 53.9516C93.742 54.2217 93.512 56.5262 93.3246 58.375C93.1031 60.5866 92.8902 62.6801 92.7709 63.1951C92.7028 63.4737 92.5324 63.6931 92.2768 63.8198C92.0894 63.9211 91.868 63.9548 91.6294 63.9548Z" fill="#A06D7D"/>
<path d="M75.37 60.0137C75.2507 60.0222 75.14 60.0222 75.0207 60.0222C72.7888 60.0222 70.8381 58.4858 70.3781 55.5313C70.1311 53.9274 70.7188 52.5176 71.8433 51.589C72.61 50.9559 73.6407 50.5507 74.714 50.4748C77.2611 50.2722 78.1555 52.3235 78.2407 54.8222C78.3259 57.2618 77.8233 59.8533 75.37 60.0137Z" fill="#BC8E9A"/>
<path d="M75.0207 60.0308C72.7888 60.0308 70.8381 58.4944 70.3781 55.5399C70.1311 53.936 70.7188 52.5262 71.8433 51.5977C71.5281 51.9353 71.2981 52.3152 71.1788 52.7119C70.6251 54.4003 70.7955 56.823 71.92 58.0723C72.6525 58.9503 73.7259 59.6256 75.0207 60.0308Z" fill="#A06D7D"/>
<path d="M73.1443 53.2578C74.2943 53.6714 75.1121 54.465 75.3762 55.4442C75.9299 57.1494 75.2825 57.5799 75.2825 57.5799C75.2825 57.5799 75.5976 57.0565 74.5754 56.1448C73.681 55.3429 73.0762 55.4104 73.0762 55.4104L74.8906 55.6214C74.8906 55.613 74.3284 53.8994 73.1443 53.2578Z" fill="#A06D7D"/>
<path d="M74.2957 53.806C74.6876 53.8482 74.8409 54.2028 75.4032 55.0469C76.2635 56.3385 77.0302 57.6976 77.9502 58.9469C77.9757 58.9891 78.0694 59.0989 78.0354 59.2255C78.0183 59.3099 77.9417 59.369 77.8394 59.4534C77.7713 59.5125 77.6606 59.6054 77.5498 59.6307C77.3028 59.6898 77.0217 59.3521 76.928 59.2424C76.468 58.7021 75.9228 58.0521 75.3094 57.3008C75.2328 57.3261 74.3043 57.6132 73.5461 57.0222C72.8646 56.4989 72.7028 55.5703 72.9754 54.8781C73.1883 54.3378 73.742 53.7385 74.2957 53.806Z" fill="#F2F7FC"/>
<path opacity="0.25" d="M75.2583 56.9237C73.1969 57.1938 72.9243 55.8431 72.9924 54.8555C72.9924 54.8639 72.9839 54.8724 72.9754 54.8892C72.7028 55.5814 72.8646 56.5016 73.5461 57.0334C74.3043 57.6243 75.2328 57.3373 75.3094 57.312C75.9228 58.0633 76.468 58.7133 76.928 59.2535C77.0046 59.3464 77.2176 59.5827 77.4305 59.6334L75.2583 56.9237Z" fill="url(#paint9_linear_8724_128944)"/>
<path d="M87.5336 33.2264C88.9647 33.3446 89.6462 33.6232 89.7484 33.4206C89.8336 33.2517 89.4929 32.8381 88.9647 32.4076C88.3514 32.0784 87.6017 31.7576 86.7073 31.5719C80.3951 30.2719 74.7814 36.5271 74.2958 37.0842C73.0606 38.5193 72.0299 40.216 72.2855 40.4524C72.5666 40.7141 74.3129 39.1102 74.5599 39.3465C74.9518 39.718 71.1525 44.0654 71.4762 44.3608C71.6892 44.555 73.7421 42.9933 74.3043 42.5543C74.7388 42.2251 75.0029 41.9972 75.0625 42.0563C75.2073 42.1829 73.7421 43.6602 72.5836 45.7621C71.4847 47.7543 70.6584 50.1855 71.0673 50.4219C71.374 50.5991 72.2343 49.5017 73.444 48.2186C73.444 48.2186 76.3829 45.1206 80.4121 42.5037C84.7992 39.6504 88.8966 39.068 88.8199 38.7978C88.7177 38.4517 82.874 40.0134 82.6951 39.4563C82.6695 39.3719 82.7717 39.2537 83.0103 39.0849C84.5777 37.979 87.951 37.54 87.4399 36.6284C86.9203 35.7167 81.9114 35.7926 84.1773 35.1426C85.9747 34.6277 88.4877 35.7589 88.7773 35.3199C88.9051 35.1173 88.5814 34.7037 88.5047 34.6024C87.3717 33.1673 84.7225 33.5641 84.714 33.3952C84.714 33.3024 85.8725 33.0913 87.5336 33.2264Z" fill="url(#paint10_linear_8724_128944)"/>
<path d="M118.448 114.738L117.315 120.419C118.013 122.741 118.081 124.666 118.022 125.932C117.954 127.553 117.886 128.574 117.144 129.536C115.918 131.132 113.771 131.292 112.877 131.36C112.297 131.402 110.321 131.52 108.362 130.279C105.542 128.49 105.116 125.349 105.057 124.893C105.184 122.268 105.304 119.643 105.431 117.018L118.448 114.738Z" fill="#BC8E9A"/>
<path opacity="0.7" d="M106.335 116.865L106.182 116.89C106.199 117.262 106.369 119.448 108.294 120.959C110.381 122.605 112.809 122.073 113.107 122.006C113.993 121.778 114.973 121.474 115.995 121.035C116.429 120.849 116.838 120.664 117.213 120.469C117.384 119.752 117.562 119.034 117.733 118.308C117.912 117.278 118.091 116.249 118.269 115.219C114.291 115.767 110.313 116.316 106.335 116.865Z" fill="#A06D7D"/>
<path d="M105.388 118.142C105.277 120.395 105.175 122.641 105.064 124.895C105.081 124.996 105.099 125.156 105.133 125.334C105.209 125.764 105.311 126.077 105.329 126.119C105.593 126.921 107.739 127.942 108.293 127.368C108.514 127.14 108.421 126.718 108.378 126.524C108.08 125.165 107.782 122.776 107.45 119.247C107.186 118.505 106.623 117.998 105.388 118.142Z" fill="#A06D7D"/>
<path d="M97.3809 76.3875C98.8716 76.7252 100.371 77.0544 101.862 77.3921C102.023 81.0726 102.577 86.568 104.579 92.9414C105.865 97.0609 106.291 96.7486 107.143 99.72C108.225 103.485 106.445 122.816 106.445 122.816C105.465 133.419 107.492 135.487 105.048 137.834C102.645 140.138 100.55 138.281 89.0497 138.467C73.086 138.72 65.0957 138.847 64.329 139.007C63.9116 139.091 62.736 139.353 61.782 138.754C60.1038 137.69 60.2742 134.702 60.3083 133.596C60.5894 123.559 60.879 113.53 61.1601 103.493C61.3816 103.384 61.7309 103.206 62.1057 102.902C63.6901 101.611 64.0223 99.5174 64.1586 98.0739C64.4227 95.1362 64.5846 87.1083 64.2779 76.32C65.8538 75.7797 67.4383 75.2395 69.0142 74.6992C69.9342 78.4304 71.0501 82.8369 72.379 87.7836C74.2105 94.5791 74.9175 96.7401 77.1153 98.0739C78.8872 99.146 80.9657 99.1206 85.1312 99.07C88.6238 99.0278 90.6001 99.0025 92.3209 97.7193C94.1779 96.3349 94.7316 94.233 95.3279 91.4051C96.0775 87.6908 96.9294 82.6343 97.3809 76.3875Z" fill="url(#paint11_linear_8724_128944)"/>
<path opacity="0.25" d="M77.7029 130.227C78.214 125.829 78.4866 123.178 76.834 121.591C76.4677 121.237 76.0929 121.026 75.8373 120.899C75.8373 120.899 73.4522 119.717 72.021 116.113C71.0073 113.563 70.9222 106.152 72.7025 96.4523C70.7518 96.2666 68.801 96.0724 66.8503 95.8867C66.3733 97.3387 65.7003 98.7653 64.7547 100.099C63.971 101.205 62.9233 102.378 61.4921 103.484C61.211 113.521 60.9214 123.55 60.6403 133.587C60.6062 134.701 60.4359 137.681 62.114 138.745C62.6422 139.074 63.1277 139.082 64.661 138.998C69.227 138.761 71.4844 138.373 74.304 138.5C75.3348 138.542 76.1696 138.652 76.6722 138.719C76.8766 137.09 77.2514 134.11 77.7029 130.227Z" fill="url(#paint12_linear_8724_128944)"/>
<path d="M70.7525 92.9653C70.8718 93.4549 71.2551 93.8433 71.7321 93.9446C72.9759 94.2147 74.8073 94.4173 76.9284 93.9783C78.3255 93.6829 79.4755 93.1933 80.3359 92.7205C80.7703 92.4842 81.0344 92.0114 81.0088 91.4965C80.6936 85.0387 80.3699 78.5725 80.0547 72.1147C80.0121 71.3381 79.3307 70.7472 78.5896 70.8569L67.1662 72.4946C66.4166 72.6043 65.931 73.3556 66.1184 74.1153L70.7525 92.9653Z" fill="url(#paint13_linear_8724_128944)"/>
<path opacity="0.25" d="M67.1662 72.5038L67.5325 72.4531C67.5325 72.5544 67.5496 72.6557 67.5666 72.7486L72.2007 91.5986C72.3199 92.0882 72.7033 92.4765 73.1803 92.5778C74.424 92.8479 76.2555 93.0505 78.3766 92.6116C79.3818 92.4005 80.2592 92.0882 80.9918 91.7505C80.9322 92.1642 80.6936 92.5271 80.3359 92.7213C79.4755 93.194 78.3255 93.6921 76.9285 93.9791C74.8073 94.4181 72.9759 94.2155 71.7322 93.9453C71.2466 93.844 70.8718 93.4557 70.7525 92.9661L66.1184 74.1161C65.931 73.3564 66.4166 72.6051 67.1662 72.5038Z" fill="url(#paint14_linear_8724_128944)"/>
<path d="M69.7733 90.2962C69.9352 90.8702 70.4207 91.2754 70.9915 91.3176C72.3374 91.4189 74.2882 91.4358 76.5796 91.0137C78.0789 90.7351 79.3311 90.3468 80.2937 89.9838C80.8304 89.7812 81.1882 89.2494 81.1796 88.6585C81.103 84.328 81.0348 79.989 80.9582 75.6585C80.9496 75.3208 80.6259 75.076 80.3193 75.1942C78.4793 75.8695 76.2304 76.5111 73.6407 76.8825C71.7411 77.1526 69.4156 77.3215 66.7578 77.1442C66.4256 77.1189 66.17 77.4397 66.2637 77.7689L69.7733 90.2962Z" fill="url(#paint15_linear_8724_128944)"/>
<path d="M66.7578 77.1459C67.2519 77.1797 67.7289 77.1966 68.2059 77.205L71.7241 90.3739C71.8433 90.8213 72.1245 91.1758 72.4907 91.37C71.937 91.37 71.4345 91.3446 71 91.3109C70.4293 91.2687 69.9437 90.855 69.7819 90.2894L66.2637 77.7706C66.17 77.4414 66.4256 77.1206 66.7578 77.1459Z" fill="#76B27C"/>
<path d="M67.6096 73.2207L78.2492 71.6928C78.7433 71.6253 79.0841 71.1694 79.0074 70.6798L78.7092 68.637C78.6411 68.1474 78.1811 67.8097 77.687 67.8857L67.1752 69.3967C66.6811 69.4642 66.3404 69.9201 66.417 70.4097L66.7322 72.5792C66.7918 72.9928 67.1837 73.2798 67.6096 73.2207Z" fill="url(#paint16_linear_8724_128944)"/>
<path opacity="0.25" d="M78.2747 69.9705L67.6351 71.4984C67.2092 71.5575 66.8173 71.2705 66.7577 70.8484L66.5958 69.7257C66.451 69.9114 66.3743 70.1477 66.4084 70.401L66.7236 72.5705C66.7832 72.9926 67.1751 73.2796 67.601 73.2205L78.2406 71.6926C78.7347 71.625 79.0755 71.1692 78.9988 70.6796L78.8455 69.6328C78.7177 69.8101 78.5132 69.9367 78.2747 69.9705Z" fill="url(#paint17_linear_8724_128944)"/>
<path d="M64.8681 74.2336C64.9277 74.6303 65.2685 74.9174 65.6603 74.892C68.0285 74.7063 70.5244 74.4362 73.1311 74.0648C75.8144 73.6849 78.3444 73.229 80.7296 72.731C81.1129 72.655 81.36 72.2751 81.3003 71.8784L81.0874 70.418C81.0192 69.979 80.6189 69.692 80.2014 69.7764C77.9185 70.2829 75.4566 70.7388 72.8414 71.1102C70.2007 71.4901 67.6963 71.7433 65.3366 71.9037C64.9107 71.929 64.604 72.3258 64.6637 72.7648L64.8681 74.2336Z" fill="url(#paint18_linear_8724_128944)"/>
<path opacity="0.25" d="M65.3266 71.9139C65.5481 71.897 65.7696 71.8802 65.9996 71.8633L66.204 73.2646C66.2636 73.6613 66.6044 73.9483 66.9962 73.923C69.3644 73.7373 71.8603 73.4672 74.467 73.0957C76.8692 72.7496 79.1436 72.3529 81.3074 71.9139C81.3499 72.3022 81.1029 72.6568 80.7366 72.7328C78.3599 73.2308 75.8214 73.6867 73.1381 74.0665C70.5314 74.438 68.0355 74.7081 65.6673 74.8938C65.284 74.9276 64.9348 74.6321 64.8751 74.2354L64.6622 72.775C64.5855 72.336 64.8922 71.9393 65.3266 71.9139Z" fill="url(#paint19_linear_8724_128944)"/>
<path d="M65.5378 93.7966C64.8989 95.9829 63.8085 99.3764 62.1304 103.395C57.4622 114.563 53.4074 118.066 53.2115 125.756C53.1774 127.031 53.007 133.928 56.3633 135.312C59.1148 136.452 62.8885 133.328 63.4167 132.889C65.6911 131.007 66.7559 128.745 67.6419 126.482C70.1804 120.008 69.8737 117.078 72.31 106.104C72.31 106.104 72.3441 105.961 74.1415 98.0764C74.4822 97.7725 74.9678 97.2576 75.2574 96.4979C76.22 93.9991 73.8178 92.1167 74.8145 89.9725C75.3341 88.8498 76.6459 87.955 77.1741 87.592C77.3019 87.5076 77.813 87.1699 78.8437 86.503C79.3463 86.1823 79.7552 85.9121 80.0193 85.7349C80.2919 85.3128 80.2578 84.7641 79.9341 84.4095C79.5763 84.0043 78.9289 83.9284 78.4519 84.2576C77.7108 84.4433 76.8419 84.7219 75.9133 85.1271C74.6952 85.6673 73.7071 86.292 72.9659 86.8491C73.6219 86.081 74.6356 84.9498 75.6748 84.1225C75.8452 83.9875 76.0496 83.8355 76.3222 83.6836C77.1656 83.2193 77.9322 83.1686 78.4774 83.118C79.2015 83.0504 80.2237 82.9069 81.5271 82.5946C81.5696 82.5693 82.183 82.2401 82.2171 81.666C82.2511 81.0836 81.6633 80.4505 80.7945 80.4167C80.1726 80.4082 79.5337 80.4082 78.8863 80.4167C77.5915 80.4336 76.3393 80.4927 75.1467 80.5771C76.3137 80.003 77.4808 79.4206 78.6393 78.8466C79.3974 78.5173 79.7978 77.7745 79.653 77.192C79.4741 76.466 78.4348 75.9004 77.4211 76.3479C75.0615 77.2595 72.7019 78.1712 70.3508 79.0829C72.1567 77.555 73.9541 76.0186 75.76 74.4907C75.973 74.2375 76.0752 73.9336 76.0667 73.6297C76.0667 73.5621 76.0411 73.1232 75.7174 72.8024C75.3341 72.4225 74.6782 72.355 74.0904 72.642C71.6285 74.2797 69.1667 75.9173 66.7133 77.555C66.0404 78.0024 65.6145 78.7199 65.5293 79.5134C65.4441 80.2563 65.3759 81.016 65.3163 81.7927C64.9841 86.1823 65.1374 90.2173 65.5378 93.7966Z" fill="#BC8E9A"/>
<g opacity="0.3">
<path opacity="0.3" d="M80.1659 84.8568C80.1233 84.688 80.0637 84.5276 79.9444 84.4009C79.5866 83.9958 78.9392 83.9198 78.4622 84.249C77.9341 84.3841 77.3463 84.5613 76.7244 84.7977C76.6733 84.8146 76.6478 84.8484 76.6222 84.8737C76.537 84.9834 76.5711 85.186 76.7159 85.3717C76.767 85.4646 76.8692 85.5912 77.0226 85.6503C77.2781 85.7432 77.5422 85.6081 77.6274 85.5659C78.0022 85.3802 78.7689 85.1522 80.1659 84.8568Z" fill="#FCC3D2"/>
<path opacity="0.3" d="M78.0004 80.4418C76.2115 80.5347 75.8281 80.636 75.8281 80.7119C75.8196 80.9145 78.4263 81.3619 79.8915 81.2184C80.0874 81.2015 80.8285 81.1931 81.7996 81.2522C81.9274 81.2606 82.0467 81.2775 82.1574 81.3113C81.9956 80.8554 81.4844 80.4418 80.7944 80.4165C80.1726 80.408 79.5337 80.408 78.8863 80.4165C78.5881 80.4165 78.2985 80.4334 78.0004 80.4418Z" fill="#FCC3D2"/>
<path opacity="0.3" d="M53.5025 126.152C54.0732 119.028 58.8266 112.967 62.7707 103.934C64.5169 99.9498 65.6499 96.5732 66.3314 94.3953C65.9907 90.8161 65.897 86.7725 66.2973 82.3829C66.3655 81.6063 66.4507 80.855 66.5444 80.1122C66.6466 79.3187 67.0895 78.6096 67.7625 78.1706C70.2499 76.5751 72.7373 74.9712 75.2162 73.3758C75.4632 73.2576 75.7273 73.2154 75.9658 73.2238C75.9147 73.0888 75.8381 72.9368 75.7103 72.8102C75.327 72.4303 74.671 72.3628 74.0832 72.6498C71.6214 74.2875 69.1595 75.9251 66.7062 77.5628C66.0332 78.0102 65.6073 78.7277 65.5221 79.5212C65.437 80.2641 65.3688 81.0238 65.3092 81.8005C64.977 86.1985 65.1303 90.2336 65.5307 93.8128C64.8918 95.9992 63.8014 99.3927 62.1232 103.411C58.2814 112.604 53.4684 118.369 53.2044 125.773C53.1788 126.448 53.1192 129.284 53.2044 129.293C53.2895 129.276 53.4514 126.786 53.5025 126.152Z" fill="#FCC3D2"/>
<path opacity="0.3" d="M71.059 78.9052C71.0931 79.0065 73.9809 78.1961 75.6335 77.7233C76.1446 77.5798 77.1413 77.2928 78.4957 77.124C78.9557 77.0649 79.339 77.0396 79.5946 77.0227C79.3135 76.3811 78.3594 75.9337 77.4224 76.3474C76.2213 76.8117 75.0287 77.2759 73.8276 77.7402C71.5105 78.6266 71.042 78.863 71.059 78.9052Z" fill="#FCC3D2"/>
</g>
<path d="M102.552 107.882L105.908 95.3046C106.019 94.8909 106.394 94.6039 106.819 94.5955L117.425 94.4688C118.055 94.4604 118.524 95.0513 118.362 95.6591L113.805 112.736C113.651 113.31 113.012 113.606 112.467 113.353L103.063 108.971C102.654 108.794 102.432 108.33 102.552 107.882Z" fill="url(#paint20_linear_8724_128944)"/>
<path d="M103.599 108.701L106.956 96.1234C107.066 95.7098 107.441 95.4228 107.867 95.4143L118.379 95.2877C118.311 94.8319 117.928 94.4604 117.425 94.4689L106.819 94.5955C106.385 94.604 106.019 94.891 105.908 95.3046L102.552 107.883C102.432 108.33 102.654 108.786 103.071 108.988L103.634 109.25C103.574 109.073 103.548 108.887 103.599 108.701Z" fill="url(#paint21_linear_8724_128944)"/>
<path d="M112.876 99.5951C112.228 99.7724 112.117 101.798 112.484 103.301C112.731 104.306 113.182 105.065 113.514 105.53C113.685 106.289 113.864 107.057 114.06 107.851C114.239 108.56 114.417 109.252 114.605 109.928C112.663 109.269 110.72 108.611 108.778 107.944C108.642 107.902 108.497 107.876 108.361 107.876C106.214 107.876 104.067 107.876 101.929 107.876C100.95 107.927 100.268 108.796 100.413 109.624C100.532 110.341 101.248 110.915 102.083 110.856C100.686 110.578 99.5867 111.515 99.5611 112.333C99.5356 113.051 100.328 113.92 101.503 114.022C101.418 114.207 101.171 114.849 101.41 115.592C101.81 116.799 103.147 117.086 103.207 117.094C103.863 117.424 107.211 119.112 110.022 120.167C110.022 120.167 111.104 120.572 112.637 120.741C114.222 120.91 114.63 120.64 114.792 120.496C115.448 119.939 115.363 118.909 115.337 118.656C115.729 118.513 116.734 118.082 117.373 117.027C117.629 116.605 117.765 116.2 117.833 115.879C118.029 115.744 118.856 115.153 119.077 114.039C119.392 112.443 118.14 111.295 118.072 111.236C117.825 110.122 117.68 109.21 117.586 108.585C117.356 107.024 117.373 106.492 117.067 105.572C116.93 105.167 116.726 104.668 115.908 103.368C114.264 100.752 113.438 99.4347 112.876 99.5951Z" fill="#BC8E9A"/>
<path opacity="0.25" d="M95.3092 91.3789C94.7214 94.2069 94.1592 96.3088 92.3021 97.6932C91.6036 98.2166 90.8455 98.5205 89.9766 98.7146C92.0977 99.4575 93.418 99.103 94.0143 98.8666C96.6721 97.8283 97.3962 93.5568 98.7336 85.0731C99.3129 81.4094 99.5173 78.7926 99.4492 76.851C98.7592 76.6991 98.0777 76.5471 97.3877 76.3867C96.9277 82.6335 96.0758 87.69 95.3092 91.3789Z" fill="url(#paint22_linear_8724_128944)"/>
<path d="M76.0662 73.6288C76.0662 73.6288 76.0662 73.6203 76.0662 73.6288C76.015 73.7807 75.9384 73.9411 75.8362 74.1099C75.5806 74.5151 75.2484 74.7346 75.1036 74.8359C72.0028 76.9041 70.4525 77.9424 69.5836 78.3391C69.3876 78.4236 68.9276 78.6346 68.6465 79.1073C68.5017 79.3521 68.5017 79.4956 68.3995 80.1963C68.2973 80.9223 68.1525 81.6398 68.0332 82.3658C68.5784 81.8086 68.8936 81.2937 69.0895 80.9138C69.311 80.4664 69.5239 79.8924 70.1117 79.3099C70.2054 79.2171 70.2906 79.1411 70.3502 79.0904C72.1562 77.5625 73.9536 76.0262 75.7595 74.4982C75.9725 74.245 76.0747 73.9326 76.0662 73.6288Z" fill="#A06D7D"/>
<path d="M78.6483 78.8379C79.236 78.5847 79.6023 78.0866 79.679 77.6055C77.5834 78.5678 73.6905 80.3743 73.3668 80.5769C72.9238 80.8555 70.4023 84.7977 70.4023 84.7977C70.4023 84.7977 73.9886 80.8724 75.1557 80.56C76.3142 79.9944 77.4812 79.4204 78.6483 78.8379Z" fill="#A06D7D"/>
<path d="M72.9672 86.8491C73.6231 86.0809 74.6368 84.9498 75.6761 84.1225C75.8465 83.9874 76.0509 83.8355 76.3235 83.6835C77.1668 83.2192 77.9335 83.1686 78.4787 83.1179C79.2028 83.0504 80.225 82.9069 81.5283 82.5946C81.5624 82.5777 82.0139 82.3244 82.1672 81.9023C82.0905 81.9446 82.0224 81.9783 81.9628 82.0036C80.4209 82.6959 79.0665 82.2231 76.8091 82.5692C76.5791 82.603 76.1702 82.6705 75.7102 82.9322C75.1735 83.2361 74.8668 83.6413 74.6539 83.9368C73.7594 85.1777 72.9757 86.6803 72.7031 87.1952C72.8991 87.0011 73.1376 86.7816 73.4102 86.5452C73.2653 86.6381 73.1035 86.7478 72.9672 86.8491Z" fill="#A06D7D"/>
<path d="M80.1127 84.5664C80.019 84.7521 79.8997 84.9632 79.7464 85.1826C78.9883 86.2716 78.1705 86.5248 76.7053 87.4787C74.4734 88.9222 74.2435 89.7242 74.1923 89.9859C74.0901 90.4333 74.1583 90.7878 74.2349 91.1846C74.4394 92.206 74.7972 93.7508 75.4701 95.7515C75.8364 93.582 73.9368 91.8515 74.8483 89.9015C75.3679 88.7787 76.6797 87.8839 77.2079 87.521C78.5709 86.5924 78.8775 86.432 78.8775 86.432C79.4653 86.1028 79.9338 85.9002 80.1127 85.419C80.232 85.0898 80.1723 84.7774 80.1127 84.5664Z" fill="#A06D7D"/>
<path d="M72.3193 106.093C72.3193 106.093 72.3448 105.992 73.1796 102.328C72.5322 104.135 71.8082 106.321 71.1011 108.811C68.2219 118.958 68.767 123.145 64.823 128.683C63.6133 130.388 60.7682 134.263 56.6111 134.474C56.0489 134.499 55.5548 134.457 55.1289 134.389C55.4782 134.786 55.8785 135.107 56.3641 135.309C59.1156 136.449 62.8893 133.326 63.4174 132.887C65.6919 131.004 66.7567 128.742 67.6426 126.479C70.1896 119.996 69.883 117.067 72.3193 106.093Z" fill="#A06D7D"/>
<path d="M114.955 106.725C114.879 106.236 113.771 104.598 113.192 102.893C112.783 101.677 112.902 100.293 112.996 99.6006C112.954 99.6006 112.911 99.5838 112.877 99.5922C112.229 99.7695 112.119 101.795 112.485 103.298C112.732 104.303 113.184 105.062 113.516 105.527C113.686 106.286 113.865 107.055 114.061 107.848C114.231 108.523 114.402 109.182 114.581 109.823L115.484 110.22C115.492 110.212 115.032 107.215 114.955 106.725Z" fill="#A06D7D"/>
<path d="M114.231 114.656C114.325 114.487 112.74 113.356 111.054 112.495C110.057 111.988 108.745 111.322 106.914 110.976C106.513 110.9 106.215 110.866 102.893 110.672C102.194 110.629 101.572 110.596 101.036 110.57C101.198 110.68 101.385 110.764 101.581 110.815C101.044 110.815 100.576 111.001 100.227 111.263C101.095 111.364 102.322 111.516 103.813 111.701C105.457 111.913 106.283 112.014 106.607 112.081C108.047 112.368 109.248 112.824 111.582 113.711C113.498 114.437 114.171 114.766 114.231 114.656Z" fill="#A06D7D"/>
<path d="M99.7402 112.973C100.03 113.488 100.669 113.952 101.504 114.019C101.469 114.104 101.401 114.281 101.359 114.509L107.143 116.206C107.143 116.206 110.746 118.291 111.317 117.421C111.845 116.619 101.623 113.471 99.7402 112.973Z" fill="#A06D7D"/>
<path opacity="0.25" d="M105.039 137.832C106.265 136.659 106.368 135.553 106.291 133.426C105.729 134.329 104.971 135.359 104.025 136.237C101.733 138.364 101.878 136.895 95.8131 136.237C90.2761 135.637 90.719 137.537 84.4238 138.541C85.889 138.516 87.4138 138.491 89.0409 138.465C100.549 138.28 102.636 140.137 105.039 137.832Z" fill="url(#paint23_linear_8724_128944)"/>
<path d="M29.8715 85.3518C35.9781 85.3518 40.9285 80.4461 40.9285 74.3946C40.9285 68.3432 35.9781 63.4375 29.8715 63.4375C23.7649 63.4375 18.8145 68.3432 18.8145 74.3946C18.8145 80.4461 23.7649 85.3518 29.8715 85.3518Z" fill="url(#paint24_linear_8724_128944)"/>
<path d="M29.8713 84.2313C35.3523 84.2313 39.7954 79.8283 39.7954 74.3969C39.7954 68.9655 35.3523 64.5625 29.8713 64.5625C24.3904 64.5625 19.9473 68.9655 19.9473 74.3969C19.9473 79.8283 24.3904 84.2313 29.8713 84.2313Z" fill="url(#paint25_linear_8724_128944)"/>
<path d="M29.8715 55.0002C35.9781 55.0002 40.9285 50.0945 40.9285 44.0431C40.9285 37.9916 35.9781 33.0859 29.8715 33.0859C23.7649 33.0859 18.8145 37.9916 18.8145 44.0431C18.8145 50.0945 23.7649 55.0002 29.8715 55.0002Z" fill="url(#paint26_linear_8724_128944)"/>
<path d="M29.8713 53.8759C35.3523 53.8759 39.7954 49.4728 39.7954 44.0414C39.7954 38.61 35.3523 34.207 29.8713 34.207C24.3904 34.207 19.9473 38.61 19.9473 44.0414C19.9473 49.4728 24.3904 53.8759 29.8713 53.8759Z" fill="url(#paint27_linear_8724_128944)"/>
<path d="M25.502 41.1097C25.502 40.561 25.6808 40.0039 26.0386 39.4467C26.3879 38.8811 26.9075 38.4169 27.589 38.0454C28.2705 37.674 29.0627 37.4883 29.9742 37.4883C30.8175 37.4883 31.5671 37.6402 32.206 37.9526C32.8534 38.2649 33.3475 38.6785 33.7053 39.2104C34.0545 39.7422 34.2334 40.3162 34.2334 40.9409C34.2334 41.4305 34.1312 41.861 33.9353 42.2324C33.7308 42.6039 33.4923 42.9246 33.2197 43.1863C32.9386 43.4565 32.4445 43.9039 31.729 44.537C31.5331 44.7143 31.3712 44.8746 31.252 45.0097C31.1327 45.1448 31.0475 45.2714 30.9879 45.3811C30.9283 45.4909 30.8857 45.6091 30.8516 45.7188C30.8175 45.8285 30.7749 46.0311 30.7068 46.3097C30.596 46.9091 30.2468 47.213 29.6675 47.213C29.3608 47.213 29.1053 47.1117 28.9008 46.9175C28.6964 46.7233 28.5942 46.4279 28.5942 46.0396C28.5942 45.5584 28.6708 45.1363 28.8242 44.7818C28.9775 44.4272 29.1734 44.1149 29.429 43.8448C29.676 43.5746 30.0168 43.2539 30.4427 42.8909C30.8175 42.5701 31.0816 42.3253 31.252 42.1565C31.4138 41.9876 31.5586 41.8104 31.6694 41.6078C31.7801 41.4052 31.8397 41.1857 31.8397 40.9493C31.8397 40.485 31.6694 40.0967 31.3201 39.7844C30.9708 39.4636 30.5279 39.3117 29.9827 39.3117C29.3438 39.3117 28.8668 39.472 28.5686 39.7928C28.262 40.1136 28.0064 40.5863 27.802 41.211C27.606 41.861 27.2312 42.1902 26.6775 42.1902C26.3538 42.1902 26.0727 42.0805 25.8512 41.8441C25.6127 41.6246 25.502 41.3714 25.502 41.1097ZM29.7612 50.598C29.4034 50.598 29.0968 50.4798 28.8327 50.2519C28.5686 50.024 28.4323 49.7032 28.4323 49.298C28.4323 48.935 28.5601 48.6311 28.8157 48.3779C29.0712 48.1246 29.3864 48.0065 29.7612 48.0065C30.1275 48.0065 30.4342 48.1331 30.6897 48.3779C30.9453 48.6227 31.0645 48.935 31.0645 49.298C31.0645 49.7032 30.9368 50.024 30.6727 50.2519C30.4086 50.4798 30.1105 50.598 29.7612 50.598Z" fill="url(#paint28_linear_8724_128944)"/>
<path d="M25.569 79.9193C25.2453 79.9193 24.913 79.7927 24.666 79.5479C24.1634 79.0498 24.1634 78.2479 24.666 77.7583L33.2612 69.2407C33.7638 68.7427 34.573 68.7427 35.0671 69.2407C35.5612 69.7388 35.5697 70.5407 35.0671 71.0303L26.4719 79.5479C26.2249 79.8011 25.8927 79.9193 25.569 79.9193Z" fill="url(#paint29_linear_8724_128944)"/>
<path d="M34.1642 79.92C33.8405 79.92 33.5082 79.7934 33.2612 79.5486L24.666 71.0311C24.1634 70.533 24.1634 69.7311 24.666 69.2415C25.1686 68.7519 25.9779 68.7434 26.4719 69.2415L35.0671 77.759C35.5697 78.257 35.5697 79.059 35.0671 79.5486C34.8201 79.8019 34.4964 79.92 34.1642 79.92Z" fill="url(#paint30_linear_8724_128944)"/>
</g>
<defs>
<linearGradient id="paint0_linear_8724_128944" x1="58.8662" y1="146.107" x2="110.069" y2="146.107" gradientUnits="userSpaceOnUse">
<stop offset="0.0928" stop-color="#6669FB"/>
<stop offset="0.7831" stop-color="#D8D9FE"/>
</linearGradient>
<linearGradient id="paint1_linear_8724_128944" x1="61.6089" y1="141.772" x2="75.9024" y2="141.772" gradientUnits="userSpaceOnUse">
<stop stop-color="#8134BC"/>
<stop offset="1" stop-color="#21136E"/>
</linearGradient>
<linearGradient id="paint2_linear_8724_128944" x1="77.8867" y1="142.027" x2="94.6109" y2="142.027" gradientUnits="userSpaceOnUse">
<stop stop-color="#8134BC"/>
<stop offset="1" stop-color="#21136E"/>
</linearGradient>
<linearGradient id="paint3_linear_8724_128944" x1="95.2128" y1="141.639" x2="106.979" y2="141.639" gradientUnits="userSpaceOnUse">
<stop stop-color="#8134BC"/>
<stop offset="1" stop-color="#21136E"/>
</linearGradient>
<linearGradient id="paint4_linear_8724_128944" x1="95.5279" y1="81.0797" x2="94.7516" y2="47.3947" gradientUnits="userSpaceOnUse">
<stop offset="0.2184" stop-color="#812CBE"/>
<stop offset="1" stop-color="#210C70"/>
</linearGradient>
<linearGradient id="paint5_linear_8724_128944" x1="87.0583" y1="63.0078" x2="100.928" y2="63.0078" gradientUnits="userSpaceOnUse">
<stop stop-color="#8134BC"/>
<stop offset="1" stop-color="#21136E"/>
</linearGradient>
<linearGradient id="paint6_linear_8724_128944" x1="96.4952" y1="80.5941" x2="95.7351" y2="47.6078" gradientUnits="userSpaceOnUse">
<stop offset="0.2184" stop-color="#812CBE"/>
<stop offset="1" stop-color="#210C70"/>
</linearGradient>
<linearGradient id="paint7_linear_8724_128944" x1="88.6363" y1="62.8354" x2="100.907" y2="62.8354" gradientUnits="userSpaceOnUse">
<stop stop-color="#8134BC"/>
<stop offset="1" stop-color="#21136E"/>
</linearGradient>
<linearGradient id="paint8_linear_8724_128944" x1="80.4143" y1="84.5995" x2="84.2961" y2="34.8504" gradientUnits="userSpaceOnUse">
<stop offset="0.2184" stop-color="#812CBE"/>
<stop offset="1" stop-color="#210C70"/>
</linearGradient>
<linearGradient id="paint9_linear_8724_128944" x1="72.8513" y1="57.2378" x2="77.4311" y2="57.2378" gradientUnits="userSpaceOnUse">
<stop stop-color="#8134BC"/>
<stop offset="1" stop-color="#21136E"/>
</linearGradient>
<linearGradient id="paint10_linear_8724_128944" x1="83.6689" y1="44.1961" x2="72.4719" y2="35.4994" gradientUnits="userSpaceOnUse">
<stop stop-color="#8134BC"/>
<stop offset="1" stop-color="#21136E"/>
</linearGradient>
<linearGradient id="paint11_linear_8724_128944" x1="60.2767" y1="106.911" x2="107.491" y2="106.911" gradientUnits="userSpaceOnUse">
<stop offset="0.1458" stop-color="#6741C4"/>
<stop offset="0.4416" stop-color="#975BDD"/>
<stop offset="0.5368" stop-color="#A35BD8"/>
<stop offset="0.7066" stop-color="#C15ACA"/>
<stop offset="0.8263" stop-color="#DB59BE"/>
</linearGradient>
<linearGradient id="paint12_linear_8724_128944" x1="60.6134" y1="117.467" x2="78.0955" y2="117.467" gradientUnits="userSpaceOnUse">
<stop stop-color="#8134BC"/>
<stop offset="1" stop-color="#21136E"/>
</linearGradient>
<linearGradient id="paint13_linear_8724_128944" x1="81.8372" y1="99.356" x2="66.9791" y2="59.6284" gradientUnits="userSpaceOnUse">
<stop offset="0.0928" stop-color="#6669FB"/>
<stop offset="0.7831" stop-color="#D8D9FE"/>
</linearGradient>
<linearGradient id="paint14_linear_8724_128944" x1="66.0747" y1="83.3435" x2="80.9971" y2="83.3435" gradientUnits="userSpaceOnUse">
<stop stop-color="#8134BC"/>
<stop offset="1" stop-color="#21136E"/>
</linearGradient>
<linearGradient id="paint15_linear_8724_128944" x1="81.7142" y1="93.8718" x2="66.9312" y2="67.9853" gradientUnits="userSpaceOnUse">
<stop offset="0.1458" stop-color="#6741C4"/>
<stop offset="0.4416" stop-color="#975BDD"/>
<stop offset="0.5368" stop-color="#A35BD8"/>
<stop offset="0.7066" stop-color="#C15ACA"/>
<stop offset="0.8263" stop-color="#DB59BE"/>
</linearGradient>
<linearGradient id="paint16_linear_8724_128944" x1="75.2778" y1="76.4886" x2="70.8972" y2="66.2184" gradientUnits="userSpaceOnUse">
<stop offset="0.1458" stop-color="#6741C4"/>
<stop offset="0.4416" stop-color="#975BDD"/>
<stop offset="0.5368" stop-color="#A35BD8"/>
<stop offset="0.7066" stop-color="#C15ACA"/>
<stop offset="0.8263" stop-color="#DB59BE"/>
</linearGradient>
<linearGradient id="paint17_linear_8724_128944" x1="75.1201" y1="76.4955" x2="70.8146" y2="66.4016" gradientUnits="userSpaceOnUse">
<stop stop-color="#8134BC"/>
<stop offset="1" stop-color="#21136E"/>
</linearGradient>
<linearGradient id="paint18_linear_8724_128944" x1="74.8588" y1="76.6678" x2="70.4782" y2="66.3975" gradientUnits="userSpaceOnUse">
<stop offset="0.1458" stop-color="#6741C4"/>
<stop offset="0.4416" stop-color="#975BDD"/>
<stop offset="0.5368" stop-color="#A35BD8"/>
<stop offset="0.7066" stop-color="#C15ACA"/>
<stop offset="0.8263" stop-color="#DB59BE"/>
</linearGradient>
<linearGradient id="paint19_linear_8724_128944" x1="64.6446" y1="73.3769" x2="81.2948" y2="73.3769" gradientUnits="userSpaceOnUse">
<stop stop-color="#8134BC"/>
<stop offset="1" stop-color="#21136E"/>
</linearGradient>
<linearGradient id="paint20_linear_8724_128944" x1="115.413" y1="88.9561" x2="106.08" y2="114.753" gradientUnits="userSpaceOnUse">
<stop stop-color="#8134BC"/>
<stop offset="1" stop-color="#21136E"/>
</linearGradient>
<linearGradient id="paint21_linear_8724_128944" x1="102.52" y1="101.864" x2="118.383" y2="101.864" gradientUnits="userSpaceOnUse">
<stop stop-color="#8134BC"/>
<stop offset="1" stop-color="#21136E"/>
</linearGradient>
<linearGradient id="paint22_linear_8724_128944" x1="89.9769" y1="87.7755" x2="99.459" y2="87.7755" gradientUnits="userSpaceOnUse">
<stop stop-color="#8134BC"/>
<stop offset="1" stop-color="#21136E"/>
</linearGradient>
<linearGradient id="paint23_linear_8724_128944" x1="84.4264" y1="136.21" x2="106.314" y2="136.21" gradientUnits="userSpaceOnUse">
<stop stop-color="#8134BC"/>
<stop offset="1" stop-color="#21136E"/>
</linearGradient>
<linearGradient id="paint24_linear_8724_128944" x1="18.8145" y1="74.391" x2="40.9203" y2="74.391" gradientUnits="userSpaceOnUse">
<stop offset="0.0928" stop-color="#6669FB"/>
<stop offset="0.7831" stop-color="#D8D9FE"/>
</linearGradient>
<linearGradient id="paint25_linear_8724_128944" x1="36.2971" y1="85.9614" x2="20.4198" y2="56.8729" gradientUnits="userSpaceOnUse">
<stop offset="0.0928" stop-color="#6669FB"/>
<stop offset="0.7831" stop-color="#D8D9FE"/>
</linearGradient>
<linearGradient id="paint26_linear_8724_128944" x1="18.8145" y1="44.047" x2="40.9203" y2="44.047" gradientUnits="userSpaceOnUse">
<stop offset="0.0928" stop-color="#6669FB"/>
<stop offset="0.7831" stop-color="#D8D9FE"/>
</linearGradient>
<linearGradient id="paint27_linear_8724_128944" x1="36.2971" y1="55.6135" x2="20.4198" y2="26.5249" gradientUnits="userSpaceOnUse">
<stop offset="0.0928" stop-color="#6669FB"/>
<stop offset="0.7831" stop-color="#D8D9FE"/>
</linearGradient>
<linearGradient id="paint28_linear_8724_128944" x1="25.5004" y1="44.0428" x2="34.2352" y2="44.0428" gradientUnits="userSpaceOnUse">
<stop offset="0.1458" stop-color="#6741C4"/>
<stop offset="0.4416" stop-color="#975BDD"/>
<stop offset="0.5368" stop-color="#A35BD8"/>
<stop offset="0.7066" stop-color="#C15ACA"/>
<stop offset="0.8263" stop-color="#DB59BE"/>
</linearGradient>
<linearGradient id="paint29_linear_8724_128944" x1="24.2902" y1="74.3949" x2="35.4433" y2="74.3949" gradientUnits="userSpaceOnUse">
<stop offset="0.1458" stop-color="#6741C4"/>
<stop offset="0.4416" stop-color="#975BDD"/>
<stop offset="0.5368" stop-color="#A35BD8"/>
<stop offset="0.7066" stop-color="#C15ACA"/>
<stop offset="0.8263" stop-color="#DB59BE"/>
</linearGradient>
<linearGradient id="paint30_linear_8724_128944" x1="35.4432" y1="74.3956" x2="24.2902" y2="74.3956" gradientUnits="userSpaceOnUse">
<stop offset="0.1458" stop-color="#6741C4"/>
<stop offset="0.4416" stop-color="#975BDD"/>
<stop offset="0.5368" stop-color="#A35BD8"/>
<stop offset="0.7066" stop-color="#C15ACA"/>
<stop offset="0.8263" stop-color="#DB59BE"/>
</linearGradient>
<clipPath id="clip0_8724_128944">
<rect x="12" y="24" width="138" height="130" fill="white"/>
</clipPath>
</defs>
</svg>
