<?xml version="1.0" encoding="utf-8"?>
<!-- Generator: Adobe Illustrator 26.5.0, SVG Export Plug-In . SVG Version: 6.00 Build 0)  -->
<svg version="1.1" id="Layer_1" xmlns="http://www.w3.org/2000/svg" xmlns:xlink="http://www.w3.org/1999/xlink" x="0px" y="0px"
	 viewBox="0 0 162 154" style="enable-background:new 0 0 162 154;" xml:space="preserve">
<style type="text/css">
	.st0{clip-path:url(#SVGID_00000085940806055917347640000017790784122686845865_);fill:#EDF2F7;}
	.st1{clip-path:url(#SVGID_00000085940806055917347640000017790784122686845865_);}
	.st2{clip-path:url(#SVGID_00000168812614375014189720000007790241980266131903_);fill:#EDC0C8;}
	.st3{clip-path:url(#SVGID_00000168812614375014189720000007790241980266131903_);fill:#F480A1;}
	
		.st4{clip-path:url(#SVGID_00000168812614375014189720000007790241980266131903_);fill:url(#SVGID_00000081627203506236716150000013765772317210230975_);}
	
		.st5{opacity:0.3;clip-path:url(#SVGID_00000168812614375014189720000007790241980266131903_);fill:#412168;enable-background:new    ;}
	
		.st6{clip-path:url(#SVGID_00000168812614375014189720000007790241980266131903_);fill:none;stroke:#C2BFC7;stroke-width:2;stroke-linecap:round;stroke-linejoin:round;}
	
		.st7{clip-path:url(#SVGID_00000168812614375014189720000007790241980266131903_);fill:none;stroke:#BF9AD8;stroke-width:0.5;stroke-linecap:round;stroke-linejoin:round;}
	.st8{clip-path:url(#SVGID_00000168812614375014189720000007790241980266131903_);fill:#6B63B7;}
	
		.st9{opacity:0.7;clip-path:url(#SVGID_00000168812614375014189720000007790241980266131903_);fill:url(#SVGID_00000084524250259167290730000000738222643053217445_);enable-background:new    ;}
	
		.st10{opacity:0.3;clip-path:url(#SVGID_00000168812614375014189720000007790241980266131903_);fill:#34197F;enable-background:new    ;}
	
		.st11{opacity:0.6;clip-path:url(#SVGID_00000168812614375014189720000007790241980266131903_);fill:#34197F;enable-background:new    ;}
	.st12{clip-path:url(#SVGID_00000168812614375014189720000007790241980266131903_);fill:#FFBBE5;}
	
		.st13{clip-path:url(#SVGID_00000168812614375014189720000007790241980266131903_);fill:url(#SVGID_00000149344547687712349730000009500429145990199964_);}
	.st14{clip-path:url(#SVGID_00000168812614375014189720000007790241980266131903_);fill:#FDFDFF;}
	
		.st15{opacity:0.4;clip-path:url(#SVGID_00000168812614375014189720000007790241980266131903_);fill:#34197F;enable-background:new    ;}
	
		.st16{clip-path:url(#SVGID_00000168812614375014189720000007790241980266131903_);fill:url(#SVGID_00000158024232597684958910000010441517964597480854_);}
	.st17{clip-path:url(#SVGID_00000168812614375014189720000007790241980266131903_);fill:#7DD5F4;}
	.st18{clip-path:url(#SVGID_00000168812614375014189720000007790241980266131903_);fill:#5E4A4A;}
	
		.st19{clip-path:url(#SVGID_00000168812614375014189720000007790241980266131903_);fill:url(#SVGID_00000179644769893862313540000009692258486521796236_);}
	
		.st20{clip-path:url(#SVGID_00000168812614375014189720000007790241980266131903_);fill:url(#SVGID_00000085950501902047306670000014145750837956859565_);}
	
		.st21{opacity:0.5;clip-path:url(#SVGID_00000168812614375014189720000007790241980266131903_);fill:#412168;enable-background:new    ;}
	
		.st22{opacity:0.6;clip-path:url(#SVGID_00000168812614375014189720000007790241980266131903_);fill:none;stroke:#BF9AD8;stroke-width:0.5;stroke-linecap:round;stroke-linejoin:round;enable-background:new    ;}
	
		.st23{clip-path:url(#SVGID_00000168812614375014189720000007790241980266131903_);fill:url(#SVGID_00000110464406797712705920000003465711127224155008_);}
	
		.st24{clip-path:url(#SVGID_00000168812614375014189720000007790241980266131903_);fill:url(#SVGID_00000180341750912209864290000006436447085067631751_);}
	
		.st25{clip-path:url(#SVGID_00000168812614375014189720000007790241980266131903_);fill:url(#SVGID_00000158746364508988966730000009121329789104024208_);}
</style>
<g>
	<defs>
		<path id="SVGID_1_" d="M77,0h8c42.5,0,77,34.5,77,77l0,0c0,42.5-34.5,77-77,77h-8c-42.5,0-77-34.5-77-77l0,0C0,34.5,34.5,0,77,0z"
			/>
	</defs>
	<clipPath id="SVGID_00000090252183859375357360000013639108691229071265_">
		<use xlink:href="#SVGID_1_"  style="overflow:visible;"/>
	</clipPath>
	<path style="clip-path:url(#SVGID_00000090252183859375357360000013639108691229071265_);fill:#EDF2F7;" d="M77,0h8
		c42.5,0,77,34.5,77,77l0,0c0,42.5-34.5,77-77,77h-8c-42.5,0-77-34.5-77-77l0,0C0,34.5,34.5,0,77,0z"/>
	<g style="clip-path:url(#SVGID_00000090252183859375357360000013639108691229071265_);">
		<defs>
			<rect id="SVGID_00000126299664955414357720000012087397467600134313_" x="12" y="27" width="138" height="130"/>
		</defs>
		<clipPath id="SVGID_00000075852661604843627750000001581279600643550354_">
			<use xlink:href="#SVGID_00000126299664955414357720000012087397467600134313_"  style="overflow:visible;"/>
		</clipPath>
		<path style="clip-path:url(#SVGID_00000075852661604843627750000001581279600643550354_);fill:#EDC0C8;" d="M41.3,106.6
			c-0.6-0.5-1.4-1.3-2.7-1.9c-0.4-0.2-1.1-0.5-1.9-0.8c-1.4-0.4-2.4-0.2-4.1,0c-1,0.1-2.6,0.3-4.6,0.4c-0.5-0.5-1.1-0.9-1.7-1.4
			c-1.5-1.2-3-2.2-4.4-3.1c-0.4-0.4-1.1-0.4-1.4,0c-0.4,0.4-0.3,1,0.1,1.4c1.6,1.5,3.2,2.9,4.8,4.4c-0.6,0-1.4,0.1-2.2,0.3
			c-0.6,0.2-1.2,0.4-1.7,0.5c-2.2-1.4-4.4-2.8-6.6-4.3c-0.6-0.4-1.2-0.3-1.6,0.1c-0.3,0.3-0.2,0.8-0.2,0.9c-0.2,0-0.7,0-1,0.4
			c-0.3,0.5,0,1.5,1,2.1c-0.1,0-0.5,0-0.7,0.4c-0.2,0.4,0,1,0.6,1.3c1.7,0.8,3.4,1.6,5.2,2.4c0.7,0.5,1.8,1,3,0.9c0.1,0,0.2,0,0.3,0
			c0.4,0.2,0.8,0.3,1.2,0.5c4-0.1,8-0.2,12-0.3c0.9,0.5,1.8,1.1,2.7,1.6c0.6-0.4,1.6-1.1,2.5-2.4C40.8,108.7,41.1,107.3,41.3,106.6z
			"/>
		<path style="clip-path:url(#SVGID_00000075852661604843627750000001581279600643550354_);fill:#F480A1;" d="M26.5,106.6
			c0-0.1-0.3-0.1-0.5-0.4c-0.2-0.2-0.5-0.5-0.8-0.7c-0.2,0-0.5,0-0.8,0c-0.4,0-1,0.1-1.6,0.3c-0.5,0.2-1,0.4-1.3,0.5
			c0.2,0.3,0.7,0.6,1.3,0.8c0.2,0,0.4,0.1,1.1,0.1c0.5,0,1.2-0.1,2-0.3C26.4,106.9,26.5,106.7,26.5,106.6z"/>
		<path style="clip-path:url(#SVGID_00000075852661604843627750000001581279600643550354_);fill:#F480A1;" d="M17.7,107.4
			c-0.8-0.7-4.3-4-4.6-4.3c0,0,0,0,0,0c-0.1,0-0.3,0-0.5,0.1l7.3,6.9l0.5,0.6c0.3,0,0.5,0,0.8,0c0.1,0,0.2,0,0.3,0
			c0.1,0,0.2,0.1,0.3,0.1c0-0.1-0.1-0.2-0.2-0.2C21,110.1,18.5,108.1,17.7,107.4z"/>
		<path style="clip-path:url(#SVGID_00000075852661604843627750000001581279600643550354_);fill:#F480A1;" d="M18.3,109.8
			c-1.3-1-5.2-4.4-5.2-4.4s-0.1,0-0.2-0.1c0.1,0.1,0.2,0.1,0.3,0.2c-0.1,0-0.5,0-0.7,0.4c-0.2,0.4,0,1,0.6,1.3
			c1.7,0.8,3.4,1.6,5.2,2.4C18.2,109.7,18.2,109.8,18.3,109.8z"/>
		<path style="clip-path:url(#SVGID_00000075852661604843627750000001581279600643550354_);fill:#F480A1;" d="M34.1,109.4
			c-1.7-0.3-5.8,1-7.3,1.6c2.6-0.1,5.2-0.1,7.8-0.2c0.9,0.5,1.8,1.1,2.7,1.6c0.4-0.3,1-0.7,1.5-1.2
			C37.8,110.7,35.7,109.7,34.1,109.4z"/>
		<path style="clip-path:url(#SVGID_00000075852661604843627750000001581279600643550354_);fill:#EDC0C8;" d="M104.2,58.3
			c-0.1,0.2,1.4,14.8,1.4,14.8s-11.7,4.2-11.7,4c0-0.2-6.3-2.7-6.3-2.7s0.1-7.5,0-7.6c-0.1-0.1,3.2-7.4,3.2-7.4L104.2,58.3z"/>
		
			<linearGradient id="SVGID_00000152243882007971233900000005312235692103415487_" gradientUnits="userSpaceOnUse" x1="41.1437" y1="93.5404" x2="159.9377" y2="-14.047" gradientTransform="matrix(1 0 0 -1 0 156)">
			<stop  offset="7.000000e-02" style="stop-color:#9962FB"/>
			<stop  offset="0.27" style="stop-color:#A161F3"/>
			<stop  offset="0.499" style="stop-color:#B860DE"/>
			<stop  offset="0.7502" style="stop-color:#DA5DBD"/>
		</linearGradient>
		
			<path style="clip-path:url(#SVGID_00000075852661604843627750000001581279600643550354_);fill:url(#SVGID_00000152243882007971233900000005312235692103415487_);" d="
			M135.1,100.6c0,0-0.8-13.6-5.8-19.9c-0.2-0.3-0.5-0.6-0.5-0.6c-1.3-1.4-2.7-2.6-4.3-3.7c-1.1-0.7-2.2-1.2-3.4-1.8
			c-2.1-0.9-5-2.1-8.5-3.5c0-0.3,0-0.5,0-0.8c-0.5-1.2-1.3-3.1-2.4-5.5c-0.9-2.1-1.5-3.3-2.8-4.5c-0.5-0.4-1.1-0.9-1.7-1.2
			c-0.4,0.8-0.9,1.5-1.3,2.2l0.2,8.2c-1.5,1-3.1,2-4.7,3.1c-1.4,1-2.8,2-4,3c-1-1.1-2-2-3.2-2.8c-1.4-1-2.9-1.7-4.4-2.2
			c0-0.3,0-0.9,0-1.5c0-2,0.1-2.7,0.1-3.9c-0.1-0.8-0.1-1.6-0.3-2.3l-0.1-0.2c-0.3-0.4-0.5-0.9-0.8-1.3c-0.7-0.1-1.4-0.1-2,0
			c-0.5,0-1,0.1-1.4,0.4c-0.3,0.2-0.7,0.4-1.2,1.8c-0.7,1.6-0.4,1.9-0.9,3c-0.4,0.6-0.8,1.2-1.3,1.8c-0.5,0.7-0.9,1.3-1.2,1.8
			c-0.8,1.2-1.2,2.7-1.1,4.1c-2,1-3.6,1.8-5,2.5c-3,1.6-4,2.2-5.1,3.1c0,0-1.3,1.1-2.3,2.5c-3.3,4.4-3.9,13.2-4.2,18.6
			c-0.3,5.6-0.5,10.2-0.6,13.1c3,3.9,5.9,7.8,8.9,11.7c1.6-0.1,3.2-0.3,4.7-0.4c-1.1,7.8-1.7,13.8-1.8,16.9c-0.1,1.2-0.1,3.2,1.1,5
			c0.6,0.9,1.3,1.5,1.7,1.8c-0.3,1.6-0.5,3-0.6,4c-0.1,0.9-0.2,1.5,0.2,2c0.5,0.7,1.6,0.7,1.9,0.7c35,1.4,38.2,1.1,44.7,0.5
			c0.3,0,1.2-0.1,1.7-0.7c0.4-0.5,0.4-1.2,0.3-1.9c-0.1-1.6-0.3-3-0.4-4.3c0.2-0.4,0.6-1.2,1-2.1c0.7-2,0.8-3.8,0.9-7.5
			c0.1-2.9,0.1-4.4,0.1-4.6c-0.1-7-1.4-17.2-1.6-19c1.3-0.1,1.9,0.2,2.2,0.6c0.3,0.3,0.3,0.6,0.7,1.2c0.3,0.4,0.6,0.8,0.9,1.2
			c0.3,0.5,0.7,1,1.2,1.7c1.5,1.6,4.3,3.6,5.7,3.2C135.2,123.8,136.3,122.3,135.1,100.6z"/>
		
			<path style="opacity:0.3;clip-path:url(#SVGID_00000075852661604843627750000001581279600643550354_);fill:#412168;enable-background:new    ;" d="
			M121.6,156.4c0.3,0,1.2-0.1,1.7-0.7c0.4-0.5,0.4-1.2,0.3-1.9c-0.1-1.6-0.3-3-0.4-4.3c0.2-0.4,0.6-1.2,1-2.1c0.7-2,0.8-3.8,0.9-7.5
			c0.1-2.9,0.1-4.4,0.1-4.6c-0.1-7-1.4-17.2-1.6-19c0.2,0,0.3,0,0.5,0c3.2-0.2,5.8-1.9,7.6-3.7c-1.4-1.2-2.6-1.6-3.4-1.6
			c-0.3,0-1,0-2.3-0.1c-1-0.1-1.4-0.1-1.6-0.3c-0.7-0.5-0.6-1.7-0.5-2.1c0.1-1.2-0.2,1.8-1-7.8c-0.3-3.7-0.3-6.7-0.5-6.7
			c-0.4,0-0.6,7-1.7,7.1c-0.4,0-0.7-1-1-1c-0.4,0.1,0.4,3.2,0.8,6.1c0.6,3.9,0,3.7,0.5,7.2c0.6,4.4,1.6,4.8,2.2,9.4
			c0.2,1.2,0.2,2.7,0.3,5.5c0.2,4.4,0,4.6,0.1,9c0.1,5.8,0.5,6.8-0.3,8.9c-0.8,2.2-2.3,3.7-3.3,4.6c-2.5,0.2-6.5,0.4-11.5,0.7
			c-11.8,0.8-13.7,0.9-16.8,0.9c-3.9-0.1-9.5-0.7-16.3-2.7c-0.2,1.3-0.4,2.5-0.5,3.4c-0.1,0.9-0.2,1.5,0.2,2
			c0.5,0.7,1.6,0.7,1.9,0.7C111.9,157.3,115.1,157,121.6,156.4z"/>
		
			<path style="opacity:0.3;clip-path:url(#SVGID_00000075852661604843627750000001581279600643550354_);fill:#412168;enable-background:new    ;" d="
			M75.5,113.8c0-2.8-0.2-3.1-0.2-6c-0.1-3.9,0.3-7.7,0.3-7.7c-0.5-2-0.7-2.4-0.9-2.4c-0.6,0.1,0.1,6-1.1,6.3
			c-0.8,0.2-2.1-2.5-2.2-2.4c-0.1,0.1,1.6,2.5,2.2,5.9c0.1,0.4,0.2,1.4,0.3,3.5c0.1,5.4,0.1,8.2-1.1,9c-2.9,2-11.7-6.3-12-5.9
			c-0.2,0.2,2.3,2.8,13.6,13.2c0.1-0.4,0.8-5.8,1.1-9.5C75.4,115.8,75.4,114.7,75.5,113.8z"/>
		
			<path style="opacity:0.3;clip-path:url(#SVGID_00000075852661604843627750000001581279600643550354_);fill:#412168;enable-background:new    ;" d="
			M92.5,74c0.5,0.3,1.1,0.4,1.7,0.4c-0.5-0.4-1.1-0.9-1.6-1.2c-1.4-1-2.9-1.7-4.4-2.2c0-0.3,0-0.9,0-1.5c0-0.1,0-0.2,0-0.2
			c0-1,0.1-1.6,0.1-2.2c0-0.1,0-0.2,0-0.3v-0.1c0-0.1,0-0.3,0-0.4v-0.1c0-0.1,0-0.3,0-0.4c0-0.2,0-0.3,0-0.4
			c-0.1-0.8-0.1-1.6-0.3-2.3l-0.1-0.2c-0.3-0.4-0.5-0.9-0.8-1.3c-0.4-0.1-0.8-0.1-1.2-0.1c0,1.2,0.1,7.5,0.4,8
			C86.5,70.3,92,73.6,92.5,74z"/>
		
			<path style="opacity:0.3;clip-path:url(#SVGID_00000075852661604843627750000001581279600643550354_);fill:#412168;enable-background:new    ;" d="
			M107.5,70.3c0.9-0.3-1.2-1.2-1.6-2.5c-0.4-1.1,0.1-6.5,0.3-8l-0.2-0.1l-1.3,1.7l-0.3,0.4l0.2,8.2c-1.3,0.8-2.6,1.7-4,2.7
			C102.4,71.8,106.6,70.5,107.5,70.3z"/>
		
			<path style="opacity:0.3;clip-path:url(#SVGID_00000075852661604843627750000001581279600643550354_);fill:#412168;enable-background:new    ;" d="
			M96.8,79.7c0,0,12.4-3.6,13.6-4.1c1.1-0.4,3.2-2.8,4-3.4l-2-0.8c0-0.3,0-0.5,0-0.8c-0.2-0.3-0.3-0.7-0.5-1.1
			c-0.5-1.1-1.1-2.7-1.9-4.4c-0.3-0.5-0.5-1.1-0.7-1.5c0.9,2.2,1.7,3.8,2.1,4.9c0,0.3,0,0.4,0,0.7c-0.1,1-0.2,1.9-0.2,2
			c0,0.1-1.1,2.7-2,3.2c-1,0.5-11.1,3.4-12.6,4.4C95.2,79.9,96.8,79.7,96.8,79.7z"/>
		
			<path style="opacity:0.3;clip-path:url(#SVGID_00000075852661604843627750000001581279600643550354_);fill:#412168;enable-background:new    ;" d="
			M90.6,78.4c0.8,0.4,0.7,2.1,0.7,2.1c0.1-0.4,0.2-0.8,0.3-1.2c0.1-0.7,4.2-3.3,4.2-3.3L89,77.7C89.5,77.9,90.1,78.1,90.6,78.4z"/>
		
			<path style="opacity:0.3;clip-path:url(#SVGID_00000075852661604843627750000001581279600643550354_);fill:#412168;enable-background:new    ;" d="
			M78.4,75.8c0,0,4.4,0.7,4.7,0.9c0.2,0.2,5,0.2,5,0.2s-3.2-0.8-3.3-0.8c-0.1-0.1-3.4-1-4.1-1.4c-0.9-0.6-1.5-1.5-1.8-2.5
			c0-0.5,0.1-1.1,0.2-1.6c-0.7,1.1-1,2.5-0.9,3.8c-1,0.4-1.9,0.9-2.7,1.3L78.4,75.8z"/>
		
			<path style="opacity:0.3;clip-path:url(#SVGID_00000075852661604843627750000001581279600643550354_);fill:#412168;enable-background:new    ;" d="
			M116.1,133.5c0.9,1.4,2,3.4,2.6,6.3c0.3,0.5,0.5,1.1,0.6,1.8c0.1-0.7,0.3-1.8,0.3-3.2c0-0.8-0.1-6-3.6-10.1
			c-1.6-1.9-2.6-2-3.1-1.9c-0.1,0-1,0.1-1.3,0.7C111,128.5,113.9,130.3,116.1,133.5z"/>
		
			<path style="opacity:0.3;clip-path:url(#SVGID_00000075852661604843627750000001581279600643550354_);fill:#412168;enable-background:new    ;" d="
			M110.5,143.6c-0.9,0.3-26.1,0.7-27.3,0.4c-1-0.4-1.8-0.9-2.5-1.6c-0.1,0.9,0.4,1.8,1.1,2.2c1.3,0.7,28.6,0.4,30.2,0.1
			C113.6,144.3,111.4,143.4,110.5,143.6z"/>
		
			<path style="clip-path:url(#SVGID_00000075852661604843627750000001581279600643550354_);fill:none;stroke:#C2BFC7;stroke-width:2;stroke-linecap:round;stroke-linejoin:round;" d="
			M101.4,76.2c0.4,0.5,0.8,1.1,1.1,1.6c3,5.4,1.8,10.6,1.7,16.4c-0.1,4.2,0.5,8.5,1.7,12.5"/>
		
			<path style="clip-path:url(#SVGID_00000075852661604843627750000001581279600643550354_);fill:none;stroke:#C2BFC7;stroke-width:2;stroke-linecap:round;stroke-linejoin:round;" d="
			M88.9,75.8c-1.1,0.8-2,1.9-2.4,3.2c-1,3.3,2,5.6,2.7,10.4c0.3,2.3,0.1,4.6-0.7,6.7"/>
		
			<path style="clip-path:url(#SVGID_00000075852661604843627750000001581279600643550354_);fill:none;stroke:#BF9AD8;stroke-width:0.5;stroke-linecap:round;stroke-linejoin:round;" d="
			M70.7,98.1c0.9,2.8,1.8,5.5,2.8,8.2c0.4,2.8,0.9,5.6,1.3,8.5"/>
		
			<path style="clip-path:url(#SVGID_00000075852661604843627750000001581279600643550354_);fill:none;stroke:#BF9AD8;stroke-width:0.5;stroke-linecap:round;stroke-linejoin:round;" d="
			M75.4,92.5l-0.1,6.4c0,0-0.2,1-0.4,2.4c-0.3,2.2-0.2,4-0.2,4.5c0.1,1.8,0.1,6.2-0.4,16.7C74.8,108.4,75.4,92.4,75.4,92.5z"/>
		
			<path style="clip-path:url(#SVGID_00000075852661604843627750000001581279600643550354_);fill:none;stroke:#BF9AD8;stroke-width:0.5;stroke-linecap:round;stroke-linejoin:round;" d="
			M89.4,126.9c0.3,0,22.3,0,22.3,0s-0.3,2.2,2,3.6c2.3,1.4,5,9.1,5.1,9.6c0.1,0.5,0.1,0.9,0.1,1.4"/>
		
			<path style="clip-path:url(#SVGID_00000075852661604843627750000001581279600643550354_);fill:none;stroke:#BF9AD8;stroke-width:0.5;stroke-linecap:round;stroke-linejoin:round;" d="
			M87.8,126.1c0,0-1,3-1.6,3.6c-0.7,0.6-3.7,9.1-4.3,9.8c-0.6,0.6-1.1,0.6-1.2,1"/>
		
			<path style="clip-path:url(#SVGID_00000075852661604843627750000001581279600643550354_);fill:none;stroke:#BF9AD8;stroke-width:0.5;stroke-linecap:round;stroke-linejoin:round;" d="
			M119.1,95.4c0,1.3,0.1,3.2,0.7,5.6c0.3,1.1,0.5,1.9,0.7,2.2c0.6,1.8,1.2,4.7,0.9,9.4"/>
		
			<path style="clip-path:url(#SVGID_00000075852661604843627750000001581279600643550354_);fill:none;stroke:#BF9AD8;stroke-width:0.5;stroke-linecap:round;stroke-linejoin:round;" d="
			M104.5,69.9c-6.2,4.6-8.6,6.2-9.7,6.8c-1,0.5-1.7,1.2-2.6,1.9c-0.3,0.2-0.6,0.4-0.8,0.8c-0.2,0.4-0.3,0.8-0.3,1.2"/>
		<path style="clip-path:url(#SVGID_00000075852661604843627750000001581279600643550354_);fill:#EDC0C8;" d="M86.7,36.6
			c-1.3,1.8-2.2,3.7-2.7,5.8c-0.4,1.7-0.5,3.4-0.3,5.1c0.3,5.3,0.5,8,1.5,10.5c0.4,0.9,4.1,9.2,10.6,8.9c4.4-0.3,8.6-4.5,9.6-10.3
			c0.7-2.7,1.2-5.5,1.4-8.3c0.4-6,0.5-9.3-1.8-12c-2.9-3.3-7.7-3.3-8.9-3.3C92.7,33.1,89.3,34.3,86.7,36.6z"/>
		<path style="clip-path:url(#SVGID_00000075852661604843627750000001581279600643550354_);fill:#F480A1;" d="M88.2,63.2
			c0,1.2,0,2.4-0.1,3.6c0.2,0.3,3.5,4.8,8,4.4c4.8-0.4,7.5-6.1,8.1-9.6c0.1-0.6,0.2-1.1,0.2-1.5L88.2,63.2z"/>
		<path style="clip-path:url(#SVGID_00000075852661604843627750000001581279600643550354_);fill:#6B63B7;" d="M83.3,45.7
			c1.4-6.8,3.4-8.6,5-8.9c2.3-0.5,3.6,2.1,7.4,2.2c4.2,0.1,5.8-3.1,7.8-2c0,0,2.6,1.4,2.8,8.1c0,0.4,0.1,0.9,0.1,1.4
			c0.1,0.6,0.2,1.2,0.2,1.8c0,1.6,0.1,4.6-1.7,7.5c-0.9,1.6-1.4,2.3-2.3,2.6c-1.7,0.5-2.9-1.2-6.5-1.6c-0.7-0.1-1.4-0.1-2.1,0
			c-3.4,0.3-4.6,2-6.1,1.6C87,58,85.9,57,85,53.9L84,44.2l-1,0.6c0.4,1.4,0.7,2.8,0.9,4.2c0.9,6.2,0.2,8.6,2,13
			c0.5,1.3,0.9,2.3,1.8,3.4c1.6,1.9,4.7,4,8.5,3.7c5-0.4,7.5-4.4,8-5.2c0.4-0.6,0.6-1.1,0.9-1.9c1.6-4.1,1.8-6.7,1.9-11.6
			c0.1-2.9,0-4.5,1.1-5.2c0.6-0.3,1.3-0.4,1.9-0.2c0.2-1.2,0.2-2.6,0.1-3.8c-0.1-1.1-0.4-4.1-1.9-6.5c-3.2-4.9-10.3-5.1-12.3-5.1
			C93.1,29.5,90.5,30,88,31c-2.6,1-3.5,2-3.9,2.5c-0.7,0.9-1.2,1.9-1.6,4c-0.6,2.8-0.7,5.6-0.4,8.4L83.3,45.7z"/>
		
			<linearGradient id="SVGID_00000167365184759615820580000003725482252479774856_" gradientUnits="userSpaceOnUse" x1="89.0747" y1="129.1121" x2="109.567" y2="74.2861" gradientTransform="matrix(1 0 0 -1 0 156)">
			<stop  offset="5.770000e-02" style="stop-color:#9938E5"/>
			<stop  offset="0.8889" style="stop-color:#21136E"/>
		</linearGradient>
		
			<path style="opacity:0.7;clip-path:url(#SVGID_00000075852661604843627750000001581279600643550354_);fill:url(#SVGID_00000167365184759615820580000003725482252479774856_);enable-background:new    ;" d="
			M83.3,45.7c1.4-6.8,3.4-8.6,5-8.9c2.3-0.5,3.6,2.1,7.4,2.2c4.2,0.1,5.8-3.1,7.8-2c0,0,2.6,1.4,2.8,8.1c0,0.4,0.1,0.9,0.1,1.4
			c0.1,0.6,0.2,1.2,0.2,1.8c0,1.6,0.1,4.6-1.7,7.5c-0.9,1.6-1.4,2.3-2.3,2.6c-1.7,0.5-2.9-1.2-6.5-1.6c-0.7-0.1-1.4-0.1-2.1,0
			c-3.4,0.3-4.6,2-6.1,1.6C87,58,85.9,57,85,53.9L84,44.2l-1,0.6c0.4,1.4,0.7,2.8,0.9,4.2c0.9,6.2,0.2,8.6,2,13
			c0.5,1.3,0.9,2.3,1.8,3.4c0.4,0.4,3.6,4.1,8.5,3.7c4.6-0.4,7.1-4,7.7-4.9c0.6-0.8,0.8-1.5,1.2-2.2c1.7-4,1.8-6.5,1.9-11.6
			c0.1-2.9,0-4.5,1.1-5.2c0.6-0.3,1.3-0.4,1.9-0.2c0.2-1.2,0.2-2.6,0.1-3.8c-0.1-1.1-0.4-4.1-1.9-6.5c-3.2-4.9-10.2-5.1-12.3-5.1
			C93.1,29.5,90.5,30,88,31c-2.6,1-3.5,2-3.9,2.5c-0.7,0.9-1.2,1.9-1.6,4c-0.6,2.8-0.7,5.6-0.4,8.4L83.3,45.7z"/>
		
			<path style="opacity:0.3;clip-path:url(#SVGID_00000075852661604843627750000001581279600643550354_);fill:#34197F;enable-background:new    ;" d="
			M102.5,35.2c-2.1-1.1-3.6,2.1-7.8,2c-3.8-0.1-5.1-2.7-7.4-2.2c-1.5,0.4-3.3,2-4.7,7.7l0.4-0.2l0.4,3.5c0.3,1.2,0.5,2.3,0.6,3
			c0.3,1.6,0.4,3,0.4,4.2c0.3,1,0.8,1.9,1.4,2.7c-0.3-0.7-0.5-1.3-0.7-2l-1.1-9.7l-0.4,0.2c1.4-5.7,3.2-7.3,4.7-7.7
			c2.3-0.5,3.6,2.1,7.4,2.2c4.2,0.1,5.8-3.1,7.8-2c0.3,0.2,0.5,0.4,0.7,0.5C103.4,35.7,102.5,35.2,102.5,35.2z"/>
		
			<path style="opacity:0.6;clip-path:url(#SVGID_00000075852661604843627750000001581279600643550354_);fill:#34197F;enable-background:new    ;" d="
			M108,45c0.6-0.3,1.3-0.4,1.9-0.2c0.2-1.2,0.2-2.5,0.1-3.8c-0.1-0.6-0.2-1.7-0.5-3.1c-0.3-1.1-0.7-2.2-1.4-3.2
			c-0.1-0.2-0.3-0.4-0.4-0.6c0.7,1.7,1.1,3.4,1.2,5.2c0.1,1.2,0.1,2.6-0.1,3.8c-0.7-0.2-1.4-0.1-1.9,0.2c-0.3,0.2-0.5,0.4-0.6,0.7
			c0,0.1,0,0.3,0,0.4c0,0,0,0.1,0,0.1c0,0.2,0,0.3,0,0.5c0,0.4,0.1,0.9,0.1,1.4c0.1,0.6,0.2,1.2,0.2,1.8c0,0.8,0,1.6-0.1,2.3
			c0,0,0,0,0,0.1c0,0,0,0,0,0c-0.1,1.2-0.4,2.6-1,4c-0.2,1.4-0.6,3.4-1.5,5.7c-0.2,0.4-0.4,0.9-0.6,1.3c-1.1,2.1-3.8,4.9-7.8,5.3
			c-5,0.5-8.3-3.2-9.1-4.1c-0.3-0.4-0.6-0.7-0.8-1c0,0,0,0.1,0,0.1c0,0.1,0.1,0.2,0.1,0.2c0.5,1.3,0.9,2.3,1.8,3.4
			c0.4,0.4,3.6,4.1,8.5,3.7c4.6-0.4,7.1-4,7.7-4.9c0.6-0.8,0.8-1.5,1.1-2.2c1.7-4,1.8-6.5,1.9-11.6c0.1-2.9,0-4.5,1.1-5.2
			c0,0,0,0,0,0C108,45.1,108,45,108,45z"/>
		<path style="clip-path:url(#SVGID_00000075852661604843627750000001581279600643550354_);fill:#FFBBE5;" d="M84.1,35.3
			c0.3-0.7,0.7-1.1,1.3-1.6c6.5-4.5,15.1-4.4,21.4,0.3c0.7,0.5,1.2,1.1,1.4,2c1,3.5,1.1,7.2,0.3,10.7l-1.4,1.4
			c0.4-2.6,0.3-5.3-0.3-7.8c-0.2-0.8-0.4-1.5-0.6-2.1c-0.4-1.1-1.2-2-2.2-2.3c-5.6-2.1-11.8-2.1-17.4-0.1c-0.9,1.2-1.6,2.7-2.2,4.1
			c-1,2.8-1.4,5.8-1,8.8L82,46.4C81.9,42.6,82.6,38.8,84.1,35.3z"/>
		
			<linearGradient id="SVGID_00000095323719781919272850000006492553478177669519_" gradientUnits="userSpaceOnUse" x1="73.8972" y1="126.7607" x2="135.085" y2="89.4106" gradientTransform="matrix(1 0 0 -1 0 156)">
			<stop  offset="7.000000e-02" style="stop-color:#9962FB"/>
			<stop  offset="0.27" style="stop-color:#A161F3"/>
			<stop  offset="0.58" style="stop-color:#B860DE"/>
			<stop  offset="0.95" style="stop-color:#DA5DBD"/>
		</linearGradient>
		
			<path style="clip-path:url(#SVGID_00000075852661604843627750000001581279600643550354_);fill:url(#SVGID_00000095323719781919272850000006492553478177669519_);" d="
			M109.3,45.9l1.2,0.1c1.4,0.1,2.5,1.2,2.4,2.6l-0.2,5.3c-0.1,1.4-1.2,2.5-2.6,2.4l-1.2-0.1c-1.4-0.1-2.5-1.2-2.4-2.6l0.2-5.3
			C106.8,46.9,108,45.9,109.3,45.9z"/>
		<path style="clip-path:url(#SVGID_00000075852661604843627750000001581279600643550354_);fill:#FDFDFF;" d="M108.6,44.4
			c1,0.1,1.8,0.9,1.7,1.9l-0.4,9.7c-0.1,1-0.9,1.8-1.9,1.7c-1-0.1-1.8-0.9-1.7-1.9l0.4-9.7C106.8,45.1,107.6,44.4,108.6,44.4z"/>
		
			<path style="opacity:0.4;clip-path:url(#SVGID_00000075852661604843627750000001581279600643550354_);fill:#34197F;enable-background:new    ;" d="
			M112.6,47.3l-0.2,4.9c-0.3,0.3-0.7,0.5-1.1,0.5s-0.9-0.3-1.2-0.6c0,0.2,0.2,2.6-1.2,3.5c-0.4,0.3-0.8,0.4-1.2,0.4
			c-0.6-0.1-1.1-0.3-1.4-0.8v0.7c-0.1,1,0.8,1.8,1.7,1.8c0.9,0,1.6-0.5,1.8-1.4h0.2c1.4,0.1,2.6-1,2.6-2.4l0.2-5.3
			C113,48.1,112.9,47.7,112.6,47.3z"/>
		
			<linearGradient id="SVGID_00000103987626555653946960000008760479036221622197_" gradientUnits="userSpaceOnUse" x1="65.825" y1="113.6049" x2="127.0076" y2="76.2549" gradientTransform="matrix(1 0 0 -1 0 156)">
			<stop  offset="7.000000e-02" style="stop-color:#9962FB"/>
			<stop  offset="0.27" style="stop-color:#A161F3"/>
			<stop  offset="0.58" style="stop-color:#B860DE"/>
			<stop  offset="0.95" style="stop-color:#DA5DBD"/>
		</linearGradient>
		
			<path style="clip-path:url(#SVGID_00000075852661604843627750000001581279600643550354_);fill:url(#SVGID_00000103987626555653946960000008760479036221622197_);" d="
			M81.8,56.7l-1.2,0.1c-1.4,0.1-2.6-1-2.7-2.4l-0.3-5.3c-0.1-1.4,1-2.6,2.4-2.7l1.2-0.1c1.4-0.1,2.6,1,2.7,2.4l0.3,5.3
			C84.3,55.4,83.2,56.6,81.8,56.7z"/>
		<path style="clip-path:url(#SVGID_00000075852661604843627750000001581279600643550354_);fill:#FDFDFF;" d="M82.7,58.1
			c-1,0.1-1.8-0.7-1.9-1.7l-0.6-9.7c-0.1-1,0.7-1.8,1.7-1.9c1-0.1,1.8,0.7,1.9,1.7l0.6,9.7C84.4,57.2,83.7,58.1,82.7,58.1z"/>
		
			<path style="opacity:0.4;clip-path:url(#SVGID_00000075852661604843627750000001581279600643550354_);fill:#34197F;enable-background:new    ;" d="
			M83.8,46.6c-0.1-0.6-0.4-1.1-0.9-1.4c0.1,2.3,0.2,4.6,0.3,6.9c-0.2,0.5-0.6,0.9-1,1.1c-0.6,0.2-1.2,0.2-1.7-0.2
			c0.1,0.9-0.6,1.6-1.4,1.6c-0.1,0-0.1,0-0.1,0c-0.6-0.1-1-0.5-1.1-1.1l0.1,1c0.1,1.4,1.3,2.4,2.7,2.4h0.2c0.3,1,1.2,1.6,2.2,1.3
			c0.9-0.2,1.4-1,1.4-1.8L83.8,46.6z"/>
		<path style="clip-path:url(#SVGID_00000075852661604843627750000001581279600643550354_);fill:#7DD5F4;" d="M106.8,34
			c-6.3-4.6-15-4.7-21.4-0.3c-0.2,0.2-0.5,0.4-0.6,0.5l1.8,1.5l0.1-0.1c5.7-2,11.8-1.9,17.4,0.1c0.5,0.2,0.9,0.4,1.2,0.8l2.2-1.9
			C107.3,34.4,107,34.2,106.8,34z"/>
		<path style="clip-path:url(#SVGID_00000075852661604843627750000001581279600643550354_);fill:#5E4A4A;" d="M95,54.1
			c-0.6,0-1.1,0-1.4,0c0,0-0.3,0-0.5-0.2C93,53.8,93,53.8,93,53.7c0.1-1.1,1.3-7,1.3-7.1c0-0.1-0.1-0.3-0.2-0.3
			c-0.1-0.1-0.2,0-0.3,0c-0.1,0.1-0.1,0.1-0.1,0.1c-0.1,0.3-1.2,5.9-1.3,7.2c0,0.2,0.1,0.4,0.2,0.5c0.2,0.3,0.6,0.4,1,0.4
			c0.2,0,0.4,0.1,0.6,0.1c0.3,0,0.6-0.1,0.8-0.2c0.1,0,0.2-0.1,0.2-0.3C95.2,54.2,95.1,54.1,95,54.1z"/>
		
			<linearGradient id="SVGID_00000102506127880657008380000014072096901699303846_" gradientUnits="userSpaceOnUse" x1="36.4794" y1="84.316" x2="50.438" y2="90.1684" gradientTransform="matrix(1 0 0 -1 0 156)">
			<stop  offset="0.1458" style="stop-color:#6741C4"/>
			<stop  offset="0.4416" style="stop-color:#975BDD"/>
			<stop  offset="0.5368" style="stop-color:#A35BD8"/>
			<stop  offset="0.7066" style="stop-color:#C15ACA"/>
			<stop  offset="0.8263" style="stop-color:#DB59BE"/>
		</linearGradient>
		
			<path style="clip-path:url(#SVGID_00000075852661604843627750000001581279600643550354_);fill:url(#SVGID_00000102506127880657008380000014072096901699303846_);" d="
			M34.5,66.9c-0.4-0.9-0.5-1.9-0.3-3c0.2-1.1,0.7-2.2,1.6-3.3c0.8-1,2-1.9,3.5-2.5c1.4-0.6,2.6-0.8,3.9-0.7c1.2,0.1,2.3,0.4,3.2,1
			c0.9,0.6,1.6,1.4,2,2.4c0.3,0.8,0.5,1.5,0.4,2.3c-0.1,0.7-0.2,1.4-0.5,2c-0.3,0.6-0.8,1.7-1.5,3.2c-0.2,0.4-0.3,0.8-0.5,1.1
			c-0.1,0.3-0.2,0.6-0.2,0.8c0,0.2,0,0.4,0,0.6c0,0.2,0.1,0.5,0.2,1c0.2,1-0.1,1.7-1.1,2.1c-0.5,0.2-1,0.2-1.4,0
			c-0.5-0.2-0.8-0.6-1.1-1.2c-0.3-0.8-0.5-1.5-0.5-2.2c0-0.7,0.1-1.3,0.3-1.9c0.2-0.6,0.5-1.3,1-2.2c0.4-0.8,0.6-1.3,0.8-1.7
			c0.2-0.4,0.3-0.8,0.3-1.2c0-0.4,0-0.8-0.2-1.2c-0.3-0.7-0.9-1.2-1.6-1.5c-0.8-0.3-1.6-0.2-2.5,0.1c-1,0.4-1.7,1-1.9,1.7
			c-0.3,0.7-0.4,1.6-0.3,2.8c0.1,1.2-0.3,2-1.1,2.3c-0.5,0.2-1,0.2-1.6,0C35,67.7,34.7,67.4,34.5,66.9z M47.7,79.3
			c-0.6,0.2-1.1,0.3-1.7,0.1c-0.6-0.2-1-0.6-1.3-1.3c-0.2-0.6-0.2-1.2,0-1.7c0.2-0.6,0.7-1,1.3-1.2c0.6-0.2,1.2-0.2,1.7,0
			c0.6,0.2,1,0.6,1.2,1.2c0.3,0.7,0.3,1.2,0,1.8C48.7,78.7,48.2,79.1,47.7,79.3z"/>
		
			<linearGradient id="SVGID_00000027583464975122059240000009731850817935565961_" gradientUnits="userSpaceOnUse" x1="95.1706" y1="67.366" x2="-5.0427" y2="-17.6149" gradientTransform="matrix(1 0 0 -1 0 156)">
			<stop  offset="7.000000e-02" style="stop-color:#9962FB"/>
			<stop  offset="0.27" style="stop-color:#A161F3"/>
			<stop  offset="0.58" style="stop-color:#B860DE"/>
			<stop  offset="0.95" style="stop-color:#DA5DBD"/>
		</linearGradient>
		
			<path style="clip-path:url(#SVGID_00000075852661604843627750000001581279600643550354_);fill:url(#SVGID_00000027583464975122059240000009731850817935565961_);" d="
			M67.1,119c-0.3-0.2-1.4-1-2.9-2.2c-0.8-0.6-1.3-1.1-1.5-1.2c-1.2-0.9-2.3-1.7-4.5-3.3c-1.4-1-1.1-0.8-2.9-2.1
			c-2.3-1.7-3.5-2.5-4.1-2.8c-1-0.5-2.8-1.3-5-1c-0.9,0.1-1.7,0.3-2.2,0.5c-1.1-0.7-2.1-1.5-3.2-2.2c-0.8,1.2-1.6,2.5-2.4,3.8
			c-0.9,1.5-1.8,2.9-2.7,4.3c1,0.8,2,1.7,3,2.5c0,0.8-0.1,1.7-0.1,2.5c1.9,2,3.7,3.8,5.4,5.4c2.9,2.8,4.1,3.9,5.9,5
			c0.7,0.4,0.7,0.4,2.6,1.4c2.4,1.3,4.1,2.3,5.2,3c7.5,4.4,8.5,5.7,11.3,5.9c1.7,0.1,3.1-0.3,4.1-0.7c0.3-1.5,0.6-3.6,0.9-6.2
			c0.3-2.9,0.5-4.4,0.3-5.2C73.4,123.7,71.1,122,67.1,119z"/>
		
			<path style="opacity:0.5;clip-path:url(#SVGID_00000075852661604843627750000001581279600643550354_);fill:#412168;enable-background:new    ;" d="
			M68.8,138.4c1.7,0.1,3.1-0.3,4.1-0.7c0.1-0.7,0.3-1.6,0.4-2.6c-1.9,0.7-4.5,1.5-6.7,0.4c-1.1-0.5-1.8-1.4-5.5-3.5
			c-0.4-0.2-0.7-0.4-1-0.6c-0.4-0.2-0.9-0.4-1.4-0.6c-4.2-1.8-5-1.8-7.2-3.1c-2.6-1.5-4.1-3.1-5.9-5c-1.2-1.2-3-3-5.3-5.2
			c1.3-0.2,2.2-0.8,2.7-1.1c1.2-0.9,1.8-2,2.4-3.1c0.4-0.7,0.7-1.3,0.9-2.2c0.3-1.6-0.1-3.1-0.3-3.1c-0.2,0-0.1,1.1-0.7,2.7
			c-0.7,1.8-2,2.9-2.5,3.3c-1.1,0.9-2.2,1.4-3,1.7l-0.5-2.1l-2.2-2c1-1.3,1.9-2.7,2.7-4.1c0.4-0.8,0.9-1.6,1.2-2.4l-0.4-0.2
			c-0.8,1.2-1.5,2.4-2.3,3.6c-0.9,1.4-1.7,2.8-2.6,4.1l1.7,1.5l0.1,0.3c0.4,0.3,0.7,0.6,1.1,0.9c0,0.8-0.1,1.6-0.1,2.5
			c0.2,0.2,0.4,0.4,0.6,0.6c1.7,1.8,3.3,3.4,4.8,4.9c0.1,0.1,0.3,0.3,0.4,0.4c1.8,1.6,3.1,2.6,5.3,4.4c0.1,0,0.1,0.1,0.2,0.1
			c0.7,0.4,0.7,0.4,2.6,1.4c2.4,1.3,4.1,2.3,5.2,3C65,137,66,138.3,68.8,138.4z"/>
		
			<path style="opacity:0.6;clip-path:url(#SVGID_00000075852661604843627750000001581279600643550354_);fill:none;stroke:#BF9AD8;stroke-width:0.5;stroke-linecap:round;stroke-linejoin:round;enable-background:new    ;" d="
			M64.7,124.6c-0.2,0.2-12.1,1.9-11,2.6c1,0.6,8.6,0.1,7.7,0.3c-0.9,0.2-6.4,1.3-8,1.4c-1.5,0.1-3.9-0.8-3.9-0.8"/>
		
			<path style="opacity:0.6;clip-path:url(#SVGID_00000075852661604843627750000001581279600643550354_);fill:none;stroke:#BF9AD8;stroke-width:0.5;stroke-linecap:round;stroke-linejoin:round;enable-background:new    ;" d="
			M45.8,108.3c-1.7-0.9-3.3-1.9-5-2.8"/>
		
			<path style="opacity:0.6;clip-path:url(#SVGID_00000075852661604843627750000001581279600643550354_);fill:none;stroke:#BF9AD8;stroke-width:0.5;stroke-linecap:round;stroke-linejoin:round;enable-background:new    ;" d="
			M45.1,110.2c-1.7-1.1-3.3-2.1-5-3.2"/>
		
			<path style="opacity:0.6;clip-path:url(#SVGID_00000075852661604843627750000001581279600643550354_);fill:none;stroke:#BF9AD8;stroke-width:0.5;stroke-linecap:round;stroke-linejoin:round;enable-background:new    ;" d="
			M44.8,112.3c-0.1,0-6.1-3.9-6.1-3.9"/>
		
			<path style="opacity:0.6;clip-path:url(#SVGID_00000075852661604843627750000001581279600643550354_);fill:none;stroke:#BF9AD8;stroke-width:0.5;stroke-linecap:round;stroke-linejoin:round;enable-background:new    ;" d="
			M43.1,114.2l-5.2-3.9"/>
		
			<path style="opacity:0.6;clip-path:url(#SVGID_00000075852661604843627750000001581279600643550354_);fill:none;stroke:#BF9AD8;stroke-width:0.5;stroke-linecap:round;stroke-linejoin:round;enable-background:new    ;" d="
			M41.1,115.1l-3.7-3"/>
		
			<path style="opacity:0.6;clip-path:url(#SVGID_00000075852661604843627750000001581279600643550354_);fill:none;stroke:#BF9AD8;stroke-width:0.5;stroke-linecap:round;stroke-linejoin:round;enable-background:new    ;" d="
			M48.3,107.1c0,0,2.7,1.4,0.6,5.6"/>
		
			<linearGradient id="SVGID_00000044138962528741914400000001320477951250373045_" gradientUnits="userSpaceOnUse" x1="95.4199" y1="54.6253" x2="109.0731" y2="54.6253" gradientTransform="matrix(1 0 0 -1 0 156)">
			<stop  offset="0" style="stop-color:#8134BC"/>
			<stop  offset="1" style="stop-color:#21136E"/>
		</linearGradient>
		
			<path style="clip-path:url(#SVGID_00000075852661604843627750000001581279600643550354_);fill:url(#SVGID_00000044138962528741914400000001320477951250373045_);" d="
			M95.4,94.5c0.2,4.3,0.5,8.6,0.7,12.9c0.6,0.5,2.3,1.8,4.8,2.1c2.6,0.3,4.6-0.6,5.3-1c0.9-4.2,1.9-8.5,2.8-12.7
			c0.2-0.7-0.3-1.4-1.1-1.5c-3.7-0.4-7.4-0.8-11.1-1.2C96,93.1,95.4,93.7,95.4,94.5z"/>
		
			<linearGradient id="SVGID_00000078019587786505236020000016726155273146644377_" gradientUnits="userSpaceOnUse" x1="102.4385" y1="49.1208" x2="101.9365" y2="68.5065" gradientTransform="matrix(1 0 0 -1 0 156)">
			<stop  offset="0" style="stop-color:#8134BC"/>
			<stop  offset="1" style="stop-color:#21136E"/>
		</linearGradient>
		
			<path style="clip-path:url(#SVGID_00000075852661604843627750000001581279600643550354_);fill:url(#SVGID_00000078019587786505236020000016726155273146644377_);" d="
			M95.8,95.5c0.2,4,0.4,8.1,0.6,12.1c0.6,0.5,2.1,1.7,4.5,2c2.5,0.3,4.3-0.6,5-0.9c0.9-4,1.7-7.9,2.6-11.8c0.2-0.7-0.3-1.3-1-1.4
			c-3.5-0.4-6.9-0.7-10.4-1.1C96.4,94.2,95.8,94.8,95.8,95.5z"/>
		<path style="clip-path:url(#SVGID_00000075852661604843627750000001581279600643550354_);fill:#EDC0C8;" d="M126.9,115
			c-4.7-2.3-9.4-4.6-14-6.9c-1.1-4-2-5-2.8-5.1c0,0-0.1,0-1.6-0.2c-0.6-0.6-1.1-1-1.5-1.3c-0.6-0.4-1.3-0.9-2.3-1.2
			c-0.5-0.1-0.6-0.1-1.7-0.1c-2.6-0.1-3.5-0.4-3.9,0.1c-0.3,0.4-0.2,1-0.1,1c0.3,1.3,2.5,2.1,5.4,2.3c1.2,1.4,2.1,2.4,2.9,3.2
			c0.1,0.1,0.3,0.3,0.2,0.3c-0.2,0.4-3.2-0.7-6-1.7c-2.8-1-5-1.8-6.4-2.3c-0.1,0-0.7-0.2-1.2,0.2c-0.5,0.4-0.6,1.2-0.1,1.9
			c-0.1,0.1-0.5,0.3-0.6,0.7c-0.1,0.5,0,1,0.5,1.4c1.1,0.8,2.1,1.6,3.2,2.4c-0.1,0.3-0.1,0.5,0,0.7c0.2,1.9,2.6,2.8,2.9,2.9
			c0.9,0.5,2,1.1,3,1.6c1.8,0.9,3.6,1.6,5.2,2.2c0.3,0.1,0.7,0.2,1.3,0.2c0.5,0,0.9-0.1,1.2-0.2c5,3.3,10.1,6.6,15.1,9.9
			c0.5,0.4,0.8,0.5,1.1,0.5c1.6-0.1,2.7-4,3-6.2c0.1-1.2,0.1-2,0-2.6c-0.1-1.2-0.2-1.9-0.7-2.6C128.1,115.5,127.3,115.1,126.9,115z"
			/>
		<path style="clip-path:url(#SVGID_00000075852661604843627750000001581279600643550354_);fill:#F480A1;" d="M108.4,102.8
			c0,0,1.5,2.6,1.6,2c0.1-0.6,0.7-1.1,0-1.5C109.3,102.9,108.4,102.8,108.4,102.8z"/>
		<path style="clip-path:url(#SVGID_00000075852661604843627750000001581279600643550354_);fill:#F480A1;" d="M104.4,103
			c-1.1-0.7-1.8-0.4-3.3-1.1c-1-0.4-1.7-1-2.2-1.5c-0.2,0.4-0.1,0.8-0.1,0.9c0.3,1.3,2.5,2.1,5.4,2.3c1.2,1.4,2.1,2.4,2.9,3.2
			c0.1,0.1,0.2,0.2,0.2,0.3c0.1,0,0.3-0.1,0.3-0.2c0.2-0.4-0.6-1-1.5-1.9C104.7,103.4,105.1,103.4,104.4,103z"/>
		<path style="clip-path:url(#SVGID_00000075852661604843627750000001581279600643550354_);fill:#F480A1;" d="M102.8,109.5
			c0,0,1.5,0.3,1.1,0c-0.4-0.3-9-4.1-9.6-4.4c-0.4-0.1-0.7-0.6-1-1c0,0.4,0,0.8,0.3,1.1c0,0,0,0,0,0
			C95.1,106.1,102.8,109.5,102.8,109.5z"/>
		<path style="clip-path:url(#SVGID_00000075852661604843627750000001581279600643550354_);fill:#F480A1;" d="M93.4,107.4
			c1.1,0.8,2.1,1.6,3.2,2.4c0,0.1,0,0.2,0,0.3c1,0.5,4.1,1.6,4.1,1.6s3.3,1.2,3.1,0.9c-0.1-0.3-5.1-2.4-5.9-2.6
			c-0.7-0.2-3.3-1.9-4.5-2.7C93.4,107.3,93.4,107.4,93.4,107.4z"/>
		<path style="clip-path:url(#SVGID_00000075852661604843627750000001581279600643550354_);fill:#F480A1;" d="M116.8,110
			c-1.3-0.7-2.7-1.3-4-2c-0.1-0.3-0.2-0.6-0.3-0.9c0.1,0.5,0.1,1.5,0.1,2c0,0.8-0.3,2.2-0.3,2.2S116.1,110.7,116.8,110z"/>
		<path style="clip-path:url(#SVGID_00000075852661604843627750000001581279600643550354_);fill:#F480A1;" d="M125.3,127.2
			c0.5,0.4,0.8,0.5,1.1,0.5c0.3,0,0.6-0.2,0.9-0.4c-4.9-3.1-16.8-11.1-16.8-11.1s-0.4,0.6-1.8,1c-0.7,0.2-1.8-0.2-2.9-0.6
			c0.7,0.3,1.4,0.6,2.1,0.8c0.3,0.1,0.7,0.2,1.3,0.2c0.5,0,0.9-0.1,1.2-0.2C115.2,120.6,120.2,123.9,125.3,127.2z"/>
		
			<linearGradient id="SVGID_00000104701429180243556700000016153374275415642282_" gradientUnits="userSpaceOnUse" x1="122.9511" y1="34.5824" x2="137.4989" y2="34.5824" gradientTransform="matrix(1 0 0 -1 0 156)">
			<stop  offset="7.000000e-02" style="stop-color:#9962FB"/>
			<stop  offset="0.27" style="stop-color:#A161F3"/>
			<stop  offset="0.499" style="stop-color:#B860DE"/>
			<stop  offset="0.7502" style="stop-color:#DA5DBD"/>
		</linearGradient>
		
			<path style="clip-path:url(#SVGID_00000075852661604843627750000001581279600643550354_);fill:url(#SVGID_00000104701429180243556700000016153374275415642282_);" d="
			M124.2,113.7c0,0,0.2-1.8,1.9-1.9c1.7-0.1,1.3-0.6,4.7,0.1c2.1,0.4,3.2,0.8,4.3,1.8c0.8,0.7,1.2,1.5,1.5,2.2c1,2.1,1,4,0.9,5.4
			c0,0.4-0.1,2.3-0.8,4.6c-0.5,1.4-0.7,2.1-1.4,2.8c-1.3,1.2-3.1,1.1-3.8,1c-0.2,0.3-0.6,0.8-1.2,1.1c-0.7,0.4-1.3,0.4-1.8,0.4
			c-0.8,0-1.6,0-2.3-0.5c0,0-0.3-0.2-1.3-1.9c0,0-0.3,0.4-0.7,0.4c-0.5,0.1-0.9-0.4-0.9-0.4c-0.1-0.3-0.2-0.7-0.3-1.1
			c-0.1-0.9,0.1-1.6,0.2-2c0.3,0.3,0.8,0.7,1.4,1c0.7,0.4,1.3,0.7,1.7,0.7c2.2-0.2,2.7-8.2,2.7-9.7c0-0.4,0-1-0.4-1.6
			c-0.3-0.5-0.6-0.8-1.1-1C127,114.8,125.9,114.2,124.2,113.7z"/>
		
			<path style="opacity:0.3;clip-path:url(#SVGID_00000075852661604843627750000001581279600643550354_);fill:#412168;enable-background:new    ;" d="
			M127.8,113.7c-0.7-0.5-1.4-0.8-2.3-0.8c-0.4,0-0.9,0.4-1.2,0.7c0,0.1,0,0.2,0,0.2c1.7,0.5,2.8,1.1,3.4,1.5c0.4,0.3,0.8,0.6,1.1,1
			c0.3,0.6,0.4,1.2,0.4,1.6c0,0.5-0.1,2-0.3,3.5c0.1-0.2,0.2-0.6,0.3-1.2c0.2-1,0.1-1.3,0.3-3.5c0.1-1,0.1-1.1,0-1.4
			C129,114.6,128.4,114.1,127.8,113.7z"/>
		
			<path style="opacity:0.3;clip-path:url(#SVGID_00000075852661604843627750000001581279600643550354_);fill:#412168;enable-background:new    ;" d="
			M135.4,119.6l-0.4-2.5c0-0.2-0.1-0.5-0.3-0.7c-0.6-0.9-1.2-1.6-1.7-2.1c-0.7-0.8-1-1.1-1.6-1.3c-0.3-0.1-0.6-0.3-1.6-0.3
			c-1.7-0.2-3.1,0-3.1,0c0,0.1,1.4-0.2,2.9,0.5c0.6,0.3,1,0.5,1.4,0.8c0.9,0.7,2.1,1.6,2.5,2.9c0.1,0.5,0.1,1.1,0,2.3
			c-0.1,0.9-0.2,1.6-0.3,2.1c0.1,0.6,0.2,1.4,0.1,2.4c-0.1,0.8-0.1,1.1-0.3,1.6c-0.4,1-1.5,1.2-3.2,2.5c-0.7,0.5-1.4,0.5-2.2,0.5
			s-0.3-0.7-0.6-0.6c-0.3,0.2-1.3,0.5-1.8,1c-0.1,0.1-0.2,0.2-0.3,0.4c0.1,0.1,0.1,0.2,0.2,0.3c0.4,0.4,0.9,0.9,1.7,1.1
			c2.1,0.4,4.2-1.8,4.7-1.3c0.1,0.1,0.1,0.2,0,0.6c0.4,0.1,1.1,0.1,1.8-0.1c0.4-0.1,1.3-0.4,2.1-1.1c0.6-0.6,0.8-1.2,1.1-2.1
			c0.2-0.7,0.4-1.2,0.4-1.6c-0.8,0.1-1.2-0.1-1.4-0.2C134.6,123.9,134.3,121.9,135.4,119.6z"/>
		
			<path style="opacity:0.3;clip-path:url(#SVGID_00000075852661604843627750000001581279600643550354_);fill:#412168;enable-background:new    ;" d="
			M123.2,125.8c0,0,2,2.2,3.1,1.7c1.1-0.4-2.6,2-2.7,0.8C123.6,127,123.2,125.8,123.2,125.8z"/>
	</g>
</g>
</svg>
