<svg width="162" height="154" viewBox="0 0 162 154" fill="none" xmlns="http://www.w3.org/2000/svg">
<g clip-path="url(#clip0_8724_129122)">
<rect width="162" height="154" rx="77" fill="#EDF2F7"/>
<g clip-path="url(#clip1_8724_129122)">
<path d="M41.2869 106.587C40.7332 106.038 39.8558 105.278 38.6206 104.637C38.2202 104.426 37.5558 104.088 36.6869 103.86C35.3239 103.506 34.3358 103.666 32.5895 103.86C31.5502 103.978 29.9828 104.13 27.9895 104.257C27.4443 103.793 26.8736 103.32 26.2773 102.856C24.7865 101.682 23.3213 100.652 21.9073 99.7492C21.5069 99.3525 20.851 99.3693 20.4762 99.7745C20.1099 100.171 20.1354 100.804 20.5443 101.176C22.1373 102.636 23.7302 104.097 25.3317 105.557C24.7184 105.582 23.9773 105.667 23.1595 105.861C22.5121 106.021 21.9413 106.215 21.4643 106.41C19.258 104.991 17.0432 103.565 14.8369 102.147C14.2747 101.758 13.5932 101.834 13.2695 102.206C12.9884 102.543 13.0821 103.008 13.0991 103.075C12.9373 103.084 12.358 103.117 12.1195 103.497C11.8043 103.978 12.0939 104.949 13.0906 105.574C13.0224 105.582 12.5795 105.616 12.4006 105.928C12.1876 106.283 12.3921 106.925 13.0139 107.262C14.7347 108.073 16.4469 108.891 18.1676 109.702C18.8832 110.2 19.9565 110.749 21.2087 110.639C21.3024 110.63 21.3962 110.622 21.4899 110.605C21.8732 110.765 22.265 110.934 22.6484 111.095C26.635 111.002 30.6302 110.901 34.6169 110.808C35.5284 111.339 36.4399 111.863 37.3513 112.395C37.9817 111.998 38.9869 111.247 39.8473 110.014C40.8013 108.663 41.1421 107.347 41.2869 106.587Z" fill="#EDC0C8"/>
<path d="M26.4815 106.622C26.473 106.487 26.2004 106.487 25.9364 106.267C25.6978 106.064 25.4252 105.803 25.1782 105.566C24.9397 105.566 24.6841 105.566 24.403 105.592C23.9686 105.625 23.4234 105.701 22.8101 105.879C22.2734 106.039 21.8304 106.233 21.4727 106.419C21.7027 106.672 22.1286 107.052 22.759 107.238C22.9123 107.28 23.1934 107.348 23.909 107.322C24.3945 107.305 25.0675 107.238 25.8682 107.052C26.3793 106.858 26.4901 106.714 26.4815 106.622Z" fill="#F480A1"/>
<path d="M17.6995 107.377C16.8988 106.677 13.4062 103.342 13.0995 103.047C13.0995 103.055 13.0995 103.081 13.1081 103.089C13.0229 103.089 12.8184 103.106 12.6055 103.173L19.9144 110.028L20.417 110.627C20.6725 110.661 20.9366 110.67 21.2092 110.644C21.3029 110.636 21.3966 110.627 21.4903 110.611C21.584 110.653 21.6692 110.686 21.7629 110.729C21.7373 110.636 21.6862 110.551 21.584 110.484C20.9792 110.104 18.5429 108.112 17.6995 107.377Z" fill="#F480A1"/>
<path d="M18.2789 109.785C17.0181 108.756 13.0485 105.43 13.0485 105.43C13.0485 105.43 12.9463 105.404 12.81 105.379C12.8952 105.455 12.9889 105.522 13.0996 105.59C13.0315 105.598 12.5885 105.632 12.4096 105.944C12.1967 106.299 12.4011 106.941 13.0229 107.278C14.7437 108.089 16.4559 108.907 18.1767 109.718C18.2022 109.735 18.2448 109.76 18.2789 109.785Z" fill="#F480A1"/>
<path d="M34.1404 109.447C32.4708 109.143 28.3222 110.485 26.8145 111C29.4126 110.941 32.0108 110.873 34.6089 110.814C35.5204 111.346 36.4319 111.869 37.3433 112.401C37.7437 112.148 38.2974 111.751 38.8682 111.177C37.7948 110.654 35.7419 109.734 34.1404 109.447Z" fill="#F480A1"/>
<path d="M104.188 58.3359C104.137 58.4879 105.602 73.1593 105.602 73.1593C105.602 73.1593 93.8718 77.321 93.8718 77.1691C93.8718 77.0171 87.6022 74.51 87.6022 74.51C87.6022 74.51 87.6533 67.0476 87.6022 66.9463C87.551 66.845 90.8392 59.5853 90.8392 59.5853L104.188 58.3359Z" fill="#EDC0C8"/>
<path d="M135.059 100.565C135.059 100.565 134.301 86.9572 129.309 80.6936C129.071 80.3981 128.823 80.1111 128.823 80.1111C127.563 78.7098 126.098 77.5027 124.53 76.4559C123.465 75.8059 122.358 75.2066 121.14 74.7001C119.07 73.7968 116.182 72.5981 112.596 71.2475C112.596 70.9942 112.596 70.6988 112.596 70.4455C112.093 69.2468 111.284 67.3897 110.219 64.9838C109.308 62.9325 108.754 61.6747 107.391 60.476C106.888 60.0286 106.275 59.6234 105.67 59.2773C105.27 60.0286 104.81 60.7799 104.358 61.4806L104.563 69.6436C103.046 70.5975 101.479 71.6442 99.8605 72.7501C98.4464 73.7546 97.0835 74.7507 95.8142 75.7553C94.8516 74.7001 93.7953 73.7546 92.5772 72.9527C91.2142 71.9988 89.6979 71.2981 88.1305 70.7494C88.1305 70.4455 88.1305 69.8968 88.1305 69.2468C88.1305 67.2462 88.2327 66.5877 88.1816 65.389C88.1305 64.6377 88.0794 63.8358 87.9261 63.0845L87.8239 62.9325C87.5683 62.4851 87.3213 62.0799 87.0146 61.6325C86.3587 61.5312 85.6516 61.5312 84.9957 61.6325C84.4931 61.6325 84.0331 61.7338 83.5816 61.9871C83.3261 62.139 82.9257 62.4345 82.4231 63.7429C81.7672 65.2962 82.0653 65.6001 81.5116 66.6975C81.1538 67.2968 80.7024 67.8962 80.2509 68.4533C79.7483 69.154 79.3394 69.7533 79.0924 70.2092C78.2831 71.4079 77.8827 72.8683 78.0276 74.2696C76.0598 75.2234 74.3901 76.0254 73.0272 76.726C69.9946 78.2793 69.032 78.8786 67.9757 79.7819C67.9757 79.7819 66.7235 80.8624 65.6501 82.289C62.345 86.6618 61.7998 95.4579 61.4931 100.911C61.1779 106.542 60.9735 111.092 60.8457 114.004C63.8187 117.904 66.7916 121.812 69.7646 125.712C71.3405 125.569 72.9164 125.425 74.4924 125.29C73.3764 133.073 72.8142 139.092 72.6694 142.216C72.6098 143.397 72.5501 145.373 73.7427 147.222C74.3135 148.116 75.0035 148.699 75.4635 149.028C75.1483 150.64 74.9524 152.016 74.8161 153.072C74.7053 153.949 74.6457 154.591 75.029 155.097C75.5657 155.807 76.639 155.832 76.9627 155.84C111.991 157.233 115.211 156.946 121.651 156.372C121.958 156.347 122.861 156.271 123.372 155.629C123.798 155.089 123.755 154.405 123.695 153.713C123.559 152.118 123.414 150.691 123.269 149.459C123.516 149.011 123.9 148.277 124.232 147.331C124.948 145.331 124.999 143.49 125.092 139.877C125.161 136.931 125.203 135.462 125.203 135.302C125.152 128.253 123.823 118.081 123.593 116.351C124.888 116.249 125.467 116.579 125.765 116.908C126.021 117.195 126.021 117.482 126.421 118.107C126.685 118.52 126.975 118.909 127.282 119.272C127.554 119.736 127.946 120.318 128.5 120.926C129.999 122.572 132.768 124.539 134.224 124.117C135.17 123.805 136.26 122.26 135.059 100.565Z" fill="url(#paint0_linear_8724_129122)"/>
<g opacity="0.4">
<path opacity="0.4" d="M105.193 98.3118C105.193 100.118 104.537 101.866 103.319 103.225C102.254 104.423 100.789 105.225 99.2212 105.58C98.8208 105.681 98.4119 105.732 97.9604 105.732C97.6026 105.732 97.3045 105.732 96.9467 105.732C93.6075 105.479 90.8815 103.073 90.2256 99.8228C90.0723 99.2235 90.0723 98.5735 90.0723 97.9235C90.1745 96.2183 90.8815 94.6144 92.04 93.365C92.6449 92.6644 93.4541 92.1157 94.2634 91.7105C94.9704 91.3559 95.6775 91.1618 96.4356 91.0605C96.9893 90.9592 97.5515 90.9592 98.0541 91.0098C99.0167 91.0605 99.9282 91.3137 100.78 91.7105C102.799 92.6644 104.315 94.4118 104.877 96.5728C104.98 96.9696 105.031 97.3748 105.082 97.7715C105.193 97.9572 105.193 98.1598 105.193 98.3118ZM101.606 98.3624C101.606 98.1092 101.555 97.8644 101.555 97.6111C101.197 95.5092 99.1786 94.0572 97.0575 94.4033C95.8478 94.6059 94.8341 95.3066 94.2293 96.3533C93.7778 97.2059 93.6245 98.2105 93.8289 99.1559C93.9823 100.009 94.4337 100.81 95.0897 101.359C96.7082 102.76 99.1871 102.609 100.652 101.005C100.806 100.802 100.959 100.608 101.104 100.405C101.402 99.8144 101.606 99.1137 101.606 98.3624Z" fill="white"/>
<path opacity="0.4" d="M97.8149 107.074C98.3686 107.074 98.9309 107.125 99.4846 107.176C100.796 107.378 102.066 107.724 103.224 108.324C104.085 108.771 104.894 109.277 105.601 109.927C106.103 110.324 106.512 110.831 106.964 111.329C107.015 111.43 107.117 111.531 107.117 111.633C107.219 111.785 107.117 111.987 106.964 112.08L105.754 112.983L105.098 113.481C104.945 113.633 104.647 113.633 104.493 113.481L104.442 113.431C104.289 113.228 104.136 113.076 103.94 112.882C102.824 111.734 101.41 110.932 99.8423 110.577C99.442 110.476 98.982 110.426 98.5816 110.375C98.2749 110.375 97.9768 110.324 97.6701 110.375C96.8097 110.375 96.0005 110.527 95.1912 110.822C94.5864 111.025 93.9816 111.32 93.4194 111.675C93.3683 111.726 93.3171 111.726 93.2149 111.776C93.0616 111.877 92.8146 111.776 92.7123 111.624C92.559 111.422 92.4057 111.227 92.312 111.076C91.9542 110.628 91.656 110.172 91.3494 109.725C91.196 109.573 91.196 109.328 91.3494 109.176C91.3494 109.176 91.3494 109.176 91.4005 109.126C91.5027 109.024 91.6049 108.974 91.7072 108.872C92.9168 108.121 94.2883 107.572 95.6512 107.319C96.1027 107.218 96.5627 107.167 97.0142 107.116C97.2612 107.125 97.5594 107.125 97.8149 107.074Z" fill="white"/>
</g>
<path opacity="0.3" d="M121.565 156.415C121.871 156.39 122.774 156.314 123.285 155.673C123.711 155.132 123.669 154.449 123.609 153.756C123.473 152.161 123.328 150.734 123.183 149.502C123.43 149.054 123.813 148.32 124.146 147.375C124.861 145.374 124.912 143.534 125.006 139.921C125.074 136.975 125.117 135.506 125.117 135.345C125.066 128.297 123.737 118.125 123.507 116.394C123.686 116.394 123.856 116.386 124.035 116.377C127.212 116.191 129.802 114.436 131.651 112.654C130.236 111.414 129.078 111.093 128.269 111.042C127.988 111.025 127.229 111.008 125.986 110.915C124.938 110.84 124.631 110.789 124.359 110.569C123.677 110.021 123.796 108.864 123.831 108.434C123.924 107.243 123.635 110.206 122.842 100.642C122.536 96.9616 122.544 93.9649 122.297 93.9649C121.914 93.9564 121.701 101.014 120.593 101.09C120.159 101.115 119.844 100.051 119.622 100.127C119.248 100.245 120.014 103.284 120.449 106.222C121.028 110.147 120.423 109.953 120.9 113.431C121.505 117.795 122.468 118.217 123.064 122.877C123.217 124.11 123.268 125.528 123.379 128.364C123.541 132.779 123.371 132.931 123.473 137.338C123.601 143.137 123.933 144.167 123.158 146.193C122.314 148.404 120.883 149.907 119.869 150.793C117.382 150.954 113.353 151.207 108.378 151.536C96.5287 152.313 94.629 152.482 91.622 152.389C87.6865 152.271 82.0727 151.714 75.2835 149.738C75.0364 151.072 74.8746 152.22 74.7553 153.132C74.6446 154.01 74.585 154.651 74.9683 155.158C75.505 155.867 76.5783 155.892 76.902 155.901C111.905 157.268 115.125 156.99 121.565 156.415Z" fill="#412168"/>
<path opacity="0.3" d="M75.4537 113.778C75.4878 110.976 75.2749 110.672 75.2237 107.827C75.1556 103.935 75.4793 100.162 75.4793 100.162C75.0023 98.2036 74.7297 97.714 74.5593 97.7309C73.98 97.79 74.6104 103.775 73.4349 104.045C72.6086 104.231 71.3223 101.521 71.186 101.597C71.0582 101.673 72.7789 104.054 73.4349 107.464C73.52 107.895 73.6819 108.815 73.7074 110.984C73.7756 116.429 73.8097 119.156 72.5915 119.983C69.6782 121.983 60.8956 113.702 60.5804 114.057C60.41 114.251 62.8463 116.843 74.1845 127.217C74.2441 126.778 74.9852 121.401 75.2663 117.67C75.3941 115.846 75.4367 114.749 75.4537 113.778Z" fill="#412168"/>
<path opacity="0.3" d="M92.5079 74.0209C93.0105 74.2741 93.6238 74.4176 94.1775 74.4176C93.6749 73.9702 93.1127 73.565 92.559 73.1683C91.196 72.2144 89.6797 71.5137 88.1123 70.965C88.1123 70.6611 88.1123 70.1124 88.1123 69.4624C88.1123 69.4118 88.1123 69.3105 88.1123 69.2598C88.1123 68.3059 88.1634 67.6559 88.1634 67.1072C88.1634 67.0059 88.1634 66.9046 88.1634 66.8034V66.7527C88.1634 66.6514 88.1634 66.4995 88.1634 66.3982V66.3475C88.1634 66.2462 88.1634 66.0943 88.1634 65.993C88.1634 65.841 88.1634 65.7397 88.1634 65.5962C88.1123 64.8449 88.0612 64.043 87.9079 63.2917L87.8057 63.1397C87.5501 62.6923 87.3031 62.2871 86.9964 61.8397C86.596 61.7891 86.1871 61.7891 85.8379 61.7891C85.8379 63.0384 85.9401 69.2514 86.2383 69.7579C86.5449 70.2644 91.9542 73.6157 92.5079 74.0209Z" fill="#412168"/>
<path opacity="0.3" d="M107.467 70.3148C108.378 70.0615 106.257 69.1161 105.848 67.8077C105.49 66.7018 105.95 61.3499 106.104 59.7966L105.899 59.6953L104.587 61.4005L104.332 61.7973L104.536 69.9602C103.224 70.7622 101.904 71.6654 100.541 72.6193C102.364 71.7667 106.606 70.5089 107.467 70.3148Z" fill="#412168"/>
<path opacity="0.3" d="M96.7507 79.6758C96.7507 79.6758 109.188 76.1219 110.397 75.6154C111.462 75.2187 113.583 72.8635 114.444 72.205L112.476 71.4537C112.476 71.2005 112.476 70.905 112.476 70.6518C112.323 70.3479 112.22 70.0018 112.024 69.5966C111.522 68.4485 110.909 66.9375 110.108 65.1901C109.852 64.6414 109.656 64.1349 109.452 63.6875C110.363 65.8401 111.121 67.4946 111.573 68.6005C111.573 68.8537 111.573 69.0479 111.573 69.3011C111.522 70.255 111.42 71.2005 111.42 71.3018C111.42 71.4031 110.355 73.9609 109.401 74.4589C108.447 74.957 98.3267 77.8187 96.7593 78.8654C95.1833 79.9291 96.7507 79.6758 96.7507 79.6758Z" fill="#412168"/>
<path opacity="0.3" d="M90.6345 78.4254C91.4437 78.8221 91.2904 80.4767 91.2904 80.4767C91.3926 80.0799 91.4948 79.6747 91.546 79.278C91.6482 78.628 95.7882 76.0195 95.7882 76.0195L88.9648 77.7247C89.5271 77.9273 90.0808 78.1215 90.6345 78.4254Z" fill="#412168"/>
<path opacity="0.3" d="M78.3513 75.775C78.3513 75.775 82.798 76.4756 83.0024 76.6782C83.2069 76.8808 87.9602 76.8302 87.9602 76.8302C87.9602 76.8302 84.7743 76.0789 84.6721 76.0282C84.5698 75.9776 81.2306 75.0743 80.5236 74.6776C79.6632 74.0782 79.0073 73.175 78.7006 72.1704C78.7006 71.6217 78.7517 71.1152 78.905 70.6172C78.198 71.7652 77.8913 73.0737 78.0447 74.3737C77.0821 74.8211 76.1706 75.2769 75.3613 75.6737L78.3513 75.775Z" fill="#412168"/>
<path opacity="0.3" d="M116.096 133.548C117.007 134.899 118.098 136.925 118.728 139.837C119.035 140.386 119.231 140.985 119.282 141.643C119.401 140.951 119.554 139.828 119.537 138.436C119.529 137.634 119.393 132.434 115.908 128.382C114.273 126.474 113.268 126.423 112.799 126.482C112.688 126.499 111.794 126.617 111.521 127.208C110.959 128.458 113.89 130.281 116.096 133.548Z" fill="#412168"/>
<path opacity="0.3" d="M110.5 143.628C109.588 143.882 84.4162 144.329 83.1555 143.983C82.1929 143.628 81.3325 143.08 80.6255 142.379C80.5233 143.282 80.9833 144.135 81.7414 144.582C83.0533 145.283 110.304 144.979 111.974 144.633C113.635 144.278 111.411 143.383 110.5 143.628Z" fill="#412168"/>
<path d="M101.352 76.2227C101.752 76.7207 102.11 77.2778 102.416 77.8266C105.449 83.2376 104.188 88.446 104.086 94.2032C104.035 98.4071 104.589 102.67 105.756 106.73" stroke="#C2BFC7" stroke-width="2" stroke-linecap="round" stroke-linejoin="round"/>
<path d="M88.871 75.8164C87.7551 76.5677 86.9032 77.7158 86.4943 78.9735C85.5317 82.232 88.5132 84.5365 89.1777 89.3398C89.4843 91.5937 89.2799 93.8982 88.5217 96.0508" stroke="#C2BFC7" stroke-width="2" stroke-linecap="round" stroke-linejoin="round"/>
<path d="M70.6504 98.1094C71.5789 100.861 72.4989 103.605 73.4274 106.357C73.8534 109.176 74.2793 112.004 74.7052 114.824" stroke="#BF9AD8" stroke-width="0.5" stroke-linecap="round" stroke-linejoin="round"/>
<path d="M75.4211 92.4531L75.3189 98.8687C75.3189 98.8687 75.0804 99.8733 74.8845 101.224C74.5608 103.461 74.6886 105.175 74.7141 105.681C74.7993 107.504 74.7737 111.835 74.3223 122.404C74.8078 108.374 75.3615 92.4447 75.4211 92.4531Z" stroke="#BF9AD8" stroke-width="0.5" stroke-linecap="round" stroke-linejoin="round"/>
<path d="M89.4258 126.949C89.7324 126.915 111.719 126.949 111.719 126.949C111.719 126.949 111.412 129.127 113.738 130.57C116.063 132.014 118.738 139.712 118.84 140.219C118.942 140.691 118.942 141.156 118.942 141.628" stroke="#BF9AD8" stroke-width="0.5" stroke-linecap="round" stroke-linejoin="round"/>
<path d="M87.7559 126.121C87.7559 126.121 86.7933 129.118 86.1374 129.768C85.4815 130.418 82.3978 138.885 81.8441 139.543C81.2904 140.193 80.7281 140.117 80.6855 140.581" stroke="#BF9AD8" stroke-width="0.5" stroke-linecap="round" stroke-linejoin="round"/>
<path d="M119.076 95.4375C119.076 96.7206 119.178 98.6875 119.749 101.009C120.022 102.106 120.294 102.866 120.422 103.237C121.027 105.027 121.606 107.923 121.325 112.675" stroke="#BF9AD8" stroke-width="0.5" stroke-linecap="round" stroke-linejoin="round"/>
<path d="M104.537 69.8555C98.3692 74.4139 95.8904 76.0685 94.8852 76.6172C93.8715 77.1659 93.1644 77.8665 92.3041 78.4743C91.9974 78.6769 91.7504 78.9217 91.5459 79.2762C91.3415 79.6308 91.2393 80.0782 91.2904 80.4749" stroke="#BF9AD8" stroke-width="0.5" stroke-linecap="round" stroke-linejoin="round"/>
<path d="M86.7424 36.5974C85.4305 38.3532 84.519 40.3032 84.0164 42.4052C83.6587 44.0597 83.565 45.7649 83.7098 47.4616C84.0164 52.7714 84.1613 55.4305 85.2261 57.9292C85.5838 58.7818 89.3235 67.1474 95.8401 66.7928C100.236 66.5396 104.486 62.3357 105.441 56.5279C106.148 53.8266 106.599 51.0662 106.803 48.2636C107.204 42.3039 107.306 38.9441 105.032 36.2935C102.152 32.9844 97.3479 32.9844 96.1383 32.9844C92.6627 33.0941 89.3235 34.3435 86.7424 36.5974Z" fill="#EDC0C8"/>
<path d="M88.2237 63.1975C88.2067 64.3793 88.1811 65.5695 88.1641 66.7514C88.4026 67.0806 91.6993 71.5377 96.163 71.1325C100.916 70.702 103.651 65.063 104.29 61.5429C104.4 60.9182 104.443 60.3949 104.46 60.0234L88.2237 63.1975Z" fill="#F480A1"/>
<path d="M83.3086 45.6627C84.7227 38.901 86.699 37.0945 88.309 36.7484C90.6345 36.2503 91.8953 38.8503 95.686 38.9516C99.8856 39.0529 101.445 35.8451 103.523 36.951C103.523 36.951 106.155 38.3016 106.351 45.0127C106.351 45.4601 106.402 45.9159 106.453 46.3633C106.556 46.9627 106.607 47.562 106.607 48.1192C106.607 49.6724 106.658 52.6776 104.937 55.5815C104.026 57.1347 103.574 57.886 102.612 58.1899C100.891 58.688 99.7323 56.9406 96.1375 56.586C95.4305 56.5354 94.7234 56.5354 94.0164 56.586C90.5749 56.8899 89.4164 58.536 87.9001 58.1899C86.9886 57.9873 85.8812 57.0419 85.0208 53.8847L83.956 44.2192L82.9934 44.8185C83.3512 46.2198 83.6493 47.6211 83.8538 49.0224C84.7482 55.2101 84.1008 57.6581 85.8216 61.9971C86.3327 63.2886 86.7331 64.2594 87.6445 65.3484C89.2545 67.2646 92.3127 69.3581 96.1801 69.0627C101.138 68.6828 103.702 64.6899 104.205 63.8542C104.579 63.2295 104.758 62.7653 105.082 61.9549C106.7 57.8185 106.871 55.2692 106.956 50.3815C107.007 47.4776 106.956 45.8737 108.021 45.1731C108.626 44.8692 109.282 44.7763 109.937 44.9705C110.142 43.7211 110.142 42.4127 110.04 41.1633C109.937 40.1081 109.682 37.0523 108.123 34.6549C104.946 29.7841 97.8668 29.5815 95.7968 29.5308C93.1134 29.4802 90.4897 29.9783 88.0108 31.0334C85.4297 32.038 84.5268 33.0341 84.1179 33.5406C83.4108 34.3932 82.9593 35.4399 82.4993 37.5503C81.9456 40.3023 81.7923 43.164 82.099 45.9666L83.3086 45.6627Z" fill="#6B63B7"/>
<path opacity="0.7" d="M83.3086 45.6627C84.7227 38.901 86.699 37.0945 88.309 36.7484C90.6345 36.2503 91.8953 38.8503 95.686 38.9516C99.8856 39.0529 101.445 35.8451 103.523 36.951C103.523 36.951 106.155 38.3016 106.351 45.0127C106.351 45.4601 106.402 45.9159 106.453 46.3633C106.556 46.9627 106.607 47.562 106.607 48.1192C106.607 49.6724 106.658 52.6776 104.937 55.5815C104.026 57.1347 103.574 57.886 102.612 58.1899C100.891 58.688 99.7323 56.9406 96.1375 56.586C95.4305 56.5354 94.7234 56.5354 94.0164 56.586C90.5749 56.8899 89.4164 58.536 87.9001 58.1899C86.9886 57.9873 85.8812 57.0419 85.0208 53.8847L83.956 44.2192L82.9934 44.8185C83.3512 46.2198 83.6493 47.6211 83.8538 49.0224C84.7482 55.2101 84.1008 57.6581 85.8216 61.9971C86.3327 63.2886 86.7331 64.2594 87.6445 65.3484C88.0108 65.7873 91.2138 69.4763 96.1801 69.0627C100.814 68.6744 103.31 65.0276 103.923 64.1244C104.477 63.3224 104.767 62.664 105.073 61.9464C106.794 57.9958 106.854 55.4718 106.947 50.3731C106.999 47.4692 106.947 45.8653 108.012 45.1646C108.617 44.8607 109.273 44.7679 109.929 44.962C110.133 43.7127 110.133 42.4042 110.031 41.1549C109.929 40.0997 109.673 37.0438 108.115 34.6464C104.946 29.7841 97.8668 29.5815 95.7968 29.5308C93.1134 29.4802 90.4897 29.9783 88.0108 31.0334C85.4297 32.038 84.5268 33.0341 84.1179 33.5406C83.4108 34.3932 82.9593 35.4399 82.4993 37.5503C81.9456 40.3023 81.7923 43.164 82.099 45.9666L83.3086 45.6627Z" fill="url(#paint1_linear_8724_129122)"/>
<path opacity="0.3" d="M102.467 35.1946C100.397 34.1394 98.83 37.2965 94.6304 37.1952C90.8396 37.1446 89.5789 34.4939 87.2022 34.992C85.6859 35.3465 83.863 36.942 82.5 42.6569L82.8578 42.4543L83.2581 45.9576C83.5137 47.1563 83.7096 48.2115 83.8119 48.9121C84.0674 50.516 84.1696 51.8667 84.2122 53.116C84.5189 54.0699 84.9704 54.9731 85.6263 55.7751C85.3707 55.1251 85.1237 54.4751 84.9704 53.8251L83.9056 44.1595L83.5478 44.3621C84.9107 38.6556 86.7337 37.0517 88.25 36.6972C90.5756 36.1991 91.8363 38.7991 95.627 38.9004C99.8267 39.0017 101.386 35.7939 103.464 36.8998C103.72 37.0517 103.916 37.2543 104.12 37.4485C103.379 35.6926 102.467 35.1946 102.467 35.1946Z" fill="#34197F"/>
<path opacity="0.6" d="M108.029 44.9638C108.634 44.6599 109.29 44.5671 109.946 44.7612C110.099 43.5625 110.15 42.2541 109.997 40.9541C109.946 40.3801 109.844 39.2236 109.512 37.8982C109.23 36.8346 108.804 35.6781 108.123 34.6482C107.995 34.4456 107.85 34.2599 107.706 34.0742C108.421 35.7288 108.83 37.4762 108.924 39.308C109.026 40.5573 108.975 41.8658 108.822 43.1151C108.166 42.9125 107.459 43.0138 106.905 43.3177C106.649 43.4697 106.453 43.7145 106.3 43.9677C106.3 44.1028 106.309 44.2379 106.326 44.3729C106.326 44.3982 106.326 44.4236 106.326 44.4405C106.334 44.5924 106.351 44.7443 106.351 44.9132C106.351 45.3606 106.402 45.8164 106.453 46.2638C106.556 46.8632 106.607 47.4625 106.607 48.0197C106.641 48.8047 106.615 49.5814 106.539 50.358C106.539 50.3749 106.539 50.3918 106.53 50.4171C106.53 50.4255 106.53 50.434 106.53 50.4424C106.419 51.6242 106.155 53.0086 105.533 54.4268C105.346 55.7943 104.937 57.795 103.983 60.0911C103.821 60.471 103.625 60.9437 103.404 61.3742C102.313 63.434 99.5704 66.2788 95.5582 66.6671C90.5493 67.1482 87.2186 63.4171 86.4945 62.5982C86.1537 62.2184 85.8982 61.8807 85.7363 61.6443C85.7363 61.6866 85.7449 61.7288 85.7534 61.771C85.7789 61.8469 85.8045 61.9229 85.8386 61.9989C86.3497 63.2905 86.75 64.2612 87.6615 65.3502C88.0278 65.7892 91.2308 69.4781 96.1971 69.0645C100.831 68.6762 103.327 65.0294 103.94 64.1262C104.494 63.3242 104.784 62.6658 105.09 61.9482C106.811 57.9976 106.871 55.4736 106.964 50.3749C107.016 47.471 106.964 45.8671 108.029 45.1664C108.038 45.158 108.046 45.158 108.055 45.158C108.046 45.0905 108.038 45.0229 108.029 44.9638Z" fill="#34197F"/>
<path d="M84.1171 35.2965C84.3727 34.6465 84.8242 34.1485 85.3779 33.7433C91.8519 29.2861 100.439 29.3874 106.759 33.9965C107.415 34.4946 107.918 35.1446 108.122 35.9465C109.085 39.4498 109.187 43.1134 108.378 46.6673L106.964 48.0686C107.322 45.4601 107.27 42.8095 106.708 40.2517C106.555 39.5004 106.35 38.7998 106.155 38.1498C105.797 37.0439 104.996 36.1998 103.931 35.8452C98.3175 33.7939 92.1501 33.7939 86.4938 35.7439C85.5823 36.9933 84.8753 38.403 84.3216 39.8043C83.3079 42.6069 82.9586 45.6121 83.359 48.5666L81.996 46.3634C81.8938 42.6069 82.6008 38.7998 84.1171 35.2965Z" fill="#FFBBE5"/>
<path d="M109.34 45.9158L110.499 45.9665C111.913 46.0171 112.978 47.1652 112.927 48.5749L112.722 53.8846C112.671 55.2859 111.513 56.3411 110.09 56.2905L108.931 56.2398C107.517 56.1892 106.453 55.0411 106.504 53.6314L106.708 48.3217C106.759 46.9204 107.977 45.8652 109.34 45.9158Z" fill="url(#paint2_linear_8724_129122)"/>
<path d="M108.634 44.3633C109.648 44.4139 110.406 45.2159 110.355 46.2204L109.955 55.9367C109.904 56.9412 109.094 57.6925 108.081 57.6419C107.067 57.5912 106.309 56.7893 106.36 55.7847L106.76 46.0685C106.811 45.1146 107.621 44.3633 108.634 44.3633Z" fill="#FDFDFF"/>
<path opacity="0.4" d="M112.629 47.2695L112.424 52.1825C112.169 52.4864 111.768 52.6806 111.308 52.6806C110.848 52.6806 110.397 52.4273 110.15 52.0812C110.15 52.2838 110.354 54.639 108.94 55.5845C108.582 55.8377 108.182 55.9812 107.782 55.9812C107.228 55.9306 106.666 55.6773 106.368 55.1793V55.8293C106.316 56.8338 107.126 57.6358 108.088 57.6358C108.949 57.6358 109.707 57.0871 109.911 56.2851H110.116C111.479 56.3358 112.697 55.2806 112.748 53.8793L112.952 48.5695C112.978 48.0715 112.876 47.6747 112.629 47.2695Z" fill="#34197F"/>
<path d="M81.792 56.7409L80.6335 56.7916C79.2194 56.8929 78.0524 55.8377 77.9502 54.4364L77.6435 49.1266C77.5413 47.7253 78.6061 46.5688 80.0202 46.4675L81.1872 46.4169C82.6013 46.3156 83.7683 47.3708 83.8705 48.7721L84.1772 54.0818C84.2709 55.4325 83.2061 56.6396 81.792 56.7409Z" fill="url(#paint3_linear_8724_129122)"/>
<path d="M82.6525 58.1397C81.6388 58.1904 80.8295 57.4391 80.7358 56.4852L80.1821 46.769C80.131 45.7644 80.8892 44.9625 81.8518 44.8696C82.8655 44.819 83.6747 45.5703 83.7684 46.5242L84.3221 56.2404C84.4158 57.2365 83.6577 58.0891 82.6525 58.1397Z" fill="#FDFDFF"/>
<path opacity="0.4" d="M83.8107 46.5654C83.7596 45.966 83.4529 45.4595 82.9503 45.1641C83.0525 47.4686 83.1547 49.7732 83.257 52.0777C83.1036 52.5757 82.7033 52.9809 82.2433 53.1835C81.6896 53.3861 81.0336 53.3355 80.5225 53.0316C80.5736 53.8842 79.9688 54.5848 79.1595 54.6355C79.1084 54.6355 79.1084 54.6355 79.0573 54.6355C78.5036 54.5342 78.0436 54.0868 77.9414 53.5296L77.9925 54.4835C78.0947 55.8342 79.2533 56.8894 80.6759 56.8387H80.8803C81.1359 57.7926 82.0899 58.392 83.0525 58.1387C83.9129 57.9361 84.4666 57.1848 84.4155 56.3322L83.8107 46.5654Z" fill="#34197F"/>
<path d="M106.811 33.9965C100.49 29.3874 91.852 29.2861 85.429 33.7433C85.2246 33.8952 84.9776 34.0978 84.8242 34.292L86.5961 35.7946L86.6472 35.7439C92.312 33.7939 98.4283 33.8446 104.085 35.8452C104.536 35.9972 104.945 36.242 105.294 36.5965L107.518 34.6972C107.271 34.3933 107.015 34.1907 106.811 33.9965Z" fill="#7DD5F4"/>
<path d="M94.9694 54.1083C94.3306 54.1252 93.8365 54.1083 93.5639 54.0745C93.5639 54.0745 93.2317 54.0408 93.0528 53.8551C93.0017 53.8044 93.0017 53.7538 93.0017 53.7031C93.1039 52.5551 94.2624 46.6882 94.2624 46.6375C94.2624 46.5362 94.2113 46.3843 94.1091 46.3336C93.9983 46.283 93.8791 46.2999 93.8109 46.3758C93.7598 46.4265 93.7513 46.4856 93.7513 46.5109C93.7002 46.7642 92.5417 52.42 92.4395 53.6778C92.4395 53.8804 92.4906 54.0745 92.5928 54.2265C92.8143 54.4797 93.2146 54.5979 93.615 54.6486C93.8194 54.6823 94.0324 54.6992 94.2198 54.6992C94.4754 54.6992 94.7735 54.6486 95.0291 54.5473C95.1313 54.5051 95.1994 54.4038 95.1824 54.294C95.1569 54.2012 95.0717 54.1252 94.9694 54.1083Z" fill="#5E4A4A"/>
<path d="M34.4891 66.9368C34.1229 66.0588 34.0291 65.0459 34.2251 63.9147C34.4125 62.7835 34.9321 61.6861 35.7754 60.6478C36.6188 59.6095 37.7688 58.7822 39.2254 58.1829C40.5799 57.6257 41.8747 57.3809 43.1184 57.4485C44.3621 57.516 45.444 57.8621 46.364 58.4783C47.284 59.0946 47.9569 59.9049 48.3743 60.9095C48.7066 61.6946 48.8343 62.4543 48.7577 63.1718C48.681 63.8978 48.5106 64.5647 48.2551 65.1809C47.991 65.7972 47.4969 66.8439 46.7814 68.3381C46.5854 68.7601 46.4321 69.1147 46.3299 69.4101C46.2277 69.7056 46.168 69.9673 46.151 70.1868C46.134 70.4062 46.134 70.6173 46.1595 70.8199C46.1851 71.0225 46.2362 71.3686 46.3299 71.8666C46.5599 72.9049 46.2021 73.614 45.2651 73.9939C44.7795 74.1965 44.3025 74.2049 43.8425 74.0277C43.3825 73.8504 43.0162 73.4536 42.7606 72.829C42.4369 72.0523 42.2751 71.3264 42.2751 70.6595C42.2836 69.9926 42.3943 69.3595 42.6158 68.7601C42.8373 68.1692 43.161 67.4348 43.5954 66.5569C43.9703 65.7972 44.2428 65.2231 44.3962 64.8517C44.5495 64.4803 44.6517 64.092 44.7028 63.6952C44.7454 63.2985 44.6943 62.9101 44.5325 62.5303C44.2258 61.7874 43.6806 61.2809 42.914 61.0023C42.1473 60.7238 41.321 60.766 40.4436 61.1205C39.4128 61.5426 38.7654 62.1082 38.5014 62.8257C38.2288 63.5348 38.1351 64.4634 38.2203 65.603C38.3395 66.7764 37.9562 67.553 37.0703 67.916C36.5421 68.1355 36.031 68.127 35.5199 67.916C35.0088 67.6796 34.668 67.3588 34.4891 66.9368ZM47.7014 79.329C47.1306 79.5653 46.5599 79.5822 45.9806 79.3965C45.4014 79.2023 44.9754 78.7803 44.7028 78.1218C44.4558 77.5394 44.4558 76.9653 44.7028 76.3997C44.9499 75.8342 45.3673 75.429 45.9636 75.1757C46.5514 74.9309 47.1306 74.9309 47.7014 75.1588C48.2721 75.3952 48.6725 75.8004 48.9195 76.3829C49.1921 77.0329 49.1921 77.6238 48.928 78.1725C48.6554 78.7212 48.2466 79.101 47.7014 79.329Z" fill="url(#paint4_linear_8724_129122)"/>
<path d="M67.0812 118.973C66.7916 118.761 65.6842 117.951 64.1849 116.761C63.4183 116.153 62.8646 115.68 62.6516 115.545C61.4249 114.608 60.3346 113.874 58.1027 112.261C56.7227 111.265 57.0294 111.46 55.2235 110.16C52.9235 108.497 51.7564 107.661 51.092 107.348C50.0442 106.859 48.3149 106.074 46.1001 106.31C45.1716 106.411 44.4305 106.656 43.9449 106.859C42.8801 106.124 41.8068 105.39 40.742 104.664C39.9412 105.913 39.1405 107.18 38.3397 108.446C37.4283 109.898 36.5253 111.341 35.6309 112.776C36.619 113.612 37.5986 114.448 38.5868 115.284C38.5442 116.119 38.5016 116.955 38.4675 117.791C40.3927 119.8 42.1901 121.615 43.8257 123.235C46.6964 126.063 47.906 127.127 49.6864 128.191C50.3679 128.596 50.3764 128.554 52.3186 129.609C54.6783 130.9 56.4246 131.93 57.5064 132.572C65.0453 137.021 66.0164 138.321 68.7764 138.43C70.4546 138.498 71.8601 138.084 72.8397 137.696C73.1038 136.227 73.4616 134.083 73.7598 131.466C74.1005 128.528 74.2709 127.043 74.0664 126.274C73.3764 123.674 71.1361 121.995 67.0812 118.973Z" fill="url(#paint5_linear_8724_129122)"/>
<path opacity="0.5" d="M68.7679 138.427C70.4461 138.494 71.8517 138.081 72.8313 137.692C72.9591 136.975 73.1124 136.097 73.2657 135.076C71.3405 135.759 68.802 136.612 66.5446 135.498C65.4628 134.957 64.7046 134.096 61.0587 131.961C60.6498 131.724 60.3176 131.53 60.0876 131.404C59.6531 131.209 59.1761 131.007 58.6991 130.762C54.542 128.922 53.6987 128.93 51.5094 127.63C48.9454 126.119 47.3779 124.481 45.6061 122.675C44.4135 121.459 42.6331 119.67 40.2905 117.433C41.6279 117.205 42.5224 116.673 42.9994 116.335C44.2176 115.466 44.7968 114.368 45.4016 113.22C45.7935 112.478 46.1002 111.887 46.262 111.026C46.5516 109.464 46.1768 107.97 45.9554 107.97C45.7594 107.97 45.9042 109.118 45.2739 110.654C44.5413 112.444 43.272 113.516 42.7439 113.955C41.645 114.858 40.5461 115.348 39.7624 115.618L39.2939 113.533L37.045 111.574C38.0416 110.266 38.9531 108.907 39.7368 107.455C40.1798 106.644 40.6142 105.876 40.9635 105.1L40.5887 104.863C39.8305 106.054 39.0639 107.252 38.3057 108.459C37.4368 109.844 36.5765 111.211 35.7246 112.587L37.4028 114.048L37.4709 114.385C37.8287 114.689 38.195 114.993 38.5528 115.297C38.5102 116.124 38.4676 116.943 38.4335 117.77C38.6209 117.981 38.7998 118.176 38.9872 118.378C40.6994 120.159 42.3179 121.789 43.7916 123.241C43.9365 123.384 44.0642 123.511 44.2005 123.646C45.9553 125.267 47.3183 126.271 49.4735 128.052C49.5246 128.094 49.5842 128.145 49.6354 128.187C50.3168 128.592 50.3254 128.55 52.2676 129.605C54.6272 130.897 56.3735 131.927 57.4554 132.568C65.0283 137.009 66.0079 138.317 68.7679 138.427Z" fill="#412168"/>
<path opacity="0.6" d="M64.6619 124.605C64.4319 124.817 52.5997 126.539 53.6304 127.163C54.6611 127.788 62.2256 127.248 61.3226 127.425C60.4282 127.602 54.8741 128.725 53.3663 128.818C51.8585 128.911 49.4648 128.05 49.4648 128.05" stroke="#BF9AD8" stroke-width="0.5" stroke-linecap="round" stroke-linejoin="round"/>
<path opacity="0.6" d="M45.8441 108.347C44.1745 107.402 42.5134 106.457 40.8438 105.52" stroke="#BF9AD8" stroke-width="0.5" stroke-linecap="round" stroke-linejoin="round"/>
<path opacity="0.6" d="M45.0876 110.194C43.4264 109.138 41.7568 108.075 40.0957 107.02" stroke="#BF9AD8" stroke-width="0.5" stroke-linecap="round" stroke-linejoin="round"/>
<path opacity="0.6" d="M44.788 112.307C44.6517 112.298 38.6973 108.398 38.6973 108.398" stroke="#BF9AD8" stroke-width="0.5" stroke-linecap="round" stroke-linejoin="round"/>
<path opacity="0.6" d="M43.0931 114.237L37.8457 110.328" stroke="#BF9AD8" stroke-width="0.5" stroke-linecap="round" stroke-linejoin="round"/>
<path opacity="0.6" d="M41.0502 115.098L37.3105 112.059" stroke="#BF9AD8" stroke-width="0.5" stroke-linecap="round" stroke-linejoin="round"/>
<path opacity="0.6" d="M48.2891 107.129C48.2891 107.129 51.0065 108.496 48.8428 112.734" stroke="#BF9AD8" stroke-width="0.5" stroke-linecap="round" stroke-linejoin="round"/>
<path d="M95.4219 94.4756C95.6519 98.7893 95.8819 103.103 96.1034 107.425C96.7167 107.94 98.3778 109.215 100.908 109.518C103.549 109.831 105.542 108.902 106.24 108.531C107.177 104.302 108.114 100.064 109.043 95.8347C109.205 95.1087 108.694 94.4081 107.944 94.3321C104.23 93.9438 100.516 93.5639 96.8019 93.1756C96.0352 93.0912 95.3793 93.7159 95.4219 94.4756Z" fill="url(#paint6_linear_8724_129122)"/>
<path d="M95.7885 95.5192C96.0014 99.5458 96.2144 103.572 96.4274 107.599C96.9981 108.08 98.557 109.271 100.908 109.549C103.37 109.845 105.227 108.975 105.883 108.629C106.752 104.678 107.629 100.736 108.498 96.7855C108.651 96.1101 108.166 95.4517 107.476 95.3842C104.009 95.0212 100.542 94.6666 97.0748 94.3036C96.3677 94.2277 95.7544 94.8017 95.7885 95.5192Z" fill="url(#paint7_linear_8724_129122)"/>
<path d="M126.873 114.955C122.196 112.667 117.52 110.379 112.843 108.092C111.787 104.09 110.799 103.103 110.057 102.984C110.057 102.984 109.998 102.976 108.447 102.807C107.894 102.208 107.366 101.794 106.982 101.516C106.394 101.093 105.687 100.579 104.691 100.325C104.231 100.207 104.112 100.249 102.962 100.182C100.329 100.038 99.4945 99.7428 99.0771 100.249C98.7704 100.629 98.9152 101.212 98.9323 101.296C99.256 102.596 101.454 103.432 104.333 103.567C105.526 104.985 106.437 106.006 107.187 106.783C107.297 106.893 107.442 107.045 107.4 107.129C107.229 107.492 104.239 106.471 101.369 105.449C98.5745 104.453 96.3256 103.66 94.9371 103.17C94.8604 103.145 94.2215 102.976 93.7445 103.347C93.2504 103.736 93.1397 104.571 93.5997 105.264C93.506 105.314 93.1141 105.542 92.9693 106.006C92.8245 106.488 93.0034 107.045 93.4378 107.408C94.5026 108.227 95.576 109.037 96.6408 109.856C96.5812 110.134 96.5812 110.379 96.6067 110.59C96.8112 112.456 99.2219 113.427 99.4945 113.528C100.432 114.077 101.445 114.634 102.536 115.166C104.359 116.069 106.105 116.795 107.723 117.377C108.013 117.462 108.456 117.563 108.993 117.538C109.487 117.521 109.896 117.411 110.168 117.318C115.203 120.602 120.246 123.886 125.28 127.178C125.74 127.6 126.098 127.676 126.353 127.659C127.972 127.575 129.045 123.658 129.309 121.421C129.446 120.247 129.369 119.445 129.309 118.838C129.19 117.647 129.113 116.947 128.628 116.255C128.083 115.486 127.324 115.123 126.873 114.955Z" fill="#EDC0C8"/>
<path d="M108.447 102.797C108.447 102.797 109.904 105.372 110.006 104.798C110.108 104.224 110.73 103.675 110.006 103.27C109.291 102.864 108.447 102.797 108.447 102.797Z" fill="#F480A1"/>
<path d="M104.416 102.968C103.3 102.225 102.636 102.529 101.162 101.879C100.157 101.44 99.4499 100.841 99.0069 100.41C98.8365 100.782 98.9302 101.221 98.9473 101.297C99.271 102.597 101.469 103.432 104.348 103.567C105.541 104.985 106.452 106.007 107.202 106.784C107.304 106.885 107.432 107.02 107.415 107.113C107.542 107.071 107.696 107.003 107.747 106.868C107.917 106.48 107.176 105.872 106.239 104.935C104.714 103.407 105.055 103.39 104.416 102.968Z" fill="#F480A1"/>
<path d="M102.808 109.516C102.808 109.516 104.282 109.786 103.907 109.516C103.532 109.246 94.8857 105.371 94.3065 105.135C93.9487 104.991 93.5739 104.527 93.3354 104.164C93.2928 104.519 93.3694 104.915 93.6165 105.278C93.6079 105.278 93.5994 105.287 93.5909 105.295C95.0987 106.139 102.808 109.516 102.808 109.516Z" fill="#F480A1"/>
<path d="M93.4454 107.416C94.5102 108.235 95.5836 109.046 96.6484 109.864C96.6314 109.966 96.6228 110.05 96.6143 110.143C97.594 110.607 100.678 111.696 100.678 111.696C100.678 111.696 103.932 112.895 103.795 112.616C103.668 112.338 98.7184 110.236 97.8665 109.966C97.2021 109.755 94.5954 108.1 93.3262 107.281C93.3688 107.323 93.4028 107.374 93.4454 107.416Z" fill="#F480A1"/>
<path d="M116.845 110.041C115.508 109.391 114.171 108.733 112.842 108.083C112.757 107.762 112.671 107.467 112.586 107.18C112.637 107.72 112.714 108.674 112.714 109.214C112.714 109.999 112.441 111.426 112.441 111.426C112.441 111.426 116.053 110.691 116.845 110.041Z" fill="#F480A1"/>
<path d="M125.289 127.191C125.749 127.613 126.106 127.689 126.362 127.673C126.677 127.656 126.967 127.495 127.239 127.234C122.333 124.169 110.432 116.184 110.432 116.184C110.432 116.184 109.989 116.791 108.584 117.171C107.902 117.349 106.752 117.011 105.688 116.597C106.386 116.884 107.076 117.154 107.74 117.399C108.03 117.484 108.473 117.585 109.01 117.56C109.504 117.543 109.913 117.433 110.185 117.34C115.211 120.615 120.246 123.908 125.289 127.191Z" fill="#F480A1"/>
<path d="M124.171 113.735C124.171 113.735 124.392 111.954 126.062 111.861C127.731 111.768 127.382 111.253 130.721 111.946C132.783 112.376 133.967 112.714 135.057 113.71C135.858 114.436 136.224 115.196 136.565 115.913C137.57 118.007 137.519 119.931 137.485 121.358C137.477 121.805 137.408 123.688 136.65 125.975C136.19 127.36 135.926 128.111 135.202 128.761C133.873 129.935 132.059 129.833 131.42 129.766C131.232 130.044 130.858 130.525 130.21 130.863C129.537 131.218 128.924 131.235 128.387 131.243C127.604 131.251 126.786 131.268 126.104 130.762C126.104 130.762 125.772 130.517 124.827 128.846C124.792 128.888 124.562 129.234 124.12 129.285C123.583 129.344 123.259 128.913 123.242 128.896C123.131 128.601 123.029 128.212 122.978 127.765C122.884 126.904 123.055 126.195 123.199 125.764C123.506 126.068 123.949 126.457 124.562 126.811C125.27 127.225 125.815 127.537 126.275 127.512C128.472 127.36 129.001 119.357 129.001 117.846C129.001 117.483 128.975 116.875 128.617 116.276C128.336 115.803 127.97 115.508 127.552 115.238C126.956 114.824 125.857 114.208 124.171 113.735Z" fill="url(#paint8_linear_8724_129122)"/>
<path opacity="0.3" d="M127.775 113.696C127.051 113.198 126.344 112.927 125.45 112.868C125.015 112.843 124.513 113.257 124.214 113.552C124.189 113.662 124.172 113.738 124.172 113.738C125.859 114.202 126.957 114.827 127.554 115.215C127.971 115.494 128.346 115.781 128.619 116.253C128.968 116.853 129.002 117.461 129.002 117.823C129.002 118.372 128.934 119.782 128.738 121.361C128.806 121.124 128.925 120.719 129.027 120.204C129.223 119.199 129.155 118.87 129.292 116.751C129.351 115.755 129.377 115.637 129.292 115.359C129.036 114.557 128.372 114.101 127.775 113.696Z" fill="#412168"/>
<path opacity="0.3" d="M135.391 119.613L134.999 117.148C134.957 116.911 134.863 116.675 134.727 116.481C134.096 115.611 133.517 114.919 133.057 114.387C132.393 113.628 132.018 113.29 131.473 113.037C131.2 112.91 130.834 112.783 129.888 112.691C128.21 112.522 126.77 112.657 126.77 112.733C126.77 112.8 128.133 112.547 129.667 113.214C130.263 113.467 130.646 113.754 131.038 114.058C131.975 114.759 133.117 115.62 133.492 116.996C133.636 117.528 133.594 118.135 133.509 119.342C133.449 120.204 133.33 120.913 133.245 121.402C133.338 121.976 133.415 122.804 133.33 123.8C133.262 124.551 133.236 124.931 133.057 125.361C132.64 126.366 131.558 126.602 129.897 127.843C129.19 128.367 128.491 128.367 127.699 128.367C126.907 128.367 127.392 127.624 127.128 127.801C126.864 127.978 125.808 128.282 125.331 128.755C125.237 128.848 125.126 128.983 125.016 129.135C125.067 129.228 125.118 129.312 125.169 129.388C125.527 129.802 126.089 130.291 126.856 130.46C128.926 130.899 131.03 128.628 131.532 129.118C131.609 129.194 131.669 129.363 131.549 129.759C131.958 129.81 132.614 129.844 133.381 129.65C133.79 129.548 134.718 129.295 135.485 128.502C136.047 127.919 136.26 127.311 136.575 126.391C136.805 125.733 136.925 125.159 136.993 124.745C136.217 124.872 135.792 124.669 135.587 124.542C134.565 123.892 134.343 121.858 135.391 119.613Z" fill="#412168"/>
<path opacity="0.3" d="M123.209 125.758C123.209 125.758 125.202 127.927 126.284 127.497C127.366 127.066 123.677 129.489 123.618 128.257C123.558 127.024 123.209 125.758 123.209 125.758Z" fill="#412168"/>
</g>
</g>
<defs>
<linearGradient id="paint0_linear_8724_129122" x1="40.738" y1="62.9076" x2="159.532" y2="170.495" gradientUnits="userSpaceOnUse">
<stop offset="0.07" stop-color="#9962FB"/>
<stop offset="0.27" stop-color="#A161F3"/>
<stop offset="0.499" stop-color="#B860DE"/>
<stop offset="0.7502" stop-color="#DA5DBD"/>
</linearGradient>
<linearGradient id="paint1_linear_8724_129122" x1="88.9547" y1="26.9328" x2="109.447" y2="81.7588" gradientUnits="userSpaceOnUse">
<stop offset="0.0577" stop-color="#9938E5"/>
<stop offset="0.8889" stop-color="#21136E"/>
</linearGradient>
<linearGradient id="paint2_linear_8724_129122" x1="73.7242" y1="29.5227" x2="134.912" y2="66.8728" gradientUnits="userSpaceOnUse">
<stop offset="0.07" stop-color="#9962FB"/>
<stop offset="0.27" stop-color="#A161F3"/>
<stop offset="0.58" stop-color="#B860DE"/>
<stop offset="0.95" stop-color="#DA5DBD"/>
</linearGradient>
<linearGradient id="paint3_linear_8724_129122" x1="65.7504" y1="42.5174" x2="126.933" y2="79.8674" gradientUnits="userSpaceOnUse">
<stop offset="0.07" stop-color="#9962FB"/>
<stop offset="0.27" stop-color="#A161F3"/>
<stop offset="0.58" stop-color="#B860DE"/>
<stop offset="0.95" stop-color="#DA5DBD"/>
</linearGradient>
<linearGradient id="paint4_linear_8724_129122" x1="36.463" y1="71.6379" x2="50.4309" y2="65.7816" gradientUnits="userSpaceOnUse">
<stop offset="0.1458" stop-color="#6741C4"/>
<stop offset="0.4416" stop-color="#975BDD"/>
<stop offset="0.5368" stop-color="#A35BD8"/>
<stop offset="0.7066" stop-color="#C15ACA"/>
<stop offset="0.8263" stop-color="#DB59BE"/>
</linearGradient>
<linearGradient id="paint5_linear_8724_129122" x1="95.4675" y1="88.9841" x2="-4.74574" y2="173.965" gradientUnits="userSpaceOnUse">
<stop offset="0.07" stop-color="#9962FB"/>
<stop offset="0.27" stop-color="#A161F3"/>
<stop offset="0.58" stop-color="#B860DE"/>
<stop offset="0.95" stop-color="#DA5DBD"/>
</linearGradient>
<linearGradient id="paint6_linear_8724_129122" x1="95.4194" y1="101.374" x2="109.08" y2="101.374" gradientUnits="userSpaceOnUse">
<stop stop-color="#8134BC"/>
<stop offset="1" stop-color="#21136E"/>
</linearGradient>
<linearGradient id="paint7_linear_8724_129122" x1="102.446" y1="106.879" x2="101.944" y2="87.4933" gradientUnits="userSpaceOnUse">
<stop stop-color="#8134BC"/>
<stop offset="1" stop-color="#21136E"/>
</linearGradient>
<linearGradient id="paint8_linear_8724_129122" x1="122.959" y1="121.421" x2="137.498" y2="121.421" gradientUnits="userSpaceOnUse">
<stop offset="0.07" stop-color="#9962FB"/>
<stop offset="0.27" stop-color="#A161F3"/>
<stop offset="0.499" stop-color="#B860DE"/>
<stop offset="0.7502" stop-color="#DA5DBD"/>
</linearGradient>
<clipPath id="clip0_8724_129122">
<rect width="162" height="154" rx="77" fill="white"/>
</clipPath>
<clipPath id="clip1_8724_129122">
<rect width="138" height="130" fill="white" transform="translate(12 27)"/>
</clipPath>
</defs>
</svg>
