<svg xmlns="http://www.w3.org/2000/svg" width="18" height="18" fill="none" viewBox="0 0 18 18">
    <path fill="#fff" fill-rule="evenodd" stroke="#fff" stroke-linecap="round" stroke-width=".5" d="M9.636 4.5c0-.276-.223-.5-.5-.5H2.5C1.672 4 1 4.672 1 5.5v10c0 .828.672 1.5 1.5 1.5h10c.828 0 1.5-.672 1.5-1.5V8.864c0-.277-.224-.5-.5-.5s-.5.223-.5.5V15.5c0 .276-.224.5-.5.5h-10c-.276 0-.5-.224-.5-.5v-10c0-.276.224-.5.5-.5h6.636c.277 0 .5-.224.5-.5z" clip-rule="evenodd"/>
    <path stroke="#000" stroke-linecap="round" stroke-linejoin="round" d="M16.5 6.5v-5m0 0h-5m5 0l-9 9"/>
    <path fill="#fff" fill-rule="evenodd" stroke="#fff" stroke-linecap="round" stroke-linejoin="round" stroke-width=".5" d="M17 1.5c0-.276-.224-.5-.5-.5h-5c-.276 0-.5.224-.5.5s.224.5.5.5h3.793l-8.147 8.146c-.195.196-.195.512 0 .708.196.195.512.195.708 0L16 2.707V6.5c0 .276.224.5.5.5s.5-.224.5-.5v-5z" clip-rule="evenodd"/>
</svg>
