<svg xmlns="http://www.w3.org/2000/svg" width="10" height="11" fill="none" viewBox="0 0 10 11">
    <g clip-path="url(#clip0)">
        <path fill="#979797" d="M7.855 5.97v.543c.003 1.483-.35 2.944-1.027 4.259L6.707 11l-.937-.529c.626-1.136.972-2.41 1.009-3.71l.004-.248v-.542h1.072zM4.638 4.343h1.073v2.171l-.003.206c-.04 1.486-.546 2.921-1.443 4.098l-.124.157-.83-.687c.818-1.012 1.283-2.269 1.324-3.576l.003-.198v-2.17zm.537-2.17c.71 0 1.392.285 1.895.794.503.509.785 1.2.785 1.919H6.783c0-.432-.17-.846-.471-1.151-.302-.306-.71-.477-1.137-.477-.427 0-.836.171-1.138.477-.301.305-.47.72-.47 1.151v1.628c0 1.196-.433 2.351-1.218 3.245l-.114.125-.778-.75c.628-.664.995-1.537 1.033-2.455l.004-.165V4.885c0-.72.282-1.41.785-1.919.503-.509 1.185-.795 1.896-.795zm0-2.172c1.28 0 2.507.515 3.412 1.43C9.492 2.348 10 3.59 10 4.886v1.628c0 .913-.108 1.822-.322 2.709l-.074.292-1.034-.287c.211-.785.33-1.593.353-2.407l.005-.307V4.885c0-.705-.194-1.396-.56-1.996-.366-.6-.89-1.085-1.513-1.401-.622-.316-1.32-.45-2.013-.387-.694.062-1.357.319-1.915.741l-.764-.774C3.018.375 4.08-.002 5.175 0zm-3.77 1.836l.764.774c-.46.62-.72 1.37-.745 2.144l-.002.131.002 1.086c0 .6-.14 1.19-.409 1.724l-.084.158L0 7.314c.205-.362.323-.768.346-1.185l.005-.158V4.885C.348 3.777.72 2.701 1.404 1.836z"/>
    </g>
    <defs>
        <clipPath id="clip0">
            <path fill="#fff" d="M0 0H10V11H0z"/>
        </clipPath>
    </defs>
</svg>
