<svg xmlns="http://www.w3.org/2000/svg" width="9" height="10" fill="none" viewBox="0 0 9 10">
    <path fill="#979797" d="M7.683 1.226c.423.398.758.87.984 1.388.444 1.011.444 2.143 0 3.154-.226.519-.56.99-.984 1.388l-2.952 2.75c-.03.03-.065.053-.105.07-.04.016-.083.024-.126.024-.044 0-.087-.008-.127-.025-.04-.016-.075-.04-.105-.07L1.317 7.157C.89 6.762.555 6.29.333 5.768c-.444-1.01-.444-2.143 0-3.153.222-.522.56-.995.99-1.389C1.949.644 2.744.246 3.61.083 4.476-.08 5.374-.001 6.193.31c.556.211 1.063.523 1.49.916zM5.542 5.162c.14-.13.25-.286.318-.458.067-.164.102-.337.103-.512-.002-.175-.036-.349-.103-.512-.068-.173-.177-.33-.318-.459-.14-.13-.307-.232-.492-.296-.176-.063-.362-.095-.55-.096-.188.002-.374.034-.55.096-.184.065-.352.166-.491.296-.14.13-.249.286-.319.458-.066.164-.105.337-.116.512-.008.177.031.353.116.512.084.165.19.32.318.458.132.14.302.242.492.297.178.057.363.094.55.108.19.004.378-.033.55-.108.183-.07.35-.17.492-.297z"/>
</svg>
