<svg xmlns="http://www.w3.org/2000/svg" width="18.758" height="18.758" viewBox="0 0 18.758 18.758"><defs><style>.a{opacity:0.498;}.b{fill-rule:evenodd;}</style></defs><g class="a" transform="translate(-3 -3)"><path class="b" d="M3,12.379a9.379,9.379,0,1,1,9.379,9.379A9.379,9.379,0,0,1,3,12.379Zm9.379-7.5a7.5,7.5,0,1,0,7.5,7.5A7.5,7.5,0,0,0,12.379,4.876Z"/><path class="b" d="M15.565,9.938a.938.938,0,1,0-1.876,0v3.752H9.938a.938.938,0,0,0,0,1.876h3.752v3.752a.938.938,0,0,0,1.876,0V15.565h3.752a.938.938,0,0,0,0-1.876H15.565Z" transform="translate(-2.248 -2.248)"/></g></svg>