<svg xmlns="http://www.w3.org/2000/svg" xmlns:xlink="http://www.w3.org/1999/xlink" width="25.727" height="25.727" viewBox="0 0 25.727 25.727"><defs><style>.a{fill:#f0c419;}.b{clip-path:url(#a);}.c,.d{fill:#fcf062;}.c,.d,.e,.f{fill-rule:evenodd;}.d{stroke:#f29c1f;stroke-miterlimit:10;stroke-width:1.44px;}.e{fill:#f29c1f;}.f{fill:#e57e25;}</style><clipPath id="a"><path d="M25.727,12.863A12.863,12.863,0,1,1,12.863,0,12.863,12.863,0,0,1,25.727,12.863Z" transform="translate(0 0)"/></clipPath></defs><path class="a" d="M25.727,12.863A12.863,12.863,0,1,1,12.863,0,12.863,12.863,0,0,1,25.727,12.863Z"/><g class="b" transform="translate(0 0)"><path class="c" d="M1.96,5.572l10.9,7.29L5.58,1.952Zm21.81.005L20.151,1.956,12.863,12.862,0,10.3v5.12l12.863-2.557L1.957,20.147l3.618,3.621,7.288-10.907L10.3,25.728h5.118L12.863,12.862l7.283,10.909,3.62-3.62-10.9-7.29ZM25.727,10.3,12.863,12.862l12.863,2.563V10.3ZM10.307,0l2.556,12.867L15.425,0Z" transform="translate(0 0.001)"/><path class="d" d="M17.7,26.186H12.551c0-1.949-.9-4.519-2.055-5.486a7.221,7.221,0,1,1,11.831-5.544,7.576,7.576,0,0,1-2.583,5.551A8.413,8.413,0,0,0,17.7,26.186Z" transform="translate(-2.26 -2.26)"/><path class="e" d="M17.231,29.371a.257.257,0,0,1-.257-.257v-8.49H15.944v8.49a.257.257,0,0,1-.257.257h-.515a.257.257,0,0,1-.257-.257v-8.49h-.643a1.672,1.672,0,1,1,1.659-1.882.244.244,0,0,1,.014.081V19.6h1.029v-.772a.255.255,0,0,1,.014-.084,1.672,1.672,0,1,1,1.658,1.885H18v8.49a.257.257,0,0,1-.257.257ZM18.646,19.6a.643.643,0,1,0-.632-.735L18,18.905v.69Zm-4.374-1.286a.643.643,0,1,0,0,1.286h.643V18.9l-.01-.042a.645.645,0,0,0-.633-.552Z" transform="translate(-3.596 -4.931)"/><path class="f" d="M13.68,29.678h6.174v2.315H13.68Zm1.544-6.946h1.029V21.96H15.224Zm2.058-.772v.772h1.029V21.96Z" transform="translate(-3.904 -6.267)"/></g></svg>