<svg xmlns="http://www.w3.org/2000/svg" width="22.055" height="21.227" viewBox="0 0 22.055 21.227"><defs><style>.a{fill:none;stroke:#363291;stroke-linecap:round;stroke-linejoin:round;stroke-width:2px;}</style></defs><g transform="translate(-3.086 -3.5)"><path class="a" d="M4.5,14.113l2.136-2.136m0,0L14.113,4.5l7.477,7.477m-14.954,0V22.658A1.068,1.068,0,0,0,7.7,23.727h3.2M21.59,11.977l2.136,2.136M21.59,11.977V22.658a1.068,1.068,0,0,1-1.068,1.068h-3.2m-6.409,0a1.068,1.068,0,0,0,1.068-1.068V18.386a1.068,1.068,0,0,1,1.068-1.068h2.136a1.068,1.068,0,0,1,1.068,1.068v4.273a1.068,1.068,0,0,0,1.068,1.068m-6.409,0h6.409"/></g></svg>