<svg xmlns="http://www.w3.org/2000/svg" width="17.96" height="20.03" viewBox="0 0 17.96 20.03"><path d="M21.125,14.455,19.26,12.59V9.413a6.955,6.955,0,0,0-6.216-6.907V1.125H11.662V2.506A7.01,7.01,0,0,0,5.446,9.413V12.59L3.581,14.455a.629.629,0,0,0-.207.483V17.01a.649.649,0,0,0,.691.691H8.9a3.453,3.453,0,0,0,6.907,0h4.835a.649.649,0,0,0,.691-.691V14.938A.629.629,0,0,0,21.125,14.455Zm-8.772,5.318A2.072,2.072,0,0,1,10.281,17.7h4.144a2.072,2.072,0,0,1-2.072,2.072Z" transform="translate(-3.373 -1.125)"/></svg>