<svg xmlns="http://www.w3.org/2000/svg" width="24.333" height="24.296" viewBox="0 0 24.333 24.296"><defs><style>.a{fill:#9dafbd;}</style></defs><g transform="translate(-2.962 -2.967)"><path class="a" d="M18.921,17.711A1.211,1.211,0,1,1,17.711,16.5,1.211,1.211,0,0,1,18.921,17.711Z" transform="translate(-2.611 -2.61)"/><path class="a" d="M24.921,17.711A1.211,1.211,0,1,1,23.711,16.5,1.211,1.211,0,0,1,24.921,17.711Z" transform="translate(-3.768 -2.61)"/><path class="a" d="M12.921,17.711A1.211,1.211,0,1,1,11.711,16.5,1.211,1.211,0,0,1,12.921,17.711Z" transform="translate(-1.454 -2.61)"/><path class="a" d="M23.66,6.541A12.107,12.107,0,0,0,3.949,19.859a1.283,1.283,0,0,1,.109.775L2.993,25.756A1.2,1.2,0,0,0,4.2,27.208h.242l5.182-1.041a1.526,1.526,0,0,1,.775.109A12.107,12.107,0,0,0,23.721,6.565Zm1,10.122a9.686,9.686,0,0,1-13.318,7.361,3.947,3.947,0,0,0-1.513-.315,4.153,4.153,0,0,0-.678.061l-3.414.69.69-3.414a3.741,3.741,0,0,0-.254-2.191,9.688,9.688,0,1,1,18.488-2.191Z"/></g></svg>