<svg xmlns="http://www.w3.org/2000/svg" width="26.399" height="19.492" viewBox="0 0 26.399 19.492"><defs><style>.a,.b,.c{fill:none;stroke:#9dafbd;stroke-width:2.25px;}.a,.c{stroke-linecap:round;}.a{stroke-linejoin:round;}.b,.c{stroke-miterlimit:10;}</style></defs><g transform="translate(-1.12 -5.625)"><path class="a" d="M26.094,10.63a3.943,3.943,0,0,1-3.556,3.88,3.94,3.94,0,0,1-3.556-3.88,3.57,3.57,0,1,1,7.113,0Z" transform="translate(-3.907 0)"/><path class="b" d="M21.259,21.375c-3.511,0-6.888,1.744-7.734,5.141a.684.684,0,0,0,.631.894H28.362a.685.685,0,0,0,.631-.894C28.147,23.065,24.771,21.375,21.259,21.375Z" transform="translate(-2.629 -3.418)"/><path class="a" d="M12.318,12.122A3.193,3.193,0,0,1,9.462,15.25a3.191,3.191,0,0,1-2.856-3.128A2.8,2.8,0,0,1,9.462,9a2.811,2.811,0,0,1,2.856,3.122Z" transform="translate(-1.016 -0.526)"/><path class="c" d="M11.625,21.328a7.553,7.553,0,0,0-3.179-.617c-2.8,0-5.5,1.393-6.177,4.106a.548.548,0,0,0,.505.714H8.823" transform="translate(0 -3.262)"/></g></svg>