<svg xmlns="http://www.w3.org/2000/svg" width="23.903" height="22.742" viewBox="0 0 23.903 22.742"><defs><style>.a{fill:#9dafbd;stroke:#fff;stroke-width:0.2px;}</style></defs><path class="a" d="M12.284,16.444a8.324,8.324,0,0,0-.94,2.24c-3.122.267-6.139,1.729-6.139,2.4v1.277h6.15a8.075,8.075,0,0,0,.928,2.2H3V21.086C3,18,9.185,16.444,12.284,16.444M12.284,6a4.642,4.642,0,0,1,4.642,4.642,4.69,4.69,0,0,1-.952,2.82,7.373,7.373,0,0,0-2.634,1.706l-1.056.116a4.642,4.642,0,1,1,0-9.284m0,2.2a2.437,2.437,0,1,0,2.437,2.437A2.437,2.437,0,0,0,12.284,8.2m6.383,7.079a5.227,5.227,0,0,1,4.421,8.007l3.574,3.6L25.049,28.5l-3.621-3.563a5.222,5.222,0,1,1-2.762-9.655m0,2.321a2.9,2.9,0,1,0,2.9,2.9,2.9,2.9,0,0,0-2.9-2.9Z" transform="translate(-2.9 -5.9)"/></svg>