<svg xmlns="http://www.w3.org/2000/svg" width="41.239" height="36.267" viewBox="0 0 41.239 36.267"><path d="M17.86-5231.312a4.228,4.228,0,0,1-1.164-3.115,8.075,8.075,0,0,1,.069-1l-.025.01.889-5.093.708-3.969.55-3.14.009,0,.113-.636a5.467,5.467,0,0,0,.123-1.043c0-1.289-.613-1.917-1.824-1.917a1.989,1.989,0,0,0-1.626.827,4.187,4.187,0,0,0-.875,1.887q-1.266,7.408-8.553,7.408c-2.362,0-4.063-.522-5.089-1.581A4.188,4.188,0,0,1,0-5245.794a9.049,9.049,0,0,1,.123-1.381s.23-1.059.628-1.3c1.365-.8,4.891-.537,4.891-.537l-.123.567a5.481,5.481,0,0,0-.123,1.044c0,1.288.613,1.917,1.825,1.917a1.99,1.99,0,0,0,1.624-.829,4.606,4.606,0,0,0,.843-1.9h0q1.289-7.41,8.571-7.41c2.36,0,4.063.521,5.089,1.58a4.228,4.228,0,0,1,1.164,3.115,8.146,8.146,0,0,1-.068,1l.023-.01-.889,5.095-.637,3.569-.62,3.538-.01,0-.113.635a5.467,5.467,0,0,0-.123,1.043c0,1.289.613,1.919,1.825,1.919a1.989,1.989,0,0,0,1.624-.829,4.867,4.867,0,0,0,.905-2.194h.054c.862-4.8,3.715-7.195,8.5-7.195,2.36,0,4.063.521,5.089,1.579a4.23,4.23,0,0,1,1.166,3.115,9.048,9.048,0,0,1-.123,1.381s-.23,1.059-.629,1.3c-1.364.8-4.89.538-4.89.538l.137-.552a5.463,5.463,0,0,0,.123-1.044c0-1.289-.613-1.917-1.824-1.917a1.99,1.99,0,0,0-1.626.829,4.864,4.864,0,0,0-.9,2.194H31.45c-.863,4.8-3.715,7.194-8.5,7.194C20.589-5229.733,18.888-5230.254,17.86-5231.312ZM31.52-5251.1a3.988,3.988,0,0,1,3.986-3.99,3.989,3.989,0,0,1,3.986,3.99,3.988,3.988,0,0,1-3.986,3.989A3.987,3.987,0,0,1,31.52-5251.1Zm-16.16-10.908A3.989,3.989,0,0,1,19.345-5266a3.988,3.988,0,0,1,3.986,3.989,3.988,3.988,0,0,1-3.986,3.99A3.989,3.989,0,0,1,15.36-5262.012Z" transform="translate(0 5266)"/></svg>