<svg xmlns="http://www.w3.org/2000/svg" width="13.203" height="13.202" viewBox="0 0 13.203 13.202"><defs><style>.a,.b{fill:#fff;}.a{opacity:0.3;}</style></defs><g transform="translate(-4.5 -4.106)"><path class="a" d="M15.387,10.625l-.94-.94L7.5,16.633v1.019H8.519L15.467,10.7Zm-3.672-.253L10.847,9.5l-.86.86L8.96,9.338l.86-.853L8.9,7.56,7.529,8.934l2.812,2.812Zm3.933,3.94-.868-.875-1.374,1.374,2.812,2.812,1.374-1.374-.918-.918-.86.86-1.027-1.019Zm-.181-5.655L16.49,7.635l1.022,1.022L16.49,9.68Z" transform="translate(-1.554 -1.789)"/><path class="b" d="M17.491,6.364,15.445,4.318a.72.72,0,0,0-1.019,0L11.18,7.564,8.368,4.751a1.449,1.449,0,0,0-2.046,0L4.948,6.125a1.449,1.449,0,0,0,0,2.046L7.76,10.983,4.5,14.243v3.065H7.565l3.268-3.268,2.812,2.812a1.448,1.448,0,0,0,2.046,0l1.374-1.374a1.449,1.449,0,0,0,0-2.046l-2.812-2.812L17.5,7.376a.718.718,0,0,0-.007-1.012ZM5.975,7.144,7.341,5.771l.918.918-.853.86L8.425,8.569l.86-.86.868.868L8.78,9.949Zm.99,8.718H5.946V14.843L12.893,7.9l.94.94.08.08Zm7.294-1.46.86-.86.918.918-1.374,1.374-2.812-2.812,1.374-1.374.868.868-.86.86L14.259,14.4Zm.68-6.506L13.92,6.877l1.019-1.019,1.019,1.019Z"/></g></svg>