<svg xmlns="http://www.w3.org/2000/svg" width="119.199" height="119.199" viewBox="0 0 119.199 119.199"><defs><style>.a{fill:#33c32d;}</style></defs><g transform="translate(-385.8 -271.8)"><path class="a" d="M23.44,3a20.44,20.44,0,1,0,20.44,20.44A20.44,20.44,0,0,0,23.44,3ZM32.23,18.555,22.889,30.819a2.05,2.05,0,0,1-3.23.02l-4.987-6.357a2.046,2.046,0,0,1,3.23-2.514l3.332,4.252L28.959,16a2.056,2.056,0,1,1,3.27,2.494Z" transform="translate(414.56 307.56)"/><path d="M122.8,115.349V11.05a7.472,7.472,0,0,0-7.45-7.45H11.05A7.472,7.472,0,0,0,3.6,11.05v104.3a7.472,7.472,0,0,0,7.45,7.45h104.3a7.472,7.472,0,0,0,7.45-7.45Zm-7.45,0H11.05V11.05h104.3v104.3ZM24.087,18.5h78.224a5.628,5.628,0,0,1,5.587,5.587V33.4h-7.45V55.75h7.45v14.9h-7.45V93h7.45v9.312a5.628,5.628,0,0,1-5.587,5.587H24.087a5.628,5.628,0,0,1-5.587-5.587V24.087A5.628,5.628,0,0,1,24.087,18.5ZM85.549,63.2A29.8,29.8,0,1,0,55.75,93a29.792,29.792,0,0,0,29.8-29.8Z" transform="translate(382.2 268.2)"/></g></svg>