<svg xmlns="http://www.w3.org/2000/svg" width="11.138" height="11.137" viewBox="0 0 11.138 11.137"><defs><style>.a{fill:#41a800;fill-rule:evenodd;}</style></defs><path class="a" d="M10.91,4.921l-.752-.933a1.044,1.044,0,0,1-.215-.536L9.811,2.27a1.051,1.051,0,0,0-.925-.926L7.7,1.212A1.062,1.062,0,0,1,7.161.983L6.229.232a1.047,1.047,0,0,0-1.307,0L3.989.984a1.044,1.044,0,0,1-.536.216l-1.182.132a1.051,1.051,0,0,0-.926.925L1.212,3.439a1.062,1.062,0,0,1-.229.543l-.752.931a1.047,1.047,0,0,0,0,1.307l.752.933a1.045,1.045,0,0,1,.216.536l.132,1.182a1.051,1.051,0,0,0,.925.926l1.183.132a1.062,1.062,0,0,1,.543.229l.932.752a1.046,1.046,0,0,0,1.307,0l.933-.752a1.045,1.045,0,0,1,.536-.216L8.873,9.81A1.051,1.051,0,0,0,9.8,8.885L9.931,7.7a1.062,1.062,0,0,1,.229-.543l.752-.932a1.047,1.047,0,0,0,0-1.307ZM4.527,8.362,2.09,5.926,3.134,4.882,4.527,6.274,8.007,2.793,9.052,3.872,4.527,8.362Z" transform="translate(-0.003 -0.003)"/></svg>