<svg width="24" height="24" viewBox="0 0 24 24" fill="none"
    xmlns="http://www.w3.org/2000/svg">
    <path d="M11.9999 3C10.2199 3 8.47999 3.52767 6.99994 4.5166C5.5199 5.50553 4.36668 6.91113 3.68549 8.55566C3.0043 10.2002 2.82553 12.01 3.1728 13.7559C3.52006 15.5017 4.37799 17.1056 5.63666 18.3643C6.89534 19.6229 8.49826 20.4799 10.2441 20.8271C11.9899 21.1744 13.7997 20.9956 15.4443 20.3145C17.0888 19.6333 18.4944 18.48 19.4833 17C20.4723 15.52 20.9999 13.78 20.9999 12C20.9973 9.61386 20.0485 7.32593 18.3613 5.63867C16.674 3.95142 14.3861 3.00265 11.9999 3V3Z" stroke="#718096" stroke-width="1.5" stroke-linecap="round" stroke-linejoin="round"/>
    <path d="M8.64069 9.5C8.59125 9.5 8.54313 9.51452 8.50202 9.54199C8.46091 9.56946 8.42817 9.60862 8.40925 9.6543C8.39033 9.69998 8.38593 9.75033 8.39558 9.79883C8.40522 9.84732 8.42897 9.89179 8.46393 9.92676C8.4989 9.96172 8.54337 9.98547 8.59186 9.99512C8.64036 10.0048 8.69071 10.0004 8.7364 9.98145C8.78208 9.96252 8.82123 9.92978 8.8487 9.88867C8.87617 9.84756 8.89069 9.79945 8.89069 9.75C8.89043 9.68378 8.8633 9.62007 8.81647 9.57324C8.76965 9.52642 8.70692 9.50026 8.64069 9.5" stroke="#718096" stroke-width="1.5" stroke-linecap="round" stroke-linejoin="round"/>
    <path d="M15.6407 9.5C15.5912 9.5 15.5431 9.51452 15.502 9.54199C15.4609 9.56946 15.4282 9.60862 15.4092 9.6543C15.3903 9.69998 15.3859 9.75033 15.3956 9.79883C15.4052 9.84732 15.429 9.89179 15.4639 9.92676C15.4989 9.96172 15.5434 9.98547 15.5919 9.99512C15.6404 10.0048 15.6907 10.0004 15.7364 9.98145C15.7821 9.96252 15.8212 9.92978 15.8487 9.88867C15.8762 9.84756 15.8907 9.79945 15.8907 9.75C15.8904 9.68378 15.8633 9.62007 15.8165 9.57324C15.7696 9.52642 15.7069 9.50026 15.6407 9.5" stroke="#718096" stroke-width="1.5" stroke-linecap="round" stroke-linejoin="round"/>
    <path d="M15.5 15.6924C14.5301 16.538 13.2868 17.0039 12 17.0039C10.7132 17.0039 9.46993 16.538 8.5 15.6924" stroke="#718096" stroke-width="1.5" stroke-linecap="round" stroke-linejoin="round"/>
</svg>
