<svg width="30" height="31" viewBox="0 0 30 31" fill="none"
    xmlns="http://www.w3.org/2000/svg">
    <path fill-rule="evenodd" clip-rule="evenodd" d="M13.5 11.5C13.5 10.6716 14.1716 10 15 10C15.8284 10 16.5 10.6716 16.5 11.5C16.5 12.3284 15.8284 13 15 13C14.1716 13 13.5 12.3284 13.5 11.5ZM13.5 16.5C13.5 15.6716 14.1716 15 15 15C15.8284 15 16.5 15.6716 16.5 16.5C16.5 17.3284 15.8284 18 15 18C14.1716 18 13.5 17.3284 13.5 16.5ZM13.5 21.5C13.5 20.6716 14.1716 20 15 20C15.8284 20 16.5 20.6716 16.5 21.5C16.5 22.3284 15.8284 23 15 23C14.1716 23 13.5 22.3284 13.5 21.5Z" fill="#313049"/>
</svg>
