<svg width="32" height="33" viewBox="0 0 32 33" fill="none"
    xmlns="http://www.w3.org/2000/svg">
    <path fill-rule="evenodd" clip-rule="evenodd" d="M15.5 21C18.5376 21 21 18.5376 21 15.5C21 12.4624 18.5376 10 15.5 10C12.4624 10 10 12.4624 10 15.5C10 18.5376 12.4624 21 15.5 21ZM22 15.5C22 19.0899 19.0899 22 15.5 22C11.9101 22 9 19.0899 9 15.5C9 11.9101 11.9101 9 15.5 9C19.0899 9 22 11.9101 22 15.5Z" fill="#313049"/>
    <path d="M19.3439 20.7422C19.3734 20.7822 19.4062 20.8204 19.4424 20.8566L23.2929 24.7071C23.6834 25.0976 24.3166 25.0976 24.7071 24.7071C25.0976 24.3166 25.0976 23.6834 24.7071 23.2929L20.8566 19.4424C20.8204 19.4062 20.7822 19.3734 20.7422 19.3439C20.3499 19.878 19.878 20.3499 19.3439 20.7422Z" fill="#313049"/>
</svg>
