<?xml version="1.0" encoding="utf-8"?>
<!-- Generator: Adobe Illustrator 26.5.0, SVG Export Plug-In . SVG Version: 6.00 Build 0)  -->
<svg version="1.1" id="Layer_1" xmlns="http://www.w3.org/2000/svg" xmlns:xlink="http://www.w3.org/1999/xlink" x="0px" y="0px"
	 viewBox="0 0 125 93" style="enable-background:new 0 0 125 93;" xml:space="preserve">
<style type="text/css">
	.st0{clip-path:url(#SVGID_00000142873853664676901070000013320302523043615391_);}
	.st1{fill:#D8ADB6;}
	.st2{fill:url(#SVGID_00000145756111187634586000000013879369966312302744_);}
	.st3{opacity:0.41;fill:#412168;enable-background:new    ;}
	
		.st4{opacity:0.41;fill:none;stroke:#C2BFC7;stroke-width:2;stroke-linecap:round;stroke-linejoin:round;enable-background:new    ;}
	
		.st5{opacity:0.41;fill:none;stroke:#BF9AD8;stroke-width:0.5;stroke-linecap:round;stroke-linejoin:round;enable-background:new    ;}
	.st6{fill:#EDC0C8;}
	.st7{opacity:0.31;fill:#F480A1;enable-background:new    ;}
	.st8{fill:#6B63B7;}
	.st9{opacity:0.7;fill:url(#SVGID_00000142887130904080914910000009951980943597913235_);enable-background:new    ;}
	.st10{opacity:0.3;fill:#34197F;enable-background:new    ;}
	.st11{opacity:0.22;fill:#34197F;enable-background:new    ;}
	.st12{fill:#FFBBE5;}
	.st13{fill:url(#SVGID_00000119839781463270994540000006538120516081315724_);}
	.st14{fill:#FDFDFF;}
	.st15{opacity:0.4;fill:#34197F;enable-background:new    ;}
	.st16{fill:url(#SVGID_00000158004130420487437940000015412991132947411623_);}
	.st17{fill:#7DD5F4;}
	.st18{fill:#5E4A4A;}
	.st19{opacity:0.3;fill:#FFFFFF;enable-background:new    ;}
	.st20{opacity:0.5;fill:#F480A1;enable-background:new    ;}
</style>
<g>
	<defs>
		<rect id="SVGID_1_" width="125" height="93"/>
	</defs>
	<clipPath id="SVGID_00000033368110494790595170000003430969360150759840_">
		<use xlink:href="#SVGID_1_"  style="overflow:visible;"/>
	</clipPath>
	<g style="clip-path:url(#SVGID_00000033368110494790595170000003430969360150759840_);">
		<path class="st1" d="M72.8,35.4c-0.1,0.2,0.7,17.3,0.7,17.3s-13.7,4.1-13.7,3.9c0-0.2-7-3.5-7-3.5s0.5-8.6,0.5-8.8
			c-0.1-0.1,4.2-8.3,4.2-8.3L72.8,35.4z"/>
		
			<linearGradient id="SVGID_00000031196791923237376670000000180399595360647559_" gradientUnits="userSpaceOnUse" x1="-10.1029" y1="55.5398" x2="138.0963" y2="-86.8416" gradientTransform="matrix(1 0 0 -1 0 94)">
			<stop  offset="7.000000e-02" style="stop-color:#9962FB"/>
			<stop  offset="0.27" style="stop-color:#A161F3"/>
			<stop  offset="0.499" style="stop-color:#B860DE"/>
			<stop  offset="0.7502" style="stop-color:#DA5DBD"/>
		</linearGradient>
		<path style="fill:url(#SVGID_00000031196791923237376670000000180399595360647559_);" d="M104.6,96.7c-0.7-21.7-1.2-28-4.2-31.7
			c-2.5-3-5.6-5.2-5.6-5.2c-1.2-0.9-2.2-1.4-3.9-2.3c-2.4-1.2-5.7-2.8-9.9-4.7c0-0.3,0-0.6,0-0.9c-0.6-1.4-0.7-3.5-1.9-6.2
			c-1-2.3-1.6-3.7-3.2-5.2c-0.6-0.5-1.3-1-2-1.5c-0.5,0.8-1,1.5-1.6,2.2l0.1,8.9C70.7,51,68,52,66.1,53.1c-1.7,1-3.3,1.9-4.9,2.9
			c-1.1-1.3-0.8-2.5-2.2-3.5c-1.6-1.2-3.4-2.2-5.2-2.9c0-0.3,0-0.9,0.1-1.7c0.1-2.2,0.2-2.9,0.2-4.2c0-0.8,0-1.7-0.2-2.5l-0.1-0.2
			c-0.3-0.5-0.6-1-0.9-1.5c-0.8-0.2-1.6-0.3-2.4-0.2c-0.6-0.1-1.1,0-1.7,0.2c-0.3,0.1-0.8,0.4-1.5,1.8c-0.9,1.6-0.5,2-1.3,3.1
			c-0.5,0.6-1,1.2-1.6,1.8c-0.6,0.7-1.2,1.3-1.5,1.8c-1,1.3-1.6,2.8-1.5,4.4c-2.5,0.9-6.1,1.6-7.8,2.2c-3.8,1.4-5.1,2-6.4,2.9
			c0,0-1.6,1.2-3.1,2.6c-5.6,5.4-5.7,23.3-5.7,23.3c-0.2,29-0.7,34.7,4.4,39c2.1,1.7,4.2,2.5,5.7,2.9c-0.3,4.2-0.5,7.6-0.7,11
			c-0.1,2.3-0.3,4.6,1,7c0.7,1.3,1.6,2.1,2.2,2.6c-0.6,2.3-1,4.3-1.2,5.7c-0.7,4-0.4,5.1,0.1,5.8c0.8,1,2.1,1.3,2.8,1.4
			c9.8,1.7,48.3-0.5,53.9,0.5c1.7,0.3,2.9-0.1,5.3-0.2c0.4,0,1.6-0.1,2.2-0.9c0.5-0.7,0.5-1.7,0.4-2.6c-0.2-2.2-0.4-4.2-0.6-5.9
			c0.3-0.6,0.8-1.6,1.2-2.8c0.9-2.7,0.9-5.2,1-10c0-3.8,0.1-5.8,0.1-6c0-2.8-0.1-6.2-0.3-10.2c1.1-0.4,2.7-1.2,4.1-2.9
			c1.3-1.5,1.8-3.1,2-4C104.8,104,104.6,96.7,104.6,96.7z"/>
		<path class="st3" d="M98.8,104.7c0.5,0,0.9-2.4,0.9-4.2c0-2.4-0.5-4.2-0.7-5c-1.4-5-2.1-7.5-2.5-9.3c-1.2-5.4-0.9-9.7-1.3-9.7
			c-0.4,0-0.1,4.7-1.7,5.2c-1.6,0.5-4-3.8-4.3-3.6c-0.4,0.3,3.1,5.8,5.5,12c1.8,4.7,2.5,8.8,2.9,11.6
			C98.2,104.1,98.6,104.7,98.8,104.7z"/>
		<path class="st3" d="M37.7,97.6c-0.2-2.5-0.1-6,1.4-10.3c-0.5,0.8-1.9,3.2-3.1,3c-0.5-0.1-0.7-0.6-1.3-1.8c-1.4-2.7-2.1-4.1-2.4-4
			c-0.6,0.1,0.4,5.8,0.9,12.4c0.3,4,0.3,7.2,0.2,9.4c0.5,0,1.5,0,2.6,0.1c1.9,0.1,2.1,0.3,2.4,0.1C39.7,105.6,38.1,101.6,37.7,97.6z
			"/>
		<path class="st3" d="M57.4,53.7c0.6,0.3,1.3,0.6,2,0.6c-0.6-0.6,0.3-1.1-0.3-1.6c-1.6-1.2-3.4-2.2-5.2-2.9c0-0.3,0-0.9,0.1-1.7
			c0-0.1,0-0.2,0-0.2c0-1,0.1-1.8,0.2-2.4c0-0.1,0-0.2,0-0.3v-0.1c0-0.1,0-0.3,0-0.4v-0.1c0-0.1,0-0.3,0-0.4c0-0.2,0-0.3,0-0.4
			c0-0.8,0-1.7-0.2-2.5l-0.1-0.2c-0.3-0.5-0.6-1-0.9-1.5c-0.5-0.1-0.9-0.1-1.4-0.2c-0.1,1.4-0.3,8.2,0.1,8.8
			C52,48.9,56.7,53.2,57.4,53.7z"/>
		<path class="st3" d="M75.1,51.2c1.1-0.2-0.6-1.5-1.1-2.9c-0.4-1.2,0.2-7,0.4-8.7l-0.2-0.1l-1.6,1.7l-0.3,0.4l0.1,8.9
			c-1.6,0.7-3.9,1.6-5.5,2.5C69.1,52.3,74.1,51.3,75.1,51.2z"/>
		<path class="st3" d="M62.2,60.5c0,0,14.8-2.7,16.2-3.1c1.2-0.3,3.7-2.7,4.7-3.4l-2.3-1c0-0.3,0-0.6,0-0.9
			c-0.2-0.3,0.5-0.7,0.3-1.2c-0.6-1.3-1.3-3-2.2-5c-0.3-0.6-0.5-1.2-0.7-1.7c1,2.4,1.9,4.3,2.4,5.6c0,0.3,0,0.5,0,0.8
			c-0.1,1-1,2.1-1,2.2s-1.3,2.8-2.4,3.3c-1.1,0.5-13.1,2.6-15,3.6C60.3,60.7,62.2,60.5,62.2,60.5z"/>
		<path class="st3" d="M55,58.5c1,0.5,0.7,2.4,0.7,2.4c0.1-0.4,0.3-0.9,0.4-1.3c0.1-0.7,5.2-3.2,5.2-3.2L53,57.5
			C53.6,57.8,54.3,58.1,55,58.5z"/>
		<path class="st3" d="M40.3,54.1c0,0,5.3,1.3,5.6,1.5c0.2,0.3,5.9,0.7,5.9,0.7s-3.8-1.2-3.9-1.3c-0.1-0.1-2.5-1.4-3.4-2
			c-1-0.8-1.7-1.9-2-3c0-0.6,0.1-1.2,0.3-1.7c-0.9,1.2-1.4,2.6-1.3,4.1c-1.2,0.4-3.9,0.8-4.9,1.2L40.3,54.1z"/>
		<path class="st4" d="M67.8,57.1c0.5,0.6,0.9,1.3,1.2,1.9c3.5,6.5,1.9,12.3,1.6,19c-0.2,5,0.4,10.1,1.8,15.2"/>
		<path class="st4" d="M53,55.3c-1.4,0.7-2.5,1.9-3,3.3c-1.3,3.6,2.2,6.6,2.7,12.2c0.3,2.7-0.1,5.4-1.1,7.9"/>
		<path class="st5" d="M29.1,79.5c0.9,3.4,1.9,6.9,2.8,10.3c0.3,3.5,0.6,7.1,1,10.7"/>
		<path class="st5" d="M72.5,50.4c-7.4,4.4-11.1,6-12.4,6.5c-1.2,0.5-2.1,1.2-3.1,1.8c-0.4,0.2-0.7,0.5-0.9,0.8
			c-0.3,0.4-0.4,0.9-0.4,1.3"/>
		<path class="st6" d="M54.2,9.2c-1.6,1.9-2.8,4.2-3.5,6.6c-0.5,1.9-0.7,3.9-0.7,5.8c0,6.2,0,9.3,1.1,12.2c0.4,1,4.1,10.9,11.6,10.9
			c5.1,0,10.2-4.6,11.7-11.3c1-3.1,1.7-6.3,2.1-9.5c0.8-6.9,1.2-10.8-1.3-14c-3.1-4-8.6-4.3-10-4.4C61.2,5.5,57.3,6.7,54.2,9.2z"/>
		<path class="st7" d="M54.2,40.1c-0.1,1.4-0.2,2.7-0.3,4.1c0.3,0.4,3.8,5.8,8.9,5.6c5.5-0.2,9-6.6,9.9-10.6
			c0.2-0.7,0.3-1.3,0.3-1.8L54.2,40.1z"/>
		<path class="st8" d="M49.6,19.5c2.1-7.7,4.4-9.7,6.3-10c2.7-0.4,4,2.7,8.3,3c4.8,0.4,6.8-3.2,9.1-1.8c0,0,2.9,1.7,2.7,9.5
			c0,0.5,0,1,0,1.6c0.1,0.7,0.1,1.4,0.1,2c-0.1,1.8-0.2,5.3-2.4,8.5c-1.1,1.7-1.7,2.6-2.8,2.9c-2,0.5-3.2-1.6-7.3-2.3
			c-0.8-0.1-1.6-0.1-2.4-0.1c-4,0.1-5.4,2-7.1,1.5c-1-0.3-2.2-1.5-3-5.2l-0.6-11.3l-1.1,0.6c0.3,1.6,0.6,3.3,0.7,4.9
			c0.6,7.2-0.3,10,1.4,15.2c0.5,1.5,0.9,2.7,1.9,4c1.7,2.3,5.1,4.9,9.6,4.8c5.7-0.1,8.9-4.6,9.5-5.5c0.5-0.7,0.7-1.2,1.1-2.1
			c2.1-4.7,2.5-7.6,2.9-13.3c0.2-3.4,0.3-5.2,1.6-6c0.7-0.3,1.5-0.4,2.2-0.1c0.3-1.4,0.4-2.9,0.4-4.4c0-1.2-0.1-4.8-1.8-7.7
			C75.5,2.4,67.4,1.8,65,1.6c-3.1-0.2-6.1,0.2-9,1.3c-3,1-4.1,2.1-4.6,2.7c-0.9,0.9-1.5,2.1-2.1,4.5c-0.8,3.2-1.2,6.5-1,9.7
			L49.6,19.5z"/>
		
			<linearGradient id="SVGID_00000180358581565227174020000008270225181110937012_" gradientUnits="userSpaceOnUse" x1="57.302" y1="95.8949" x2="77.7337" y2="31.211" gradientTransform="matrix(1 0 0 -1 0 94)">
			<stop  offset="5.770000e-02" style="stop-color:#9938E5"/>
			<stop  offset="0.8889" style="stop-color:#21136E"/>
		</linearGradient>
		<path style="opacity:0.7;fill:url(#SVGID_00000180358581565227174020000008270225181110937012_);enable-background:new    ;" d="
			M49.6,19.5c2.1-7.7,4.4-9.7,6.3-10c2.7-0.4,4,2.7,8.3,3c4.8,0.4,6.8-3.2,9.1-1.8c0,0,2.9,1.7,2.7,9.5c0,0.5,0,1,0,1.6
			c0.1,0.7,0.1,1.4,0.1,2c-0.1,1.8-0.2,5.3-2.4,8.5c-1.1,1.7-1.7,2.6-2.8,2.9c-2,0.5-3.2-1.6-7.3-2.3c-0.8-0.1-1.6-0.1-2.4-0.1
			c-4,0.1-5.4,2-7.1,1.5c-1-0.3-2.2-1.5-3-5.2l-0.6-11.3l-1.1,0.6c0.3,1.6,0.6,3.3,0.7,4.9c0.6,7.2-0.3,10,1.4,15.2
			c0.5,1.5,0.9,2.7,1.9,4c0.4,0.5,3.8,5,9.6,4.8c5.3-0.2,8.4-4.2,9.2-5.2c0.7-0.9,1.1-1.6,1.5-2.5c2.2-4.5,2.5-7.4,2.9-13.3
			c0.2-3.4,0.3-5.2,1.6-6c0.7-0.3,1.5-0.4,2.2-0.1c0.3-1.4,0.4-2.9,0.4-4.4c0-1.2-0.1-4.8-1.8-7.7C75.5,2.4,67.4,1.8,65,1.6
			c-3.1-0.2-6.1,0.2-9,1.3c-3,1-4.1,2.1-4.6,2.7c-0.9,0.9-1.5,2.1-2.1,4.5c-0.8,3.2-1.2,6.5-1,9.7L49.6,19.5z"/>
		<path class="st10" d="M72.3,8.5c-2.3-1.3-4.3,2.2-9.1,1.8c-4.4-0.3-5.6-3.5-8.4-3c-1.8,0.3-4,2.1-5.9,8.6l0.4-0.2l0.2,4.1
			c0.2,1.4,0.4,2.6,0.5,3.5c0.2,1.9,0.2,3.4,0.2,4.9c0.3,1.1,0.8,2.2,1.5,3.2c-0.3-0.8-0.5-1.5-0.6-2.3l-0.6-11.3L50,18
			c1.9-6.5,4.1-8.3,5.9-8.6c2.7-0.4,4,2.7,8.3,3c4.8,0.4,6.8-3.2,9.1-1.8c0.3,0.2,0.5,0.4,0.7,0.7C73.3,9.2,72.3,8.5,72.3,8.5z"/>
		<path class="st11" d="M78.1,20.2c0.7-0.3,1.5-0.4,2.2-0.1c0.3-1.4,0.4-2.9,0.3-4.4c0-0.7-0.1-2-0.4-3.6c-0.3-1.3-0.7-2.6-1.4-3.9
			c-0.1-0.2-0.3-0.5-0.4-0.7c0.7,2,1.1,4,1.1,6.1c0,1.5-0.1,3-0.4,4.4c-0.7-0.3-1.6-0.2-2.2,0.1c-0.3,0.2-0.5,0.4-0.7,0.7
			c0,0.2,0,0.3,0,0.5c0,0,0,0.1,0,0.1c0,0.2,0,0.4,0,0.6c0,0.5,0,1,0,1.6c0.1,0.7,0.1,1.4,0.1,2c0,0.9-0.1,1.8-0.2,2.7
			c0,0,0,0,0,0.1c0,0,0,0,0,0c-0.2,1.4-0.6,3-1.4,4.5c-0.3,1.6-0.9,3.9-2.1,6.5c-0.2,0.4-0.5,1-0.8,1.4c-1.4,2.3-4.7,5.4-9.3,5.6
			c-5.8,0.2-9.4-4.3-10.2-5.3c-0.4-0.5-0.6-0.9-0.8-1.2c0,0,0,0.1,0,0.1c0,0.1,0.1,0.2,0.1,0.3c0.5,1.5,0.9,2.7,1.9,4
			c0.4,0.5,3.8,5,9.6,4.8c5.3-0.2,8.4-4.2,9.2-5.2c0.7-0.9,1.1-1.6,1.5-2.5c2.2-4.5,2.5-7.4,2.9-13.3c0.2-3.4,0.3-5.2,1.5-6
			c0,0,0,0,0,0C78.1,20.3,78.1,20.3,78.1,20.2z"/>
		<path class="st12" d="M51.2,7.5c0.3-0.7,0.9-1.3,1.5-1.7C60.5,1,70.3,1.7,77.3,7.4C78,8,78.6,8.8,78.7,9.8
			c0.9,4.1,0.8,8.4-0.4,12.4l-1.7,1.5c0.6-3,0.7-6.1,0.2-9.1c-0.1-0.9-0.3-1.7-0.5-2.5c-0.3-1.3-1.2-2.3-2.4-2.8
			c-6.3-2.7-13.4-3.1-20-1.2c-1.1,1.4-2,3-2.8,4.6c-1.3,3.2-1.9,6.6-1.7,10.1l-1.4-2.6C48.2,15.8,49.3,11.5,51.2,7.5z"/>
		
			<linearGradient id="SVGID_00000115488315963803102670000008512704233086392494_" gradientUnits="userSpaceOnUse" x1="39.6474" y1="93.8545" x2="107.8993" y2="47.2866" gradientTransform="matrix(1 0 0 -1 0 94)">
			<stop  offset="7.000000e-02" style="stop-color:#9962FB"/>
			<stop  offset="0.27" style="stop-color:#A161F3"/>
			<stop  offset="0.58" style="stop-color:#B860DE"/>
			<stop  offset="0.95" style="stop-color:#DA5DBD"/>
		</linearGradient>
		<path style="fill:url(#SVGID_00000115488315963803102670000008512704233086392494_);" d="M79.5,21.4l1.3,0.1
			c1.6,0.1,2.8,1.5,2.6,3.2l-0.6,6.1c-0.1,1.6-1.6,2.8-3.2,2.6l-1.3-0.1c-1.6-0.1-2.8-1.5-2.6-3.2l0.6-6.1
			C76.5,22.4,77.9,21.2,79.5,21.4z"/>
		<path class="st14" d="M78.8,19.5c1.2,0.1,2,1.1,1.9,2.3L79.6,33c-0.1,1.2-1.1,2-2.3,1.9c-1.2-0.1-2-1.1-1.9-2.3l1.1-11.2
			C76.7,20.3,77.6,19.5,78.8,19.5z"/>
		<path class="st15" d="M83.2,23.1l-0.5,5.7c-0.3,0.3-0.8,0.5-1.3,0.5c-0.5,0-1-0.3-1.3-0.8c0,0.2,0.1,3-1.6,4
			c-0.4,0.3-0.9,0.4-1.4,0.4c-0.6-0.1-1.3-0.4-1.6-1l0,0.8c-0.1,1.2,0.8,2.1,1.9,2.2c1,0.1,1.9-0.5,2.2-1.5l0.2,0
			c1.6,0.1,3-1,3.2-2.6l0.6-6.1C83.5,24.1,83.4,23.6,83.2,23.1z"/>
		
			<linearGradient id="SVGID_00000086668614739679060320000010533077574791164320_" gradientUnits="userSpaceOnUse" x1="29.6674" y1="79.3061" x2="97.9138" y2="32.7386" gradientTransform="matrix(1 0 0 -1 0 94)">
			<stop  offset="7.000000e-02" style="stop-color:#9962FB"/>
			<stop  offset="0.27" style="stop-color:#A161F3"/>
			<stop  offset="0.58" style="stop-color:#B860DE"/>
			<stop  offset="0.95" style="stop-color:#DA5DBD"/>
		</linearGradient>
		<path style="fill:url(#SVGID_00000086668614739679060320000010533077574791164320_);" d="M47.2,32.2l-1.3,0
			c-1.6,0-2.9-1.3-2.9-2.9l0-6.2c0-1.6,1.3-2.9,2.9-2.9l1.3,0c1.6,0,2.9,1.3,2.9,2.9l0,6.2C50.1,30.8,48.8,32.2,47.2,32.2z"/>
		<path class="st14" d="M48.1,33.9c-1.2,0-2-0.9-2.1-2l0-11.3c0-1.2,0.9-2,2-2.1c1.2,0,2,0.9,2.1,2l0,11.3
			C50.2,32.9,49.2,33.9,48.1,33.9z"/>
		<path class="st15" d="M50.2,20.5c0-0.7-0.3-1.3-0.9-1.7c0,2.7-0.1,5.4-0.1,8c-0.2,0.6-0.7,1-1.2,1.2c-0.6,0.2-1.4,0.1-2-0.3
			c0,1-0.7,1.8-1.7,1.8c-0.1,0-0.1,0-0.1,0c-0.6-0.1-1.1-0.7-1.2-1.3v1.1c0,1.6,1.3,2.9,2.9,2.9l0.2,0c0.2,1.1,1.3,1.9,2.4,1.6
			c1-0.2,1.7-1,1.7-2L50.2,20.5z"/>
		<path class="st17" d="M77.4,7.4c-7-5.7-16.9-6.4-24.5-1.6c-0.2,0.2-0.5,0.4-0.7,0.6L54,8.2l0.1-0.1c6.6-1.9,13.6-1.5,20,1.2
			c0.5,0.2,1,0.5,1.3,0.9l2.7-2.1C77.9,7.9,77.6,7.6,77.4,7.4z"/>
		<path class="st18" d="M62.5,30c-0.7,0-1.3-0.1-1.6-0.1c0,0-0.4-0.1-0.6-0.3c-0.1-0.1-0.1-0.1,0-0.2c0.2-1.3,1.9-8,1.9-8.1
			c0-0.1,0-0.3-0.2-0.4c-0.1-0.1-0.3,0-0.4,0c-0.1,0.1-0.1,0.1-0.1,0.2c-0.1,0.3-1.8,6.8-2,8.2c0,0.2,0,0.5,0.1,0.6
			c0.2,0.3,0.7,0.5,1.1,0.6c0.2,0.1,0.5,0.1,0.7,0.1c0.3,0,0.6,0,0.9-0.1c0.1,0,0.2-0.2,0.2-0.3C62.7,30.1,62.6,30,62.5,30z"/>
		<path class="st3" d="M71,69.3c0.2,0,1.3,4.3,2.7,7c0.1,0.3,0.4,0.8,0.9,1c0.9,0.5,2,0,3.1-0.4c2.3-0.9,5-1.6,5.1-1.3
			c0.1,0.3-2.5,2.4-6.2,3.3c-1.9,0.4-2.4,0.2-3.3,0.7C71.1,81,71,84.7,71,86.7c0.2,8.8,6.6,25.6,6.6,25.6l2.2,4.1l-3.1-1.4
			c-4-12.9-6.7-22.7-7.7-26.7c-0.4-1.4-1-3.8-0.3-6.5c0.5-1.9,1.1-2.2,1.7-4.2C71.9,73.3,70.8,69.3,71,69.3z"/>
		<path class="st19" d="M74.4,68.2c0,0,7.6-2.1,8.8-1.8c1.1,0.3,2.3,5.9,2.8,6.6c0.4,0.7,2.1,0.5,2.3,1.5c0.2,1,8.7,20.4,9.9,24.5
			c1.2,4.1,1.4,12.4,0.7,9.5c-0.7-3-10.8-25.2-12-28.8c-1.2-3.6-2.2-4.2-3.4-4.8c-1.1-0.6-1.5-5.8-1.5-5.8L74.4,68.2z"/>
		<path class="st6" d="M60,48.9c-0.2-0.3-0.8-1.2-0.5-1.9c0.2-0.5,0.8-0.7,1-0.8c3-1.2,6.4-2,6.5-2.1c2.4-0.6,2.5-0.8,3.3-0.7
			c1.4,0.2,2.4,1,3.7,2c1,0.8,2.1,1.9,2.7,2.4c0.2,0.2,0.4,0.4,0.6,0.6c1.5,6.1,3.1,12.1,4.6,18.2c-2.7,0.8-5.5,1.5-8.3,2.3
			c-0.4,0-1.1-0.1-1.8-0.5c-0.9-0.5-1.4-1.2-1.9-2.3c-1.3-2.6-1.7-5.8-1.8-7.1c-0.5-0.4-1.1-0.8-1.6-1.1c0.5,2.4,0.2,4.4-0.8,4.8
			c-0.5,0.2-1.2,0.2-1.7-0.2c-0.2-0.2-0.3-0.5-0.4-1.5c-0.1-0.5-0.1-1.2-0.2-2.1c-0.3,0-0.5,0-0.7,0c-1-0.3-1.6-1.7-1.6-3.5
			c-0.4-0.7-0.6-1.2-0.8-1.6c-0.6-1.6-1.3-3.1-0.6-4.3C59.8,49.2,59.9,49,60,48.9z"/>
		<path class="st20" d="M75.2,68.4c-1.4-0.5-2.1-1.2-2.6-1.7c-1.4-1.6-1.9-4.2-2.7-7.7c-0.1-0.6-0.3-1.4-1-2.1c-0.8-0.8-1.9-1-2.6-1
			c0.1,0.7,0.3,1.4,0.4,2c0.5,0.3,1,0.7,1.4,1c0.1,1.3,0.5,4.5,1.8,7.1c0.5,1,1.1,1.8,1.9,2.3c0.2,0.1,0.4,0.2,0.7,0.3l2.5-0.2
			C75,68.4,75.1,68.4,75.2,68.4z"/>
		<path class="st20" d="M65.4,51c-1-0.1-2-0.1-2.6,0.6c-0.4,0.4-0.4,0.9-0.4,1.2c-0.1,1.3-0.2,3.3-0.3,5.7c0.2,0.2,0.4,0.4,0.7,0.5
			c0.2,0,0.4,0.1,0.6,0c-0.1-1-0.1-2.2-0.1-3.8c0-2.7,0.2-3.2,0.6-3.5c0.4-0.2,0.6-0.1,3.7,0.1c0.8,0.1,1,0.1,1,0
			C68.5,51.6,67,51.1,65.4,51z"/>
		<path class="st20" d="M61.3,50.6c0.5-0.9,2.3-1.1,5.7-1.4c1.1-0.1,2.1-0.2,2.8-0.2c-2.7-0.4-4.8-0.3-6.3-0.1
			c-1.4,0.2-2.3,0.4-2.8,1.2c-0.4,0.5-0.4,1.2-0.4,2.5c0,0.5,0,0.9,0.1,1.4c0.2,0.4,0.4,0.9,0.8,1.6C61.5,52.2,60.8,51.5,61.3,50.6z
			"/>
		<path class="st20" d="M70.1,46.1c-0.3-0.2-0.7-0.4-0.9-0.5c-2.2,0.4-3.8,0.9-4.9,1.2c-2,0.5-4.1,1-4.8,1.1
			c0.1,0.3,0.2,0.5,0.3,0.7c1.1-0.3,8.5-2.5,9.4-2.3c1,0.2,1.6,0.3,1.6,0.3C70.7,46.5,70.4,46.3,70.1,46.1z"/>
	</g>
</g>
</svg>
