<svg width="125" height="93" viewBox="0 0 125 93" fill="none"
    xmlns="http://www.w3.org/2000/svg">
    <g clip-path="url(#clip0_7127_125999)">
        <path d="M72.9933 35.0547C72.9228 35.2269 73.6743 52.3236 73.6743 52.3236C73.6743 52.3236 59.9437 56.4021 59.9594 56.2299C59.9672 56.0577 52.9297 52.762 52.9297 52.762C52.9297 52.762 53.462 44.1197 53.4072 44.0023C53.3524 43.8849 57.5874 35.6731 57.5874 35.6731L72.9933 35.0547Z" fill="#D8ADB6"/>
        <path d="M104.816 96.302C104.166 74.6023 103.594 68.3085 100.604 64.6292C98.1304 61.5841 95.0304 59.4078 95.0304 59.4C93.8171 58.5467 92.7837 57.9518 91.1085 57.0985C88.7131 55.8852 85.3783 54.2491 81.2294 52.3781C81.2294 52.1042 81.2372 51.7675 81.2372 51.4936C80.6657 50.1158 80.5248 48.0022 79.3271 45.2702C78.3016 42.9452 77.6832 41.5361 76.1332 40.0957C75.5618 39.5556 74.8729 39.0546 74.1762 38.6162C73.6987 39.3755 73.1585 40.1349 72.6184 40.8316L72.681 49.74C70.8883 50.6246 68.2424 51.6188 66.3089 52.6678C64.6102 53.6306 62.9662 54.6092 61.4319 55.5955C60.3281 54.3117 60.6726 53.1375 59.2635 52.1041C57.6822 50.8986 55.9131 49.9514 54.0734 49.1686C54.0891 48.832 54.1126 48.2214 54.1439 47.5012C54.2378 45.2858 54.3866 44.5813 54.3866 43.2583C54.3631 42.4285 54.3396 41.5518 54.1987 40.7142L54.0891 40.5419C53.8151 40.0253 53.5333 39.5556 53.1967 39.0389C52.4295 38.8589 51.5919 38.7728 50.8169 38.8119C50.222 38.7571 49.6818 38.8119 49.126 39.0311C48.8207 39.1642 48.3276 39.446 47.6543 40.8081C46.7854 42.4364 47.1299 42.7965 46.4018 43.9472C45.9478 44.5734 45.3685 45.184 44.7892 45.7398C44.1395 46.46 43.6228 47.0863 43.2862 47.556C42.2372 48.8085 41.658 50.3898 41.7519 51.9867C39.3017 52.8478 35.6538 53.568 33.9394 54.2178C30.1114 55.6581 28.8824 56.2452 27.5046 57.1611C27.5046 57.1611 25.8685 58.3902 24.4203 59.7992C18.8388 65.2242 18.6901 83.135 18.6901 83.135C18.4474 112.146 17.9621 117.884 23.1287 122.135C25.1875 123.834 27.3481 124.632 28.7884 125.039C28.5379 129.235 28.3344 132.633 28.1074 136.077C27.9587 138.355 27.8021 140.68 29.1094 143.083C29.8061 144.367 30.6907 145.228 31.2778 145.729C30.6594 148.031 30.2836 149.98 30.0488 151.397C29.3834 155.42 29.6495 156.461 30.1975 157.182C30.9803 158.223 32.272 158.489 32.9687 158.606C42.8087 160.321 81.3155 158.074 86.897 159.06C88.5644 159.35 89.7621 158.974 92.2279 158.849C92.6272 158.826 93.7936 158.779 94.4433 157.902C94.9913 157.174 94.9208 156.219 94.8347 155.256C94.6469 153.041 94.4355 151.068 94.2398 149.361C94.5529 148.766 95.0304 147.788 95.4532 146.512C96.3299 143.85 96.3847 141.361 96.4473 136.539C96.4943 132.703 96.5178 130.785 96.5178 130.495C96.5021 127.724 96.4395 124.272 96.2516 120.288C97.3084 119.873 98.9915 119.043 100.385 117.383C101.669 115.849 102.138 114.275 102.373 113.407C105.027 103.567 104.816 96.302 104.816 96.302Z" fill="url(#paint0_linear_7127_125999)"/>
        <g opacity="0.41">
            <path opacity="0.41" d="M70.711 87.0726C70.6719 89.2254 69.8343 91.2685 68.3156 92.7872C66.9848 94.1493 65.1608 94.9869 63.2116 95.2687C62.7106 95.3548 62.2096 95.3783 61.646 95.3392C61.2076 95.3079 60.8318 95.2765 60.3935 95.2452C56.268 94.6346 52.988 91.4486 52.3226 87.4484C52.1661 86.7125 52.1974 85.9297 52.2287 85.1469C52.4322 83.1194 53.3794 81.2876 54.859 79.9177C55.6339 79.1505 56.6359 78.579 57.638 78.1876C58.5147 77.8432 59.3758 77.6788 60.2995 77.6397C60.9806 77.577 61.6538 77.6318 62.2644 77.7414C63.423 77.898 64.5189 78.2816 65.5444 78.8295C67.9633 80.1447 69.7481 82.3522 70.3744 84.9512C70.4918 85.4365 70.5388 85.9141 70.5936 86.3994C70.7188 86.6577 70.711 86.8926 70.711 87.0726ZM66.3429 86.7908C66.3507 86.4933 66.2959 86.188 66.3037 85.8906C65.9358 83.3621 63.5169 81.4442 60.9258 81.6555C59.4384 81.7729 58.1781 82.5088 57.3953 83.6987C56.8003 84.6694 56.5733 85.8514 56.7847 87.01C56.9334 88.0511 57.4657 89.0532 58.2486 89.7812C60.1899 91.6286 63.2429 91.6756 65.0904 89.8829C65.2783 89.6559 65.474 89.4289 65.6618 89.2019C66.0532 88.513 66.3194 87.691 66.3429 86.7908Z" fill="white"/>
        </g>
        <path opacity="0.41" d="M99.0202 104.279C99.5526 104.248 99.8813 101.868 99.9127 100.083C99.9518 97.6645 99.4351 95.8405 99.216 95.0499C97.8225 90.0633 97.118 87.5583 96.7188 85.7187C95.5367 80.3564 95.8498 76.0039 95.4662 76.0039C95.0514 76.0039 95.3175 80.7321 93.7362 81.194C92.1314 81.6637 89.7595 77.4208 89.4072 77.6322C89.0002 77.8827 92.5385 83.4485 94.887 89.6562C96.6561 94.314 97.4076 98.416 97.7756 101.297C98.347 103.731 98.7463 104.295 99.0202 104.279Z" fill="#412168"/>
        <path opacity="0.41" d="M37.9441 97.1627C37.7015 94.6812 37.8189 91.2055 39.3845 86.8687C38.907 87.7141 37.4823 90.1095 36.3081 89.8512C35.8227 89.7495 35.5957 89.2406 34.9616 88.0273C33.5291 85.2952 32.8167 83.9331 32.5584 83.9879C31.9947 84.1132 32.9967 89.8199 33.4273 96.3956C33.6856 100.372 33.6778 103.644 33.623 105.821C34.171 105.821 35.0869 105.836 36.2219 105.915C38.1007 106.04 38.3277 106.189 38.6252 106.009C39.909 105.257 38.3356 101.186 37.9441 97.1627Z" fill="#412168"/>
        <path opacity="0.41" d="M57.5705 53.3097C58.1576 53.6463 58.8778 53.8812 59.5353 53.9359C58.956 53.3801 59.8719 52.8713 59.23 52.3625C57.6487 51.1491 55.8796 50.2097 54.04 49.4191C54.0556 49.0825 54.0791 48.4719 54.1104 47.7517C54.1104 47.6969 54.1182 47.5873 54.1182 47.5325C54.1652 46.4835 54.2513 45.7712 54.2826 45.1606C54.2905 45.051 54.2905 44.9414 54.2983 44.8318V44.777C54.3061 44.6674 54.3139 44.503 54.3139 44.3934V44.3386C54.3218 44.229 54.3296 44.0646 54.3296 43.955C54.3374 43.7906 54.3452 43.681 54.3452 43.5167C54.3218 42.6869 54.2983 41.8101 54.1574 40.9725L54.0478 40.8003C53.7738 40.2836 53.492 39.8139 53.1554 39.2894C52.6857 39.1877 52.2082 39.1407 51.7933 39.1016C51.7306 40.4637 51.5349 47.2977 51.8716 47.8848C52.2082 48.4719 56.9286 52.8009 57.5705 53.3097Z" fill="#412168"/>
        <path opacity="0.41" d="M75.282 50.8047C76.3466 50.6246 74.6714 49.3487 74.2251 47.877C73.8337 46.6323 74.46 40.8786 74.6635 39.2268L74.4365 39.0938L72.8865 40.7768L72.5891 41.1839L72.6517 50.1002C71.1017 50.8438 68.7533 51.6971 67.125 52.6052C69.2856 51.8615 74.2799 50.9378 75.282 50.8047Z" fill="#412168"/>
        <path opacity="0.41" d="M62.4195 60.1441C62.4195 60.1441 77.207 57.4433 78.6317 57.005C79.8764 56.6683 82.3657 54.2807 83.3677 53.6467L81.0897 52.6055C81.0897 52.3315 81.0976 51.9949 81.0976 51.7209C80.9253 51.3765 81.5907 50.9773 81.3637 50.5154C80.7923 49.2003 80.1034 47.4937 79.1875 45.4975C78.9057 44.8713 78.6787 44.3077 78.4516 43.7988C79.4771 46.2334 80.3304 48.12 80.8471 49.3725C80.8471 49.6465 80.8392 49.8657 80.8392 50.1396C80.7688 51.1808 79.8607 52.2141 79.8607 52.3237C79.8607 52.4333 78.5925 55.1497 77.4653 55.6037C76.338 56.0577 64.3453 58.1948 62.4509 59.2203C60.5408 60.2615 62.4195 60.1441 62.4195 60.1441Z" fill="#412168"/>
        <path opacity="0.41" d="M55.1524 58.0766C56.1074 58.6168 55.8491 60.4799 55.8491 60.4799C55.99 60.0337 56.1231 59.5875 56.2014 59.1412C56.3501 58.4132 61.3993 55.9082 61.3993 55.9082L53.1797 57.1059C53.8373 57.3877 54.4948 57.6774 55.1524 58.0766Z" fill="#412168"/>
        <path opacity="0.41" d="M40.4994 53.7556C40.4994 53.7556 45.8304 55.0316 46.0652 55.2821C46.3001 55.5326 52.0147 55.9866 52.0147 55.9866C52.0147 55.9866 48.2258 54.7968 48.1084 54.7263C47.991 54.6559 45.5877 53.2781 44.7579 52.7536C43.7559 51.9864 43.0201 50.8983 42.7226 49.7398C42.7539 49.1213 42.8479 48.5655 43.0671 48.0254C42.1433 49.2309 41.6893 50.6635 41.7911 52.143C40.6012 52.5501 37.9005 52.9571 36.8906 53.3251L40.4994 53.7556Z" fill="#412168"/>
        <path opacity="0.41" d="M67.9844 56.7227C68.4462 57.3254 68.8533 57.983 69.1977 58.6406C72.6735 65.091 71.053 70.9543 70.8025 77.6787C70.646 82.6574 71.2252 87.8162 72.556 92.8418" stroke="#C2BFC7" stroke-width="2" stroke-linecap="round" stroke-linejoin="round"/>
        <path opacity="0.41" d="M53.1495 54.9453C51.7795 55.6733 50.6914 56.8867 50.1434 58.2645C48.8127 61.8811 52.3119 64.8479 52.8755 70.4999C53.1338 73.1771 52.7815 75.8778 51.7404 78.3594" stroke="#C2BFC7" stroke-width="2" stroke-linecap="round" stroke-linejoin="round"/>
        <path opacity="0.41" d="M29.3438 79.0723C30.2831 82.501 31.2303 85.9454 32.1854 89.4211C32.4985 92.9673 32.8195 96.5369 33.1404 100.13" stroke="#BF9AD8" stroke-width="0.5" stroke-linecap="round" stroke-linejoin="round"/>
        <path opacity="0.41" d="M72.6598 49.9902C65.2935 54.3818 61.5203 55.971 60.2991 56.4876C59.0701 57.0043 58.2011 57.7166 57.1522 58.3116C56.7842 58.5073 56.4711 58.7656 56.2128 59.1414C55.9544 59.5171 55.8135 60.0181 55.8605 60.48" stroke="#BF9AD8" stroke-width="0.5" stroke-linecap="round" stroke-linejoin="round"/>
        <path d="M54.3466 8.76803C52.7262 10.7172 51.5598 12.9248 50.8475 15.328C50.3386 17.2225 50.1116 19.1873 50.1742 21.1679C50.1821 27.3365 50.1899 30.4208 51.2467 33.3955C51.599 34.4053 55.3643 44.3314 62.8715 44.3314C67.9363 44.3158 73.0795 39.7128 74.5512 33.0354C75.5375 29.9432 76.2342 26.7807 76.6413 23.5476C77.4867 16.6667 77.8155 12.7839 75.3731 9.5665C72.2732 5.55848 66.7621 5.25318 65.3687 5.1749C61.3607 5.08096 57.4544 6.31781 54.3466 8.76803Z" fill="#EDC0C8"/>
        <path opacity="0.31" d="M54.36 39.6811C54.2582 41.051 54.1643 42.4288 54.0625 43.7987C54.313 44.198 57.82 49.5603 62.9631 49.3724C68.4507 49.1767 71.9499 42.8124 72.9049 38.773C73.0771 38.0607 73.1554 37.4501 73.1946 37.0195L54.36 39.6811Z" fill="#F480A1"/>
        <path d="M49.8314 19.0618C51.8823 11.3197 54.2621 9.35487 56.1409 9.04957C58.8416 8.61902 60.1254 11.7111 64.47 12.0634C69.2765 12.447 71.2805 8.83038 73.5898 10.2316C73.5898 10.2316 76.5254 11.9616 76.3297 19.7507C76.2984 20.2752 76.3297 20.7997 76.361 21.3241C76.4393 22.0287 76.455 22.7254 76.4236 23.3673C76.3219 25.1678 76.1888 28.6513 74.0361 31.9078C72.8931 33.6535 72.3217 34.4911 71.2022 34.7808C69.1982 35.2505 67.977 33.1525 63.8751 32.5184C63.0688 32.4167 62.2547 32.3697 61.4405 32.3853C57.4716 32.5184 56.0391 34.358 54.3169 33.857C53.2836 33.5674 52.0702 32.3932 51.2796 28.6826L50.6768 17.4179L49.5339 18.052C49.8548 19.6959 50.1132 21.3398 50.2541 22.9837C50.8882 30.2091 49.9879 33.0038 51.6945 38.1391C52.2033 39.6656 52.5947 40.8163 53.5732 42.1393C55.2954 44.4642 58.6772 47.071 63.1392 46.9771C68.8538 46.8518 72.0555 42.3819 72.6818 41.4425C73.1515 40.738 73.3863 40.2135 73.809 39.2976C75.9305 34.6086 76.2827 31.6652 76.6898 26.0132C76.9325 22.6471 76.9794 20.7918 78.2398 20.0482C78.9521 19.735 79.7193 19.6646 80.4552 19.9386C80.7683 18.4982 80.8466 16.9952 80.8152 15.5313C80.7683 14.3101 80.6665 10.7483 79.0226 7.86752C75.6721 2.03553 67.5622 1.36231 65.1902 1.17443C62.1138 0.947413 59.0686 1.36231 56.1565 2.42694C53.1348 3.42894 52.0232 4.53271 51.5301 5.08069C50.6611 6.02007 50.074 7.20995 49.4165 9.62103C48.6023 12.7758 48.2501 16.0793 48.4145 19.3436L49.8314 19.0618Z" fill="#6B63B7"/>
        <path opacity="0.7" d="M49.8314 19.0618C51.8823 11.3197 54.2621 9.35487 56.1409 9.04957C58.8416 8.61902 60.1254 11.7111 64.47 12.0634C69.2765 12.447 71.2805 8.83038 73.5898 10.2316C73.5898 10.2316 76.5254 11.9616 76.3297 19.7507C76.2984 20.2752 76.3297 20.7997 76.361 21.3241C76.4393 22.0287 76.455 22.7254 76.4236 23.3673C76.3219 25.1678 76.1888 28.6513 74.0361 31.9078C72.8931 33.6535 72.3217 34.4911 71.2022 34.7808C69.1982 35.2505 67.977 33.1525 63.8751 32.5184C63.0688 32.4167 62.2547 32.3697 61.4405 32.3853C57.4716 32.5184 56.0391 34.358 54.3169 33.857C53.2836 33.5674 52.0702 32.3932 51.2796 28.6826L50.6768 17.4179L49.5339 18.052C49.8548 19.6959 50.1132 21.3398 50.2541 22.9837C50.8882 30.2091 49.9879 33.0038 51.6945 38.1391C52.2033 39.6656 52.5947 40.8163 53.5732 42.1393C53.9725 42.6716 57.409 47.1493 63.1392 46.9771C68.4859 46.8205 71.578 42.7498 72.3452 41.7478C73.0262 40.8476 73.402 40.1118 73.809 39.2976C76.0322 34.8277 76.2671 31.9078 76.6898 26.0132C76.9325 22.6471 76.9794 20.7918 78.2398 20.0482C78.9521 19.735 79.7193 19.6646 80.4552 19.9386C80.7683 18.4982 80.8466 16.9952 80.8152 15.5313C80.7683 14.3101 80.6665 10.7483 79.0226 7.86752C75.6721 2.03553 67.5622 1.36231 65.1902 1.17443C62.1138 0.947413 59.0686 1.36231 56.1565 2.42694C53.1348 3.42894 52.0232 4.53271 51.5301 5.08069C50.6611 6.02007 50.074 7.20995 49.4165 9.62103C48.6023 12.7758 48.2501 16.0793 48.4145 19.3436L49.8314 19.0618Z" fill="url(#paint1_linear_7127_125999)"/>
        <path opacity="0.3" d="M72.4843 8.1335C70.175 6.78706 68.171 10.341 63.3645 9.96529C59.0121 9.66782 57.7361 6.51307 54.9727 6.94362C53.2114 7.25675 51.0195 8.9946 49.0859 15.5233L49.5087 15.3119L49.7513 19.3982C49.9627 20.8073 50.1271 22.0363 50.2054 22.8583C50.3932 24.7292 50.4246 26.3027 50.4011 27.7587C50.6907 28.8782 51.1526 29.9506 51.8571 30.9213C51.6066 30.1542 51.3561 29.3792 51.223 28.6198L50.6203 17.3551L50.1975 17.5664C52.1233 11.0378 54.3152 9.29207 56.0843 8.98677C58.785 8.55622 60.0689 11.6484 64.4135 12.0006C69.22 12.3842 71.224 8.76758 73.5333 10.1688C73.8151 10.3567 74.0343 10.6072 74.2535 10.8499C73.502 8.77541 72.4843 8.1335 72.4843 8.1335Z" fill="#34197F"/>
        <path opacity="0.22" d="M78.2565 19.7978C78.9688 19.4846 79.736 19.4142 80.4718 19.6882C80.7223 18.3026 80.8632 16.7996 80.7693 15.2809C80.7458 14.6155 80.6989 13.2612 80.4092 11.7034C80.1587 10.4509 79.736 9.08883 79.0236 7.84415C78.8827 7.60148 78.7418 7.37446 78.5853 7.15527C79.3054 9.12014 79.6655 11.1633 79.6577 13.2926C79.6969 14.7486 79.556 16.2516 79.2976 17.6998C78.5539 17.4258 77.7398 17.4963 77.0822 17.8094C76.7848 17.966 76.5343 18.2478 76.3464 18.5218C76.3386 18.6783 76.3386 18.8349 76.3464 18.9915C76.3464 19.015 76.3464 19.0463 76.3464 19.0776C76.3542 19.2498 76.3542 19.4377 76.3464 19.6334C76.3151 20.1579 76.3464 20.6824 76.3777 21.2068C76.456 21.9114 76.4716 22.6081 76.4403 23.25C76.4325 24.1581 76.3542 25.0661 76.2133 25.9585C76.2133 25.982 76.2055 26.0055 76.2055 26.0212C76.2055 26.029 76.2055 26.0447 76.1977 26.0525C75.9941 27.4146 75.6027 29.0037 74.8042 30.6006C74.4989 32.1741 73.904 34.4678 72.6593 37.0667C72.4558 37.4973 72.1975 38.0296 71.9078 38.5149C70.5301 40.8321 67.1953 43.9555 62.5688 44.1512C56.7838 44.3939 53.1985 39.8614 52.4157 38.8672C52.0478 38.4053 51.7816 37.9983 51.6094 37.7165C51.6094 37.7634 51.6172 37.8104 51.6172 37.8574C51.6485 37.9513 51.672 38.0374 51.7033 38.1235C52.2122 39.65 52.6036 40.8008 53.5821 42.1237C53.9813 42.656 57.4179 47.1337 63.1481 46.9615C68.4947 46.805 71.5869 42.7343 72.354 41.7323C73.0351 40.8321 73.4108 40.0962 73.8179 39.2821C76.0411 34.8122 76.2759 31.8923 76.6987 25.9977C76.9413 22.6316 76.9883 20.7763 78.2486 20.0326C78.2565 20.0248 78.2721 20.0248 78.28 20.017C78.2643 19.9465 78.2643 19.8682 78.2565 19.7978Z" fill="#34197F"/>
        <path d="M51.4204 7.10056C51.7491 6.36472 52.3049 5.80892 52.9703 5.37837C60.6811 0.618838 70.5446 1.2764 77.5038 7.01445C78.224 7.63288 78.7642 8.42353 78.9442 9.36291C79.821 13.4884 79.7114 17.7312 78.5528 21.794L76.8384 23.3284C77.4099 20.3302 77.5195 17.2537 77.042 14.2555C76.9167 13.3788 76.7288 12.549 76.541 11.7818C76.2044 10.4823 75.3276 9.44902 74.1299 8.9715C67.8204 6.23947 60.7359 5.84806 54.1132 7.75813C52.986 9.15155 52.0858 10.7328 51.3577 12.322C50.0191 15.508 49.4242 18.9681 49.6982 22.4203L48.2734 19.7822C48.3987 15.4297 49.4555 11.0616 51.4204 7.10056Z" fill="#FFBBE5"/>
        <path d="M79.7001 20.9876L81.0309 21.1207C82.6513 21.2694 83.8021 22.6707 83.6533 24.2911L83.0819 30.4284C82.9331 32.0488 81.5319 33.1996 79.9115 33.0508L78.5807 32.9177C76.9603 32.769 75.8095 31.3678 75.9582 29.7473L76.5297 23.6101C76.6706 21.9818 78.1345 20.8389 79.7001 20.9876Z" fill="url(#paint2_linear_7127_125999)"/>
        <path d="M78.9802 19.1401C80.1388 19.2653 80.9607 20.236 80.8355 21.3946L79.7552 32.628C79.63 33.7866 78.6593 34.6085 77.5007 34.4833C76.3421 34.358 75.5202 33.3873 75.6454 32.2288L76.7257 20.9953C76.851 19.8994 77.8216 19.0774 78.9802 19.1401Z" fill="#FDFDFF"/>
        <path opacity="0.4" d="M83.3867 22.7568L82.8466 28.4323C82.5335 28.761 82.0638 28.9724 81.5393 28.9411C81.0148 28.9098 80.5138 28.5967 80.2398 28.1739C80.2241 28.4088 80.3102 31.1486 78.6272 32.1585C78.2045 32.4246 77.7348 32.5734 77.2651 32.5499C76.631 32.4559 76.0047 32.135 75.6916 31.5322L75.6525 32.2837C75.5272 33.4423 76.4118 34.4208 77.5078 34.4834C78.4941 34.5382 79.4022 33.9433 79.684 33.0274L79.9188 33.0431C81.4845 33.184 82.9405 32.041 83.0893 30.4206L83.6607 24.2833C83.739 23.7119 83.6451 23.2422 83.3867 22.7568Z" fill="#34197F"/>
        <path d="M47.3839 31.7906L46.0453 31.775C44.417 31.7985 43.1488 30.5068 43.1175 28.8786L43.1097 22.71C43.0862 21.0817 44.3779 19.8135 46.0061 19.7822L47.3447 19.7979C48.973 19.7744 50.2412 21.066 50.2725 22.6943L50.2803 28.8629C50.3038 30.4364 49.0121 31.7593 47.3839 31.7906Z" fill="url(#paint3_linear_7127_125999)"/>
        <path d="M48.2777 33.4655C47.1113 33.4576 46.2345 32.5417 46.1797 31.4301L46.1562 20.1341C46.1641 18.9677 47.08 18.0909 48.1916 18.0361C49.358 18.044 50.2347 18.9599 50.2895 20.0715L50.313 31.3675C50.3678 32.5339 49.4441 33.4733 48.2777 33.4655Z" fill="#FDFDFF"/>
        <path opacity="0.4" d="M50.3503 20.1342C50.3268 19.4375 50.0137 18.8347 49.4501 18.459C49.4188 21.1362 49.3874 23.8135 49.3561 26.4829C49.1526 27.0543 48.6594 27.4927 48.1271 27.6962C47.4774 27.8919 46.7259 27.7902 46.1622 27.4144C46.1701 28.4008 45.4264 29.1758 44.4948 29.1836C44.44 29.1836 44.44 29.1836 44.3774 29.1758C43.7433 29.027 43.2502 28.4712 43.1719 27.8293V28.9331C43.2032 30.5065 44.4714 31.7982 46.0996 31.8295L46.3345 31.8452C46.5615 32.9646 47.6261 33.7239 48.7455 33.4891C49.7475 33.309 50.4286 32.4792 50.4286 31.4851L50.3503 20.1342Z" fill="#34197F"/>
        <path d="M77.5584 7.01445C70.5991 1.2764 60.6808 0.618838 53.0249 5.37837C52.7822 5.54276 52.4769 5.75412 52.2969 5.98114L54.2304 7.83641L54.2931 7.78161C60.9157 5.87154 67.9376 6.31775 74.3097 8.99498C74.8263 9.19851 75.2726 9.51164 75.6561 9.94219L78.3334 7.87555C78.0516 7.50763 77.7776 7.25713 77.5584 7.01445Z" fill="#7DD5F4"/>
        <path d="M62.6728 29.5671C61.9448 29.5515 61.3733 29.4888 61.0602 29.4419C61.0602 29.4419 60.6844 29.3792 60.4809 29.16C60.4261 29.0974 60.4261 29.0426 60.4339 28.98C60.6218 27.6492 62.3284 20.9326 62.3362 20.8778C62.344 20.7604 62.297 20.5882 62.1796 20.5177C62.0544 20.4551 61.9135 20.4708 61.8273 20.5412C61.7647 20.596 61.7491 20.6665 61.7491 20.6978C61.6786 20.9874 59.9799 27.4692 59.7842 28.9174C59.7685 29.1522 59.8155 29.3871 59.9251 29.5671C60.1599 29.8724 60.614 30.0368 61.068 30.1229C61.3029 30.1777 61.5455 30.209 61.7647 30.2169C62.0544 30.2325 62.4066 30.1934 62.7041 30.0916C62.8215 30.0525 62.9076 29.935 62.892 29.8098C62.8842 29.6924 62.798 29.5906 62.6728 29.5671Z" fill="#5E4A4A"/>
        <path opacity="0.41" d="M71.243 68.9034C71.4622 68.8799 72.5582 73.1854 73.8968 75.9409C74.022 76.1993 74.2725 76.7081 74.8205 76.9899C75.7286 77.4674 76.801 76.9743 77.8735 76.5515C80.175 75.6591 82.86 74.9937 82.9696 75.2286C83.0949 75.4869 80.4255 77.624 76.7541 78.4929C74.8596 78.9391 74.3743 78.6573 73.4897 79.2053C71.29 80.5752 71.2039 84.2623 71.243 86.3446C71.4309 95.1513 77.8735 111.935 77.8735 111.935L80.1202 116.013L77.0594 114.589C73.067 101.656 70.3584 91.9026 69.3095 87.8789C68.9337 86.4385 68.3544 84.1057 69.0042 81.3502C69.4582 79.4166 70.0766 79.1662 70.7342 77.17C72.1433 72.9036 71.0317 68.9269 71.243 68.9034Z" fill="#412168"/>
        <path opacity="0.3" d="M74.6094 67.7839C74.6094 67.7839 82.2575 65.639 83.3769 65.9521C84.4964 66.2574 85.7254 71.8624 86.1324 72.5826C86.5395 73.3028 88.2774 73.0914 88.4809 74.1091C88.6844 75.1267 97.1467 94.5015 98.3679 98.5799C99.5891 102.658 99.7926 111.019 99.0802 108.06C98.3679 105.101 88.2695 82.8766 87.0483 79.307C85.8271 75.7373 84.8017 75.1267 83.6822 74.5161C82.5628 73.9056 82.1557 68.7076 82.1557 68.7076L74.6094 67.7839Z" fill="white"/>
        <path d="M60.2081 48.5269C60.0046 48.2529 59.3862 47.3526 59.6993 46.5933C59.9106 46.0845 60.4508 45.8653 60.7483 45.7479C63.7778 44.5815 67.1282 43.7125 67.23 43.6891C69.6254 43.0706 69.7585 42.8749 70.5569 42.9767C71.9425 43.1489 72.9759 43.963 74.2597 44.9572C75.2382 45.7165 76.3968 46.836 76.9134 47.3291C77.1561 47.564 77.3596 47.7675 77.5005 47.9084C79.0427 53.9674 80.5848 60.0264 82.127 66.0855C79.3793 66.8604 76.6316 67.6276 73.8761 68.4026C73.4299 68.3869 72.741 68.3008 72.0365 67.9172C71.1832 67.4476 70.6431 66.7117 70.1264 65.6627C68.8504 63.0559 68.4512 59.909 68.3181 58.5939C67.7858 58.2181 67.2535 57.8346 66.7211 57.4588C67.2535 59.8699 66.9012 61.8113 65.8757 62.2966C65.4217 62.5158 64.631 62.5315 64.1926 62.1244C63.9735 61.9287 63.8952 61.6704 63.7699 60.6057C63.7073 60.0812 63.6447 59.3767 63.5977 58.5469C63.3237 58.5861 63.0967 58.5547 62.9245 58.5078C61.9381 58.2103 61.304 56.8012 61.2806 55.0164C60.9126 54.3588 60.6543 53.7874 60.4821 53.3725C59.8324 51.8147 59.2218 50.2882 59.848 49.0357C59.9889 48.8008 60.122 48.6286 60.2081 48.5269Z" fill="#EDC0C8"/>
        <path opacity="0.5" d="M75.3537 67.98C73.9916 67.4946 73.2088 66.8058 72.7547 66.2891C71.3535 64.6922 70.8055 62.1324 70.054 58.6332C69.9366 58.0695 69.7722 57.2554 69.099 56.5743C68.3005 55.768 67.2124 55.5802 66.4844 55.5332C66.6175 56.2143 66.7505 56.8875 66.8836 57.5685C67.3611 57.913 67.8465 58.2496 68.324 58.594C68.4571 59.9091 68.8563 63.0561 70.1323 65.6629C70.6411 66.7118 71.1891 67.4477 72.0424 67.9174C72.2694 68.0426 72.4886 68.1209 72.6999 68.1914L75.1736 68.0348C75.2363 68.0113 75.2911 67.9957 75.3537 67.98Z" fill="#F480A1"/>
        <path opacity="0.5" d="M65.6161 50.625C64.622 50.5702 63.573 50.5154 62.9859 51.1808C62.6179 51.5956 62.5866 52.1201 62.571 52.3628C62.4849 53.7093 62.3674 55.6506 62.2422 58.0382C62.4457 58.2574 62.6806 58.4218 62.9467 58.5001C63.1033 58.5471 63.3068 58.5706 63.5495 58.5471C63.479 57.5842 63.4086 56.3004 63.4164 54.7426C63.4321 52.0184 63.6591 51.533 64.027 51.2904C64.3871 51.0555 64.6611 51.1808 67.6828 51.3765C68.5047 51.4313 68.6613 51.4313 68.6691 51.3843C68.6926 51.2512 67.2444 50.7111 65.6161 50.625Z" fill="#F480A1"/>
        <path opacity="0.5" d="M61.5177 50.1708C62.05 49.2784 63.78 49.0984 67.2401 48.7383C68.3752 48.6209 69.3224 48.5661 70.0034 48.5348C67.3184 48.1199 65.1656 48.2295 63.7096 48.4173C62.2692 48.5974 61.4003 48.8635 60.8914 49.5759C60.5 50.1239 60.4922 50.7814 60.4922 52.0731C60.4922 52.535 60.5157 53.0046 60.547 53.4509C60.7192 53.8579 60.9619 54.3902 61.3063 55.0087C61.7055 51.8461 60.9775 51.0711 61.5177 50.1708Z" fill="#F480A1"/>
        <path opacity="0.5" d="M70.3181 45.7481C69.9815 45.5211 69.6605 45.3645 69.3865 45.2393C67.2338 45.6698 65.629 46.1786 64.5018 46.4526C62.4743 46.9536 60.4311 47.4468 59.7188 47.5955C59.8127 47.8774 59.9458 48.1279 60.0632 48.3079C61.1904 47.9791 68.5411 45.842 69.5118 46.0377C70.5608 46.2491 71.0696 46.3352 71.0696 46.3352C70.8661 46.1552 70.6156 45.9516 70.3181 45.7481Z" fill="#F480A1"/>
    </g>
    <defs>
        <linearGradient id="paint0_linear_7127_125999" x1="-8.9352" y1="37.0566" x2="139.264" y2="179.438" gradientUnits="userSpaceOnUse">
            <stop offset="0.07" stop-color="#9962FB"/>
            <stop offset="0.27" stop-color="#A161F3"/>
            <stop offset="0.499" stop-color="#B860DE"/>
            <stop offset="0.7502" stop-color="#DA5DBD"/>
        </linearGradient>
        <linearGradient id="paint1_linear_7127_125999" x1="57.5022" y1="-2.28847" x2="77.9339" y2="62.3954" gradientUnits="userSpaceOnUse">
            <stop offset="0.0577" stop-color="#9938E5"/>
            <stop offset="0.8889" stop-color="#21136E"/>
        </linearGradient>
        <linearGradient id="paint2_linear_7127_125999" x1="39.8421" y1="-0.244592" x2="108.094" y2="46.3233" gradientUnits="userSpaceOnUse">
            <stop offset="0.07" stop-color="#9962FB"/>
            <stop offset="0.27" stop-color="#A161F3"/>
            <stop offset="0.58" stop-color="#B860DE"/>
            <stop offset="0.95" stop-color="#DA5DBD"/>
        </linearGradient>
        <linearGradient id="paint3_linear_7127_125999" x1="29.8611" y1="14.3051" x2="98.1075" y2="60.8726" gradientUnits="userSpaceOnUse">
            <stop offset="0.07" stop-color="#9962FB"/>
            <stop offset="0.27" stop-color="#A161F3"/>
            <stop offset="0.58" stop-color="#B860DE"/>
            <stop offset="0.95" stop-color="#DA5DBD"/>
        </linearGradient>
        <clipPath id="clip0_7127_125999">
            <rect width="125" height="93" fill="white"/>
        </clipPath>
    </defs>
</svg>
